<?xml version="1.0" encoding="utf-8"?>
<!-- Generator: Adobe Illustrator 16.0.0, SVG Export Plug-In . SVG Version: 6.00 Build 0)  -->
<!DOCTYPE svg PUBLIC "-//W3C//DTD SVG 1.1//EN" "http://www.w3.org/Graphics/SVG/1.1/DTD/svg11.dtd">
<svg version="1.1" id="Capa_1" xmlns="http://www.w3.org/2000/svg" xmlns:xlink="http://www.w3.org/1999/xlink" x="0px" y="0px"
	 width="944.64px" height="846.667px" viewBox="0 0 944.64 846.667" enable-background="new 0 0 944.64 846.667"
	 xml:space="preserve">
<path fill="#FFCC00" d="M927.654,50.869c1.494-5.338-17.358-3.771-19.361,0.705c-2.758,6.164-5.697,12.226-8.764,18.217
	c-1.26,0.064-2.701,0.193-4.147,0.458c2.743-3.386,5.374-6.866,7.828-10.492c1.699-2.511-3.972-3.218-5.074-3.295
	c-1.847-0.128-3.844-0.06-5.815,0.236c1.836-1.64,3.688-3.265,5.556-4.873c3.339-2.874-2.035-4.104-4.185-4.252
	c-4.462-0.309-9.649,0.456-13.397,3.042c-2.438,1.683-4.896,3.352-7.364,5.014c-0.26-0.564-0.533-1.124-0.834-1.672
	c-4.989-9.091-15.973-10.746-25.459-10.327c-5.922,0.261-11.763,1.261-17.504,2.811c1.439-1.161,2.875-2.324,4.299-3.503
	c5.072-4.203-7.699-4.241-9.25-4.059c-6.11,0.718-11.871,2.194-17.38,4.214c-3.015-0.253-6.408,0.09-9.279,1.097
	c-2.345-0.126-4.69-0.241-7.036-0.335c0.54-0.623,1.081-1.245,1.612-1.875c1.985-2.354-4.236-3.237-5.074-3.295
	c-4.212-0.292-9.962,0.285-13.397,3.042c-0.659,0.529-1.311,1.068-1.968,1.6c-44.283-9.767-89.626-14.712-134.835-17.488
	c-58.827-3.612-117.813-3.195-176.72-2.789c-17.436,0.12-34.872,0.24-52.309,0.244c-3.143,0-6.299,1.481-8.64,3.667
	c-7.485,0.07-14.975,0.313-22.471,0.778c-4.88,0.303-9.825,3.285-11.688,7.963c-0.663,1.665-0.673,3.183-0.19,4.437
	c-2.176,1.077-4.096,2.742-5.399,4.663c-0.689,1.017-1.212,2.396-1.411,3.797l0,0c-4.586-0.933-9.185-1.742-13.797-2.427
	c-0.894-1.777-2.771-2.972-5.293-2.876c-4.495,0.17-8.982,0.414-13.464,0.708c-46.413-3.91-93.724,2.239-139.869,5.959
	c-3.526,0.284-6.824,1.746-9.24,4.284c-25.199-1.669-50.335-4.345-75.365-8.479c-4.908-0.811-9.883,1.592-12.671,5.702
	c-0.527,0.777-0.95,1.707-1.215,2.678c-20.012,0.101-40.011,2.25-59.024,8.465c-1.206,0.395,4.246,5.985,4.431,6.156
	c0.231,0.215,0.485,0.453,0.75,0.701c-0.128,0.078-0.247,0.169-0.377,0.244c-1.823,1.045-4.014,3.099-0.994,4.391
	c2.41,1.032,5.5,1.091,8.315,0.708c0.9,0.43,1.796,0.713,2.65,0.754c1.132,0.054,2.264,0.109,3.396,0.163
	c-0.22-0.011-0.366,0.048-0.394,0.216c-0.235,1.421-0.442,2.846-0.669,4.268c-0.447-0.354-0.898-0.703-1.355-1.043
	c-0.59-0.438-6.932-5.122-6.926-2.593c0.039,15.977,1.044,31.881,2.441,47.757c-0.234,2.192-0.464,4.385-0.683,6.579
	c-1.294-1.078-2.625-2.041-3.722-2.854c-0.523-0.389-7.052-5.117-6.926-2.593c0.941,18.839,3.158,37.956,6.766,56.869
	c-1.831,34.351-2.311,68.794-2.321,103.131c0,1.943,3.13,4.585,5.193,6.236c-3.342,4.574-6.608,9.207-9.768,13.921
	c-2.092,3.122-2.4,7.52,0.691,10.144c3.722,3.16,8.876,1.829,12.492-0.748c-5.4,7.799-10.565,15.76-15.405,23.937
	c-4.905,8.287,4.337,15.581,11.993,10.278c0.363-0.251,0.715-0.517,1.077-0.77c-5.384,20.311-10.43,40.721-15.544,61.11
	c-4.58,17.621-9.059,35.256-13.729,52.794c-3.162,11.873,14.748,8.348,17.064-0.07c1.029-3.74,2.04-7.486,3.041-11.235
	c-2.035,10.305-3.781,20.659-5.072,31.093c-0.548,4.431,3.555,6.211,7.258,5.766c-2.17,7.062-4.407,14.104-6.736,21.113
	c-1.397,4.207,0.674,7.912,5.377,7.893c2.496-0.011,5.071-0.952,7.221-2.478c-3.199,4.122-6.3,8.316-9.298,12.573
	c-1.259,1.789-2.012,4.305-1.385,6.381c-4.188,5.864-8.198,11.865-11.948,18.064c-1.034,1.709-1.679,3.817-1.455,5.653
	c-3.992,4.758-7.96,9.533-11.879,14.347c-2.034,2.498-2.478,6.916,0.496,8.89c0.959,0.637,2.101,0.957,3.301,1.033
	c0.675,0.92,1.658,1.63,2.886,1.954c4.982,1.315,9.731-2.058,12.671-5.702c0.445-0.552,0.88-1.112,1.32-1.668
	c-7.35,30.924-12.085,62.491-13.251,94.088c-1.208,1.311-2.412,2.623-3.609,3.942c-2.5,2.755-5.271,8.025-1.095,10.797
	c1.355,0.899,2.882,1.181,4.429,1.061c0.007,3.923,0.059,7.845,0.183,11.765c-1.81,7.581-3.592,15.169-5.346,22.762
	c-0.614,2.654,4.799,6.554,6.431,7.908c0.391,0.324,8.543,6.434,8.955,4.869c0.426-1.616,0.841-3.235,1.257-4.854
	c2.851,1.911,5.242,3.158,5.41,2.631c0.206-0.646,0.395-1.294,0.597-1.939c0.103,0.08,0.194,0.167,0.308,0.242
	c1.068,0.709,2.2,1.042,3.349,1.101c0.635,3.19,1.379,6.365,2.221,9.525c-2.246,2.48-4.479,4.971-6.698,7.466
	c-2.173,2.443-4.616,6.264-2.401,9.515c2.654,3.896,8.965,2.241,12.066-0.051c1.562-1.154,3.105-2.335,4.658-3.504
	c-4.621,4.826-9.383,9.519-14.323,14.04c-2.782,2.546-5.062,8.164-1.095,10.797c4.216,2.798,9.575-0.261,12.821-3.029
	c5.117-4.363,10.152-8.833,15.14-13.369c-0.285,0.698-0.567,1.396-0.854,2.094c-2.797,2.379-6.262,6.42-4.316,10.193
	c-3.217,7.381-6.599,14.694-10.192,21.921c-0.755,1.519,2.811,5.418,6.725,8.557c-8.222,6.476-16.546,12.817-25.056,18.918
	c-3.133,2.245-7.211,7.176-4.462,11.211c2.784,4.086,8.783,1.968,12.066-0.051c5.711-3.511,11.308-7.226,16.796-11.104
	c0.01,0.015,0.016,0.03,0.026,0.045c2.207,3.239,6.987,2.644,10.301,1.012c-0.227,4.539,5.38,6.854,10.543,4.68
	c2.549-1.074,5.061-2.206,7.554-3.366c36.609,12.939,77.452,7.43,114.413-1.75c3.247-0.807,6.48-1.656,9.708-2.529
	c0.56-0.068,1.119-0.141,1.679-0.212c8.891-0.753,17.741-1.757,26.559-2.971c12.314-0.826,24.595-2.075,36.819-3.956
	c5.875-0.373,11.75-0.749,17.624-1.136c20.994-0.284,41.971-1.755,62.835-4.272c0.585-0.04,1.171-0.081,1.756-0.121
	c0.197-0.014,0.326-0.072,0.426-0.149c5.357-0.665,10.708-1.399,16.049-2.2c2.415,2.2,5.66,4.807,7.97,4.571
	c17.629-1.791,35.13-4.364,52.565-7.339c42.906-3.973,85.891-7.702,128.463-14.233c-0.341,0.274-0.682,0.551-1.023,0.824
	c-2.911,2.335-4.321,7.093-2.347,10.41c2.57,4.316,8.886,4.239,12.701,1.786c6.593-4.239,13.239-8.495,19.862-12.825
	c42.358,0.199,84.703-0.146,127.005-2.075c40.128,7.007,80.151,16.71,120.886,12.773c24.798,10.641,51.084,17.792,77.443,24.013
	c2.194,0.519-2.069-4.609-2.11-4.652c-2.932-3.069-6.868-6.785-10.979-8.196c-1.512-0.519-2.998-1.085-4.473-1.672
	c3.548,0.708,7.177,1.129,10.896,1.187c0.59,0.035,0.813-0.234,0.671-0.808c-0.027-2.047-0.158-4.074-0.34-6.092
	c2.499,1.717,4.639,2.96,4.724,2.279c0.01-0.079,0.019-0.157,0.028-0.236c0.775,0.573,1.478,1.071,1.995,1.456
	c0.594,0.441,6.926,5.122,6.926,2.593c0-16.715,0-33.43,0-50.146c1.622,1.202,3.167,1.973,3.111,0.503
	c-2.347-62.23-8.424-124.828-22.36-185.611c-0.415-1.807-1.35-3.587-2.476-5.249c-0.819-3.908-1.67-7.811-2.547-11.708
	c0.027-0.839-0.197-1.775-0.617-2.75c-1.041-4.55-2.123-9.092-3.25-13.625c-0.653-2.628-2.296-5.158-4.066-7.383
	c-0.06-2.52-0.125-5.038-0.163-7.558c-0.126-8.304,0.002-16.599,0.257-24.889c5.438-7.694,10.712-15.51,15.76-23.493
	c3.467-5.482-8.367-18.229-13.916-14.363c-0.068,0.048-0.136,0.098-0.205,0.146c0.362-7.959,0.68-15.922,0.842-23.891
	c0.365-17.848-0.135-35.961-3.189-53.606c5.641-14.727,10.749-29.65,14.868-44.939c0.716-2.66-1.774-7.165-5.068-10.363
	c5.965-10.288,11.425-20.873,16.179-31.859c2.252-5.205-9.524-16.833-14.537-13.265c-2.36,1.68-4.685,3.401-6.98,5.155
	c0.124-1.36,0.247-2.72,0.359-4.082c0.082-1-0.177-2.072-0.632-3.153c3.766-8.125,7.335-16.341,10.68-24.655
	c0.941-2.341-1.351-6.509-4.478-9.724c4.059-15.436,7.222-31.097,10.19-46.81c3.778-14.333,7.288-28.728,10.366-43.211
	c2.374-9.599,4.522-19.241,6.19-28.981c1.872-7.81,3.712-15.626,5.461-23.466c0.403-1.808-0.896-4.229-2.466-6.403
	c-0.465-1.712-1.539-3.48-2.731-5.083C919.271,80.895,923.463,65.84,927.654,50.869z M676.628,47.865
	c-2.164-0.145-4.328-0.283-6.492-0.417c0.404-0.323,0.792-0.659,1.165-1.011C673.09,46.868,674.868,47.342,676.628,47.865z
	 M93.019,797.692c3.666-3.537,7.438-6.974,11.271-10.352c0.542,0.863,1.339,1.827,2.29,2.812c-3.572,2.406-7.184,4.747-10.838,7.022
	C94.833,797.34,93.925,797.511,93.019,797.692z M549.609,748.867c1.71-1.414,3.433-2.814,5.175-4.194
	c4.354-0.402,8.7-1.066,13.016-1.922c-3.581,2.064-7.176,4.1-10.79,6.094C554.541,748.831,552.074,748.836,549.609,748.867z
	 M596.245,696.936c-0.011-0.043-0.015-0.086-0.026-0.129c0.756-0.022,1.452-0.212,2.047-0.626
	c10.923-7.599,21.419-15.793,31.694-24.297c-4.88,4.786-9.71,9.591-14.501,14.379c-0.285,0.285-0.499,0.609-0.647,0.964
	c-5.554,2.967-11.091,6.032-16.59,9.202C597.562,696.598,596.904,696.767,596.245,696.936z M835.249,692.271
	c-0.095,0.129-0.189,0.258-0.284,0.387c-1.014-0.802-2.068-1.466-3.101-1.939c-0.26-1.229-0.513-2.46-0.764-3.69
	c1.108-1.081,2.215-2.166,3.318-3.253C834.699,686.607,834.977,689.439,835.249,692.271z M324.038,589.49
	c3.189-2.208,6.386-4.406,9.589-6.595c7.458-4.422,14.889-8.893,22.3-13.396c-11.37,7.699-22.769,15.353-34.237,22.891
	C322.481,591.432,323.257,590.458,324.038,589.49z M775.771,646.044c0.448,0.798,1.004,1.603,1.63,2.385
	c-1.992,1.924-3.991,3.84-5.996,5.749C772.919,651.493,774.375,648.781,775.771,646.044z M531.325,92.292
	c-0.561-0.115-1.136-0.195-1.718-0.257c3.336-0.152,6.671-0.302,10.007-0.447c-1.877,0.647-3.749,1.307-5.614,1.982
	C533.429,92.952,532.385,92.511,531.325,92.292z M765.607,658.023c0.328,0.296,0.641,0.552,0.932,0.763
	c-0.408,0.383-0.819,0.764-1.228,1.146C765.553,659.357,765.644,658.714,765.607,658.023z M333.473,184.954
	c7.564-4.837,15.25-9.62,23.05-14.286c-4.521,2.986-9.039,5.974-13.545,8.972c-7.434,4.945-14.77,9.977-22.042,15.082
	c1.255-1.354,2.502-2.714,3.749-4.076C327.606,188.733,330.534,186.833,333.473,184.954z M717.841,394.633
	c-0.249,0.287-0.5,0.574-0.749,0.862c-0.13-0.188-0.263-0.374-0.397-0.56c0.87-1.18,1.738-2.361,2.604-3.542
	C718.813,392.473,718.326,393.552,717.841,394.633z M573.002,148.222c1.091-0.093,2.176-0.255,3.234-0.496
	c-7.928,5.884-15.567,12.193-22.957,18.73c-0.235,0.076-0.476,0.145-0.706,0.226c-3.054,1.083-6.084,2.229-9.096,3.424
	C553.488,163.017,563.358,155.748,573.002,148.222z M253.058,300.944c-0.377,0.333-0.75,0.672-1.127,1.006
	c0.282-0.607,0.551-1.222,0.824-1.834c1.957-1.348,3.915-2.696,5.874-4.042C256.767,297.691,254.907,299.312,253.058,300.944z
	 M353.273,221.199c-1.862,1.391-3.709,2.801-5.56,4.207c-0.38-0.049-0.773-0.08-1.171-0.11
	c10.151-6.612,20.107-13.503,29.756-20.816c0.589-0.075,1.177-0.159,1.766-0.24C369.654,209.675,361.311,215.196,353.273,221.199z
	 M414.22,226.547c-5.929,2.184-11.794,4.518-17.597,6.994c11.567-6.911,23.162-13.779,34.742-20.667
	c0.257,0.312,0.518,0.622,0.782,0.925C426.175,218.051,420.194,222.293,414.22,226.547z M384.911,341.861
	c0.242-0.482,0.486-0.963,0.734-1.443c10.075-8.27,20.163-16.522,30.319-24.683c0.317-0.179,0.634-0.358,0.951-0.537
	c-7.823,7.023-15.5,14.209-22.991,21.585c-0.645,0.41-1.291,0.819-1.933,1.233C389.628,339.293,387.268,340.575,384.911,341.861z
	 M465.759,320.01c3.837-2.143,7.661-4.309,11.472-6.499c-1.453,1.919-2.898,3.843-4.338,5.772
	c-3.975,1.886-8.043,3.651-12.183,5.182C462.399,322.986,464.076,321.494,465.759,320.01z M437.814,344.255
	c0.344,0.272,0.68,0.516,1.005,0.729c-1.327,0.836-2.653,1.674-3.979,2.513C435.83,346.414,436.821,345.333,437.814,344.255z
	 M547.197,121.06c-4.476,1.994-8.911,4.081-13.312,6.245c1.26-0.85,2.527-1.688,3.785-2.541c1.423-0.965,2.846-1.93,4.271-2.894
	C543.692,121.6,545.445,121.33,547.197,121.06z M590.843,105.401c0.008-0.009,0.016-0.018,0.024-0.026
	c0.038-0.025,0.076-0.05,0.114-0.075C590.935,105.334,590.889,105.368,590.843,105.401z M336.466,403.854
	c2.034-1.301,4.069-2.6,6.106-3.896c-3.858,3.056-7.731,6.09-11.605,9.109C332.792,407.331,334.625,405.592,336.466,403.854z
	 M585.42,97.134c-1.328,0.731-2.647,1.48-3.96,2.243c-1.278,0.286-2.549,0.586-3.818,0.89c3.055-1.742,6.462-3.642,9.68-5.348
	C586.689,95.658,586.059,96.4,585.42,97.134z M525.977,106.088c-0.058-0.132-0.116-0.265-0.18-0.4
	c0.638-0.268,1.277-0.53,1.916-0.795C527.135,105.292,526.555,105.689,525.977,106.088z M533.565,114.402
	c-0.135,0.018-0.27,0.037-0.404,0.055c7.802-5.347,15.589-10.712,23.351-16.117c3.418-2.379,6.826-4.772,10.233-7.166
	c1.127,0.054,2.255,0.104,3.382,0.156C557.669,98.503,545.537,106.371,533.565,114.402z M121.007,162.959
	c1.903-3.561,3.782-7.133,5.627-10.72c2.416-0.477,4.748-1.328,6.796-2.635c1.822-1.163,3.626-2.353,5.437-3.533
	C133.121,151.869,127.163,157.521,121.007,162.959z M585.53,568.052c0.339-0.229,0.679-0.456,1.018-0.685
	c2.979-1.152,5.964-2.292,8.956-3.407c0.051,0,0.101-0.004,0.151-0.005c-2.091,1.312-4.188,2.615-6.287,3.912
	C588.13,567.657,586.793,567.769,585.53,568.052z M706.067,674.66c-1.764,1.616-3.526,3.234-5.286,4.855
	c-0.052,0.009-0.104,0.017-0.156,0.025c1.885-1.708,3.776-3.408,5.675-5.101C706.222,674.514,706.144,674.587,706.067,674.66z
	 M523.096,92.333c-0.169,0.031-0.337,0.062-0.505,0.096c0.044-0.026,0.088-0.053,0.132-0.079
	C522.847,92.345,522.972,92.339,523.096,92.333z M234.058,202.755c0.1-0.444,0.2-0.888,0.299-1.331
	c7.049-5.651,13.902-11.556,20.528-17.757c4.108-2.758,8.205-5.532,12.29-8.325c0.383-0.237,0.765-0.476,1.148-0.713
	C256.863,183.956,245.502,193.408,234.058,202.755z M181.565,170.399c4.712-5.754,9.157-11.725,13.181-18.023
	c0.801-1.254,1.274-2.441,1.489-3.546c2.662-1.974,5.323-3.948,7.984-5.922c10.328-7.354,20.755-14.571,31.249-21.693
	c0.526,0.015,1.053,0.029,1.58,0.041C218.498,137.582,199.467,153.406,181.565,170.399z M776.044,599.676
	c1.635-4.611,3.258-9.227,4.861-13.848c0.021-0.022,0.043-0.044,0.063-0.065c-1.28,4.323-2.653,8.614-4.122,12.869
	C776.579,598.979,776.312,599.328,776.044,599.676z M188.842,118.53c-0.198-0.196-0.401-0.393-0.609-0.59
	c0.498-0.775,0.989-1.559,1.475-2.35c0.187-0.214,0.373-0.429,0.56-0.643c0.984,0.248,1.973,0.488,2.965,0.722
	C191.763,116.615,190.306,117.577,188.842,118.53z M661.563,307.083c9.476-10.092,18.269-20.813,26.166-32.175
	c0.657,0.021,1.321,0.02,1.995-0.009c-7.217,8.58-14.399,17.188-21.545,25.827C665.971,302.864,663.767,304.987,661.563,307.083z
	 M301.375,156.407c-0.519-0.375-1.033-0.729-1.532-1.05c7.794-4.711,15.604-9.396,23.434-14.048
	c-0.034,0.063-0.069,0.126-0.102,0.19C315.939,146.511,308.667,151.474,301.375,156.407z M217.64,177.268
	c0.8-0.677,1.599-1.355,2.398-2.032c-0.015,0.101-0.03,0.203-0.045,0.304C219.209,176.117,218.424,176.692,217.64,177.268z
	 M165.45,475.361c-12.905,10.669-25.737,21.386-38.594,31.964c0.63-2.24,1.28-4.475,1.945-6.703
	C141.099,492.356,153.269,483.848,165.45,475.361z M670.132,707.774c-0.703,3.128,3,8.38,7.089,11.369
	c-2.045,2.146-4.091,4.29-6.125,6.446c-0.849,0.035-1.697,0.068-2.546,0.103c0.588-0.73,1.18-1.456,1.752-2.205
	c2.275-2.979,2.268-7.633-0.691-10.145c-1.188-1.009-2.565-1.546-4.001-1.733c1.414-1.271,2.826-2.547,4.236-3.828
	C669.941,707.778,670.037,707.777,670.132,707.774z M273.843,134.925c-13.304,10.255-26.683,20.413-40.147,30.455
	c-0.259-0.319-0.53-0.625-0.81-0.922c5.168-4.421,10.277-8.911,15.328-13.466c8.027-5.475,16.112-10.86,24.262-16.144
	C272.932,134.876,273.388,134.9,273.843,134.925z M335.628,626.859c-0.625,1.557-1.235,3.118-1.826,4.687
	c-0.667,0.097-1.325,0.273-1.951,0.55c-7.442,3.287-14.661,6.933-21.715,10.839c0.254-0.198,0.508-0.396,0.763-0.594
	C319.177,637.246,327.416,632.077,335.628,626.859z M338.656,744.294c0.667,0,1.333-0.064,1.983-0.188
	c-3.543,3.307-7.012,6.688-10.382,10.168c-3.854,1.391-7.698,2.816-11.534,4.267C325.481,753.943,332.119,749.164,338.656,744.294z
	 M784.561,109.736c-0.313-0.545-0.676-1.092-1.071-1.633c0.891,0.125,1.798,0.181,2.713,0.181
	C785.655,108.769,785.107,109.251,784.561,109.736z M232.391,96.62c-9.18,0.772-18.367,1.419-27.566,1.875
	c0.943-1.061,1.887-2.121,2.829-3.181c0.027-0.03,0.037-0.058,0.061-0.088c8.372,0.203,16.745,0.559,25.085,1.184
	C232.664,96.479,232.528,96.55,232.391,96.62z M119.795,540.135c4.896-3.551,9.789-7.105,14.676-10.669
	c-0.261,0.805-0.522,1.61-0.78,2.415c-2.977,2.33-5.953,4.66-8.929,6.988c-1.758,0.985-3.5,2.001-5.223,3.05
	c0.072-0.583,0.15-1.166,0.229-1.749C119.777,540.158,119.787,540.146,119.795,540.135z M218.623,752.985
	c1.917-1.555,3.823-3.123,5.721-4.701c0.202,0.67,0.51,1.31,0.937,1.898c-3.84,2.544-7.684,5.082-11.532,7.613
	C215.385,756.203,217.016,754.605,218.623,752.985z M197.983,784.151c12.463-7.993,24.836-16.128,37.177-24.312
	c-7.302,6.004-14.557,12.066-21.81,18.131c-0.08,0.007-0.159,0.014-0.238,0.021c-0.492,0.041-0.653,0.299-0.604,0.683
	c-1.617,1.352-3.234,2.703-4.852,4.054C204.433,783.181,201.208,783.662,197.983,784.151z M863.208,734.428
	c-0.651-0.458-1.315-0.859-1.977-1.186c-0.381-1.674-0.757-3.349-1.129-5.025c0.423-0.541,0.843-1.084,1.264-1.626
	c0.623,2.607,1.239,5.216,1.85,7.826C863.212,734.42,863.21,734.424,863.208,734.428z M388.299,108.616
	c-0.189,0.026-0.378,0.053-0.567,0.08c6.146-4.727,12.229-9.535,18.245-14.428c3.815,0.168,7.63,0.292,11.445,0.396
	C407.59,99.081,397.886,103.739,388.299,108.616z M68.857,575.385c1.435-0.159,2.912-0.688,4.335-1.706
	c0.63-0.45,1.259-0.903,1.89-1.354c-2.405,2.745-4.824,5.479-7.252,8.206C68.168,578.815,68.512,577.1,68.857,575.385z
	 M202.145,673.791c0.587,0.466,1.229,0.81,1.911,1.046c-0.42,0.68-0.837,1.361-1.251,2.045c-2.699,1.98-5.38,3.987-8.05,6.01
	C197.228,679.867,199.691,676.833,202.145,673.791z M67.782,603.69c1.556-1.614,3.129-3.211,4.701-4.811
	c-0.399,2.773-0.819,5.545-1.239,8.316c-1.167,1.164-2.334,2.327-3.503,3.488C67.767,608.354,67.783,606.022,67.782,603.69z
	 M603.775,713.467c1.586-0.218,3.173-0.428,4.76-0.635c-3.198,1.271-6.413,2.501-9.64,3.702
	C600.523,715.514,602.151,714.492,603.775,713.467z M859.774,635.244c-0.012-0.207-0.021-0.413-0.031-0.62
	c0.015,0.204,0.026,0.409,0.041,0.613C859.781,635.239,859.777,635.241,859.774,635.244z M178.001,609.982
	c21.475-20,43.221-39.723,64.811-59.609c0.351,0.34,0.717,0.681,1.095,1.022c-5.804,5.604-11.319,11.523-16.623,17.653
	c-13.832,10.188-27.266,20.908-40.001,32.434c-1.232,1.115-2.235,2.605-2.793,4.22c-2.303,1.814-4.609,3.624-6.914,5.436
	C177.717,610.753,177.858,610.368,178.001,609.982z M67.484,631.753c-0.194,1.564-0.378,3.131-0.547,4.699
	c0.071-1.451,0.136-2.902,0.198-4.354C67.251,631.982,67.368,631.868,67.484,631.753z M49.908,649.411
	c-0.218,2.949-0.449,5.897-0.686,8.846c-1.28,1.588-2.552,3.183-3.819,4.78c0.498-3.573,1.035-7.138,1.602-10.69
	C47.973,651.368,48.94,650.39,49.908,649.411z M478.399,775.834c2.333-1.411,4.67-2.817,7.008-4.221
	c0.984,0.607,1.993,1.123,3.017,1.448c1.271,0.404,2.548,0.765,3.828,1.095c-3.025,0.57-6.049,1.147-9.072,1.729
	C481.585,775.868,479.992,775.851,478.399,775.834z M837.25,770.674c0.012,0.003,0.022,0.006,0.034,0.01
	c-0.073,0.374-0.156,0.746-0.224,1.122c-0.275,1.531,0.266,3.495,1.308,5.466c-0.292-0.072-0.584-0.146-0.876-0.218
	c-1.275-1.237-2.73-2.522-4.084-3.653C834.696,772.501,835.975,771.591,837.25,770.674z M117.296,728.56
	c-0.237,0.402-0.468,0.808-0.709,1.207c-1.039,0.965-2.074,1.932-3.104,2.902C114.748,731.291,116.018,729.921,117.296,728.56z
	 M83.26,732.676c4.025-3.825,8.058-7.644,12.11-11.438c1.556-1.21,3.111-2.421,4.664-3.635c-1.325,1.475-2.629,2.967-3.918,4.473
	c-3.172,3.503-6.292,7.059-9.349,10.671c-1.692,1.436-3.371,2.891-5.04,4.361C82.24,735.632,82.753,734.155,83.26,732.676z
	 M609.986,44.106c4.258-0.403,8.523-0.733,12.799-0.958c6.456-0.34,13.046-0.486,19.648-0.292
	C631.621,43.402,620.804,43.849,609.986,44.106z M840.574,51.269c0.154-0.033,0.309-0.066,0.463-0.098
	c-0.227,0.05-0.371,0.086-0.45,0.111C840.582,51.277,840.578,51.272,840.574,51.269z M558.413,43.163
	c-7.963-1.192-15.933-2.403-23.908-3.602c0.206-0.328,0.396-0.661,0.558-1.001c14.645,0.082,29.286,0.283,43.915,0.666
	C572.109,40.471,565.255,41.801,558.413,43.163z M42.169,508.692c0.38-0.965,0.767-1.929,1.156-2.892
	c0.067,0.003,0.135,0.006,0.203,0.008c-0.269,0.736-0.538,1.474-0.804,2.212C42.541,508.245,42.353,508.468,42.169,508.692z
	 M43.445,722.861c-0.105,1.218-0.209,2.435-0.312,3.652c-0.109-1.047-0.211-2.095-0.302-3.144
	C43.036,723.2,43.241,723.031,43.445,722.861z M653.864,774.568c0.444,0.468,0.776,0.799,0.847,0.864
	c0.139,0.129,0.285,0.266,0.434,0.404c-1.246,0.033-2.491,0.065-3.737,0.097C652.228,775.482,653.046,775.026,653.864,774.568z
	 M824.663,792.679c-2.155-1.979-4.573-3.823-7.132-5.023c10.324,2.094,20.674,4.053,31.067,5.724
	c0.802,0.596,1.606,1.189,2.412,1.783c-1.006,1.772-0.415,4.228,0.979,6.655C842.761,799.112,833.618,796.113,824.663,792.679z
	 M847.472,52.148c0.191,0.092,0.378,0.213,0.566,0.324c-2.37-0.296-4.744-0.561-7.123-0.793c-0.078-0.123-0.175-0.241-0.286-0.353
	c0.442-0.022,1.938-0.247,2.058-0.325c0.24-0.006,0.467-0.011,0.64-0.017c0.866,0.086,2.016,0.214,0.527-0.013
	C845.868,51.278,845.4,51.153,847.472,52.148z M46.537,75.742c0.013,0.017,0.027,0.033,0.04,0.05
	c-0.092-0.025-0.186-0.051-0.262-0.061C46.389,75.735,46.463,75.738,46.537,75.742z"/>
<g>
	<g>
		<path d="M33.23,42.103c-2.115,66.236-2.456,132.523-4.722,198.767c-2.257,65.982-5.102,131.949-8.375,197.888
			c-3.269,65.829-7.054,131.629-10.822,197.431c-1.198,20.92-2.17,41.463-1.526,62.403c0.317,10.326,0.577,20.661,0.992,30.984
			c0.425,10.554,0.211,21.182,0.802,31.717c0.562,10.021,0.086,20.135-1.107,30.103c-0.771,6.441-1.667,15.487-5.423,21.041
			c-1.273,1.882,10.426,4.449,12.07,2.018c8.431-12.465,8.906-28.733,9.647-43.347c1.062-20.93,0.645-41.702-0.245-62.651
			c-2.205-51.933,2.207-103.896,4.38-155.788c5.53-132.083,9.238-264.222,9.934-396.424c0.199-37.875,0.628-75.819-0.563-113.68
			C38.237,41.46,33.259,41.193,33.23,42.103L33.23,42.103z"/>
	</g>
	<g>
		<path d="M34.78,53.761c13.241-5.715,27.893-6.204,42.105-6.048c14.707,0.161,29.335,0.406,44.046,0.117
			c32.685-0.644,65.367-1.468,98.047-2.33c65.513-1.729,131.01-3.719,196.506-6.022c129.272-4.544,258.87-8.478,388.051,0.422
			c37.385,2.575,74.709,6.227,111.852,11.211c2.974,0.399,8.509,1.468,11.136-0.682c2.225-1.82-5.361-3.459-5.964-3.54
			C791.795,29.607,661.811,27.818,532.108,30.73c-65.376,1.468-130.724,4.035-196.073,6.347
			c-64.791,2.292-129.594,4.221-194.385,6.523c-20.638,0.733-41.206,1.702-61.858,1.71c-15.854,0.006-33.358,0.225-47.67,7.898
			C31.913,53.32,34.164,54.027,34.78,53.761L34.78,53.761z"/>
	</g>
	<g>
		<path d="M923.345,64.437c3.238,27.371-4.119,54.839-11.801,80.869c-3.949,13.383-8.244,26.662-11.947,40.117
			c-4.197,15.25-6.006,31.275-8.285,46.908c-9.512,65.233-14.411,130.917-15.477,196.82c-0.532,32.913-0.445,65.851,1.005,98.738
			c1.455,32.982,3.722,65.929,6.173,98.85c2.275,30.549,3.867,60.981,10.361,90.985c5.723,26.446,13.777,54.03,11.13,81.375
			c-0.378,3.912-1.169,7.717-2.212,11.502c-0.551,2,12.464,4.301,13.584,1.242c2.098-5.728,3.647-11.65,5.342-17.505
			c1.828-6.319,1.11-12.864,0.511-19.341c-1.308-14.13-4.509-28.06-7.607-41.881c-3.18-14.189-6.446-28.369-8.396-42.792
			c-2.072-15.334-2.702-30.955-3.897-46.378c-5.1-65.76-9.318-131.5-9.207-197.483c0.109-65.802,2.791-131.74,8.689-197.283
			c1.483-16.481,3.239-32.94,5.191-49.372c1.634-13.76,5.507-27.24,8.894-40.654c6.718-26.615,14.302-54.48,12.265-82.187
			c-0.304-4.132-0.923-8.231-1.725-12.293C925.813,64.052,923.3,64.064,923.345,64.437L923.345,64.437z"/>
	</g>
	<g>
		<path d="M13.251,827.103c2.747-1.878,9.378-0.375,12.43-0.119c5.689,0.479,11.355,1.268,16.974,2.27
			c13.917,2.479,28.724,2.365,42.844,2.829c31.588,1.038,63.214,0.809,94.796-0.329c64.074-2.306,127.979-8.314,191.658-15.612
			c63.566-7.285,126.917-16.734,190.764-21.294c64.323-4.593,128.986-5.083,193.333-0.658c49.011,3.37,97.791,9.701,146.004,19.145
			c2.854,0.559,8.609,1.385,11.136-0.683c2.25-1.84-5.405-3.431-5.964-3.54c-126.228-24.722-256.17-28.39-384.063-16.438
			c-63.143,5.9-125.927,15.558-188.951,22.622c-63.212,7.085-126.636,12.432-190.244,13.987
			c-28.338,0.693-56.712,0.417-85.035-0.719c-10.707-0.43-21.154-2.193-31.827-3.014c-3.848-0.295-7.699-0.45-11.558-0.35
			c-1.852,0.049-4.656-0.004-6.188,1.253C8.98,826.766,12.417,827.672,13.251,827.103L13.251,827.103z"/>
	</g>
	<g>
		<path d="M924.457,208.348c-18.78,7.298-39.469,8.872-59.431,10.162c-22.562,1.458-45.206,1.155-67.793,0.578
			c-51.19-1.308-102.399-1.917-153.534-4.794c-65.192-3.667-130.384-8.851-195.729-7.995
			c-64.298,0.843-128.427,8.888-192.437,14.437c-38.043,3.298-76.11,5.692-114.207,8.211c-34.766,2.298-71.045,10.395-105.322,0.603
			c-3.636-1.039-8.65-1.545-12.294-0.251c-3.727,1.324,1.7,3.253,2.9,3.596c29.772,8.504,61.008,6.848,91.467,3.938
			c31.31-2.992,62.684-4.561,94.047-6.888c63.999-4.749,127.806-11.843,191.808-16.52c64.728-4.73,129.731-0.932,194.394,2.998
			c32.648,1.984,65.298,4.026,97.986,5.233c24.742,0.914,49.493,0.683,74.236,1.437c29.15,0.888,58.294,1.877,87.454,0.705
			c13.866-0.558,27.986-1.613,41.599-4.417c5.173-1.066,9.85-3.019,14.888-4.487c4.739-1.381,9.028-3.231,13.198-5.875
			C928.054,208.786,925.095,208.1,924.457,208.348L924.457,208.348z"/>
	</g>
	<g>
		<path d="M229.696,48.852c0.044,13.469-2.383,26.86-4.912,40.042c-3.174,16.542-7.022,32.941-10.843,49.342
			c-3.627,15.571-5.265,32.077-4.787,48.051c0.201,6.701,0.958,13.392,2.499,19.92c0.675,2.86,1.625,5.621,2.689,8.355
			c1.714,4.41,6.36,4.81,9.767,7.725c0.595,0.509,5.676,1.558,5.589,0.306c-0.151-2.169,1.079-2.545,2.814-3.811
			c0.457-0.382,0.495-0.803,0.115-1.262c-10.629-26.558-6.241-55.758-5.024-83.579c1.23-28.14,7.727-56.577,5.313-84.793
			C232.854,48.421,229.694,48.298,229.696,48.852L229.696,48.852z"/>
	</g>
</g>
</svg>
