<?xml version="1.0" encoding="utf-8"?>
<!-- Generator: Adobe Illustrator 16.0.0, SVG Export Plug-In . SVG Version: 6.00 Build 0)  -->
<!DOCTYPE svg PUBLIC "-//W3C//DTD SVG 1.1//EN" "http://www.w3.org/Graphics/SVG/1.1/DTD/svg11.dtd">
<svg version="1.1" id="Capa_1" xmlns="http://www.w3.org/2000/svg" xmlns:xlink="http://www.w3.org/1999/xlink" x="0px" y="0px"
	 width="597.777px" height="420px" viewBox="0 0 597.777 420" enable-background="new 0 0 597.777 420" xml:space="preserve">
<path fill="#FFCC00" d="M560.659,340.018c2.214-4.873,3.913-9.984,4.895-15.405c0.388-2.142-2.647-3.07-6.454-3.269
	c3.861-8.943,6.975-18.127,8.677-27.842c0.827-4.723-15.056-3.08-17.03-2.596c-2.979,0.73-6.052,1.408-9.118,2.167
	c3.644-11.89,9.28-23.184,12.814-35.126c1.324-4.47-16.475-3.251-18.604-1.962c-0.642,0.389-1.272,0.792-1.91,1.188
	c0.463-40.816-1.336-81.617-3.836-122.367c1.96,0.271,3.662-0.414,4.591-2.581c3.625-8.459,7.236-16.933,10.539-25.521
	c3.826,1.899,7.424,1.791,7.424-2.806c0-6.667,0-13.333,0-20c0-0.367-0.071-0.769-0.193-1.194
	c-0.235-9.185-0.766-18.357-2.003-27.472c2.928-8.16,4.399-16.827,6.456-25.23c1.585-6.476-9.136-17.06-15.274-12.438
	c-3.694,2.781-7.416,5.699-11.208,8.582c0-0.008,0-0.017,0-0.025c-0.014-5.2-10.247-16.038-15.46-10.779
	c-7.064,7.127-13.662,15.041-21.12,21.813c-12.493-0.842-24.99-0.323-36.796,4.029c-20.33,0.035-40.734,0.651-61.121,0.819
	c-1.771-2.043-3.57-4.066-5.426-6.049c-3.311-3.538-14.605-6.569-11.678,2.041c0.46,1.353,0.943,2.693,1.436,4.03
	c-5.948-0.039-11.893-0.137-17.832-0.324c-22.646-4.894-45.876-7.123-69.039-7.185c-2.749-0.008-7.634-0.115-9.682,2.231
	c-1.919,2.2,3.456,3.549,4.533,3.761c2.017,0.396,4.034,0.769,6.052,1.128c-1.843,0.104-3.685,0.225-5.525,0.361
	c-17.854-2.898-36.014-3.656-54.135-2.95c-10.377,0.404-20.737,1.234-31.099,2.009c-26.971-4.52-54.206-8.039-81.61-7.029
	c-1.096,0.041-4.701,0.496-1.694,1.443c3.566,1.124,7.496,1.349,11.2,1.566c19.386,1.141,38.829,2.305,58.028,4.987
	c-10.61,0.638-21.229,0.992-31.875,0.533c0.167,0.007-2.691-0.046-2.972,0.353c-14.4-0.438-28.803-0.796-43.179-1.727
	c-9-1.97-18.066-3.635-27.222-4.901c-0.701-0.097-10.104-0.756-6.162,0.728c1.832,0.689,3.674,1.337,5.522,1.96
	c-3.281-0.24-6.678,0.105-9.64,1.34c-2.387-0.755-6.029-1.06-9.365-0.917c-0.273-0.052-0.545-0.104-0.829-0.151
	c1.227-1.625,2.449-3.253,3.67-4.881c2.168-2.89-5.665-3.997-6.916-4.131c-3.607-0.385-9.451-0.683-12.338,2.07
	c-1.266,1.207-2.601,2.328-3.959,3.419c-3.027-0.139-6.172,0.35-9.172,1.291c-1.286,0.252-2.519,0.629-3.625,1.194
	c-1.487,0.76-2.923,1.616-4.297,2.56c-1.241,0.82-2.385,1.708-3.391,2.646c-1.379,1.287,0.296,2.322,2.348,3.035
	c-0.325,1.362-0.492,2.827-0.498,4.493c-0.005,1.573,2.15,2.65,5.043,3.226c-0.805,0.87-1.618,1.733-2.449,2.58
	c-2.559,2.608,6.032,4.036,6.916,4.131c1.77,0.189,4.095,0.357,6.342,0.151c-2.875,3.067-5.832,6.068-8.813,9.051
	c-2.584,2.585,6.057,4.039,6.916,4.131c1.022,0.109,2.156,0.198,3.327,0.223c-4.072,3.831-8.237,7.56-12.464,11.202
	c-2.774,2.39,6.24,4.059,6.915,4.131c0.378,0.041,0.77,0.076,1.167,0.108c-1.912,1.156-3.167,2.346-2.997,3.402
	c1.941,12.05,4.6,23.915,7.762,35.639c2.164,12.907,3.022,25.986,3.146,39.108c-2.141,17.183-2.018,34.767-2.019,51.92
	c0,0.364,0.853,0.255,2.046-0.074c-0.05,3.978-0.115,7.955-0.196,11.93c-0.83,0.909-1.67,1.806-2.491,2.725
	c-1.278,1.431,0.607,2.503,2.357,3.136c-1.084,43.186-4.465,86.193-14.917,128.405c-0.302,0.468-0.176,0.727,0.379,0.775
	c5.12,1.462,10.18,2.827,15.232,3.883c-0.058,0.24,0.019,0.438,0.324,0.562c15.399,6.195,30.861,13.296,47.094,16.401
	c-0.756,0.696-1.099,1.256-0.428,1.376c22.642,4.058,45.818,6.107,68.689,3.293c5.895,0.924,11.865,1.197,17.857,1.067
	c10.472,2.636,21.035,5.495,31.667,7.635c-1.292,0.662-2.556,1.372-3.778,2.119c-0.628,0.385-6.286,4.464-2.249,3.57
	c5.283-1.17,10.583-2.077,15.895-2.794c1.589-0.19,3.181-0.36,4.774-0.507c11.567,1.38,23.204,1.405,34.886-1.144
	c0.872-0.19,1.734-0.434,2.587-0.714c6.864,0.012,13.737,0.14,20.613,0.292c-1.428,1.088-3.383,2.744-2.054,2.737
	c10.275-0.048,20.438-0.855,30.496-2.266c13.939,0.024,27.854-0.449,41.691-2.272c3.588-0.473,7.357-2.587,10.475-4.285
	c0.171-0.094,1.713-1.126,3.153-2.216c25.076,1.916,50.334,1.099,75.261-2.388c3.599-0.503,7.34-2.577,10.476-4.285
	c1.738-0.948,3.55-1.973,5.042-3.293c0.027-0.024,1.755-1.674,0.357-1.566c-0.397,0.03-0.797,0.062-1.194,0.092
	c9.085-2.742,18.078-5.9,26.997-9.211c1.171,0.509,2.461,0.833,2.851,0.914c3.68,0.768,8.535,1.086,12.125-0.305
	c2.174-0.843,4.377-1.578,6.592-2.266c3.877,1.418,7.736,2.227,9.063,1.153c1.357-1.097,2.698-2.212,4.03-3.337
	c3.78,0.636,8.332,0.724,9.394,0.48c2.837-0.651,4.858-1.301,6.03-2.833c0.251-0.176,0.496-0.359,0.749-0.533
	c1.722,0.366,3.091,0.418,3.706-0.037c1.572-1.165,3.166-2.298,4.768-3.419c0.03,0.016,0.057,0.03,0.088,0.047
	c3.556,1.881,11.94,6.472,15.68,2.965c0.298-0.279,0.021-0.716-0.582-1.224c0.163-0.41,0.34-0.814,0.512-1.213
	c0.939-2.188,2.047-4.308,3.129-6.427c1.906-3.731,3.938-7.398,5.83-11.137C570.003,344.474,565.423,341.864,560.659,340.018z
	 M306.759,45.674c4.219,0.877,8.373,2.064,12.374,3.627c-0.585-0.041-1.17-0.082-1.756-0.123c-1.147-0.255-2.299-0.5-3.458-0.723
	c0.002,0,0.004,0,0.006-0.001c1.593-0.273-2.583-1.549-2.37-1.49c-1.617-0.449-3.238-0.876-4.862-1.285
	C306.714,45.678,306.737,45.675,306.759,45.674z M357.602,50.012c2.836,0.403,5.741,0.882,8.618,0.777
	c0.156-0.006,0.288-0.02,0.416-0.034c0.731,0.204,1.459,0.418,2.189,0.629c-7.387,0.521-14.777,1.027-22.171,1.511
	c-1.721,0.009-3.443,0.026-5.164,0.053c-0.192-0.09-0.386-0.177-0.579-0.266c-0.64-0.688-2.135-1.228-3.771-1.633
	c-4.613-1.85-9.413-3.308-14.257-4.507C334.508,47.021,346.082,48.375,357.602,50.012z M208.952,352.702
	c0.23-0.071,0.46-0.14,0.691-0.207c0.165-0.008,0.33-0.015,0.495-0.022c-0.168,0.162-0.335,0.324-0.503,0.486
	C209.407,352.874,209.179,352.79,208.952,352.702z M127.836,346.565c0.503-0.245,1.003-0.498,1.505-0.745
	c0.826,0.522,1.65,1.049,2.471,1.579c-0.465,0.454-0.923,0.916-1.386,1.373C129.542,348.055,128.68,347.319,127.836,346.565z
	 M208.62,74.841c-2.724-1.3-5.439-2.617-8.146-3.954c4.544,0.639,9.101,1.19,13.664,1.675c0.134,0.077,0.269,0.152,0.402,0.23
	c3.524,2.041-4.359,1.909-5.548,2.02C208.869,74.823,208.744,74.831,208.62,74.841z M427.81,86.604
	c0.08,0.358,0.191,0.74,0.326,1.137c-0.232-0.388-0.461-0.778-0.694-1.166C427.564,86.584,427.687,86.595,427.81,86.604z
	 M372.082,340.774c-0.348-0.054-0.695-0.101-1.043-0.146c1.24-0.755,2.481-1.507,3.724-2.255
	C373.87,339.173,372.977,339.974,372.082,340.774z M416.841,340.473c0.111,0.879,0.257,1.749,0.436,2.613
	c-0.988,0.479-1.98,0.949-2.978,1.402c-1.162,0.528-2.334,1.03-3.512,1.519C412.816,344.168,414.84,342.329,416.841,340.473z
	 M313.978,194.559c-0.42,0.308-0.839,0.618-1.259,0.926c-0.163-0.264-0.324-0.529-0.487-0.793c0.573-0.34,1.146-0.68,1.72-1.02
	C313.962,193.968,313.97,194.263,313.978,194.559z M292.146,210.488c0.633-1.614,1.28-3.227,1.939-4.837
	c0.245-0.15,0.489-0.301,0.734-0.451c0.515,0.742,1.03,1.483,1.545,2.224C294.958,208.445,293.553,209.468,292.146,210.488z
	 M229.753,180.556c-0.054-0.897-0.113-1.795-0.178-2.691c0.763,0.393,1.521,0.793,2.292,1.175
	C231.162,179.544,230.458,180.05,229.753,180.556z M291.837,132.814c-0.443,0.407-0.883,0.818-1.329,1.223
	c0.15-0.25,0.3-0.499,0.45-0.748C291.251,133.131,291.543,132.972,291.837,132.814z M284.204,139.583
	c-0.967,0.829-1.931,1.659-2.908,2.477c-0.435-0.829-0.867-1.663-1.297-2.501C281.523,139.639,282.973,139.652,284.204,139.583z
	 M285.002,281.488c0.559,1.215,1.131,2.422,1.721,3.62c-0.568,0.256-1.132,0.521-1.697,0.782
	C285.007,284.422,285,282.955,285.002,281.488z M268.823,321.581c0.148,1.198,0.295,2.396,0.464,3.595
	c-1.372-0.251-2.744-0.511-4.117-0.782C266.387,323.455,267.603,322.515,268.823,321.581z M353.242,287.82
	c-0.315,0.347-0.625,0.699-0.939,1.048c0.001-0.085,0.003-0.171,0.005-0.257C352.619,288.347,352.931,288.084,353.242,287.82z
	 M257.551,152.755c1.277,1.649,2.546,3.306,3.802,4.972c-0.343,0.256-0.687,0.513-1.03,0.769c-0.961-1.896-1.893-3.805-2.8-5.723
	C257.532,152.767,257.542,152.761,257.551,152.755z M178.083,245.356c0.322-0.236,0.643-0.474,0.965-0.71
	c0.014,0.172,0.028,0.344,0.042,0.516c-0.356,0.208-0.71,0.419-1.066,0.628C178.043,245.645,178.064,245.501,178.083,245.356z
	 M192.012,135.133c1.598,1.822,3.198,3.641,4.813,5.447c-0.277,0.206-0.55,0.416-0.828,0.621c-1.929-1.627-3.832-3.291-5.718-4.975
	C190.856,135.861,191.435,135.498,192.012,135.133z M175.525,261.442c0.518-0.329,1.035-0.659,1.553-0.987
	c0.023,0.09,0.042,0.181,0.065,0.271c-0.578,0.443-1.158,0.884-1.736,1.327C175.447,261.85,175.486,261.646,175.525,261.442z
	 M275.408,99.399c0.733,0.88,1.519,1.717,2.365,2.51c-0.333,0.321-0.665,0.644-1,0.963c-1.251-0.526-2.503-1.052-3.752-1.585
	C273.817,100.659,274.609,100.024,275.408,99.399z M266.984,106.109c1.503,0.551,3.005,1.102,4.51,1.648
	c-1.254,1.13-2.519,2.25-3.792,3.359c-0.491-1.484-0.952-2.975-1.386-4.469C266.539,106.467,266.762,106.288,266.984,106.109z
	 M377.74,113.707c-0.449,0.214-0.896,0.432-1.344,0.65c0.905-1.654,1.826-3.296,2.757-4.932c0.006,0.035,0.013,0.071,0.019,0.106
	C378.702,110.925,378.227,112.317,377.74,113.707z M329.77,317.588c0.331-1.023,0.667-2.045,0.996-3.068
	c0.548,0.66,1.098,1.318,1.646,1.979c-0.29,0.281-0.575,0.567-0.868,0.847C330.952,317.424,330.361,317.508,329.77,317.588z
	 M404.759,113.266c-0.277-0.119-0.561-0.236-0.851-0.354c0.141-0.062,0.284-0.123,0.425-0.185
	C404.475,112.907,404.616,113.087,404.759,113.266z M232.971,111.564c-0.15,0.124-0.3,0.248-0.45,0.372
	c-0.505-0.429-1.013-0.855-1.519-1.283c0.312-0.198,0.625-0.396,0.938-0.593C232.283,110.562,232.623,111.066,232.971,111.564z
	 M224.263,118.765c-0.289,0.239-0.578,0.477-0.866,0.715c-0.698-0.665-1.396-1.329-2.099-1.988c0.053-0.282,0.114-0.562,0.172-0.842
	c0.045-0.028,0.09-0.056,0.135-0.084C222.492,117.297,223.379,118.028,224.263,118.765z M252.369,338.417
	c-0.496-0.916-0.996-1.83-1.498-2.742c0.412-0.335,0.826-0.666,1.239-0.999c0.162-0.073,0.323-0.146,0.484-0.22
	c2.91,0.546,5.827,1.044,8.749,1.507c-1.339,0.79-2.682,1.576-4.029,2.354c-1.416,0.146-2.831,0.288-4.247,0.429
	C252.833,338.641,252.602,338.526,252.369,338.417z M276.634,74.487c1.288,0.122,2.576,0.24,3.864,0.352
	c-0.973,0.656-1.943,1.317-2.908,1.984c-1.237-0.751-2.492-1.476-3.759-2.182C274.766,74.595,275.7,74.544,276.634,74.487z
	 M119.771,224.968c-0.169,0.13-0.339,0.261-0.508,0.392c0.016-0.042,0.031-0.083,0.047-0.125
	C119.463,225.146,119.617,225.057,119.771,224.968z M169.395,308.287c-0.074-1.878-0.136-3.756-0.184-5.635
	c0.21-0.143,0.42-0.287,0.631-0.429c0.364,0.556,0.726,1.113,1.098,1.664c0.475,1.337,0.921,2.68,1.343,4.026
	c-0.738,0.468-1.478,0.934-2.216,1.4C169.84,308.973,169.618,308.629,169.395,308.287z M333.854,333.792
	c0.021-0.004,0.043-0.009,0.065-0.013c-0.122,0.081-0.244,0.163-0.366,0.245C333.654,333.946,333.754,333.869,333.854,333.792z
	 M404.892,95.255c-0.212-0.294-0.426-0.588-0.638-0.882c0.044-0.161,0.087-0.322,0.131-0.483c0.494-0.281,0.996-0.552,1.487-0.838
	c0.315,0.553,0.63,1.106,0.945,1.659C406.177,94.896,405.534,95.073,404.892,95.255z M242.613,84.586
	c-0.742,0.168-1.483,0.344-2.222,0.522c0.515-0.366,1.034-0.726,1.548-1.094c0.25-0.18,0.448-0.355,0.616-0.528
	C242.575,83.854,242.587,84.22,242.613,84.586z M242.444,80.137c0.003,0.318,0.005,0.636,0.013,0.955
	c-0.494-0.42-1.209-0.778-2.015-1.056c-0.818-0.282-1.728-0.513-2.67-0.708c0.303-0.196,0.611-0.384,0.911-0.586
	C239.941,79.191,241.195,79.658,242.444,80.137z M91.837,219.02c-1.033,0.794-2.059,1.597-3.084,2.402
	c0.006-0.32,0.013-0.641,0.019-0.961c1.032-0.665,2.063-1.331,3.093-1.997C91.857,218.649,91.846,218.834,91.837,219.02z
	 M139.193,323.988c1.895-1.429,3.799-2.845,5.712-4.249c0.257,1.508,0.498,3.019,0.748,4.527c-1.062,0.626-2.123,1.253-3.188,1.872
	C141.384,325.409,140.289,324.698,139.193,323.988z M116.372,187.703c-1.171,0.756-2.341,1.513-3.51,2.271
	c1.231-0.982,2.472-1.955,3.712-2.926C116.506,187.267,116.439,187.485,116.372,187.703z M427.739,83.963
	c-0.658-0.049-1.316-0.102-1.975-0.148c-0.649-1.065-1.301-2.127-1.957-3.187c2.496-0.95,5.006-1.871,7.531-2.763
	c0.484,1.173,0.968,2.346,1.453,3.52C430.332,81.029,428.243,81.802,427.739,83.963z M274.322,354.71
	c1.022,0.098,2.045,0.195,3.068,0.296c-1.388,0.052-2.776,0.106-4.165,0.156C273.594,355.017,273.958,354.864,274.322,354.71z
	 M470.62,318.168c-0.001-0.003-0.001-0.006-0.002-0.009C470.619,318.163,470.62,318.166,470.62,318.168L470.62,318.168z
	 M444.071,73.616c0.812-0.257,1.625-0.513,2.438-0.766c-0.662,0.502-1.321,1.01-1.978,1.521
	C444.38,74.118,444.225,73.868,444.071,73.616z M199.37,78.572c2.385,1.093,4.775,2.176,7.172,3.243
	c-0.742,0.27-1.489,0.525-2.242,0.764c-1.657-1.418-3.37-2.76-5.14-4.023C199.231,78.562,199.3,78.567,199.37,78.572z
	 M137.747,117.812c1.057,0.814,2.126,1.61,3.204,2.396c-4.588,2.545-9.151,5.135-13.686,7.774c-0.433-1.557-0.876-3.11-1.33-4.66
	c2.667-2.23,5.351-4.441,8.048-6.638C135.233,117.074,136.487,117.451,137.747,117.812z M95.887,341.31
	c-1.653,1.439-3.292,2.898-4.92,4.369c-0.698-0.149-1.396-0.295-2.095-0.439C91.232,344.103,93.801,342.626,95.887,341.31z
	 M264.776,364.035c-0.302,0.06-0.604,0.128-0.907,0.186c-0.546-0.031-1.092-0.055-1.638-0.088
	C263.079,364.099,263.928,364.069,264.776,364.035z M189.445,56.552c-0.63-0.035-1.259-0.075-1.889-0.107
	c-1.459-0.271-2.917-0.546-4.374-0.826c1.229,0.015,2.457,0.029,3.686,0.043C187.729,55.955,188.588,56.251,189.445,56.552z
	 M170.768,70.286c0.081-0.01,0.161-0.019,0.242-0.029c1.659,0.896,3.286,1.843,4.874,2.848c-4.356-0.768-8.696-1.708-13.021-2.775
	C165.519,70.565,168.202,70.617,170.768,70.286z M240.865,364.89c3.59,0.271,7.18,0.566,10.77,0.874
	c-6.137,0.395-12.274,0.205-18.334-0.629C235.822,365.054,238.344,364.972,240.865,364.89z M346.459,364.764
	c-0.556,0.576-1.117,1.146-1.667,1.728c-2.672,0-5.344,0-8.016,0C340.006,365.945,343.233,365.368,346.459,364.764z M465.974,59.509
	c-0.136-0.034-0.257-0.063-0.366-0.089c-0.012-0.023-0.023-0.046-0.036-0.069c0.359-0.081,0.72-0.156,1.079-0.239
	c0.101,0.03,0.2,0.068,0.301,0.098C466.626,59.312,466.3,59.41,465.974,59.509z M160.774,65.535
	c-4.91-0.303-9.845-0.309-14.692,0.151c-3.225-0.97-6.44-1.968-9.648-2.97c4.162-0.412,8.332-0.742,12.504-1.015
	C152.961,62.757,156.922,64.031,160.774,65.535z M175.284,75.35c-0.562,0.488-0.959,1.147-1.134,1.958
	c-0.069-0.017-0.129-0.032-0.167-0.04c-2.867-0.599-6.16-0.826-9.245-0.357c-0.589-0.291-1.174-0.591-1.767-0.875
	c-1.661-0.797-3.598-1.177-5.535-1.412c-0.117-0.179-0.239-0.354-0.355-0.533c-0.713-1.101-1.756-2.252-1.959-3.162
	C161.814,72.592,168.537,74.098,175.284,75.35z M119.314,101.934c-0.136,0.087-0.271,0.175-0.407,0.263
	c-0.123-0.325-0.242-0.651-0.366-0.976C118.799,101.459,119.057,101.696,119.314,101.934z M78.102,339.256
	c0.327,0.172,0.678,0.329,1.03,0.471c0.622,1.6,1.287,3.189,2.003,4.767c-1.462,0.385-3.035,1.095-4.502,1.854
	C77.118,343.983,77.606,341.62,78.102,339.256z M186.681,360.123c-1.954-1.488-3.895-2.996-5.827-4.515
	c1.141-0.338,2.273-0.69,3.401-1.055c1.785,0.27,3.57,0.536,5.356,0.801c2.752,1.396,5.571,2.663,8.449,3.806
	c-0.544,0.232-1.082,0.481-1.613,0.738C193.194,359.901,189.938,359.975,186.681,360.123z M381.492,62.461
	c0.051,0.015,0.103,0.03,0.154,0.045c-0.549,0.183-1.101,0.349-1.65,0.527c-4.626,0.02-9.256-0.029-13.888-0.106
	c0.704-0.037,1.407-0.067,2.111-0.109C372.643,62.692,377.067,62.572,381.492,62.461z M126.936,63.546
	c0.243-0.001,0.569,0.031,1.002,0.108c0.135-0.016,0.27-0.031,0.405-0.046c3.599,1.045,7.209,2.079,10.829,3.09
	c-1.448,0.291-2.887,0.62-4.305,1.018c-0.036,0.029-0.072,0.059-0.107,0.088c-2.682-1.201-5.353-2.425-8.022-3.651
	c-0.083-0.08-0.144-0.15-0.189-0.214C126.676,63.807,126.807,63.678,126.936,63.546z M125.952,71.625
	c-0.214,0.043-0.335,0.096-0.277,0.164c0.115,0.134,0.231,0.269,0.346,0.402c-0.333-0.309-0.666-0.617-0.999-0.925
	C125.332,71.388,125.642,71.505,125.952,71.625z M387.472,58.978c-1.459,0.028-2.919,0.06-4.378,0.09
	c-1.146-0.386-2.288-0.785-3.43-1.185c2.445,0.024,4.891,0.052,7.336,0.102C387.156,58.316,387.314,58.647,387.472,58.978z
	 M156.806,56.824c-0.143,0.13-0.115,0.286,0.223,0.473c0.065,0.036,0.131,0.07,0.196,0.106c-1.583-0.044-3.167-0.073-4.75-0.085
	c-3.598-0.571-7.192-1.158-10.785-1.756c1.4-0.039,2.8-0.074,4.2-0.107C149.542,55.805,153.18,56.266,156.806,56.824z
	 M112.937,80.016c-0.982,0.5-1.963,1.002-2.941,1.511c-0.255-0.52-0.511-1.039-0.771-1.556c0.712-0.609,1.415-1.229,2.123-1.843
	C111.875,78.757,112.406,79.386,112.937,80.016z M368.599,58.458c-1.834,0.008-3.669,0.019-5.503,0.042
	c1.561-0.105,3.123-0.207,4.684-0.313C368.053,58.278,368.326,58.369,368.599,58.458z M94.551,73.923
	c-1.434,0.705-2.833,1.47-4.049,2.23c2.975-2.328,5.992-4.591,9.066-6.766C97.916,70.918,96.241,72.428,94.551,73.923z
	 M80.527,110.232c-0.028-0.088-0.057-0.177-0.085-0.266c0.319-0.159,0.638-0.32,0.957-0.481
	C81.107,109.733,80.818,109.984,80.527,110.232z M514.512,62.036c-1.058-0.224-2.424-0.417-3.927-0.579
	c1.354-0.882,2.702-1.77,4.047-2.664C514.603,59.875,514.559,60.956,514.512,62.036z M188.409,50.397
	c-0.346-0.006-0.691-0.014-1.036-0.021c-0.073-0.071-0.188-0.149-0.336-0.23c0.001,0,0.003,0,0.004-0.001
	C187.497,50.228,187.953,50.319,188.409,50.397z M138.314,51.361c0.011,0.003,0.021,0.006,0.031,0.009
	c-0.181,0.007-0.361,0.013-0.542,0.02c0.026-0.032,0.05-0.064,0.076-0.095C138.025,51.317,138.17,51.338,138.314,51.361z
	 M87.061,78.889c-0.313,0.391-0.493,0.749-0.492,1.055c0.001,0.275,0.013,0.55,0.015,0.826c-2.453,2.057-4.923,4.095-7.408,6.119
	c-0.627,0.066-1.253,0.122-1.883,0.201C80.505,84.296,83.759,81.557,87.061,78.889z M358.89,380.054
	c-0.002,0.003-0.004,0.007-0.006,0.01c-0.024,0.003-0.048,0.005-0.073,0.008C358.838,380.066,358.864,380.06,358.89,380.054z
	 M74.283,89.732c0.85-0.752,1.704-1.5,2.56-2.246c0.049,0.065,0.125,0.135,0.25,0.212c0.192,0.139,0.387,0.274,0.58,0.412
	c-1.04,0.844-2.079,1.689-3.121,2.531C74.462,90.339,74.372,90.036,74.283,89.732z M69.516,73.66
	c-0.054-0.178-0.107-0.356-0.161-0.535c0.852-0.59,1.705-1.179,2.563-1.76C71.117,72.13,70.318,72.896,69.516,73.66z
	 M449.684,53.345c-0.636,0.127-1.272,0.252-1.906,0.386c-0.192,0.041-0.385,0.086-0.577,0.127c-0.919-0.022-1.838-0.039-2.758-0.052
	c1.936-0.808,3.887-1.58,5.851-2.316C449.958,52.011,449.753,52.639,449.684,53.345z M51.173,357.514
	c-0.293,0.207-0.572,0.414-0.834,0.62c-0.172-0.05-0.309-0.162-0.419-0.319C50.284,357.745,50.713,357.64,51.173,357.514z
	 M541.228,338.156c0.004-0.001,0.008-0.003,0.012-0.005c-0.001,0.003-0.002,0.006-0.004,0.009
	C541.233,338.159,541.23,338.157,541.228,338.156z M544.194,301.61c0.641-0.32,1.296-0.617,1.961-0.897
	c-0.329,1.298-0.683,2.587-1.058,3.869C544.802,303.59,544.502,302.599,544.194,301.61z M432.691,47.913
	c-4.726,1.847-9.377,3.89-13.963,6.077c-0.479,0.003-0.959,0.006-1.438,0.008c-0.496,0.002-4.232,0.143-4.803,0.678
	c-2.155-0.078-4.31-0.144-6.466-0.197c-0.509-0.672-1.016-1.345-1.532-2.012c8.265-2.036,16.648-3.564,25.091-4.513
	C430.618,47.94,431.654,47.927,432.691,47.913z M239.92,44.754c-3.546,0.092-7.08,0.309-10.599,0.684
	c-1.713-0.277-3.425-0.558-5.136-0.846c0.978-0.072,1.955-0.144,2.933-0.216C231.392,44.41,235.66,44.533,239.92,44.754z
	 M227.957,391.275c7.248,0.211,14.506,0.006,21.736-0.604c6.153,0.674,12.307,1.336,18.463,1.954
	c-8.622,0.179-17.227,0.64-25.805,1.575c-5.04-0.636-10.07-1.534-15.083-2.592C227.499,391.5,227.729,391.388,227.957,391.275z
	 M445.027,378.51c3.742-1.104,7.469-2.261,11.167-3.485c1.222,0.579,2.691,0.942,3.156,1.04c0.521,0.108,1.053,0.201,1.589,0.28
	c-6.158,1.603-12.367,2.95-18.636,3.945C443.212,379.698,444.12,379.105,445.027,378.51z M277.859,42.972
	c-0.68,0.071-1.36,0.141-2.039,0.215c-3.604,0.392-7.205,0.815-10.804,1.25c-4.869-0.671-9.746-1.211-14.632-1.631
	C259.543,42.333,268.764,42.186,277.859,42.972z M100.882,43.859c-0.426,0.111-0.846,0.232-1.247,0.381
	c-4.236,1.57-8.377,3.315-12.447,5.187c1.594-2.026,3.149-4.083,4.661-6.174c0.476-0.658,0.416-1.22,0.07-1.697
	C94.891,42.396,97.878,43.164,100.882,43.859z M559.509,365.958C559.512,365.969,559.511,365.971,559.509,365.958L559.509,365.958z"
	/>
<g>
	<g>
		<path d="M33.001,375.728c8.029-21.183,11.649-44.694,14.937-67.013c3.69-25.052,5.253-50.413,5.449-75.724
			c0.391-50.544-4.22-101.366-14.945-150.792C34.547,64.253,29.997,46.092,23.25,28.98c-0.965-2.449-11.44-1.603-11.109-0.607
			c14.967,44.973,23.864,90.986,28.167,138.189c4.629,50.793,4.843,102.295-0.825,153.021c-2.116,18.933-6.385,37.203-10.262,55.8
			C29.089,376.01,32.694,376.537,33.001,375.728L33.001,375.728z"/>
	</g>
	<g>
		<path d="M551.846,26.734c0.004-0.02,0.284-0.784,0.048-0.753c-0.521-0.085-1.041-0.17-1.561-0.256
			c0.683,1.285,0.446,4.364,0.658,5.841c0.568,3.966,1.032,7.948,1.473,11.93c0.972,8.791,1.04,16.888-0.23,25.729
			c-3.991,27.794-17.837,52.935-23.445,80.329c-10.168,49.666-5.995,101.065,11.335,148.651c3.187,8.749,6.858,17.318,11.015,25.65
			c4.51,9.041,8.86,17.781,17.748,23.104c1.403,0.84,8.799,2.506,9.523,0.172c1.398-4.5-1.885-8.47-4.14-12.259
			c-3.036-5.104-5.764-10.388-8.331-15.741c-5.4-11.266-9.746-23.009-13.442-34.934c-7.633-24.625-12.536-50.474-15.026-76.122
			c-2.437-25.092-1.021-50.916,4.675-75.497c5.878-25.369,17.718-51.375,15.432-77.963c-0.477-5.549-1.506-11.086-2.431-16.573
			c-0.528-3.134-0.476-9.88-2.988-12.286c-0.37-0.354-1.256-0.356-1.712-0.218c-0.013,0.004-0.026,0.008-0.039,0.012
			c-0.068,0.014-0.114,0.053-0.138,0.115c-0.053,0.304,0.05,0.639,0.106,0.935C550.434,26.904,551.776,27.035,551.846,26.734
			L551.846,26.734z"/>
	</g>
	<g>
		<path d="M11.593,27.235c32.016,0.288,64.031,1.708,96.017,3.03c41.627,1.721,83.275,2.962,124.911,4.427
			c70.667,2.486,141.501,6.194,212.23,5.855c14.709-0.07,26.941,0.212,42.333,0.448c21.085,0.324,44.913,0.219,63.688-10.678
			c2.466-1.431-5.639-3.486-5.964-3.54c-3.388-0.566-8.008-1.134-11.136,0.682c-19.723,11.447-45.971,8.669-67.808,8.014
			c-5.022-0.151-10.061-0.346-15.084-0.177c-0.97,0.033-1.939,0.058-2.909,0.082c2.695-0.065-1.398,0.02-2.116,0.03
			c-5.358,0.077-10.718,0.07-16.077,0.04c-32.296-0.183-64.592-1.245-96.87-2.267c-82.183-2.601-164.365-6.53-246.59-7.406
			c-25.352-0.271-50.726-0.375-76.072,0.333C7.765,26.175,10.687,27.227,11.593,27.235L11.593,27.235z"/>
	</g>
	<g>
		<path d="M30.4,375.679c24.159,8.174,49.876,12.896,74.907,17.562c27.355,5.099,54.954,8.778,82.647,11.458
			c56.851,5.5,114.247,6.006,171.203,1.829c77.796-5.706,155.62-20.633,228.439-49.05c3.61-1.409-1.56-3.256-2.901-3.597
			c-3.63-0.92-8.677-1.663-12.294-0.251c-103.585,40.45-216.475,53.358-327.065,50.021c-36.292-1.096-72.525-4.225-108.508-9.034
			c-17.61-2.354-35.163-5.133-52.633-8.363c-17.685-3.271-35.159-7.473-52.8-10.931C31.152,375.276,29.551,375.392,30.4,375.679
			L30.4,375.679z"/>
	</g>
</g>
</svg>
