<?xml version="1.0" encoding="utf-8"?>
<!-- Generator: Adobe Illustrator 16.0.0, SVG Export Plug-In . SVG Version: 6.00 Build 0)  -->
<!DOCTYPE svg PUBLIC "-//W3C//DTD SVG 1.1//EN" "http://www.w3.org/Graphics/SVG/1.1/DTD/svg11.dtd">
<svg version="1.1" id="Capa_1" xmlns="http://www.w3.org/2000/svg" xmlns:xlink="http://www.w3.org/1999/xlink" x="0px" y="0px"
	 width="73.334px" height="66.668px" viewBox="0 0 73.334 66.668" enable-background="new 0 0 73.334 66.668" xml:space="preserve">
<g>
	<g opacity="0.9">
		<path fill="#F1891D" d="M22.014,41.456c5.126,4.188,9.874,8.812,15,13c-0.425-0.347,0.05-4.447,0.05-5c0-0.887,0.535-4.258-0.05-5
			c-7.181-9.117-15.358-17.275-24-25c0,3.333,0,6.667,0,10c3.42,2.858,7.238,5.333,10.124,8.766c0.465,0.594,0.869,1.228,1.21,1.901
			c1.593,2.8-0.538,4.257,0.667-2.667c-0.119,0.686-6.472-1.76-7-2c0,3.333,0,6.667,0,10c3.46,1.113,6.857,2.128,10,4
			c-1.502-0.895,1.45-8.677,0-10c-1.589-1.451-3.37-2.608-5-4c1.604,1.369-1.688,8.551,0,10c2.409,2.068,5.314,3.337,8,5
			c-0.345-0.213,0.05-4.56,0.05-5c0-0.658,0.483-4.527-0.05-5c-1.601-1.418-3.399-2.582-5-4c0,3.333,0,6.667,0,10
			c1.882,0.253,4.175,1.764,6,1c0.37-0.154,0.443-9.275,0-10c-2.891-4.72-6.133-9.034-10-13c0,3.333,0,6.667,0,10
			c6.699,5.79,13.099,11.854,21,16c-1.413-0.741,1.33-8.711,0-10c-5.098-4.94-10.902-9.06-16-14c0,3.333,0,6.667,0,10
			c2.658,0.735,5.417,1.023,8,2c-1.175-0.444,1.276-9.251,0-10c-2.082-1.221-3.918-2.779-6-4c0,3.333,0,6.667,0,10
			c2.216,1.123,4.153,2.326,6,4c-0.452-0.41,0.05-4.394,0.05-5c0-0.73,0.507-4.443-0.05-5c-1.667-1.667-3.333-3.333-5-5
			c0,3.333,0,6.667,0,10c6.018,5.878,12.737,10.774,20,15c-1.352-0.786,1.026-8.435,0-10c-1.496-2.282-3.631-3.718-6-5
			c0,3.333,0,6.667,0,10c1.352,0.015,3.219-0.313,4,1c0-3.333,0-6.667,0-10c-6.133-5.185-11.868-10.815-18-16
			c0.434,0.367-0.05,4.43-0.05,5c0,0.687-0.494,4.494,0.05,5c3.914,3.644,8.674,5.925,13,9c-0.385-0.273,0.05-4.509,0.05-5
			c0-0.73,0.507-4.443-0.05-5c-3-3-6-6-9-9c0,3.333,0,6.667,0,10c7.598,3.891,14.627,8.721,22,13c-1.471-0.854,1.505-8.869,0-10
			c-4.011-3.015-7.854-6.058-11-10c0,3.333,0,6.667,0,10c4,3,8,6,12,9c-0.4-0.301,0.05-4.486,0.05-5c0-1.076,0.531-4.034-0.05-5
			c-2.978-4.954-5.996-9.798-10-14c0,3.333,0,6.667,0,10c2.464,1.923,3.683,4.233,5,7c0-3.333,0-6.667,0-10
			c-0.247,2.102-1.097,3.978-1.968,5.889c-1.207,2.648-2.953,3.156-5.66,4.082c-5.943,2.033-12.392,1.988-18.372,4.029
			c-0.585,0.2,0.274,10.003,0,10c2.169,0.022,3.966,0.216,6,1c0-3.333,0-6.667,0-10c-5.667,0-11.333,0-17,0c0.038,0-0.235,9.98,0,10
			c11.766,0.982,23.545,1.998,35,5c0-3.333,0-6.667,0-10c-5.194,0.71-9.978-0.9-15-2c0,3.333,0,6.667,0,10
			c0.322-3.708,0.402-7.59,0.142-11.301c-0.423-6.048-4.683-10.048-9.142-13.699c0,3.333,0,6.667,0,10
			c6.177-0.947,12.239-1.371,18-4c0.343-0.156,0.271-9.893,0-10c-3.228-1.276-5.978-3.337-9-5c0,3.333,0,6.667,0,10
			c8.509-1.91,20.791,5.002,21.788,14.135c-0.017-1.667-0.033-3.334-0.05-5c0,0.278,0,0.557,0.001,0.836
			c0.017-1.667,0.033-3.333,0.05-5c-0.361,3.189-2.231,5.245-4.789,7.03c-1.614,1.128,1.513,8.943,0,10
			c3.138-2.191,4.786-4.662,4.824-8.494c0.038-3.834,0.594-8.163-0.565-11.876c-2.423-7.764-13.612-13.346-21.259-11.63
			c-0.041,0.009-0.488,9.731,0,10c3.022,1.663,5.772,3.724,9,5c0-3.333,0-6.667,0-10c-5.761,2.629-11.823,3.053-18,4
			c0.082-0.013-0.582,9.523,0,10c4.273,3.499,8.704,7.475,9.115,13.342c0.004-3.273,0.009-6.547,0.013-9.821
			c-0.043,0.493-0.085,0.986-0.128,1.479c-0.088,1.011-0.416,9.909,0,10c5.022,1.1,9.806,2.71,15,2c0.028-0.004,0.34-9.911,0-10
			c-11.455-3.002-23.234-4.018-35-5c0,3.333,0,6.667,0,10c5.667,0,11.333,0,17,0c-0.322,0,0.636-9.755,0-10
			c-2.034-0.784-3.831-0.978-6-1c0,3.333,0,6.667,0,10c5.465-1.865,11.176-2.309,16.778-3.586c2.19-0.5,5.654-1.272,6.703-3.382
			c0.975-1.962,1.838-3.946,2.405-6.064c0.772-2.887,0.178-6.559,0.148-9.503c-0.033-3.339-2.501-6.486-5.035-8.464
			c0.412,0.321-0.05,4.469-0.05,5c0,0.76-0.515,4.408,0.05,5c4.004,4.202,7.022,9.046,10,14c0-3.333,0-6.667,0-10c-4-3-8-6-12-9
			c0.4,0.3-0.05,4.486-0.05,5c0,0.878-0.534,4.269,0.05,5c3.146,3.942,6.989,6.985,11,10c0-3.333,0-6.667,0-10
			c-7.373-4.279-14.402-9.109-22-13c1.391,0.712-1.294,8.706,0,10c3,3,6,6,9,9c0-3.333,0-6.667,0-10c-4.326-3.075-9.086-5.356-13-9
			c0,3.333,0,6.667,0,10c6.132,5.185,11.867,10.815,18,16c-0.434-0.367,0.05-4.431,0.05-5c0-1.084,0.53-4.025-0.05-5
			c-0.781-1.313-2.648-0.986-4-1c0.398,0.004-0.725,9.607,0,10c2.369,1.282,4.504,2.719,6,5c0-3.333,0-6.667,0-10
			c-7.263-4.226-13.982-9.123-20-15c0.47,0.459-0.05,4.353-0.05,5c0,0.73-0.507,4.443,0.05,5c1.667,1.667,3.333,3.333,5,5
			c0-3.333,0-6.667,0-10c-1.847-1.674-3.784-2.877-6-4c1.338,0.678-1.435,9.158,0,10c2.082,1.221,3.918,2.778,6,4
			c0-3.333,0-6.667,0-10c-2.583-0.977-5.342-1.264-8-2c0.961,0.266-0.997,9.034,0,10c5.098,4.939,10.902,9.061,16,14
			c0-3.333,0-6.667,0-10c-7.901-4.146-14.301-10.21-21-16c0.44,0.38-0.05,4.419-0.05,5c0,0.746-0.511,4.425,0.05,5
			c3.867,3.966,7.109,8.28,10,13c0-3.333,0-6.667,0-10c-1.825,0.764-4.118-0.748-6-1c0.661,0.089-0.847,9.25,0,10
			c1.601,1.418,3.399,2.582,5,4c0-3.333,0-6.667,0-10c-2.686-1.663-5.591-2.932-8-5c0,3.333,0,6.667,0,10
			c1.63,1.392,3.411,2.549,5,4c0-3.333,0-6.667,0-10c-3.143-1.872-6.54-2.887-10-4c1.019,0.328-1.158,9.475,0,10
			c1.865,0.847,3.691,1.467,5.696,1.888c2.07,0.435,1.56-1.377,1.663-2.856c0.211-3.018,0.063-6.115,0.012-9.139
			c-0.133-7.79-6.998-11.402-12.371-15.893c0.431,0.36-0.05,4.436-0.05,5c0,0.664-0.485,4.521,0.05,5
			c8.642,7.726,16.819,15.883,24,25c0-3.333,0-6.667,0-10c-5.126-4.188-9.874-8.812-15-13
			C23.601,32.752,20.336,40.084,22.014,41.456L22.014,41.456z"/>
	</g>
	<g opacity="0.9">
		<path fill="#F1891D" d="M22.014,37.456c6.754,0.979,13.417,2.18,20,4c-0.994-0.275,1.127-9.324,0-10c-0.968-0.581-0.972-0.309-2,0
			c-0.216,0.064-0.29,9.9,0,10c13.808,4.745,14.971-11.91,15.043-21.477c-0.015,0.826-0.028,1.651-0.043,2.477
			c2.161,1.457,3.915,3.114,5.471,5.207c0.726,0.976,1.231,2.086,1.723,3.189c1.379,3.091-0.435,4.769,0.739-3.287
			c-0.358,2.462-2.02,4.434-3.785,6.043c-1.958,1.785-1.294-0.647-1.666-2.152c-0.508-2.058-1.271-3.865-1.481-6
			c-0.005,0.06-0.009,0.119-0.014,0.179c-0.448,14.142-14.41,16.753-25.986,16.821c0.35-0.002-0.685,9.667,0,10
			c4.502,2.188,9.106,3.916,14,5c0-3.333,0-6.667,0-10c-10.159,0.669-18.996-3.948-28-8c0,3.333,0,6.667,0,10
			c9.001,0.465,22.425,4.052,30.351-1.787c3.573-2.633,4.107-7.509,4.15-11.595c0.074-7.027-0.013-13.715-1.501-20.618
			c0.608,2.823-0.089,6.41-0.025,9.317c0.042,1.928,0.139,3.838,0.291,5.761c0.155,2.365,0.207,2.167,0.156-0.594
			c-0.179,1.596-0.792,3.06-1.422,4.516c-1.227,2.833,1.203,7.223,0,10c3.701-8.546,1.221-19.33,1.025-28.317
			c-0.009,3.106-0.017,6.211-0.025,9.317c0.689,3.196,1.238,6.378,1.434,9.646c-0.595-9.946,0.075-4.024-1.472-0.668
			c-1.328,2.878-4.097,4.489-7.017,5.346c-8.088,2.37-17.715,0.103-25.945-0.323c0.464,0.024-0.75,9.662,0,10
			c9.004,4.052,17.841,8.669,28,8c-0.067,0.004,0.372-9.918,0-10c-4.894-1.084-9.498-2.812-14-5c0,3.333,0,6.667,0,10
			c6.505-0.039,13.208-0.595,18.978-3.856c2.803-1.584,4.76-4.1,5.996-7.022c0.635-1.499,0.825-3.151,0.983-4.752
			c-0.031,0.311,1.214,3.664,1.524,4.631c0.874,2.723,0.079,3.599,2.657,1.248c1.491-1.359,2.293-3.237,2.794-5.14
			c0.692-2.63,0.258-5.886,0.25-8.559c-0.02-7.071-2.062-12.425-8.183-16.55c0.146,0.099-0.042,2.344-0.043,2.477
			c-0.07,9.179-3.794,20.36-14.957,16.523c0,3.333,0,6.667,0,10c1.028-0.309,1.032-0.58,2,0c0-3.333,0-6.667,0-10
			c-6.583-1.82-13.246-3.021-20-4C22.413,27.514,21.466,37.376,22.014,37.456L22.014,37.456z"/>
	</g>
	<g>
		<path fill="#282829" d="M61.087,32.566c0.507,2.518-2.739,7.785-5.682,10.815C50.923,48,44.634,50.571,38.47,51.947
			C28.197,54.24,13.698,51.528,10.329,40.06c-0.648-2.208-0.414,0.638,0.062-1.593c0.24-1.126,0.727-2.188,1.196-3.23
			c1.024-2.278,2.704-4.22,4.425-5.992c4.483-4.618,10.771-7.189,16.936-8.565C43.219,18.386,57.718,21.099,61.087,32.566
			c-0.447-1.523,0.453-3.457,0-5c-4.662-15.871-26.772-14.177-38.335-8.234C12.823,24.434,8.166,34.314,10.329,45.06
			C11.695,51.849,18.7,55.493,24.8,56.971c7.979,1.936,16.704,0.004,23.865-3.677c9.929-5.102,14.584-14.982,12.422-25.729
			C61.407,29.16,60.764,30.958,61.087,32.566z"/>
	</g>
</g>
</svg>
