<?xml version="1.0" encoding="utf-8"?>
<!-- Generator: Adobe Illustrator 16.0.0, SVG Export Plug-In . SVG Version: 6.00 Build 0)  -->
<!DOCTYPE svg PUBLIC "-//W3C//DTD SVG 1.1//EN" "http://www.w3.org/Graphics/SVG/1.1/DTD/svg11.dtd">
<svg version="1.1" id="Capa_1" xmlns="http://www.w3.org/2000/svg" xmlns:xlink="http://www.w3.org/1999/xlink" x="0px" y="0px"
	 width="732.627px" height="719.904px" viewBox="0 0 732.627 719.904" enable-background="new 0 0 732.627 719.904"
	 xml:space="preserve">
<path fill="#79AA3A" d="M729.629,22.823c-1.392-2.012-5.949-8.85-9.056-8.509C667.906,20.088,615,19.682,562.095,19.456
	c-43.487-6.146-87.285-9.313-130.921-3.282c-4.6-0.233-9.2-0.465-13.8-0.691c-1.428-1.584-3.022-2.953-4.731-3.756
	C374.54-6.184,329.701,0.321,289.519,5.875c-20.133,2.782-40.271,6.017-60.592,7.049c-15.708,0.798-33.17,0.572-47.307-7.198
	c-3.823-2.102-1.087,3.864-0.451,4.954c1.305,2.237,2.971,4.641,4.922,6.676c-18.658-3.539-37.258-7.458-56.205-9.249
	c-3.967-0.375-8.212,0.172-12.076,1.059c-0.572,0.131-5.997,1.256-4.321,2.692c7.547,6.467,15.932,11.255,24.825,14.804
	c-1.99,0.435-3.977,0.899-5.957,1.421c-0.577,0.044-1.02,0.289-1.327,0.734c0.024,1.756,0.122,3.507,0.262,5.252
	c-2.593,0.409-5.187,0.818-7.777,1.247c-12.001,0-24.002,0-36.003,0c-3.054,0,1.441,6.666,1.942,7.39
	c1.727,2.496,5.554,8.243,9.056,8.509c7.233,0.55,14.468,0.997,21.704,1.396c-5.044,1.653-10.015,3.526-14.891,5.654
	c-1.691,0.738-1.349,1.53,0.22,1.945c5.632,1.49,11.317,2.565,17.036,3.369c-0.877,1.635,0.071,3.402,2.625,4.4
	c3.155,1.234,6.326,2.403,9.506,3.527c-1.791,0.504-3.577,1.025-5.353,1.581c-0.612,0.191-1.763,0.412-0.951,1.062
	c0.38,0.304,0.775,0.58,1.164,0.867c-0.96,0.254-1.922,0.49-2.881,0.752c-1.191,0.325-3.056,1.184-4.022,2.425
	c-2.076-0.304-5.865-0.334-6.069-0.33c-0.479,0.009-1.087,0.001-1.767-0.009c-0.197-1.588-0.379-3.176-0.586-4.764
	c-1.561-11.979-18.465-12.502-18.465,0.356c0,0.519,0,1.037,0,1.556c-3.709,0.366-6.753,1.009-6.753,1.819
	c0,6.246,0,12.492,0,18.739c-5.922-0.145-15.001,1.063-15.001,2.264c0,2.253,0,4.507,0,6.761c-5.571,0.213-12.005,1.242-12.001,2.24
	c0.115,32.393,5.68,64.338,12.001,96.01c0.035,0.172,0.195,0.32,0.439,0.45c-0.169,11.622-0.146,23.24,0.021,34.856
	c-1,82.793-4.63,165.524-11.434,248.029c-6.268,21.173-11.489,42.609-14.224,64.368c-14.062,32.357-26.347,65.305-30.904,100.448
	c-2.473,5.552-4.798,11.174-6.904,16.895c-0.316,0.859,9.571,0.779,10.057,0.753c1.953-0.108,8.65,0.18,9.913-1.858
	c1.668-2.692,3.27-5.425,4.831-8.181c0.579-0.231,0.993-0.503,1.17-0.82c1.862-3.346,3.738-6.686,5.618-10.024
	c0.126,0.031,0.262,0.059,0.4,0.086c-0.362,2.394-0.715,4.787-1.062,7.182c-5.073,0.003-5.303,5.761-3.262,10.851
	c-3.251,4.35,1.515,15.314,7.521,16.632c18.414,4.04,38.051,6.861,56.896,4.55c6.493,1.959,13.073,3.626,19.721,5.026
	c-4.083,3.769,1.798,16.443,7.391,17.427c6.146,1.081,12.305,2.119,18.474,3.095c13.774,2.864,27.675,4.521,41.639,5.355
	c30.544,2.854,61.216,2.969,91.762-2.311c3.088-0.534,4.433-2.638,4.573-5.249c18.547,0.358,37.05-0.345,55.433-3.752
	c4.362-0.809,5.224-4.23,4.291-7.925c4.326-0.885,8.655-1.797,12.991-2.697c6.924-0.256,13.843-0.67,20.753-1.276
	c0.026,0.088,0.049,0.184,0.077,0.267c1.42,4.319,5.031,8.632,9.893,8.632c6.872,0,13.757,0,20.649-0.034
	c0.118,0.011,0.233,0.028,0.353,0.034c10.294,0.501,20.469,0.241,30.563-0.558c0.854-0.028,1.707-0.057,2.561-0.088
	c1.774,0.22,3.553,0.417,5.332,0.599c1.725,1.732,3.936,2.894,6.549,3.047c7.139,0.42,14.294,0.466,21.44,0.188
	c34.694,3.289,71.845,1.569,100.276-18.707c2.028-1.446,2.878-3.54,2.886-5.794c2.046-0.223,4.074-0.551,6.085-0.964
	c0.93-0.029,1.859-0.043,2.79-0.041c0.173,0.125,0.348,0.239,0.524,0.354c1.191,6.065,6.144,12.357,11.717,9.446
	c5.186-2.709,9.817-6.294,15.002-9.001c5.353-2.795,3.168-9.822-0.907-14.254c2.407-3.866,5.062-7.565,8.273-10.896
	c3.258-3.377,1.19-9.961-2.479-13.868c0.827-1.378,1.653-2.757,2.479-4.134c0.482-0.804,0.818-1.643,1.028-2.499
	c0.996-1.664,1.965-3.36,2.871-5.134c0.696-1.362,0.695-3.15,0.219-5.031c2.563-2.858,5.205-5.637,7.883-8.338
	c0.038-0.039,0.068-0.084,0.104-0.123c-1.638,8.171-3.07,16.386-4.198,24.667c-1.17,8.586,17.88,9.81,19.934,1.627
	c0.826-3.291,1.674-6.586,2.535-9.881c4.598,3.304,18.192,2.24,18.472-3.688c0.248-5.269,0.366-10.532,0.391-15.792
	c2.626-3.208,5.049-6.544,7.274-9.996c4.198,0.387,8.479-0.835,9.84-4.013c1.632-3.808,3.259-7.616,4.869-11.432
	c1.979-0.629,3.535-1.792,4.132-3.569c5.511-16.404,11.977-32.647,15.493-49.641c0.507-2.45-1.371-4.232-3.695-5.4
	c-0.154-26.801-0.873-53.59-1.775-80.373c0.153-6.898,0.292-13.798,0.454-20.694c0.534-22.639,2.962-44.929,4.447-67.5
	c2.631-39.969,0.599-80.053,0.569-120.062c-0.002-2.05-1.098-3.698-2.766-4.91c0.146-2.202,0.273-4.404,0.38-6.607
	c0.194-1.138,0.381-2.278,0.556-3.42c0.362-1.823,0.706-3.649,1.027-5.478c19.026-52.453,15.821-111.073,9.804-165.604
	c-0.914-8.286-18.763-10.482-19.934-1.628c-0.027,0.205-0.052,0.41-0.079,0.615c-1.701-1.598-4.961-1.84-6.905-1.448
	c-0.8,0.161-1.632,0.422-2.46,0.767c-0.462-0.738-0.869-1.322-1.034-1.561c-1.352-1.954-3.963-5.845-6.71-7.607
	c-1.28-1.333-2.687-2.535-4.247-3.49c-0.315-0.193-0.636-0.375-0.954-0.565c-0.611-1.603-2.246-2.797-4.064-3.643
	c18.005-2.129,35.966-4.741,53.921-7.309C734.559,29.786,730.328,23.833,729.629,22.823z M124.514,82.799
	c-0.858,0.328-1.709,0.671-2.559,1.019c0.306-0.702,0.609-1.404,0.896-2.114C123.289,82.15,123.863,82.513,124.514,82.799z
	 M141.031,104.292c-2.283,1.431-4.535,2.914-6.757,4.439c1.411-1.831,2.757-3.706,4.032-5.63
	C139.212,103.509,140.121,103.905,141.031,104.292z M123.238,132.247c4.882-4.203,9.814-8.348,14.85-12.369
	c-0.382,3.747,1.019,7.632,4.301,9.608c-4.243,1.051-8.477,2.144-12.702,3.289c-1.71,0.463-4.813,2.033-4.646,4.254
	c0.178,2.349,3.469,3.121,5.232,3.508c2.466,0.541,4.938,1.046,7.413,1.534c-4.897,5.654-9.798,11.305-14.604,17.029
	C123.178,150.149,123.228,141.198,123.238,132.247z M140.582,531.923c-0.006,0.603,0.052,1.188,0.165,1.756
	c-0.611,0.677-1.213,1.361-1.823,2.04c0.039-0.13,0.078-0.261,0.117-0.391c0.129-0.432,0.223-0.867,0.292-1.305
	C139.75,533.324,140.167,532.624,140.582,531.923z M579.283,260.936c-0.596,0.471-1.201,0.933-1.793,1.408
	c0.402-1.702,0.807-3.403,1.211-5.104c0.976-1.078,1.949-2.156,2.918-3.236C580.831,256.312,580.054,258.623,579.283,260.936z
	 M309.418,597.712c0.407-0.679,0.813-1.358,1.219-2.038c1.074-0.027,2.148-0.066,3.223-0.1c-0.537,0.603-1.069,1.209-1.604,1.813
	C311.311,597.493,310.364,597.601,309.418,597.712z M316.329,584.621c0.074-0.486,0.106-0.977,0.107-1.467
	c1.284-1.604,2.573-3.204,3.869-4.799c0.603-0.018,1.207-0.03,1.809-0.048c1.741,1.022,3.577,1.988,5.225,2.729
	c-0.989,1.027-1.978,2.057-2.959,3.093C321.697,584.309,319.014,584.47,316.329,584.621z M438.98,157.916
	c1.593-1.602,3.19-3.193,4.792-4.773c4.76-4.697,9.599-9.308,14.497-13.854c1.394-0.321,2.785-0.651,4.175-0.989
	c-7.697,6.688-15.506,13.247-23.403,19.699C439.021,157.97,439.001,157.943,438.98,157.916z M239.268,373.374
	c9.537-5.597,18.859-11.501,28.02-17.638c-8.755,6.816-17.439,13.729-26.026,20.771c-1.985,1.628-2.749,4.034-2.631,6.561
	c-2.952,3.619-5.771,7.32-8.463,11.102c-0.288-0.102-0.582-0.197-0.888-0.275c-0.787-0.201-1.547-0.346-2.284-0.445
	c0.285-3.539,0.575-7.078,0.87-10.617C231.665,379.678,235.466,376.526,239.268,373.374z M477.046,147.595
	c-0.035-0.034-0.071-0.067-0.107-0.1c0.503-0.388,1.007-0.776,1.511-1.165C477.982,146.752,477.513,147.173,477.046,147.595z
	 M340.62,163.888c0.105-0.002,0.211-0.004,0.316-0.006c-0.18,0.084-0.36,0.169-0.54,0.253
	C340.471,164.052,340.545,163.97,340.62,163.888z M366.603,174.045c-8.924,7.289-17.836,14.591-26.727,21.92
	c4.863-5.457,9.688-10.946,14.47-16.473C358.415,177.629,362.497,175.805,366.603,174.045z M542.473,197.794
	c3.802-9.497,7.542-19.023,10.692-28.723c0.173-0.162,0.345-0.325,0.517-0.487c-2.951,8.442-5.63,16.959-8.096,25.535
	C544.549,195.344,543.513,196.57,542.473,197.794z M257.37,172.502c-2.526,1.994-5.042,4-7.549,6.018
	c1.36-1.925,2.704-3.863,4.013-5.829C255.014,172.636,256.193,172.575,257.37,172.502z M576.984,147.489
	c-0.482-0.186-1.009-0.34-1.569-0.466c1.324-1.397,2.638-2.805,3.942-4.219C578.551,144.358,577.76,145.919,576.984,147.489z
	 M590.75,217.837c0.568-1.761,1.129-3.524,1.68-5.291c0.297-0.422,0.591-0.846,0.887-1.268
	C592.459,213.464,591.603,215.65,590.75,217.837z M161.848,370.636c0.174,0.21,0.353,0.415,0.538,0.611
	c-0.446,0.757-0.892,1.513-1.339,2.268C161.312,372.555,161.58,371.595,161.848,370.636z M574.367,350.33
	c-0.205-2.273-0.415-4.547-0.614-6.82c0.854-2.806,1.705-5.612,2.554-8.419c-0.64,4.781-1.234,9.567-1.787,14.358
	C574.469,349.743,574.418,350.036,574.367,350.33z M500.296,523.205c-0.109-0.577-0.235-1.153-0.353-1.729
	c0.893-0.696,1.787-1.392,2.676-2.091c1.748-0.152,3.496-0.312,5.244-0.467c-1.28,1.191-2.56,2.386-3.837,3.58
	C502.781,522.726,501.536,522.956,500.296,523.205z M457.312,99.259c-1.064-0.184-2.129-0.369-3.191-0.56
	c6.949-0.57,13.894-1.2,20.832-1.897C469.074,97.637,463.194,98.459,457.312,99.259z M494.359,91.857
	c-13.485,1.618-26.988,3.04-40.514,4.182c-0.062-0.32-0.173-0.612-0.328-0.876c12.421-2.431,24.863-4.74,37.341-6.851
	c1.212,1.077,2.48,1.852,3.689,1.907c0.572,0.026,1.144,0.04,1.716,0.065C495.629,90.808,494.994,91.332,494.359,91.857z
	 M180.886,158.27c-0.498,0.613-0.993,1.229-1.49,1.842c-0.435,0.352-0.866,0.708-1.3,1.061c0.863-0.981,1.731-1.958,2.596-2.937
	C180.757,158.248,180.822,158.258,180.886,158.27z M164.47,154.58c0.127,0.034,0.255,0.066,0.382,0.1
	c-2.072,2.33-4.139,4.665-6.2,7.004c0.159-0.768,0.323-1.535,0.477-2.304C160.906,157.774,162.686,156.174,164.47,154.58z
	 M471.974,650.525c0.074,0.167,0.153,0.334,0.228,0.501c-0.16,0.07-0.321,0.14-0.482,0.209
	C471.803,650.998,471.891,650.763,471.974,650.525z M340.275,69.467c1.45,0.138,2.9,0.269,4.351,0.394
	c-1.514,0.279-3.029,0.551-4.546,0.814c-1.671-0.411-3.344-0.814-5.017-1.215C336.8,69.468,338.538,69.47,340.275,69.467z
	 M122.899,451.721c-0.001,0.002-0.003,0.003-0.004,0.005c0-0.003,0.001-0.005,0.001-0.007
	C122.897,451.72,122.898,451.721,122.899,451.721z M205.407,107.894c-2.599-0.141-5.191-0.328-7.776-0.572
	c0.922-0.248,1.846-0.494,2.771-0.728C202.067,107.051,203.736,107.484,205.407,107.894z M135.748,646.863
	c0.295,0.148,0.59,0.298,0.886,0.444c0.025,0.208,0.055,0.417,0.091,0.628c-0.647-0.084-1.295-0.166-1.943-0.248
	C135.104,647.413,135.426,647.139,135.748,646.863z M138.799,653.471c-2.152-0.44-4.292-0.938-6.417-1.499
	c2.033,0.301,4.064,0.61,6.094,0.934C138.58,653.097,138.689,653.284,138.799,653.471z M153.348,655.66
	c0.067-0.037,0.134-0.074,0.201-0.112c0.444,0.086,0.888,0.178,1.332,0.265C154.369,655.765,153.858,655.713,153.348,655.66z
	 M160.85,659.612c0.843,0.017,1.685,0.031,2.526,0.044c-0.011,0.118-0.023,0.236-0.028,0.357c-0.021,0.001-0.042,0.001-0.063,0.002
	c-0.74-0.073-1.479-0.156-2.217-0.238C160.995,659.724,160.924,659.664,160.85,659.612z M503.262,656.635
	c-0.831-0.04-1.663-0.096-2.494-0.148c2.178-1.788,4.262-3.689,6.246-5.696c2.29,1.703,5.621,3.64,8.587,4.963
	c-0.779,0.263-1.56,0.49-2.337,0.632C509.998,656.979,506.556,656.795,503.262,656.635z M630.846,91.995
	c-0.132,0.219-0.259,0.444-0.376,0.681c-1.401,2.836-2.825,5.799-4.192,8.844c-0.545-1.062-1.103-2.12-1.69-3.17
	c-0.203-0.363-0.478-0.686-0.799-0.979c0.028-2.94,0.076-5.881,0.143-8.823c1.692-0.061,3.385-0.117,5.077-0.175
	C629.6,89.592,630.214,90.798,630.846,91.995z M656.979,122.707c0.18-0.063,0.36-0.127,0.54-0.191
	c2.152,0.393,6.528,0.073,10.488-0.403c0.004,0.072,0.009,0.145,0.014,0.217c-1.499,0.932-2.586,2.295-2.921,4.13
	c-3.729,20.388-4.508,41.173-3.32,61.956c-0.204,3.083-0.415,6.168-0.63,9.255c-0.379,0.01-0.761,0.031-1.142,0.058
	C661.471,172.684,660.854,147.624,656.979,122.707z M101.587,636.095c-0.102-0.086-0.206-0.168-0.31-0.25
	c0.052-0.045,0.103-0.091,0.154-0.136C101.481,635.839,101.533,635.968,101.587,636.095z M665.101,90.457
	c0.466,3.637,0.872,7.276,1.243,10.916c-0.278,0.037-0.557,0.071-0.834,0.108c-2.996-4.728-6.178-9.342-9.447-13.903
	c3.441-0.078,6.883-0.142,10.324-0.197C665.479,88.165,664.936,89.168,665.101,90.457z M105.12,651.3
	c0.548,0.198,1.098,0.387,1.648,0.575c-1.589,1.866-3.192,3.722-4.811,5.565c-0.089-0.011-0.178-0.021-0.267-0.03
	C102.932,655.476,104.078,653.439,105.12,651.3z M656.134,327.58c-0.245,1.295-0.489,2.59-0.735,3.884
	c-0.207,0.064-0.412,0.131-0.611,0.204c0.623-7.294,1.16-14.597,1.625-21.904C656.33,315.703,656.236,321.641,656.134,327.58z
	 M566.178,650.532c0.593-1.042,1.161-2.098,1.729-3.153c0.761-0.634,1.522-1.269,2.283-1.902c-1.047,1.568-2.05,3.158-3.003,4.771
	C566.852,650.345,566.513,650.433,566.178,650.532z M607.952,535.387c0.273,1.512,0.548,3.022,0.833,4.531
	c-1.335,0.054-2.67,0.175-3.809,0.428C605.986,538.705,606.979,537.052,607.952,535.387z M656.713,278.87
	c-0.019,3.654-0.044,7.308-0.075,10.961c-0.354-1.059-0.856-2.05-1.487-2.947C655.674,284.214,656.198,281.543,656.713,278.87z
	 M644.818,426.656c0.776,1.226,2.095,2.193,3.697,2.878c-0.323,1.674-0.646,3.348-0.956,5.023c-1.299,0.113-2.583,0.335-3.771,0.662
	C644.137,432.365,644.484,429.512,644.818,426.656z M615.213,573.182c0.22-0.459,0.44-0.919,0.654-1.383
	c0.109,0.421,0.221,0.841,0.332,1.261C615.864,573.093,615.535,573.134,615.213,573.182z M612.758,559.047
	c-0.367-0.445-0.755-0.856-1.157-1.231c0.223-0.335,0.441-0.672,0.663-1.008C612.43,557.554,612.588,558.302,612.758,559.047z
	 M622.772,595.374c-0.629,0.287-1.247,0.706-1.838,1.302c-0.559,0.562-1.107,1.136-1.66,1.703c0.965-1.683,1.899-3.383,2.813-5.095
	C622.312,593.982,622.545,594.678,622.772,595.374z M633.275,507.596c1.484-8.58,2.873-17.173,4.182-25.776
	c-0.459,14.819-1.195,29.632-2.25,44.418c-0.896-5.611-1.688-11.253-2.397-16.92C633.011,508.782,633.169,508.21,633.275,507.596z
	 M157.018,59.47c0.086,0.02,0.177,0.042,0.259,0.059c0.084,0.017,0.169,0.029,0.254,0.046c1.22,0.723,2.452,1.425,3.691,2.112
	c-1.181-0.066-2.36-0.137-3.54-0.213C157.457,60.807,157.237,60.138,157.018,59.47z M64.705,654.681
	c0.131,0.164,0.283,0.338,0.444,0.515c-0.915-0.019-1.829-0.039-2.743-0.053c0.301-0.861,0.585-1.727,0.881-2.589
	C63.729,653.343,64.213,654.067,64.705,654.681z M686.771,65.484c-2.368-1.237-5.081-1.718-7.858-1.468
	c-0.424,0.038-0.902,0.11-1.403,0.211c-1.775-1.113-4.638-1.35-6.118-1.494c-0.386-0.038-0.771-0.072-1.156-0.11
	c5.776-0.484,11.531-1.018,17.256-1.586c-0.265,0.665-0.452,1.355-0.521,2.072C686.894,63.9,686.839,64.692,686.771,65.484z
	 M178.947,23.034c-5.035,0-10.069,0-15.104,0c-2.028,0-4.218,0.088-6.388,0.36c-5.079-1.97-9.995-4.368-14.696-7.274
	c12.215,2.117,24.369,4.627,36.568,6.85C179.2,22.99,179.074,23.013,178.947,23.034z M136.615,59.258
	c-3.706-0.585-7.396-1.29-11.064-2.163c3.099-1.261,6.232-2.393,9.396-3.403C135.468,55.556,136.024,57.412,136.615,59.258z
	 M636.708,609.118c0.487-0.04,0.974-0.095,1.452-0.171c-0.224,1.023-0.432,2.051-0.649,3.076
	C637.352,611.068,637.08,610.087,636.708,609.118z"/>
<g>
	<g>
		<g>
			<path fill="#282828" d="M11.797,666.579c12.012-28.905,20.27-59.688,27.586-90.074c7.305-30.338,12.907-61.071,17.312-91.958
				c8.8-61.698,12.314-123.955,13.331-186.228c0.313-19.155,0.495-38.191,1.712-57.312c1.241-19.486,2.655-38.96,3.61-58.463
				c1.005-20.542,1.561-41.142,0.701-61.699c-0.689-16.47-2.038-33.646-7.236-49.393c-1.006-3.047-2.246-6.061-3.634-8.953
				c-1.714-3.57-5.521-3.419-7.944-5.901c-0.433-0.444-5.675,1.454-6.246,1.606c-0.51,0.137-5.886,2.066-6.213,1.731
				c1.256,1.288,0.379,5.072,1.65,6.9c1.864,2.68,3.256,5.572,4.47,8.592c2.792,6.951,4.541,14.378,5.773,21.75
				c3.14,18.782,3.607,38.018,3.613,57.021c0.012,37.76-3.475,75.361-4.475,113.081c-0.701,26.446-0.039,52.932-0.67,79.39
				c-0.738,30.949-2.126,61.901-4.553,92.766C45.741,501.05,36.331,562.41,19.973,622.062c-4.238,15.454-9.256,30.649-13.768,46.015
				C6.491,667.103,11.368,667.611,11.797,666.579L11.797,666.579z"/>
		</g>
	</g>
	<g>
		<g>
			<path fill="#282828" d="M57.636,69.296c4.473-5.724,10.628-9.454,17.298-12.128c1.139-0.457,2.303-0.854,3.466-1.244
				c3.628-1.214-4.921,1.133-1.199,0.288c2.259-0.513,4.546-0.897,6.835-1.25c4.72-0.728,9.49-1.116,14.256-1.375
				c20.234-1.096,40.608,0.903,60.688,3.239c49.464,5.754,98.896,11.422,148.459,16.356c55.857,5.56,111.8,10.323,167.865,13.215
				c28.017,1.445,56.06,2.362,84.112,2.699c27.91,0.335,55.767-0.774,83.662-0.881c3.462-0.013,7.715-1.949,11.017-2.834
				c3.373-0.904,7.467-2.817,10.958-3.054c-33.38,2.261-67.08,1.983-100.518,1.519c-33.072-0.459-66.128-1.79-99.148-3.666
				c-66.39-3.772-132.627-9.919-198.805-16.331c-22.342-2.165-44.73-4.041-67.014-6.753c-19.225-2.341-38.443-4.758-57.784-5.928
				c-18.453-1.116-37.419-1.367-55.572,2.603c-12.774,2.793-27.766,6.213-35.835,17.471C51.493,69.683,56.405,70.871,57.636,69.296
				L57.636,69.296z"/>
		</g>
	</g>
	<g>
		<g>
			<path fill="#282828" d="M652.055,88.81c9.105,51.852,3.729,105.253-3.759,156.948c-7.647,52.794-18.799,105.177-23.707,158.344
				c-4.046,43.825-0.979,88.465-0.002,132.377c0.503,22.59,0.812,45.198,0.131,67.787c-0.303,10.055-0.857,20.104-1.78,30.12
				c-0.786,8.542-2.899,17.073-2.056,25.598c-0.095-0.958,11.744-1.941,12.361-3.312c4.258-9.464,4.615-20.013,5.384-30.289
				c0.867-11.61,1.177-23.26,1.291-34.898c0.258-26.029-0.696-52.063-1.628-78.072c-0.927-25.861-2.06-51.726-2.229-77.606
				c-0.157-24.144,1.722-47.965,4.682-71.918c5.792-46.876,14.208-93.383,19.163-140.372c4.726-44.82,7.453-91.695-3.83-135.783
				C656.083,87.758,652.035,88.703,652.055,88.81L652.055,88.81z"/>
		</g>
	</g>
	<g>
		<g>
			<path fill="#282828" d="M-2.158,658.905c40.821,23.209,90.47,27.998,136.409,31.589c24.479,1.914,49.009,3.04,73.504,4.711
				c17.699,1.208,35.337,3.084,52.989,4.807c73.696,7.189,146.987,17.949,221.242,16.873c34.115-0.494,68.055-3.695,101.096-12.451
				c15.155-4.017,30.138-8.396,44.217-15.412c10.893-5.427,23.564-12.744,30.045-23.376c-0.476,0.781-5.429,1.388-6.295,1.62
				c-1.458,0.391-5.113,0.676-6.262,1.745c-11.012,10.245-22.287,19.173-35.939,25.684c-7.445,3.551-15.219,6.386-23.099,8.804
				c-0.986,0.303-1.976,0.595-2.969,0.874c10.591-2.979,5.533-1.476,3.186-0.913c-2.078,0.499-4.165,0.959-6.254,1.408
				c-4.92,1.059-9.873,1.956-14.839,2.77c-39.73,6.512-80.443,6.592-120.566,4.954c-71.586-2.922-142.438-13.818-213.805-19.295
				c-39.149-3.005-78.427-3.981-117.5-8.042c-37.548-3.902-76.905-10.099-110.844-27.505C1.177,657.245-1.246,659.424-2.158,658.905
				L-2.158,658.905z"/>
		</g>
	</g>
	<g>
		<g>
			<path fill="#282828" d="M648.4,657.434c15.465-6.969,27.003-20.088,37.283-33.172c5.456-6.944,10.631-14.103,15.991-21.12
				c4.646-6.084,10.616-11.632,14.448-18.175c-0.359,0.613-4.39,1.122-5.065,1.303c-1.32,0.354-3.926,0.547-5.038,1.404
				c-6.643,5.122-11.393,11.905-16.305,18.672c-4.992,6.879-9.761,13.918-14.763,20.791c-8.993,12.359-19.071,25.416-33.224,32.084
				C643.769,658.26,646.327,658.367,648.4,657.434L648.4,657.434z"/>
		</g>
	</g>
	<g>
		<g>
			<path fill="#282828" d="M659.764,81.547c9.405-8.712,18.465-17.808,27.478-26.924c4.264-4.312,8.411-8.732,12.628-13.088
				c0.135-0.14,4.147-5.048,2.537-5.164c-1.795-0.128-5.109,2.43-6.672,1.787c0.285,0.117-4.16,4.809-4.515,5.273
				c-3.372,4.421-7.313,8.429-11.104,12.489c-8.499,9.103-17.339,17.887-25.747,27.072C655.421,81.843,658.58,82.643,659.764,81.547
				L659.764,81.547z"/>
		</g>
	</g>
	<g>
		<g>
			<path fill="#282828" d="M711.324,44.001c11.25,53.007,7.655,108.958,2.422,162.466c-2.658,27.176-6.107,54.276-9.45,81.375
				c-3.365,27.286-4.628,54.613-4.921,82.099c-0.45,42.135,0.992,84.271,0.235,126.404c-0.716,39.84-3.372,80.09-13.359,118.805
				c0.129-0.499,6.275-1.608,6.837-1.759c0.623-0.167,6.634-1.24,6.8-1.896c13.78-54.584,13.314-111.829,12.51-167.737
				c-0.419-29.105-1.303-58.2-1.093-87.312c0.196-27.105,2.03-53.86,5.084-80.778c4.499-39.662,8.617-79.389,9.947-119.305
				c1.27-38.102,0.172-76.768-9.518-113.834C716.819,42.534,711.303,43.898,711.324,44.001L711.324,44.001z"/>
		</g>
	</g>
	<g>
		<g>
			<path fill="#282828" d="M49.427,63.887c25.066-17.568,48.271-37.473,73.773-54.479c-1.721,1.148-4.572,0.627-6.377,1.709
				c-12.548,7.524-24.171,16.718-35.63,25.777c-11.599,9.169-23.168,18.392-34.611,27.755
				C47.269,64.088,48.684,64.408,49.427,63.887L49.427,63.887z"/>
		</g>
	</g>
	<g>
		<g>
			<path fill="#282828" d="M114.706,7.88c39.567,2.301,79.444,1.356,119.055,1.586c66.867,0.389,133.734,0.8,200.587,2.294
				c61.651,1.378,123.493,2.93,184.954,8.235c17.575,1.517,35.317,3.209,52.584,6.945c5.022,1.087,10.137,2.342,14.819,4.508
				c1.659,0.768,10.062,2.381,10.263,4.183c-0.05-0.448,10.271-2.128,10.203-2.733c-0.089-0.797,0.945-2.551,0.981-3.799
				c0.062-2.163-1.219-2.452-3.088-3.26c-5.645-2.439-11.828-3.714-17.835-4.886c-20.742-4.045-41.997-5.708-63.041-7.265
				c-64.781-4.793-129.876-5.64-194.806-6.323C361.925,6.655,294.461,6.634,227,6.801c-35.84,0.089-71.857,1.15-107.682-0.156
				C117.794,6.589,116.204,7.967,114.706,7.88L114.706,7.88z"/>
		</g>
	</g>
</g>
</svg>
