<?xml version="1.0" encoding="utf-8"?>
<!-- Generator: Adobe Illustrator 16.0.0, SVG Export Plug-In . SVG Version: 6.00 Build 0)  -->
<!DOCTYPE svg PUBLIC "-//W3C//DTD SVG 1.1//EN" "http://www.w3.org/Graphics/SVG/1.1/DTD/svg11.dtd">
<svg version="1.1" id="Capa_1" xmlns="http://www.w3.org/2000/svg" xmlns:xlink="http://www.w3.org/1999/xlink" x="0px" y="0px"
	 width="753.801px" height="481.274px" viewBox="0 0 753.801 481.274" enable-background="new 0 0 753.801 481.274"
	 xml:space="preserve">
<path fill="#FFCC00" d="M732.926,176.301c-1.323-1.176-2.722-2.105-4.173-2.877c-1.532-1.087-3.018-2.227-4.454-3.422
	c-0.194-5.062-0.527-10.118-1.031-15.156c-0.235-2.348-5.055-3.532-9.89-3.792c-1.883-7.265-3.965-14.449-6.255-21.506
	c-0.386-1.19-0.8-2.373-1.214-3.553c-0.953-2.715-7.491-3.813-12.975-3.792c-5.006-6.983-11.126-13.03-18.3-17.581
	c2.713-1.397,5.416-2.818,8.097-4.297c2.942-1.623-4.872-4.125-5.241-4.219c-4.456-1.13-9.818-1.802-14.411-0.893
	c-0.688-0.69-1.384-1.371-2.089-2.043c13.526-4.727,26.69-10.473,39.516-16.853c2.934-1.459,0.854-2.944-1.397-3.779
	c-4.73-1.755-10.655-2.345-15.628-1.429c-11.219,2.067-22.357,4.522-33.493,6.988c-0.505-0.583-1.03-1.149-1.552-1.718
	c1.388-0.954,2.767-1.926,4.127-2.934c1.813-1.343-1.826-2.84-2.52-3.098c-2.992-1.11-6.305-1.621-9.561-1.711
	c-4.676-4.087-9.662-7.799-14.636-11.17c-8.294-5.62-17.336-10.515-26.813-14.24c0.295-0.132,0.594-0.257,0.889-0.39
	c2.87-1.287,0.68-2.806-1.311-3.544c-3.849-1.428-8.44-1.943-12.52-1.587c-1.254,0.109-2.504,0.237-3.754,0.362
	c-1.691-0.382-3.388-0.73-5.092-1.026C549.51,20.53,519.288,8.979,486.306,8.682c-0.423-0.003-10.29,0.57-7.753,2.859
	c1.037,0.936,2.092,1.855,3.158,2.767c-1.441-0.43-2.948-0.727-4.472-0.92c-6.039-2.452-12.058-4.958-18.051-7.531
	c-4.016-1.724-9.186-1.992-13.481-1.708c-1.437,0.095-8.793,1.452-4.382,3.763c3.915,2.051,7.869,3.991,11.856,5.838
	c-0.091,0-0.182,0.002-0.271,0.004c-16.322-5.731-32.904-10.613-50.074-13.252c-3.153-0.484-6.455-0.744-9.621-0.191
	c-1.768,0.309-4.506,1.503-1.831,3.079c5.729,3.377,11.679,6.123,17.778,8.437c-35.104,6.89-71.164,9.046-105.335,20.268
	c-1.574,0.517-1.488,1.528-0.213,2.333c0.301,0.19,0.61,0.366,0.915,0.548c-0.639,0.211-1.279,0.422-1.917,0.637
	c-23.604,4.274-46.61,10.641-67.971,22.156c-11.51,2.374-23.017,4.759-34.535,7.069c-3.327,0.667-3.642,2.405-0.332,3.633
	c2.338,0.868,4.929,1.349,7.524,1.494c-24.402,11.323-48.112,23.92-70.439,38.949c-1.065,0.127-2.101,0.336-3.073,0.666
	C78.774,128.228,32.92,178.062,21.159,235.25c-0.705,3.426,17.473,5.51,19.465,2.501c0.186-0.28,0.366-0.563,0.55-0.844
	c-1.141,4.698-2.021,9.397-2.639,14.097c-6.443,15.725-9.893,32.591-9.405,49.794c0.874,30.775,16.525,57.675,41.448,75.201
	c9.932,14.146,25.69,25.03,40.278,33.014c16.122,8.822,33.638,15.802,51.645,20.728c0.829,0.292,1.658,0.585,2.487,0.876
	c-9.215,0.213-18.38,0.456-27.419,0.469c-1.246,0.002-7.38-0.304-7.585,1.938c-0.255,2.783,8.293,3.463,9.76,3.621
	c14.657,1.578,29.288,3.778,43.924,5.8c-1.698,0.405-2.977,1.11-2.725,2.025c-3.352-0.032-6.702-0.058-10.048-0.061
	c-1.25-0.001-7.404-0.303-7.61,1.944c-0.253,2.768,8.321,3.514,9.792,3.633c7.625,0.618,15.294,1.081,22.977,1.313
	c7.429,2.555,15,4.588,22.671,6.211c2.285,1.081,5.438,1.435,8.008,1.546c19.536,3.404,39.625,4.396,59.618,4.636
	c-7.542,1.122-15.111,2.096-22.685,3.043c-6.155,0.77-1.547,4.013,1.764,4.779c22.764,5.271,45.713,6.087,68.586,4.292
	c0.613,0.186,1.241,0.341,1.881,0.472c-1.985,0.896-1.819,2.279,1.176,3.391c4.518,1.676,9.638,1.902,14.373,1.314
	c9.959-1.235,19.676-3.37,29.209-6.136c20.602-4.116,41.219-8.148,61.351-14.268c1.516-0.46,1.645-1.142,1.201-1.792
	c2.969-0.089,5.928-0.249,8.878-0.479c-5.671,3.143-11.281,6.304-16.632,9.683c-2.549,1.609,5.874,3.654,6.267,3.72
	c3.641,0.608,8.325,1.128,11.702-0.716c10.736-5.861,21.519-11.745,32.007-18.081c32.853-7.908,64.462-22.692,94.762-38.233
	c1.994-0.452,3.979-0.955,5.956-1.505c1.154,0.322,2.209,0.521,2.475,0.565c3.152,0.525,7.8,1.16,10.688-0.655
	c1.781-1.119,3.556-2.254,5.328-3.396c7.256-1.313,14.488-2.803,21.691-4.513c1.545-0.367,4.308-1.381,1.712-2.88
	c-2.553-1.475-5.873-2.001-9.014-2.094c6.964-4.668,13.91-9.39,20.91-14.022c1.072-0.419,2.141-0.842,3.202-1.271
	c1.354-0.548,2.706-1.106,4.055-1.676c6.782-1.821,13.5-3.875,20.113-6.188c14.591-5.102,29.187-11.65,41.468-21.163
	c9.418-7.296,17.691-17.612,17.866-30.024c0.062-4.459-14.912-3.527-17.367-2.231c-1.022,0.539-2.037,1.092-3.056,1.637
	c-0.25-0.035-0.502-0.068-0.755-0.098c2.657-3.551,5.224-7.185,7.729-10.858c5.976-7.442,11.401-15.316,15.817-23.991
	c0.418-0.821-3.123-2.147-7.163-2.937c0.772-0.348,1.285-0.813,1.406-1.425c4.096-20.708,7.176-41.671,7.983-62.785
	c0.553-14.45,0.248-30.242-3.916-44.565C729.372,178.448,734.664,177.845,732.926,176.301z M44.745,231.35
	c0.569-0.904,1.133-1.812,1.694-2.721c0.766,0.269,1.435,0.447,1.655,0.503c0.483,0.123,0.997,0.245,1.532,0.361
	c-0.314,0.5-0.626,1.002-0.935,1.507C47.226,230.976,45.855,231.085,44.745,231.35z M643.389,96.854
	c-0.161,0.001-0.291,0.003-0.408,0.005c-0.156-0.025-0.415-0.059-0.853-0.104c1.61,0.165-0.772-0.227-0.379-0.118
	c-1.489-0.334-2.96-0.765-4.411-1.262c-0.369-0.309-0.73-0.629-1.102-0.937c1.167,0.033,2.335,0.061,3.506,0.072
	c0.012,0.007,0.022,0.015,0.034,0.022c0.795,0.516,1.701,0.917,2.669,1.231c0.334,0.343,0.662,0.692,0.991,1.039
	C643.251,96.837,643.198,96.856,643.389,96.854z M108.825,193.119c0.056,0.326,0.119,0.65,0.176,0.976
	c-0.5,0.2-1.001,0.396-1.5,0.601c-0.118-0.198-0.228-0.399-0.346-0.596c0.555-0.417,1.109-0.836,1.665-1.253
	C108.809,192.933,108.809,193.022,108.825,193.119z M114.576,271.861c0.169-0.076,0.339-0.152,0.509-0.229
	c-0.265,0.655-0.534,1.309-0.806,1.962c-0.709,0.607-1.424,1.209-2.144,1.806c-0.06-0.475-0.118-0.949-0.178-1.424
	C112.825,273.266,113.7,272.562,114.576,271.861z M112.921,260.822c0.561-1.044,1.123-2.088,1.687-3.13
	c0.486-0.216,0.971-0.434,1.456-0.652c0.199,0.563,0.398,1.125,0.597,1.688c-0.665,0.471-1.328,0.945-1.992,1.417
	C114.085,260.368,113.503,260.596,112.921,260.822z M468.079,404.629c-0.206-0.02-0.412-0.035-0.617-0.055
	c2.627-0.843,5.248-1.704,7.866-2.579C472.918,402.895,470.503,403.774,468.079,404.629z M672.366,255.576
	c-2.589,1.014-5.184,2.01-7.782,2.997c0.044-0.278,0.087-0.556,0.129-0.834c1.962-0.901,3.932-1.781,5.907-2.646
	c0.82,0.004,1.626-0.02,2.401-0.074C672.805,255.207,672.583,255.389,672.366,255.576z M578.977,116.566
	c0.244,0.249,0.497,0.49,0.742,0.737c-0.586,0.154-1.171,0.312-1.757,0.467c-0.21-0.12-0.418-0.241-0.627-0.361
	C577.882,117.128,578.431,116.851,578.977,116.566z M452.874,397.972c2.693-1.077,5.39-2.149,8.087-3.221
	c-1.162,0.698-2.323,1.397-3.485,2.095c-0.202,0.121-0.331,0.247-0.408,0.374C455.67,397.483,454.273,397.737,452.874,397.972z
	 M312.315,433.383c0.829-0.313,1.657-0.629,2.484-0.949c3.711-0.001,7.422,0,11.132-0.001c0.35,0.593,0.717,1.166,1.113,1.709
	c-2.546,0.501-5.089,1.021-7.627,1.562c-2.562-0.419-5.125-0.84-7.687-1.265C311.922,434.085,312.112,433.729,312.315,433.383z
	 M298.487,410.08c-0.329-0.239-0.657-0.479-0.987-0.718c0.858-0.602,1.723-1.193,2.586-1.788c5.109,0.54,10.226,0.954,15.349,1.266
	C309.797,409.353,304.144,409.773,298.487,410.08z M230.141,352.828c4.704-1.763,9.389-3.582,14.067-5.424
	c0.479,0.058,0.957,0.106,1.432,0.146c-3.751,3.185-7.408,6.466-10.963,9.852C233.135,355.883,231.622,354.355,230.141,352.828z
	 M366.912,411.421c-2.232,0.153-4.474,0.315-6.72,0.488c0.291-0.145,0.582-0.288,0.873-0.433c1.383-0.688,2.767-1.379,4.151-2.073
	c2.394-0.055,4.786-0.115,7.181-0.181c0.096,0.046,0.191,0.095,0.288,0.141c-1.302,0.644-2.602,1.29-3.899,1.938
	C368.161,411.342,367.536,411.378,366.912,411.421z M511.315,132.855c-2.68,1.101-5.365,2.188-8.055,3.267
	c-0.255-0.353-0.511-0.704-0.765-1.057c3.441-1.264,6.888-2.511,10.339-3.741C512.335,131.841,511.829,132.351,511.315,132.855z
	 M389.827,122.088c-2.188,0.167-4.264,0.132-6.299-0.179c2.57-1.312,5.147-2.607,7.735-3.882c0.431,0.997,0.854,1.996,1.269,2.998
	C391.63,121.38,390.73,121.737,389.827,122.088z M401.581,263.948c2.354-1.586,4.711-3.167,7.072-4.739
	c0.649,1.104,1.3,2.208,1.946,3.314c-2.839,0.79-5.661,1.627-8.465,2.515C401.947,264.676,401.766,264.311,401.581,263.948z
	 M432.603,251.778c1.149-1.447,2.28-2.91,3.382-4.398c0.244,0.537,0.496,1.07,0.743,1.605
	C435.349,249.911,433.975,250.842,432.603,251.778z M372.803,285.042c0.021-0.022,0.041-0.044,0.061-0.066
	c4.008-1.822,8.032-3.595,12.077-5.305c0.413,0.447,0.825,0.897,1.238,1.346c-4.169,1.833-8.38,3.534-12.633,5.083
	C373.299,285.747,373.051,285.395,372.803,285.042z M341.625,182.727c0.43,2.304,0.838,4.61,1.228,6.917
	c-0.804,0.251-1.605,0.506-2.406,0.764c-0.528-2.15-1.066-4.297-1.613-6.442c0.912-0.41,1.825-0.82,2.737-1.232
	C341.588,182.732,341.607,182.729,341.625,182.727z M325.522,194.596c0.074,0.325,0.148,0.65,0.223,0.976
	c-0.361,0.137-0.724,0.271-1.084,0.409c-0.123-0.128-0.246-0.257-0.369-0.385C324.702,195.263,325.113,194.931,325.522,194.596z
	 M456.34,236.295c-0.74-1.901-1.481-3.802-2.222-5.702c1.356-0.795,2.706-1.598,4.068-2.385c0.552,1.613,1.101,3.227,1.646,4.841
	C458.671,234.135,457.511,235.222,456.34,236.295z M353.434,295.632c1.126,1.655,2.264,3.302,3.409,4.941
	c-0.949,0.605-1.898,1.212-2.843,1.823c-1.219-1.636-2.431-3.276-3.632-4.925C351.394,296.864,352.414,296.247,353.434,295.632z
	 M373.91,155.849c-0.085-0.212-0.17-0.425-0.255-0.637c0.234-0.128,0.467-0.26,0.7-0.388c0.079,0.236,0.157,0.472,0.236,0.708
	C374.364,155.637,374.137,155.743,373.91,155.849z M339.723,313.15c-0.067,0.043-0.135,0.088-0.202,0.131
	c-0.321-0.456-0.636-0.917-0.956-1.374C338.951,312.321,339.337,312.735,339.723,313.15z M519.262,244.368
	c0.193-0.126,0.388-0.251,0.581-0.377c0.497-0.21,0.994-0.419,1.492-0.628C520.645,243.698,519.953,244.031,519.262,244.368z
	 M366.775,130.855c-0.01,0.003-0.02,0.007-0.029,0.011c0.009-0.005,0.019-0.011,0.028-0.016
	C366.774,130.852,366.775,130.854,366.775,130.855z M447.504,357.643c0.518-0.039,1.036-0.085,1.555-0.126
	c-0.702,0.465-1.404,0.928-2.105,1.394c-0.873,0.135-1.747,0.263-2.621,0.396C445.391,358.754,446.45,358.203,447.504,357.643z
	 M273.932,245.494c0.886,1.519,1.786,3.028,2.679,4.543c-0.526,0.26-1.054,0.517-1.581,0.776c-0.503-1.7-1.007-3.4-1.511-5.101
	C273.656,245.639,273.794,245.566,273.932,245.494z M382.772,101.098c0.026-0.046,0.052-0.093,0.079-0.14
	c0.016,0.028,0.031,0.056,0.047,0.084C382.856,101.061,382.814,101.079,382.772,101.098z M277.942,214.578
	c-3.785,2.477-7.605,4.902-11.454,7.288c-0.077-0.263-0.154-0.525-0.23-0.788c3.828-2.313,7.678-4.586,11.555-6.803
	C277.856,214.376,277.899,214.477,277.942,214.578z M497.545,222.994c-0.045-0.127-0.09-0.254-0.135-0.382
	c4.754-2.603,9.554-5.126,14.4-7.559c0.092,0.171,0.184,0.341,0.275,0.512C507.202,217.976,502.356,220.453,497.545,222.994z
	 M507.581,208.111c0.107-0.095,0.218-0.187,0.326-0.281c0.018,0.033,0.036,0.066,0.054,0.1
	C507.833,207.99,507.708,208.05,507.581,208.111z M424.808,145.904c-1.484,0.519-2.968,1.04-4.455,1.552
	c-0.033-0.43-0.06-0.86-0.09-1.291c1.326-0.612,2.653-1.222,3.98-1.832C424.432,144.857,424.621,145.381,424.808,145.904z
	 M395.102,95.689c-0.295-0.464-0.592-0.928-0.893-1.389c1.456-0.042,2.911-0.083,4.367-0.116
	C397.418,94.686,396.259,95.186,395.102,95.689z M437.762,96.86c1.209-0.517,2.42-1.033,3.631-1.546
	c2.197,0.11,4.396,0.208,6.593,0.31c-3.175,1.771-6.376,3.49-9.608,5.149C438.167,99.469,437.965,98.164,437.762,96.86z
	 M412.391,88.264c-1.561,0.006-3.12,0.013-4.68,0.022c3.595-1.096,7.231-2.134,10.897-3.095c0.021,0.142,0.041,0.284,0.062,0.425
	C416.576,86.495,414.483,87.378,412.391,88.264z M252.501,229.951c-0.067,0.033-0.134,0.067-0.201,0.1
	c-0.057-0.073-0.115-0.145-0.172-0.217c0.095-0.06,0.19-0.121,0.286-0.182C252.443,229.751,252.472,229.851,252.501,229.951z
	 M473.563,362.654c1.553-0.388,3.106-0.779,4.663-1.15c-2.094,0.735-4.193,1.453-6.299,2.153
	C472.472,363.322,473.018,362.99,473.563,362.654z M559.418,217.967c0.426-0.283,0.852-0.567,1.276-0.85
	c0.175,0.15,0.348,0.303,0.522,0.454C560.618,217.704,560.016,217.83,559.418,217.967z M452.448,135.437
	c-0.264,0.112-0.526,0.225-0.789,0.337c-0.606-0.986-1.212-1.972-1.832-2.952c0.595-0.261,1.189-0.521,1.784-0.782
	C451.885,133.174,452.167,134.305,452.448,135.437z M449.949,94.526c-2.023-0.084-4.047-0.173-6.069-0.265
	c0.33-0.139,0.662-0.278,0.992-0.417c1.89-0.01,3.779-0.023,5.668-0.04c0.153,0.037,0.306,0.074,0.463,0.11
	C450.65,94.117,450.301,94.326,449.949,94.526z M510.895,339.389c3.901-2.391,7.816-4.752,11.75-7.076
	c0.558,0.38,1.314,0.706,2.207,0.979c-1.728,1.097-3.459,2.189-5.192,3.278C516.752,337.552,513.831,338.49,510.895,339.389z
	 M542.915,201.123c-2.47,1.192-4.939,2.384-7.409,3.577c-0.565,0.246-1.133,0.487-1.696,0.734c-0.081-0.167-0.162-0.333-0.243-0.5
	c3.093-1.321,6.203-2.596,9.331-3.828C542.903,201.112,542.909,201.118,542.915,201.123z M332.872,386.685
	c1.885,0.548,3.779,1.062,5.682,1.55c0.41,0.316,0.821,0.631,1.232,0.944c-3.491-0.153-6.986-0.273-10.484-0.33
	C330.491,388.126,331.68,387.404,332.872,386.685z M572.167,211.334c0.327-0.128,0.655-0.256,0.983-0.385
	c0.78,1.102,1.557,2.207,2.331,3.312C574.373,213.29,573.267,212.314,572.167,211.334z M557.146,188.958
	c-2.224,0.651-4.438,1.328-6.644,2.032c-0.096-0.094-0.189-0.19-0.284-0.285c2.114-0.848,4.229-1.693,6.345-2.537
	C556.757,188.431,556.952,188.695,557.146,188.958z M225.67,273.604c-0.566,0.246-1.132,0.492-1.699,0.737
	c0.544-0.354,1.083-0.716,1.628-1.066C225.623,273.384,225.647,273.494,225.67,273.604z M587.439,205.388
	c0.352-0.136,0.704-0.273,1.056-0.409c0.275,1.014,0.554,2.027,0.838,3.038C588.704,207.14,588.071,206.264,587.439,205.388z
	 M573.249,186.032c-0.847-1.147-1.692-2.294-2.537-3.442c0.263-0.102,0.525-0.205,0.788-0.307c1.12,0.969,2.238,1.941,3.366,2.902
	C574.327,185.468,573.788,185.75,573.249,186.032z M427.416,60.654c-3.366,0.454-6.739,0.832-10.119,1.112
	c0.437-0.266,0.88-0.522,1.318-0.786C421.544,60.807,424.479,60.699,427.416,60.654z M397.046,393.632
	c0.846-0.131,1.69-0.269,2.536-0.401c-0.662,0.733-1.315,1.474-1.953,2.227c-1.09-0.183-2.181-0.364-3.271-0.54
	C395.252,394.486,396.149,394.058,397.046,393.632z M579.419,159.664c-1.352-1.497-2.709-2.988-4.074-4.469
	c0.05-0.041,0.099-0.081,0.148-0.121c1.276-0.395,2.553-0.789,3.829-1.182c0.081,1.88,0.205,3.762,0.367,5.643
	C579.6,159.578,579.509,159.621,579.419,159.664z M205.316,238.96c-0.894,0.819-1.794,1.632-2.683,2.457
	c-1.114,1.033-2.224,2.075-3.333,3.122c-0.421,0.254-0.841,0.509-1.262,0.764c-0.183-0.384-0.365-0.769-0.548-1.153
	C200.072,242.383,202.682,240.654,205.316,238.96z M286.364,335.501c-0.584,0.413-1.17,0.823-1.758,1.231
	c-2.92,1.457-5.83,2.938-8.731,4.442c3.088-2.39,6.214-4.74,9.373-7.057C285.618,334.58,285.992,335.04,286.364,335.501z
	 M491.245,118.509c-0.029-0.045-0.06-0.09-0.088-0.136c0.785-0.22,1.57-0.44,2.357-0.657
	C492.758,117.985,492.002,118.249,491.245,118.509z M470.345,51.852c-2.675,0.666-5.353,1.32-8.034,1.958
	c-0.043,0.01-0.087,0.021-0.131,0.031c-8.836-0.718-17.663-1.433-26.444-2.292c1.674-0.84,3.365-1.649,5.058-2.456
	c6.02-0.687,12.046-1.325,18.075-1.937C462.612,48.9,466.462,50.442,470.345,51.852z M185.111,253.077
	c0.022,0.048,0.045,0.096,0.068,0.144c-0.131,0.083-0.263,0.164-0.394,0.247c-0.013-0.036-0.025-0.072-0.038-0.109
	C184.87,253.265,184.989,253.169,185.111,253.077z M332.125,402.272c-1.318,0.657-2.64,1.332-3.959,2.021
	c-1.038-0.414-2.08-0.819-3.111-1.251C327.412,402.788,329.769,402.536,332.125,402.272z M420.372,399.783
	c-0.122-0.062-0.25-0.12-0.378-0.178c2.237-1.117,4.469-2.246,6.695-3.384c0.542-0.114,1.085-0.228,1.626-0.342
	c-1.404,1.054-2.805,2.113-4.197,3.185c-0.418,0.321-0.521,0.641-0.409,0.949c-0.266,0.109-0.531,0.218-0.796,0.327
	C422.066,400.155,421.219,399.964,420.372,399.783z M603.297,186.544c-0.071-0.079-0.144-0.158-0.215-0.237
	c0.851-0.46,1.698-0.927,2.547-1.393c0.003,0.259,0.003,0.518,0.006,0.777C604.855,185.972,604.078,186.261,603.297,186.544z
	 M291.699,377.044c0.767-0.345,1.534-0.691,2.299-1.04c-0.682,0.341-1.365,0.68-2.047,1.019
	C291.867,377.029,291.783,377.036,291.699,377.044z M638.939,248.738c1.206-0.673,2.408-1.353,3.61-2.032
	c0.369-0.083,0.738-0.163,1.108-0.244c0.359,0.146,0.752,0.28,1.17,0.401c-2.381,1.576-4.796,3.108-7.238,4.604
	C638.051,250.561,638.507,249.653,638.939,248.738z M596.754,150.73c-0.056-0.042-0.112-0.084-0.168-0.127
	c-0.012-0.629-0.021-1.258-0.021-1.886c0.489-0.142,0.979-0.285,1.469-0.426c0.252,0.439,0.508,0.876,0.758,1.317
	C598.116,149.987,597.434,150.356,596.754,150.73z M313.423,102.223c0.377,0.868,2.879,1.805,3.832,2.125
	c-6.146,1.659-12.218,3.508-18.234,5.498c3.867-2.378,7.721-4.777,11.562-7.196C311.53,102.508,312.478,102.368,313.423,102.223z
	 M223.87,336.155c1.337-0.834,2.677-1.663,4.019-2.49c-1.49,1.127-2.972,2.267-4.431,3.438c-0.984,0.789,0.163,1.551,1.398,2.078
	c-0.833,0.461-1.666,0.92-2.5,1.38c-0.394-0.823-0.788-1.646-1.175-2.47C222.073,337.441,222.969,336.795,223.87,336.155z
	 M294.053,414.609c0.656-0.013,1.303-0.035,1.923-0.076c0.653-0.043,1.749-0.17,2.754-0.419c4-0.167,7.996-0.388,11.985-0.651
	c-6.147,2.121-12.377,3.986-18.7,5.538C292.639,417.505,293.318,416.041,294.053,414.609z M343.528,419.992
	c3.648-0.542,7.31-1.012,10.976-1.425c0.025,0.006,0.05,0.012,0.075,0.018c-4.812,2.55-9.576,5.182-14.277,7.922
	c-3.602-0.032-7.223-0.076-10.859-0.116C334.167,424.332,338.861,422.19,343.528,419.992z M519.413,374.884
	c1.863-0.437,3.725-0.878,5.589-1.311c2.205-0.513,2.739-1.554,0.988-2.457c2.812-1.615,5.623-3.235,8.427-4.864
	c1.066,0.432,2.068,0.726,2.25,0.771c0.623,0.158,1.312,0.318,2.036,0.472c-5.035,2.846-10.035,5.752-14.994,8.725
	c-4.513,1.423-9.055,2.754-13.628,3.981C513.192,378.431,516.303,376.659,519.413,374.884z M189.847,195.944
	c-3.459,2.05-6.905,4.123-10.34,6.216c-0.852-0.429-1.815-0.79-2.447-1.005c3.581-1.898,7.169-3.784,10.762-5.662
	C188.496,195.666,189.19,195.816,189.847,195.944z M583.327,116.38c-0.476-0.45-0.951-0.903-1.427-1.36
	c0.773-0.411,1.548-0.822,2.318-1.239c0.991,0.528,1.976,1.068,2.956,1.614C585.891,115.721,584.609,116.049,583.327,116.38z
	 M370.053,441.249c2.053,0.171,3.682,0.228,4.15,0.212c1.565-0.052,3.129-0.145,4.692-0.225c-0.016,0.003-0.031,0.006-0.047,0.009
	c-3.026,0.492-6.263,0.998-9.542,1.318C369.956,442.224,370.178,441.742,370.053,441.249z M418.989,417.288
	c-4.969,0.644-9.962,1.035-14.948,1.097c0.033-0.087,0.068-0.172,0.103-0.259c2.264-0.859,4.52-1.735,6.769-2.624
	c0.056,0.015,0.104,0.028,0.137,0.036c3.337,0.847,6.985,1.127,10.395,0.586c4.307-0.683,8.581-1.509,12.833-2.432
	c1.675-0.099,3.35-0.199,5.023-0.309c-1.719,0.427-3.447,0.834-5.183,1.22C429.078,415.521,424.035,416.415,418.989,417.288z
	 M532.767,102.058c-0.288-0.228-0.577-0.455-0.864-0.683c0.586-0.184,1.174-0.362,1.761-0.543c0.224,0.164,0.447,0.33,0.671,0.493
	C533.812,101.568,533.29,101.814,532.767,102.058z M646.516,316.607c-0.01,0.104-0.021,0.209-0.03,0.313
	c-0.149,0.154-0.304,0.306-0.455,0.458C646.193,317.122,646.354,316.864,646.516,316.607z M196.125,175.419
	c-8.993,4.663-17.907,9.486-26.749,14.432c-0.085-0.144-0.169-0.288-0.254-0.432c10.796-6.575,21.596-13.142,32.461-19.6
	C199.702,171.628,197.871,173.49,196.125,175.419z M457.024,417.243c0.327-0.061,0.654-0.122,0.98-0.184
	c-0.159,0.05-0.319,0.1-0.479,0.149C457.358,417.221,457.191,417.231,457.024,417.243z M263.772,416.525
	c-1.789,1.4-3.562,2.821-5.316,4.267c-0.99-0.765-1.974-1.535-2.958-2.308c2.042-1.024,4.078-2.061,6.113-3.098
	C262.328,415.771,263.048,416.15,263.772,416.525z M562.938,104.763c-1.354,0.316-2.706,0.643-4.058,0.971
	c0.591-0.315,1.184-0.622,1.772-0.941c0.996-0.54,0.777-1.183,0.032-1.805c1.087,0.434,2.175,0.88,3.262,1.329
	C563.611,104.465,563.274,104.613,562.938,104.763z M541.386,89.081c0.939,0.015,1.879,0.031,2.819,0.03
	c-0.485,0.125-0.972,0.244-1.456,0.37C542.296,89.346,541.84,89.215,541.386,89.081z M552.113,82.418
	c0.42-0.131,0.838-0.268,1.257-0.403c0.037,0.083,0.075,0.165,0.113,0.248C553.026,82.314,552.57,82.371,552.113,82.418z
	 M555.93,81.699c0.146,0.073,0.291,0.146,0.438,0.219c-0.104,0.013-0.208,0.028-0.312,0.042
	C556.012,81.873,555.972,81.785,555.93,81.699z M573.458,100.186c-0.1-0.04-0.198-0.079-0.297-0.118
	c0.172,0.008,0.344,0.015,0.517,0.023C573.604,100.122,573.531,100.154,573.458,100.186z M569.399,75.813
	c0.519-0.338,0.735-0.684,0.733-1.022c1.977,1.008,3.934,2.056,5.878,3.132c-0.713-0.221-1.428-0.441-2.137-0.663
	C572.377,76.791,570.89,76.296,569.399,75.813z M225.684,391.652c0.108,0.084,0.216,0.167,0.324,0.251
	c-0.27,0.212-0.539,0.424-0.808,0.636c-0.262-0.244-0.52-0.493-0.78-0.738C224.943,391.763,225.372,391.713,225.684,391.652z
	 M583.831,95.244c0.047,0.144,0.094,0.288,0.141,0.432c-2.272,0.981-4.549,1.956-6.825,2.93c-2.948-0.157-5.897-0.3-8.848-0.437
	c-0.428-0.164-0.854-0.33-1.284-0.492c3.593-1.752,7.177-3.52,10.751-5.308C579.785,93.333,581.805,94.293,583.831,95.244z
	 M123.675,330.277c-0.117,0.354-0.232,0.709-0.353,1.062c-0.441-0.034-0.873-0.062-1.297-0.082c0.456-0.311,0.911-0.621,1.368-0.931
	C123.488,330.312,123.581,330.293,123.675,330.277z M302.334,71.208c-3.227,1.426-6.446,2.869-9.646,4.346
	c-7.989,3.688-15.909,7.557-23.75,11.592c-0.68-0.473-1.68-0.903-2.501-1.211c17.069-8.337,34.609-15.716,52.388-22.523
	C313.312,65.978,307.818,68.581,302.334,71.208z M130.234,301.082c-0.053,0.348-0.107,0.695-0.162,1.044
	c-2.989,2.166-5.959,4.358-8.908,6.578c0.24-1.112,0.498-2.223,0.75-3.334C124.684,303.939,127.456,302.506,130.234,301.082z
	 M160.085,348.795c1.371,1.685,2.772,3.354,4.233,4.99c0.815,0.914,3.627,1.615,6.811,2.018c-1.793,1.296-3.577,2.604-5.351,3.929
	c-3.727-2.863-7.455-5.724-11.193-8.571C156.429,350.398,158.26,349.604,160.085,348.795z M196.983,126.943
	c-3.479,2.034-6.942,4.093-10.402,6.16c1.182-1.01,2.349-2.034,3.503-3.072C192.389,129.014,194.69,127.988,196.983,126.943z
	 M185.938,372.154c3.546,3.777,7.167,7.487,10.856,11.13c-4.453-3.29-8.879-6.62-13.29-9.973
	C184.317,372.93,185.126,372.539,185.938,372.154z M594.596,90.985c-2.143-1.124-4.302-2.221-6.472-3.3
	c1.903,0.455,3.811,0.887,5.72,1.305c0.679,0.468,1.358,0.935,2.032,1.41C595.45,90.596,595.023,90.791,594.596,90.985z
	 M141.779,148.843c-2.381,1.491-4.783,2.949-7.209,4.363c0.481-0.813,0.951-1.634,1.42-2.456
	C137.922,150.125,139.852,149.49,141.779,148.843z M77.679,289.576c0.106-0.051,0.212-0.103,0.318-0.153
	c-0.099,0.093-0.2,0.184-0.298,0.276C77.693,289.658,77.686,289.617,77.679,289.576z M187.522,389.914
	c-0.041,0.021-0.082,0.044-0.122,0.066c-0.369,0.205-0.542,0.423-0.565,0.648c-2.574-2.229-5.115-4.496-7.622-6.799
	C181.971,385.875,184.74,387.904,187.522,389.914z M193.01,393.836c0.705,0.499,1.41,0.996,2.117,1.491
	c-0.557,0.294-1.106,0.597-1.646,0.91c-0.679-0.558-1.354-1.115-2.025-1.675c-0.885-0.737-1.759-1.487-2.636-2.234
	C190.119,392.934,191.79,393.479,193.01,393.836z M128.487,171.778c1.736,1.214,6.085,2.227,6.41,2.281
	c1.85,0.309,3.948,0.591,6.026,0.59c-0.768,0.534-1.536,1.065-2.302,1.602c-3.499-0.395-7.229-0.16-7.959,0.942
	c-1.929,2.909-3.804,5.85-5.642,8.815c-1.873,1.372-3.753,2.731-5.614,4.123c-0.125,0.094-0.217,0.188-0.291,0.281
	c-1.091,0.356-2.177,0.725-3.26,1.106c-2.198-0.151-4.257-0.119-5.576,0.228c4.2-3.161,8.39-6.334,12.54-9.555
	c1.567-1.217-1.142-2.417-2.935-3.032C122.827,176.808,125.691,174.345,128.487,171.778z M146,369.94
	c-0.218-0.118-0.438-0.234-0.656-0.352c0.106,0.002,0.213,0.005,0.317,0.005C145.775,369.709,145.888,369.824,146,369.94z
	 M87.298,320.268c0.115-0.021,0.225-0.051,0.338-0.072c1.574,4.504,3.316,8.957,5.258,13.347c-0.688,0.481-1.374,0.965-2.059,1.448
	c-2.04-4.812-3.878-9.684-5.516-14.604C86.276,320.369,87.002,320.321,87.298,320.268z M175.656,397.428
	c14.035,11.491,29.053,21.455,45.286,28.559c-4.245-1.47-8.493-2.931-12.746-4.375c-4.82-2.499-9.489-5.225-13.969-8.006
	c-10.667-6.622-20.713-14.277-30.118-22.658C167.955,393.114,171.803,395.275,175.656,397.428z M116.615,158.583
	c-1.229,1.365-2.447,2.745-3.655,4.138c0.603-1.068,1.207-2.136,1.798-3.211C115.376,159.201,115.995,158.892,116.615,158.583z
	 M115.896,366.221c3.522-2.753,6.595-5.865,9.303-9.244c1.881,2.735,3.989,5.28,6.456,7.566c-1.011-0.087-2.017-0.132-2.993-0.148
	c-0.634-0.011-9.493,0.247-7.35,2.711c4.261,4.898,8.755,9.721,13.458,14.409c-7.347-5.128-14.978-10.105-22.93-14.335
	C113.714,367.042,115.276,366.705,115.896,366.221z M640.128,361.255c-2.509,1.688-5.053,3.322-7.625,4.912
	c-6.147,2.813-12.335,5.549-18.533,8.263c5.26-3.46,10.585-6.821,15.958-10.107C633.309,363.222,636.711,362.201,640.128,361.255z
	 M654.416,125.702c-0.548-0.508-1.104-1.011-1.667-1.506c-0.123-3.03-0.206-6.063-0.257-9.094c0.335-0.146,0.668-0.299,1.003-0.446
	c0.347,3.376,0.726,6.777,1.158,10.188C654.572,125.129,654.497,125.416,654.416,125.702z M77.782,183.377
	c2.248-0.021,4.127-0.367,5.007-1.192c1.194-1.121,2.403-2.226,3.604-3.339c-2.647,3.592-5.247,7.221-7.802,10.879
	C78.349,187.604,78.074,185.489,77.782,183.377z M406.776,22.189c-1.987,0.171-3.969,0.361-5.946,0.571
	c-0.85-0.077-1.694-0.115-2.522-0.119c2.876-0.234,5.763-0.407,8.658-0.516C406.901,22.146,406.838,22.169,406.776,22.189z
	 M60.818,211.692c-2.748,2.161-5.478,4.346-8.182,6.561c2.668-4.607,5.264-9.256,7.827-13.925
	C60.61,206.78,60.731,209.235,60.818,211.692z M230.525,450.479c2.96,0.66,5.929,1.279,8.908,1.851
	c-6.243-0.41-12.485-0.814-18.726-1.169c-0.036-0.01-0.072-0.02-0.107-0.029C223.913,450.977,227.222,450.763,230.525,450.479z
	 M586.524,402.387c-0.836-0.071-1.674-0.1-2.51-0.094c1.502-0.507,3.002-1.021,4.498-1.544c1.694-0.144,3.359-0.348,4.999-0.61
	c-0.659,0.61-1.314,1.227-1.97,1.842C589.87,402.117,588.196,402.243,586.524,402.387z M538.951,30.438
	c-5.404-1.598-10.852-3.042-16.336-4.315c-1.881-0.437-3.771-0.854-5.669-1.253c2.547-0.587,5.096-1.167,7.646-1.735
	c1.302-0.291,2.168-0.723,2.55-1.219c6.557,2.471,12.97,5.458,19.217,8.769C543.881,30.373,541.369,30.308,538.951,30.438z
	 M510.946,18.071c-1.166,0.197-2.332,0.421-3.498,0.629c-1.281-0.984-2.549-1.984-3.795-3.008c3.475,0.504,6.918,1.201,10.33,2.063
	C512.949,17.808,511.928,17.905,510.946,18.071z M421.863,16.023c1.211,0.35,2.425,0.689,3.644,1.019
	c-2.096-0.14-4.194-0.255-6.295-0.351c0.752-0.186,1.506-0.37,2.256-0.557C421.606,16.099,421.735,16.061,421.863,16.023z
	 M180.201,436.159c1.325,0.409,2.649,0.82,3.979,1.209c-2.585-0.379-5.17-0.766-7.752-1.155
	C177.686,436.191,178.943,436.177,180.201,436.159z M698.846,347.254c-0.921-0.135-1.859-0.228-2.801-0.262
	c3.188-2.454,6.181-5.183,8.94-8.126C703.348,341.87,701.27,344.664,698.846,347.254z M622.948,68.13
	c-8.284-5.412-16.754-10.539-25.406-15.322c0.89-0.169,1.775-0.35,2.666-0.515c3.912,2.253,7.665,4.644,11.147,7.006
	C615.247,61.938,619.182,64.893,622.948,68.13z M294.438,470.176c12.561-1.736,25.067-3.792,37.4-6.825
	c0.241-0.06,0.51-0.133,0.785-0.218c6.674,0.082,13.268-0.143,19.585-0.473c10.316-0.539,20.596-1.604,30.878-2.606
	c-13.197,2.987-26.461,5.66-39.858,7.649C327.243,470.076,310.677,471.529,294.438,470.176z M515.342,432.344
	c0.14-0.035,0.279-0.068,0.418-0.104c0.414-0.089,0.828-0.177,1.242-0.265c0.989-0.168,1.978-0.345,2.965-0.523
	c-2.47,1.056-4.949,2.092-7.438,3.104C513.471,433.825,514.411,433.09,515.342,432.344z"/>
<g>
	<path d="M467.631,8.697c-38.513-6.177-78.152-2.692-116.39,3.765c-45.069,7.611-89.245,20.609-131.724,37.392
		c-40.48,15.993-79.916,35.708-115.627,60.704c-15.207,10.645-29.697,22.43-42.626,35.772c-12.479,12.878-22.13,27.285-30.419,43.15
		C14.422,220.917,3.994,256.533,8.515,292.209c3.776,29.798,18.542,56.795,38.9,78.512c22.424,23.919,50.988,41.699,80.528,55.462
		c33.25,15.491,68.578,26.199,104.454,33.612c35.367,7.309,71.508,11.321,107.627,11.676c38.161,0.374,76.448-4.258,114.07-10.285
		c46.037-7.376,91.855-18.395,135.224-35.702c41.017-16.369,80.881-39.181,110.357-72.621
		c35.417-40.179,53.068-94.733,46.923-147.93c-3.177-27.5-12.769-54.008-26.034-78.193c-8.643-15.759-22.233-28.993-35.884-40.419
		c-33.55-28.083-74.006-48.068-115.061-62.583C528.069,9.048,483.467-0.483,439.218,1.38c-9.87,0.416-19.747,1.62-29.395,3.75
		c-2.854,0.63-3.231,2.082-0.29,3.173c3.465,1.286,8.092,1.877,11.733,1.073c38.345-8.466,79.354-0.497,116.373,10.377
		c42.367,12.445,83.717,31.73,119.303,57.999c15,11.072,29.021,23.927,40.103,38.982c15.252,20.722,24.504,47.166,29.554,72.184
		c10.947,54.231-4.058,111.027-38.191,154.282c-27.589,34.961-67.17,58.728-107.696,75.813
		c-43.049,18.149-88.854,29.318-134.833,36.984c-36.616,6.105-74.541,10.771-111.143,10.412
		c-34.003-0.333-67.662-4.31-101.517-11.74c-34.49-7.569-68.442-18.606-100.038-34.48c-28.71-14.424-55.823-33.145-76.398-58.073
		c-19.271-23.351-30.762-51.772-31.617-82.135c-1.048-37.174,13.289-75.215,33.162-106.139
		c19.384-30.162,49.612-53.015,79.444-72.03c37.525-23.92,78.433-42.623,120.226-57.728c35.653-12.886,72.354-23.17,109.725-29.65
		c32.057-5.558,65.57-8.551,97.963-4.147C468.145,10.622,472.273,9.442,467.631,8.697L467.631,8.697z"/>
</g>
</svg>
