<?xml version="1.0" encoding="utf-8"?>
<!-- Generator: Adobe Illustrator 16.0.0, SVG Export Plug-In . SVG Version: 6.00 Build 0)  -->
<!DOCTYPE svg PUBLIC "-//W3C//DTD SVG 1.1//EN" "http://www.w3.org/Graphics/SVG/1.1/DTD/svg11.dtd">
<svg version="1.1" id="Capa_1" xmlns="http://www.w3.org/2000/svg" xmlns:xlink="http://www.w3.org/1999/xlink" x="0px" y="0px"
	 width="327.033px" height="189.019px" viewBox="0 0 327.033 189.019" enable-background="new 0 0 327.033 189.019"
	 xml:space="preserve">
<g>
	<path d="M301.771,170.249c0,0-4.183,0.105-11.502,0.29c-3.659,0.074-8.104,0.163-13.2,0.266
		c-5.098,0.105-10.849,0.227-17.122,0.285c-6.273,0.077-13.07,0.16-20.259,0.248c-7.188,0.086-14.769,0.199-22.611,0.229
		c-7.842,0.042-15.945,0.085-24.179,0.13c-8.234,0.017-16.6,0.034-24.965,0.052c-8.364-0.017-16.729-0.034-24.963-0.051
		c-8.234-0.043-16.337-0.086-24.18-0.127c-15.684-0.09-30.322-0.346-42.87-0.478c-6.273-0.059-12.024-0.177-17.122-0.285
		c-5.097-0.104-9.541-0.192-13.201-0.267c-7.319-0.186-11.501-0.292-11.501-0.292s4.183-0.106,11.501-0.292
		c3.66-0.074,8.104-0.163,13.201-0.267c5.098-0.108,10.849-0.227,17.122-0.285c12.547-0.132,27.186-0.388,42.87-0.478
		c7.842-0.041,15.946-0.084,24.18-0.127c8.234-0.017,16.599-0.034,24.963-0.051c8.365,0.018,16.73,0.035,24.965,0.052
		c8.233,0.045,16.337,0.088,24.179,0.13c7.843,0.029,15.423,0.143,22.611,0.229c7.188,0.088,13.985,0.171,20.259,0.248
		c6.273,0.059,12.024,0.18,17.122,0.285c5.097,0.103,9.541,0.191,13.2,0.266C297.588,170.143,301.771,170.249,301.771,170.249z"/>
	<path d="M27.484,17.785c0,0,4.183-0.105,11.502-0.291c3.659-0.073,8.103-0.163,13.201-0.265c5.097-0.106,10.848-0.227,17.122-0.286
		c6.274-0.077,13.07-0.16,20.259-0.249c7.188-0.085,14.769-0.198,22.611-0.228c7.842-0.042,15.945-0.085,24.18-0.129
		c8.234-0.017,16.599-0.035,24.964-0.052c8.365,0.017,16.729,0.034,24.964,0.051c8.234,0.043,16.338,0.086,24.18,0.127
		c15.685,0.089,30.323,0.345,42.87,0.477c6.273,0.06,12.024,0.178,17.122,0.286c5.097,0.103,9.541,0.193,13.2,0.267
		c7.319,0.186,11.502,0.292,11.502,0.292s-4.183,0.106-11.502,0.292c-3.659,0.074-8.104,0.164-13.2,0.267
		c-5.098,0.108-10.849,0.226-17.122,0.286c-12.547,0.131-27.186,0.388-42.87,0.477c-7.842,0.042-15.945,0.084-24.18,0.127
		c-8.234,0.017-16.599,0.034-24.964,0.051c-8.365-0.018-16.729-0.035-24.964-0.052c-8.234-0.044-16.338-0.087-24.18-0.129
		c-7.842-0.03-15.423-0.143-22.611-0.228c-7.188-0.088-13.985-0.171-20.259-0.249c-6.273-0.059-12.024-0.18-17.122-0.286
		c-5.098-0.102-9.542-0.191-13.201-0.265C31.667,17.89,27.484,17.785,27.484,17.785z"/>
	<path d="M295.217,17.646c0,0,0.146,0.058,0.429,0.171c0.283,0.106,0.701,0.283,1.242,0.537c1.07,0.508,2.628,1.346,4.291,2.842
		c1.664,1.482,3.346,3.698,4.57,6.561c1.233,2.859,2.038,6.296,2.506,10.063c0.933,7.554,0.716,16.403,0.426,25.813
		c-0.301,9.418-0.633,19.445-0.482,29.459c0.095,5.009,0.222,10.011,0.666,14.884c0.441,4.896,0.971,9.73,1.434,14.423
		c0.421,4.696,0.794,9.251,0.989,13.589c0.189,4.338,0.256,8.456,0.088,12.265c-0.138,3.809-0.552,7.305-1.18,10.367
		c-0.629,3.059-1.544,5.698-2.783,7.634c-1.21,1.954-2.708,3.122-3.834,3.594c-0.556,0.255-1.009,0.379-1.312,0.446
		c-0.305,0.066-0.462,0.102-0.462,0.102l-0.068-0.293c0,0,0.145-0.052,0.426-0.151c0.277-0.101,0.688-0.271,1.168-0.573
		c0.973-0.574,2.225-1.736,3.149-3.648c0.929-1.899,1.598-4.435,2.001-7.403c0.415-2.973,0.484-6.388,0.468-10.11
		c-0.047-3.726-0.262-7.771-0.585-12.052c-0.324-4.28-0.721-8.798-1.162-13.481c-0.391-4.688-0.833-9.537-1.115-14.506
		c-0.31-4.99-0.286-10.042-0.258-15.078c0.071-10.082,0.627-20.137,1.134-29.537c0.252-4.701,0.462-9.241,0.569-13.542
		c0.096-4.299,0.05-8.366-0.307-12.086c-0.352-3.717-1.041-7.091-2.155-9.896c-1.105-2.808-2.662-4.989-4.233-6.475
		c-1.568-1.497-3.069-2.364-4.103-2.892c-0.518-0.262-0.925-0.45-1.209-0.565c-0.279-0.121-0.423-0.183-0.423-0.183L295.217,17.646z
		"/>
	<path d="M27.542,17.923c0,0-0.146,0.064-0.43,0.188c-0.289,0.117-0.702,0.312-1.226,0.58c-1.042,0.549-2.567,1.452-4.064,3.068
		c-1.51,1.597-2.853,3.979-3.612,6.955c-0.775,2.972-1.042,6.469-1.004,10.273c0.032,3.81,0.355,7.94,0.753,12.309
		c0.408,4.376,0.838,8.991,1.284,13.764c0.845,9.564,1.405,19.838,1.093,30.127c-0.111,5.151-0.567,10.278-0.789,15.268
		c-0.235,5.009-0.422,9.938-0.47,14.699c-0.122,4.763-0.024,9.358,0.161,13.698c0.222,4.336,0.601,8.424,1.293,12.117
		c0.676,3.694,1.629,7.009,2.941,9.726c1.317,2.713,2.972,4.787,4.623,6.188c1.642,1.424,3.237,2.155,4.325,2.601
		c0.538,0.25,0.981,0.359,1.269,0.469c0.292,0.1,0.442,0.15,0.442,0.15l-0.068,0.293c0,0-0.158-0.033-0.464-0.098
		c-0.303-0.074-0.77-0.132-1.349-0.319c-1.172-0.309-2.896-0.931-4.794-2.264c-0.96-0.65-1.919-1.514-2.881-2.534
		c-0.91-1.062-1.812-2.286-2.611-3.688c-1.582-2.806-2.887-6.218-3.769-10.029c-0.923-3.808-1.49-7.997-1.841-12.427
		c-0.384-4.431-0.431-9.109-0.395-13.932c0.105-4.824,0.357-9.795,0.753-14.832c0.366-5.061,0.957-10.113,1.209-15.184
		c0.541-10.154,0.208-20.35-0.421-29.898c-0.613-9.548-1.492-18.481-1.35-26.211c0.077-3.856,0.45-7.422,1.34-10.466
		c0.448-1.518,1.021-2.898,1.698-4.095c0.685-1.193,1.468-2.197,2.265-3.01c1.604-1.629,3.194-2.504,4.273-3.035
		c0.551-0.262,0.975-0.445,1.264-0.553c0.288-0.115,0.436-0.174,0.436-0.174L27.542,17.923z"/>
	<path d="M40.552,37.687c0,0,3.92-0.088,10.78-0.242c3.43-0.058,7.595-0.128,12.372-0.209c4.777-0.084,10.167-0.181,16.047-0.214
		c5.88-0.05,12.25-0.105,18.986-0.163c6.737-0.055,13.842-0.136,21.191-0.133c7.349-0.009,14.944-0.018,22.661-0.027
		c7.716,0.017,15.556,0.035,23.395,0.053c7.839,0.052,15.678,0.104,23.395,0.156c7.717,0.078,15.311,0.155,22.659,0.229
		c14.698,0.155,28.415,0.473,40.174,0.657c5.879,0.086,11.268,0.229,16.044,0.358c4.776,0.125,8.94,0.233,12.37,0.322
		c6.858,0.216,10.777,0.34,10.777,0.34s-3.92,0.088-10.78,0.244c-3.43,0.058-7.595,0.129-12.372,0.211
		c-4.777,0.086-10.167,0.18-16.047,0.213c-11.76,0.079-25.479,0.273-40.178,0.296c-7.35,0.008-14.943,0.017-22.66,0.026
		c-7.717-0.018-15.557-0.037-23.396-0.055c-7.839-0.053-15.678-0.105-23.395-0.157c-7.716-0.079-15.311-0.156-22.659-0.231
		c-7.349-0.062-14.453-0.208-21.189-0.323c-6.736-0.118-13.105-0.23-18.984-0.333c-5.879-0.085-11.268-0.23-16.044-0.358
		c-4.776-0.124-8.941-0.231-12.37-0.32C44.471,37.81,40.552,37.687,40.552,37.687z"/>
	<path d="M286.898,37.312c0,0,0.502,6.947,0.857,17.368c0.094,2.605,0.194,5.428,0.258,8.413c0.073,2.985,0.166,6.133,0.202,9.39
		c0.039,3.257,0.123,6.622,0.13,10.041c0.017,3.419,0.034,6.893,0.052,10.367c-0.017,3.474-0.034,6.947-0.051,10.366
		c-0.001,3.42-0.089,6.785-0.127,10.041c-0.105,6.514-0.267,12.592-0.46,17.803c-0.356,10.421-0.861,17.368-0.861,17.368
		s-0.505-6.947-0.861-17.368c-0.193-5.211-0.354-11.289-0.46-17.803c-0.038-3.256-0.126-6.621-0.127-10.041
		c-0.017-3.419-0.034-6.893-0.051-10.366c0.018-3.474,0.035-6.947,0.052-10.367c0.007-3.419,0.091-6.784,0.13-10.041
		c0.036-3.256,0.129-6.404,0.202-9.39c0.063-2.985,0.164-5.807,0.258-8.413C286.396,44.259,286.898,37.312,286.898,37.312z"/>
	<path d="M291.404,147.716c0,0-3.955,0.105-10.875,0.29c-3.461,0.074-7.663,0.163-12.482,0.266
		c-4.82,0.105-10.258,0.227-16.189,0.285c-5.933,0.077-12.359,0.16-19.156,0.248c-6.797,0.086-13.965,0.199-21.381,0.229
		c-7.415,0.042-15.077,0.086-22.863,0.13c-7.785,0.017-15.695,0.034-23.604,0.052c-7.91-0.017-15.819-0.034-23.605-0.051
		c-7.786-0.043-15.448-0.086-22.863-0.127c-14.83-0.09-28.672-0.346-40.536-0.477c-5.932-0.061-11.37-0.178-16.189-0.286
		c-4.82-0.103-9.022-0.192-12.482-0.267c-6.921-0.186-10.875-0.292-10.875-0.292s3.955-0.106,10.875-0.292
		c3.46-0.074,7.663-0.164,12.482-0.267c4.82-0.108,10.257-0.226,16.189-0.286c11.864-0.131,25.706-0.387,40.536-0.477
		c7.415-0.041,15.078-0.084,22.863-0.127c7.786-0.017,15.695-0.034,23.605-0.051c7.909,0.018,15.819,0.035,23.604,0.052
		c7.786,0.044,15.448,0.088,22.863,0.13c7.416,0.029,14.584,0.143,21.381,0.229c6.797,0.088,13.224,0.171,19.156,0.248
		c5.932,0.059,11.369,0.18,16.189,0.285c4.819,0.103,9.021,0.191,12.482,0.266C287.449,147.611,291.404,147.716,291.404,147.716z"/>
	<path d="M42.806,147.716c0,0-0.501-6.947-0.857-17.368c-0.093-2.605-0.194-5.428-0.258-8.412c-0.073-2.985-0.166-6.134-0.202-9.39
		c-0.039-3.257-0.124-6.622-0.129-10.041c-0.017-3.42-0.035-6.893-0.052-10.367c0.017-3.474,0.034-6.947,0.051-10.367
		c0-3.419,0.089-6.784,0.127-10.041c0.104-6.513,0.266-12.592,0.459-17.802c0.356-10.421,0.862-17.368,0.861-17.368
		s0.505,6.947,0.861,17.368c0.194,5.21,0.355,11.289,0.459,17.802c0.038,3.256,0.127,6.622,0.127,10.041
		c0.017,3.419,0.034,6.893,0.051,10.367c-0.018,3.474-0.035,6.947-0.052,10.367c-0.006,3.419-0.09,6.784-0.129,10.041
		c-0.036,3.256-0.129,6.404-0.202,9.39c-0.064,2.984-0.165,5.807-0.258,8.412C43.308,140.769,42.806,147.716,42.806,147.716z"/>
	<path d="M307.853,129.206c-0.537-0.654-1.063-1.315-1.59-1.978c0.231-0.283,0.305-0.629,0.088-1.026
		c-0.108-0.196-0.234-0.38-0.348-0.573c-0.011-0.137-0.055-0.279-0.154-0.429c-0.318-0.48-0.662-0.927-1.019-1.361
		c-1.99-2.746-4.542-5.045-7.312-7.023c-0.983-1.838-1.83-3.746-2.587-5.703c2.257,2.103,4.382,4.351,6.562,6.548
		c0.756,0.762,4.111,0.082,3.491-1.22c-2.243-4.714-4.698-9.321-7.054-13.978c1.79,2.32,3.475,4.724,5.064,7.186
		c0.727,1.125,4.211-0.076,3.355-1.472c-3.281-5.339-6.007-10.964-8.479-16.707c0.676,0.747,1.371,1.476,2.119,2.156
		c0.791,0.722,3.941,0.239,3.49-1.221c-2.51-8.143-5.484-16.13-8.264-24.182c1.43,2.117,2.817,4.268,4.271,6.376
		c0.705,1.022,3.749,0.117,3.492-1.221c-0.861-4.479-2.309-8.775-3.804-13.061c0.746,1.105,1.51,2.201,2.315,3.266
		c0.725,0.96,3.822,0.135,3.491-1.221c-1.778-7.285-5.759-13.591-9.474-20.014c2.191,1.841,4.164,3.947,5.982,6.213
		c0.84,1.049,4.292-0.145,3.355-1.471c-2.483-3.516-5.091-6.959-7.186-10.703c2.166,1.331,4.322,2.679,6.58,3.855
		c0.828,0.433,4.267-0.479,3.107-1.665c-5.541-5.67-9.989-12.328-16.021-17.524c-0.76-0.654-4.109-0.175-3.492,1.221
		c1.477,3.339,3.861,6.054,5.901,9.004c-0.097,0.012-0.192,0.025-0.289,0.043c-4.293-1.961-8.246-4.647-12.382-6.956
		c-0.845-0.472-4.184,0.389-3.107,1.665c0.473,0.562,0.967,1.104,1.468,1.64c-2.774-1.627-5.472-3.414-8.374-4.807
		c-0.798-0.383-3.672,0.007-3.244,1.414c0.125,0.412,0.277,0.803,0.435,1.187c-0.065-0.031-0.129-0.066-0.194-0.097
		c-0.385-0.175-1.002-0.111-1.6,0.075c-5.588-2.815-11.08-5.824-16.928-8.086c-0.748-0.29-4.392,0.53-3.107,1.665
		c3.541,3.128,7.152,6.169,10.293,9.674c-4.846-1.784-9.404-4.416-14.195-6.332c-0.762-0.306-4.387,0.562-3.107,1.665
		c1.195,1.028,2.436,1.995,3.697,2.934c-7.342-3.734-14.604-7.635-22.459-10.236c-0.693-0.23-3.957,0.821-2.768,1.794
		c1.079,0.886,2.174,1.751,3.266,2.619c-2.67-0.97-5.338-1.94-8.008-2.911c-0.958-0.348-4.086,0.984-2.521,1.987
		c4.951,3.178,10.047,6.13,15.055,9.217c-6.045-3.063-11.902-6.588-18.203-9.071c-1.015-0.4-4.559,0.786-2.86,1.857
		c4.19,2.645,8.454,5.155,12.499,8.002c-9.131-2.188-17.52-7.299-26.5-9.989c-0.932-0.279-4.104,0.927-2.522,1.987
		c4.253,2.852,9.128,4.688,13.37,7.529c-5.812-0.264-11.528-1.804-17.184-3.475c1.354-0.344,3.109-1.53,1.329-2.036
		c-7.205-2.048-14.454-3.937-21.94-4.566c-0.711-0.061-3.264,0.714-2.359,1.854c2.3,2.902,5.113,5.227,8.035,7.436
		c-5.096-0.89-10.076-2.376-15.039-3.898c-2.488-1.019-5.053-1.841-7.752-2.326c-0.287-0.052-0.697,0.013-1.12,0.147
		c-5.388-2.093-10.757-4.235-16.065-6.527c-1.09-0.471-4.529,0.968-2.859,1.858c4.117,2.197,8.391,4.077,12.531,6.218
		c-0.053-0.021-0.106-0.044-0.158-0.065c-1.094-0.46-4.533,0.994-2.859,1.858c0.725,0.374,1.445,0.661,2.166,0.879
		c5.615,2.214,11.591,4.149,16.68,7.404c-7.648-1.195-15.143-3.527-22.451-6.365c-6.5-3.357-13.417-5.766-20.072-8.783
		c-1.168-0.529-4.479,1.109-2.86,1.859c3.651,1.69,7.358,3.4,11.116,5.047c-1.327-0.228-2.658-0.432-3.997-0.586
		c-0.481-0.056-1.278,0.24-1.845,0.642c-3.908-1.244-7.809-2.517-11.766-3.586c-1.229-0.333-4.303,1.361-2.184,2.116
		c1.33,0.474,2.615,1.019,3.877,1.612c-6.502-0.704-12.914-2.72-19.217-4.229c-0.74-0.178-2.174,0.385-2.707,1.01
		c-3.11-1.16-6.206-2.362-9.311-3.515c-1.029-0.382-4.104,1.304-2.521,1.988c6.473,2.803,13.048,5.926,18.701,10.225
		c-6.475-0.553-12.838-1.982-19.088-3.826c1.178-0.398,2.469-1.193,1.243-1.747c-6.83-3.094-13.941-5.49-21.367-6.64
		c-0.966-0.149-3.479,1.007-2.819,1.767c-1.859-0.318-3.724-0.609-5.602-0.825c-0.408-0.047-1.48,0.349-2.108,0.837
		c-4.377-1.268-8.827-2.232-13.413-2.34c-0.994-0.021-3.899,1.568-1.773,2.179c1.953,0.561,3.903,1.13,5.854,1.702
		c2.705,2.025,5.581,3.82,8.129,6.015c-6.418-1.764-12.479-4.776-18.81-6.829c-0.692-0.226-3.944,0.775-2.769,1.794
		c3.064,2.653,6.379,4.997,9.53,7.54c-2.907-0.987-5.772-2.145-8.765-2.826c-0.765-0.174-3.759,0.495-2.77,1.794
		c1.363,1.789,2.934,3.342,4.556,4.85c-1.216,0.314-2.39,1.156-1.304,1.854c0.663,0.425,1.312,0.75,1.971,1.021
		c1.859,0.98,3.687,2.013,5.449,3.146c-1.191,0.273-2.467,0.99-1.658,1.649c2.842,2.317,5.721,4.607,8.487,7.016
		c-0.784-0.404-1.573-0.799-2.376-1.172c-0.896-0.415-4.029,0.201-3.107,1.666c2.438,3.874,5.59,7.181,8.426,10.742
		c-5.383-1.639-10.273-4.857-15.671-6.528c-0.753-0.233-3.798,0.58-2.769,1.794c2.225,2.628,4.74,4.946,7.316,7.201
		c-1.381,0.057-3.359,1.226-2.062,2.005c4.209,2.528,8.672,5.153,12.111,8.724c-3.846-1.611-7.646-3.335-11.592-4.703
		c-0.744-0.257-3.826,0.632-2.77,1.795c1.938,2.134,4.02,4.14,6.021,6.212c-1.349-0.068-3.604,0.978-2.27,1.992
		c2.672,2.032,5.164,4.202,7.303,6.709c-1.479-0.686-2.95-1.397-4.443-2.059c-0.797-0.354-4.254,0.356-3.106,1.665
		c3.106,3.544,6.153,7.29,8.563,11.378c-5.311-2.569-9.967-6.39-14.97-9.538c-0.922-0.579-3.939,0.262-3.107,1.666
		c4.062,6.854,10.493,11.642,16.194,17.08c-0.859-0.384-1.714-0.794-2.572-1.221c-0.826-0.412-4.313,0.571-3.107,1.665
		c4.42,4.009,9.098,8.34,12.318,13.478c-4.216-1.477-8.221-3.563-12.553-4.757c-0.71-0.196-3.865,0.609-2.77,1.794
		c5.06,5.473,10.416,10.66,14.761,16.723c-4.11-0.46-8.249-2.695-11.991-3.997c-0.721-0.251-3.883,0.698-2.77,1.794
		c4.444,4.376,9.273,8.353,13.446,12.978c-1.024-0.348-2.024-0.757-3-1.227c-1.108-0.639-2.22-1.271-3.333-1.899
		c-1.086-0.612-4.443,0.795-2.859,1.859c1.086,0.729,2.208,1.356,3.356,1.91c5.493,3.156,10.894,6.487,15.853,10.42
		c-3.936-1.25-7.706-3.206-11.682-4.305c-0.912-0.252-4.131,0.942-2.521,1.987c2.334,1.517,4.748,2.895,7.131,4.32
		c-1.206-0.413-2.406-0.852-3.607-1.3c-0.965-0.361-4.066,0.957-2.521,1.987c1.502,1.001,3.004,2.002,4.506,3.005
		c0.654,0.436,2.105,0.049,2.832-0.553c1.934,0.535,3.898,0.97,5.928,1.242c0.902,0.121,3.509-0.998,2.111-2.049
		c-0.801-0.601-1.624-1.168-2.455-1.722c0.648,0.17,1.305,0.312,1.968,0.432c5.224,2.114,10.233,4.663,15.259,7.2
		c-3.028-0.199-6.055-0.455-9.074-0.787c-2.204-0.241-2.463,1.382-0.233,1.627c11.288,1.239,22.636,1.538,33.981,1.276
		c0.689,0.183,1.387,0.341,2.095,0.471c0.408,0.076,1.476-0.194,2.222-0.597c8.986-0.316,17.967-0.954,26.91-1.737
		c1.551,0.929,3.176,1.733,4.916,2.334c0.951,0.329,4.124-1.063,2.521-1.987c-0.718-0.413-1.449-0.801-2.178-1.195
		c0.094-0.386-0.467-0.896-1.148-1.093c-0.651-0.188-1.304-0.367-1.957-0.543c-0.559-0.284-1.113-0.575-1.675-0.854
		c-0.732-0.528-1.448-1.086-2.151-1.663c1.562,0.771,3.14,1.513,4.748,2.2c0.803,0.343,4.225-0.308,3.107-1.665
		c-0.592-0.719-1.199-1.424-1.812-2.123c1.074,0.582,2.145,1.177,3.211,1.786c0.139,0.078,0.324,0.127,0.531,0.151
		c6.898,4.519,14.287,9.249,22.748,9.05c0.533-0.013,3.465-0.788,2.359-1.854c-0.599-0.577-1.215-1.131-1.842-1.671
		c0.976,0.052,1.958,0.059,2.947,0.007c0.412-0.021,1.16-0.313,1.634-0.711c3.482,2.278,7.312,4.034,11.016,5.17
		c0.941,0.289,4.163-1.165,2.521-1.987c-3.705-1.854-7.7-3.994-11.853-5.851c-1.49-1.072-2.892-2.256-4.17-3.532
		c2.6,1.421,5.332,2.617,8.021,3.672c5.696,2.232,12.193,4.089,18.366,3.239c0.407-0.057,1.961-0.776,2.119-1.418
		c2.319,0.111,4.626,0.09,6.894-0.084c0.121-0.01,0.326-0.076,0.56-0.176c0.933,0.077,1.864,0.155,2.798,0.224
		c3.289,0.869,6.56,1.819,9.793,2.909c1.26,0.425,4.266-1.377,2.182-2.116c-0.175-0.062-0.348-0.132-0.521-0.194
		c7.211,0.249,14.424,0.269,21.639,0.147c4.244,2.375,8.618,4.511,13.252,6.17c0.724,0.259,3.875-0.702,2.768-1.795
		c-1.572-1.553-3.264-3.111-5.038-4.655c0.857-0.027,1.714-0.056,2.571-0.087c1.286,0.641,2.57,1.281,3.866,1.9
		c0.552,0.264,1.74,0.039,2.528-0.388c0.492,0.297,0.985,0.593,1.478,0.889c1.106,0.664,4.437-0.861,2.86-1.858
		c-0.482-0.306-0.964-0.608-1.447-0.912c0.765-0.032,1.527-0.066,2.293-0.1c3.875,2.235,7.814,4.36,11.815,6.375
		c0.842,0.424,3.11-0.307,3.271-1.156c1.077,0.557,2.155,1.112,3.238,1.657c0.854,0.43,4.322-0.671,3.107-1.665
		c-3.433-2.812-7.078-5.33-10.764-7.792c1.488-0.034,2.975-0.075,4.462-0.13c1.14-0.042,1.438-0.39,1.275-0.762
		c2.488,1.295,4.96,2.599,7.427,3.839c0.486,0.245,1.369,0.097,2.098-0.217c5.805,4.274,11.937,8.095,18.432,11.233
		c1.061,0.512,4.483-0.758,2.86-1.858c-5.928-4.021-11.897-8.062-18-11.887c1.149,0.466,2.301,0.923,3.462,1.356
		c0.094,0.034,0.23,0.046,0.395,0.038c1.408,0.806,2.826,1.595,4.273,2.336c0.307,0.157,0.942,0.113,1.58-0.05
		c1.637,0.862,3.277,1.719,4.929,2.553c0.833,0.421,4.192-0.348,3.107-1.664c-1.608-1.953-3.349-3.771-5.157-5.517
		c0.682,0.394,1.363,0.785,2.05,1.173c0.848,0.478,4.259-0.535,3.107-1.665c-2.089-2.05-4.284-3.984-6.433-5.968
		c1.209,0.451,2.428,0.875,3.664,1.253c0.705,0.215,3.886-0.66,2.769-1.794c-1.017-1.034-2.005-2.093-2.98-3.161
		c2.94,1.647,5.88,3.297,8.886,4.826c0.729,0.371,3.801-0.063,3.244-1.414c-0.499-1.209-1.096-2.355-1.744-3.468
		c1.068-0.206,2.132-0.885,1.607-1.792c-0.738-1.275-1.537-2.509-2.365-3.724c0.675,0.561,1.352,1.118,2.015,1.691
		c0.756,0.653,4.146,0.141,3.491-1.221c-2.271-4.719-5.265-8.989-8.162-13.324c0.463,0.252,0.932,0.498,1.413,0.72
		c0.79,0.361,3.688,0.001,3.244-1.415c-0.518-1.652-1.099-3.282-1.679-4.911c0.733,0.704,1.467,1.411,2.193,2.126
		C305.424,131.591,308.887,130.467,307.853,129.206z M55.133,157.197c-0.87-0.138-1.747-0.252-2.633-0.334
		c-0.041-0.005-0.092-0.003-0.144,0c-0.771-0.485-1.532-0.986-2.285-1.499c1.65,0.303,3.286,0.672,4.906,1.104
		C54.845,156.69,54.867,156.936,55.133,157.197z M98.694,155.83c0.682,0.495,1.374,0.97,2.074,1.431
		c-1.94-0.513-3.901-0.956-5.872-1.336c-1.421-0.493-2.854-0.95-4.291-1.389c0.467-0.021,0.936-0.044,1.402-0.067
		C94.246,154.869,96.476,155.327,98.694,155.83z M63.59,155.071c0.547-0.099,1.096-0.186,1.646-0.26
		c0.637,0.022,1.272,0.046,1.909,0.063c0.824,0.533,1.655,1.055,2.492,1.568C67.623,155.981,65.607,155.522,63.59,155.071z
		 M81.705,154.863c1.363,0.297,2.715,0.636,4.039,1.001c-0.362,0.36-0.435,0.749,0.192,1.043c-1.828-0.652-3.642-1.33-5.448-2.014
		C80.894,154.884,81.298,154.874,81.705,154.863z M71.087,161.888c-0.427-0.156-0.854-0.312-1.281-0.468
		c0.345-0.1,0.707-0.246,1.027-0.417c0.992,0.331,1.979,0.685,2.959,1.06c0.035,0.026,0.072,0.05,0.108,0.077
		C72.962,162.06,72.025,161.977,71.087,161.888z M89.062,162.316c1.173,0.218,2.349,0.424,3.525,0.623
		c-0.592,0.031-1.184,0.065-1.775,0.101C90.23,162.794,89.648,162.55,89.062,162.316z M76.548,163.96
		c0.026,0.017,0.053,0.035,0.08,0.052c-0.748,0.052-1.497,0.094-2.246,0.141c0.114-0.114,0.2-0.233,0.245-0.352
		C75.267,163.856,75.908,163.908,76.548,163.96z M101.003,164.678c-0.649-0.093-1.301-0.173-1.951-0.258
		c1.201-0.034,2.401-0.066,3.604-0.074c2.865,0.535,5.75,0.922,8.653,1.115c-2.926,0.237-5.854,0.456-8.787,0.649
		C103.087,165.684,101.857,164.799,101.003,164.678z M66.89,166.732c0.115-0.109,0.201-0.224,0.25-0.342
		c4.789,0.072,9.579,0.22,14.368,0.308c0.193,0.09,0.389,0.176,0.583,0.262C77.021,167.023,71.952,166.955,66.89,166.732z
		 M81.742,159.16c-0.664-0.142-1.328-0.286-1.992-0.431c-2.17-1.132-4.303-2.339-6.396-3.611c3.669,1.419,7.386,2.838,11.143,4.159
		C83.579,159.234,82.661,159.194,81.742,159.16z M102.959,153.838c0.79-0.05,1.579-0.102,2.368-0.153
		c-0.436,0.146-0.838,0.346-1.087,0.577C103.814,154.118,103.387,153.979,102.959,153.838z M126.19,158.425
		c-0.196-0.021-0.392-0.044-0.587-0.061c-0.072-0.007-0.162,0-0.262,0.012c-2.598-1.416-5.232-2.737-8.004-3.828
		c-0.786-0.31-4.24,0.289-3.106,1.665c0.571,0.694,1.157,1.376,1.749,2.052c-2.902-1.525-5.762-3.131-8.643-4.711
		c0.795-0.053,1.59-0.104,2.383-0.156c3.469-0.229,6.951-0.394,10.441-0.531c-0.24,0.259-0.277,0.549,0.078,0.844
		c1.981,1.646,4.062,3.23,6.229,4.712C126.398,158.414,126.306,158.414,126.19,158.425z M148.025,152.903
		c0.053,0.034,0.107,0.068,0.16,0.104c-0.853-0.06-1.705-0.11-2.554-0.15c-0.276-0.014-1.015,0.152-1.634,0.437
		c-2.435-0.276-4.862-0.618-7.281-1.037c3.789-0.162,7.574-0.37,11.346-0.663C147.537,151.964,147.333,152.435,148.025,152.903z
		 M129.453,150.766c-0.112-0.026-0.227-0.049-0.339-0.076c7.47-1.242,15.077-1.417,22.665-1.255
		C144.379,150.188,136.916,150.503,129.453,150.766z M133.427,163.153c1.879,0.69,3.734,1.452,5.586,2.267
		c0.199,0.088,0.483,0.112,0.802,0.087c0.909,0.355,1.833,0.666,2.768,0.938c0.854,0.614,1.691,1.252,2.508,1.918
		C140.974,167.447,137.109,165.429,133.427,163.153z M145.931,160.75c-6.424-3.416-13.311-6.056-20.265-8.086
		c1.335-0.046,2.671-0.093,4.007-0.139c4.559,1.04,9.148,1.808,13.761,2.339c0.212,0.207,0.429,0.406,0.643,0.608
		c-0.413,0.298-0.612,0.709-0.305,1.241c0.884,1.524,1.958,2.959,3.165,4.304C146.603,160.924,146.267,160.835,145.931,160.75z
		 M166.929,155.798c1.971-0.052,3.945-0.132,5.921-0.236c2.194,1.534,4.45,2.962,6.761,4.295c-3.753-1.453-7.621-2.678-11.553-3.677
		C167.683,156.049,167.304,155.927,166.929,155.798z M191,149.607c3.118,0.078,6.211,0.602,9.242,1.431
		c-0.016,0.012-0.029,0.023-0.045,0.036c-1.533,0.208-3.066,0.408-4.602,0.604C194.072,150.967,192.541,150.273,191,149.607z
		 M187.056,152.688c-2.879-1.472-5.684-3.082-8.393-4.82c1.529,0.5,3.05,1.035,4.556,1.607c0.059,0.138,0.167,0.279,0.355,0.423
		c1.285,0.979,2.62,1.882,3.986,2.734C187.393,152.651,187.225,152.669,187.056,152.688z M200.754,152.816
		c1.152,0.713,2.297,1.439,3.44,2.17c-0.489,0.051-0.978,0.102-1.466,0.152c-1.377-0.688-2.759-1.371-4.146-2.042
		C199.307,153.003,200.031,152.911,200.754,152.816z M234.039,148.152c2.148,0.338,4.301,0.64,6.459,0.908
		c-4.494-0.046-8.988-0.04-13.484,0.042C229.361,148.775,231.704,148.455,234.039,148.152z M248.687,160.283
		c-1.537-0.763-3.085-1.503-4.639-2.229c0.371-0.071,0.739-0.152,1.11-0.222C246.326,158.662,247.5,159.481,248.687,160.283z
		 M186.613,160.263c2.351,1.022,4.748,1.967,7.177,2.792c-0.356,0.037-0.714,0.081-1.07,0.12
		C190.658,162.258,188.615,161.3,186.613,160.263z M207.182,156.905c1.116,0.725,2.233,1.449,3.35,2.175
		c-1.441-0.729-2.886-1.463-4.335-2.197C206.526,156.89,206.854,156.898,207.182,156.905z M212.382,161.331
		c0.314-0.222,0.526-0.466,0.541-0.705c0.637,0.409,1.277,0.815,1.917,1.222c-0.856,0.017-1.713,0.041-2.569,0.064
		C212.453,161.712,212.521,161.511,212.382,161.331z M238.99,161.636c-0.427-0.281-0.855-0.558-1.279-0.841
		c0.74,0.287,1.474,0.591,2.209,0.894C239.609,161.672,239.299,161.657,238.99,161.636z M245.466,154.128
		c0.795,0.237,1.583,0.498,2.369,0.767c-0.41,0.024-0.82,0.046-1.23,0.068C246.226,154.683,245.841,154.413,245.466,154.128z
		 M264.281,153.341c-1.4,0.141-2.8,0.288-4.197,0.442c-0.982-0.488-1.967-0.97-2.957-1.436c2.289,0.209,4.573,0.47,6.848,0.797
		C264.078,153.21,264.179,153.276,264.281,153.341z M239.439,153.478c0.711,0.583,1.428,1.155,2.154,1.716
		c-1.248,0.046-2.496,0.085-3.744,0.118c-0.615-0.257-1.227-0.518-1.845-0.764c-0.705-0.28-2.627,0.17-3.151,0.866
		c-0.877,0.012-1.754,0.019-2.63,0.025c-0.022-0.006-0.044-0.014-0.065-0.019c-0.133-0.038-0.376-0.024-0.666,0.024
		c-0.729,0.004-1.455,0.009-2.183,0.01c-0.515-0.267-1.032-0.529-1.55-0.79C230.316,154.237,234.876,153.836,239.439,153.478z
		 M201.964,162.375c-0.405,0.026-0.812,0.05-1.218,0.078c-3.401-0.885-6.771-2.097-10.046-3.483
		C194.48,160.025,198.235,161.159,201.964,162.375z M242.189,163.702c-0.076-0.049-0.15-0.097-0.227-0.144
		c0.734,0.004,1.469,0.01,2.203,0.015c0.121,0.073,0.246,0.144,0.368,0.218C243.751,163.761,242.97,163.727,242.189,163.702z
		 M270.948,152.707c-0.556-0.112-1.112-0.217-1.669-0.319c-0.253-0.152-0.507-0.304-0.76-0.456c2.664-0.061,5.329-0.1,7.996-0.105
		c0.152,0,0.288-0.007,0.412-0.019c0.953,0.036,1.906,0.068,2.858,0.103C276.842,152.179,273.894,152.439,270.948,152.707z
		 M226.946,150.825c3.619,0.23,7.251,0.372,10.887,0.504c-0.152,0.151-0.232,0.314-0.194,0.492
		c-5.01,0.395-10.016,0.839-15.021,1.314c-1.928-0.909-3.88-1.766-5.857-2.567c2.748-0.398,5.489-0.794,8.224-1.181
		C224.448,149.852,225.728,150.748,226.946,150.825z M212.616,151.9c0.45,0.337,0.906,0.662,1.363,0.985
		c-0.046-0.006-0.1-0.005-0.154-0.004c-1.051-0.507-2.112-0.983-3.182-1.434c0.514-0.073,1.027-0.146,1.54-0.22
		C212.176,151.439,212.3,151.666,212.616,151.9z M215.007,165.285c0.049-0.048,0.092-0.097,0.131-0.146
		c1.667-0.017,3.334-0.027,5-0.034c0.074,0.044,0.148,0.089,0.223,0.133C218.577,165.262,216.792,165.28,215.007,165.285z
		 M262.732,161.632c-2.1,0.006-4.207,0.046-6.318,0.092c-2.307-1.53-4.608-3.065-6.875-4.649c0.958-0.154,1.918-0.297,2.877-0.438
		c3.582,1.492,7.085,3.227,10.547,5.008C262.886,161.638,262.809,161.632,262.732,161.632z M267.71,156.923
		c-0.232-0.074-0.764-0.006-1.316,0.152c-1.033-0.568-2.076-1.117-3.12-1.666c1.181-0.135,2.361-0.282,3.54-0.437
		c1.789,1.153,3.572,2.315,5.329,3.515C270.681,157.927,269.208,157.394,267.71,156.923z M285.018,162.801
		c-4.024-3.011-8.211-5.776-12.478-8.423c2.918-0.265,5.836-0.521,8.752-0.785c0.604,0.638,1.216,1.268,1.843,1.881
		c-0.682-0.321-1.369-0.633-2.067-0.926c-0.775-0.324-4.367,0.539-3.107,1.665c2.59,2.316,5.226,4.581,7.754,6.952
		C285.482,163.043,285.25,162.923,285.018,162.801z M299.477,140.862c-1.456-1.121-2.918-2.233-4.39-3.337
		c-0.875-0.657-4.004,0.349-3.107,1.665c1.209,1.774,2.485,3.502,3.755,5.233c-1.179,0.168-2.387,0.901-1.752,1.776
		c1.537,2.118,3.146,4.178,4.541,6.369c-3.972-2.198-7.901-4.474-11.948-6.533c-0.832-0.423-4.199,0.361-3.107,1.666
		c0.764,0.913,1.533,1.82,2.311,2.722c-3.779-0.117-7.559-0.25-11.336-0.389c-3.389-0.21-6.777-0.406-10.164-0.613
		c-1.078-0.63-2.158-1.257-3.238-1.884c-0.96-0.555-3.659,0.494-3.229,1.466c-5.849-0.403-11.688-0.899-17.503-1.629
		c0.204-0.022,0.408-0.05,0.611-0.073c2.269-0.263-0.093-1.691-1.22-1.691h-11.016c-1.826,0-1.535,0.94-0.471,1.434
		c-6.965,0.962-13.996,2.034-21.066,3.052c-6.828-2.396-13.901-3.463-20.827-2.404c-4.636-1.795-9.368-3.295-14.243-4.287
		c-0.904-0.185-4.101,0.804-2.521,1.988c3.641,2.732,7.512,5.263,11.555,7.522c-1.286-0.061-2.577-0.084-3.873-0.045
		c-1.386-0.323-2.771-0.644-4.16-0.954c-0.916-0.205-4.086,0.812-2.521,1.987c0.041,0.031,0.084,0.06,0.125,0.091
		c-2.846,0.135-5.688,0.212-8.525,0.226c-3.393-1.081-6.812-2.075-10.268-2.955c3.828-0.363,7.639-0.828,11.424-1.459
		c2.281-0.381-0.119-1.646-1.22-1.691c-12.8-0.529-25.784-1.019-38.403,1.593c-1.106,0.23-0.491,0.893,0.135,1.256
		c-4.787,0.169-9.566,0.356-14.318,0.666c-4.797,0.313-9.593,0.63-14.391,0.9c-8.135-1.537-16.387-2.339-24.549-1.161
		c-0.254,0.038-1.037,0.38-1.582,0.792c-0.474,0.088-0.944,0.188-1.413,0.303c-0.142,0.034-0.312,0.1-0.486,0.186
		c-3.714-0.024-7.428-0.028-11.142-0.028c-1.848,0-1.491,0.795-0.561,1.304c-3.239-0.777-6.536-1.322-9.892-1.567
		c-0.044-0.003-0.11,0.004-0.187,0.014c-1.873-1.363-3.793-2.661-5.748-3.908c0.946-0.27,2.045-0.927,1.422-1.731
		c-3.25-4.193-7.139-7.751-11.025-11.321c2.976,0.988,6.02,1.632,9.127,1.146c0.73-0.113,2.607-0.771,1.898-1.841
		c-3.454-5.225-7.715-9.749-12.005-14.263c3.339,1.389,6.653,2.833,10.237,3.54c0.615,0.12,3.505-0.314,2.906-1.543
		c-2.162-4.437-5.376-8.273-8.881-11.792c0.483,0.118,0.971,0.228,1.469,0.316c0.679,0.122,3.875-0.539,2.769-1.794
		c-4.118-4.674-9.149-8.543-13.552-12.956c3.365,2.161,6.855,4.083,10.783,5.236c0.648,0.19,3.467-0.349,2.906-1.542
		c-1.74-3.696-4.027-7.106-6.545-10.332c1.191,0.501,2.398,0.968,3.639,1.359c0.902,0.284,3.555-0.464,2.769-1.794
		c-0.841-1.425-1.804-2.729-2.843-3.958c0.744-0.325,1.264-0.883,0.84-1.55c-2.092-3.3-4.774-6.091-7.502-8.849
		c3.389,1.439,6.758,2.927,10.241,4.134c0.903,0.312,3.55-0.479,2.769-1.794c-1.428-2.408-3.322-4.448-5.452-6.259
		c0.62-0.312,0.96-0.748,0.445-1.252c-3.47-3.394-7.29-6.4-10.838-9.696c4.321,2.002,8.584,4.059,13.485,4.542
		c0.781,0.076,3.175-0.682,2.359-1.856c-1.963-2.828-4.261-5.388-6.446-8.034c2.116,1.227,4.212,2.488,6.344,3.691
		c0.847,0.479,4.18-0.391,3.107-1.665c-3.715-4.412-8.089-8.147-12.541-11.784c1.155-0.218,3.005-0.93,2.026-1.735
		c-2.062-1.697-4.246-3.184-6.512-4.546c0.299-0.273,0.377-0.6,0.002-0.961c-1.738-1.678-3.557-3.238-5.268-4.912
		c3.25,1.118,6.476,2.294,9.918,2.761c0.613,0.084,3.405-0.847,2.359-1.854c-2.147-2.07-4.484-3.907-6.843-5.719
		c5.03,1.955,10.073,3.82,15.499,4.569c0.707,0.098,3.274-0.753,2.359-1.854c-1.566-1.889-3.4-3.429-5.323-4.86
		c5.823,1.678,11.666,3.286,17.575,4.652c0.9,0.207,4.217-1.278,2.521-1.988c-2.85-1.194-5.682-2.426-8.505-3.678
		c1.104,0.229,2.207,0.466,3.31,0.704c0.097,0.166,0.305,0.322,0.671,0.455c12.197,4.412,24.877,8.417,37.962,8.573
		c0.512,0.006,3.502-0.853,2.359-1.856c-1.516-1.332-3.115-2.557-4.771-3.705c3.446,1.041,6.94,1.916,10.515,2.496
		c0.826,0.135,4.201-0.88,2.521-1.987c-0.443-0.293-0.895-0.565-1.35-0.831c2.547,0.313,5.113,0.468,7.709,0.362
		c0.363-0.016,1.111-0.316,1.606-0.714c5.776,1.843,11.558,3.652,17.552,4.672c0.811,0.139,4.282-1.23,2.521-1.987
		c-0.057-0.024-0.114-0.046-0.171-0.07c8.951,3.349,18.162,5.914,27.601,6.625c0.542,0.04,3.484-0.885,2.359-1.856
		c-4.543-3.923-10.092-6.246-15.674-8.408c0.396-0.168,0.822-0.412,1.086-0.688c4.996,1.916,10,3.81,14.984,5.755
		c0.926,0.36,3.79-0.644,3.243-1.527c2.805,0.582,5.638,1.02,8.521,1.216c0.863,0.06,3.55-0.979,2.112-2.047
		c-0.063-0.048-0.126-0.095-0.188-0.142c2.318,1.189,4.697,2.254,7.18,3.13c0.684,0.241,3.627-0.656,2.882-1.66
		c4.288,1.612,8.532,3.363,12.802,5.036c1.088,0.425,4.549-1.032,2.861-1.858c-2.252-1.104-4.543-2.104-6.859-3.043
		c3.523,0.574,7.086,0.84,10.715,0.571c0.486-0.037,2.898-1.004,1.899-1.842c-0.231-0.194-0.469-0.381-0.706-0.567
		c4.938,1.958,9.976,3.56,15.37,3.924c0.414,0.028,2.452-0.592,2.612-1.321c4.008,1.966,8.115,3.691,12.5,4.766
		c0.924,0.228,4.084-0.833,2.521-1.987c-4.609-3.405-9.474-6.416-14.371-9.376c0.778,0.283,1.558,0.565,2.336,0.849
		c0.724,0.263,3.887-0.722,2.77-1.794c-0.616-0.591-1.254-1.157-1.896-1.717c8.651,4.026,16.898,8.958,25.826,12.395
		c0.749,0.288,4.399-0.554,3.107-1.665c-1.34-1.154-2.74-2.228-4.162-3.273c2.232,0.887,4.516,1.625,6.902,2.063
		c0.768,0.141,3.744-0.456,2.769-1.794c-1.794-2.461-3.853-4.659-6.028-6.743c4.294,2.167,8.539,4.442,12.935,6.406
		c0.193,0.086,0.472,0.115,0.786,0.1c1.595,1.096,3.145,2.263,4.721,3.404c0.928,0.671,4.208-0.745,3.108-1.665
		c-1.569-1.313-3.063-2.617-4.302-4.113c3.527,2.116,7.023,4.26,11.047,5.407c0.682,0.194,3.294-0.443,2.937-1.495
		c1.417,0.753,2.858,1.451,4.343,2.062c0.52,1.197,1.092,2.363,1.719,3.496c-0.641-0.37-1.296-0.721-1.971-1.044
		c-0.678-0.322-3.914,0.105-3.244,1.414c1.819,3.558,3.922,6.992,5.918,10.475c-1.151-0.297-3.214,0.4-2.914,1.543
		c1.225,4.66,2.934,9.167,4.484,13.721c-1.384-1.894-2.854-3.724-4.498-5.429c-0.773-0.802-3.926-0.19-3.491,1.221
		c2.688,8.718,5.909,17.255,8.851,25.887c-1.054-1.249-2.142-2.468-3.356-3.573c-0.768-0.701-4.044-0.193-3.491,1.22
		c1.387,3.548,2.814,7.084,4.34,10.572c-0.605-0.604-1.221-1.198-1.85-1.779c-0.762-0.703-4.074-0.165-3.491,1.221
		c2.216,5.28,4.844,10.359,7.462,15.447c-1.344-1.182-2.734-2.311-4.218-3.343c-0.781-0.542-3.651,0.112-3.244,1.414
		c0.651,2.083,1.351,4.145,2.144,6.157c-0.857,0.31-1.488,0.913-1.006,1.604c0.628,0.902,1.253,1.803,1.887,2.694
		c0.021,0.102,0.055,0.203,0.116,0.311c1.124,1.942,2.452,3.692,3.894,5.347c0.732,2.673,1.684,5.273,2.61,7.886
		c-1.103-0.678-2.215-1.338-3.396-1.879c-0.915-0.419-3.993,0.182-3.107,1.665C294.664,133.833,297.156,137.296,299.477,140.862z"/>
	<g opacity="0.8">
		<path d="M316.062,154.483h-7.701c5.533-18.804-1.305-39.579-2.905-58.529c-0.024-0.297-0.135-0.505-0.291-0.652
			c0.867-12.015,1.392-24.048,1.629-36.095c0.402-0.327,0.687-0.759,0.688-1.256c0.019-5.497,0.455-12.459-0.763-18.628
			c0.11-0.163,0.192-0.335,0.225-0.516c0.622-3.453,0.304-6.422-0.696-8.937c0.655-0.105,1.314-0.199,1.98-0.246
			c1.058-0.076,3.28-1.563,1.689-2.531c-1.199-0.73-2.458-1.377-3.741-1.98c0.351,0,0.7,0.005,1.051,0.006
			c1.7,0.003,3.37-2.596,0.9-2.651c-2.914-0.064-5.829-0.098-8.745-0.119c-0.361-0.204-0.73-0.401-1.109-0.587
			c0.297-0.542,0.207-1.084-0.738-1.279c-4.258-0.875-8.576-1.334-12.917-1.505c-0.403-0.065-0.809-0.115-1.213-0.169
			c0.019-0.349-0.222-0.659-0.891-0.829c-0.586-0.149-1.182-0.292-1.776-0.436c0.323-0.16,0.65-0.307,0.973-0.475
			c1.451-0.753,1.717-2.578-0.197-2.782c-7.661-0.816-15.291-0.588-22.905,0.129c-6.345-0.161-12.646,0.423-18.534,2.115
			c-0.262,0.075-0.551,0.233-0.82,0.431c-0.674,0.102-1.346,0.204-2.02,0.306c-9.074-0.286-18.23,0.202-27.232,0.564
			c-2.343-0.42-4.7-0.765-7.072-1.023c-5.283-0.572-11.355-0.728-16.131,1.962c-9.227-1.124-18.66-0.624-27.88,0.193
			c-0.118,0.01-0.249,0.048-0.385,0.099c-7.994,0.014-15.987,0.329-23.972,0.773c0.281-0.764,0.002-1.543-1.256-1.543H77.391
			c-0.204-0.269-0.574-0.461-1.165-0.501c-7.509-0.5-15.008-0.94-22.531-0.501c-0.403,0.023-0.844,0.221-1.225,0.501H41.511
			c-3.729,0-7.381-0.311-11.1-0.439c-2.607-0.089-6.637-0.021-8.492,2.208c-1.703,2.045-2.221,4.617-2.252,7.326
			c-0.778,0.159-1.561,0.64-1.664,1.42c-2.493,18.873-3.574,39.957,1.97,58.56c-0.02,1.659-0.045,3.319-0.074,4.98
			c-0.019,1.022-0.04,2.063-0.06,3.114c-0.336,0.187-0.605,0.39-0.725,0.564c-2.324,3.394-2.24,7.777-2.184,11.734
			c0.069,4.924,0.538,9.839,0.646,14.765c0.241,11.024-1.073,23.487,4.415,33.527c0.367,0.672,1.488,0.464,2.387,0.019
			c0.334,1.509,0.701,3.007,1.117,4.487c0.01,0.034,0.021,0.067,0.031,0.102c-0.548-0.035-1.096-0.074-1.648-0.088
			c-0.613-0.014-3.981,1.462-2.527,1.772c1.711,0.366,3.428,0.67,5.146,0.944c1.354,2.911,3.548,5.202,7.041,5.693
			c2.806,0.394,5.654,0.083,8.473-0.423c5.831,0.798,11.727,0.738,17.616,0.347c0.72-0.047,3.8-1.529,1.805-1.825
			c-0.339-0.05-0.677-0.104-1.015-0.156c6.902,0.473,13.831,0.512,20.74-0.021c0.436-0.033,3.609-1.362,2.131-1.769
			c-2.735-0.751-5.503-1.346-8.29-1.831c7.747-0.086,15.493-0.244,23.235-0.488c-0.77,0.641-0.871,1.673,0.277,1.982
			c0.542,0.146,1.086,0.276,1.63,0.411c-5.614,0.107-11.226,0.383-16.828,0.961c-0.914,0.095-3.435,1.689-1.69,2.531
			c21.084,10.178,45.214,3.857,67.416,2.159c5.227,0.137,10.451,0.229,15.678,0.278c-0.096,0.014-0.193,0.024-0.289,0.039
			c-1.548,0.225-3.48,2.598-0.902,2.65c10.863,0.22,21.722-0.796,32.492-2.485c13.194-0.313,26.419-0.03,39.609-0.02
			c0.778,0.001,1.545-0.555,1.915-1.156c1.147-0.068,2.294-0.148,3.438-0.237c18.555,1.722,37.18,2.719,55.349-1.49
			c0.741,0.238,1.477,0.49,2.203,0.763c-3.308,0.693-6.663,1.16-9.976,1.857c-2.092,0.438-2.225,3.395,0.188,2.887
			c4.844-1.018,9.78-1.534,14.521-3.004c1.068-0.332,2.622-1.848,1.101-2.751c-0.854-0.507-1.737-0.925-2.64-1.294
			c1.151-0.217,2.301-0.437,3.455-0.652c1.08-0.201,2.847-2.363,0.865-2.562c-0.916-0.092-1.83-0.163-2.746-0.222
			c0.062-0.114,0.098-0.227,0.116-0.34c0.54-0.453,1.045-0.957,1.504-1.518c0.555-0.268,1.073-0.666,1.335-1.001
			c2.351-0.229,4.701-0.447,7.057-0.626c1.078-0.08,2.002-1.079,2.096-1.9c0.284-0.099,0.567-0.196,0.851-0.31
			C317.728,156.678,317.972,154.483,316.062,154.483z M297.08,25.027c0.109,0.031,0.218,0.069,0.328,0.103
			c1.401,0.863,2.638,1.908,3.633,3.144c-0.017,0.009-0.032,0.017-0.049,0.025c-1.043-0.9-2.242-1.682-3.637-2.308
			c-0.137-0.062-0.299-0.093-0.469-0.105c-0.193-0.3-0.395-0.589-0.608-0.869C296.544,25.02,296.813,25.023,297.08,25.027z
			 M294.906,30.38c1.803,4.437,1.934,9.335,3.15,13.944c-1.265-2.975-2.672-5.894-4.205-8.753c1.028-0.71,1.677-1.893,0.183-2.057
			c-0.463-0.051-0.927-0.093-1.39-0.139c-0.43-0.761-0.871-1.515-1.317-2.266c0.292,0.006,0.586,0.014,0.879,0.016
			c0.862,0.005,2.105-1.049,2.208-1.831C294.587,29.644,294.752,30.003,294.906,30.38z M81.732,151.666
			c-1.51-0.376-3.001-0.804-4.48-1.265c0.906,0.015,1.812,0.031,2.719,0.05c3.553,0.842,7.125,1.604,10.715,2.284
			c-0.928,0.215-1.854,0.432-2.779,0.654c-1.84-0.029-3.721-0.062-5.617-0.132C82.773,152.639,82.806,151.933,81.732,151.666z
			 M212.5,134.893c2.249,0.065,4.496,0.125,6.742,0.163c11.899,0.202,24.369-1.596,36.272,0.062
			c-5.813,0.135-11.585,0.399-17.182,0.527c-6.112,0.139-12.226,0.304-18.337,0.476c-4.568-0.222-9.139-0.426-13.709-0.613
			c0.59-0.062,1.181-0.13,1.771-0.189C209.539,135.166,211.019,135.033,212.5,134.893z M273.802,141.994
			c-0.083-0.02-0.165-0.041-0.26-0.05c-1.156-0.103-2.312-0.199-3.471-0.294c0.375,0.001,0.75,0.003,1.124,0.003
			c0.46,0.116,0.884,0.117,1.274,0.001c0.18,0,0.357,0.001,0.537,0.001C274.056,141.79,274.21,141.854,273.802,141.994z
			 M278.501,141.563c-0.123-0.062-0.317-0.107-0.422-0.122c-0.635-0.085-1.269-0.15-1.902-0.231
			c0.048-0.104-0.252-0.189-1.183-0.201c-0.176-0.002-0.353-0.004-0.528-0.007c-0.44-0.052-0.882-0.093-1.322-0.144
			c0.297-0.35,0.453-0.797,0.446-1.23c2.745,0.483,5.496,0.938,8.23,1.469C280.714,141.253,279.609,141.412,278.501,141.563z
			 M258.766,136.031c-1.829,0.931-3.81,1.603-5.843,2.104c-2.665-0.202-5.331-0.401-7.998-0.583c3.814-0.513,7.633-1,11.439-1.505
			C257.166,136.042,257.965,136.037,258.766,136.031z M241.407,137.325c-4.245-0.274-8.49-0.528-12.736-0.759
			c7.392-0.216,14.786-0.399,22.183-0.486C247.703,136.491,244.552,136.896,241.407,137.325z M172.347,139.12
			c-1.742,0.157-3.487,0.303-5.232,0.44c-5.549-0.347-11.104-0.616-16.66-0.788c0.785-0.025,1.568-0.05,2.354-0.076
			C159.324,138.771,165.847,138.803,172.347,139.12z M133.111,138.58c-3.749,0.039-7.498,0.137-11.246,0.29
			c-1.475-0.146-2.945-0.317-4.406-0.519c7.13-0.237,14.273-0.13,21.412,0.048C136.951,138.46,135.031,138.521,133.111,138.58z
			 M283.791,138.05c0.135-0.017,0.268-0.031,0.402-0.048c0.897,0.216,1.793,0.444,2.684,0.693
			C285.851,138.464,284.822,138.25,283.791,138.05z M192.316,148.602c1.404-0.025,2.809-0.054,4.213-0.093
			c-0.404,0.185-0.813,0.355-1.217,0.545c-0.002,0-0.004,0.001-0.006,0.001c-0.867-0.054-1.304-0.015-1.318,0.115
			c-0.493,0.045-0.986,0.084-1.48,0.13c0,0,0,0-0.001,0C192.507,149.052,192.449,148.812,192.316,148.602z M203.283,148.288
			c-1.107,0.117-2.214,0.238-3.322,0.349c0.187-0.085,0.374-0.162,0.561-0.245C201.442,148.359,202.363,148.323,203.283,148.288z
			 M198.164,149.478c0.396-0.031,0.793-0.069,1.189-0.102c12.002-0.975,24.036-1.353,36.068-1.784
			c-2.164,0.186-4.327,0.375-6.487,0.582c-10.431,1.001-20.899,2.42-31.386,1.6C197.753,149.674,197.958,149.577,198.164,149.478z
			 M229.638,147.204c-5.67,0.201-11.342,0.417-17.008,0.699c0.131-0.016,0.263-0.032,0.394-0.049
			c3.362-0.169,6.724-0.355,10.084-0.548c8.997-0.251,17.991-0.636,26.985-1.066c-0.779,0.084-1.558,0.171-2.338,0.249
			C241.718,146.78,235.678,146.989,229.638,147.204z M275.057,145.283c0.917-0.13,1.834-0.259,2.752-0.384
			c3.279-0.149,6.559-0.295,9.838-0.425c-0.017,0.157-0.031,0.315-0.049,0.473c-1.565,0.304-3.126,0.632-4.681,0.986
			c-0.408,0.007-0.817,0.021-1.226,0.032C279.486,145.695,277.273,145.478,275.057,145.283z M201.445,135.316
			c-5.884-0.229-11.768-0.438-17.652-0.638c7.713-0.38,15.449-0.188,23.182,0.047C205.13,134.917,203.287,135.112,201.445,135.316z
			 M103.798,162.125c2.525-0.093,5.05-0.199,7.574-0.316c5.271,0.905,10.549,1.79,15.827,2.655
			c-2.942,0.062-5.884,0.113-8.827,0.148c-5.123-0.394-10.216-1.066-15.242-2.223C103.351,162.296,103.576,162.212,103.798,162.125z
			 M116.628,159.792c-0.217-0.037-0.436-0.075-0.652-0.112c0.492-0.057,0.985-0.117,1.479-0.178c0.947,0.035,1.896,0.07,2.844,0.104
			C119.076,159.673,117.852,159.729,116.628,159.792z M133.195,156.278c0.52-0.188,1.21-0.584,1.619-0.951
			c0.186-0.008,0.37-0.018,0.555-0.026c0.751,0.092,1.502,0.181,2.253,0.266c4.687,0.994,9.437,1.662,14.163,2.466
			c-2.076,0.071-4.153,0.118-6.23,0.141c-0.095-0.058-0.256-0.096-0.506-0.104c-4.32-0.15-8.656-0.379-12.989-0.715
			C132.764,156.995,133.425,156.542,133.195,156.278z M192.404,149.867c0.375,0.036,0.786,0.048,1.121,0.021
			c0.018-0.001,0.034-0.003,0.052-0.004c-0.04,0.02-0.08,0.037-0.12,0.057c-0.342,0.171,0.868,0.335,0.874,0.335
			c14.056,1.362,28.151-0.883,42.132-2.108c4.098-0.358,8.209-0.703,12.312-1.109c4.244-0.198,8.484-0.446,12.723-0.746
			c0.043,0.438,0.271,0.828,0.723,1.033c-3.132,0.323-6.26,0.672-9.377,1.019c-1.138-0.02-2.275-0.036-3.41-0.04
			c-0.562-0.003-1.004,0.227-1.312,0.562c-3.824,0.415-7.629,0.801-11.405,1.103c-14.079,1.124-28.337,1.352-42.45,0.957
			c-0.868-0.024-1.734-0.056-2.598-0.093C192.012,150.594,192.269,150.242,192.404,149.867z M290.833,153.852
			c0.617-0.086,1.233-0.171,1.85-0.256c0.072,0.295,0.146,0.591,0.221,0.887h-2.861C290.31,154.277,290.573,154.066,290.833,153.852
			z M290.804,24.962h0.148c1.223,0.969,2.271,2.186,3.117,3.69c-0.137-0.072-0.309-0.131-0.54-0.159
			c-1.03-0.129-2.062-0.238-3.093-0.336c-0.119-0.88-0.238-1.759-0.357-2.638C290.337,25.375,290.587,25.18,290.804,24.962z
			 M280.861,30.869c0.533,0.129,1.068,0.246,1.598,0.389c-0.556,0.054-1.111,0.1-1.666,0.151
			C280.851,31.227,280.876,31.044,280.861,30.869z M286,35.527c0.006,0.126,0.01,0.25,0.016,0.374
			c-5.951-0.171-11.893-0.48-17.826-0.901c1.302-0.09,2.604-0.185,3.907-0.283C276.737,34.945,281.378,35.171,286,35.527z
			 M259.957,17.187c3.734,0.214,7.469,0.683,11.123,1.322c-0.177,0.061-0.355,0.118-0.533,0.178
			c-1.181,0.099-2.363,0.215-3.543,0.346c-3.08,0.215-6.16,0.438-9.236,0.688c-2.637-0.609-5.297-1.086-7.975-1.453
			C253.177,17.833,256.565,17.456,259.957,17.187z M253.158,33.38c-0.721,0.047-1.441,0.092-2.162,0.141
			c-4.922-0.486-9.84-1.013-14.756-1.564c1.799-0.122,3.599-0.237,5.398-0.353C245.453,32.388,249.295,32.956,253.158,33.38z
			 M241.807,24.454c0.472,0.007,0.943,0.019,1.417,0.027c-0.462,0.07-0.924,0.14-1.387,0.209
			C241.841,24.608,241.835,24.527,241.807,24.454z M237.82,19.969c2.438,0.111,4.869,0.278,7.289,0.535
			c0.442,0.1,0.884,0.205,1.326,0.304c-0.465,0.055-0.932,0.102-1.396,0.157c-0.388,0.048-0.936,0.356-1.395,0.746
			c-4.127-0.196-8.25-0.451-12.368-0.77C233.458,20.624,235.638,20.296,237.82,19.969z M229.797,28.121
			c-0.009,0.051-0.021,0.102-0.023,0.152c-0.913-0.006-1.827-0.006-2.739-0.012C227.957,28.216,228.876,28.167,229.797,28.121z
			 M218.179,32.741c0.078-0.005,0.158-0.011,0.236-0.016c0.594,0.068,1.188,0.136,1.781,0.205c0.202,0.117,0.492,0.192,0.909,0.198
			c0.358,0.006,0.713,0.019,1.068,0.031c-1.576,0.048-3.153,0.087-4.73,0.141C217.704,33.148,217.958,32.955,218.179,32.741z
			 M203.781,19.988c0.039,0.188,0.178,0.347,0.437,0.461c-3.858-0.035-7.721-0.284-11.589-0.813
			C196.265,19.017,200.378,19.53,203.781,19.988z M191.183,30.925c2.025,0.021,4.051,0.027,6.075,0.013
			c1.097,0.028,2.194,0.046,3.291,0.07c0.554,0.101,1.107,0.202,1.661,0.307c-0.416,0.027-0.832,0.055-1.249,0.083
			c-4.185,0.004-8.369-0.002-12.549,0.108c-0.393-0.08-0.783-0.166-1.175-0.249C188.554,31.162,189.869,31.056,191.183,30.925z
			 M181.408,24.353c1.768,0.27,3.531,0.562,5.289,0.883c-0.129,0.068-0.258,0.151-0.383,0.24c-1.336,0.068-2.674,0.13-4.012,0.176
			c-0.119-0.062-0.256-0.119-0.43-0.163c-1.08-0.274-2.164-0.519-3.25-0.757C179.552,24.608,180.48,24.482,181.408,24.353z
			 M177.794,31.937c0.168,0.048,0.336,0.096,0.506,0.143c-1.285,0.121-2.57,0.254-3.854,0.422c-0.73,0.095-1.539,0.685-1.926,1.28
			c-1.922-0.058-3.843-0.125-5.764-0.214C170.426,32.942,174.105,32.409,177.794,31.937z M158.894,21.725
			c4.305,0.429,8.623,0.854,12.932,1.354c-0.459,0.055-0.92,0.111-1.381,0.165c-5.334-0.778-10.702-1.224-16.088-1.483
			C155.869,21.742,157.381,21.725,158.894,21.725z M163.691,31.612c-2.416,0.446-4.829,0.917-7.234,1.442
			c-0.387,0.085-0.891,0.446-1.261,0.874c-17.243-0.103-34.486-0.319-51.729-0.406c2.472-0.421,4.949-0.81,7.43-1.177
			c7.085-0.609,14.215-0.844,21.352-0.909c4.561,0.016,9.122,0.021,13.684,0.035c5.881,0.061,11.753,0.149,17.594,0.155
			C163.58,31.626,163.634,31.618,163.691,31.612z M134.325,23.966c7.687,0.064,15.372,0.155,23.013,0.696
			c-2.873,0.29-5.746,0.573-8.621,0.856c-2.44-0.024-4.881-0.043-7.322-0.048c-0.543,0-1.215,0.428-1.676,0.937
			c-0.432,0.043-0.863,0.088-1.295,0.132c-2.381,0.075-4.762,0.144-7.145,0.236c-5.486,0.215-10.975,0.449-16.462,0.683
			c-5.196-0.141-10.396-0.338-15.594-0.53c11.245-0.791,22.585-0.781,33.759-2.311C133.441,24.555,133.927,24.297,134.325,23.966z
			 M115.804,21.434c-0.217,0.155-0.43,0.329-0.609,0.524c-6.809-0.011-13.618-0.033-20.427-0.068
			C101.78,21.705,108.792,21.543,115.804,21.434z M79.953,25.017c4.748-0.163,9.5-0.263,14.253-0.318
			c0.417-0.001,0.835-0.005,1.252-0.006c-3.599,0.33-7.185,0.775-10.751,1.396c-1.738-0.148-3.475-0.308-5.211-0.476
			C79.679,25.432,79.838,25.228,79.953,25.017z M100.455,31.026c-4.39,0.649-8.758,1.471-13.094,2.528
			c-1.086,0.266-2.844,2.194-0.865,2.562c27.582,5.129,55.754,0.592,83.539,0.518c0.053,0,0.104-0.017,0.156-0.021
			c-0.938,0.716-1.621,1.822-0.084,1.992c13.248,1.473,26.615,1.49,39.906,0.612c0.188,0.354,0.67,0.545,1.531,0.328
			c3.466-0.874,7.024-0.979,10.557-1.428c0.967-0.123,2.949-1.968,1.957-2.474c3.187-0.153,6.361-0.419,9.523-1.083
			c0.08-0.018,0.162-0.043,0.245-0.074c0.665,0.074,1.33,0.149,1.995,0.224c-2.438,0.23-4.873,0.486-7.306,0.776
			c-1.123,0.133-3.563,2.473-1.324,2.633c19.636,1.402,39.308,0.151,58.966,0.482c0.443,7.604,1.245,15.184,2.152,22.756
			c-0.102,2.638-0.121,5.276-0.059,7.911c-0.225,0.287-0.377,0.622-0.406,0.98c-1.669,20.233,0.287,40.463,0.855,60.704
			c-0.057,1.03-0.119,2.061-0.183,3.09c-5.989-0.034-11.977-0.181-17.964-0.139c0.249-0.127,0.129-0.298-0.361-0.35
			c-2.715-0.281-5.434-0.494-8.154-0.668c-12.896-2.95-26.38-1.055-39.479-1.093c-16.973-0.047-33.977-1.748-50.861,0.756
			c-0.917,0.137-1.635,0.901-1.803,1.668c-9.402-0.308-18.805-0.621-28.205-0.983c-13.203-0.51-26.055-1.215-39.089,1.569
			c-0.757,0.16-1.647,0.961-1.868,1.751c-0.18,0.101-0.342,0.223-0.482,0.362c-4.059-0.339-8.127-0.581-12.231-0.634
			c-9.128-0.115-18.246,0.239-27.362,0.663c-4.809-0.046-9.611,0.012-14.385,0.11c-0.49,0.01-0.916,0.254-1.239,0.603
			c-0.054-0.004-0.108-0.008-0.163-0.012c-0.701-0.06-4.212,0.418-1.877,0.61c0.527,0.044,1.055,0.081,1.582,0.123
			c-0.345,0.87-0.126,1.863,1.07,1.964c2.482,0.208,4.969,0.387,7.455,0.549c-0.182,0.156-0.34,0.342-0.465,0.545
			c-0.193-0.061-0.386-0.125-0.58-0.186c-1.262-0.39-4.316,1.256-2.479,2.411c2.451,1.542,4.986,2.937,7.538,4.301
			c-0.008,0.001-0.015,0.001-0.022,0.001c-3.118-1.242-6.279-2.327-9.529-3.201c-0.005-0.003-0.009-0.005-0.014-0.006
			c0,0-0.001,0-0.002,0.001c-0.121-0.033-0.242-0.071-0.364-0.104c-0.38-0.101-0.919,0.047-1.417,0.317
			c-2.256-0.861-4.492-1.786-6.729-2.719c-0.377-0.158-0.875-0.099-1.359,0.081c-0.009-0.481-0.02-0.963-0.025-1.444
			c0.039,0.028,0.078,0.06,0.119,0.085c0.961,0.623,2.977,0.146,3.254-1.126c1.816-8.299,1.266-16.921,0.461-25.471
			c1.08,0.237,2.627-0.636,2.625-1.853c-0.029-17.563-1.069-35.119-3.225-52.548c0.009-4.723-0.066-9.449-0.147-14.175
			c0.05-3.458-0.064-6.899-0.124-10.166c13.888,1.905,27.925,0.564,41.872,1.479c1.384,0.091,4.071-2.239,1.747-2.616
			c-4.225-0.686-8.418-1.531-12.562-2.569C81.269,31.746,90.863,31.412,100.455,31.026z M37.041,37.031
			c-0.169-0.33-0.344-0.656-0.529-0.979c-0.361-0.632-1.114-0.817-1.826-0.685c-0.031-0.316-0.053-0.633-0.086-0.949
			c-0.049-0.456-0.261-0.752-0.557-0.922c1.272-0.457,2.605-0.819,3.98-1.096c-0.567,0.327-1.008,0.808-1.007,1.349
			C37.018,34.842,37.031,35.936,37.041,37.031z M27.206,34.422c-0.689-0.974-1.481-1.881-2.423-2.693
			c-0.289-0.247-0.686-0.371-1.102-0.388c-0.037-0.396-0.072-0.793-0.105-1.19c6.32,0.04,12.537-1.803,18.855-2.358
			c0.439-0.039,0.853-0.215,1.197-0.462c1.79,0.055,3.578,0.142,5.361,0.278c-3.766,0.377-7.53,0.763-11.284,1.25
			c-0.909,0.117-1.529,0.873-1.625,1.589C32.859,31.298,29.84,32.58,27.206,34.422z M31.017,34.834
			c-0.404,1.817-0.658,3.658-0.845,5.506c-0.001-0.005-0.004-0.011-0.006-0.015c-0.05-1.648-0.089-3.296-0.097-4.942
			C30.378,35.191,30.695,35.009,31.017,34.834z M26.415,40.946c-0.01,0.406-0.019,0.812-0.028,1.219
			c-0.127-0.369-0.255-0.738-0.389-1.105c-0.168-0.458-0.585-0.628-1.072-0.618c-0.002-0.006-0.004-0.012-0.006-0.017
			c0.248-0.389,0.51-0.759,0.785-1.116C25.957,39.844,26.191,40.391,26.415,40.946z M45.621,31.993
			c-1.453,0.26-2.896,0.595-4.324,1.062c-0.205,0.066-0.458,0.213-0.709,0.4c0-0.197-0.003-0.395-0.003-0.59
			c-0.001-0.43-0.218-0.686-0.541-0.809c0.433-0.062,0.872-0.106,1.31-0.153C42.776,31.938,44.199,31.968,45.621,31.993z
			 M63.342,26.554c-0.374,0.014-0.749,0.036-1.122,0.052c-0.147-0.109-0.336-0.198-0.578-0.255
			c-0.092-0.022-0.184-0.039-0.274-0.062C62.027,26.377,62.685,26.466,63.342,26.554z M63.384,33.63
			c0.366-0.021,0.816-0.217,1.217-0.492c1.197,0.351,2.4,0.682,3.607,0.997c-5.409,0.003-10.818,0.023-16.213-0.247
			C55.783,33.733,59.603,33.839,63.384,33.63z M23.829,22.667c0.558-2.539,3.73-2.581,6.334-2.377
			c-0.335,0.001-0.669,0.004-1.002,0.005c-1.929,0.001-3.222,2.911-0.748,2.99c10.263,0.329,20.506,1.016,30.747,1.73
			c-0.154,0.314-0.164,0.613,0.084,0.823c-9.729-1.901-19.702-1.558-29.583-1.539c-1.618,0.003-2.765,2.084-1.663,2.77
			c-1.525,0.136-3.049,0.19-4.57,0.106C23.41,25.662,23.503,24.15,23.829,22.667z M20.058,42.48c0.122-1.652,0.263-3.297,0.42-4.93
			c0.028,1.14,0.061,2.283,0.092,3.428C20.39,41.473,20.222,41.974,20.058,42.48z M21.188,124.088
			c-0.013-2.382-0.072-4.758-0.165-7.134c0.252,1.278,0.553,2.541,0.907,3.779c-0.551,8.87-0.681,17.914,1.019,26.463
			c0.044,0.363,0.098,0.726,0.146,1.088C20.861,140.557,21.23,131.947,21.188,124.088z M27.55,106.678
			c-0.018,0.031-0.038,0.062-0.049,0.093c-0.039,0.113-0.07,0.228-0.108,0.341c-1.087-3.595-2.409-7.116-4.011-10.553
			c0.019-1.44,0.044-2.859,0.063-4.254c0.822-0.312,1.593-1.069,1.64-1.809c0.039-0.616,0.072-1.233,0.107-1.85
			c0.453,0.864,0.943,1.701,1.504,2.489c0.219,4.021,0.544,8.031,1.019,12.03C27.658,104.337,27.603,105.508,27.55,106.678z
			 M28.273,155.873c0.407-0.239,0.719-0.514,0.797-0.757c0.49-1.521,0.849-3.069,1.102-4.637c0.469,2.194,0.906,4.37,1.279,6.519
			c0.175,1.19,0.357,2.378,0.555,3.561c0.113,0.68,1.945,0.395,2.943-0.241c0.021,0.203,0.042,0.406,0.064,0.609
			c0.042,0.374,0.232,0.612,0.5,0.752c-1.959-0.404-3.924-0.785-5.899-1.077C29.028,159.024,28.631,157.357,28.273,155.873z
			 M39.554,165.647c-0.256,0.037-1.593,0.68-1.973,1.179c-0.734-0.029-1.463-0.106-2.182-0.257c-1.994-0.416-3.379-1.61-4.395-3.15
			c1.173,0.138,2.348,0.26,3.523,0.365c1.299,0.272,2.6,0.54,3.902,0.791c-0.49,0.388-0.634,0.756,0.27,0.83
			c0.537,0.043,1.071,0.102,1.607,0.153C40.056,165.59,39.805,165.611,39.554,165.647z M59.929,161.073
			c-0.846,0-4.221,1.687-2.202,1.828c5.576,0.39,11.146,0.968,16.626,2.037c-7.663,0.095-15.326-0.466-22.929-1.476
			c0.646-0.446,0.936-0.886-0.007-0.888c-4.816-0.013-9.618-0.167-14.395-0.582c-0.26-0.055-0.519-0.108-0.777-0.162
			c1.068-0.024,2.428-0.834,2.336-1.788c-0.471-4.946-0.714-9.901-0.844-14.859c2.57,1.125,5.1,2.335,7.601,3.6
			c-1.195,0.115-2.39,0.228-3.584,0.362c-1.229,0.141-3.49,2.038-1.324,2.634c4.385,1.207,8.809,2.236,13.252,3.177
			c-0.732,0.681-1.056,1.583,0.267,1.83c8.431,1.573,16.863,2.938,25.459,3.021c0.96,0.008,2.38-1.212,2.199-2.014
			c1.297,0.15,2.592,0.315,3.887,0.494c0.49,0.068,1.318-0.309,1.934-0.795c4.958,0.902,9.908,1.85,14.855,2.741
			c-0.158,0.062-0.318,0.117-0.477,0.185C87.855,160.891,73.892,161.067,59.929,161.073z M88.881,167.781
			c10.802-0.707,21.624-0.49,32.448-0.242c4.457,0.213,8.929,0.264,13.389,0.274c2.121,0.187,4.234,0.442,6.337,0.774
			C123.648,170.589,105.419,173.726,88.881,167.781z M156.167,162.578c-0.438,0.032-1.747,0.649-2.255,1.159
			c-3.729,0.105-7.457,0.218-11.186,0.327c-6.103-0.967-12.201-1.954-18.295-2.966c2.755-0.172,5.511-0.356,8.266-0.562
			c-0.023,0.171,0.147,0.305,0.636,0.362c7.69,0.893,15.39,1.394,23.097,1.661C156.341,162.566,156.253,162.572,156.167,162.578z
			 M156.676,159.559c0.864-0.053,1.728-0.104,2.591-0.167c0.445-0.033,3.596-1.438,2.131-1.769
			c-4.499-1.015-9.062-1.688-13.608-2.436c0.233-0.173,0.44-0.369,0.6-0.57c0.334-0.02,0.667-0.038,1.001-0.057
			c2.411,0.377,4.818,0.763,7.203,1.224c0.371,0.071,0.893-0.098,1.379-0.38c4.518,1.11,9.031,2.222,13.424,3.751
			C166.498,159.562,161.589,159.626,156.676,159.559z M172.974,168.031c-3.08-0.006-6.161-0.027-9.243-0.062
			c0.013-0.114-0.009-0.219-0.056-0.316c3.173-0.362,6.354-0.687,9.521-1.067C172.732,167.083,172.527,167.669,172.974,168.031z
			 M191.388,160.441c-3.004,0.155-6.009,0.314-9.012,0.479c-4.073,0.054-8.145,0.072-12.216,0.045
			c1.71-0.146,3.42-0.333,5.128-0.571c0.424-0.06,3.613-1.167,2.131-1.769c-4.828-1.962-9.846-3.275-14.885-4.521
			c2.863,0.537,5.725,1.093,8.578,1.68c0.373,0.076,0.809-0.019,1.217-0.212c6.84,1.373,13.686,2.715,20.461,4.372
			C192.326,160.117,191.859,160.283,191.388,160.441z M198.19,160.096c0.672-0.646,0.947-1.595-0.295-1.92
			c-7.726-2.028-15.562-3.562-23.392-5.132c1.631-0.102,3.261-0.2,4.891-0.298c4.164,0.382,8.332,0.644,12.531,0.801
			c12.529,0.469,25.16,0.247,37.696-0.497c-0.529,0.847-0.392,1.892,1.074,1.92c0.542,0.01,1.083,0.004,1.624,0.009
			c-2.793,0.205-5.588,0.382-8.387,0.505c-1.896,0.084-3.237,3.009-0.748,2.992c5.572-0.04,11.102-0.52,16.611-1.198
			c3.102-0.29,6.201-0.604,9.299-0.931c0.945,0.129,1.892,0.253,2.838,0.369c0.346,0.05,0.689,0.104,1.034,0.156
			c0.164,0.351,0.555,0.602,1.261,0.602h2.617c3.281,0.529,6.553,1.113,9.805,1.788c-3.774-0.021-7.55-0.052-11.324-0.085
			c-1.328-0.173-2.656-0.341-3.983-0.491c-10.093-1.153-20.146-0.221-30.252,0.281C213.458,159.347,205.824,159.714,198.19,160.096z
			 M217.091,164.281c-0.181,0.04-0.361,0.079-0.543,0.119c-0.964-0.076-1.927-0.149-2.889-0.219
			C214.803,164.203,215.948,164.238,217.091,164.281z M221.947,168.092c-3.562-0.026-7.123-0.046-10.686-0.048
			c1.531-0.318,3.059-0.645,4.584-0.977c2.361,0.185,4.727,0.393,7.097,0.613C222.637,167.712,222.283,167.867,221.947,168.092z
			 M241.674,166.807c-1.82-0.173-3.642-0.352-5.461-0.534c4.134-0.037,8.269-0.098,12.401-0.181
			C246.31,166.395,243.996,166.626,241.674,166.807z M262.486,168.231c-2.904-0.089-5.811-0.238-8.719-0.431
			c1.621-0.306,3.238-0.651,4.849-1.055c0.415-0.104,0.954-0.487,1.328-0.928c0.027-0.001,0.055-0.002,0.083-0.002
			c1.143,0,2.287,0.002,3.43,0.004C262.234,166.317,261.255,167.855,262.486,168.231z M259.058,163.166
			c-0.111,0.009-0.224,0.031-0.335,0.062c-2.775,0.074-5.552,0.138-8.327,0.195c-6.948-0.225-13.922,0.211-20.879,0.242
			c-1.021,0.006-2.023,0.959-2.133,1.721c-0.959-0.095-1.917-0.188-2.875-0.279c0.521-0.122,1.042-0.242,1.562-0.363
			c0.826-0.196,2.222-1.645,1.622-2.28c2.395-0.189,4.788-0.38,7.18-0.567c0.393-0.031,1.399-0.525,1.992-0.992
			c5.474,0.012,10.948,0.056,16.423,0.102c3.802,0.477,7.595,1.016,11.392,1.434C262.775,162.765,260.891,163.007,259.058,163.166z
			 M286.383,167.217c-7.132,0.941-14.329,1.209-21.553,1.071c7.255-0.135,14.474-0.834,21.684-1.621
			C286.419,166.862,286.368,167.05,286.383,167.217z M287.054,161.043c-0.596,0.135-1.225,0.689-1.524,1.282
			c-0.941,0.036-1.884,0.075-2.825,0.111c0.903-0.421,1.789-1.021,0.864-1.309c-0.09-0.027-0.181-0.051-0.271-0.079
			c1.363-0.016,2.727-0.05,4.089-0.073C287.277,161,287.166,161.018,287.054,161.043z M292.029,158.488
			c-0.232,0.017-0.48,0.101-0.725,0.222c-2.117-0.307-4.236-0.588-6.36-0.83c0.215-0.123,0.421-0.257,0.634-0.382
			c1.4-0.013,2.801-0.021,4.2-0.023h3.946c0.076,0.254,0.141,0.511,0.219,0.764c0.01,0.034,0.025,0.06,0.038,0.089
			C293.33,158.379,292.679,158.442,292.029,158.488z M296.437,72.966c-0.567,1.494-1.034,3.007-1.436,4.534
			c-0.214-0.702-0.445-1.395-0.693-2.082c0.016-11.84-0.98-23.664-2.372-35.439c3.293,6.601,5.886,13.515,7.596,20.66
			c-0.029,0.768-0.066,1.535-0.085,2.304c-0.948,3.076-1.762,6.184-2.457,9.317C296.734,72.479,296.531,72.72,296.437,72.966z
			 M297.802,89.543c0.061-0.57,0.121-1.14,0.186-1.708c0.033,0.573,0.074,1.146,0.102,1.72
			C297.998,89.542,297.901,89.542,297.802,89.543z M298.351,154.483c-0.02-0.575-0.018-1.161-0.004-1.75
			c1.189-0.601,1.547-2.392,0.114-2.706c0.011-0.202,0.022-0.406,0.033-0.604c0.317,0.041,0.635,0.079,0.952,0.124
			c0.307,1.567,0.632,3.133,1.004,4.688c0.024,0.1,0.072,0.175,0.121,0.249H298.351z M301.217,52.81
			c-0.56-1.745-1.17-3.475-1.829-5.188c0.646,0.427,1.709,0.191,2.398-0.345c0.328,1.749,0.66,3.498,0.958,5.248
			C302.308,52.438,301.738,52.564,301.217,52.81z M305.957,130.501c-0.176-0.84-1.041-1.02-1.871-0.817
			c0.227-4.721,0.307-9.449,0.404-14.176c1.045,6.472,2.041,13.013,2.355,19.479C306.562,133.455,306.259,131.952,305.957,130.501z"
			/>
	</g>
	<g>
		<path fill="#FFFFFF" d="M70.086,140.853c1.812,0.131,3.991-1.771,4.847-3.24c0.226-0.389-0.543-1.355-0.795-0.924
			c-0.793,1.361-2.858,3.17-4.542,3.049C69.137,139.705,69.636,140.821,70.086,140.853L70.086,140.853z"/>
	</g>
	<g>
		<path fill="#FFFFFF" d="M74.196,137.484c1.079,1.487,2.41,2.546,4.053,3.357c0.69,0.341,0.6-0.836,0.083-1.092
			c-1.342-0.663-2.477-1.527-3.361-2.746C74.521,136.383,73.736,136.85,74.196,137.484L74.196,137.484z"/>
	</g>
	<g>
		<path fill="#FFFFFF" d="M71.063,140.888c0.045,0.813,0.048,1.627,0.048,2.441c0,0.275,0.167,0.579,0.327,0.793
			c0.06,0.081,0.328,0.362,0.328,0.086c0-0.814-0.003-1.628-0.048-2.441c-0.016-0.282-0.16-0.57-0.327-0.793
			C71.338,140.903,71.047,140.607,71.063,140.888L71.063,140.888z"/>
	</g>
	<g>
		<path fill="#FFFFFF" d="M71.938,144.676c1.977-0.014,3.944-0.185,5.915-0.329c0.086-0.006-0.439-0.989-0.72-0.969
			c-1.971,0.144-3.938,0.315-5.915,0.329C71.153,143.708,71.644,144.678,71.938,144.676L71.938,144.676z"/>
	</g>
	<g>
		<path fill="#FFFFFF" d="M77.95,144.053c0.007-0.488-0.151-0.92-0.254-1.391c-0.137-0.626,0.136-1.232,0.337-1.81
			c0.032-0.093-1.076,0.021-1.171,0.293c-0.169,0.485-0.35,0.943-0.393,1.459c-0.051,0.616,0.296,1.197,0.288,1.819
			C76.755,144.496,77.946,144.341,77.95,144.053L77.95,144.053z"/>
	</g>
	<g>
		<path fill="#FFFFFF" d="M58.769,139.915c2.015,0.103,4.866-0.37,6.357,1.314c2.667,3.012-3.989,2.466-5.309,2.448
			c-0.709-0.01-0.893,0.923-0.079,0.934c1.625,0.021,7.812,0.778,7.103-2.516c-0.747-3.465-4.989-2.971-7.681-3.108
			C58.544,138.956,57.952,139.873,58.769,139.915L58.769,139.915z"/>
	</g>
	<g>
		<path fill="#FFFFFF" d="M59.66,138.985c0.062,0.71,0.117,1.421,0,2.127c0.208-0.023,0.417-0.046,0.625-0.069
			c-1.033-0.771-2.243-1.161-3.446-1.582c0.12,0.335,0.24,0.67,0.36,1.005c1.132-0.092,2.147-0.535,3.234-0.823
			c0.49-0.13-0.243-1.127-0.684-1.01c-1.01,0.268-1.976,0.719-3.028,0.804c-0.643,0.053,0.065,0.901,0.36,1.005
			c1.005,0.352,2.076,0.651,2.941,1.297c0.212,0.158,0.566,0.29,0.625-0.069c0.117-0.707,0.062-1.418,0-2.127
			c-0.026-0.299-0.231-0.566-0.49-0.712C59.997,138.739,59.633,138.686,59.66,138.985L59.66,138.985z"/>
	</g>
	<g>
		<path fill="#FFFFFF" d="M83.102,144.141c-0.012-1.486-0.183-2.764-0.895-4.084c-0.124,0.245-0.248,0.49-0.372,0.735
			c2.138-0.17,4.273-0.02,6.414-0.077c1.458-0.038,1.083,0.225,1.058,1.394c-0.022,0.98-0.039,1.836,0.347,2.749
			c0.144-0.201,0.289-0.403,0.433-0.605c-2.573,0.342-5.168-0.112-7.728-0.38c-0.812-0.084-0.732,0.978,0.007,1.055
			c2.669,0.278,5.362,0.729,8.044,0.372c0.271-0.036,0.557-0.311,0.433-0.605c-0.495-1.172-0.303-2.493-0.278-3.738
			c0.009-0.473-0.232-0.901-0.684-1.072c-1.126-0.427-2.458-0.2-3.629-0.218c-1.584-0.023-3.158-0.046-4.739,0.08
			c-0.387,0.03-0.542,0.422-0.372,0.735c0.616,1.144,0.72,2.277,0.73,3.551C81.875,144.695,83.107,144.859,83.102,144.141
			L83.102,144.141z"/>
	</g>
	<g>
		<path fill="#FFFFFF" d="M85.551,139.92c0.074-0.71,0.051-1.417,0.125-2.127c-0.387,0.033-0.774,0.066-1.161,0.1
			c2.035,0.317,4.08,0.316,6.134,0.283c1.525-0.023,3.025-0.505,2.592,1.48c-0.12,0.548-0.257,1.066-0.33,1.624
			c0.005,0.183,0.01,0.364,0.015,0.546c-0.68,0.574-1.428,0.822-2.243,0.743c-0.208-0.001-1.396,0.15-0.623,0.154
			c1.406,0.008,2.813,0.033,4.169-0.385c0.034-0.001,0.062-0.015,0.083-0.04c-0.376-1.48,0.418-2.778,0.314-4.256
			c-0.004-0.053-0.293-0.043-0.312-0.043c-2.912-0.037-5.835,0.213-8.726-0.236c-0.125-0.02-1.146-0.051-1.161,0.1
			c-0.074,0.709-0.051,1.416-0.125,2.125C84.299,140.03,85.534,140.084,85.551,139.92L85.551,139.92z"/>
	</g>
	<g>
		<path fill="#36A9E1" d="M234.958,139.05c2.722-0.723,4.415-2.93,6.44-4.725c-0.348-0.049-0.695-0.098-1.043-0.146
			c0.462,2.804-0.678,5.585-0.751,8.387c-0.018,0.65,1.195,0.371,1.211-0.213c0.073-2.795,1.213-5.583,0.751-8.387
			c-0.087-0.525-0.741-0.414-1.043-0.146c-1.715,1.521-3.265,3.676-5.575,4.289C234.283,138.286,234.161,139.262,234.958,139.05
			L234.958,139.05z"/>
	</g>
	<g>
		<path fill="#36A9E1" d="M244.478,134.759c-0.387,2.129-0.801,4.423-0.467,6.583c0.278,1.797,1.856,3.253,3.6,1.787
			c2.003-1.685,1.887-5.394,1.408-7.704c-0.456-2.197-3.469-3.781-4.391-1.044c-0.234,0.696,0.982,0.709,1.176,0.135
			c0.556-1.649,1.896,0.794,2.024,1.291c0.223,0.867,0.224,1.798,0.204,2.687c-0.016,0.724-0.878,5.734-2.387,3.883
			c-0.834-1.022-0.524-3.088-0.429-4.291c0.093-1.158,0.279-2.308,0.487-3.449C245.823,133.984,244.587,134.16,244.478,134.759
			L244.478,134.759z"/>
	</g>
	<g>
		<path fill="#36A9E1" d="M253.179,134.147c-0.619,0.598-0.833,1.453-0.491,2.258c0.323,0.763,1.115,1.127,1.887,0.783
			c1.965-0.875,0.268-3.168-1.168-3.479c-0.65-0.141-1.153,0.806-0.357,0.979c0.392,0.084,1.585,1.149,1.132,1.587
			c-0.179,0.172-0.023,0.069-0.065,0.042c-0.131-0.082-0.214-0.235-0.272-0.373c-0.167-0.394-0.133-0.887,0.184-1.192
			C254.616,134.182,253.655,133.687,253.179,134.147L253.179,134.147z"/>
	</g>
	<g>
		<path fill="#36A9E1" d="M253.498,141.091c-0.273,0.588-0.522,1.281-0.234,1.914c0.221,0.485,0.608,0.909,1.176,0.753
			c0.385-0.105,0.566-0.506,0.569-0.873c0.006-0.713-0.603-1.337-1.175-1.668c-0.609-0.353-0.295,0.788,0.041,0.982
			c0.146,0.084,0.289,0.17,0.408,0.289c-0.045-0.046-0.073-0.14-0.067-0.201c-0.014,0.152-0.142,0.268-0.291,0.34
			c-0.065,0.032-0.118,0.039-0.192,0.038c-0.093-0.001,0.03,0.02-0.055-0.012c0.108,0.04,0.229,0.304,0.239,0.325
			c0.057,0.125,0.02-0.076,0.035-0.171c0.044-0.256,0.15-0.498,0.259-0.732C254.387,141.695,253.669,140.721,253.498,141.091
			L253.498,141.091z"/>
	</g>
	<g>
		<path fill="#36A9E1" d="M261.817,134.228c-1.067,0.021-2.065,0.103-2.883,0.849c-0.797,0.728-1.112,2.1-1.567,3.037
			c-0.222,0.456,0.225,0.952,0.677,0.929c1.333-0.071,2.578-0.73,3.926-0.621c0.744,0.061,1.263,1.002,1.028,1.653
			c-0.152,0.424-0.652,0.657-1.026,0.836c-1.563,0.744-3.593,0.701-5.287,0.702c-0.752,0-0.549,1.191,0.096,1.191
			c1.981-0.001,6.018,0.218,7.117-1.889c0.531-1.018,0.093-2.608-0.89-3.23c-1.707-1.082-3.527,0.082-5.333,0.178
			c0.226,0.31,0.451,0.619,0.677,0.929c0.378-0.778,0.682-1.593,1.086-2.358c0.488-0.926,1.543-0.995,2.476-1.014
			C262.665,135.405,262.46,134.215,261.817,134.228L261.817,134.228z"/>
	</g>
	<g>
		<path fill="#36A9E1" d="M264.941,135.55c-0.029,1.991-0.715,5.167,1.816,5.999c2.438,0.803,3.717-1.979,3.573-3.992
			c-0.119-1.663-0.983-3.579-2.557-4.34c-1.906-0.922-2.771,1.19-2.959,2.708c-0.083,0.669,1.012,1.086,1.109,0.299
			c0.098-0.785,0.434-2.48,1.59-1.922c1.027,0.497,1.535,1.848,1.687,2.895c0.188,1.294-0.436,3.632-2.158,3.271
			c-1.742-0.364-1.009-3.412-0.992-4.619C266.06,135.185,264.952,134.76,264.941,135.55L264.941,135.55z"/>
	</g>
</g>
</svg>
