<?xml version="1.0" encoding="utf-8"?>
<!-- Generator: Adobe Illustrator 16.0.0, SVG Export Plug-In . SVG Version: 6.00 Build 0)  -->
<!DOCTYPE svg PUBLIC "-//W3C//DTD SVG 1.1//EN" "http://www.w3.org/Graphics/SVG/1.1/DTD/svg11.dtd">
<svg version="1.1" id="Capa_1" xmlns="http://www.w3.org/2000/svg" xmlns:xlink="http://www.w3.org/1999/xlink" x="0px" y="0px"
	 width="228.405px" height="220.034px" viewBox="0 0 228.405 220.034" enable-background="new 0 0 228.405 220.034"
	 xml:space="preserve">
<g>
	<g>
		<path fill="#878787" d="M221.198,117.75c-0.404-0.667-0.8-1.342-1.196-2.017c0.174-0.289,0.229-0.642,0.066-1.047
			c-0.081-0.201-0.176-0.389-0.262-0.584c-0.007-0.14-0.041-0.286-0.115-0.437c-0.24-0.49-0.5-0.947-0.767-1.389
			c-1.498-2.802-3.418-5.146-5.502-7.165c-0.741-1.875-1.377-3.822-1.948-5.817c1.699,2.144,3.299,4.437,4.939,6.678
			c0.568,0.777,3.094,0.085,2.627-1.244c-1.688-4.808-3.536-9.507-5.308-14.256c1.348,2.366,2.615,4.817,3.812,7.329
			c0.546,1.148,3.169-0.079,2.525-1.501c-2.469-5.446-4.521-11.184-6.38-17.042c0.507,0.762,1.031,1.505,1.595,2.2
			c0.595,0.736,2.966,0.244,2.627-1.245c-1.89-8.306-4.128-16.452-6.22-24.666c1.076,2.159,2.121,4.352,3.215,6.503
			c0.531,1.043,2.821,0.119,2.627-1.245c-0.647-4.568-1.737-8.952-2.862-13.322c0.562,1.127,1.136,2.244,1.743,3.332
			c0.545,0.978,2.876,0.136,2.627-1.246c-1.337-7.431-4.334-13.863-7.13-20.414c1.649,1.876,3.134,4.025,4.503,6.337
			c0.631,1.068,3.23-0.148,2.525-1.501c-1.869-3.586-3.831-7.098-5.407-10.917c1.63,1.357,3.253,2.732,4.952,3.933
			c0.624,0.44,3.211-0.489,2.339-1.699c-4.17-5.784-7.519-12.576-12.059-17.876c-0.571-0.667-3.092-0.179-2.628,1.246
			c1.111,3.406,2.905,6.175,4.441,9.184c-0.072,0.012-0.144,0.027-0.218,0.045c-3.231-2-6.206-4.741-9.318-7.096
			c-0.636-0.481-3.148,0.397-2.339,1.699c0.356,0.573,0.728,1.126,1.105,1.672c-2.087-1.659-4.119-3.481-6.302-4.903
			c-0.601-0.39-2.764,0.008-2.442,1.442c0.095,0.422,0.209,0.818,0.328,1.212c-0.049-0.032-0.097-0.068-0.146-0.099
			c-0.29-0.179-0.754-0.114-1.204,0.077c-4.206-2.873-8.339-5.94-12.739-8.249c-0.564-0.296-3.306,0.542-2.339,1.699
			c2.665,3.19,5.383,6.293,7.746,9.869c-3.646-1.82-7.077-4.505-10.683-6.46c-0.574-0.31-3.303,0.575-2.339,1.699
			c0.9,1.049,1.833,2.036,2.783,2.994c-5.526-3.81-10.992-7.788-16.903-10.442c-0.522-0.234-2.978,0.837-2.084,1.831
			c0.813,0.903,1.636,1.787,2.459,2.672c-2.009-0.99-4.018-1.98-6.028-2.97c-0.721-0.355-3.074,1.004-1.898,2.027
			c3.728,3.24,7.563,6.251,11.331,9.401c-4.548-3.125-8.957-6.721-13.699-9.254c-0.764-0.408-3.431,0.803-2.153,1.896
			c3.154,2.697,6.362,5.258,9.407,8.16c-6.872-2.232-13.185-7.444-19.945-10.188c-0.701-0.286-3.088,0.945-1.897,2.027
			c3.201,2.907,6.869,4.781,10.062,7.679c-4.375-0.269-8.676-1.84-12.933-3.544c1.019-0.35,2.34-1.561,1-2.077
			c-5.422-2.088-10.878-4.016-16.512-4.659c-0.536-0.061-2.457,0.729-1.776,1.892c1.73,2.959,3.848,5.33,6.047,7.584
			c-3.835-0.907-7.584-2.424-11.319-3.976c-1.872-1.039-3.802-1.878-5.833-2.374c-0.217-0.053-0.526,0.013-0.844,0.151
			c-4.056-2.135-8.096-4.32-12.091-6.659c-0.821-0.481-3.409,0.987-2.153,1.896c3.099,2.241,6.316,4.158,9.432,6.342
			c-0.04-0.023-0.08-0.044-0.12-0.067c-0.823-0.47-3.412,1.015-2.153,1.896c0.546,0.382,1.088,0.674,1.631,0.896
			c4.226,2.259,8.723,4.232,12.554,7.554c-5.757-1.221-11.396-3.598-16.898-6.494c-4.892-3.424-10.097-5.881-15.106-8.959
			c-0.879-0.54-3.371,1.131-2.153,1.896c2.748,1.725,5.539,3.468,8.366,5.148c-0.999-0.232-2-0.44-3.008-0.598
			c-0.363-0.058-0.962,0.245-1.389,0.655c-2.941-1.268-5.876-2.568-8.855-3.658c-0.925-0.339-3.238,1.388-1.643,2.159
			c1,0.483,1.968,1.039,2.918,1.645c-4.894-0.717-9.719-2.774-14.464-4.314c-0.556-0.181-1.636,0.394-2.038,1.03
			c-2.34-1.183-4.67-2.409-7.006-3.583C44,5.691,41.687,7.41,42.877,8.109c4.872,2.859,9.82,6.044,14.074,10.429
			c-4.871-0.562-9.662-2.021-14.364-3.902c0.885-0.407,1.857-1.216,0.935-1.783c-5.141-3.155-10.493-5.6-16.082-6.771
			c-0.727-0.153-2.619,1.026-2.122,1.802c-1.399-0.325-2.803-0.623-4.215-0.842c-0.308-0.048-1.114,0.355-1.587,0.853
			C16.222,6.602,12.873,5.618,9.42,5.509C8.673,5.485,6.486,7.108,8.086,7.73c1.47,0.572,2.938,1.153,4.406,1.736
			c2.036,2.066,4.2,3.897,6.118,6.136c-4.83-1.799-9.391-4.873-14.156-6.967c-0.521-0.229-2.969,0.792-2.084,1.83
			c2.307,2.708,4.802,5.099,7.173,7.692c-2.188-1.008-4.345-2.189-6.596-2.882c-0.576-0.178-2.829,0.504-2.084,1.83
			c1.025,1.824,2.207,3.408,3.428,4.945c-0.915,0.322-1.799,1.18-0.98,1.892c0.499,0.433,0.987,0.766,1.483,1.04
			c1.399,1,2.774,2.053,4.101,3.21c-0.896,0.278-1.856,1.01-1.248,1.681c2.139,2.365,4.306,4.701,6.388,7.158
			c-0.591-0.413-1.185-0.816-1.789-1.196c-0.674-0.423-3.032,0.205-2.338,1.699c1.834,3.952,4.207,7.324,6.341,10.958
			c-4.051-1.672-7.731-4.956-11.794-6.66c-0.566-0.237-2.858,0.591-2.084,1.83c1.675,2.681,3.567,5.045,5.506,7.346
			c-1.038,0.058-2.527,1.25-1.551,2.045c3.167,2.578,6.527,5.255,9.116,8.898c-2.896-1.643-5.756-3.402-8.725-4.797
			c-0.561-0.263-2.879,0.645-2.084,1.83c1.459,2.176,3.025,4.223,4.532,6.336c-1.015-0.07-2.713,0.998-1.708,2.033
			c2.011,2.071,3.887,4.287,5.496,6.843c-1.113-0.7-2.22-1.426-3.343-2.101c-0.601-0.359-3.203,0.365-2.338,1.699
			c2.338,3.615,4.631,7.436,6.445,11.605c-3.998-2.621-7.501-6.518-11.267-9.729c-0.694-0.592-2.965,0.266-2.338,1.698
			c3.057,6.991,7.897,11.875,12.188,17.423c-0.647-0.393-1.291-0.81-1.937-1.246c-0.622-0.42-3.247,0.583-2.339,1.699
			c3.326,4.089,6.847,8.507,9.271,13.748c-3.173-1.506-6.188-3.635-9.448-4.853c-0.534-0.199-2.909,0.622-2.084,1.83
			c3.809,5.583,7.839,10.875,11.109,17.058c-3.094-0.469-6.208-2.75-9.025-4.078c-0.541-0.255-2.922,0.713-2.084,1.831
			c3.345,4.463,6.979,8.519,10.12,13.237c-0.771-0.354-1.523-0.772-2.258-1.252c-0.834-0.65-1.671-1.296-2.509-1.937
			c-0.817-0.625-3.344,0.811-2.152,1.896c0.818,0.745,1.662,1.385,2.526,1.949c4.135,3.22,8.198,6.617,11.932,10.628
			c-2.962-1.275-5.8-3.271-8.792-4.39c-0.687-0.258-3.109,0.961-1.897,2.028c1.756,1.546,3.572,2.952,5.366,4.405
			c-0.908-0.42-1.811-0.868-2.715-1.326c-0.726-0.369-3.06,0.977-1.897,2.028c1.13,1.021,2.261,2.042,3.391,3.063
			c0.493,0.445,1.585,0.051,2.131-0.562c1.457,0.544,2.935,0.989,4.462,1.266c0.679,0.123,2.642-1.018,1.589-2.09
			c-0.603-0.614-1.222-1.191-1.847-1.756c0.488,0.172,0.982,0.317,1.481,0.44c3.931,2.157,7.701,4.756,11.483,7.345
			c-2.279-0.204-4.557-0.465-6.83-0.803c-1.658-0.248-1.854,1.409-0.175,1.659c8.495,1.265,17.035,1.57,25.574,1.302
			c0.519,0.187,1.044,0.347,1.577,0.48c0.307,0.077,1.11-0.199,1.672-0.609c6.763-0.323,13.521-0.974,20.253-1.772
			c1.167,0.949,2.389,1.769,3.7,2.381c0.715,0.335,3.104-1.085,1.897-2.028c-0.54-0.422-1.091-0.816-1.639-1.218
			c0.071-0.394-0.351-0.914-0.865-1.115c-0.489-0.191-0.98-0.375-1.471-0.553c-0.421-0.29-0.839-0.586-1.261-0.873
			c-0.552-0.539-1.091-1.106-1.619-1.697c1.175,0.788,2.363,1.544,3.573,2.245c0.604,0.351,3.18-0.312,2.339-1.698
			c-0.445-0.734-0.903-1.452-1.364-2.167c0.809,0.595,1.614,1.202,2.417,1.822c0.105,0.081,0.245,0.13,0.401,0.156
			c5.191,4.609,10.752,9.434,17.12,9.23c0.401-0.013,2.607-0.805,1.776-1.892c-0.451-0.59-0.916-1.153-1.386-1.705
			c0.734,0.052,1.473,0.06,2.218,0.006c0.31-0.022,0.874-0.319,1.229-0.725c2.621,2.325,5.503,4.115,8.291,5.274
			c0.708,0.296,3.133-1.189,1.897-2.028c-2.788-1.891-5.795-4.074-8.92-5.967c-1.122-1.095-2.176-2.302-3.139-3.604
			c1.957,1.451,4.014,2.671,6.038,3.746c4.287,2.278,9.177,4.172,13.822,3.304c0.306-0.057,1.476-0.791,1.595-1.445
			c1.745,0.113,3.481,0.091,5.188-0.086c0.091-0.01,0.245-0.077,0.421-0.179c0.702,0.078,1.403,0.159,2.106,0.227
			c2.475,0.888,4.936,1.857,7.37,2.968c0.948,0.434,3.21-1.404,1.643-2.159c-0.132-0.063-0.262-0.134-0.393-0.199
			c5.427,0.254,10.856,0.275,16.286,0.151c3.195,2.423,6.487,4.601,9.973,6.293c0.545,0.264,2.917-0.716,2.084-1.831
			c-1.184-1.584-2.457-3.174-3.792-4.748c0.646-0.028,1.291-0.057,1.936-0.088c0.968,0.653,1.935,1.306,2.909,1.938
			c0.417,0.27,1.31,0.04,1.903-0.394c0.371,0.301,0.741,0.604,1.112,0.905c0.833,0.677,3.339-0.878,2.153-1.896
			c-0.363-0.31-0.727-0.62-1.09-0.929c0.576-0.035,1.15-0.068,1.726-0.103c2.917,2.281,5.882,4.449,8.893,6.504
			c0.634,0.432,2.341-0.314,2.461-1.179c0.811,0.566,1.623,1.135,2.438,1.69c0.643,0.436,3.253-0.686,2.338-1.699
			c-2.583-2.868-5.328-5.437-8.101-7.949c1.121-0.035,2.238-0.076,3.358-0.131c0.857-0.043,1.083-0.398,0.96-0.778
			c1.873,1.322,3.732,2.652,5.589,3.917c0.366,0.251,1.03,0.1,1.579-0.221c4.369,4.36,8.983,8.257,13.872,11.458
			c0.798,0.521,3.374-0.774,2.153-1.897c-4.461-4.1-8.955-8.223-13.547-12.124c0.865,0.476,1.731,0.942,2.605,1.383
			c0.071,0.036,0.174,0.047,0.297,0.039c1.06,0.822,2.127,1.627,3.215,2.382c0.231,0.162,0.71,0.117,1.19-0.049
			c1.232,0.879,2.467,1.752,3.71,2.604c0.626,0.429,3.155-0.356,2.339-1.699c-1.211-1.992-2.521-3.845-3.882-5.627
			c0.513,0.402,1.026,0.802,1.543,1.197c0.638,0.487,3.205-0.547,2.339-1.698c-1.573-2.09-3.225-4.064-4.841-6.087
			c0.91,0.46,1.827,0.894,2.757,1.279c0.531,0.218,2.925-0.673,2.084-1.831c-0.765-1.054-1.509-2.134-2.244-3.225
			c2.213,1.682,4.426,3.364,6.688,4.923c0.549,0.378,2.86-0.064,2.442-1.442c-0.376-1.233-0.825-2.403-1.313-3.537
			c0.805-0.21,1.605-0.902,1.209-1.826c-0.555-1.302-1.156-2.561-1.779-3.8c0.507,0.572,1.017,1.141,1.516,1.726
			c0.568,0.666,3.12,0.143,2.627-1.245c-1.709-4.815-3.963-9.169-6.143-13.592c0.349,0.258,0.7,0.508,1.063,0.733
			c0.593,0.369,2.775,0.001,2.441-1.442c-0.389-1.687-0.827-3.349-1.263-5.01c0.551,0.719,1.104,1.438,1.651,2.169
			C219.37,120.182,221.977,119.036,221.198,117.75z M30.998,146.302c-0.656-0.141-1.315-0.258-1.981-0.342
			c-0.032-0.004-0.069-0.002-0.109,0.001c-0.58-0.495-1.152-1.007-1.72-1.529c1.243,0.309,2.474,0.685,3.692,1.126
			C30.781,145.784,30.797,146.034,30.998,146.302z M63.782,144.907c0.513,0.505,1.033,0.989,1.561,1.459
			c-1.46-0.524-2.936-0.976-4.419-1.363c-1.069-0.503-2.147-0.968-3.229-1.415c0.352-0.023,0.704-0.047,1.056-0.071
			C60.435,143.927,62.113,144.395,63.782,144.907z M37.363,144.131c0.412-0.1,0.825-0.188,1.238-0.264
			c0.479,0.023,0.958,0.047,1.438,0.066c0.62,0.543,1.246,1.075,1.875,1.599C40.397,145.062,38.88,144.592,37.363,144.131z
			 M50.995,143.92c1.027,0.303,2.044,0.649,3.041,1.021c-0.272,0.369-0.327,0.765,0.145,1.063c-1.376-0.666-2.741-1.355-4.1-2.053
			C50.386,143.943,50.69,143.932,50.995,143.92z M43.005,151.087c-0.321-0.16-0.643-0.319-0.964-0.478
			c0.259-0.103,0.532-0.251,0.773-0.426c0.747,0.338,1.489,0.699,2.226,1.082c0.027,0.026,0.055,0.052,0.083,0.078
			C44.417,151.262,43.71,151.177,43.005,151.087z M56.533,151.522c0.883,0.222,1.768,0.433,2.653,0.635
			c-0.445,0.033-0.89,0.067-1.335,0.103C57.412,152.01,56.974,151.762,56.533,151.522z M47.115,153.201
			c0.021,0.018,0.04,0.036,0.061,0.053c-0.563,0.051-1.127,0.096-1.69,0.143c0.086-0.116,0.15-0.237,0.184-0.358
			C46.151,153.094,46.633,153.147,47.115,153.201z M65.52,153.933c-0.488-0.095-0.979-0.177-1.468-0.263
			c0.903-0.035,1.807-0.068,2.712-0.076c2.156,0.546,4.328,0.94,6.512,1.138c-2.202,0.243-4.407,0.465-6.613,0.662
			C67.089,154.958,66.162,154.056,65.52,153.933z M39.845,156.026c0.088-0.11,0.153-0.227,0.189-0.347
			c3.604,0.075,7.209,0.224,10.813,0.314c0.146,0.091,0.293,0.179,0.439,0.267C47.471,156.324,43.655,156.255,39.845,156.026z
			 M51.023,148.303c-0.5-0.144-0.999-0.292-1.499-0.439c-1.633-1.153-3.238-2.385-4.814-3.683c2.762,1.447,5.56,2.896,8.387,4.242
			C52.406,148.38,51.715,148.339,51.023,148.303z M66.993,142.875c0.595-0.051,1.188-0.103,1.783-0.156
			c-0.329,0.149-0.63,0.354-0.819,0.588C67.636,143.162,67.314,143.019,66.993,142.875z M84.476,147.554
			c-0.146-0.02-0.293-0.044-0.441-0.062c-0.054-0.005-0.122,0-0.196,0.012c-1.955-1.444-3.939-2.792-6.023-3.904
			c-0.593-0.316-3.192,0.293-2.339,1.699c0.43,0.708,0.871,1.403,1.316,2.092c-2.183-1.557-4.337-3.194-6.504-4.805
			c0.599-0.053,1.196-0.106,1.794-0.16c2.61-0.234,5.231-0.4,7.857-0.542c-0.18,0.264-0.208,0.559,0.059,0.861
			c1.492,1.679,3.059,3.295,4.688,4.806C84.632,147.542,84.563,147.542,84.476,147.554z M100.91,141.92
			c0.04,0.036,0.081,0.071,0.12,0.107c-0.642-0.06-1.283-0.113-1.922-0.152c-0.208-0.014-0.764,0.155-1.229,0.445
			c-1.832-0.281-3.659-0.631-5.48-1.058c2.852-0.166,5.7-0.378,8.539-0.676C100.542,140.964,100.389,141.445,100.91,141.92z
			 M86.932,139.742c-0.085-0.027-0.17-0.05-0.255-0.078c5.622-1.267,11.347-1.446,17.058-1.28
			C98.166,139.153,92.548,139.473,86.932,139.742z M89.923,152.376c1.414,0.704,2.811,1.482,4.204,2.313
			c0.15,0.089,0.364,0.114,0.604,0.087c0.684,0.365,1.379,0.681,2.083,0.958c0.643,0.625,1.272,1.276,1.887,1.955
			C95.603,156.757,92.694,154.698,89.923,152.376z M99.334,149.925c-4.835-3.484-10.019-6.175-15.252-8.247
			c1.005-0.047,2.01-0.094,3.016-0.141c3.431,1.06,6.885,1.843,10.356,2.386c0.159,0.21,0.323,0.414,0.484,0.62
			c-0.311,0.304-0.461,0.724-0.229,1.265c0.666,1.556,1.474,3.019,2.382,4.391C99.838,150.104,99.586,150.013,99.334,149.925z
			 M115.137,144.875c1.484-0.052,2.97-0.134,4.457-0.24c1.651,1.565,3.349,3.021,5.088,4.38c-2.825-1.482-5.736-2.731-8.695-3.751
			C115.704,145.13,115.42,145.006,115.137,144.875z M133.252,138.56c2.348,0.079,4.675,0.613,6.957,1.458
			c-0.012,0.011-0.022,0.024-0.034,0.036c-1.154,0.212-2.309,0.417-3.463,0.618C135.565,139.947,134.413,139.238,133.252,138.56z
			 M130.286,141.702c-2.167-1.5-4.279-3.143-6.317-4.917c1.152,0.51,2.295,1.056,3.429,1.64c0.043,0.142,0.125,0.284,0.267,0.432
			c0.967,0.997,1.972,1.919,3,2.789C130.538,141.665,130.412,141.683,130.286,141.702z M140.594,141.832
			c0.867,0.728,1.729,1.469,2.589,2.214c-0.367,0.052-0.735,0.103-1.103,0.155c-1.036-0.702-2.075-1.398-3.12-2.083
			C139.505,142.024,140.05,141.93,140.594,141.832z M165.645,137.074c1.617,0.345,3.237,0.653,4.861,0.928
			c-3.382-0.047-6.765-0.042-10.148,0.042C162.125,137.709,163.887,137.385,165.645,137.074z M176.669,149.45
			c-1.158-0.779-2.322-1.533-3.492-2.275c0.279-0.073,0.557-0.155,0.836-0.226C174.893,147.795,175.776,148.63,176.669,149.45z
			 M129.952,149.429c1.769,1.043,3.573,2.007,5.401,2.849c-0.268,0.037-0.537,0.082-0.806,0.122
			C132.995,151.464,131.458,150.486,129.952,149.429z M145.432,146.003c0.84,0.739,1.681,1.479,2.521,2.218
			c-1.084-0.743-2.172-1.492-3.262-2.24C144.938,145.988,145.186,145.996,145.432,146.003z M149.345,150.518
			c0.237-0.225,0.397-0.476,0.407-0.719c0.48,0.417,0.962,0.831,1.444,1.245c-0.645,0.018-1.29,0.042-1.934,0.065
			C149.399,150.907,149.45,150.703,149.345,150.518z M169.371,150.83c-0.322-0.286-0.644-0.568-0.963-0.859
			c0.557,0.294,1.11,0.604,1.663,0.912C169.837,150.867,169.604,150.851,169.371,150.83z M174.246,143.17
			c0.598,0.243,1.191,0.508,1.782,0.784c-0.308,0.025-0.618,0.046-0.926,0.068C174.817,143.737,174.528,143.46,174.246,143.17z
			 M188.406,142.369c-1.054,0.143-2.108,0.292-3.16,0.45c-0.738-0.499-1.479-0.988-2.225-1.465c1.723,0.213,3.442,0.48,5.154,0.813
			C188.252,142.235,188.329,142.302,188.406,142.369z M169.709,142.508c0.535,0.594,1.074,1.178,1.621,1.749
			c-0.939,0.048-1.878,0.088-2.817,0.122c-0.463-0.262-0.923-0.527-1.388-0.779c-0.531-0.287-1.978,0.174-2.372,0.883
			c-0.66,0.013-1.32,0.02-1.98,0.026c-0.016-0.006-0.033-0.014-0.048-0.019c-0.1-0.039-0.283-0.025-0.501,0.025
			c-0.548,0.004-1.095,0.01-1.643,0.011c-0.388-0.273-0.777-0.541-1.167-0.806C162.843,143.282,166.276,142.874,169.709,142.508z
			 M141.505,151.583c-0.305,0.027-0.611,0.051-0.916,0.081c-2.561-0.904-5.096-2.14-7.562-3.554
			C135.872,149.186,138.698,150.343,141.505,151.583z M171.778,152.937c-0.057-0.05-0.113-0.098-0.169-0.146
			c0.552,0.003,1.105,0.01,1.657,0.014c0.092,0.076,0.185,0.147,0.277,0.223C172.955,152.996,172.367,152.963,171.778,152.937z
			 M193.423,141.722c-0.418-0.115-0.837-0.221-1.256-0.326c-0.19-0.157-0.381-0.31-0.572-0.465c2.005-0.062,4.011-0.102,6.018-0.108
			c0.115,0,0.217-0.006,0.31-0.017c0.718,0.035,1.435,0.068,2.152,0.103C197.859,141.182,195.641,141.447,193.423,141.722z
			 M160.306,139.802c2.724,0.234,5.458,0.379,8.194,0.515c-0.114,0.153-0.174,0.321-0.146,0.501
			c-3.771,0.403-7.539,0.856-11.306,1.341c-1.451-0.926-2.92-1.801-4.408-2.62c2.068-0.406,4.131-0.809,6.189-1.203
			C158.426,138.808,159.391,139.722,160.306,139.802z M149.521,140.899c0.339,0.342,0.682,0.673,1.026,1.003
			c-0.035-0.004-0.075-0.003-0.116-0.003c-0.791-0.516-1.591-1.003-2.395-1.462c0.387-0.074,0.772-0.148,1.159-0.225
			C149.19,140.428,149.285,140.66,149.521,140.899z M151.322,154.551c0.036-0.05,0.068-0.099,0.098-0.15
			c1.254-0.016,2.509-0.029,3.762-0.035c0.057,0.044,0.112,0.09,0.168,0.135C154.008,154.528,152.665,154.546,151.322,154.551z
			 M187.24,150.826c-1.581,0.006-3.167,0.047-4.756,0.093c-1.736-1.561-3.468-3.126-5.173-4.742
			c0.721-0.158,1.443-0.304,2.165-0.447c2.696,1.521,5.332,3.29,7.938,5.109C187.356,150.832,187.298,150.826,187.24,150.826z
			 M190.987,146.022c-0.176-0.074-0.576-0.006-0.992,0.156c-0.778-0.581-1.562-1.14-2.348-1.699
			c0.888-0.138,1.777-0.288,2.664-0.447c1.347,1.177,2.688,2.361,4.011,3.586C193.222,147.046,192.113,146.502,190.987,146.022z
			 M204.013,152.019c-3.029-3.072-6.18-5.893-9.392-8.592c2.196-0.27,4.393-0.532,6.587-0.801c0.455,0.65,0.916,1.292,1.388,1.917
			c-0.513-0.327-1.031-0.645-1.556-0.943c-0.583-0.332-3.287,0.551-2.339,1.699c1.95,2.361,3.933,4.672,5.836,7.091
			C204.362,152.266,204.187,152.143,204.013,152.019z M214.895,129.639c-1.096-1.143-2.197-2.278-3.303-3.404
			c-0.659-0.67-3.014,0.356-2.339,1.699c0.91,1.811,1.871,3.572,2.826,5.338c-0.888,0.171-1.796,0.919-1.319,1.812
			c1.158,2.161,2.368,4.26,3.418,6.497c-2.989-2.242-5.947-4.563-8.992-6.663c-0.627-0.432-3.161,0.368-2.339,1.699
			c0.575,0.931,1.155,1.857,1.738,2.775c-2.843-0.119-5.688-0.254-8.532-0.396c-2.549-0.214-5.1-0.415-7.649-0.625
			c-0.812-0.643-1.624-1.282-2.437-1.921c-0.721-0.566-2.753,0.503-2.429,1.495c-4.402-0.412-8.797-0.917-13.174-1.662
			c0.154-0.023,0.308-0.05,0.46-0.074c1.708-0.268-0.069-1.725-0.918-1.725h-8.291c-1.374,0-1.155,0.959-0.354,1.462
			c-5.241,0.981-10.534,2.075-15.854,3.114c-5.139-2.446-10.462-3.533-15.675-2.454c-3.489-1.831-7.05-3.361-10.72-4.373
			c-0.681-0.188-3.086,0.82-1.898,2.028c2.741,2.787,5.654,5.368,8.697,7.673c-0.968-0.062-1.939-0.084-2.915-0.044
			c-1.043-0.329-2.085-0.658-3.13-0.974c-0.691-0.21-3.076,0.828-1.898,2.028c0.031,0.031,0.063,0.059,0.093,0.09
			c-2.142,0.138-4.281,0.217-6.416,0.232c-2.553-1.104-5.126-2.117-7.727-3.015c2.88-0.37,5.748-0.845,8.597-1.488
			c1.717-0.388-0.089-1.679-0.918-1.726c-9.633-0.54-19.406-1.038-28.903,1.626c-0.833,0.234-0.37,0.909,0.102,1.28
			c-3.603,0.172-7.2,0.363-10.776,0.68c-3.61,0.318-7.22,0.641-10.831,0.917c-6.123-1.567-12.333-2.386-18.476-1.183
			c-0.191,0.038-0.78,0.387-1.191,0.808c-0.355,0.09-0.709,0.191-1.063,0.309c-0.105,0.035-0.234,0.1-0.366,0.189
			c-2.795-0.026-5.59-0.03-8.385-0.03c-1.39,0-1.123,0.81-0.421,1.33c-2.438-0.792-4.92-1.348-7.445-1.599
			c-0.033-0.004-0.083,0.004-0.14,0.014c-1.411-1.389-2.855-2.714-4.327-3.986c0.712-0.275,1.54-0.946,1.071-1.766
			c-2.447-4.277-5.374-7.906-8.298-11.548c2.238,1.007,4.529,1.664,6.869,1.169c0.55-0.117,1.962-0.787,1.43-1.879
			c-2.601-5.329-5.808-9.944-9.036-14.549c2.513,1.417,5.008,2.891,7.705,3.612c0.463,0.124,2.637-0.32,2.187-1.574
			c-1.627-4.525-4.046-8.438-6.683-12.028c0.363,0.122,0.73,0.232,1.105,0.323c0.51,0.125,2.916-0.55,2.083-1.831
			c-3.099-4.767-6.886-8.714-10.198-13.216c2.532,2.206,5.158,4.166,8.115,5.342c0.487,0.194,2.609-0.355,2.187-1.573
			c-1.309-3.771-3.03-7.249-4.925-10.539c0.897,0.511,1.805,0.987,2.739,1.387c0.678,0.29,2.675-0.473,2.083-1.831
			c-0.633-1.453-1.357-2.782-2.14-4.037c0.56-0.332,0.951-0.901,0.633-1.581c-1.574-3.366-3.594-6.213-5.646-9.026
			c2.55,1.469,5.086,2.985,7.708,4.216c0.68,0.32,2.671-0.489,2.085-1.83c-1.075-2.456-2.501-4.537-4.104-6.383
			c0.467-0.317,0.723-0.764,0.334-1.277c-2.611-3.462-5.487-6.528-8.156-9.891c3.252,2.042,6.46,4.141,10.149,4.633
			c0.588,0.078,2.389-0.695,1.776-1.893c-1.479-2.885-3.208-5.496-4.853-8.196c1.593,1.251,3.17,2.538,4.774,3.766
			c0.638,0.487,3.146-0.4,2.339-1.699c-2.796-4.5-6.087-8.311-9.438-12.02c0.87-0.223,2.261-0.948,1.525-1.77
			c-1.551-1.733-3.195-3.249-4.901-4.638c0.226-0.279,0.284-0.611,0.002-0.981c-1.308-1.711-2.677-3.303-3.965-5.009
			c2.445,1.141,4.874,2.339,7.465,2.815c0.462,0.085,2.563-0.863,1.776-1.892c-1.617-2.112-3.375-3.985-5.15-5.833
			c3.786,1.995,7.581,3.897,11.665,4.662c0.533,0.099,2.464-0.768,1.775-1.893c-1.179-1.925-2.559-3.496-4.006-4.958
			c4.383,1.712,8.78,3.354,13.228,4.745c0.678,0.212,3.174-1.302,1.898-2.027c-2.145-1.219-4.276-2.474-6.401-3.75
			c0.831,0.232,1.662,0.473,2.491,0.717c0.073,0.17,0.229,0.329,0.505,0.464c9.18,4.501,18.722,8.587,28.57,8.744
			c0.385,0.006,2.635-0.868,1.776-1.892c-1.141-1.359-2.345-2.609-3.59-3.779c2.594,1.061,5.223,1.953,7.913,2.545
			c0.623,0.137,3.162-0.897,1.898-2.027c-0.333-0.298-0.673-0.577-1.015-0.847c1.917,0.32,3.848,0.476,5.801,0.368
			c0.274-0.015,0.837-0.321,1.209-0.728c4.347,1.88,8.699,3.726,13.209,4.766c0.611,0.141,3.224-1.254,1.898-2.028
			c-0.042-0.024-0.086-0.047-0.128-0.072c6.737,3.417,13.669,6.034,20.771,6.758c0.408,0.042,2.622-0.901,1.776-1.893
			c-3.419-4.002-7.595-6.372-11.796-8.576c0.297-0.173,0.618-0.422,0.818-0.702c3.759,1.954,7.525,3.887,11.277,5.87
			c0.696,0.368,2.853-0.656,2.44-1.558c2.111,0.595,4.243,1.041,6.412,1.241c0.65,0.059,2.671-0.999,1.59-2.089
			c-0.047-0.048-0.094-0.095-0.143-0.143c1.745,1.213,3.536,2.298,5.405,3.192c0.515,0.247,2.729-0.669,2.168-1.693
			c3.228,1.645,6.422,3.43,9.636,5.136c0.818,0.434,3.423-1.052,2.153-1.896c-1.695-1.125-3.419-2.145-5.162-3.104
			c2.651,0.585,5.333,0.857,8.064,0.583c0.365-0.037,2.181-1.023,1.429-1.878c-0.174-0.199-0.353-0.389-0.532-0.579
			c3.717,1.996,7.507,3.63,11.568,4.002c0.311,0.028,1.845-0.604,1.965-1.348c3.017,2.005,6.108,3.765,9.408,4.861
			c0.696,0.23,3.074-0.85,1.897-2.027c-3.469-3.474-7.129-6.545-10.816-9.564c0.586,0.289,1.172,0.578,1.759,0.867
			c0.543,0.268,2.925-0.736,2.083-1.831c-0.463-0.603-0.943-1.18-1.427-1.751c6.512,4.107,12.719,9.137,19.438,12.643
			c0.563,0.294,3.311-0.565,2.338-1.699c-1.008-1.177-2.063-2.272-3.133-3.34c1.681,0.906,3.4,1.659,5.194,2.106
			c0.579,0.144,2.819-0.465,2.084-1.831c-1.35-2.51-2.899-4.751-4.538-6.877c3.233,2.21,6.428,4.531,9.735,6.534
			c0.146,0.088,0.356,0.119,0.593,0.104c1.2,1.116,2.366,2.308,3.553,3.471c0.699,0.685,3.167-0.76,2.339-1.698
			c-1.182-1.338-2.305-2.669-3.238-4.195c2.656,2.158,5.287,4.345,8.314,5.516c0.513,0.198,2.479-0.453,2.211-1.525
			c1.066,0.769,2.151,1.48,3.268,2.103c0.391,1.221,0.822,2.41,1.294,3.566c-0.482-0.377-0.976-0.735-1.484-1.064
			c-0.509-0.33-2.945,0.107-2.441,1.441c1.37,3.629,2.952,7.133,4.454,10.685c-0.867-0.304-2.419,0.408-2.194,1.573
			c0.922,4.755,2.208,9.352,3.375,13.997c-1.041-1.933-2.146-3.798-3.385-5.538c-0.582-0.817-2.955-0.195-2.627,1.245
			c2.022,8.893,4.447,17.6,6.662,26.405c-0.794-1.274-1.613-2.517-2.527-3.646c-0.577-0.714-3.043-0.196-2.627,1.245
			c1.044,3.62,2.119,7.226,3.267,10.785c-0.456-0.616-0.918-1.222-1.393-1.815c-0.573-0.717-3.065-0.168-2.627,1.245
			c1.668,5.386,3.646,10.567,5.615,15.756c-1.011-1.205-2.058-2.356-3.174-3.408c-0.588-0.554-2.749,0.113-2.441,1.442
			c0.49,2.125,1.016,4.227,1.614,6.28c-0.646,0.316-1.121,0.931-0.758,1.637c0.472,0.919,0.943,1.839,1.42,2.749
			c0.016,0.102,0.041,0.207,0.087,0.316c0.847,1.98,1.846,3.767,2.931,5.454c0.552,2.726,1.267,5.378,1.965,8.042
			c-0.83-0.691-1.667-1.364-2.556-1.917c-0.688-0.427-3.006,0.186-2.339,1.699C211.273,122.47,213.147,126.002,214.895,129.639z"/>
		<g>
			<path fill="none" stroke="#878787" stroke-miterlimit="10" d="M221.198,117.75c-0.404-0.667-0.8-1.342-1.196-2.017
				c0.174-0.289,0.229-0.642,0.066-1.047c-0.081-0.201-0.176-0.389-0.262-0.584c-0.007-0.14-0.041-0.286-0.115-0.437
				c-0.24-0.49-0.5-0.947-0.767-1.389c-1.498-2.802-3.418-5.146-5.502-7.165c-0.741-1.875-1.377-3.822-1.948-5.817
				c1.699,2.144,3.299,4.437,4.939,6.678c0.568,0.777,3.094,0.085,2.627-1.244c-1.688-4.808-3.536-9.507-5.308-14.256
				c1.348,2.366,2.615,4.817,3.812,7.329c0.546,1.148,3.169-0.079,2.525-1.501c-2.469-5.446-4.521-11.184-6.38-17.042
				c0.507,0.762,1.031,1.505,1.595,2.2c0.595,0.736,2.966,0.244,2.627-1.245c-1.89-8.306-4.128-16.452-6.22-24.666
				c1.076,2.159,2.121,4.352,3.215,6.503c0.531,1.043,2.821,0.119,2.627-1.245c-0.647-4.568-1.737-8.952-2.862-13.322
				c0.562,1.127,1.136,2.244,1.743,3.332c0.545,0.978,2.876,0.136,2.627-1.246c-1.337-7.431-4.334-13.863-7.13-20.414
				c1.649,1.876,3.134,4.025,4.503,6.337c0.631,1.068,3.23-0.148,2.525-1.501c-1.869-3.586-3.831-7.098-5.407-10.917
				c1.63,1.357,3.253,2.732,4.952,3.933c0.624,0.44,3.211-0.489,2.339-1.699c-4.17-5.784-7.519-12.576-12.059-17.876
				c-0.571-0.667-3.092-0.179-2.628,1.246c1.111,3.406,2.905,6.175,4.441,9.184c-0.072,0.012-0.144,0.027-0.218,0.045
				c-3.231-2-6.206-4.741-9.318-7.096c-0.636-0.481-3.148,0.397-2.339,1.699c0.356,0.573,0.728,1.126,1.105,1.672
				c-2.087-1.659-4.119-3.481-6.302-4.903c-0.601-0.39-2.764,0.008-2.442,1.442c0.095,0.422,0.209,0.818,0.328,1.212
				c-0.049-0.032-0.097-0.068-0.146-0.099c-0.29-0.179-0.754-0.114-1.204,0.077c-4.206-2.873-8.339-5.94-12.739-8.249
				c-0.564-0.296-3.306,0.542-2.339,1.699c2.665,3.19,5.383,6.293,7.746,9.869c-3.646-1.82-7.077-4.505-10.683-6.46
				c-0.574-0.31-3.303,0.575-2.339,1.699c0.9,1.049,1.833,2.036,2.783,2.994c-5.526-3.81-10.992-7.788-16.903-10.442
				c-0.522-0.234-2.978,0.837-2.084,1.831c0.813,0.903,1.636,1.787,2.459,2.672c-2.009-0.99-4.018-1.98-6.028-2.97
				c-0.721-0.355-3.074,1.004-1.898,2.027c3.728,3.24,7.563,6.251,11.331,9.401c-4.548-3.125-8.957-6.721-13.699-9.254
				c-0.764-0.408-3.431,0.803-2.153,1.896c3.154,2.697,6.362,5.258,9.407,8.16c-6.872-2.232-13.185-7.444-19.945-10.188
				c-0.701-0.286-3.088,0.945-1.897,2.027c3.201,2.907,6.869,4.781,10.062,7.679c-4.375-0.269-8.676-1.84-12.933-3.544
				c1.019-0.35,2.34-1.561,1-2.077c-5.422-2.088-10.878-4.016-16.512-4.659c-0.536-0.061-2.457,0.729-1.776,1.892
				c1.73,2.959,3.848,5.33,6.047,7.584c-3.835-0.907-7.584-2.424-11.319-3.976c-1.872-1.039-3.802-1.878-5.833-2.374
				c-0.217-0.053-0.526,0.013-0.844,0.151c-4.056-2.135-8.096-4.32-12.091-6.659c-0.821-0.481-3.409,0.987-2.153,1.896
				c3.099,2.241,6.316,4.158,9.432,6.342c-0.04-0.023-0.08-0.044-0.12-0.067c-0.823-0.47-3.412,1.015-2.153,1.896
				c0.546,0.382,1.088,0.674,1.631,0.896c4.226,2.259,8.723,4.232,12.554,7.554c-5.757-1.221-11.396-3.598-16.898-6.494
				c-4.892-3.424-10.097-5.881-15.106-8.959c-0.879-0.54-3.371,1.131-2.153,1.896c2.748,1.725,5.539,3.468,8.366,5.148
				c-0.999-0.232-2-0.44-3.008-0.598c-0.363-0.058-0.962,0.245-1.389,0.655c-2.941-1.268-5.876-2.568-8.855-3.658
				c-0.925-0.339-3.238,1.388-1.643,2.159c1,0.483,1.968,1.039,2.918,1.645c-4.894-0.717-9.719-2.774-14.464-4.314
				c-0.556-0.181-1.636,0.394-2.038,1.03c-2.34-1.183-4.67-2.409-7.006-3.583C44,5.691,41.687,7.41,42.877,8.109
				c4.872,2.859,9.82,6.044,14.074,10.429c-4.871-0.562-9.662-2.021-14.364-3.902c0.885-0.407,1.857-1.216,0.935-1.783
				c-5.141-3.155-10.493-5.6-16.082-6.771c-0.727-0.153-2.619,1.026-2.122,1.802c-1.399-0.325-2.803-0.623-4.215-0.842
				c-0.308-0.048-1.114,0.355-1.587,0.853C16.222,6.602,12.873,5.618,9.42,5.509C8.673,5.485,6.486,7.108,8.086,7.73
				c1.47,0.572,2.938,1.153,4.406,1.736c2.036,2.066,4.2,3.897,6.118,6.136c-4.83-1.799-9.391-4.873-14.156-6.967
				c-0.521-0.229-2.969,0.792-2.084,1.83c2.307,2.708,4.802,5.099,7.173,7.692c-2.188-1.008-4.345-2.189-6.596-2.882
				c-0.576-0.178-2.829,0.504-2.084,1.83c1.025,1.824,2.207,3.408,3.428,4.945c-0.915,0.322-1.799,1.18-0.98,1.892
				c0.499,0.433,0.987,0.766,1.483,1.04c1.399,1,2.774,2.053,4.101,3.21c-0.896,0.278-1.856,1.01-1.248,1.681
				c2.139,2.365,4.306,4.701,6.388,7.158c-0.591-0.413-1.185-0.816-1.789-1.196c-0.674-0.423-3.032,0.205-2.338,1.699
				c1.834,3.952,4.207,7.324,6.341,10.958c-4.051-1.672-7.731-4.956-11.794-6.66c-0.566-0.237-2.858,0.591-2.084,1.83
				c1.675,2.681,3.567,5.045,5.506,7.346c-1.038,0.058-2.527,1.25-1.551,2.045c3.167,2.578,6.527,5.255,9.116,8.898
				c-2.896-1.643-5.756-3.402-8.725-4.797c-0.561-0.263-2.879,0.645-2.084,1.83c1.459,2.176,3.025,4.223,4.532,6.336
				c-1.015-0.07-2.713,0.998-1.708,2.033c2.011,2.071,3.887,4.287,5.496,6.843c-1.113-0.7-2.22-1.426-3.343-2.101
				c-0.601-0.359-3.203,0.365-2.338,1.699c2.338,3.615,4.631,7.436,6.445,11.605c-3.998-2.621-7.501-6.518-11.267-9.729
				c-0.694-0.592-2.965,0.266-2.338,1.698c3.057,6.991,7.897,11.875,12.188,17.423c-0.647-0.393-1.291-0.81-1.937-1.246
				c-0.622-0.42-3.247,0.583-2.339,1.699c3.326,4.089,6.847,8.507,9.271,13.748c-3.173-1.506-6.188-3.635-9.448-4.853
				c-0.534-0.199-2.909,0.622-2.084,1.83c3.809,5.583,7.839,10.875,11.109,17.058c-3.094-0.469-6.208-2.75-9.025-4.078
				c-0.541-0.255-2.922,0.713-2.084,1.831c3.345,4.463,6.979,8.519,10.12,13.237c-0.771-0.354-1.523-0.772-2.258-1.252
				c-0.834-0.65-1.671-1.296-2.509-1.937c-0.817-0.625-3.344,0.811-2.152,1.896c0.818,0.745,1.662,1.385,2.526,1.949
				c4.135,3.22,8.198,6.617,11.932,10.628c-2.962-1.275-5.8-3.271-8.792-4.39c-0.687-0.258-3.109,0.961-1.897,2.028
				c1.756,1.546,3.572,2.952,5.366,4.405c-0.908-0.42-1.811-0.868-2.715-1.326c-0.726-0.369-3.06,0.977-1.897,2.028
				c1.13,1.021,2.261,2.042,3.391,3.063c0.493,0.445,1.585,0.051,2.131-0.562c1.457,0.544,2.935,0.989,4.462,1.266
				c0.679,0.123,2.642-1.018,1.589-2.09c-0.603-0.614-1.222-1.191-1.847-1.756c0.488,0.172,0.982,0.317,1.481,0.44
				c3.931,2.157,7.701,4.756,11.483,7.345c-2.279-0.204-4.557-0.465-6.83-0.803c-1.658-0.248-1.854,1.409-0.175,1.659
				c8.495,1.265,17.035,1.57,25.574,1.302c0.519,0.187,1.044,0.347,1.577,0.48c0.307,0.077,1.11-0.199,1.672-0.609
				c6.763-0.323,13.521-0.974,20.253-1.772c1.167,0.949,2.389,1.769,3.7,2.381c0.715,0.335,3.104-1.085,1.897-2.028
				c-0.54-0.422-1.091-0.816-1.639-1.218c0.071-0.394-0.351-0.914-0.865-1.115c-0.489-0.191-0.98-0.375-1.471-0.553
				c-0.421-0.29-0.839-0.586-1.261-0.873c-0.552-0.539-1.091-1.106-1.619-1.697c1.175,0.788,2.363,1.544,3.573,2.245
				c0.604,0.351,3.18-0.312,2.339-1.698c-0.445-0.734-0.903-1.452-1.364-2.167c0.809,0.595,1.614,1.202,2.417,1.822
				c0.105,0.081,0.245,0.13,0.401,0.156c5.191,4.609,10.752,9.434,17.12,9.23c0.401-0.013,2.607-0.805,1.776-1.892
				c-0.451-0.59-0.916-1.153-1.386-1.705c0.734,0.052,1.473,0.06,2.218,0.006c0.31-0.022,0.874-0.319,1.229-0.725
				c2.621,2.325,5.503,4.115,8.291,5.274c0.708,0.296,3.133-1.189,1.897-2.028c-2.788-1.891-5.795-4.074-8.92-5.967
				c-1.122-1.095-2.176-2.302-3.139-3.604c1.957,1.451,4.014,2.671,6.038,3.746c4.287,2.278,9.177,4.172,13.822,3.304
				c0.306-0.057,1.476-0.791,1.595-1.445c1.745,0.113,3.481,0.091,5.188-0.086c0.091-0.01,0.245-0.077,0.421-0.179
				c0.702,0.078,1.403,0.159,2.106,0.227c2.475,0.888,4.936,1.857,7.37,2.968c0.948,0.434,3.21-1.404,1.643-2.159
				c-0.132-0.063-0.262-0.134-0.393-0.199c5.427,0.254,10.856,0.275,16.286,0.151c3.195,2.423,6.487,4.601,9.973,6.293
				c0.545,0.264,2.917-0.716,2.084-1.831c-1.184-1.584-2.457-3.174-3.792-4.748c0.646-0.028,1.291-0.057,1.936-0.088
				c0.968,0.653,1.935,1.306,2.909,1.938c0.417,0.27,1.31,0.04,1.903-0.394c0.371,0.301,0.741,0.604,1.112,0.905
				c0.833,0.677,3.339-0.878,2.153-1.896c-0.363-0.31-0.727-0.62-1.09-0.929c0.576-0.035,1.15-0.068,1.726-0.103
				c2.917,2.281,5.882,4.449,8.893,6.504c0.634,0.432,2.341-0.314,2.461-1.179c0.811,0.566,1.623,1.135,2.438,1.69
				c0.643,0.436,3.253-0.686,2.338-1.699c-2.583-2.868-5.328-5.437-8.101-7.949c1.121-0.035,2.238-0.076,3.358-0.131
				c0.857-0.043,1.083-0.398,0.96-0.778c1.873,1.322,3.732,2.652,5.589,3.917c0.366,0.251,1.03,0.1,1.579-0.221
				c4.369,4.36,8.983,8.257,13.872,11.458c0.798,0.521,3.374-0.774,2.153-1.897c-4.461-4.1-8.955-8.223-13.547-12.124
				c0.865,0.476,1.731,0.942,2.605,1.383c0.071,0.036,0.174,0.047,0.297,0.039c1.06,0.822,2.127,1.627,3.215,2.382
				c0.231,0.162,0.71,0.117,1.19-0.049c1.232,0.879,2.467,1.752,3.71,2.604c0.626,0.429,3.155-0.356,2.339-1.699
				c-1.211-1.992-2.521-3.845-3.882-5.627c0.513,0.402,1.026,0.802,1.543,1.197c0.638,0.487,3.205-0.547,2.339-1.698
				c-1.573-2.09-3.225-4.064-4.841-6.087c0.91,0.46,1.827,0.894,2.757,1.279c0.531,0.218,2.925-0.673,2.084-1.831
				c-0.765-1.054-1.509-2.134-2.244-3.225c2.213,1.682,4.426,3.364,6.688,4.923c0.549,0.378,2.86-0.064,2.442-1.442
				c-0.376-1.233-0.825-2.403-1.313-3.537c0.805-0.21,1.605-0.902,1.209-1.826c-0.555-1.302-1.156-2.561-1.779-3.8
				c0.507,0.572,1.017,1.141,1.516,1.726c0.568,0.666,3.12,0.143,2.627-1.245c-1.709-4.815-3.963-9.169-6.143-13.592
				c0.349,0.258,0.7,0.508,1.063,0.733c0.593,0.369,2.775,0.001,2.441-1.442c-0.389-1.687-0.827-3.349-1.263-5.01
				c0.551,0.719,1.104,1.438,1.651,2.169C219.37,120.182,221.977,119.036,221.198,117.75z"/>
			<path fill="none" stroke="#878787" stroke-miterlimit="10" d="M30.998,146.302c-0.656-0.141-1.315-0.258-1.981-0.342
				c-0.032-0.004-0.069-0.002-0.109,0.001c-0.58-0.495-1.152-1.007-1.72-1.529c1.243,0.309,2.474,0.685,3.692,1.126
				C30.781,145.784,30.797,146.034,30.998,146.302z"/>
			<path fill="none" stroke="#878787" stroke-miterlimit="10" d="M63.782,144.907c0.513,0.505,1.033,0.989,1.561,1.459
				c-1.46-0.524-2.936-0.976-4.419-1.363c-1.069-0.503-2.147-0.968-3.229-1.415c0.352-0.023,0.704-0.047,1.056-0.071
				C60.435,143.927,62.113,144.395,63.782,144.907z"/>
			<path fill="none" stroke="#878787" stroke-miterlimit="10" d="M37.363,144.131c0.412-0.1,0.825-0.188,1.238-0.264
				c0.479,0.023,0.958,0.047,1.438,0.066c0.62,0.543,1.246,1.075,1.875,1.599C40.397,145.062,38.88,144.592,37.363,144.131z"/>
			<path fill="none" stroke="#878787" stroke-miterlimit="10" d="M50.995,143.92c1.027,0.303,2.044,0.649,3.041,1.021
				c-0.272,0.369-0.327,0.765,0.145,1.063c-1.376-0.666-2.741-1.355-4.1-2.053C50.386,143.943,50.69,143.932,50.995,143.92z"/>
			<path fill="none" stroke="#878787" stroke-miterlimit="10" d="M43.005,151.087c-0.321-0.16-0.643-0.319-0.964-0.478
				c0.259-0.103,0.532-0.251,0.773-0.426c0.747,0.338,1.489,0.699,2.226,1.082c0.027,0.026,0.055,0.052,0.083,0.078
				C44.417,151.262,43.71,151.177,43.005,151.087z"/>
			<path fill="none" stroke="#878787" stroke-miterlimit="10" d="M56.533,151.522c0.883,0.222,1.768,0.433,2.653,0.635
				c-0.445,0.033-0.89,0.067-1.335,0.103C57.412,152.01,56.974,151.762,56.533,151.522z"/>
			<path fill="none" stroke="#878787" stroke-miterlimit="10" d="M47.115,153.201c0.021,0.018,0.04,0.036,0.061,0.053
				c-0.563,0.051-1.127,0.096-1.69,0.143c0.086-0.116,0.15-0.237,0.184-0.358C46.151,153.094,46.633,153.147,47.115,153.201z"/>
			<path fill="none" stroke="#878787" stroke-miterlimit="10" d="M65.52,153.933c-0.488-0.095-0.979-0.177-1.468-0.263
				c0.903-0.035,1.807-0.068,2.712-0.076c2.156,0.546,4.328,0.94,6.512,1.138c-2.202,0.243-4.407,0.465-6.613,0.662
				C67.089,154.958,66.162,154.056,65.52,153.933z"/>
			<path fill="none" stroke="#878787" stroke-miterlimit="10" d="M39.845,156.026c0.088-0.11,0.153-0.227,0.189-0.347
				c3.604,0.075,7.209,0.224,10.813,0.314c0.146,0.091,0.293,0.179,0.439,0.267C47.471,156.324,43.655,156.255,39.845,156.026z"/>
			<path fill="none" stroke="#878787" stroke-miterlimit="10" d="M51.023,148.303c-0.5-0.144-0.999-0.292-1.499-0.439
				c-1.633-1.153-3.238-2.385-4.814-3.683c2.762,1.447,5.56,2.896,8.387,4.242C52.406,148.38,51.715,148.339,51.023,148.303z"/>
			<path fill="none" stroke="#878787" stroke-miterlimit="10" d="M66.993,142.875c0.595-0.051,1.188-0.103,1.783-0.156
				c-0.329,0.149-0.63,0.354-0.819,0.588C67.636,143.162,67.314,143.019,66.993,142.875z"/>
			<path fill="none" stroke="#878787" stroke-miterlimit="10" d="M84.476,147.554c-0.146-0.02-0.293-0.044-0.441-0.062
				c-0.054-0.005-0.122,0-0.196,0.012c-1.955-1.444-3.939-2.792-6.023-3.904c-0.593-0.316-3.192,0.293-2.339,1.699
				c0.43,0.708,0.871,1.403,1.316,2.092c-2.183-1.557-4.337-3.194-6.504-4.805c0.599-0.053,1.196-0.106,1.794-0.16
				c2.61-0.234,5.231-0.4,7.857-0.542c-0.18,0.264-0.208,0.559,0.059,0.861c1.492,1.679,3.059,3.295,4.688,4.806
				C84.632,147.542,84.563,147.542,84.476,147.554z"/>
			<path fill="none" stroke="#878787" stroke-miterlimit="10" d="M100.91,141.92c0.04,0.036,0.081,0.071,0.12,0.107
				c-0.642-0.06-1.283-0.113-1.922-0.152c-0.208-0.014-0.764,0.155-1.229,0.445c-1.832-0.281-3.659-0.631-5.48-1.058
				c2.852-0.166,5.7-0.378,8.539-0.676C100.542,140.964,100.389,141.445,100.91,141.92z"/>
			<path fill="none" stroke="#878787" stroke-miterlimit="10" d="M86.932,139.742c-0.085-0.027-0.17-0.05-0.255-0.078
				c5.622-1.267,11.347-1.446,17.058-1.28C98.166,139.153,92.548,139.473,86.932,139.742z"/>
			<path fill="none" stroke="#878787" stroke-miterlimit="10" d="M89.923,152.376c1.414,0.704,2.811,1.482,4.204,2.313
				c0.15,0.089,0.364,0.114,0.604,0.087c0.684,0.365,1.379,0.681,2.083,0.958c0.643,0.625,1.272,1.276,1.887,1.955
				C95.603,156.757,92.694,154.698,89.923,152.376z"/>
			<path fill="none" stroke="#878787" stroke-miterlimit="10" d="M99.334,149.925c-4.835-3.484-10.019-6.175-15.252-8.247
				c1.005-0.047,2.01-0.094,3.016-0.141c3.431,1.06,6.885,1.843,10.356,2.386c0.159,0.21,0.323,0.414,0.484,0.62
				c-0.311,0.304-0.461,0.724-0.229,1.265c0.666,1.556,1.474,3.019,2.382,4.391C99.838,150.104,99.586,150.013,99.334,149.925z"/>
			<path fill="none" stroke="#878787" stroke-miterlimit="10" d="M115.137,144.875c1.484-0.052,2.97-0.134,4.457-0.24
				c1.651,1.565,3.349,3.021,5.088,4.38c-2.825-1.482-5.736-2.731-8.695-3.751C115.704,145.13,115.42,145.006,115.137,144.875z"/>
			<path fill="none" stroke="#878787" stroke-miterlimit="10" d="M133.252,138.56c2.348,0.079,4.675,0.613,6.957,1.458
				c-0.012,0.011-0.022,0.024-0.034,0.036c-1.154,0.212-2.309,0.417-3.463,0.618C135.565,139.947,134.413,139.238,133.252,138.56z"
				/>
			<path fill="none" stroke="#878787" stroke-miterlimit="10" d="M130.286,141.702c-2.167-1.5-4.279-3.143-6.317-4.917
				c1.152,0.51,2.295,1.056,3.429,1.64c0.043,0.142,0.125,0.284,0.267,0.432c0.967,0.997,1.972,1.919,3,2.789
				C130.538,141.665,130.412,141.683,130.286,141.702z"/>
			<path fill="none" stroke="#878787" stroke-miterlimit="10" d="M140.594,141.832c0.867,0.728,1.729,1.469,2.589,2.214
				c-0.367,0.052-0.735,0.103-1.103,0.155c-1.036-0.702-2.075-1.398-3.12-2.083C139.505,142.024,140.05,141.93,140.594,141.832z"/>
			<path fill="none" stroke="#878787" stroke-miterlimit="10" d="M165.645,137.074c1.617,0.345,3.237,0.653,4.861,0.928
				c-3.382-0.047-6.765-0.042-10.148,0.042C162.125,137.709,163.887,137.385,165.645,137.074z"/>
			<path fill="none" stroke="#878787" stroke-miterlimit="10" d="M176.669,149.45c-1.158-0.779-2.322-1.533-3.492-2.275
				c0.279-0.073,0.557-0.155,0.836-0.226C174.893,147.795,175.776,148.63,176.669,149.45z"/>
			<path fill="none" stroke="#878787" stroke-miterlimit="10" d="M129.952,149.429c1.769,1.043,3.573,2.007,5.401,2.849
				c-0.268,0.037-0.537,0.082-0.806,0.122C132.995,151.464,131.458,150.486,129.952,149.429z"/>
			<path fill="none" stroke="#878787" stroke-miterlimit="10" d="M145.432,146.003c0.84,0.739,1.681,1.479,2.521,2.218
				c-1.084-0.743-2.172-1.492-3.262-2.24C144.938,145.988,145.186,145.996,145.432,146.003z"/>
			<path fill="none" stroke="#878787" stroke-miterlimit="10" d="M149.345,150.518c0.237-0.225,0.397-0.476,0.407-0.719
				c0.48,0.417,0.962,0.831,1.444,1.245c-0.645,0.018-1.29,0.042-1.934,0.065C149.399,150.907,149.45,150.703,149.345,150.518z"/>
			<path fill="none" stroke="#878787" stroke-miterlimit="10" d="M169.371,150.83c-0.322-0.286-0.644-0.568-0.963-0.859
				c0.557,0.294,1.11,0.604,1.663,0.912C169.837,150.867,169.604,150.851,169.371,150.83z"/>
			<path fill="none" stroke="#878787" stroke-miterlimit="10" d="M174.246,143.17c0.598,0.243,1.191,0.508,1.782,0.784
				c-0.308,0.025-0.618,0.046-0.926,0.068C174.817,143.737,174.528,143.46,174.246,143.17z"/>
			<path fill="none" stroke="#878787" stroke-miterlimit="10" d="M188.406,142.369c-1.054,0.143-2.108,0.292-3.16,0.45
				c-0.738-0.499-1.479-0.988-2.225-1.465c1.723,0.213,3.442,0.48,5.154,0.813C188.252,142.235,188.329,142.302,188.406,142.369z"/>
			<path fill="none" stroke="#878787" stroke-miterlimit="10" d="M169.709,142.508c0.535,0.594,1.074,1.178,1.621,1.749
				c-0.939,0.048-1.878,0.088-2.817,0.122c-0.463-0.262-0.923-0.527-1.388-0.779c-0.531-0.287-1.978,0.174-2.372,0.883
				c-0.66,0.013-1.32,0.02-1.98,0.026c-0.016-0.006-0.033-0.014-0.048-0.019c-0.1-0.039-0.283-0.025-0.501,0.025
				c-0.548,0.004-1.095,0.01-1.643,0.011c-0.388-0.273-0.777-0.541-1.167-0.806C162.843,143.282,166.276,142.874,169.709,142.508z"
				/>
			<path fill="none" stroke="#878787" stroke-miterlimit="10" d="M141.505,151.583c-0.305,0.027-0.611,0.051-0.916,0.081
				c-2.561-0.904-5.096-2.14-7.562-3.554C135.872,149.186,138.698,150.343,141.505,151.583z"/>
			<path fill="none" stroke="#878787" stroke-miterlimit="10" d="M171.778,152.937c-0.057-0.05-0.113-0.098-0.169-0.146
				c0.552,0.003,1.105,0.01,1.657,0.014c0.092,0.076,0.185,0.147,0.277,0.223C172.955,152.996,172.367,152.963,171.778,152.937z"/>
			<path fill="none" stroke="#878787" stroke-miterlimit="10" d="M193.423,141.722c-0.418-0.115-0.837-0.221-1.256-0.326
				c-0.19-0.157-0.381-0.31-0.572-0.465c2.005-0.062,4.011-0.102,6.018-0.108c0.115,0,0.217-0.006,0.31-0.017
				c0.718,0.035,1.435,0.068,2.152,0.103C197.859,141.182,195.641,141.447,193.423,141.722z"/>
			<path fill="none" stroke="#878787" stroke-miterlimit="10" d="M160.306,139.802c2.724,0.234,5.458,0.379,8.194,0.515
				c-0.114,0.153-0.174,0.321-0.146,0.501c-3.771,0.403-7.539,0.856-11.306,1.341c-1.451-0.926-2.92-1.801-4.408-2.62
				c2.068-0.406,4.131-0.809,6.189-1.203C158.426,138.808,159.391,139.722,160.306,139.802z"/>
			<path fill="none" stroke="#878787" stroke-miterlimit="10" d="M149.521,140.899c0.339,0.342,0.682,0.673,1.026,1.003
				c-0.035-0.004-0.075-0.003-0.116-0.003c-0.791-0.516-1.591-1.003-2.395-1.462c0.387-0.074,0.772-0.148,1.159-0.225
				C149.19,140.428,149.285,140.66,149.521,140.899z"/>
			<path fill="none" stroke="#878787" stroke-miterlimit="10" d="M151.322,154.551c0.036-0.05,0.068-0.099,0.098-0.15
				c1.254-0.016,2.509-0.029,3.762-0.035c0.057,0.044,0.112,0.09,0.168,0.135C154.008,154.528,152.665,154.546,151.322,154.551z"/>
			<path fill="none" stroke="#878787" stroke-miterlimit="10" d="M187.24,150.826c-1.581,0.006-3.167,0.047-4.756,0.093
				c-1.736-1.561-3.468-3.126-5.173-4.742c0.721-0.158,1.443-0.304,2.165-0.447c2.696,1.521,5.332,3.29,7.938,5.109
				C187.356,150.832,187.298,150.826,187.24,150.826z"/>
			<path fill="none" stroke="#878787" stroke-miterlimit="10" d="M190.987,146.022c-0.176-0.074-0.576-0.006-0.992,0.156
				c-0.778-0.581-1.562-1.14-2.348-1.699c0.888-0.138,1.777-0.288,2.664-0.447c1.347,1.177,2.688,2.361,4.011,3.586
				C193.222,147.046,192.113,146.502,190.987,146.022z"/>
			<path fill="none" stroke="#878787" stroke-miterlimit="10" d="M204.013,152.019c-3.029-3.072-6.18-5.893-9.392-8.592
				c2.196-0.27,4.393-0.532,6.587-0.801c0.455,0.65,0.916,1.292,1.388,1.917c-0.513-0.327-1.031-0.645-1.556-0.943
				c-0.583-0.332-3.287,0.551-2.339,1.699c1.95,2.361,3.933,4.672,5.836,7.091C204.362,152.266,204.187,152.143,204.013,152.019z"/>
			<path fill="none" stroke="#878787" stroke-miterlimit="10" d="M214.895,129.639c-1.096-1.143-2.197-2.278-3.303-3.404
				c-0.659-0.67-3.014,0.356-2.339,1.699c0.91,1.811,1.871,3.572,2.826,5.338c-0.888,0.171-1.796,0.919-1.319,1.812
				c1.158,2.161,2.368,4.26,3.418,6.497c-2.989-2.242-5.947-4.563-8.992-6.663c-0.627-0.432-3.161,0.368-2.339,1.699
				c0.575,0.931,1.155,1.857,1.738,2.775c-2.843-0.119-5.688-0.254-8.532-0.396c-2.549-0.214-5.1-0.415-7.649-0.625
				c-0.812-0.643-1.624-1.282-2.437-1.921c-0.721-0.566-2.753,0.503-2.429,1.495c-4.402-0.412-8.797-0.917-13.174-1.662
				c0.154-0.023,0.308-0.05,0.46-0.074c1.708-0.268-0.069-1.725-0.918-1.725h-8.291c-1.374,0-1.155,0.959-0.354,1.462
				c-5.241,0.981-10.534,2.075-15.854,3.114c-5.139-2.446-10.462-3.533-15.675-2.454c-3.489-1.831-7.05-3.361-10.72-4.373
				c-0.681-0.188-3.086,0.82-1.898,2.028c2.741,2.787,5.654,5.368,8.697,7.673c-0.968-0.062-1.939-0.084-2.915-0.044
				c-1.043-0.329-2.085-0.658-3.13-0.974c-0.691-0.21-3.076,0.828-1.898,2.028c0.031,0.031,0.063,0.059,0.093,0.09
				c-2.142,0.138-4.281,0.217-6.416,0.232c-2.553-1.104-5.126-2.117-7.727-3.015c2.88-0.37,5.748-0.845,8.597-1.488
				c1.717-0.388-0.089-1.679-0.918-1.726c-9.633-0.54-19.406-1.038-28.903,1.626c-0.833,0.234-0.37,0.909,0.102,1.28
				c-3.603,0.172-7.2,0.363-10.776,0.68c-3.61,0.318-7.22,0.641-10.831,0.917c-6.123-1.567-12.333-2.386-18.476-1.183
				c-0.191,0.038-0.78,0.387-1.191,0.808c-0.355,0.09-0.709,0.191-1.063,0.309c-0.105,0.035-0.234,0.1-0.366,0.189
				c-2.795-0.026-5.59-0.03-8.385-0.03c-1.39,0-1.123,0.81-0.421,1.33c-2.438-0.792-4.92-1.348-7.445-1.599
				c-0.033-0.004-0.083,0.004-0.14,0.014c-1.411-1.389-2.855-2.714-4.327-3.986c0.712-0.275,1.54-0.946,1.071-1.766
				c-2.447-4.277-5.374-7.906-8.298-11.548c2.238,1.007,4.529,1.664,6.869,1.169c0.55-0.117,1.962-0.787,1.43-1.879
				c-2.601-5.329-5.808-9.944-9.036-14.549c2.513,1.417,5.008,2.891,7.705,3.612c0.463,0.124,2.637-0.32,2.187-1.574
				c-1.627-4.525-4.046-8.438-6.683-12.028c0.363,0.122,0.73,0.232,1.105,0.323c0.51,0.125,2.916-0.55,2.083-1.831
				c-3.099-4.767-6.886-8.714-10.198-13.216c2.532,2.206,5.158,4.166,8.115,5.342c0.487,0.194,2.609-0.355,2.187-1.573
				c-1.309-3.771-3.03-7.249-4.925-10.539c0.897,0.511,1.805,0.987,2.739,1.387c0.678,0.29,2.675-0.473,2.083-1.831
				c-0.633-1.453-1.357-2.782-2.14-4.037c0.56-0.332,0.951-0.901,0.633-1.581c-1.574-3.366-3.594-6.213-5.646-9.026
				c2.55,1.469,5.086,2.985,7.708,4.216c0.68,0.32,2.671-0.489,2.085-1.83c-1.075-2.456-2.501-4.537-4.104-6.383
				c0.467-0.317,0.723-0.764,0.334-1.277c-2.611-3.462-5.487-6.528-8.156-9.891c3.252,2.042,6.46,4.141,10.149,4.633
				c0.588,0.078,2.389-0.695,1.776-1.893c-1.479-2.885-3.208-5.496-4.853-8.196c1.593,1.251,3.17,2.538,4.774,3.766
				c0.638,0.487,3.146-0.4,2.339-1.699c-2.796-4.5-6.087-8.311-9.438-12.02c0.87-0.223,2.261-0.948,1.525-1.77
				c-1.551-1.733-3.195-3.249-4.901-4.638c0.226-0.279,0.284-0.611,0.002-0.981c-1.308-1.711-2.677-3.303-3.965-5.009
				c2.445,1.141,4.874,2.339,7.465,2.815c0.462,0.085,2.563-0.863,1.776-1.892c-1.617-2.112-3.375-3.985-5.15-5.833
				c3.786,1.995,7.581,3.897,11.665,4.662c0.533,0.099,2.464-0.768,1.775-1.893c-1.179-1.925-2.559-3.496-4.006-4.958
				c4.383,1.712,8.78,3.354,13.228,4.745c0.678,0.212,3.174-1.302,1.898-2.027c-2.145-1.219-4.276-2.474-6.401-3.75
				c0.831,0.232,1.662,0.473,2.491,0.717c0.073,0.17,0.229,0.329,0.505,0.464c9.18,4.501,18.722,8.587,28.57,8.744
				c0.385,0.006,2.635-0.868,1.776-1.892c-1.141-1.359-2.345-2.609-3.59-3.779c2.594,1.061,5.223,1.953,7.913,2.545
				c0.623,0.137,3.162-0.897,1.898-2.027c-0.333-0.298-0.673-0.577-1.015-0.847c1.917,0.32,3.848,0.476,5.801,0.368
				c0.274-0.015,0.837-0.321,1.209-0.728c4.347,1.88,8.699,3.726,13.209,4.766c0.611,0.141,3.224-1.254,1.898-2.028
				c-0.042-0.024-0.086-0.047-0.128-0.072c6.737,3.417,13.669,6.034,20.771,6.758c0.408,0.042,2.622-0.901,1.776-1.893
				c-3.419-4.002-7.595-6.372-11.796-8.576c0.297-0.173,0.618-0.422,0.818-0.702c3.759,1.954,7.525,3.887,11.277,5.87
				c0.696,0.368,2.853-0.656,2.44-1.558c2.111,0.595,4.243,1.041,6.412,1.241c0.65,0.059,2.671-0.999,1.59-2.089
				c-0.047-0.048-0.094-0.095-0.143-0.143c1.745,1.213,3.536,2.298,5.405,3.192c0.515,0.247,2.729-0.669,2.168-1.693
				c3.228,1.645,6.422,3.43,9.636,5.136c0.818,0.434,3.423-1.052,2.153-1.896c-1.695-1.125-3.419-2.145-5.162-3.104
				c2.651,0.585,5.333,0.857,8.064,0.583c0.365-0.037,2.181-1.023,1.429-1.878c-0.174-0.199-0.353-0.389-0.532-0.579
				c3.717,1.996,7.507,3.63,11.568,4.002c0.311,0.028,1.845-0.604,1.965-1.348c3.017,2.005,6.108,3.765,9.408,4.861
				c0.696,0.23,3.074-0.85,1.897-2.027c-3.469-3.474-7.129-6.545-10.816-9.564c0.586,0.289,1.172,0.578,1.759,0.867
				c0.543,0.268,2.925-0.736,2.083-1.831c-0.463-0.603-0.943-1.18-1.427-1.751c6.512,4.107,12.719,9.137,19.438,12.643
				c0.563,0.294,3.311-0.565,2.338-1.699c-1.008-1.177-2.063-2.272-3.133-3.34c1.681,0.906,3.4,1.659,5.194,2.106
				c0.579,0.144,2.819-0.465,2.084-1.831c-1.35-2.51-2.899-4.751-4.538-6.877c3.233,2.21,6.428,4.531,9.735,6.534
				c0.146,0.088,0.356,0.119,0.593,0.104c1.2,1.116,2.366,2.308,3.553,3.471c0.699,0.685,3.167-0.76,2.339-1.698
				c-1.182-1.338-2.305-2.669-3.238-4.195c2.656,2.158,5.287,4.345,8.314,5.516c0.513,0.198,2.479-0.453,2.211-1.525
				c1.066,0.769,2.151,1.48,3.268,2.103c0.391,1.221,0.822,2.41,1.294,3.566c-0.482-0.377-0.976-0.735-1.484-1.064
				c-0.509-0.33-2.945,0.107-2.441,1.441c1.37,3.629,2.952,7.133,4.454,10.685c-0.867-0.304-2.419,0.408-2.194,1.573
				c0.922,4.755,2.208,9.352,3.375,13.997c-1.041-1.933-2.146-3.798-3.385-5.538c-0.582-0.817-2.955-0.195-2.627,1.245
				c2.022,8.893,4.447,17.6,6.662,26.405c-0.794-1.274-1.613-2.517-2.527-3.646c-0.577-0.714-3.043-0.196-2.627,1.245
				c1.044,3.62,2.119,7.226,3.267,10.785c-0.456-0.616-0.918-1.222-1.393-1.815c-0.573-0.717-3.065-0.168-2.627,1.245
				c1.668,5.386,3.646,10.567,5.615,15.756c-1.011-1.205-2.058-2.356-3.174-3.408c-0.588-0.554-2.749,0.113-2.441,1.442
				c0.49,2.125,1.016,4.227,1.614,6.28c-0.646,0.316-1.121,0.931-0.758,1.637c0.472,0.919,0.943,1.839,1.42,2.749
				c0.016,0.102,0.041,0.207,0.087,0.316c0.847,1.98,1.846,3.767,2.931,5.454c0.552,2.726,1.267,5.378,1.965,8.042
				c-0.83-0.691-1.667-1.364-2.556-1.917c-0.688-0.427-3.006,0.186-2.339,1.699C211.273,122.47,213.147,126.002,214.895,129.639z"/>
		</g>
	</g>
	<g>
		<g opacity="0.8">
			<path fill="#878787" d="M45.449,152.019c5.831-0.088,11.66-0.248,17.487-0.498c-0.58,0.654-0.656,1.706,0.209,2.022
				c0.408,0.148,0.817,0.281,1.226,0.419c-4.226,0.109-8.448,0.391-12.665,0.981c-0.688,0.096-2.585,1.723-1.272,2.581
				c15.869,10.383,34.029,3.935,50.739,2.203c3.933,0.139,7.865,0.231,11.799,0.284c-0.073,0.014-0.146,0.025-0.218,0.04
				c-1.165,0.228-2.619,2.649-0.678,2.703c8.174,0.225,16.348-0.811,24.454-2.534c9.931-0.32,19.884-0.031,29.81-0.02
				c0.587,0,1.164-0.565,1.442-1.18c0.863-0.071,1.727-0.151,2.588-0.242c13.965,1.755,27.982,2.772,41.655-1.521
				c0.559,0.243,1.112,0.5,1.659,0.778c-2.489,0.707-5.014,1.183-7.508,1.894c-1.574,0.449-1.674,3.463,0.142,2.946
				c3.645-1.038,7.361-1.565,10.929-3.065c0.804-0.338,1.974-1.884,0.828-2.805c-0.643-0.518-1.308-0.944-1.986-1.32
				c0.866-0.222,1.73-0.445,2.601-0.665c0.812-0.206,2.142-2.411,0.65-2.615c-0.689-0.093-1.377-0.166-2.066-0.224
				c0.045-0.118,0.072-0.233,0.086-0.347c0.407-0.463,0.787-0.977,1.132-1.549c0.417-0.273,0.808-0.679,1.006-1.02
				c1.768-0.233,3.537-0.458,5.31-0.639c0.812-0.082,1.507-1.102,1.577-1.94c0.214-0.099,0.428-0.2,0.642-0.315
				c1.105-0.599,1.289-2.839-0.148-2.839h-5.796c4.165-19.179-0.983-40.372-2.187-59.701c-0.019-0.303-0.102-0.515-0.219-0.666
				c0.653-12.256,1.047-24.529,1.226-36.818c0.303-0.333,0.517-0.774,0.518-1.281c0.015-5.606,0.343-12.708-0.573-19.001
				c0.083-0.166,0.145-0.341,0.169-0.525c0.469-3.522,0.229-6.551-0.524-9.115c0.494-0.108,0.989-0.204,1.491-0.252
				c0.796-0.076,2.469-1.595,1.272-2.582c-0.903-0.744-1.85-1.403-2.815-2.021c0.263,0.001,0.527,0.005,0.791,0.006
				c1.279,0.003,2.536-2.647,0.678-2.704c-2.194-0.066-4.387-0.1-6.582-0.122c-0.273-0.209-0.55-0.41-0.834-0.599
				c0.223-0.554,0.154-1.106-0.556-1.305c-3.205-0.893-6.456-1.361-9.723-1.534c-0.303-0.067-0.608-0.118-0.913-0.174
				c0.014-0.355-0.167-0.671-0.67-0.846c-0.441-0.152-0.89-0.298-1.337-0.443c0.243-0.165,0.491-0.314,0.732-0.484
				c1.092-0.769,1.293-2.63-0.148-2.838c-5.766-0.833-11.509-0.599-17.239,0.131c-4.776-0.165-9.519,0.432-13.949,2.157
				c-0.197,0.077-0.416,0.239-0.618,0.439c-0.507,0.105-1.013,0.208-1.52,0.312c-6.829-0.292-13.721,0.207-20.496,0.575
				c-1.763-0.429-3.538-0.781-5.323-1.043c-3.977-0.585-8.546-0.743-12.14,2c-6.945-1.146-14.044-0.636-20.983,0.197
				c-0.089,0.01-0.188,0.048-0.29,0.1c-6.017,0.015-12.032,0.337-18.042,0.789c0.212-0.779,0.002-1.574-0.944-1.574H47.25
				c-0.153-0.273-0.433-0.471-0.877-0.511c-5.651-0.51-11.295-0.96-16.958-0.511c-0.304,0.024-0.635,0.226-0.921,0.511h-8.248
				c-2.807,0-5.555-0.316-8.354-0.447C9.929,3.565,6.897,3.635,5.5,5.908c-1.281,2.086-1.67,4.71-1.694,7.472
				c-0.585,0.163-1.175,0.652-1.252,1.448C0.677,34.079-0.136,55.586,4.035,74.561c-0.014,1.693-0.033,3.386-0.055,5.08
				c-0.014,1.043-0.03,2.105-0.045,3.178c-0.253,0.189-0.456,0.397-0.546,0.575c-1.749,3.46-1.685,7.933-1.643,11.968
				c0.052,5.023,0.405,10.037,0.486,15.061c0.182,11.245-0.808,23.958,3.323,34.198c0.276,0.686,1.12,0.475,1.797,0.021
				c0.251,1.538,0.527,3.066,0.841,4.575c0.007,0.036,0.016,0.07,0.023,0.104c-0.413-0.036-0.825-0.077-1.241-0.089
				c-0.462-0.014-2.997,1.491-1.903,1.808c1.288,0.374,2.58,0.683,3.874,0.963c1.02,2.969,2.67,5.306,5.299,5.807
				c2.112,0.402,4.256,0.085,6.376-0.432c4.389,0.814,8.826,0.754,13.259,0.354c0.542-0.049,2.859-1.56,1.358-1.861
				c-0.256-0.051-0.509-0.107-0.764-0.16c5.195,0.482,10.409,0.522,15.609-0.021 M212.59,11.484
				c0.083,0.033,0.164,0.071,0.247,0.104c1.055,0.881,1.985,1.946,2.735,3.208c-0.014,0.008-0.025,0.017-0.038,0.025
				c-0.785-0.918-1.688-1.715-2.737-2.353c-0.103-0.063-0.224-0.096-0.353-0.108c-0.146-0.306-0.297-0.602-0.458-0.887
				C212.188,11.477,212.389,11.48,212.59,11.484z M207.867,11.418h0.111c0.921,0.988,1.71,2.229,2.347,3.765
				c-0.103-0.074-0.232-0.134-0.407-0.163c-0.775-0.132-1.552-0.243-2.328-0.343c-0.089-0.896-0.179-1.793-0.269-2.689
				C207.516,11.839,207.704,11.64,207.867,11.418z M200.385,17.443c0.4,0.131,0.803,0.25,1.201,0.397
				c-0.417,0.055-0.836,0.102-1.254,0.154C200.376,17.809,200.395,17.622,200.385,17.443z M204.251,22.194
				c0.004,0.127,0.007,0.255,0.011,0.382c-4.479-0.176-8.95-0.49-13.416-0.919c0.979-0.093,1.96-0.19,2.94-0.291
				C197.28,21.601,200.773,21.831,204.251,22.194z M184.651,3.487c2.811,0.219,5.621,0.697,8.371,1.35
				c-0.132,0.062-0.268,0.12-0.401,0.181c-0.889,0.1-1.778,0.219-2.667,0.351c-2.318,0.221-4.636,0.448-6.952,0.704
				c-1.984-0.623-3.986-1.108-6.001-1.483C179.548,4.146,182.099,3.761,184.651,3.487z M179.534,20.005
				c-0.542,0.048-1.085,0.095-1.627,0.143c-3.704-0.495-7.405-1.033-11.105-1.595c1.354-0.125,2.708-0.243,4.063-0.361
				C173.735,18.993,176.627,19.571,179.534,20.005z M170.991,10.899c0.355,0.008,0.71,0.019,1.067,0.028
				c-0.348,0.071-0.695,0.142-1.043,0.214C171.018,11.056,171.013,10.974,170.991,10.899z M167.99,6.325
				c1.835,0.114,3.666,0.285,5.486,0.546c0.333,0.103,0.666,0.209,0.999,0.311c-0.351,0.055-0.702,0.103-1.051,0.16
				c-0.292,0.048-0.704,0.363-1.05,0.76c-3.106-0.2-6.209-0.46-9.309-0.785C164.707,6.994,166.348,6.659,167.99,6.325z
				 M161.953,14.64c-0.007,0.052-0.015,0.104-0.018,0.155c-0.687-0.006-1.374-0.007-2.062-0.012
				C160.567,14.738,161.259,14.686,161.953,14.64z M142.372,6.344c0.029,0.191,0.133,0.354,0.328,0.47
				c-2.903-0.036-5.81-0.29-8.722-0.83C136.716,5.354,139.811,5.876,142.372,6.344z M132.891,17.5
				c1.525,0.021,3.048,0.028,4.573,0.014c0.826,0.03,1.652,0.047,2.477,0.071c0.417,0.103,0.834,0.207,1.25,0.312
				c-0.313,0.03-0.626,0.057-0.939,0.086c-3.149,0.005-6.299-0.002-9.444,0.11c-0.295-0.082-0.59-0.169-0.884-0.254
				C130.912,17.742,131.902,17.634,132.891,17.5z M125.533,10.796c1.331,0.275,2.659,0.575,3.981,0.902
				c-0.097,0.07-0.194,0.154-0.289,0.244c-1.005,0.071-2.012,0.133-3.019,0.18c-0.089-0.063-0.192-0.121-0.323-0.166
				c-0.813-0.28-1.629-0.529-2.446-0.772C124.137,11.057,124.835,10.928,125.533,10.796z M122.814,18.532
				c0.127,0.049,0.252,0.099,0.38,0.146c-0.967,0.123-1.934,0.259-2.9,0.429c-0.549,0.097-1.158,0.7-1.448,1.308
				c-1.447-0.059-2.893-0.128-4.337-0.219C117.269,19.558,120.038,19.014,122.814,18.532z M108.589,8.117
				c3.24,0.437,6.49,0.871,9.734,1.38c-0.347,0.056-0.693,0.113-1.04,0.168c-4.015-0.793-8.055-1.249-12.108-1.513
				C106.313,8.132,107.451,8.117,108.589,8.117z M112.199,18.202c-1.817,0.454-3.633,0.934-5.443,1.47
				c-0.292,0.086-0.671,0.456-0.949,0.892c-12.978-0.104-25.955-0.325-38.932-0.415c1.86-0.429,3.725-0.826,5.591-1.199
				c5.333-0.623,10.698-0.862,16.069-0.928c3.433,0.015,6.866,0.021,10.298,0.036c4.427,0.062,8.846,0.152,13.242,0.159
				C112.116,18.217,112.158,18.207,112.199,18.202z M90.098,10.402c5.785,0.066,11.57,0.159,17.32,0.709
				c-2.162,0.297-4.325,0.586-6.488,0.874c-1.837-0.023-3.674-0.043-5.511-0.047c-0.409,0-0.915,0.435-1.262,0.954
				c-0.325,0.045-0.649,0.09-0.974,0.135c-1.792,0.076-3.584,0.146-5.376,0.241c-4.13,0.219-8.26,0.458-12.39,0.696
				c-3.911-0.143-7.824-0.345-11.737-0.542c8.464-0.806,16.999-0.797,25.408-2.356C89.433,11.002,89.8,10.739,90.098,10.402z
				 M76.16,7.819c-0.164,0.159-0.324,0.336-0.458,0.535c-5.125-0.01-10.25-0.035-15.374-0.071
				C65.604,8.095,70.882,7.931,76.16,7.819z M49.177,11.474c3.574-0.167,7.15-0.268,10.727-0.325
				c0.314-0.001,0.628-0.004,0.943-0.006c-2.709,0.337-5.408,0.791-8.092,1.425c-1.308-0.151-2.614-0.315-3.921-0.486
				C48.972,11.897,49.091,11.69,49.177,11.474z M64.607,17.603c-3.303,0.662-6.59,1.5-9.854,2.58
				c-0.817,0.271-2.14,2.238-0.651,2.613c20.759,5.232,41.961,0.604,62.873,0.528c0.04,0,0.079-0.017,0.118-0.021
				c-0.706,0.729-1.22,1.858-0.062,2.033c9.97,1.502,20.031,1.52,30.034,0.624c0.141,0.361,0.504,0.555,1.152,0.334
				c2.609-0.891,5.287-0.999,7.946-1.456c0.729-0.125,2.22-2.007,1.472-2.523c2.398-0.156,4.788-0.427,7.168-1.105
				c0.061-0.018,0.122-0.043,0.184-0.075c0.501,0.076,1.001,0.153,1.502,0.228c-1.835,0.236-3.668,0.496-5.499,0.792
				c-0.846,0.136-2.682,2.522-0.997,2.686c14.778,1.43,29.583,0.155,44.378,0.492c0.334,7.757,0.938,15.488,1.62,23.211
				c-0.077,2.691-0.091,5.383-0.044,8.07c-0.169,0.293-0.284,0.635-0.306,1c-1.256,20.641,0.216,41.275,0.644,61.921
				c-0.043,1.051-0.089,2.102-0.138,3.152c-0.871-0.006-1.741-0.02-2.612-0.033v4.288c0.46,0.156,0.92,0.317,1.377,0.489
				c-0.458-0.139-0.917-0.263-1.377-0.39v5.24c0,0.386-0.121,0.804-0.327,1.179c0.761-0.044,1.522-0.093,2.284-0.133
				c-0.013,0.16-0.024,0.321-0.037,0.481c-1.178,0.31-2.353,0.645-3.523,1.006c-0.308,0.007-0.615,0.022-0.922,0.033
				c-0.216-0.037-0.433-0.064-0.649-0.098c-4.842,0.614-9.692,0.711-14.54,0.515c0.044,0.421,0.21,0.792,0.535,0.989
				c-2.358,0.33-4.712,0.686-7.058,1.042c-0.856-0.021-1.712-0.038-2.567-0.043c-0.422-0.002-0.756,0.232-0.987,0.573
				c-2.879,0.423-5.742,0.817-8.584,1.124c-10.596,1.147-21.327,1.381-31.949,0.978c-0.653-0.025-1.304-0.057-1.955-0.096
				c0.259-0.262,0.453-0.62,0.553-1.003c0.284,0.036,0.593,0.048,0.844,0.021c0.013-0.001,0.026-0.003,0.04-0.005
				c-0.03,0.02-0.06,0.039-0.089,0.058c-0.258,0.175,0.652,0.341,0.657,0.343c10.577,1.389,21.187-0.901,31.708-2.151
				c3.085-0.367,6.178-0.718,9.267-1.132c3.033-0.192,6.064-0.434,9.095-0.719c-3.824-0.17-7.648-0.517-11.465-0.926
				c-1.729,0.464-3.458,0.551-5.403,0.241c-0.687-0.11-1.152-0.491-1.417-0.99c-4.622-0.488-9.245-0.905-13.872-1.281
				c-24.096,1.451-48.205,2.804-72.341,3.188c-3.207,0.116-6.415,0.178-9.625,0.156c-0.485,0.329-1.106,0.485-1.83,0.341
				c-1.401-0.278-2.802-0.548-4.204-0.804c-0.142,0.977-0.875,1.826-2.247,1.833c-4.406,0.022-8.797,0.278-13.167-0.193
				c-6.203,0.259-12.425,0.633-18.454-0.42c0.228,0.167,0.455,0.335,0.683,0.5c-0.005,0-0.011,0-0.017,0
				c-0.372-0.201-0.748-0.391-1.122-0.583c-1.644-0.308-3.273-0.718-4.883-1.277c-0.882-0.306-1.393-0.885-1.587-1.533
				c-0.272-0.028-0.611,0.106-0.932,0.341c-1.698-0.878-3.381-1.822-5.064-2.772c-0.284-0.162-0.658-0.1-1.023,0.083
				c-0.007-0.491-0.014-0.981-0.02-1.472c0.03,0.027,0.059,0.059,0.09,0.086c0.723,0.635,2.24,0.148,2.45-1.149
				c1.367-8.465,0.952-17.26,0.347-25.982c0.812,0.243,1.976-0.647,1.975-1.89c-0.022-17.914-0.805-35.821-2.426-53.599
				c0.006-4.819-0.05-9.638-0.111-14.458c0.038-3.528-0.048-7.039-0.093-10.371c10.452,1.943,21.017,0.576,31.514,1.508
				c1.041,0.093,3.064-2.283,1.314-2.668c-3.179-0.699-6.336-1.562-9.454-2.621C50.168,18.338,57.388,17.996,64.607,17.603z
				 M133.744,137.534c1.057-0.026,2.114-0.055,3.17-0.094c-0.303,0.188-0.612,0.362-0.915,0.556c-0.002,0-0.004,0-0.006,0
				c-0.652-0.055-0.98-0.015-0.992,0.119c-0.371,0.044-0.742,0.084-1.114,0.132c0,0,0,0-0.001,0
				C133.888,137.993,133.844,137.749,133.744,137.534z M166.186,136.504c-1.628,0.19-3.257,0.383-4.883,0.594
				c-7.85,1.021-15.729,2.47-23.622,1.633c0.154-0.103,0.309-0.203,0.463-0.303c0.298-0.033,0.597-0.071,0.896-0.104
				C148.072,137.329,157.129,136.944,166.186,136.504z M139.497,137.569c0.14-0.087,0.282-0.166,0.422-0.25
				c0.693-0.033,1.386-0.07,2.078-0.107C141.164,137.333,140.331,137.457,139.497,137.569z M149.033,136.821
				c0.099-0.016,0.198-0.033,0.296-0.049c2.53-0.173,5.06-0.365,7.589-0.56c6.771-0.255,13.541-0.647,20.31-1.086
				c-0.586,0.085-1.172,0.174-1.76,0.254c-4.543,0.295-9.089,0.509-13.635,0.728C157.565,136.313,153.297,136.533,149.033,136.821z
				 M89.248,145.363c0.392-0.191,0.911-0.595,1.219-0.968c0.14-0.009,0.279-0.019,0.418-0.027c0.565,0.093,1.13,0.184,1.695,0.271
				c3.527,1.013,7.102,1.695,10.659,2.515c-1.563,0.072-3.126,0.121-4.689,0.144c-0.072-0.06-0.193-0.098-0.381-0.107
				c-3.252-0.152-6.515-0.385-9.776-0.728C88.924,146.095,89.422,145.634,89.248,145.363z M16.882,23.728
				c-0.128-0.335-0.26-0.669-0.399-0.999c-0.272-0.645-0.839-0.832-1.374-0.698c-0.023-0.322-0.04-0.645-0.065-0.967
				c-0.037-0.466-0.197-0.767-0.42-0.941c0.958-0.466,1.962-0.836,2.997-1.118c-0.428,0.334-0.759,0.825-0.758,1.375
				C16.864,21.496,16.874,22.611,16.882,23.728z M9.479,21.068c-0.518-0.994-1.115-1.92-1.824-2.747
				c-0.217-0.253-0.515-0.38-0.829-0.396c-0.028-0.404-0.054-0.809-0.079-1.215c4.756,0.042,9.435-1.839,14.191-2.405
				c0.331-0.04,0.641-0.22,0.9-0.471c1.348,0.056,2.693,0.145,4.036,0.284c-2.834,0.386-5.668,0.778-8.493,1.275
				c-0.685,0.121-1.151,0.89-1.223,1.62C13.734,17.881,11.462,19.188,9.479,21.068z M12.348,21.489
				c-0.305,1.854-0.496,3.73-0.636,5.616c-0.001-0.005-0.003-0.011-0.004-0.016c-0.039-1.682-0.067-3.363-0.073-5.041
				C11.867,21.853,12.105,21.667,12.348,21.489z M8.883,27.722c-0.007,0.415-0.013,0.83-0.021,1.244
				c-0.095-0.376-0.191-0.753-0.292-1.127c-0.126-0.468-0.44-0.64-0.807-0.631c-0.001-0.006-0.003-0.012-0.004-0.017
				c0.186-0.396,0.383-0.774,0.59-1.138C8.539,26.598,8.716,27.156,8.883,27.722z M23.338,18.589
				c-1.093,0.264-2.18,0.608-3.255,1.083c-0.153,0.068-0.344,0.217-0.533,0.408c0-0.201-0.002-0.402-0.002-0.601
				c-0.001-0.439-0.164-0.701-0.407-0.826c0.326-0.062,0.657-0.108,0.986-0.155C21.197,18.534,22.268,18.564,23.338,18.589z
				 M36.676,13.041c-0.282,0.015-0.563,0.038-0.845,0.054c-0.11-0.113-0.253-0.203-0.435-0.261c-0.069-0.021-0.138-0.04-0.206-0.061
				C35.686,12.862,36.181,12.952,36.676,13.041z M36.708,20.26c0.275-0.021,0.614-0.222,0.915-0.502
				c0.901,0.357,1.807,0.696,2.716,1.018c-4.072,0.003-8.143,0.024-12.202-0.252C30.986,20.364,33.861,20.474,36.708,20.26z
				 M6.937,9.078c0.419-2.59,2.808-2.632,4.767-2.424c-0.251,0-0.502,0.003-0.754,0.003c-1.451,0.001-2.424,2.97-0.563,3.051
				c7.725,0.334,15.434,1.035,23.141,1.765c-0.116,0.322-0.124,0.625,0.064,0.84c-7.323-1.94-14.829-1.589-22.265-1.569
				c-1.218,0.003-2.081,2.125-1.252,2.824c-1.147,0.138-2.294,0.194-3.439,0.109C6.623,12.131,6.692,10.59,6.937,9.078z M4.1,29.287
				c0.092-1.686,0.198-3.363,0.316-5.029c0.021,1.163,0.045,2.33,0.069,3.498C4.35,28.259,4.223,28.771,4.1,29.287z M4.95,112.529
				c-0.009-2.428-0.054-4.853-0.123-7.276c0.189,1.305,0.415,2.591,0.682,3.855c-0.415,9.046-0.512,18.271,0.766,26.992
				c0.033,0.371,0.073,0.741,0.11,1.11C4.704,129.328,4.981,120.545,4.95,112.529z M9.739,94.771
				c-0.014,0.032-0.03,0.063-0.037,0.094c-0.029,0.115-0.053,0.232-0.082,0.348c-0.818-3.667-1.813-7.26-3.02-10.764
				c0.015-1.469,0.034-2.917,0.049-4.339c0.619-0.319,1.199-1.091,1.234-1.845c0.029-0.629,0.054-1.258,0.08-1.887
				c0.341,0.881,0.71,1.735,1.132,2.539c0.165,4.101,0.409,8.193,0.767,12.272C9.819,92.383,9.777,93.578,9.739,94.771z
				 M11.291,149.774c-0.441-1.61-0.739-3.309-1.008-4.823c0.306-0.244,0.54-0.524,0.599-0.772c0.369-1.553,0.639-3.132,0.829-4.73
				c0.353,2.239,0.683,4.458,0.963,6.649c0.131,1.214,0.27,2.426,0.418,3.631c0.085,0.693,1.463,0.403,2.214-0.244
				c0.017,0.207,0.032,0.413,0.049,0.62c0.032,0.381,0.176,0.625,0.376,0.768C14.256,150.459,12.778,150.071,11.291,149.774z
				 M18.772,154.92c-0.192,0.038-1.199,0.694-1.484,1.203c-0.553-0.03-1.101-0.109-1.642-0.262
				c-1.501-0.424-2.543-1.643-3.308-3.215c0.883,0.141,1.767,0.266,2.652,0.373c0.978,0.279,1.956,0.552,2.937,0.808
				c-0.369,0.396-0.477,0.771,0.203,0.846c0.404,0.045,0.807,0.103,1.209,0.158C19.151,154.863,18.961,154.884,18.772,154.92z
				 M55.897,157.097c8.129-0.721,16.275-0.499,24.421-0.247c3.354,0.218,6.72,0.269,10.076,0.282c1.597,0.189,3.187,0.45,4.77,0.789
				C82.063,159.963,68.344,163.162,55.897,157.097z M119.188,157.352c-2.319-0.006-4.638-0.027-6.957-0.063
				c0.009-0.116-0.007-0.223-0.042-0.322c2.388-0.37,4.782-0.701,7.165-1.09C119.004,156.386,118.85,156.982,119.188,157.352z
				 M156.044,157.415c-2.68-0.027-5.361-0.048-8.042-0.049c1.152-0.324,2.302-0.656,3.451-0.996c1.776,0.188,3.557,0.402,5.34,0.626
				C156.564,157.027,156.297,157.185,156.044,157.415z M170.892,156.103c-1.371-0.175-2.741-0.358-4.11-0.544
				c3.111-0.036,6.222-0.099,9.333-0.184C174.38,155.684,172.638,155.919,170.892,156.103z M215.705,39.824
				c-0.422-1.779-0.881-3.544-1.377-5.291c0.486,0.435,1.286,0.194,1.805-0.354c0.248,1.785,0.496,3.569,0.721,5.354
				C216.525,39.444,216.097,39.573,215.705,39.824z"/>
		</g>
		<g opacity="0.8">
			<path fill="none" stroke="#878787" stroke-miterlimit="10" d="M200.885,17.443c0.4,0.131,0.803,0.25,1.201,0.397
				c-0.417,0.055-0.836,0.102-1.254,0.154C200.876,17.809,200.895,17.622,200.885,17.443z"/>
			<path fill="none" stroke="#878787" stroke-miterlimit="10" d="M185.151,3.487c2.811,0.219,5.621,0.697,8.371,1.35
				c-0.132,0.062-0.268,0.12-0.401,0.181c-0.889,0.1-1.778,0.219-2.667,0.351c-2.318,0.221-4.636,0.448-6.952,0.704
				c-1.984-0.623-3.986-1.108-6.001-1.483C180.048,4.146,182.599,3.761,185.151,3.487z"/>
			<path fill="none" stroke="#878787" stroke-miterlimit="10" d="M171.491,10.899c0.355,0.008,0.71,0.019,1.067,0.028
				c-0.348,0.071-0.695,0.142-1.043,0.214C171.518,11.056,171.513,10.974,171.491,10.899z"/>
			<path fill="none" stroke="#878787" stroke-miterlimit="10" d="M168.49,6.325c1.835,0.114,3.666,0.285,5.486,0.546
				c0.333,0.103,0.666,0.209,0.999,0.311c-0.351,0.055-0.702,0.103-1.051,0.16c-0.292,0.048-0.704,0.363-1.05,0.76
				c-3.106-0.2-6.209-0.46-9.309-0.785C165.207,6.994,166.848,6.659,168.49,6.325z"/>
			<path fill="none" stroke="#878787" stroke-miterlimit="10" d="M162.453,14.64c-0.007,0.052-0.015,0.104-0.018,0.155
				c-0.687-0.006-1.374-0.007-2.062-0.012C161.067,14.738,161.759,14.686,162.453,14.64z"/>
			<path fill="none" stroke="#878787" stroke-miterlimit="10" d="M133.391,17.5c1.525,0.021,3.048,0.028,4.573,0.014
				c0.826,0.03,1.652,0.047,2.477,0.071c0.417,0.103,0.834,0.207,1.25,0.312c-0.313,0.03-0.626,0.057-0.939,0.086
				c-3.149,0.005-6.299-0.002-9.444,0.11c-0.295-0.082-0.59-0.169-0.884-0.254C131.412,17.742,132.402,17.634,133.391,17.5z"/>
			<path fill="none" stroke="#878787" stroke-miterlimit="10" d="M126.033,10.796c1.331,0.275,2.659,0.575,3.981,0.902
				c-0.097,0.07-0.194,0.154-0.289,0.244c-1.005,0.071-2.012,0.133-3.019,0.18c-0.089-0.063-0.192-0.121-0.323-0.166
				c-0.813-0.28-1.629-0.529-2.446-0.772C124.637,11.057,125.335,10.928,126.033,10.796z"/>
			<path fill="none" stroke="#878787" stroke-miterlimit="10" d="M90.598,10.402c5.785,0.066,11.57,0.159,17.32,0.709
				c-2.162,0.297-4.325,0.586-6.488,0.874c-1.837-0.023-3.674-0.043-5.511-0.047c-0.409,0-0.915,0.435-1.262,0.954
				c-0.325,0.045-0.649,0.09-0.974,0.135c-1.792,0.076-3.584,0.146-5.376,0.241c-4.13,0.219-8.26,0.458-12.39,0.696
				c-3.911-0.143-7.824-0.345-11.737-0.542c8.464-0.806,16.999-0.797,25.408-2.356C89.933,11.002,90.3,10.739,90.598,10.402z"/>
			<path fill="none" stroke="#878787" stroke-miterlimit="10" d="M49.677,11.474c3.574-0.167,7.15-0.268,10.727-0.325
				c0.314-0.001,0.628-0.004,0.943-0.006c-2.709,0.337-5.408,0.791-8.092,1.425c-1.308-0.151-2.614-0.315-3.921-0.486
				C49.472,11.897,49.591,11.69,49.677,11.474z"/>
			<path fill="none" stroke="#878787" stroke-miterlimit="10" d="M134.244,137.534c1.057-0.026,2.114-0.055,3.17-0.094
				c-0.303,0.188-0.612,0.362-0.915,0.556c-0.002,0-0.004,0-0.006,0c-0.652-0.055-0.98-0.015-0.992,0.119
				c-0.371,0.044-0.742,0.084-1.114,0.132c0,0,0,0-0.001,0C134.388,137.993,134.344,137.749,134.244,137.534z"/>
			<path fill="none" stroke="#878787" stroke-miterlimit="10" d="M166.686,136.504c-1.628,0.19-3.257,0.383-4.883,0.594
				c-7.85,1.021-15.729,2.47-23.622,1.633c0.154-0.103,0.309-0.203,0.463-0.303c0.298-0.033,0.597-0.071,0.896-0.104
				C148.572,137.329,157.629,136.944,166.686,136.504z"/>
			<path fill="none" stroke="#878787" stroke-miterlimit="10" d="M139.997,137.569c0.14-0.087,0.282-0.166,0.422-0.25
				c0.693-0.033,1.386-0.07,2.078-0.107C141.664,137.333,140.831,137.457,139.997,137.569z"/>
			<path fill="none" stroke="#878787" stroke-miterlimit="10" d="M149.533,136.821c0.099-0.016,0.198-0.033,0.296-0.049
				c2.53-0.173,5.06-0.365,7.589-0.56c6.771-0.255,13.541-0.647,20.31-1.086c-0.586,0.085-1.172,0.174-1.76,0.254
				c-4.543,0.295-9.089,0.509-13.635,0.728C158.065,136.313,153.797,136.533,149.533,136.821z"/>
			<path fill="none" stroke="#878787" stroke-miterlimit="10" d="M9.383,27.722c-0.007,0.415-0.013,0.83-0.021,1.244
				c-0.095-0.376-0.191-0.753-0.292-1.127c-0.126-0.468-0.44-0.64-0.807-0.631c-0.001-0.006-0.003-0.012-0.004-0.017
				c0.186-0.396,0.383-0.774,0.59-1.138C9.039,26.598,9.216,27.156,9.383,27.722z"/>
			<path fill="none" stroke="#878787" stroke-miterlimit="10" d="M23.838,18.589c-1.093,0.264-2.18,0.608-3.255,1.083
				c-0.153,0.068-0.344,0.217-0.533,0.408c0-0.201-0.002-0.402-0.002-0.601c-0.001-0.439-0.164-0.701-0.407-0.826
				c0.326-0.062,0.657-0.108,0.986-0.155C21.697,18.534,22.768,18.564,23.838,18.589z"/>
			<path fill="none" stroke="#878787" stroke-miterlimit="10" d="M37.176,13.041c-0.282,0.015-0.563,0.038-0.845,0.054
				c-0.11-0.113-0.253-0.203-0.435-0.261c-0.069-0.021-0.138-0.04-0.206-0.061C36.186,12.862,36.681,12.952,37.176,13.041z"/>
			<path fill="none" stroke="#878787" stroke-miterlimit="10" d="M7.437,9.078c0.419-2.59,2.808-2.632,4.767-2.424
				c-0.251,0-0.502,0.003-0.754,0.003c-1.451,0.001-2.424,2.97-0.563,3.051c7.725,0.334,15.434,1.035,23.141,1.765
				c-0.116,0.322-0.124,0.625,0.064,0.84c-7.323-1.94-14.829-1.589-22.265-1.569c-1.218,0.003-2.081,2.125-1.252,2.824
				c-1.147,0.138-2.294,0.194-3.439,0.109C7.123,12.131,7.192,10.59,7.437,9.078z"/>
			<path fill="none" stroke="#878787" stroke-miterlimit="10" d="M10.239,94.771c-0.014,0.032-0.03,0.063-0.037,0.094
				c-0.029,0.115-0.053,0.232-0.082,0.348c-0.818-3.667-1.813-7.26-3.02-10.764c0.015-1.469,0.034-2.917,0.049-4.339
				c0.619-0.319,1.199-1.091,1.234-1.845c0.029-0.629,0.054-1.258,0.08-1.887c0.341,0.881,0.71,1.735,1.132,2.539
				c0.165,4.101,0.409,8.193,0.767,12.272C10.319,92.383,10.277,93.578,10.239,94.771z"/>
			<path fill="none" stroke="#878787" stroke-miterlimit="10" d="M56.397,157.097c8.129-0.721,16.275-0.499,24.421-0.247
				c3.354,0.218,6.72,0.269,10.076,0.282c1.597,0.189,3.187,0.45,4.77,0.789C82.563,159.963,68.844,163.162,56.397,157.097z"/>
			<path fill="none" stroke="#878787" stroke-miterlimit="10" d="M119.688,157.352c-2.319-0.006-4.638-0.027-6.957-0.063
				c0.009-0.116-0.007-0.223-0.042-0.322c2.388-0.37,4.782-0.701,7.165-1.09C119.504,156.386,119.35,156.982,119.688,157.352z"/>
			<path fill="none" stroke="#878787" stroke-miterlimit="10" d="M171.392,156.103c-1.371-0.175-2.741-0.358-4.11-0.544
				c3.111-0.036,6.222-0.099,9.333-0.184C174.88,155.684,173.138,155.919,171.392,156.103z"/>
			<path fill="none" stroke="#878787" stroke-miterlimit="10" d="M212.607,60.383c-0.427,1.523-0.778,3.067-1.08,4.624
				c-0.162-0.714-0.335-1.421-0.522-2.122c0.011-12.077-0.738-24.138-1.786-36.149c2.479,6.732,4.431,13.786,5.717,21.073
				c-0.022,0.783-0.049,1.566-0.064,2.351c-0.713,3.138-1.326,6.308-1.849,9.504C212.83,59.886,212.677,60.133,212.607,60.383z"/>
			<path fill="none" stroke="#878787" stroke-miterlimit="10" d="M214.048,143.532c-0.015-0.586-0.014-1.183-0.003-1.785
				c0.895-0.613,1.164-2.439,0.085-2.76c0.008-0.206,0.018-0.414,0.025-0.618c0.239,0.042,0.478,0.081,0.717,0.126
				c0.23,1.6,0.476,3.197,0.755,4.782c0.019,0.103,0.055,0.179,0.091,0.254H214.048z"/>
		</g>
	</g>
	<g>
		<path fill="#FFFFFF" d="M42.146,129.426c0.823,0.09,1.581-0.584,2.131-1.107c0.675-0.642,1.278-1.412,1.643-2.273
			c0.145-0.34-0.459-0.809-0.639-0.386c-0.323,0.76-0.885,1.435-1.465,2.013c-0.448,0.446-1.141,1.099-1.827,1.023
			C41.54,128.646,41.783,129.386,42.146,129.426L42.146,129.426z"/>
	</g>
	<g>
		<path fill="#FFFFFF" d="M45.253,126.056c0.692,1.292,1.594,2.332,2.816,3.149c0.202,0.135,0.878-0.178,0.715-0.288
			c-1.197-0.8-2.086-1.804-2.766-3.074C45.897,125.617,45.163,125.887,45.253,126.056L45.253,126.056z"/>
	</g>
	<g>
		<path fill="#FFFFFF" d="M42.854,130.2c0.034,0.83,0.035,1.66,0.035,2.49c0,0.372,0.758,0.151,0.758-0.172
			c0-0.831-0.002-1.661-0.036-2.491C43.597,129.653,42.841,129.878,42.854,130.2L42.854,130.2z"/>
	</g>
	<g>
		<path fill="#FFFFFF" d="M43.517,133.266c1.492-0.014,2.969-0.188,4.452-0.335c0.518-0.051,0.025-0.492-0.284-0.461
			c-1.483,0.147-2.96,0.321-4.452,0.334C42.713,132.809,43.213,133.269,43.517,133.266L43.517,133.266z"/>
	</g>
	<g>
		<path fill="#FFFFFF" d="M48.11,133.012c0.006-0.487-0.114-0.941-0.191-1.419c-0.1-0.62,0.108-1.229,0.259-1.822
			c0.086-0.334-0.7-0.277-0.775,0.016c-0.126,0.492-0.298,0.998-0.29,1.512c0.01,0.629,0.223,1.224,0.216,1.855
			C47.327,133.452,48.107,133.342,48.11,133.012L48.11,133.012z"/>
	</g>
	<g>
		<path fill="#FFFFFF" d="M34.076,128.532c2.002,0.14,4.762-0.274,5.014,2.484c0.211,2.311-3.48,1.661-4.791,1.638
			c-0.226-0.004,0.138,0.662,0.389,0.666c1.272,0.021,2.569,0.27,3.803-0.156c1.219-0.42,1.347-1.757,0.926-2.821
			c-1.006-2.54-3.433-2.316-5.73-2.477C33.472,127.852,33.824,128.515,34.076,128.532L34.076,128.532z"/>
	</g>
	<g>
		<path fill="#FFFFFF" d="M53.806,128.812c0.062-0.723,0.032-1.447,0.094-2.17c-0.147,0.044-0.295,0.089-0.443,0.134
			c2.264,0.479,4.547,0.233,6.84,0.273c-0.144-0.094-0.288-0.188-0.432-0.282c0.068,1.002-0.213,1.958-0.334,2.944
			c-0.042,0.337-0.015,0.619,0.007,0.955c0.052,0.796-1.594,0.548-2.064,0.545c-0.524-0.004-0.323,0.496,0.091,0.499
			c0.927,0.006,1.813,0.026,2.681-0.335c0.084-0.036,0.179-0.091,0.156-0.201c-0.305-1.477,0.336-2.866,0.236-4.342
			c-0.012-0.173-0.292-0.28-0.432-0.282c-2.213-0.039-4.448,0.225-6.632-0.237c-0.109-0.023-0.428-0.049-0.443,0.134
			c-0.063,0.723-0.032,1.447-0.095,2.17C53.007,128.953,53.779,129.122,53.806,128.812L53.806,128.812z"/>
	</g>
	<path fill="#009FE3" d="M116.597,137.922c-1.248-0.882-3.272,0.401-2.486,1.9c-0.8-0.355-1.667-0.583-2.591-0.646
		c-1.103-0.075-2.582,1.207-1.832,2.252c-0.328,0.004-0.646,0.103-0.922,0.266c-0.116-0.104-0.232-0.208-0.348-0.312
		c-0.979-0.884-2.423-0.002-2.616,1.057c-0.177-0.143-0.353-0.286-0.53-0.429c-1.402-1.124-3.684,1.003-2.22,2.238
		c0.019,0.016,0.038,0.031,0.057,0.046c-1.375-0.239-2.928,1.338-1.629,2.47c0.766,0.668,1.554,1.307,2.353,1.931
		c-0.164-0.027-0.327-0.056-0.492-0.083c-1.799-0.295-2.879,2.546-0.874,2.875c0.91,0.148,1.814,0.303,2.714,0.478
		c-0.095,0.215-0.13,0.445-0.081,0.677c-0.011,0.011-0.023,0.022-0.034,0.033c-1.426-0.126-2.607,1.923-1.072,2.788
		c1.525,0.858,3.096,1.548,4.718,2.202c0.623,0.25,1.304,0.056,1.772-0.344c1.07,0.802,2.153,1.587,3.263,2.341
		c1.184,0.804,3.554-0.509,2.464-1.947c-0.071-0.094-0.147-0.184-0.221-0.277c1.178-0.073,2.278-1.437,1.396-2.372
		c0.023-0.189,0.002-0.38-0.082-0.565c1.351,0.407,3.004-1.106,1.958-2.266c0.344-0.962,0.509-1.987,0.512-3.024
		c0.942,0.401,2.354-0.394,2.285-1.47C121.816,143.883,119.766,140.162,116.597,137.922z"/>
	<path fill="#F6F6F6" d="M117.585,146.225c-0.788-2.404-2.624-5.197-4.841-6.505c-0.187-0.11,0.378,0.975,0.428,1.053
		c0.313,0.485,0.714,1.218,1.231,1.522c1.35,0.796,1.984,2.121,1.475,4.08c-0.216,0.833-0.833,1.51-1.6,1.997
		c-0.309-0.407-0.926-0.831-1.168-1.012c-0.094-0.07-1.105-0.819-1.105-0.408c0,0.747,0,1.494,0,2.24
		c-0.208,0.027-0.411,0.041-0.606,0.039c-0.27-0.002-0.51-0.088-0.745-0.197c-0.014-0.055-0.037-0.107-0.048-0.163
		c-0.231-0.939-0.202-1.95-0.049-2.897c0.264-1.628,1.19-3.205,2.848-3.663c-0.037,0.01-1.223-2.77-1.813-2.607
		c-2.657,0.734-3.229,4.038-2.884,6.399c0.235,1.611,1.581,4.41,3.298,5.374c0,0.372,0,0.744,0,1.116
		c0,0.492,1.021,1.182,1.351,1.429c0.093,0.07,1.105,0.82,1.105,0.407c0-0.899,0-1.799,0-2.698
		C116.871,151.205,118.403,148.719,117.585,146.225z"/>
	<g>
		<path d="M31.008,34.492c42.057,0.025,84.065,2.451,126.118,2.796c9.801,0.08,19.28-0.613,29.021-1.637
			c2.793-0.293,6.88-1.446,7.1,2.412c0.081,1.421-0.079,2.906-0.23,4.316c-0.242,2.258-0.952,3.299-3.264,3.088
			c-8.424-0.769-16.983-0.158-25.434-0.04c-10.232,0.144-20.412,1.314-30.641,1.543c-10.79,0.243-21.428-1.929-32.197-2.171
			c-9.336-0.21-18.574-0.958-27.873-1.804c-7.772-0.707-15.246-0.837-23.019-0.507c-4.376,0.186-8.497,0.954-12.825,1.5
			c-1.025,0.129-2.056,0.188-3.086,0.24c-2.596,0.131-2.699-0.765-2.487-2.984c0.237-2.485,1.038-4.74,0.958-7.266
			c-0.017-0.533-1.425,0.125-1.409,0.629c0.113,3.527-1.346,6.844-0.944,10.38c0.014,0.119,0.092,0.189,0.214,0.198
			c3.36,0.238,6.775-0.118,10.066-0.81c4.409-0.925,8.937-0.866,13.416-1.187c7.695-0.551,15.593,0.595,23.243,1.301
			c8.822,0.814,17.592,1.035,26.429,1.465c9.645,0.469,19.138,2.173,28.822,2.038c10.587-0.149,21.119-1.497,31.711-1.548
			c8.394-0.041,16.714-0.381,25.089,0.125c4.25,0.256,4.632-3.932,4.823-7.236c0.091-1.58,0.339-3.57-1.103-4.611
			c-2.031-1.467-6.838-0.08-8.956,0.152c-25.033,2.749-50.497,1.076-75.628,0.303c-25.639-0.789-51.278-1.696-76.932-1.711
			C31.532,33.466,30.391,34.492,31.008,34.492L31.008,34.492z"/>
	</g>
	<g>
		<path d="M33.875,54.227c1.556,20.354,0.505,40.842,0.307,61.229c-0.041,4.204-0.979,7.35,4.035,7.992
			c4.523,0.58,9.28,0.337,13.833,0.372c5.362,0.042,10.724-0.021,16.085-0.11c8.986-0.148,18.013-0.165,26.989-0.58
			c4.906-0.227,5.672-4.701,5.598-8.91c-0.063-3.584-0.975-7.175-1.672-10.671c-0.979-4.909-1.271-9.936-1.675-14.919
			c-0.386-4.738-0.621-9.443-0.621-14.196c0-4.71-0.327-9.556,0.09-14.248c0.417-4.675,0.487-7.865-4.41-9.614
			c-4.742-1.693-10.356-0.999-15.277-0.83c-8.416,0.288-16.882,0.032-25.303,0.032c-6.146,0-12.862-0.893-18.518,2.036
			c-0.936,0.484-0.021,1.215,0.729,0.826c4.039-2.091,8.676-1.848,13.093-1.76c5.129,0.104,10.267,0.021,15.397,0.021
			c7.598,0,15.26-0.409,22.851-0.178c3.021,0.093,6.615,0.375,8.976,2.479c2.503,2.232,0.832,7.965,0.832,10.953
			c0,9.883,0.155,19.626,1.026,29.478c0.34,3.845,0.743,7.599,1.497,11.384c0.833,4.173,1.892,8.485,1.252,12.754
			c-0.253,1.69-0.651,3.715-2.574,4.137c-1.33,0.292-2.82,0.148-4.173,0.166c-5.009,0.062-10.02,0.234-15.028,0.346
			c-10.287,0.229-20.577,0.396-30.866,0.201c-2.24-0.042-9.225,0.918-10.538-1.601c-0.437-0.839-0.244-2.087-0.205-2.991
			c0.089-2.035,0.122-4.062,0.128-6.1c0.071-19.313,1.154-38.64-0.32-57.928C35.354,53.208,33.824,53.561,33.875,54.227
			L33.875,54.227z"/>
	</g>
	<g>
		<path d="M105.829,54.054c15.262,0.889,30.556,0.512,45.828,1.082c7.01,0.261,13.987,0.862,20.958,1.623
			c6.143,0.67,12.455,1.375,18.568,0.124c-0.371-0.365-0.742-0.729-1.113-1.095c-4.838,10.716-5.277,22.613-5.107,34.188
			c0.085,5.81,0.221,11.637,0.64,17.432c0.184,2.551,0.427,5.095,0.772,7.629c0.201,1.473,0.804,2.749-1.153,2.916
			c-1.504,0.128-3.013,0.196-4.521,0.253c-11.868,0.456-23.778-0.813-35.627-1.314c-6.289-0.266-12.64-0.6-18.898,0.219
			c-6.947,0.91-13.638,2.936-20.692,3.037c0.342,0.302,0.685,0.605,1.027,0.907c-2.104-8.78,0.109-18.411,0.911-27.216
			c1.218-13.377-0.988-27.083-2.641-40.335c-0.051-0.414-1.313-1.277-1.237-0.67c1.704,13.661,3.765,27.545,2.51,41.327
			c-0.776,8.527-2.819,17.718-0.78,26.225c0.085,0.357,0.636,0.913,1.027,0.907c6.738-0.097,13.204-1.798,19.817-2.88
			c7.965-1.304,16.289-0.563,24.312-0.167c12.508,0.616,25.098,1.882,37.608,0.686c0.12-0.011,0.116-0.153,0.1-0.234
			c-2.02-10.089-1.894-20.776-1.95-31.031c-0.058-10.445,0.722-21.189,5.072-30.825c0.198-0.438-0.701-1.179-1.113-1.095
			c-6.375,1.305-12.956,0.458-19.355-0.24c-7.049-0.769-14.105-1.295-21.191-1.559c-14.86-0.554-29.739-0.17-44.59-1.035
			C104.417,52.875,105.412,54.03,105.829,54.054L105.829,54.054z"/>
	</g>
	<g>
		<path d="M177.675,37.084c0.27,2.302,0.313,4.605,0.314,6.92c0,0.613,1.447,0.012,1.447-0.548c0-2.315-0.044-4.618-0.315-6.92
			C179.046,35.896,177.611,36.539,177.675,37.084L177.675,37.084z"/>
	</g>
	<g>
		<path d="M186.417,36.413c-1.422,3.616,4.394,6.962,6.74,3.809c1.238-1.666,0.182-3.524-1.39-4.438
			c-1.661-0.964-3.964-0.99-5.538,0.145c-0.547,0.394,0.948,0.778,1.325,0.506c2.306-1.661,5.768,0.807,4.101,3.435
			c-0.831,1.311-1.974,0.891-2.912-0.042c-0.866-0.861-1.195-2.11-0.748-3.25C188.151,36.183,186.623,35.888,186.417,36.413
			L186.417,36.413z"/>
	</g>
	<g>
		<path d="M187.104,39.726c-1.625,0.671-3.141,1.542-4.556,2.585c-0.302,0.223-0.233,0.589,0.041,0.809
			c0.977,0.787,2.159,1.272,3.345,0.651c1.183-0.621,1.55-2.394,1.714-3.575c0.104-0.747-1.414-1.194-1.513-0.482
			c-0.113,0.819-0.287,1.66-0.693,2.39c-0.482,0.867-1.04,0.959-1.798,0.348c0.014,0.27,0.027,0.539,0.041,0.809
			c1.321-0.975,2.732-1.821,4.251-2.447C188.843,40.44,187.767,39.453,187.104,39.726L187.104,39.726z"/>
	</g>
	<path fill="none" d="M91.895,113.563"/>
	<path fill="none" d="M39.367,113.563"/>
	<g>
		<line x1="216.621" y1="159.614" x2="15.165" y2="159.614"/>
		<path d="M216.621,159.614c0,0-3.148,0.067-8.656,0.184c-2.754,0.047-6.099,0.104-9.936,0.168
			c-3.836,0.067-8.164,0.144-12.886,0.181c-4.722,0.05-9.836,0.102-15.247,0.158c-5.41,0.047-11.116,0.096-17.018,0.145
			c-5.902,0.027-12.001,0.055-18.198,0.083c-6.197,0.01-12.493,0.021-18.788,0.032c-6.296-0.01-12.591-0.021-18.788-0.032
			c-6.197-0.027-12.296-0.055-18.198-0.081c-11.804-0.057-22.821-0.219-32.264-0.303c-4.722-0.038-9.05-0.113-12.886-0.181
			c-3.836-0.066-7.181-0.123-9.935-0.17c-5.508-0.118-8.656-0.185-8.656-0.185s3.148-0.068,8.656-0.186
			c2.754-0.047,6.099-0.104,9.935-0.169c3.836-0.069,8.164-0.144,12.886-0.182c9.443-0.083,20.46-0.246,32.264-0.303
			c5.902-0.026,12.001-0.054,18.198-0.081c6.197-0.01,12.492-0.021,18.788-0.032c6.295,0.011,12.591,0.022,18.788,0.034
			c6.197,0.027,12.296,0.056,18.198,0.082c5.902,0.051,11.608,0.099,17.018,0.145c5.41,0.056,10.525,0.109,15.247,0.158
			c4.722,0.037,9.05,0.114,12.886,0.181c3.837,0.065,7.182,0.122,9.936,0.168C213.473,159.547,216.621,159.614,216.621,159.614z"/>
	</g>
	<path d="M10.188,4.097c0,0,3.147-0.067,8.656-0.185c2.754-0.047,6.098-0.103,9.936-0.168c3.836-0.067,8.164-0.144,12.886-0.181
		c4.722-0.049,9.836-0.102,15.247-0.158c5.41-0.045,11.116-0.095,17.018-0.145c5.902-0.026,12-0.054,18.198-0.082
		c6.197-0.011,12.493-0.022,18.788-0.034c6.296,0.011,12.591,0.021,18.788,0.032c6.198,0.027,12.296,0.055,18.198,0.081
		c11.804,0.057,22.822,0.219,32.264,0.302c4.722,0.039,9.05,0.113,12.886,0.182c3.836,0.065,7.181,0.122,9.936,0.169
		c5.508,0.118,8.656,0.186,8.656,0.186s-3.148,0.067-8.656,0.186c-2.754,0.047-6.099,0.104-9.936,0.169
		c-3.836,0.069-8.165,0.144-12.886,0.182c-9.442,0.083-20.46,0.246-32.264,0.303c-5.902,0.026-12,0.054-18.198,0.081
		c-6.197,0.011-12.492,0.021-18.788,0.032c-6.295-0.011-12.591-0.022-18.788-0.034c-6.197-0.027-12.296-0.055-18.198-0.082
		c-5.902-0.05-11.608-0.1-17.018-0.145C51.502,4.732,46.388,4.68,41.666,4.63c-4.722-0.037-9.05-0.114-12.886-0.181
		c-3.837-0.064-7.182-0.122-9.936-0.168C13.336,4.163,10.188,4.097,10.188,4.097z"/>
	<path d="M211.692,4.014c0,0,0.138,0.076,0.403,0.222c0.267,0.141,0.66,0.38,1.15,0.713c0.97,0.671,2.341,1.801,3.604,3.635
		c1.278,1.816,2.385,4.314,3.16,7.293c0.788,2.979,1.261,6.43,1.545,10.195c0.55,7.541,0.367,16.349,0.137,25.756
		c-0.232,9.411-0.477,19.441-0.37,29.465c0.069,5.015,0.157,10.021,0.482,14.93c0.319,4.918,0.704,9.765,1.042,14.461
		c0.308,4.698,0.597,9.248,0.74,13.57c0.14,4.323,0.196,8.417,0.121,12.2c-0.06,3.783-0.336,7.253-0.734,10.313
		c-0.404,3.058-0.997,5.712-1.821,7.796c-0.8,2.087-1.873,3.581-2.857,4.305c-0.481,0.372-0.908,0.571-1.197,0.685
		c-0.29,0.114-0.447,0.15-0.447,0.15l-0.058-0.181c0,0,0.147-0.047,0.414-0.178c0.265-0.13,0.65-0.349,1.073-0.734
		c0.858-0.753,1.795-2.208,2.433-4.273c0.646-2.06,1.096-4.671,1.364-7.691c0.275-3.021,0.317-6.456,0.306-10.201
		c-0.025-3.748-0.188-7.81-0.442-12.106c-0.25-4.296-0.534-8.829-0.866-13.521c-0.292-4.695-0.624-9.549-0.841-14.5
		c-0.238-4.958-0.23-9.997-0.219-15.021c0.034-10.057,0.419-20.101,0.784-29.504c0.344-9.402,0.706-18.181,0.298-25.679
		c-0.213-3.744-0.619-7.169-1.341-10.124c-0.709-2.954-1.751-5.424-2.971-7.228c-1.202-1.821-2.525-2.954-3.468-3.631
		c-0.476-0.337-0.851-0.575-1.118-0.723c-0.263-0.152-0.399-0.23-0.399-0.23L211.692,4.014z"/>
	<path d="M10.235,4.179c0,0-0.138,0.08-0.403,0.233c-0.271,0.151-0.649,0.392-1.125,0.74c-0.94,0.697-2.261,1.876-3.36,3.79
		c-1.107,1.901-1.955,4.48-2.413,7.519c-0.468,3.041-0.604,6.525-0.546,10.322c0.054,3.797,0.294,7.911,0.588,12.262
		c0.295,4.354,0.605,8.945,0.926,13.696c0.603,9.507,0.995,19.685,0.771,29.868c-0.076,5.097-0.411,10.179-0.593,15.157
		c-0.188,4.987-0.34,9.894-0.388,14.641c-0.102,4.746-0.05,9.332,0.046,13.672c0.109,4.341,0.366,8.438,0.815,12.189
		c0.458,3.746,1.045,7.163,1.935,10.081c0.879,2.918,2.032,5.336,3.329,7.081c1.29,1.76,2.722,2.772,3.737,3.341
		c0.511,0.29,0.927,0.467,1.208,0.585c0.285,0.11,0.431,0.167,0.431,0.167l-0.058,0.181c0,0-0.153-0.045-0.45-0.135
		c-0.295-0.097-0.734-0.246-1.282-0.501c-1.093-0.496-2.646-1.474-4.111-3.222c-0.732-0.868-1.45-1.91-2.095-3.114
		c-0.645-1.204-1.223-2.564-1.745-4.045c-1.031-2.968-1.846-6.42-2.397-10.22c-0.555-3.8-0.921-7.939-1.144-12.317
		c-0.239-4.38-0.245-9-0.202-13.773c0.096-4.773,0.287-9.699,0.578-14.697c0.273-5.009,0.696-10.057,0.861-15.114
		C3.515,72.444,3.269,62.301,2.8,52.802c-0.457-9.501-1.103-18.375-1.078-26.016c0.014-3.817,0.216-7.33,0.748-10.401
		c0.521-3.068,1.432-5.684,2.601-7.606C6.231,6.843,7.606,5.663,8.576,4.97c0.491-0.345,0.889-0.588,1.158-0.73
		c0.269-0.148,0.408-0.226,0.408-0.226L10.235,4.179z"/>
	<path d="M20.024,24.398c0,0,2.951-0.049,8.114-0.135c2.582-0.031,5.716-0.068,9.312-0.111c3.596-0.045,7.652-0.098,12.077-0.108
		c4.425-0.022,9.219-0.046,14.29-0.071c5.071-0.023,10.418-0.062,15.949-0.047c5.531,0.007,11.247,0.014,17.055,0.022
		c5.808,0.024,11.708,0.049,17.607,0.073c5.9,0.047,11.8,0.094,17.608,0.14c5.807,0.063,11.522,0.125,17.053,0.185
		c11.062,0.124,21.386,0.349,30.235,0.486c4.425,0.065,8.48,0.166,12.075,0.256c3.595,0.087,6.729,0.163,9.31,0.226
		c5.162,0.149,8.111,0.234,8.111,0.234s-2.95,0.05-8.113,0.137c-2.582,0.031-5.716,0.069-9.312,0.112
		c-3.596,0.047-7.652,0.097-12.078,0.108c-8.85,0.029-19.176,0.129-30.238,0.118c-5.531-0.007-11.247-0.016-17.055-0.022
		c-5.808-0.025-11.708-0.05-17.607-0.075c-5.9-0.047-11.799-0.094-17.607-0.14c-5.808-0.064-11.523-0.126-17.054-0.186
		c-5.531-0.053-10.877-0.157-15.947-0.243c-5.07-0.087-9.864-0.168-14.288-0.244c-4.425-0.064-8.48-0.166-12.075-0.255
		c-3.595-0.087-6.729-0.163-9.31-0.225C22.974,24.483,20.024,24.398,20.024,24.398z"/>
	<path d="M205.427,24.015c0,0,0.018,0.443,0.052,1.273c0.029,0.831,0.093,2.048,0.133,3.599c0.082,3.1,0.253,7.528,0.36,12.843
		c0.05,2.658,0.105,5.537,0.164,8.582c0.041,3.045,0.083,6.256,0.128,9.578c0.026,3.322,0.054,6.754,0.082,10.242
		c0.011,3.489,0.022,7.032,0.033,10.574c-0.011,3.544-0.021,7.087-0.032,10.575c0,3.487-0.057,6.92-0.081,10.242
		c-0.066,6.643-0.168,12.844-0.292,18.159c-0.106,5.314-0.279,9.744-0.361,12.844c-0.04,1.551-0.104,2.769-0.133,3.599
		c-0.034,0.831-0.052,1.273-0.052,1.273s-0.018-0.442-0.052-1.273c-0.03-0.831-0.093-2.048-0.133-3.599
		c-0.082-3.1-0.255-7.529-0.362-12.844c-0.123-5.315-0.225-11.516-0.292-18.159c-0.024-3.322-0.081-6.755-0.081-10.242
		c-0.011-3.488-0.021-7.031-0.032-10.575c0.011-3.542,0.022-7.085,0.033-10.574c0.028-3.488,0.056-6.92,0.082-10.242
		c0.044-3.321,0.087-6.533,0.128-9.578c0.058-3.045,0.113-5.924,0.164-8.582c0.107-5.315,0.279-9.744,0.36-12.843
		c0.041-1.55,0.104-2.768,0.133-3.599C205.409,24.458,205.427,24.015,205.427,24.015z"/>
	<path fill="#878787" d="M208.819,136.631c0,0-2.976,0.067-8.185,0.184c-2.604,0.047-5.767,0.104-9.395,0.168
		c-3.627,0.067-7.72,0.144-12.185,0.181c-4.465,0.049-9.301,0.102-14.417,0.157c-5.115,0.055-10.51,0.126-16.091,0.146
		c-5.581,0.027-11.348,0.054-17.208,0.083c-5.86,0.01-11.812,0.021-17.766,0.033c-5.953-0.01-11.906-0.021-17.765-0.033
		c-5.86-0.027-11.626-0.054-17.208-0.08c-11.162-0.057-21.579-0.219-30.508-0.303c-4.465-0.039-8.558-0.113-12.185-0.182
		c-3.627-0.065-6.79-0.122-9.394-0.169c-5.209-0.118-8.186-0.185-8.186-0.185s2.977-0.068,8.186-0.186
		c2.604-0.047,5.767-0.104,9.394-0.169c3.627-0.069,7.72-0.143,12.185-0.182c8.929-0.083,19.346-0.246,30.508-0.303
		c5.581-0.026,11.348-0.053,17.208-0.081c5.859-0.011,11.812-0.022,17.765-0.032c5.953,0.011,11.906,0.022,17.766,0.033
		c5.86,0.028,11.626,0.056,17.208,0.083c5.581,0.018,10.976,0.09,16.091,0.145c5.116,0.055,9.953,0.108,14.417,0.157
		c4.465,0.038,8.557,0.114,12.185,0.181c3.628,0.065,6.79,0.122,9.395,0.169C205.843,136.564,208.819,136.631,208.819,136.631z"/>
	<path d="M21.72,136.631c0,0-0.018-0.443-0.051-1.273c-0.03-0.83-0.093-2.048-0.133-3.599c-0.082-3.1-0.253-7.53-0.36-12.844
		c-0.051-2.657-0.106-5.536-0.164-8.581c-0.041-3.045-0.084-6.256-0.128-9.578c-0.027-3.322-0.054-6.754-0.083-10.242
		c-0.011-3.488-0.021-7.031-0.033-10.574c0.011-3.543,0.021-7.086,0.032-10.574c0-3.488,0.057-6.92,0.081-10.242
		c0.066-6.643,0.168-12.844,0.292-18.159c0.106-5.314,0.28-9.744,0.362-12.844c0.041-1.55,0.104-2.768,0.134-3.598
		c0.034-0.831,0.051-1.274,0.051-1.274s0.018,0.443,0.052,1.274c0.03,0.831,0.093,2.048,0.134,3.598
		c0.082,3.101,0.255,7.53,0.362,12.844c0.123,5.315,0.225,11.516,0.292,18.159c0.024,3.322,0.081,6.754,0.081,10.242
		c0.011,3.488,0.021,7.031,0.032,10.574c-0.011,3.543-0.022,7.086-0.033,10.574c-0.028,3.488-0.055,6.92-0.082,10.242
		c-0.044,3.322-0.088,6.533-0.128,9.578c-0.058,3.045-0.113,5.924-0.164,8.581c-0.107,5.314-0.279,9.744-0.36,12.844
		c-0.04,1.55-0.104,2.769-0.133,3.599C21.738,136.188,21.72,136.631,21.72,136.631z"/>
	<path d="M16.273,136.057c0,0,2.95-0.049,8.114-0.136c2.581-0.031,5.716-0.068,9.311-0.111c3.596-0.045,7.653-0.098,12.078-0.108
		c4.425-0.022,9.219-0.045,14.29-0.071c5.07-0.023,10.418-0.062,15.949-0.048c5.532,0.008,11.248,0.015,17.055,0.021
		c5.808,0.024,11.708,0.049,17.607,0.074c5.899,0.047,11.799,0.093,17.607,0.14c5.808,0.063,11.523,0.125,17.054,0.185
		c11.062,0.124,21.385,0.35,30.234,0.487c4.425,0.064,8.48,0.165,12.075,0.255c3.595,0.088,6.729,0.163,9.31,0.226
		c5.162,0.149,8.111,0.235,8.111,0.235s-2.95,0.049-8.114,0.136c-2.581,0.032-5.716,0.069-9.312,0.113
		c-3.595,0.047-7.652,0.096-12.077,0.107c-8.85,0.03-19.176,0.13-30.239,0.119c-5.531-0.007-11.247-0.015-17.055-0.023
		c-5.808-0.023-11.708-0.049-17.607-0.074c-5.9-0.047-11.799-0.094-17.607-0.141c-5.808-0.063-11.523-0.125-17.054-0.186
		c-5.531-0.053-10.877-0.157-15.947-0.242c-5.07-0.086-9.863-0.168-14.288-0.244c-4.425-0.064-8.48-0.166-12.076-0.255
		c-3.594-0.087-6.729-0.163-9.309-0.225C19.223,136.142,16.273,136.057,16.273,136.057z"/>
	<g>
		<path d="M53.264,162.087c7.883,4.323,14.114,9.656,16.091,18.773c1.861,8.581,0.637,19.836-9.067,22.844
			c-1.632,0.506,0.36,2.844,1.559,2.473c10.971-3.401,12.243-15.507,10.128-25.256c-2.17-10.007-9.604-16.172-18.203-20.888
			C51.92,159.018,51.809,161.289,53.264,162.087L53.264,162.087z"/>
	</g>
	<g>
		<path d="M159.384,159.917c-9.262,5.079-16.058,11.545-17.856,22.315c-1.627,9.75,1.072,20.663,11.467,23.885
			c1.993,0.619,1.137-1.933-0.216-2.353c-10.112-3.136-9.911-15.699-7.628-24.095c2.279-8.384,9.063-13.478,16.338-17.467
			C162.788,161.492,160.523,159.292,159.384,159.917L159.384,159.917z"/>
	</g>
	<path fill="#706F6F" d="M167.308,216.483c-0.585-0.387-1.175-0.765-1.766-1.137c0-0.079-0.012-0.16-0.041-0.244
		c-0.033-0.097-0.074-0.183-0.108-0.277c0.004-0.001,0.008-0.001,0.012-0.002c-0.024-0.049-0.046-0.097-0.069-0.145
		c-0.145-0.366-0.302-0.717-0.478-1.042c0.684-0.445,1.108-1.141,0.077-1.59c-0.311-0.137-0.626-0.253-0.94-0.375
		c-0.168-0.435-0.326-0.874-0.467-1.321c0.087-0.223-0.048-0.621-0.29-1.039c-0.029-0.115-0.068-0.225-0.095-0.342
		c-0.093-0.398-0.402-0.646-0.79-0.772c-0.217-0.196-0.427-0.332-0.592-0.35c-0.364-0.042-0.729-0.079-1.093-0.12
		c-0.108-0.763-1.049-2.239-1.738-2.239c-7.077,0-14.155,0-21.232,0c-0.878,0,0.677,2.59,1.506,2.685
		c0.395,0.045,0.791,0.086,1.187,0.129c-0.031,0.236-0.002,0.49,0.095,0.738c-1.45-0.641-2.893-1.296-4.317-1.994
		c-0.582-0.285-1.066-0.248-1.408-0.036c-4.001-1.888-8.074-3.628-12.169-5.319c-1.831-0.755-1.881,1.741-0.731,2.561
		c0.319,0.228,0.638,0.456,0.957,0.684c-1.954-0.789-3.911-1.571-5.888-2.302c-1.735-0.642-2.129,1.857-0.731,2.561
		c1.246,0.628,2.479,1.272,3.7,1.936c-1.302-0.403-2.606-0.801-3.912-1.193c-1.037-0.312-1.551,0.304-1.56,1.04
		c-0.886-0.368-1.778-0.722-2.687-1.04c-1.651-0.578-1.907,1.348-1.07,2.305c0.463,0.531,0.962,1.023,1.475,1.499
		c-3.823-1.6-7.596-3.316-11.363-5.054c-1.86-0.859-2.734,1.424-1.097,2.396c0.686,0.407,1.376,0.808,2.067,1.207
		c-2.011-0.643-4.032-1.261-6.054-1.88c-1.264-0.387-1.839,0.784-1.505,1.711c-0.057,0.212-0.062,0.445-0.011,0.682
		c-3.913-0.49-7.81-1.114-11.687-1.901c-0.504-0.104,0.045,1.334,0.678,2.134c-1.261-0.369-2.551-0.657-3.889-0.813
		c-0.546-0.063-0.907,0.185-1.092,0.551c-2.607-1.21-5.262-2.319-7.972-3.308c-1.79-0.653-2.02,1.779-0.731,2.561
		c0.747,0.454,1.5,0.895,2.256,1.329c-0.319-0.03-0.639-0.061-0.958-0.092c-2.192-0.893-4.419-1.705-6.7-2.383
		c-1.247-0.372-1.727,0.572-1.503,1.47c-0.126-0.016-0.252-0.033-0.378-0.05c-0.146-0.044-0.29-0.063-0.43-0.06
		c-0.958-0.127-1.915-0.256-2.871-0.396c-0.973-0.144,0.811,2.327,1.05,2.508c0.096,0.074,0.199,0.143,0.299,0.212
		c0.133,0.297,0.37,0.571,0.744,0.764c0.381,0.197,0.755,0.405,1.129,0.612c0.088,0.202,0.225,0.392,0.418,0.548
		c0.104,0.083,0.21,0.161,0.315,0.244c-1.154-0.096-2.313-0.156-3.483-0.17c-0.53-0.007-0.107,1.162,0.51,1.96
		c-1.428-0.028-2.856-0.064-4.285-0.073c-0.808-0.005,0.577,2.678,1.506,2.685c2.111,0.021,4.225,0.123,6.331,0.102
		c2.116,0.018,4.229-0.028,6.333-0.245c0.941,0.42,1.91,0.793,2.915,1.109c1.127,0.354,1.592-0.343,1.525-1.136
		c1.891,0.94,3.77,1.906,5.658,2.856c1.844,0.928,2.724-1.439,1.097-2.396c-0.944-0.556-1.877-1.128-2.812-1.698
		c1.592,0.86,3.233,1.639,4.912,2.374c1.47,0.641,1.96-1.19,1.188-2.173c1.49,0.569,2.978,1.146,4.474,1.699
		c0.323,0.12,0.585,0.138,0.802,0.095c1.282,0.168,1.693-1.759,0.401-2.656c-0.142-0.098-0.287-0.193-0.43-0.29
		c0.308,0,0.614,0,0.922,0c1.782,0.84,3.561,1.684,5.383,2.379c1.288,0.492,1.758-0.651,1.442-1.621
		c2.024,0.881,4.051,1.757,6.107,2.566c1.211,0.476,1.769-0.642,1.506-1.59c1.228,0.371,2.455,0.745,3.684,1.116
		c0.861,0.261,1.347-0.104,1.497-0.648c0.008,0.005,0.017,0.009,0.024,0.013c1.403,0.676,2.24-0.488,1.86-1.515
		c0.437,0.012,0.875,0.027,1.312,0.039c0.044,0.021,0.088,0.04,0.132,0.061c0.534,0.26,1.043,0.202,1.422-0.025
		c3.987,0.092,7.975,0.135,11.964,0.153c0.377,0.17,0.754,0.345,1.135,0.508c0.794,0.341,1.266,0.025,1.438-0.499
		c1.877,0.005,3.754,0.007,5.631,0.007c0.127,0,0.198-0.06,0.232-0.155c3.981,0.04,7.968-0.078,11.954-0.09
		c0.333-0.001,0.635-0.086,0.893-0.22c0.556,0.259,1.111,0.521,1.662,0.792c1.509,0.74,2.768-0.962,1.493-2.086
		c0.364-0.041,0.628-0.271,0.778-0.589c1.003,0.1,2.006,0.193,3.01,0.275c0.594,0.336,1.19,0.669,1.796,0.986
		c0.587,0.306,1.074,0.27,1.414,0.047c1.286,0.705,2.53,1.49,3.776,2.312c0.603,0.397,1.094,0.357,1.423,0.099
		c0.949,0.581,1.891,1.174,2.824,1.789C167.944,220.024,168.861,217.509,167.308,216.483z M140.482,212.875
		c0.043,0.028,0.087,0.055,0.131,0.082c-0.733-0.059-1.465-0.125-2.196-0.197C139.105,212.8,139.793,212.842,140.482,212.875z
		 M133.55,209.935c-0.088-0.286-0.236-0.559-0.44-0.78c0.513,0.24,1.023,0.485,1.534,0.729
		C134.28,209.903,133.915,209.919,133.55,209.935z"/>
	<g opacity="0.8">
		<path fill="#706F6F" d="M72.566,167.985c15.215,4.708,22.412,21.63,36.948,27.713c1,0.418,3.863-0.633,2.192-1.333
			c-14.776-6.185-21.988-23.13-37.602-27.961C72.893,166.03,70.576,167.37,72.566,167.985L72.566,167.985z"/>
	</g>
	<g opacity="0.8">
		<path fill="#706F6F" d="M90.618,169.463c12,6.205,24.82,11.405,35.252,20.186c0.337,0.285-0.774-2.033-1.264-2.445
			c-10.529-8.862-23.411-14.129-35.524-20.392C89.29,166.92,89.839,169.061,90.618,169.463L90.618,169.463z"/>
	</g>
	<g opacity="0.8">
		<path fill="#706F6F" d="M88.312,169.643c7.884,6.075,15.236,12.799,23.12,18.874c1.65,1.272,2.604-0.973,1.188-2.065
			c-7.884-6.075-15.236-12.799-23.12-18.874C87.849,166.306,86.895,168.55,88.312,169.643L88.312,169.643z"/>
	</g>
	<g opacity="0.8">
		<path fill="#706F6F" d="M111.056,166.622c7.007,4.671,14.021,9.333,21.233,13.683c0.726,0.438-0.294-2.27-0.891-2.629
			c-7.212-4.351-14.226-9.013-21.233-13.683C109.481,163.537,110.473,166.234,111.056,166.622L111.056,166.622z"/>
	</g>
	<g opacity="0.8">
		<path fill="#706F6F" d="M77.468,181.501c6.799,6.759,14.019,13.098,21.897,18.575c0.558,0.389-0.549-2.153-1.103-2.538
			c-7.739-5.381-14.833-11.59-21.511-18.229C75.748,178.312,77.082,181.118,77.468,181.501L77.468,181.501z"/>
	</g>
	<g>
		<path fill="#706F6F" d="M104.985,169.596c7.743,3.59,16.003,6.851,22.022,13.127c0.567,0.591,3.082,0.101,3.065,0.083
			c-6.092-6.352-14.498-9.662-22.331-13.294C107.153,169.238,104.499,169.37,104.985,169.596L104.985,169.596z"/>
	</g>
	<g>
		<path fill="#706F6F" d="M126.142,168.989c4.297,3.294,8.914,6.141,13.211,9.436c0.657,0.504-0.292-2.205-0.865-2.645
			c-4.298-3.295-8.914-6.141-13.212-9.436C124.619,165.84,125.569,168.549,126.142,168.989L126.142,168.989z"/>
	</g>
	<g>
		<path d="M57.668,216.768c0.212-2.866-0.932-8.29,1.953-10.096c1.716-1.075-0.095-3.491-1.654-2.514
			c-4.319,2.705-3.13,8.203-3.451,12.551C54.382,218.514,57.528,218.667,57.668,216.768L57.668,216.768z"/>
	</g>
	<g>
		<path d="M59.28,207.316c35.366,4.074,70.889-4.982,106.177,0.472c1.98,0.306,1.411-2.613-0.199-2.863
			c-35.302-5.456-70.814,3.602-106.177-0.472C57.089,204.225,57.655,207.129,59.28,207.316L59.28,207.316z"/>
	</g>
	<g>
		<path d="M164.818,206.119c1.456,2.704,2.723,5.515,2.474,8.656c-0.074,0.944,2.254,2.722,2.308,2.038
			c0.292-3.706-1.212-7.026-2.931-10.218C166.227,205.772,163.845,204.312,164.818,206.119L164.818,206.119z"/>
	</g>
	<g>
		<path d="M55.758,218.503c19.156,1.738,38.306,0.471,57.478-0.196c19.331-0.672,38.642,0.782,57.965,0.196
			c0.324-0.01-0.923-2.609-1.648-2.587c-19.323,0.586-38.634-0.833-57.965-0.197c-19.179,0.633-38.316,1.935-57.478,0.197
			C53.884,215.896,54.976,218.432,55.758,218.503L55.758,218.503z"/>
	</g>
</g>
</svg>
