<?xml version="1.0" encoding="utf-8"?>
<!-- Generator: Adobe Illustrator 16.0.0, SVG Export Plug-In . SVG Version: 6.00 Build 0)  -->
<!DOCTYPE svg PUBLIC "-//W3C//DTD SVG 1.1//EN" "http://www.w3.org/Graphics/SVG/1.1/DTD/svg11.dtd">
<svg version="1.1" id="Capa_1" xmlns="http://www.w3.org/2000/svg" xmlns:xlink="http://www.w3.org/1999/xlink" x="0px" y="0px"
	 width="190.134px" height="150.761px" viewBox="0 0 190.134 150.761" enable-background="new 0 0 190.134 150.761"
	 xml:space="preserve">
<g>
	<g opacity="0.9">
		<path fill="#FFCC00" d="M63.561,43.36c13.509,14.065,28.771,26.274,43.967,38.441c11.1,8.887,22.215,17.777,32.689,27.403
			c0.959-1.242,1.918-2.486,2.878-3.729c-4.198-2.806-8.247-5.817-12.285-8.846c-1.039-0.779-2.651-0.169-3.25,0.852
			c-0.71,1.214-0.181,2.475,0.852,3.25c4.038,3.027,8.087,6.039,12.285,8.845c2.252,1.505,4.854-1.914,2.878-3.729
			c-14.373-13.211-29.934-25.029-45.045-37.363c-10.991-8.97-21.774-18.242-31.61-28.482c-0.896-0.934-2.458-0.9-3.358,0
			C62.632,40.931,62.665,42.428,63.561,43.36L63.561,43.36z"/>
	</g>
	<g opacity="0.9">
		<path fill="#FFCC00" d="M68.464,34.887c15.777,12.004,30.28,25.844,44.902,39.292c8.451,7.772,16.974,15.476,25.868,22.742
			c0.959-1.243,1.918-2.486,2.878-3.729c-7.264-4.379-13.701-9.889-20.158-15.354c-0.987-0.835-2.387-0.971-3.358,0
			c-0.858,0.858-0.989,2.521,0,3.359c6.752,5.714,13.521,11.516,21.119,16.096c0.913,0.55,2.131,0.375,2.878-0.372
			c0.846-0.847,1.004-2.538,0-3.358c-15.539-12.696-29.941-26.695-44.818-40.143c-8.699-7.863-17.578-15.531-26.913-22.635
			c-1.033-0.785-2.655-0.162-3.25,0.853C66.898,32.857,67.436,34.104,68.464,34.887L68.464,34.887z"/>
	</g>
	<g opacity="0.9">
		<path fill="#FFCC00" d="M77.931,37.475c9.559,14.448,23.563,25.031,37.062,35.545c7.514,5.854,15.032,11.759,21.784,18.496
			c0.959-1.243,1.918-2.486,2.878-3.729c-5.196-2.864-9.335-6.981-13.77-10.931c-0.966-0.859-2.404-0.955-3.358,0
			c-0.875,0.875-0.967,2.497,0,3.358c4.677,4.166,9.202,8.626,14.73,11.673c2.351,1.297,4.817-1.795,2.878-3.729
			c-12.169-12.143-26.666-21.597-39.603-32.856c-3.533-3.074-6.945-6.293-10.141-9.718c-3.216-3.446-5.812-6.655-8.359-10.506
			c-0.713-1.077-2.085-1.534-3.249-0.853C77.713,34.852,77.216,36.394,77.931,37.475L77.931,37.475z"/>
	</g>
	<g opacity="0.9">
		<path fill="#FFCC00" d="M70.44,27.637c12.238,14.659,26.887,27.045,41.787,38.895c9.474,7.535,19.101,14.875,28.48,22.527
			c1.002,0.818,2.375,0.984,3.358,0c0.853-0.852,0.996-2.529,0-3.357c-2.851-2.374-5.75-4.694-8.834-6.76
			c-1.077-0.722-2.625-0.213-3.249,0.852c-0.685,1.168-0.222,2.53,0.852,3.25c2.814,1.884,5.269,3.848,7.873,6.016
			c1.12-1.119,2.239-2.238,3.358-3.357c-14.887-12.146-30.403-23.518-44.933-36.1c-9.033-7.822-17.67-16.143-25.334-25.324
			c-0.831-0.994-2.505-0.854-3.358,0C69.464,25.254,69.611,26.643,70.44,27.637L70.44,27.637z"/>
	</g>
	<g opacity="0.9">
		<path fill="#FFCC00" d="M79.285,28.619c15.304,13.732,30.707,27.369,45.394,41.768c4.27,4.186,8.473,8.439,12.59,12.775
			c1.119-1.119,2.239-2.238,3.358-3.357c-3.254-2.799-6.304-5.812-9.336-8.846c-2.167-2.168-5.526,1.191-3.358,3.358
			c3.033,3.032,6.083,6.047,9.336,8.845c0.98,0.844,2.392,0.967,3.358,0c0.933-0.932,0.891-2.42,0-3.357
			c-14.24-15-29.506-28.979-44.88-42.797c-4.363-3.921-8.737-7.83-13.104-11.748c-0.962-0.863-2.407-0.951-3.358,0
			C78.407,26.139,78.321,27.754,79.285,28.619L79.285,28.619z"/>
	</g>
	<g opacity="0.9">
		<path fill="#FFCC00" d="M82.845,28.629c4.904,7.315,11.481,13.264,18.316,18.732c6.936,5.549,13.973,10.313,20.512,16.08
			c7.549,6.658,14.959,13.474,22.956,19.602c0.834,0.639,2.193,0.312,2.877-0.372c0.902-0.901,0.933-2.46,0-3.358
			c-0.969-0.934-2.024-1.566-2.948-2.457c-0.932-0.897-2.431-0.928-3.358,0c-0.902,0.902-0.932,2.461,0,3.358
			c0.969,0.934,2.024,1.566,2.948,2.457c0.959-1.243,1.919-2.487,2.878-3.729c-8.073-6.187-15.503-13.162-23.139-19.865
			c-3.252-2.855-6.773-5.43-10.221-8.041c-3.554-2.691-6.77-5.104-10.183-7.867c-3.146-2.545-6.206-5.203-9.076-8.057
			c-2.859-2.843-5.331-5.703-7.46-8.879c-0.719-1.072-2.08-1.537-3.249-0.852C82.632,26.004,82.123,27.553,82.845,28.629
			L82.845,28.629z"/>
	</g>
	<g opacity="0.9">
		<path fill="#FFCC00" d="M82.354,21.75c4.247,7.306,10.674,13.031,17.24,18.207c3.417,2.694,6.924,5.271,10.39,7.904
			c1.557,1.182,2.842,2.177,4.497,3.524c1.708,1.391,3.391,2.815,5.079,4.231c10.239,8.59,20.05,17.711,30.966,25.459
			c1.058,0.752,2.639,0.191,3.249-0.852c0.701-1.197,0.196-2.494-0.852-3.249c-3.213-2.313-6.048-5.175-8.855-7.981
			c-2.167-2.168-5.526,1.19-3.358,3.357c3.105,3.105,6.245,6.152,9.817,8.725c0.799-1.366,1.598-2.733,2.397-4.101
			c-8.148-5.784-15.668-12.39-23.223-18.92c-6.815-5.891-13.727-11.606-20.93-17.017c-8.14-6.115-17.154-12.809-22.315-21.686
			C84.917,16.707,80.811,19.098,82.354,21.75L82.354,21.75z"/>
	</g>
	<g opacity="0.9">
		<path fill="#FFCC00" d="M91.116,18.234c0.242-1.161,0.146-2.376-0.727-3.27c-0.78-0.797-1.829-1.025-2.897-0.812
			c-1.335,0.268-2.173,1.844-1.78,3.104c0.39,1.253,1.523,1.839,2.722,2.099c0.322,0.07,0.652,0.11,0.98,0.141
			c-0.817-0.074-0.432-0.062-0.234-0.025c0.212,0.039,0.42,0.098,0.625,0.16c0.191,0.06,0.974,0.383,0.204,0.053
			c0.277,0.119,0.546,0.256,0.812,0.396c0.509,0.27,0.996,0.579,1.474,0.9c0.261,0.174,0.517,0.357,0.771,0.543
			c0.132,0.097,0.262,0.195,0.392,0.294c-0.534-0.404,0.083,0.067,0.183,0.147c5.054,4.031,9.307,9.079,13.552,13.922
			c1.542,1.76,3.031,3.648,4.759,5.232c3.931,3.602,7.915,7.145,11.906,10.68c7.823,6.929,15.682,13.822,23.238,21.045
			c1.119-1.12,2.239-2.239,3.358-3.359c-4.105-3.592-8.208-7.187-12.285-10.811c-0.967-0.858-2.403-0.955-3.358,0
			c-0.875,0.875-0.968,2.499,0,3.359c4.077,3.623,8.179,7.219,12.285,10.811c0.973,0.852,2.398,0.96,3.358,0
			c0.899-0.9,0.936-2.465,0-3.359c-7.634-7.295-15.575-14.257-23.478-21.256c-3.991-3.535-7.971-7.082-11.902-10.684
			c-1.732-1.587-3.214-3.523-4.759-5.285c-3.433-3.917-6.888-7.842-10.708-11.391c-1.722-1.6-3.547-3.145-5.541-4.397
			c-0.875-0.55-1.811-0.997-2.782-1.348c-0.338-0.122-0.687-0.212-1.042-0.269c-0.243-0.033-0.487-0.066-0.73-0.099
			c-0.414-0.047,0.675,0.126-0.037-0.028c-0.12-0.028-0.239-0.062-0.356-0.101c0.106,0.046,0.211,0.092,0.317,0.138
			c-0.687-0.404-0.377,0.189,0.93,1.781c-0.108,0.398-0.216,0.799-0.324,1.198c-0.667,1.383-2.149,1.231-3.071,0.518
			c-0.2-0.209-0.338-0.452-0.416-0.73c-0.016-0.132-0.032-0.263-0.048-0.395c-0.008,0.242,0.002,0.187,0.029-0.165
			c-0.263,1.266,0.352,2.561,1.659,2.92C89.382,20.22,90.853,19.502,91.116,18.234L91.116,18.234z"/>
	</g>
	<g opacity="0.9">
		<path fill="#FFCC00" d="M87.639,3.559c13.225,15.468,27.866,29.631,42.54,43.703c7.815,7.496,15.646,14.977,23.306,22.633
			c0.959-1.242,1.918-2.486,2.878-3.729c-1.622-1.089-3.012-2.158-4.433-3.56c-2.182-2.151-5.542,1.205-3.358,3.358
			c1.636,1.613,3.489,3.022,5.395,4.303c2.282,1.532,4.751-1.857,2.877-3.729c-14.435-14.43-29.483-28.23-43.875-42.703
			c-7.585-7.629-14.979-15.455-21.971-23.635c-0.842-0.984-2.497-0.861-3.358,0C86.67,1.168,86.798,2.575,87.639,3.559L87.639,3.559
			z"/>
	</g>
	<g opacity="0.9">
		<path fill="#FFCC00" d="M97.586,11.432c10.941,15.35,24.979,28.139,39.391,40.154c7.231,6.029,14.61,11.876,21.912,17.818
			c1.003,0.815,2.374,0.984,3.358,0c0.905-0.906,0.928-2.457,0-3.359c-1.084-1.055-2.355-1.893-3.44-2.948
			c-0.927-0.901-2.434-0.925-3.358,0c-0.905,0.905-0.928,2.456,0,3.358c1.085,1.055,2.355,1.894,3.44,2.949
			c1.12-1.12,2.239-2.24,3.358-3.359c-14.563-11.851-29.464-23.365-42.841-36.58c-6.444-6.365-12.553-13.184-17.719-20.431
			c-0.75-1.052-2.056-1.552-3.249-0.853C97.397,8.792,96.833,10.375,97.586,11.432L97.586,11.432z"/>
	</g>
	<g opacity="0.9">
		<path fill="#FFCC00" d="M128.413,19.162c11.834,7.609,20.793,18.912,30.968,28.621c2.216,2.113,5.496-1.158,3.358-3.359
			c-0.764-0.785-1.296-1.762-2.086-2.959c-0.712-1.078-2.086-1.533-3.249-0.852c-1.07,0.627-1.566,2.168-0.852,3.249
			c0.89,1.348,1.696,2.755,2.829,3.921c1.119-1.12,2.239-2.239,3.358-3.359c-10.475-9.994-19.631-21.455-31.929-29.362
			c-1.09-0.7-2.616-0.229-3.25,0.853C126.886,17.066,127.326,18.464,128.413,19.162L128.413,19.162z"/>
	</g>
	<g opacity="0.9">
		<path fill="#FFCC00" d="M139.845,18.311c8.424,10.91,16.388,22.39,26.906,31.438c2.082,1.791,4.907-0.418,3.729-2.877
			c-4.743-9.91-13.669-16.617-18.181-26.535c-1.083,1.083-2.166,2.166-3.249,3.249c0.004,0.003,0.612,0.472,0.267,0.2
			c0.248,0.195,0.49,0.398,0.731,0.604c0.427,0.362,0.838,0.742,1.243,1.129c0.891,0.848,1.724,1.754,2.53,2.682
			c1.636,1.886,2.816,3.511,4.309,5.6c2.919,4.087,5.697,8.317,9.112,12.019c1.811,1.962,5.291-0.652,3.73-2.878
			c-3.313-4.725-6.845-9.303-9.828-14.25c-0.667-1.107-2.121-1.513-3.25-0.852c-1.104,0.646-1.521,2.139-0.852,3.248
			c2.982,4.947,6.515,9.526,9.828,14.25c1.243-0.959,2.486-1.918,3.729-2.877c-3.309-3.586-5.871-7.582-8.823-11.69
			c-2.997-4.169-6.177-8.207-10.33-11.284c-0.846-0.627-2.185-0.322-2.877,0.371c-0.812,0.812-0.82,1.892-0.372,2.877
			c2.286,5.025,5.761,9.367,9.214,13.627c3.335,4.115,6.612,7.989,8.967,12.908c1.243-0.959,2.486-1.918,3.73-2.877
			c-10.252-8.82-17.977-19.875-26.164-30.477c-0.789-1.023-2.023-1.57-3.249-0.853C139.688,15.652,139.052,17.283,139.845,18.311
			L139.845,18.311z"/>
	</g>
	<g opacity="0.9">
		<path fill="#FFCC00" d="M157.296,28.062c2.434,9.373,1.938,19.275,3.355,28.932c0.13,0.884-0.027-0.345,0.032,0.223
			c0.017,0.156,0.031,0.312,0.045,0.469c0.03,0.326,0.056,0.653,0.08,0.98c0.057,0.769,0.097,1.539,0.133,2.309
			c0.078,1.66,0.125,3.322,0.18,4.983c0.121,3.626,0.269,7.255,0.679,10.862c0.596,5.242,1.583,11.26,5.443,15.188
			c0.592,0.602,1.499,0.834,2.311,0.61c1.099-0.302,1.632-1.224,1.744-2.29c1-9.571-3.832-18.455-5.49-27.657
			c-1.527,0.421-3.053,0.841-4.58,1.263c4.96,12.445,7.861,25.598,9.828,38.818c0.191,1.283,1.789,1.971,2.921,1.659
			c1.36-0.374,1.849-1.642,1.659-2.921c-1.966-13.221-4.868-26.374-9.828-38.819c-0.479-1.202-1.568-2.03-2.921-1.659
			c-1.331,0.367-1.888,1.648-1.659,2.922c0.809,4.49,2.347,8.811,3.586,13.191c1.261,4.461,2.215,8.598,1.735,13.203
			c1.351-0.561,2.703-1.119,4.054-1.68c-0.218-0.221-0.424-0.451-0.623-0.689c-0.353-0.424,0.315,0.429-0.015-0.021
			c-0.096-0.13-0.186-0.264-0.275-0.398c-0.407-0.607-0.747-1.258-1.054-1.922c-0.046-0.1-0.281-0.653-0.043-0.082
			c-0.069-0.167-0.134-0.336-0.199-0.504c-0.133-0.346-0.252-0.697-0.368-1.049c-0.262-0.799-0.476-1.615-0.668-2.434
			c-0.187-0.797-0.339-1.602-0.478-2.408c-0.071-0.416-0.134-0.832-0.195-1.25c-0.102-0.701,0.062,0.492-0.03-0.215
			c-0.037-0.285-0.071-0.57-0.104-0.855c-0.212-1.814-0.346-3.638-0.45-5.461c-0.198-3.459-0.251-6.924-0.409-10.385
			c-0.18-3.977-0.796-7.487-1.116-11.438c-0.613-7.598-0.772-15.319-2.699-22.736c-0.325-1.253-1.688-1.998-2.921-1.659
			C157.693,25.488,156.971,26.811,157.296,28.062L157.296,28.062z"/>
	</g>
	<g opacity="0.9">
		<path fill="#FFCC00" d="M164.582,72.146c0.361,4.931,0.386,9.887,0.558,14.826c0.226,6.491,0.561,12.985,1.293,19.441
			c0.657,5.793,1.548,11.646,3.424,17.185c1.485,4.386,3.688,8.931,7.695,11.53c1.438,0.933,3.725-0.271,3.574-2.051
			c-0.302-3.559-1.429-6.828-2.852-10.08c-1.274-2.911-2.957-5.983-4.112-8.732c-0.501-1.192-1.551-2.035-2.921-1.658
			c-1.127,0.31-2.162,1.725-1.659,2.921c2.417,5.752,6.282,11.503,6.795,17.55c1.191-0.684,2.382-1.367,3.573-2.051
			c-0.194-0.125-0.383-0.256-0.569-0.394c0.678,0.501-0.005-0.014-0.158-0.146c-0.398-0.346-0.766-0.726-1.115-1.12
			c-0.167-0.188-0.327-0.386-0.485-0.583c0.505,0.636-0.061-0.094-0.171-0.25c-0.34-0.481-0.649-0.984-0.943-1.494
			c-0.287-0.498-0.549-1.01-0.799-1.527c-0.13-0.27-0.253-0.541-0.375-0.814c-0.056-0.125-0.268-0.623-0.001,0.008
			c-0.081-0.189-0.158-0.381-0.234-0.573c-0.506-1.265-0.93-2.56-1.312-3.866c-0.849-2.91-1.444-5.892-1.927-8.882
			c-0.123-0.763-0.236-1.526-0.343-2.292c-0.014-0.096-0.102-0.748-0.021-0.141c-0.026-0.195-0.051-0.389-0.076-0.583
			c-0.059-0.456-0.114-0.911-0.168-1.367c-0.196-1.644-0.359-3.292-0.505-4.941c-0.5-5.675-0.739-11.368-0.922-17.06
			c-0.138-4.283-0.179-8.58-0.492-12.855c-0.095-1.29-1.009-2.375-2.375-2.375C165.733,69.771,164.487,70.854,164.582,72.146
			L164.582,72.146z"/>
	</g>
	<g opacity="0.9">
		<path fill="#FFCC00" d="M161.958,96.932c7.709,11.362,11.533,24.461,17.198,36.854c0.124-0.959,0.248-1.918,0.372-2.877
			c0.094-0.081,0.189-0.162,0.283-0.242c0.399-0.108,0.799-0.217,1.199-0.324c-0.028,0-0.055,0-0.083-0.001
			c0.399,0.108,0.799,0.216,1.199,0.324c0.222,0.138,0.4,0.319,0.535,0.542c-0.189-0.252-0.381-0.502-0.578-0.746
			c-0.303-0.377-0.736-0.668-1.152-0.907c-2.657-1.534-5.048,2.571-2.397,4.101c0.259,0.155,0.279,0.163,0.061,0.023
			c0.186,0.212,0.174,0.188-0.035-0.074c0.293,0.393,0.624,0.904,1.091,1.126c1.207,0.573,2.229,0.378,3.235-0.464
			c0.866-0.725,0.79-1.963,0.371-2.877c-5.54-12.119-9.539-25.566-17.198-36.854c-0.726-1.069-2.076-1.54-3.249-0.853
			C161.75,94.304,161.229,95.859,161.958,96.932L161.958,96.932z"/>
	</g>
	<g opacity="0.9">
		<path fill="#FFCC00" d="M162.701,112.089c0.5,2.108,1.416,4.12,2.288,6.095c1.009,2.284,2.089,4.537,3.087,6.826
			c0.112,0.258,0.223,0.516,0.332,0.773c-0.197-0.463,0.188,0.458,0.238,0.583c0.228,0.562,0.445,1.127,0.653,1.696
			c0.386,1.05,0.724,2.117,0.987,3.205c0.053,0.221,0.1,0.443,0.145,0.666c0.033,0.164,0.172,1.089,0.071,0.326
			c0.059,0.443,0.084,0.889,0.082,1.336c0,0.184-0.013,0.367-0.028,0.549c-0.028,0.258-0.016,0.178,0.035-0.238
			c-0.019,0.126-0.046,0.25-0.075,0.375c-0.036,0.16-0.087,0.316-0.141,0.472c-0.088,0.229-0.055,0.151,0.102-0.235
			c-0.048,0.106-0.107,0.209-0.166,0.311c-1.534,2.658,2.571,5.049,4.101,2.396c1.133-1.962,1.018-4.24,0.63-6.391
			c-0.454-2.513-1.463-4.917-2.452-7.256c-1.006-2.379-2.115-4.713-3.177-7.066c-0.241-0.535-0.479-1.072-0.711-1.611
			c-0.05-0.116-0.1-0.232-0.148-0.348c0.234,0.549-0.007-0.021-0.045-0.114c-0.112-0.272-0.221-0.548-0.328-0.823
			c-0.354-0.91-0.674-1.838-0.9-2.789c-0.298-1.26-1.708-1.992-2.921-1.658C163.079,109.52,162.403,110.83,162.701,112.089
			L162.701,112.089z"/>
	</g>
	<g opacity="0.9">
		<path fill="#FFCC00" d="M123.797,128.164c0,0.17-0.065,0.81,0.039,0.086c-0.02,0.117-0.047,0.232-0.081,0.348
			c-0.158,0.609,0.225-0.4-0.125,0.334c-0.783,1.643,0.158,3.49,2.05,3.573c1.571,0.068,3.137,0.202,4.7,0.375
			c0.365,0.04,0.73,0.085,1.096,0.129c0.223,0.027,0.445,0.056,0.667,0.085c0.742,0.096-0.477-0.066,0.271,0.037
			c0.926,0.129,1.849,0.271,2.771,0.422c3.712,0.604,7.397,1.371,11.054,2.246c3.506,0.837,6.987,1.787,10.423,2.877
			c1.489,0.471,2.968,0.977,4.432,1.521c0.619,0.23,1.234,0.473,1.846,0.723c0.113,0.045,0.656,0.275,0.053,0.02
			c0.15,0.064,0.298,0.129,0.447,0.193c0.283,0.125,0.563,0.254,0.843,0.385c1.172,0.548,2.551,0.339,3.249-0.853
			c0.609-1.039,0.321-2.7-0.852-3.249c-6.076-2.843-12.677-4.635-19.178-6.197c-7.132-1.715-14.478-3.145-21.822-3.463
			c0.684,1.19,1.367,2.382,2.051,3.572c0.494-1.036,0.812-2.006,0.815-3.164c0.003-1.294-1.083-2.375-2.375-2.375
			C124.875,125.789,123.8,126.87,123.797,128.164L123.797,128.164z"/>
	</g>
	<g opacity="0.9">
		<path fill="#FFCC00" d="M124.492,136.723c5.739,4.473,13.162,5.446,20.183,6.232c1.834,0.206,3.671,0.385,5.506,0.578
			c0.875,0.093,1.75,0.189,2.624,0.293c0.473,0.055,0.945,0.113,1.418,0.174c0.774,0.1-0.463-0.064,0.307,0.041
			c0.233,0.032,0.466,0.066,0.699,0.1c3.44,0.498,6.889,1.201,10.114,2.529c1.199,0.494,2.609-0.525,2.921-1.658
			c0.375-1.363-0.463-2.43-1.659-2.922c-6.584-2.711-13.979-3.031-20.977-3.779c-1.799-0.193-3.373-0.381-4.779-0.589
			c-1.721-0.255-3.432-0.572-5.122-0.983c-0.771-0.188-1.535-0.404-2.292-0.643c-0.402-0.125-0.8-0.265-1.197-0.408
			c-0.195-0.07-0.389-0.146-0.583-0.221c-0.064-0.025-0.697-0.292-0.193-0.076c-0.678-0.29-1.337-0.623-1.98-0.983
			c-0.344-0.192-0.678-0.401-1.008-0.616c-0.164-0.107-0.324-0.219-0.483-0.332c-0.066-0.047-0.585-0.44-0.142-0.094
			c-1.02-0.795-2.359-1-3.358,0C123.662,134.195,123.469,135.926,124.492,136.723L124.492,136.723z"/>
	</g>
	<g opacity="0.9">
		<path fill="#FFCC00" d="M129.778,135.676c0.75,1.783,1.888,3.202,3.641,4.096c1.669,0.85,3.497,1.149,5.344,1.32
			c1.642,0.15,3.297,0.119,4.944,0.135c0.711,0.008,1.421,0.025,2.13,0.078c0.085,0.006,0.614,0.088,0.124,0.006
			c0.274,0.046,0.548,0.093,0.823,0.14c0.643,0.109,1.286,0.224,1.928,0.339c4.617,0.832,9.211,1.868,13.634,3.451
			c2.118,0.758,3.954,1.584,5.986,2.711c1.03,0.57,2.327,1.775,3.538,1.752c1.651-0.031,3.434-1.186,2.828-3.122
			c-0.393-1.259-1.52-1.737-2.688-2.034c-1.254-0.317-2.573,0.393-2.921,1.659c-0.338,1.228,0.404,2.603,1.659,2.921
			c0.104,0.026,0.207,0.055,0.31,0.084c0.112,0.031,0.222,0.068,0.332,0.104c0.331,0.109-0.632-0.397-0.661-0.423
			c-0.203-0.349-0.407-0.698-0.61-1.048c0.003,0.011,0.006,0.021,0.01,0.031c0.204-0.77,0.407-1.539,0.611-2.311
			c-0.008,0.01-0.016,0.02-0.023,0.029c0.349-0.204,0.698-0.408,1.047-0.611c-0.297,0.111,0.764-0.041,0.107-0.029
			c0.4,0.109,0.799,0.217,1.199,0.324c-7.044-4.654-15.439-6.7-23.646-8.168c-1.718-0.307-3.41-0.586-5.157-0.623
			c-1.503-0.033-3.006-0.005-4.508-0.076c-0.332-0.017-0.664-0.041-0.995-0.068c-0.196-0.017-0.393-0.038-0.588-0.061
			c-0.656-0.072,0.507,0.08-0.138-0.021c-0.673-0.104-1.335-0.268-1.979-0.489c-0.111-0.04-0.222-0.081-0.332-0.126
			c0.577,0.227,0.043,0.002-0.064-0.053c-0.152-0.078-0.297-0.167-0.442-0.257c-0.106-0.065-0.551-0.417-0.063-0.024
			c-0.131-0.105-0.251-0.223-0.37-0.342c-0.086-0.084-0.442-0.527-0.067-0.035c-0.105-0.139-0.195-0.287-0.285-0.436
			c-0.056-0.094-0.308-0.635-0.077-0.086c-0.501-1.191-1.55-2.035-2.921-1.658C130.31,133.064,129.275,134.479,129.778,135.676
			L129.778,135.676z"/>
	</g>
	<g opacity="0.9">
		<path fill="#FFCC00" d="M139.714,135.62c5.531,2.352,11.367,3.714,17.146,5.296c5.587,1.529,10.677,3.012,15.285,6.498
			c1.035,0.783,2.653,0.165,3.25-0.853c0.713-1.217,0.178-2.47-0.852-3.249c-4.567-3.455-10.224-5.244-15.672-6.77
			c-2.916-0.816-5.854-1.549-8.77-2.365c-1.393-0.391-2.779-0.805-4.154-1.255c-0.713-0.233-1.421-0.481-2.125-0.739
			c-0.309-0.113-0.615-0.23-0.922-0.35c-0.152-0.06-0.304-0.119-0.456-0.181c0.006,0.002-0.733-0.305-0.332-0.134
			c-1.191-0.507-2.534-0.369-3.25,0.852C138.271,133.381,138.522,135.113,139.714,135.62L139.714,135.62z"/>
	</g>
	<g opacity="0.9">
		<path fill="#FFCC00" d="M150.525,134.146c3.354,2.494,7.253,4.369,10.967,6.252c3.792,1.922,7.675,3.928,11.712,5.289
			c1.227,0.413,2.592-0.465,2.921-1.658c0.358-1.302-0.433-2.51-1.659-2.922c-0.667-0.225-1.322-0.484-1.973-0.752
			c-0.622-0.257,0.266,0.114-0.139-0.059c-0.252-0.107-0.503-0.217-0.754-0.326c-0.489-0.214-0.975-0.434-1.461-0.654
			c-2.17-0.99-4.314-2.038-6.442-3.116c-3.651-1.851-7.48-3.703-10.776-6.155c-1.041-0.774-2.649-0.172-3.249,0.852
			C148.964,132.107,149.488,133.375,150.525,134.146L150.525,134.146z"/>
	</g>
	<g opacity="0.9">
		<path fill="#FFCC00" d="M155.93,130.707c6.609,4.715,13.403,9.117,19.174,14.861c0.959-1.244,1.919-2.486,2.878-3.73
			c-3.505-1.502-6.999-3.029-10.319-4.914c-1.126-0.639-2.589-0.273-3.249,0.853c-0.648,1.106-0.272,2.611,0.852,3.249
			c3.32,1.885,6.813,3.412,10.319,4.914c0.999,0.428,2.053,0.453,2.877-0.371c0.914-0.914,0.917-2.446,0-3.359
			c-6.044-6.014-13.225-10.674-20.136-15.604c-1.056-0.754-2.64-0.189-3.249,0.852C154.379,128.65,154.879,129.956,155.93,130.707
			L155.93,130.707z"/>
	</g>
	<g opacity="0.9">
		<path fill="#FFCC00" d="M110.308,128.98c8.769,2.312,17.43,5.014,26.039,7.861c0.623,0.207,1.255,0.395,1.865,0.637
			c0.064,0.025,0.129,0.053,0.193,0.078c0.413,0.17-0.567-0.242-0.127-0.053c0.256,0.11,0.511,0.223,0.767,0.336
			c1.174,0.52,2.346,1.043,3.533,1.535c0.979,0.407,1.801,0.676,2.885,0.521c1.291-0.185,2.082-1.854,1.695-3.014
			c-0.214-0.644-0.609-1.132-1.125-1.552c-1.003-0.815-2.373-0.985-3.358,0c-0.844,0.844-1.006,2.541,0,3.358
			c0.113,0.091,0.223,0.185,0.329,0.282c0.036,0.033,0.07,0.068,0.103,0.105c-0.539-0.559-0.714-1.266-0.526-2.125
			c0.204-0.349,0.407-0.698,0.611-1.047c-0.005,0.004-0.011,0.009-0.016,0.014c0.349-0.204,0.698-0.408,1.048-0.611
			c0.118-0.045,1.026-0.008,1.011-0.01c-0.132-0.027-0.261-0.072-0.389-0.114c-0.341-0.112-0.674-0.251-1.005-0.387
			c-0.37-0.151,0.516,0.222-0.106-0.046c-0.24-0.103-0.478-0.207-0.717-0.312c-0.434-0.19-0.867-0.384-1.3-0.576
			c-2.503-1.113-5.086-1.928-7.691-2.775c-7.427-2.416-14.902-4.693-22.456-6.686c-1.25-0.33-2.575,0.401-2.921,1.658
			C108.308,127.297,109.056,128.65,110.308,128.98L110.308,128.98z"/>
	</g>
	<g opacity="0.9">
		<path fill="#FFCC00" d="M72.897,115.102c7.39,7.354,16.621,12.727,24.569,19.164c1.005,0.814,2.372,0.986,3.358,0
			c0.915-0.914,0.915-2.443,0-3.357c-0.491-0.492-0.983-0.983-1.474-1.475c-2.167-2.168-5.526,1.191-3.358,3.358
			c0.491,0.491,0.983,0.983,1.474,1.474c1.12-1.119,2.239-2.238,3.358-3.357c-8.117-6.575-17.17-11.801-24.569-19.164
			C74.083,109.582,70.724,112.939,72.897,115.102L72.897,115.102z"/>
	</g>
	<path fill="#FFCC00" d="M186.205,133.354c-0.123-0.16-0.248-0.32-0.372-0.479c0-0.001,0-0.001,0.001-0.001
		c-0.001,0-0.002-0.002-0.003-0.002c-4.006-5.17-8.452-10.006-13.298-14.396c-0.286-0.258-0.573-0.518-0.864-0.775
		c-0.047-0.184-0.113-0.371-0.205-0.561c-0.344-0.713-0.712-1.412-1.098-2.1c-0.117-2.505-0.346-5-0.625-7.453
		c-0.254-2.229-0.563-4.452-0.921-6.668c1.444,1.133,2.916,2.231,4.422,3.293c1.125,1.163,2.235,2.34,3.338,3.521
		c0.725,0.776,1.98,0.897,2.878,0.372c1.031-0.605,1.617-2.202,0.852-3.25c-0.851-1.166-1.731-2.306-2.632-3.428
		c-0.095-0.236-0.192-0.471-0.29-0.705c1.118-0.609,1.834-1.979,0.957-3.238c-2.774-3.979-5.72-7.828-8.715-11.641
		c1.442,0.084,2.985-1.342,2.688-2.796c0.743,0.513,1.504,1.005,2.287,1.471c0.729,0.433,1.668,0.427,2.397,0
		c0.985-0.577,1.275-1.617,1.091-2.683c-0.417-2.409-1.271-4.682-2.396-6.834c0.431,0.033,0.873-0.059,1.304-0.311
		c1.167-0.685,1.434-2.094,0.852-3.25c-2.328-4.621-5.331-8.871-8.604-12.879c0.141-0.426,0.162-0.881-0.002-1.295
		c-0.959-2.428-2.107-4.744-3.381-6.99c0.11-0.043,0.219-0.094,0.324-0.156c0.183-0.106,0.354-0.249,0.51-0.414
		c0.018,0.015,0.034,0.029,0.052,0.043c0.842,0.68,1.881,0.955,2.877,0.371c1.167-0.684,1.435-2.093,0.852-3.248
		c-0.85-1.687-1.811-3.307-2.832-4.888c2.558,2.015,5.169,3.957,7.937,5.679c2.042,1.271,4.447-1.229,3.249-3.248
		c-1.33-2.243-2.736-4.436-4.186-6.598c0.629-0.75,0.799-1.874,0.254-2.739c-0.502-0.797-0.996-1.6-1.485-2.405
		c0.891-0.75,0.955-1.935,0.502-3c-0.702-1.652-1.611-3.211-2.641-4.691c0.007-0.393-0.085-0.804-0.308-1.205
		c-0.778-1.405-1.676-2.72-2.659-3.968c1.102-0.462,1.742-1.638,1.424-2.835c-0.448-1.688-1.343-3.088-2.501-4.252
		c0.177-0.049,0.355-0.097,0.533-0.145c0.786-0.127,1.551-0.312,2.275-0.545c0.954-0.307,1.636-1.119,1.73-2.069
		c0.874-0.394,1.487-1.175,1.487-2.187c0-0.369-0.078-0.699-0.214-0.988c0.137-0.295,0.214-0.625,0.214-0.977
		c0-0.951-0.715-2.147-1.744-2.291c-3.116-0.432-6.819-0.533-9.765,0.785c-1.583-0.122-3.16-0.354-4.688-0.636
		c-0.26-0.048-0.52-0.098-0.78-0.149c-1.269-0.25-2.559,0.344-2.921,1.659c-0.059,0.216-0.083,0.443-0.076,0.671
		c-0.283-0.209-0.568-0.416-0.858-0.615c-0.87-0.602-2.166-0.342-2.878,0.371c-0.487,0.486-0.678,1.06-0.664,1.652
		c-0.032,0-0.064,0.001-0.097,0.001c-1.769-2.293-3.65-4.499-5.708-6.567c-0.751-0.756-1.958-0.91-2.877-0.371
		c-0.125,0.072-0.237,0.154-0.34,0.24c-1.581-0.225-3.373,1.145-2.717,2.933c0.506,1.38,1.062,2.735,1.657,4.071
		c-1.579-0.871-3.174-1.716-4.772-2.554c-1.231-0.931-2.474-1.837-3.715-2.726c-0.539-0.386-1.316-0.408-1.954-0.197
		c-0.836-0.254-1.748-0.08-2.397,0.568c-0.694,0.694-0.997,2.031-0.372,2.879c0.693,0.938,1.42,1.845,2.175,2.727
		c0.513,1.245,1.175,2.438,1.912,3.584c-1.022-0.633-2.119-1.177-3.256-1.567c-3.436-3.366-6.916-6.673-10.849-9.468
		c-1.8-1.278-3.882,0.768-3.495,2.607c-1.108,0.17-2.058,1.275-2.044,2.393c0.012,0.951,0.115,1.895,0.294,2.822
		c-1.053-0.994-2.093-2.004-3.12-3.027c-0.769-0.768-1.967-0.889-2.874-0.368c-0.391-0.466-0.981-0.788-1.754-0.819
		c-3.969-0.158-7.887,0.21-11.775,0.846c-0.593-0.539-1.186-1.081-1.778-1.624c-2.053-1.882-4.818,0.532-3.801,2.698
		c-3.31,0.717-6.606,1.541-9.902,2.316c-0.397,0.021-0.795,0.043-1.193,0.062c-2.125-2.137-4.349-4.176-6.725-6.061
		c-0.849-0.673-1.876-0.957-2.878-0.371c-1.126,0.66-1.491,2.123-0.852,3.25c0.638,1.123,1.306,2.225,1.996,3.311
		c-0.269,0.002-0.538,0.004-0.806,0.008c-1.278-0.729-2.573-1.426-3.836-2.146c-0.463-0.265-0.963-0.337-1.439-0.27
		c-2.208-1.692-4.429-3.384-6.915-4.645c-0.96-0.487-2.089-0.417-2.877,0.372c-0.815,0.814-0.814,1.889-0.372,2.877
		c0.255,0.57,0.521,1.135,0.795,1.697c-0.377,0.253-0.691,0.619-0.898,1.032C43.929,7.559,38.532,7.077,33.16,7.943
		c-1.37,0.221-1.916,1.65-1.637,2.857c-0.04,0-0.079,0-0.119,0c-0.604-0.385-1.209-0.768-1.819-1.145
		c-0.906-0.559-2.137-0.369-2.878,0.371c-0.522,0.522-0.832,1.433-0.67,2.207c-0.104,0.074-0.203,0.155-0.293,0.244
		c-0.194-0.121-0.388-0.242-0.581-0.365c-1.378-0.875-2.808-0.049-3.337,1.159c-0.166,0.013-0.327,0.046-0.48,0.095
		c-1.142-0.812-2.322-1.566-3.553-2.236c-0.347-0.189-0.694-0.287-1.028-0.311c-0.31-0.228-0.622-0.453-0.938-0.673
		c-1.963-1.368-4.512,1.304-3.249,3.249c0.171,0.265,0.348,0.525,0.525,0.785c-0.075-0.033-0.149-0.07-0.225-0.104
		c-0.994-0.434-2.057-0.449-2.878,0.372c-0.247,0.247-0.438,0.565-0.56,0.912c-0.653-0.642-1.312-1.274-1.979-1.896
		c-1.965-1.83-5.086,0.492-3.729,2.879c0.852,1.498,1.825,2.918,2.872,4.283c-0.727-0.078-1.529,0.22-2.01,0.7
		c-1.001,1.001-0.792,2.336,0,3.358c0.74,0.955,1.516,1.879,2.312,2.783c-0.084,0.535,0.027,1.104,0.266,1.65
		c0.354,0.812,0.75,1.593,1.178,2.351c-1.682-1.124-3.458-2.11-5.375-2.892c-0.759-0.309-1.766,0.066-2.311,0.611
		c-0.826,0.826-0.797,1.879-0.372,2.878c2.013,4.726,5.016,8.892,8.468,12.708c-0.377,0.564-0.541,1.277-0.354,1.957
		c0.736,2.688,1.989,5.148,3.489,7.465c-1.75-0.453-3.406,0.889-2.998,2.854c0.488,2.344,1.422,4.556,2.579,6.651
		c-0.346-0.172-0.697-0.336-1.056-0.488c-1-0.426-2.052-0.455-2.877,0.371c-0.789,0.789-0.857,1.918-0.372,2.878
		c1.647,3.257,3.846,6.185,6.184,8.979c-0.183-0.064-0.367-0.125-0.554-0.184c-1.609-0.5-3.589,1.221-2.921,2.922
		c0.351,0.893,0.759,1.754,1.208,2.588c-0.084-0.034-0.167-0.07-0.252-0.104c-1.63-0.643-3.527,1.309-2.921,2.92
		c0.294,0.785,0.632,1.543,1.006,2.279c-0.814,0.579-1.315,1.668-1.006,2.635c1.243,3.885,3.53,7.204,6.032,10.367
		c-0.281,0.078-0.548,0.215-0.792,0.408c-0.885-0.586-1.795-1.143-2.734-1.664c-0.937-0.52-2.11-0.396-2.877,0.371
		c-0.976,0.977-0.83,2.367,0,3.359c2.13,2.547,4.409,4.958,6.742,7.318c0.394,0.631,0.794,1.26,1.189,1.889
		c-0.27-0.135-0.541-0.268-0.813-0.398c-2.687-1.292-5.411-2.245-8.388-2.544c-0.809-0.081-1.66,0.51-2.051,1.177
		c-0.569,0.971-0.333,2.062,0.371,2.877c0.23,0.267,0.467,0.529,0.706,0.789c0,0.391,0.119,0.795,0.397,1.188
		c1.178,1.667,2.484,3.209,3.869,4.676c-0.475,0.855-0.475,1.931,0.433,2.684c0.418,0.348,0.84,0.691,1.265,1.03
		c0.042,0.491,0.259,0.988,0.701,1.427c0.178,0.178,0.359,0.354,0.54,0.528c-0.016,0.015-0.033,0.029-0.048,0.045
		c-0.824,0.824-0.8,1.88-0.371,2.878c0.222,0.519,0.482,1.016,0.771,1.493c-0.021,0.054-0.04,0.108-0.057,0.163
		c-0.783-0.506-1.577-0.994-2.38-1.466c-2.333-1.369-4.803,1.823-2.877,3.729c0.761,0.754,1.559,1.465,2.38,2.147
		c0.082,0.229,0.203,0.44,0.372,0.62c-0.064,0.082-0.125,0.164-0.175,0.252c-0.709,1.21-0.184,2.478,0.852,3.248
		c4.057,3.02,8.61,5.291,13.123,7.545c1.639,1.008,3.31,1.959,5.058,2.775c2.478,1.156,4.644-1.625,2.878-3.73
		c-0.322-0.384-0.652-0.762-0.985-1.135c0.317-0.305,0.544-0.689,0.644-1.119c0.118-0.082,0.232-0.175,0.342-0.284
		c0.475-0.476,0.702-1.117,0.683-1.753c0.46,0.146,0.926,0.276,1.398,0.391c0.153,0.125,0.304,0.254,0.458,0.379
		c1,0.82,2.376,0.982,3.358,0c0.18-0.18,0.322-0.377,0.43-0.586c2.406,1.463,4.89,2.796,7.503,3.906
		c1,0.425,2.051,0.455,2.878-0.371c0.914-0.914,0.916-2.445,0-3.359c-0.142-0.141-0.287-0.278-0.429-0.419
		c0.5,0.061,0.993-0.016,1.44-0.282c0.511,0.33,1.018,0.66,1.517,0.992c0.404,0.269,0.891,0.363,1.369,0.318
		c1.492,0.907,3,1.787,4.528,2.63c0.419,0.231,0.885,0.334,1.341,0.31c0.696,0.6,1.397,1.195,2.109,1.775
		c1.88,1.533,4.383,0.107,3.971-2.297c0.497-0.059,0.958-0.256,1.353-0.65c0.654-0.655,0.901-1.748,0.517-2.607
		c0.015,0.01,0.03,0.02,0.045,0.029c0.58,0.387,1.33,0.414,1.98,0.184c0.176,0.104,0.354,0.203,0.531,0.304
		c0.632,0.543,1.272,1.077,1.922,1.599c0.683,0.549,1.491,0.834,2.303,0.615c1.518,0.723,3.064,1.383,4.641,1.961
		c0.989,0.363,2.178-0.23,2.682-1.092c0.565-0.965,0.34-2.07-0.372-2.877c-1.18-1.339-2.383-2.66-3.605-3.965
		c1.522,0.971,3.073,1.901,4.659,2.781c1.639,0.908,3.218-0.23,3.488-1.676c0.401-0.042,0.794-0.193,1.147-0.477
		c0.746,0.557,1.493,1.111,2.244,1.66c0.23,0.169,0.497,0.268,0.776,0.312c0.236,0.264,0.473,0.527,0.709,0.791
		c0.707,0.787,1.995,0.889,2.878,0.371c0.705-0.413,1.215-1.314,1.205-2.174c0.162,0.08,0.324,0.158,0.487,0.236
		c1.583,1.348,3.17,2.691,4.767,4.023c0.993,0.828,2.382,0.977,3.358,0s0.819-2.336,0.017-3.336
		c0.066-0.181,0.112-0.368,0.136-0.559c0.858,0.453,1.723,0.893,2.596,1.316c0.252,0.166,0.506,0.33,0.761,0.492
		c0.332,0.211,0.675,0.317,1.012,0.342c1.468,0.668,2.957,1.291,4.469,1.863c1.57,0.593,3.053-0.944,3.008-2.436
		c0.118,0.076,0.237,0.153,0.355,0.23c0.574,0.373,1.302,0.412,1.942,0.197c0.339,0.303,0.678,0.605,1.018,0.905
		c0.969,0.856,2.401,0.957,3.358,0c0.633-0.634,0.796-1.456,0.598-2.226c0.867,0.814,1.752,1.608,2.658,2.379
		c0.747,0.764,1.491,1.531,2.23,2.304c0.735,0.768,1.972,0.901,2.878,0.371c0.824-0.483,1.371-1.614,1.153-2.581
		c-0.008-0.393-0.107-0.791-0.302-1.159c-0.189-0.359-0.39-0.713-0.596-1.063c0.271-0.121,0.518-0.283,0.716-0.481
		c0.961-0.961,0.851-2.385,0-3.358c-0.26-0.297-0.519-0.596-0.778-0.893c0.019-0.027,0.036-0.054,0.053-0.08
		c0.733,0.656,1.467,1.312,2.2,1.969c0.067,0.135,0.132,0.271,0.2,0.408c0.283,0.568,0.881,0.959,1.505,1.108
		c1.254,1.11,2.512,2.214,3.78,3.303c0.981,0.843,2.391,0.967,3.358,0c0.896-0.897,0.938-2.468,0-3.358
		c-0.168-0.159-0.336-0.318-0.505-0.477c0.825,0.307,1.878,0.005,2.47-0.588c0.751-0.751,0.841-1.77,0.45-2.647
		c1.022,0.825,2.048,1.646,3.075,2.466c3.232,2.738,6.487,5.445,9.824,8.044c1.02,0.795,2.359,0.999,3.358,0
		c0.341-0.341,0.563-0.802,0.649-1.288c1.065,0.932,2.14,1.851,3.23,2.752c1.801,1.488,3.646,2.926,5.527,4.312
		c1.952,1.439,4.473-1.326,3.249-3.249c-0.619-0.972-1.263-1.924-1.928-2.859c0.724,0.117,1.488-0.091,2.048-0.65
		c0.961-0.962,0.85-2.384,0-3.358c-0.466-0.533-0.94-1.061-1.418-1.583c1.451,1.354,2.928,2.679,4.447,3.958
		c0.989,0.834,2.385,0.974,3.358,0c0.11-0.109,0.206-0.229,0.289-0.353c1.998,0.384,3.972-2.182,2.168-3.988
		c-3.79-3.796-7.42-7.78-11.037-11.785c0.073-0.479,0.139-0.96,0.197-1.442c2.409,2.322,4.836,4.623,7.323,6.861
		c1.651,1.486,3.34,2.93,5.073,4.32c0.844,0.677,1.88,0.955,2.878,0.371C186.365,136.01,186.995,134.385,186.205,133.354z
		 M143.053,26.491c0.003,0.431,0.04,0.862,0.103,1.294c-0.239-0.349-0.477-0.697-0.714-1.047
		C142.658,26.684,142.862,26.6,143.053,26.491z M91.194,19.875c1.931,2.244,3.902,4.457,5.833,6.699
		c-2.977-2.165-5.913-4.393-8.895-6.551c0.054-0.02,0.108-0.041,0.162-0.061C89.263,19.948,90.229,19.92,91.194,19.875z
		 M98.124,51.965c-0.269-0.273-0.542-0.543-0.815-0.811c0.018-0.033,0.037-0.066,0.052-0.1
		C97.616,51.356,97.871,51.66,98.124,51.965z M110.596,76.136c0.562,0.827,1.126,1.654,1.692,2.479
		c-0.573-0.502-1.147-1.002-1.721-1.504c-1.511-1.953-3.011-3.916-4.513-5.879C107.523,72.908,109.035,74.545,110.596,76.136z
		 M91.797,53.477c-0.335-0.352-0.673-0.703-1.015-1.049c-0.177-0.178-0.355-0.354-0.534-0.531c-0.12-0.299-0.242-0.616-0.377-0.98
		c0.013,0.01,0.025,0.02,0.038,0.028C90.519,51.803,91.151,52.646,91.797,53.477z M73.646,50.127
		c0.061-0.029,0.121-0.062,0.18-0.098c0.04,0.045,0.08,0.089,0.12,0.133C73.847,50.145,73.747,50.133,73.646,50.127z M83.711,44.746
		c-0.406-0.521-0.812-1.041-1.221-1.559c0.457,0.416,0.917,0.828,1.38,1.236C83.81,44.525,83.757,44.633,83.711,44.746z
		 M84.09,38.232c-0.148-0.141-0.296-0.281-0.444-0.422c-2.784-3.791-6.215-6.969-9.656-10.147c0.824,0.133,1.651,0.25,2.481,0.351
		c2.426,2.758,4.984,5.391,7.714,7.828c-0.125,0.289-0.192,0.602-0.19,0.926C83.999,37.26,84.034,37.747,84.09,38.232z
		 M145.032,71.976c-1.022-1.017-2.051-2.024-3.085-3.025c-0.114-0.456-0.23-0.911-0.351-1.364c1.137,1.326,2.274,2.652,3.413,3.978
		C145.017,71.701,145.024,71.838,145.032,71.976z M130.341,64.109c-0.051-0.305-0.104-0.609-0.157-0.914
		c0.403,0.682,0.796,1.371,1.176,2.074C131.018,64.886,130.678,64.499,130.341,64.109z M122.266,52.117
		c0.035,0.527,0.069,1.056,0.103,1.584c-0.013,0.062-0.027,0.127-0.041,0.189c-3.159-4.312-6.233-8.703-9.5-12.949
		c1.569,1.863,3.158,3.707,4.727,5.553C119.152,48.373,120.732,50.234,122.266,52.117z M141.077,53.473
		c0.178,0.256,0.355,0.51,0.533,0.765c0.875,1.251,1.759,2.499,2.658,3.735c0.003,0.062,0.006,0.126,0.009,0.188
		c-0.76-0.656-1.53-1.302-2.307-1.938c-0.757-1.122-1.501-2.252-2.239-3.387C140.172,53.069,140.62,53.282,141.077,53.473z
		 M131.491,55.578c0.102,0.195,0.226,0.383,0.373,0.559c1.279,1.521,2.562,3.039,3.848,4.555c-0.115,0.128-0.214,0.27-0.289,0.43
		c-0.144,0.308-0.281,0.617-0.415,0.929c-1.36-2.396-2.892-4.704-4.505-6.937c0.284,0.141,0.57,0.279,0.858,0.412
		C131.403,55.545,131.447,55.561,131.491,55.578z M41.02,23.978c0.661,0.817,1.33,1.626,2.007,2.428
		c0.437,0.653,0.881,1.303,1.329,1.95c-1.124-1.37-2.263-2.727-3.415-4.069C40.975,24.185,41.001,24.082,41.02,23.978z
		 M45.446,37.415c-0.091-0.063-0.182-0.126-0.272-0.19c-0.029-0.021-0.058-0.041-0.086-0.062c-0.219-0.298-0.438-0.594-0.659-0.891
		c0.298,0.326,0.595,0.654,0.895,0.979C45.364,37.306,45.405,37.36,45.446,37.415z M57.004,80.163
		c-0.688-0.548-1.376-1.095-2.067-1.64c-0.722-0.568-1.446-1.134-2.171-1.699c-0.077-0.264-0.158-0.525-0.242-0.787
		C53.997,77.434,55.491,78.809,57.004,80.163z M106.983,23.312c-0.491-0.537-0.982-1.073-1.474-1.61
		c0.164,0.064,0.328,0.109,0.49,0.139C106.323,22.334,106.651,22.824,106.983,23.312z M35.653,55.416
		c0.815,1.436,1.679,2.842,2.563,4.237c-0.353-0.345-0.705-0.692-1.054-1.042c-2.212-2.754-4.494-5.455-6.82-8.121
		C32.093,52.152,33.868,53.791,35.653,55.416z M159.957,115.659c-0.146-0.26-0.29-0.521-0.429-0.785
		c0.184,0.173,0.369,0.347,0.553,0.521c0.046,0.182,0.095,0.362,0.141,0.543C160.134,115.845,160.045,115.752,159.957,115.659z
		 M97.475,10.998c-0.099-0.078-0.198-0.156-0.296-0.234c0.685-0.158,1.369-0.326,2.05-0.505c-0.207,0.265-0.341,0.548-0.411,0.841
		C98.371,11.059,97.923,11.025,97.475,10.998z M29.443,36.312c-0.416-0.438-0.832-0.876-1.248-1.312
		c0.025-0.068,0.047-0.139,0.065-0.208C28.65,35.303,29.044,35.809,29.443,36.312z M23.243,50.406
		c-0.493-0.504-0.987-1.006-1.483-1.507c0.067,0.006,0.135,0.009,0.202,0.009C22.387,49.408,22.814,49.908,23.243,50.406z
		 M145.795,130.039c0.076,0.073,0.152,0.146,0.229,0.22c-0.081-0.069-0.162-0.138-0.244-0.208
		C145.785,130.047,145.79,130.043,145.795,130.039z M162.979,68.15c0.189-0.264,0.307-0.559,0.365-0.869
		c1.189,1.134,2.399,2.246,3.634,3.332c1.127,1.369,2.161,2.758,3.185,4.353c0.153,0.239,0.302,0.48,0.449,0.724
		C167.947,73.352,165.461,70.755,162.979,68.15z M27.221,31.351c-0.076,0.142-0.138,0.289-0.185,0.44
		c-0.316-0.434-0.637-0.863-0.96-1.29C26.453,30.791,26.834,31.074,27.221,31.351z M19.062,47.178
		c-0.338-0.001-0.676,0.069-0.988,0.207c-3.06-2.817-5.985-5.777-8.494-9.027c0.489,0.424,0.979,0.861,1.479,1.314
		C13.77,42.129,16.332,44.744,19.062,47.178z M24.219,72.751c-0.163-0.02-0.327-0.023-0.49-0.009
		c-1.465-1.923-2.956-3.779-4.388-5.707C20.921,68.98,22.541,70.892,24.219,72.751z M157.296,125.661
		c0.02-0.044,0.037-0.091,0.054-0.137c0.887,0.866,1.768,1.739,2.645,2.616c0.026,0.034,0.051,0.068,0.077,0.102
		C159.146,127.382,158.22,126.523,157.296,125.661z"/>
</g>
<g>
	<g>
		<path fill="#282828" d="M2.393,10.842c2.888,7.797,4.347,16.016,5.053,24.277C8.205,44,8.306,52.949,8.212,61.857
			C8.12,70.621,7.726,79.38,7.449,88.139c-0.274,8.688-0.238,17.379-0.497,26.066c-0.152,5.099-0.334,10.197-0.491,15.295
			c-0.143,4.642-0.348,9.303-0.237,13.946c-0.001-0.052,1.907-0.489,2.022-0.521c0.132-0.035,2.008-0.443,2.011-0.561
			c0.225-9.172,0.475-18.342,0.736-27.515c0.249-8.761,0.186-17.522,0.416-26.283c0.228-8.706,0.576-17.407,0.606-26.117
			c0.015-4.472-0.078-8.94-0.302-13.407c-0.219-4.355-0.461-8.836-1.249-13.131c-1.591-8.68-3.392-17.276-7.187-25.307
			C3.255,10.561,2.404,10.872,2.393,10.842L2.393,10.842z"/>
	</g>
	<g>
		<path fill="#282828" d="M0.68,11.661c10.894,0.196,21.816-0.771,32.644-1.874c10.938-1.114,21.847-2.502,32.791-3.571
			c22.367-2.187,44.932-2.487,67.381-1.706c3.769,0.131,7.537,0.402,11.307,0.475c2.909,0.056,5.819-0.008,8.728,0.02
			c3.127,0.027,6.265,0.133,9.369,0.543c2.523,0.334,5.285,0.86,7.454,2.275c0.052,0.034,0.585-0.142,0.592-0.143
			c0.475-0.123,0.948-0.248,1.422-0.375c0.473-0.127,0.946-0.256,1.418-0.387c-0.017,0.004,0.556-0.19,0.584-0.172
			c-2.667-1.741-6.018-2.191-9.125-2.498c-3.809-0.375-7.65-0.359-11.473-0.349c-9.352,0.028-18.694-0.641-28.046-0.782
			c-11.299-0.172-22.602-0.01-33.891,0.467C80.749,4.053,69.715,5.108,58.689,6.338C49.723,7.337,40.765,8.415,31.781,9.25
			c-9.242,0.86-18.495,1.359-27.775,1.52c-0.529,0.01-1.162,0.294-1.667,0.43C1.866,11.325,1.172,11.67,0.68,11.661L0.68,11.661z"/>
	</g>
	<g>
		<path fill="#282828" d="M170.431,8.521c0.044,1.162-0.032,2.324,0.016,3.484c0.052,1.252,0.109,2.506,0.127,3.76
			c0.036,2.465-0.096,4.915-0.194,7.375c-0.199,5.007-0.785,9.991-1.229,14.979c-0.439,4.936-0.824,9.882-0.69,14.839
			c0.143,5.316,0.463,10.626,0.88,15.927c0.846,10.744,2.07,21.455,3.104,32.182c0.758,7.864,1.135,15.752,2.316,23.567
			c0.76,5.034,1.564,10.072,1.973,15.151c0.177,2.193,0.28,4.407,0.132,6.606c-0.058,0.853-0.167,1.704-0.364,2.536
			c-0.089,0.373-0.16,0.618-0.109,0.998c0.023,0.178,0.095,0.59,0.008,0.717c0.123-0.18,1.164-0.297,1.37-0.352
			c0.226-0.061,1.222-0.174,1.362-0.381c0.283-0.416,0.759-0.773,1.079-1.183c0.336-0.429,0.416-0.976,0.516-1.502
			c0.229-1.204,0.284-2.442,0.299-3.665c0.038-3.158-0.295-6.323-0.674-9.455c-0.72-5.951-1.969-11.856-2.48-17.83
			c-0.437-5.109-0.785-10.223-1.273-15.328c-0.515-5.381-1.083-10.756-1.632-16.133c-1.086-10.635-2.096-21.285-2.5-31.971
			c-0.286-7.574,0.563-15.098,1.115-22.641c0.274-3.748,0.496-7.497,0.41-11.256c-0.042-1.826-0.161-3.646-0.359-5.462
			c-0.208-1.912-0.692-3.655-1.306-5.472C172.332,8.027,170.428,8.443,170.431,8.521L170.431,8.521z"/>
	</g>
	<g>
		<path fill="#282828" d="M3.241,144.879c4.132-1.156,8.658-1.211,12.918-1.266c4.269-0.055,8.543,0.101,12.803,0.367
			c3.917,0.244,7.82,0.377,11.746,0.424c12.48,0.154,24.966-0.006,37.445-0.216c14.979-0.251,29.958-0.522,44.94-0.423
			c6.365,0.041,12.733,0.148,19.092,0.453c4.592,0.221,9.205,0.514,13.746,1.26c5.748,0.942,11.384,2.394,17.188,3.013
			c2.924,0.312,5.959,0.491,8.867-0.058c1.892-0.357,3.844-0.857,5.654-1.514c0.951-0.344,1.835-0.834,2.495-1.615
			c-0.042,0.051-0.583,0.143-0.604,0.146c-0.484,0.125-0.967,0.254-1.45,0.383s-0.965,0.26-1.447,0.395
			c-0.051,0.014-0.533,0.1-0.596,0.175c-0.341,0.403-0.739,0.729-1.188,1.009c-0.24,0.148-0.495,0.271-0.752,0.388
			c-0.135,0.061-0.274,0.114-0.412,0.167c-1.783,0.682,3.982-0.973,2.488-0.65c-1.577,0.338-3.223,0.377-4.829,0.35
			c-3.73-0.061-7.452-0.646-11.117-1.303c-5.16-0.927-10.236-2.146-15.462-2.655c-12.297-1.198-24.754-1.095-37.095-1.052
			c-15.143,0.053-30.287,0.344-45.425,0.699c-11.946,0.279-23.911,0.855-35.863,0.581c-4.463-0.103-8.912-0.489-13.377-0.575
			c-6.633-0.13-13.631-0.211-20.072,1.597C2.77,145.004,3.189,144.893,3.241,144.879L3.241,144.879z"/>
	</g>
	<g>
		<path fill="#282828" d="M4.287,41.459c3.271,0.797,6.593,1.144,9.948,1.358c4.872,0.312,9.761,0.39,14.642,0.401
			c12.535,0.031,25.071-0.391,37.595-0.878c13.924-0.542,27.843-1.227,41.763-1.861c12.651-0.577,25.306-1.144,37.967-1.423
			c8.715-0.191,17.557-0.458,26.245,0.428c0.765,0.078,1.528,0.173,2.288,0.289c0.138,0.021,0.497-0.119,0.604-0.146
			c0.484-0.125,0.967-0.253,1.45-0.383c0.483-0.129,0.965-0.26,1.447-0.394c0.072-0.021,0.49-0.191,0.596-0.175
			c-3.266-0.5-6.588-0.643-9.886-0.744c-4.693-0.145-9.391-0.123-14.085-0.057c-12.273,0.176-24.542,0.705-36.803,1.248
			c-13.904,0.617-27.805,1.305-41.711,1.887c-12.905,0.539-25.818,1.021-38.735,1.121c-9.49,0.074-18.984-0.083-28.444-0.889
			c-0.96-0.082-1.918-0.189-2.873-0.322c-0.275-0.037-0.746,0.189-1.007,0.26C5.074,41.236,4.507,41.512,4.287,41.459L4.287,41.459z
			"/>
	</g>
	<g>
		<path fill="#282828" d="M8.063,114.944c-1.138,0.983,2.446,0.736,2.756,0.714c2.473-0.182,4.923-0.545,7.379-0.871
			c3.138-0.418,6.292-0.574,9.449-0.814c5.633-0.426,11.264-0.875,16.896-1.312c11.3-0.876,22.609-1.666,33.938-2.035
			c5.692-0.186,11.38-0.436,17.076-0.508c5.701-0.074,11.404-0.041,17.105-0.001c5.704,0.04,11.407,0.091,17.111,0.063
			c5.075-0.023,10.144-0.16,15.219-0.088c9.106,0.129,18.34,0.472,27.376-0.891c3.099-0.467,6.122-1.289,9.134-2.139
			c0.754-0.213-0.634,0.141-0.742,0.169c-0.936,0.245-1.87,0.496-2.801,0.759c5.072-1.431,1.042-0.322-0.275-0.087
			c-1.072,0.191-2.15,0.342-3.23,0.474c-2.216,0.271-4.445,0.43-6.674,0.541c-4.679,0.23-9.37,0.202-14.053,0.143
			c-10.385-0.132-20.764,0.066-31.15,0c-11.411-0.074-22.827-0.223-34.232,0.264c-11.343,0.482-22.665,0.975-33.99,1.814
			c-5.677,0.422-11.351,0.88-17.025,1.335c-4.414,0.354-8.874,0.532-13.271,1.046c-2.846,0.332-5.673,0.854-8.506,1.283
			c-1.452,0.221-2.907,0.424-4.371,0.549c-0.819,0.071-1.806,0.219-2.612-0.009c-0.276-0.077-0.311-0.274-0.155-0.493
			C8.363,114.924,8.136,114.881,8.063,114.944L8.063,114.944z"/>
	</g>
</g>
</svg>
