<?xml version="1.0" encoding="utf-8"?>
<!-- Generator: Adobe Illustrator 16.0.0, SVG Export Plug-In . SVG Version: 6.00 Build 0)  -->
<!DOCTYPE svg PUBLIC "-//W3C//DTD SVG 1.1//EN" "http://www.w3.org/Graphics/SVG/1.1/DTD/svg11.dtd">
<svg version="1.1" id="Capa_1" xmlns="http://www.w3.org/2000/svg" xmlns:xlink="http://www.w3.org/1999/xlink" x="0px" y="0px"
	 width="189.02px" height="285.028px" viewBox="0 0 189.02 285.028" enable-background="new 0 0 189.02 285.028"
	 xml:space="preserve">
<g>
	<path fill="#1E1E1C" d="M45.494,233.392c0.049,0.282,0.101,0.563,0.149,0.846c0.034,0.575,0.064,1.151,0.099,1.728l-0.007-2.023
		C45.654,233.759,45.567,233.579,45.494,233.392z"/>
	<path fill="#1E1E1C" d="M176.07,218.312c0.143-5.105-0.46-10.172-2.17-14.903c-0.043-0.119-0.117-0.245-0.206-0.371
		c0.083-7.303,0.148-15.189,0.187-23.449c0.015-6.31,0.079-12.829,0.056-19.453c-0.007-6.625-0.015-13.354-0.022-20.084
		c-0.043-6.729-0.084-13.459-0.126-20.083c-0.02-1.875-0.038-3.739-0.058-5.596c0.007-0.013,0.013-0.025,0.02-0.038
		c0.141-0.264,0.105-0.697-0.031-1.138c-0.045-4.296-0.089-8.537-0.131-12.681c-0.094-6.309-0.184-12.406-0.269-18.189
		c-0.112-5.783-0.22-11.251-0.317-16.298c-0.206-10.094-0.507-18.505-0.656-24.393c-0.037-1.077-0.071-2.067-0.103-2.97
		c0.081-1.306,0.167-2.611,0.22-3.928c0.081-2.098,0-5.339-2.234-6.823c-0.864-0.575-1.825-0.972-2.847-1.249
		c0.054-0.132,0.114-0.263,0.167-0.396c0.223-0.558-0.787-3.17-1.803-2.221c-0.443,0.415-0.867,0.841-1.295,1.266
		c-1.035-0.408-2.178-0.752-3.399-1.03c-0.072-0.888-0.723-2.5-1.819-1.824c-0.624,0.386-1.211,0.797-1.785,1.218
		c-2.307-0.282-4.801-0.415-7.452-0.434c-2.49-0.017-5.122,0.051-7.852,0.161c-10.16-0.369-20.483-0.066-30.349,1.455
		c-3.439,0.077-6.918,0.101-10.413,0.054c0.146-0.183,0.296-0.364,0.439-0.549c0.577-0.744-0.272-3.168-1.675-2.494
		c-1.766,0.85-3.389,1.829-4.925,2.889c-0.079-0.003-0.159-0.005-0.238-0.008c-1.966-0.074-3.93-0.194-5.893-0.326
		c-1.005-0.123-2.026-0.186-3.051-0.208c-1.986-0.143-3.971-0.286-5.954-0.404c-4.939-0.318-9.806-0.514-14.526-0.604
		c-4.72-0.014-9.293,0.017-13.628,0.312c-4.335,0.269-8.434,0.729-12.189,1.407c-3.755,0.668-7.159,1.636-10.058,2.829
		c-0.309,0.125-0.583,0.271-0.879,0.405c-0.363-0.465-0.726-0.7-0.86-0.185c-0.057,0.218-0.104,0.436-0.158,0.654
		c-0.715,0.363-1.396,0.74-2.027,1.124c-1.151,0.742-2.123,1.555-2.933,2.351c-1.598,1.632-2.443,3.243-2.859,4.362
		c-0.223,0.559-0.338,1.002-0.414,1.302c-0.079,0.297-0.12,0.45-0.12,0.45l0.144,0.041l0.144,0.041c0,0,0.059-0.144,0.172-0.422
		c0.109-0.279,0.273-0.691,0.553-1.196c0.539-1.009,1.459-2.448,3.093-3.802c1.026-0.834,2.303-1.633,3.805-2.344
		c-0.113,0.527-0.226,1.055-0.328,1.583c-2.907,1.1-5.191,2.873-5.672,5.685c-0.386,2.259-0.067,4.55,0.447,6.814
		c-0.78,4.694-0.704,9.438-0.295,14.174c0.015,0.178,0.167,0.535,0.377,0.897c-0.502,5.855-0.656,11.725-0.556,17.594
		c-0.212,0.376-0.42,0.753-0.616,1.131c-0.045-2.232-0.092-4.416-0.14-6.511c-0.205-10.094-0.508-18.505-0.659-24.393
		c-0.102-2.943-0.181-5.257-0.235-6.834c-0.059-1.577-0.09-2.418-0.09-2.418s-0.025,0.841-0.073,2.419
		c-0.042,1.577-0.105,3.891-0.186,6.835c-0.107,5.89-0.35,14.302-0.48,24.397c-0.055,3.504-0.104,7.223-0.148,11.098
		c-4.312,12.009-2.132,24.907-0.243,37.435c-0.004,1.795-0.005,3.598,0.001,5.411c0.006,5.232,0.012,10.534,0.018,15.845
		c-0.729-0.486-1.561-0.521-1.587,0.698c-0.153,7.114,0.522,14.224,1.704,21.292c0.005,0.775,0.01,1.561,0.015,2.333
		c0.068,6.624,0.135,13.143,0.2,19.452c0.062,4.212,0.123,8.318,0.182,12.312c-0.574,1.088-1.125,2.187-1.619,3.309
		c-0.248,0.565,0.655,2.948,1.702,2.285c0.001,0.094,0.003,0.19,0.004,0.284c0.099,5.106,0.194,9.947,0.282,14.489
		c-0.427,0.668-0.87,1.329-1.287,2.002c-0.421,0.679,0.315,2.501,1.166,2.627c-0.553,0.869-1.106,1.738-1.648,2.611
		c-0.427,0.688,0.684,3.475,1.675,2.494c0.105-0.104,0.204-0.212,0.308-0.316c0.087,3.332,0.178,6.415,0.261,9.201
		c-2.458,3.084-4.703,6.276-6.673,9.584c-0.508,0.855,0.771,3.604,1.867,2.295c0.892-1.065,1.784-2.133,2.674-3.202
		c0.715,3.142,1.295,6.302,2.486,9.359c0.188,0.481,0.75,1.085,1.366,1.305c0.762,0.831,1.949,1.692,3.499,2.39
		c1.607,0.751,3.599,1.326,5.853,1.769c0.098,0.859,0.192,1.719,0.277,2.58c0.083,0.867,1.084,1.606,1.906,1.679
		c0.1,0.228,0.198,0.456,0.312,0.684c0.592,1.18,2.788,1.368,2.783-0.169l-0.015-4.009c2.118,0.229,4.372,0.396,6.769,0.457
		c3.741,0.121,7.789,0.071,12.055-0.089c4.268-0.158,8.752-0.474,13.38-0.818c4.613-0.396,9.379-0.806,14.223-1.222
		c4.814-0.389,9.738-0.523,14.674-0.635c9.864-0.185,19.742,0.01,29.016,0.193c9.271,0.182,17.963,0.302,25.402-0.385
		c3.347-0.313,6.417-0.82,9.129-1.576c0.085,0.438,0.161,0.879,0.202,1.324c0.079,0.852,1.573,2.634,2.536,1.351
		c0.727-0.968,1.37-1.982,1.969-3.018c0.002,0.282-0.002,0.563-0.002,0.846c0.002,1.368,2.605,2.701,2.654,0.714
		c0.036-1.535,0.046-3.072,0.061-4.609c0.176-0.13,0.352-0.26,0.515-0.392c1.722-1.379,2.747-2.807,3.358-3.8
		c0.301-0.506,0.519-0.904,0.644-1.173c0.132-0.269,0.2-0.407,0.2-0.407l-0.133-0.068l-0.133-0.068c0,0-0.073,0.137-0.214,0.401
		c-0.136,0.27-0.358,0.646-0.663,1.127c-0.626,0.952-1.662,2.308-3.369,3.591c-0.062,0.047-0.132,0.094-0.196,0.141
		c0.005-0.593,0.021-1.185,0.023-1.777c0.203-0.291,0.399-0.59,0.584-0.895c0.543,0.237,1.085,0.163,1.277-0.599
		c0.862-3.429,1.309-6.904,1.467-10.397c0.064-0.325,0.112-0.65,0.165-0.977c0.285,0.012,0.538-0.127,0.715-0.467
		c0.006,0.224,0.012,0.451,0.018,0.668c0.102,2.943,0.182,5.257,0.236,6.834c0.059,1.577,0.09,2.418,0.09,2.418
		s0.025-0.842,0.072-2.419c0.043-1.577,0.105-3.891,0.186-6.835c0.013-0.692,0.027-1.422,0.043-2.183
		c0.123,0.205,0.242,0.411,0.375,0.614c0.758,1.165,2.584,1.372,2.782-0.169C177.061,230.573,176.809,224.436,176.07,218.312z
		 M165.58,248.657c-0.003,0.214-0.006,0.431-0.008,0.645c-0.031,0.088-0.069,0.175-0.103,0.264c-0.858,1.132-1.9,2.129-3.132,2.935
		c-0.01-0.014-0.018-0.025-0.026-0.039c0.897-0.842,1.675-1.81,2.297-2.934c0.062-0.111,0.093-0.241,0.104-0.378
		C165.012,248.992,165.301,248.83,165.58,248.657z M137.847,252.823c0.274-0.111,0.552-0.216,0.824-0.33
		c1.447-0.392,2.887-0.805,4.312-1.252c-0.253,0.311-0.267,0.738-0.126,1.15c-0.27,0.183-0.533,0.368-0.808,0.547
		c-0.17,0.11-0.274,0.279-0.335,0.476c-1.208,0.187-2.415,0.376-3.624,0.546C138.17,253.633,138.061,253.216,137.847,252.823z
		 M22.659,249.22c-0.236,0.598-0.485,1.19-0.756,1.775c-0.232-0.876-0.437-1.758-0.636-2.64c0.288,0.262,0.65,0.344,1.066,0.065
		c0.032-0.021,0.061-0.045,0.092-0.066C22.505,248.643,22.575,248.932,22.659,249.22z M20.621,244.354
		c0.014-0.789,0.031-1.627,0.049-2.504c0.075-0.091,0.15-0.181,0.224-0.271c0.178,1.015,0.381,2.027,0.603,3.038
		c-0.262,0.413-0.532,0.823-0.791,1.238c-0.038-0.167-0.074-0.334-0.112-0.501C20.603,245.028,20.612,244.696,20.621,244.354z
		 M32.691,55.138c0.135-0.7,0.247-1.407,0.326-2.119c0.005-0.033,0.002-0.074,0-0.116c0.483-0.622,0.982-1.236,1.492-1.843
		c-0.18,0.804-0.393,1.603-0.622,2.399c-0.358-0.02-0.663,0.172-0.789,0.725c-0.062,0.272-0.121,0.545-0.183,0.818
		C32.842,55.032,32.768,55.074,32.691,55.138z M28.152,39.369c0.399-1.577,0.773-3.159,1.06-4.75
		c1.576-0.478,3.241-0.802,4.725-1.096c0.241,0.327,0.516,0.576,0.759,0.639c1.523,0.389,3.072,0.671,4.64,0.869
		c-0.781,0.137-1.556,0.266-2.332,0.396c-0.337-0.256-0.723-0.287-1.09,0.171c-0.003,0.004-0.006,0.009-0.01,0.013
		c-1.033,0.167-2.062,0.327-3.083,0.473c-0.3,0.037-0.598,0.078-0.897,0.116c-0.291-0.169-0.607-0.168-0.906,0.117
		c-0.585,0.076-1.172,0.146-1.755,0.227c-0.566,0.078-0.454,1.113-0.031,1.919c-0.146,0.178-0.293,0.356-0.439,0.534
		C28.49,39.052,28.274,39.18,28.152,39.369z M159.644,29.285c-0.001,0.323,0.024,0.645,0.038,0.967
		c-0.479,0.5-0.957,0.999-1.447,1.491c0.34-0.812,0.696-1.621,1.05-2.431C159.404,29.304,159.523,29.293,159.644,29.285z
		 M142.12,245.992c1.406-0.117,2.812-0.239,4.217-0.367c-1.338,0.632-2.674,1.269-4.017,1.894
		C142.46,247.079,142.369,246.479,142.12,245.992z M127.062,248.838c1.089-0.646,2.146-1.325,3.18-2.029
		c1.733-0.093,3.466-0.198,5.198-0.315C132.635,247.246,129.855,248.062,127.062,248.838z M23.245,240.527
		c-0.082-0.519-0.165-1.036-0.236-1.556c0.165-0.204,0.331-0.406,0.495-0.61c0.065,0.49,0.13,0.979,0.197,1.47
		C23.549,240.062,23.394,240.293,23.245,240.527z M22.206,224.786c0.017-0.019,0.034-0.038,0.052-0.057
		c0.101,2.804,0.317,5.602,0.615,8.395c-0.141,0.161-0.278,0.323-0.418,0.485C22.241,230.678,22.168,227.735,22.206,224.786z
		 M23,76.154c-0.06-3.843-0.005-7.685,0.19-11.523c0.004,0.004,0.009,0.004,0.014,0.008c-0.086,2.845-0.042,5.691,0.14,8.536
		c-0.026,1.052-0.055,2.104-0.076,3.156C23.181,76.262,23.091,76.203,23,76.154z M30.697,78.769c0.04-0.739,0.078-1.478,0.109-2.217
		c0.05-0.191,0.102-0.382,0.152-0.574c0.252,0.207,0.53,0.361,0.799,0.428C31.403,77.193,31.04,77.977,30.697,78.769z M65.7,27.708
		c2.381-0.02,4.757-0.076,7.133-0.159c-1.277,0.207-2.54,0.454-3.776,0.743c-3.5-0.162-7.028-0.267-10.541-0.253
		c-0.263-0.189-0.562-0.228-0.873,0.01c-5.095,0.049-10.153,0.358-15.046,1.159c-0.363,0.037-0.725,0.082-1.087,0.121
		C49.229,27.504,57.841,27.77,65.7,27.708z M99.303,30.721c0.616,0.028,1.233,0.053,1.85,0.079
		c-0.863,0.367-1.698,0.765-2.484,1.219c-1.122,0.053-2.241,0.13-3.362,0.198c0.726-0.916,1.478-1.819,2.242-2.718
		C97.886,30.122,98.598,30.687,99.303,30.721z M24.68,222.767c-0.078-0.152-0.186-0.296-0.305-0.433
		c0.101-0.117,0.203-0.234,0.304-0.352C24.679,222.244,24.68,222.505,24.68,222.767z M22.303,180.783
		c0.322,1.23,0.653,2.459,0.99,3.684c-0.178,1.901-0.378,3.805-0.593,5.713c-0.032-0.245-0.188-0.53-0.414-0.8
		C22.302,186.515,22.311,183.649,22.303,180.783z M91.597,32.462c-0.422,0.032-0.844,0.073-1.266,0.107
		c1.061-0.94,2.134-1.868,3.242-2.764C92.882,30.677,92.221,31.561,91.597,32.462z M162.057,44.445
		c0.041,0.354,0.218,0.686,0.466,0.962c-0.02,0.565-0.049,1.13-0.079,1.695c-0.127,0.377-0.255,0.754-0.38,1.131
		c-0.152-1.173-0.309-2.346-0.474-3.518c0.15-0.132,0.303-0.263,0.449-0.398C162.044,44.36,162.052,44.403,162.057,44.445z
		 M162.26,194.895c0.007,0.097,0.014,0.192,0.02,0.289c-0.051-0.007-0.102-0.016-0.152-0.018c0-0.033,0-0.066,0-0.101
		C162.171,195.009,162.216,194.952,162.26,194.895z M135.886,240.361c-2.605-0.084-5.429-0.174-8.413-0.228
		c-2.986-0.062-6.135-0.144-9.391-0.167c-3.257-0.027-6.623-0.1-10.042-0.093c-3.419-0.005-6.894-0.01-10.366-0.015
		c-3.474,0.029-6.947,0.06-10.367,0.089c-3.419,0.013-6.784,0.114-10.041,0.164c-6.513,0.128-12.591,0.312-17.801,0.524
		c-1.01,0.038-1.977,0.078-2.919,0.118c0.001-0.158,0.002-0.317,0.003-0.476c-1.176,0.287-2.376,0.492-3.589,0.639
		c-1.106,0.055-2.143,0.107-3.103,0.16c-1.98-0.265-3.585-1.599-4.004-3.167c0.065,1.129,0.131,2.258,0.194,3.387
		c-0.22,0.014-0.427,0.026-0.63,0.039c-0.253-0.998-0.509-1.995-0.794-2.986c-0.008-0.328-0.024-0.657-0.036-0.986
		c0.237-1.6,0.428-3.203,0.602-4.809c-1.237-3.754-1.244-8.105-1.211-11.401c-0.192,0.039-0.364,0.116-0.514,0.222
		c0.049-2.394,0.096-4.919,0.134-7.582c0.128,1.781,0.265,3.562,0.417,5.341c0.175-8.768,1.413-17.474,2.273-26.209
		c1.389-14.104-0.405-28.382,0.082-42.513c0.137-4.013,0.47-8.006,1.008-11.979c-0.848-0.664-1.43-1.57-1.504-2.684
		c-0.547-8.277-1.923-16.68-2.142-25.021c-0.01-0.801-0.019-1.591-0.028-2.385c0.003-1.2,0.031-2.397,0.096-3.593
		c-0.053-0.332-0.102-0.664-0.152-0.995c-0.115-8.839-0.26-17.198-0.422-24.761c0.384-2.096,0.904-4.183,1.598-6.258
		c0.097-0.293,0.247-0.557,0.418-0.808c-0.639-0.623-1.067-1.461-1.109-2.546c-0.126-3.228-1.333-7.667-1.468-11.815
		c-0.003-0.113-0.007-0.217-0.01-0.329c-0.011-0.562-0.005-1.119,0.032-1.665c-0.027,0.04-0.054,0.08-0.081,0.12
		c-0.004-0.138-0.009-0.285-0.013-0.422c0.049-0.106,0.101-0.211,0.15-0.317c0.217-2.02,0.842-3.876,2.153-5.374
		c0.066-0.193,0.14-0.384,0.204-0.578c0.003-0.004,0.005-0.007,0.006-0.011c0,0,0-0.001-0.001-0.002
		c0.033-0.098,0.071-0.195,0.103-0.294c0.099-0.306-0.05-0.738-0.322-1.139c0.337-0.718,0.691-1.432,1.045-2.146
		c3.049,0.166,7.771,0.392,13.575,0.568c2.605,0.084,5.428,0.175,8.414,0.228c2.985,0.062,6.134,0.144,9.39,0.167
		c3.257,0.027,6.622,0.1,10.042,0.093c3.419,0.005,6.893,0.01,10.367,0.015c3.473-0.029,6.946-0.06,10.365-0.089
		c3.42-0.013,6.785-0.113,10.041-0.164c5.072-0.1,9.875-0.233,14.215-0.388c0.261,0.163,0.563,0.187,0.895-0.032
		c0.917-0.034,1.82-0.068,2.691-0.104c7.867-0.298,13.749-0.673,16.16-0.839c-0.004,0.121-0.009,0.24-0.014,0.372
		c-0.049,1.478-0.154,3.646-0.223,6.404c-0.139,5.519-0.424,13.401-0.61,22.861c-0.089,4.729-0.186,9.854-0.288,15.273
		c-0.074,5.42-0.153,11.135-0.234,17.048c-0.054,5.912-0.109,12.021-0.164,18.229c-0.029,6.208-0.06,12.515-0.09,18.821
		c0.006,6.308,0.01,12.614,0.016,18.822c-0.012,6.208,0.064,12.318,0.092,18.23c0.082,11.825,0.222,22.862,0.397,32.323
		c0.149,9.46,0.407,17.345,0.524,22.862c0.037,1.731,0.088,3.229,0.133,4.472c-1.368,0.07-2.734,0.156-4.1,0.244
		C144.558,240.68,140.579,240.504,135.886,240.361z M59.621,242.947c-1.031-0.041-2.061-0.088-3.09-0.135
		c0-0.184,0.003-0.367,0.004-0.551c0.947,0.033,1.92,0.066,2.937,0.098c3.021,0.102,6.339,0.189,9.859,0.263
		C66.094,242.748,62.858,242.862,59.621,242.947z M46.097,242.149c-0.157-0.013-0.315-0.023-0.473-0.037
		c-0.028-0.115-0.063-0.229-0.091-0.345c0.175,0.01,0.356,0.02,0.544,0.03C46.083,241.915,46.091,242.032,46.097,242.149z
		 M22.495,149.812c-0.106,0.031-0.207,0.082-0.292,0.168c-0.003-2.478,0.01-4.956,0.036-7.436c0.114,0.01,0.219-0.009,0.316-0.046
		c0.184,1.264,0.359,2.528,0.536,3.793C22.797,147.459,22.592,148.637,22.495,149.812z M39.136,74.043
		c0.137-0.379,0.272-0.759,0.416-1.136c-0.012,0.729-0.026,1.458-0.042,2.188c-0.154,0.529-0.291,1.062-0.439,1.592
		C39.12,75.805,39.14,74.924,39.136,74.043z M42.264,45.194c0.011,0,0.028,0.001,0.04,0.002c-0.012,0.021-0.025,0.042-0.038,0.062
		C42.266,45.238,42.265,45.215,42.264,45.194z M29.624,161.559c0.131-0.21,0.253-0.425,0.387-0.634
		c-0.132,0.246-0.25,0.498-0.379,0.746C29.629,161.633,29.626,161.596,29.624,161.559z M30.397,155.29
		c0.236-0.495,0.456-0.996,0.68-1.496c0.198,0.094,0.389,0.041,0.545-0.271c1.144-2.285,2.061-4.623,2.875-6.985
		c0.021,0.459,0.047,0.917,0.073,1.376c-0.043,0.175-0.082,0.35-0.125,0.524c-0.073,0.294,0.019,0.635,0.205,0.957
		c0.001,0.019,0.001,0.036,0.003,0.054c-0.048,0.195-0.096,0.391-0.144,0.586C33.043,151.744,31.673,153.495,30.397,155.29z
		 M31.265,180.163c0.725-1.162,1.454-2.326,2.185-3.495c-0.007,0.265-0.014,0.528-0.02,0.793
		C32.708,178.361,31.987,179.264,31.265,180.163z M35.434,196.371c-0.008,0.436-0.001,0.871-0.004,1.307
		c-0.134-1.414-0.25-2.828-0.356-4.244c0.219-0.345,0.436-0.689,0.65-1.035c0.119,0.981,0.229,1.963,0.343,2.944
		C35.706,195.471,35.445,195.791,35.434,196.371z M35.34,175.051c-0.052-0.395-0.104-0.787-0.156-1.179
		c0.466-0.757,0.923-1.517,1.382-2.277c-0.009,0.636-0.018,1.271-0.022,1.908C36.143,174.019,35.746,174.536,35.34,175.051z
		 M40.363,177.099c0.324-0.767,0.616-1.537,0.886-2.31c0.021,2.008,0.043,4.004,0.064,5.972c0.014,0.892,0.027,1.769,0.041,2.65
		c-0.314-1.684-0.628-3.367-0.939-5.058C40.394,177.936,40.378,177.517,40.363,177.099z M39.245,171.824
		c0.024-1.595,0.058-3.188,0.107-4.777c0.003-0.087,0.008-0.174,0.011-0.261c0.256-0.456,0.511-0.912,0.761-1.369
		c0.1,0.044,0.195,0.099,0.3,0.129c-0.035,0.302-0.045,0.632-0.017,0.901c0.001,0.015,0.003,0.028,0.004,0.042
		c-0.02-0.032-0.037-0.064-0.057-0.097c-0.172-0.273-0.333,0.699-0.333,0.704c-0.124,1.063-0.207,2.126-0.271,3.189
		c-0.146,0.524-0.299,1.049-0.474,1.569C39.267,171.845,39.256,171.834,39.245,171.824z M41.32,193.555
		c0.072,0.545,0.144,1.09,0.215,1.635c0.014,0.928,0.028,1.859,0.042,2.771c0.031,1.537,0.062,3.045,0.093,4.532
		c-0.095,0.581-0.21,1.16-0.298,1.741c0.033-3.616,0.014-7.231-0.082-10.848C41.301,193.442,41.31,193.498,41.32,193.555z
		 M37.344,156.472c0.054-0.993,0.071-1.989,0.035-2.989c0.042,0.535,0.086,1.072,0.128,1.607c-0.049,0.441-0.078,0.885-0.123,1.326
		C37.371,156.435,37.356,156.453,37.344,156.472z M36.099,141.531c-0.032,0.138-0.067,0.275-0.099,0.413
		c0-0.028-0.001-0.056-0.002-0.083C36.031,141.751,36.065,141.641,36.099,141.531z M32.245,207.368
		c0.047-0.082,0.098-0.162,0.145-0.244c0.073,0.298,0.154,0.595,0.225,0.893c-0.146,0.166-0.286,0.336-0.431,0.503
		C32.205,208.136,32.231,207.752,32.245,207.368z M39.393,185.917c0.132-0.259,0.272-0.515,0.402-0.774
		c0.406,2.209,0.811,4.413,1.205,6.611c-0.364-0.335-0.983,0.224-1.274,0.95C39.58,190.444,39.476,188.182,39.393,185.917z
		 M43.712,205.314c0.038-0.009,0.076-0.021,0.115-0.04c0.129,2.224,0.253,4.446,0.394,6.67c-0.086-0.627-0.176-1.253-0.256-1.88
		c-0.096-1.507-0.173-3.014-0.256-4.52C43.71,205.469,43.711,205.391,43.712,205.314z M27.682,135.52
		c-0.084,0.148-0.169,0.295-0.25,0.443c-0.144-0.289-0.358-0.632-0.59-0.92c0.301-0.312,0.594-0.628,0.91-0.928
		C27.728,134.583,27.702,135.051,27.682,135.52z M28.792,203.067c0.242-0.297,0.481-0.596,0.723-0.892c0,0.03,0,0.06,0,0.089
		c-0.251,0.519-0.511,1.034-0.772,1.551C28.758,203.566,28.772,203.316,28.792,203.067z M31.698,213.532
		c0.559-0.667,1.117-1.334,1.687-1.995c0.129,0.635,0.249,1.271,0.368,1.906c-0.001,0.006-0.002,0.013-0.003,0.019
		c-0.048,0.275-0.102,0.55-0.152,0.824c-0.002,0.004-0.004,0.008-0.006,0.012c-0.348,0.134-0.595,0.448-0.593,1.014l0,0.093
		c-0.55,1.009-1.121,2.011-1.713,3.007c0.005-0.737,0.007-1.474,0.013-2.211C31.439,215.311,31.572,214.421,31.698,213.532z
		 M47.5,41.041c0.481-0.009,0.963-0.02,1.444-0.025c-0.028,0.032-0.06,0.063-0.085,0.097c-0.62,0.774-0.138,2.395,1.136,2.613
		c1.899,0.327,3.817,0.544,5.745,0.693c-3.958,0.174-7.223,0.355-9.569,0.499c0.464-0.929,0.938-1.856,1.414-2.783
		C47.742,41.831,47.681,41.43,47.5,41.041z M152.217,44.71c-0.031-0.903-0.05-1.459-0.057-1.654
		c0.687-0.015,1.371-0.029,2.045-0.042c-1.771,10.619-0.617,21.335-1.244,32.003c-0.003-0.168-0.006-0.345-0.008-0.512
		c-0.15-9.46-0.404-17.344-0.521-22.863c-0.059-2.759-0.154-4.927-0.197-6.405c-0.005-0.135-0.009-0.258-0.013-0.381
		c0.688-0.048,1.068-0.077,1.068-0.077S152.907,44.753,152.217,44.71z M154.46,38.241c0.316-0.026,0.634-0.044,0.95-0.072
		c0.455-0.041,0.75-0.213,0.92-0.45c0.461,1.021,0.826,2.092,1.107,3.197c-0.329-0.455-0.811-0.809-1.352-0.805
		c-1.094,0.006-2.188,0.02-3.283,0.031c0.33-0.138,0.656-0.279,0.979-0.43C154.412,39.42,154.596,38.813,154.46,38.241z
		 M156.281,61.324c0.021,0.295,0.219,0.656,0.496,0.977c-0.348,0.965-0.676,1.934-0.987,2.906c-0.019-4.352-0.056-8.703,0.2-13.044
		C156.156,55.209,156.061,58.283,156.281,61.324z M158.684,127.726c-0.008,0.885-0.018,1.767-0.027,2.651
		c-0.721,1.287-1.513,2.539-2.396,3.743c0.003-0.64,0.009-1.281,0.012-1.921c0.633-2.588,1.453-5.154,2.41-7.695
		C158.683,125.578,158.684,126.651,158.684,127.726z M155.238,196.6c-0.111-0.807-0.206-1.614-0.328-2.419
		c-0.088-0.584-1.098-1.601-1.843-1.766c0.011-0.74,0.021-1.479,0.031-2.229c0.601,0.523,1.348,0.874,1.642,0.407
		c0.119,1.891,0.304,3.776,0.66,5.655C155.346,196.365,155.292,196.482,155.238,196.6z M158.311,153.361
		c-0.047,0.136-0.094,0.271-0.141,0.407c-0.125-1.033-0.262-2.066-0.434-3.099c-0.097-0.587-0.689-1.234-1.285-1.544
		c0.052-1.546,0.113-3.093,0.196-4.638C157.284,147.438,157.828,150.395,158.311,153.361z M153.46,141.571
		c0.066,1.856,0.118,3.712,0.131,5.565c0,0.042,0.017,0.083,0.021,0.126c-0.052-0.055-0.109-0.104-0.165-0.156
		c0.005-1.076,0.01-2.148,0.015-3.225C153.461,143.109,153.461,142.342,153.46,141.571z M151.98,239.188
		c-0.006,0.459-0.008,0.917-0.016,1.376c-0.012,0.001-0.024,0.002-0.037,0.002C151.945,240.14,151.963,239.676,151.98,239.188z
		 M155.809,229.238c-0.215,3.733-0.428,7.469-0.77,11.188c-0.125,0.005-0.25,0.008-0.373,0.014
		c0.152-4.789,0.444-9.569,0.848-14.345C155.607,227.143,155.707,228.19,155.809,229.238z M158.96,166.877
		c-0.028,0.143-0.046,0.285-0.072,0.428c-0.001-0.096-0.001-0.19-0.002-0.285C158.91,166.972,158.936,166.925,158.96,166.877z
		 M158.172,140.263c-0.239-0.987-0.49-1.972-0.751-2.957c0.416-0.531,0.81-1.073,1.187-1.624c-0.011,1.235-0.013,2.467-0.017,3.699
		C158.451,139.675,158.312,139.97,158.172,140.263z M158.962,90.479c-0.019,0.078-0.035,0.157-0.053,0.235
		c-0.263-1.37-0.555-2.737-0.874-4.102c0.237-0.228,0.472-0.458,0.702-0.69C158.813,87.44,158.881,88.959,158.962,90.479z
		 M156.508,93.569c0.428,1.987,0.824,3.979,1.198,5.974c0.372,3.369,0.604,6.751,0.757,10.14c-0.473,1.552-0.893,3.116-1.221,4.698
		c-0.106,0.51,0.714,2.317,1.436,2.407c0,0.296,0,0.593,0,0.89c-0.85,1.916-1.639,3.845-2.35,5.788
		C156.397,113.501,156.481,103.535,156.508,93.569z M157.144,187.207c-0.025-0.647-0.049-1.295-0.079-1.943
		c0.103,0.141,0.229,0.275,0.361,0.404C157.316,186.178,157.221,186.69,157.144,187.207z M165.113,160.127
		c-0.026,0.124-0.048,0.248-0.075,0.372c-0.069-0.104-0.152-0.207-0.241-0.308c-0.008-0.108-0.012-0.218-0.02-0.326
		C164.888,159.975,165.001,160.065,165.113,160.127z M165.311,86.867c0.001,0.075,0.002,0.151,0.002,0.227
		c-0.006-0.054-0.015-0.107-0.021-0.162C165.299,86.911,165.304,86.889,165.311,86.867z M163.917,102.17
		c0.016,0.247,0.031,0.494,0.048,0.741c-0.07-0.102-0.143-0.204-0.223-0.294C163.801,102.468,163.859,102.319,163.917,102.17z
		 M164.151,105.572c0.024,0.333,0.048,0.667,0.074,1.001c-0.136,0.25-0.276,0.495-0.411,0.745
		C163.936,106.737,164.048,106.155,164.151,105.572z M168.113,86.529c0.15,4.13,0.28,8.26,0.395,12.391
		c-0.134,0.234-0.268,0.472-0.4,0.707C168.104,95.261,168.102,90.896,168.113,86.529z M158.046,82.423
		c0.097-0.939,0.23-1.875,0.381-2.809c0.033,0.752,0.076,1.504,0.111,2.256C158.372,82.053,158.216,82.242,158.046,82.423z
		 M155.964,79.913c-0.675-0.688-1.829-1.18-2.101,0.013c-0.291,1.279-0.541,2.559-0.771,3.84c-0.033-2.205-0.065-4.354-0.097-6.431
		c0.504,1.097,2.168,2.323,2.475,0.767c0.674-3.401,1.507-6.778,2.533-10.116c0.021,0.733,0.057,1.465,0.08,2.198
		C157.125,73.394,156.385,76.637,155.964,79.913z M157.889,46.021c-0.007,0.335-0.017,0.671-0.022,1.007
		c-0.263-1.168-0.603-2.328-1.073-3.476c-0.068-0.165-0.215-0.367-0.403-0.569c0.197,0,0.395-0.003,0.59-0.004
		c0.43-0.002,0.685-0.178,0.808-0.438c0.013,0.068,0.02,0.138,0.031,0.207c-0.15,0.619-0.285,1.242-0.391,1.872
		C157.381,44.897,157.563,45.531,157.889,46.021z M154.5,35.219c-1.662-0.271-3.34-0.459-5.026-0.59
		c0.005,0,0.011-0.003,0.015-0.004c1.648-0.047,3.295-0.084,4.941-0.096c0.057,0.073,0.107,0.149,0.162,0.223
		C154.557,34.907,154.531,35.063,154.5,35.219z M144.04,43.151c2.743,0.021,5.472-0.039,8.114-0.095
		c-0.008,0.195-0.029,0.749-0.062,1.646c-2.408-0.148-8.295-0.48-16.173-0.721c-0.056-0.002-0.113-0.003-0.169-0.005
		c0.307-0.235,0.613-0.47,0.914-0.71C139.122,43.235,141.581,43.194,144.04,43.151z M131.445,43.847
		c-1.806-0.049-3.688-0.094-5.633-0.133c1.352-0.128,2.703-0.253,4.053-0.392c0.57-0.001,1.141-0.011,1.71-0.014
		C131.489,43.432,131.448,43.624,131.445,43.847z M42.319,45.172c-0.018,0.001-0.041,0.003-0.056,0.004
		c-0.02-0.489-0.038-0.935-0.052-1.329c-0.002-0.044-0.003-0.083-0.005-0.126c0.268,0.162,0.575,0.2,0.909-0.01
		c0.036-0.022,0.07-0.047,0.106-0.07C42.927,44.153,42.624,44.663,42.319,45.172z M42.049,43.848
		c-0.015,0.534-0.036,1.162-0.06,1.87c-0.305,0.503-0.602,1.009-0.913,1.509c-0.119-0.961-0.234-1.922-0.373-2.882
		c-0.027-0.188-0.119-0.406-0.253-0.624c0.31-0.382,0.627-0.761,0.931-1.146c0.137,0.383,0.373,0.795,0.676,1.047
		C42.054,43.697,42.051,43.768,42.049,43.848z M28.755,217.086c0.128-0.157,0.258-0.313,0.387-0.471
		c-0.117,0.74-0.232,1.48-0.349,2.22C28.778,218.251,28.773,217.67,28.755,217.086z M59.653,256.908
		c0.023,0.133,0.056,0.266,0.1,0.396c-1.373,0.103-2.745,0.197-4.113,0.256C57.009,257.352,58.348,257.131,59.653,256.908z
		 M65.425,256.723c0.48-0.258,0.925-0.535,1.359-0.824c0.222-0.131,0.423-0.281,0.639-0.417c1.884,0.033,3.769,0.061,5.654,0.085
		c0.07,0.1,0.146,0.189,0.231,0.263c-2.699,0.355-5.406,0.697-8.114,0.985C65.27,256.795,65.346,256.766,65.425,256.723z
		 M130.171,242.286c-0.318,0.032-0.638,0.061-0.956,0.093c-0.487-0.014-0.975-0.013-1.462-0.021
		C128.572,242.336,129.377,242.312,130.171,242.286z M157.064,211.269c0.439-3.631,0.906-7.26,1.398-10.888
		c0.127,1.447,0.248,2.895,0.369,4.342c-0.453,1.798-0.823,3.604-1.143,5.416C157.478,210.514,157.271,210.892,157.064,211.269z
		 M168.19,140.395c-0.089,0.061-0.173,0.124-0.261,0.185c0.213-2.033,0.373-4.07,0.488-6.111c0.023,1.217,0.045,2.434,0.049,3.65
		C168.376,138.876,168.282,139.636,168.19,140.395z M165.525,136.877c-0.112-0.87-0.221-1.74-0.332-2.609
		c0.206-0.413,0.404-0.828,0.592-1.246C165.712,134.308,165.634,135.594,165.525,136.877z M165.703,122.146
		c0.021-0.043,0.043-0.086,0.064-0.128c0.457-0.881-1.008-3.644-1.867-2.293c-0.138,0.216-0.252,0.432-0.366,0.648
		c-0.062-1.484-0.121-2.967-0.199-4.452c-0.021-0.406-0.046-0.813-0.067-1.219c0.516-0.882,1.008-1.772,1.49-2.667
		c0.204,1.753,0.437,3.504,0.74,5.248c0.064,0.368,0.323,0.759,0.656,1.077c-0.007,1.034-0.019,2.067-0.029,3.101
		C165.983,121.689,165.848,121.919,165.703,122.146z M165.182,51.531c-0.025,0.098-0.052,0.196-0.076,0.294
		c0.006-0.06,0.01-0.121,0.016-0.181C165.142,51.606,165.161,51.569,165.182,51.531z M161.052,41.149
		c-0.018-0.112-0.032-0.224-0.05-0.336c0.096-0.27,0.194-0.54,0.297-0.809c0.052,0.247,0.104,0.494,0.154,0.741
		C161.318,40.879,161.189,41.017,161.052,41.149z M160.364,35.56c-0.448,1.012-0.872,2.031-1.259,3.059
		c-0.317-0.861-0.684-1.701-1.106-2.516c0.718-0.669,1.413-1.354,2.094-2.046C160.178,34.558,160.266,35.059,160.364,35.56z
		 M151.424,26.841c-0.871,0.021-1.743,0.043-2.616,0.065c-0.495-0.143-0.997-0.276-1.503-0.406c1.396,0.078,2.783,0.172,4.166,0.271
		C151.455,26.794,151.438,26.817,151.424,26.841z M85.532,32.844c-0.39-0.013-0.781-0.027-1.171-0.04
		c0.059-0.151,0.07-0.367,0.042-0.615c0.908-0.241,1.81-0.496,2.708-0.763C86.585,31.9,86.059,32.373,85.532,32.844z
		 M34.518,118.952c0.092,0.104,0.186,0.2,0.277,0.282c0.009,0.149,0.019,0.298,0.028,0.446c-0.09,0.604-0.176,1.208-0.259,1.813
		c-0.427,1.643-0.786,3.295-1.127,4.951c-0.001,0-0.002,0-0.003,0.001c-0.453,0.213-0.896,0.444-1.333,0.684
		c0.052-1.257,0.121-2.517,0.194-3.776C33.087,121.904,33.828,120.436,34.518,118.952z M25.844,107.402
		c0.283-0.451,0.572-0.898,0.85-1.351c0.159-0.179,0.337-0.349,0.501-0.525c-0.081,0.396-0.162,0.791-0.243,1.186
		c-0.267,0.475-0.534,0.95-0.787,1.43c-0.159,0.302-0.098,1.06,0.148,1.692c-0.223,1.103-0.457,2.205-0.677,3.308
		c-0.048-1.594-0.081-3.188-0.117-4.782C25.627,108.041,25.738,107.722,25.844,107.402z M27.468,83.395
		c-0.138,0.632-0.278,1.264-0.409,1.896c-0.033-0.477-0.069-0.952-0.106-1.428c0.168-0.325,0.332-0.65,0.497-0.976
		C27.455,83.057,27.462,83.226,27.468,83.395z M24.099,209.036c0.065-0.085,0.131-0.169,0.196-0.253
		c0.013,0.229,0.026,0.457,0.04,0.686c0.011,0.405,0.015,0.812,0.027,1.217c-0.005,0.008-0.01,0.015-0.015,0.021
		C24.254,210.151,24.178,209.594,24.099,209.036z M28.193,239.622c0.177-0.194,0.349-0.391,0.524-0.585
		c0.098,0.092,0.196,0.164,0.288,0.192c-0.265,0.237-0.528,0.476-0.795,0.711C28.204,239.834,28.198,239.728,28.193,239.622z
		 M29.474,238.811c0.012-0.033,0.023-0.065,0.036-0.099c0,0.021,0.001,0.044,0.001,0.065
		C29.499,238.789,29.486,238.8,29.474,238.811z M159.31,246.637c-0.012-0.077-0.025-0.154-0.044-0.231
		c0.104-0.183,0.216-0.362,0.322-0.544c0.074,0.149,0.174,0.299,0.298,0.443C159.693,246.416,159.503,246.528,159.31,246.637z
		 M162.303,244.873c0.037-0.301,0.084-0.603,0.118-0.903c0.598-0.067,1.195-0.135,1.792-0.202
		C163.568,244.127,162.933,244.497,162.303,244.873z M169.941,207.475c-0.099,0.356-0.203,0.712-0.3,1.068
		c-0.056-0.374-0.104-0.75-0.161-1.123c-0.049-0.312-0.359-0.752-0.75-1.119c0.184-3.321,0.426-6.64,0.732-9.953
		c0.325,1.754,0.658,3.507,0.992,5.262C170.352,203.57,170.191,205.526,169.941,207.475z M170.336,174.225
		c-0.188,0.031-0.346,0.144-0.459,0.352c0.023-3.104,0.262-6.211,0.779-9.326C171.285,168.174,170.784,171.484,170.336,174.225z
		 M167.128,29.461c0.575,0.1,1.018,0.312,1.363,0.598c-0.013,0.032-0.028,0.056-0.041,0.091c-0.226,0.638-0.456,1.275-0.684,1.913
		c-0.638-0.075-1.212,0.217-1.243,1.087c-0.025,0.698-0.066,1.396-0.097,2.094c-0.302,0.333-0.601,0.667-0.896,1.002
		c-0.008-0.696-0.016-1.393-0.02-2.088c-0.004-0.582-0.428-1.075-0.951-1.376c0.562-1.148,1.118-2.298,1.652-3.452
		C166.52,29.369,166.824,29.409,167.128,29.461z M27.795,41.112c0.111,0.451,0.365,0.917,0.683,1.223
		c-0.426,1.251-0.781,2.521-1.045,3.817C27.511,44.469,27.631,42.789,27.795,41.112z M38.695,41.302
		c-1.589,1.965-3.254,3.889-5.057,5.731c0.741-1.899,1.735-3.751,2.647-5.619C37.088,41.373,37.892,41.336,38.695,41.302z
		 M28.905,67.84c0-0.035-0.001-0.07-0.002-0.105c0.01,0.015,0.018,0.032,0.027,0.047C28.923,67.802,28.913,67.821,28.905,67.84z
		 M22.309,119.203c-0.035,0.327-0.084,0.653-0.124,0.98c-0.305,0.511-0.595,1.026-0.866,1.546
		c-0.031-3.697-0.079-7.354-0.122-10.953c0.262,0.61,0.732,1.198,1.202,1.237C22.328,114.41,22.307,116.809,22.309,119.203z
		 M33.105,244.254l0.006,1.742c-0.021,0.053-0.043,0.105-0.063,0.158c-0.061,0.161-0.03,0.484,0.067,0.841l0,0.092
		c-0.254,0.062-0.51,0.114-0.764,0.178c-0.034,0.009-0.06,0.021-0.089,0.031c-0.054-0.523-0.119-1.047-0.167-1.569
		c-0.013-0.143-0.074-0.293-0.152-0.443C32.331,244.939,32.718,244.598,33.105,244.254z M122.37,247.963
		c-1.002,0.549-2.011,1.09-3.021,1.633c-0.338-0.062-0.673-0.134-1.012-0.193c-0.086-0.08-0.177-0.146-0.269-0.212
		C119.502,248.779,120.935,248.367,122.37,247.963z M130.287,251.119c-0.165,0.091-0.323,0.189-0.488,0.281
		c-0.157-0.005-0.314-0.008-0.472-0.013C129.646,251.298,129.968,251.21,130.287,251.119z M150.729,257.187
		c0.081,0.133,0.173,0.248,0.271,0.346c-1.821,0.102-3.715,0.156-5.679,0.171C147.15,257.609,148.967,257.448,150.729,257.187z
		 M152.395,257.354c0.143,0.017,0.286,0.035,0.427,0.05c-0.185,0.015-0.365,0.031-0.552,0.045
		C152.311,257.417,152.354,257.386,152.395,257.354z M170.904,129.123c-0.119-2.781-0.279-5.561-0.468-8.339
		c0.148-0.299,0.309-0.594,0.458-0.892c0,0.029,0,0.058,0,0.087C170.897,123.007,170.9,126.061,170.904,129.123z M163.611,26.147
		c-0.237-0.008-0.475-0.017-0.715-0.018c-0.071-0.277-0.216-0.547-0.412-0.778c0.511,0.135,1.001,0.285,1.472,0.447
		C163.841,25.914,163.726,26.03,163.611,26.147z M30.288,29.361c1.481-0.501,3.112-0.91,4.852-1.258
		c-0.3,0.122-0.605,0.234-0.901,0.365c-0.67,0.298-0.459,1.199-0.011,1.92c-1.508,0.274-3.005,0.576-4.484,0.916
		c-0.034,0.008-0.067,0.018-0.102,0.025c0.034-0.441,0.071-0.883,0.083-1.327c0.002-0.082-0.04-0.228-0.108-0.403
		C29.839,29.52,30.059,29.438,30.288,29.361z M27.302,52.168c0-1.448,0.027-2.893,0.072-4.337c0.314,0.844,1.146,1.818,1.934,0.969
		c0.598-0.646,1.163-1.311,1.714-1.982c-0.168,0.522-0.308,1.052-0.426,1.585c-1.458,2.926-3.131,5.767-4.859,8.589
		c0.193-1.607,0.419-3.212,0.677-4.814C26.862,52.695,27.303,52.927,27.302,52.168z M23.261,39.297
		c0.41-1.606,1.6-2.725,3.137-3.547c-0.134,0.943-0.253,1.889-0.355,2.835c-0.269,1.046-0.533,2.094-0.78,3.143
		c-0.389-0.393-0.757-0.507-0.829,0.22c-0.042,0.432-0.099,0.862-0.148,1.294c-0.033-0.202-0.055-0.404-0.091-0.606
		c-0.038-0.205-0.684-1.278-1.184-1.583C23.038,40.461,23.113,39.875,23.261,39.297z M21.53,84.023
		c0.002,0.004,0.004,0.008,0.006,0.012c0.247,5.203,0.664,10.402,1.178,15.589c-0.026,2.388-0.075,4.776-0.132,7.165
		c-0.535,0.816-1.007,1.661-1.403,2.54c-0.011-0.98-0.023-1.965-0.033-2.936c-0.085-7.129-0.188-13.975-0.302-20.415
		C21.055,85.323,21.282,84.672,21.53,84.023z M19.995,242.667c0.002,0.091,0.005,0.185,0.007,0.274
		c-0.02-0.068-0.045-0.133-0.073-0.195C19.951,242.72,19.973,242.693,19.995,242.667z M25.437,257.511
		c-1.213-0.397-2.188-0.913-2.926-1.447c0.149-0.083,0.292-0.203,0.42-0.379c0.504-0.688,0.92-1.401,1.287-2.128
		c0.22,0.926,0.443,1.85,0.663,2.777c0.205,0.868,2.372,2.281,2.564,0.687c0.089-0.737,0.158-1.474,0.213-2.21
		c0.115,0.05,0.227,0.077,0.341,0.092c0.455,0.433,0.959,0.837,1.522,1.205c0.269,0.444,0.669,0.861,1.005,1.07
		c0.061,0.485,0.117,0.971,0.175,1.456C28.684,258.371,26.906,258,25.437,257.511z M36.149,258.851
		c0.351,0.082,0.704,0.153,1.057,0.229c-0.358-0.007-0.707-0.02-1.056-0.03L36.149,258.851z M97.242,256.358
		c-1.086-0.003-2.173-0.006-3.26-0.006c0.229-0.018,0.459-0.037,0.688-0.054c0.297-0.021,0.504-0.109,0.651-0.235
		c2.408,0.131,4.818,0.243,7.229,0.352C100.783,256.387,99.014,256.365,97.242,256.358z M124.392,257.122
		c2.343,0.046,4.685,0.092,7.028,0.12c0.062,0.061,0.131,0.114,0.2,0.167c-1.741-0.066-3.502-0.136-5.294-0.206
		C125.687,257.176,125.037,257.149,124.392,257.122z M172.014,228.361c-0.062-0.143-0.12-0.286-0.18-0.43
		c-0.103-0.948-0.223-1.9-0.356-2.848c-0.224-2.478-0.456-4.954-0.715-7.429c0.368-1.302,0.672-2.612,0.946-3.926
		c0.035-0.063,0.069-0.128,0.104-0.191c0.004,0.18,0.008,0.369,0.012,0.548c0.101,4.938,0.224,9.47,0.342,13.504
		C172.114,227.847,172.068,228.105,172.014,228.361z"/>
</g>
<path fill="#5C5C5C" d="M155.57,236.595c-2.162-2.981-4.838-5.519-7-8.5c-1.045-1.44-4.363-0.41-4.659,1.129
	c-0.23-0.148-0.458-0.302-0.689-0.449c-0.862-0.551-2.935-0.092-3.921,0.736c-1.95-0.959-3.935-1.845-6.046-2.461
	c-0.636-0.186-1.696,0.016-2.554,0.433c-3.127-1.521-6.27-3.01-9.446-4.433c-1.339-0.6-4.054,0.687-3.827,2.1
	c-1.715-0.56-3.439-1.094-5.173-1.6c-1.041-0.304-3.434,0.677-3.896,1.734c-1.846-0.554-3.729-1.017-5.662-1.354
	c-0.976-0.171-2.95,0.772-3.303,1.819c-0.757-0.16-1.516-0.317-2.282-0.442c-5.023-1.449-10.193-2.143-15.036-1.382
	c-1.026,0.161-4.181,1.979-2.071,3.125c0.855,0.465,1.73,0.884,2.614,1.282c-5.775-1.112-11.609-1.764-17.543-1.407
	c-0.508,0.03-1.162,0.364-1.7,0.812c-0.559-0.105-1.116-0.216-1.679-0.307c-0.524-0.084-1.153,0.107-1.722,0.431
	c-2.573-1.546-5.159-3.072-7.754-4.586c-1.151-0.673-3.403,0.099-4.142,1.131c-0.836-0.938-1.674-1.872-2.509-2.811
	c-1.416-1.591-5.994,0.265-4.414,2.135c1.118,1.324,2.331,2.834,3.671,4.226c-0.295,0.361-0.453,0.816-0.375,1.367
	c0.138,0.979,0.278,1.956,0.425,2.932c0.004,0.706,0.049,1.397,0.13,2.08c-0.268,0.079-0.587,0.14-0.961,0.18
	c-0.283-0.026-0.566-0.061-0.85-0.084c-1.695-0.142-5.093,2.664-2.225,3.345c0.186,0.044,0.371,0.084,0.557,0.12l0,0
	c0,0,0.001,0,0.001,0c0.842,0.163,1.685,0.242,2.502,0.243c0.605,0.062,1.209,0.13,1.813,0.2c0.186,0.655,0.387,1.313,0.606,1.984
	c0.633,1.938,4.452,1.109,4.83-0.667c0.935,0.3,1.896,0.517,2.889,0.638c0.772,0.6,1.544,1.197,2.334,1.757
	c1.306,0.894,4.068-0.258,4.331-1.56c1.416,0.212,2.833,0.412,4.252,0.604c0.129,0.059,0.254,0.123,0.384,0.181
	c0.458,0.204,1.048,0.216,1.625,0.085c0.068,0.009,0.136,0.019,0.205,0.027c4.52,0.559,9.009,0.637,13.5,0.513
	c4.283,0,8.565,0,12.848,0c0.686,0,1.336-0.319,1.812-0.764c3.781-0.207,7.563-0.404,11.346-0.603
	c2.238,0.455,4.482,0.894,6.721,1.361c1.017,0.213,2.415-0.551,3.005-1.433c8.67,0.136,17.333,0.521,25.995,0.933
	c0.895,0.042,2.375-0.753,3.024-1.601c1.565,0.013,3.55-1.166,3.316-2.24c0.868,0.515,1.74,1.022,2.635,1.496
	C152.871,239.772,157.098,238.7,155.57,236.595z M134.521,235.401c-0.292-0.079-0.586-0.155-0.878-0.235
	c0.409-0.179,0.88-0.517,1.228-0.916c0.623,0.328,1.25,0.651,1.871,0.984C136.002,235.294,135.262,235.345,134.521,235.401z
	 M92.229,237.872c-0.113-0.329-0.411-0.621-0.974-0.822c-0.395-0.141-0.793-0.268-1.189-0.404c0.588-0.065,1.176-0.134,1.765-0.204
	c0.167,0.119,0.368,0.233,0.642,0.333c0.913,0.332,1.833,0.638,2.755,0.926C94.227,237.757,93.227,237.812,92.229,237.872z"/>
<g>
	<g>
		<path fill="#FFFFFF" d="M87.651,233.298c2.063,0.148,4.447-1.771,5.431-3.46c0.219-0.376-0.997-0.406-1.217-0.027
			c-0.396,0.679-1.015,1.23-1.622,1.715c-0.614,0.489-1.508,1.174-2.336,1.114C87.304,232.597,86.815,233.237,87.651,233.298
			L87.651,233.298z"/>
	</g>
	<g>
		<path fill="#FFFFFF" d="M91.958,230.188c0.982,1.354,2.214,2.314,3.708,3.052c0.152,0.075,0.476-0.118,0.606-0.182
			c0.028-0.013,0.564-0.338,0.521-0.359c-1.493-0.737-2.726-1.698-3.708-3.052C92.96,229.475,91.911,230.123,91.958,230.188
			L91.958,230.188z"/>
	</g>
	<g>
		<path fill="#FFFFFF" d="M88.977,233.511c0.045,0.813,0.047,1.627,0.048,2.441c0,0.212,0.261,0.514,0.375,0.673
			c0.019,0.026,0.327,0.41,0.327,0.308c0-0.814-0.002-1.628-0.048-2.441c-0.012-0.222-0.254-0.504-0.375-0.673
			C89.284,233.792,88.971,233.412,88.977,233.511L88.977,233.511z"/>
	</g>
	<g>
		<path fill="#FFFFFF" d="M89.74,237.388c1.978-0.014,3.944-0.185,5.915-0.329c0.632-0.046-0.006-1.077-0.447-1.045
			c-1.971,0.144-3.938,0.315-5.916,0.329C88.667,236.347,89.296,237.391,89.74,237.388L89.74,237.388z"/>
	</g>
	<g>
		<path fill="#FFFFFF" d="M95.914,236.86c0.008-0.556-0.211-1.053-0.283-1.597c-0.075-0.561,0.197-1.129,0.377-1.643
			c-0.046,0.13-1.18-0.085-1.246,0.104c-0.191,0.548-0.39,1.054-0.377,1.643c0.013,0.547,0.292,1.038,0.283,1.597
			C94.668,236.957,95.913,236.935,95.914,236.86L95.914,236.86z"/>
	</g>
	<g>
		<path fill="#FFFFFF" d="M77.19,232.518c2.101,0.107,5.834-0.524,6.421,2.201c0.534,2.478-4.933,1.722-6.184,1.705
			c-0.692-0.01,0.206,0.782,0.576,0.787c1.994,0.027,7.908,0.843,6.501-2.873c-1.116-2.948-5.451-2.483-7.891-2.607
			C75.927,231.695,76.823,232.499,77.19,232.518L77.19,232.518z"/>
	</g>
	<g>
		<path fill="#FFFFFF" d="M77.541,231.641c0.062,0.71,0.117,1.42,0,2.127c0.323,0.15,0.646,0.301,0.969,0.45
			c-1.191-0.889-2.583-1.371-3.972-1.857c0.293,0.189,0.586,0.38,0.88,0.569c1.093-0.089,2.081-0.535,3.131-0.813
			c0.11-0.029-0.302-0.282-0.333-0.302c-0.141-0.083-0.527-0.357-0.707-0.31c-1.047,0.277-2.04,0.725-3.131,0.813
			c-0.112,0.009,0.195,0.216,0.207,0.223c0.209,0.136,0.438,0.265,0.673,0.347c0.809,0.283,1.721,0.504,2.415,1.021
			c0.068,0.051,0.954,0.541,0.969,0.45c0.118-0.707,0.062-1.417,0-2.127c-0.013-0.151-0.401-0.315-0.509-0.373
			C78.106,231.845,77.537,231.595,77.541,231.641L77.541,231.641z"/>
	</g>
	<g>
		<path fill="#FFFFFF" d="M100.769,237.084c-0.012-1.544-0.203-2.878-0.94-4.246c-0.004,0.226-0.009,0.45-0.014,0.676
			c2.441-0.194,5.004-0.204,7.447-0.062c0.51,0.029,0.275-0.062,0.266,0.434c-0.007,0.39-0.03,0.781-0.031,1.171
			c-0.002,0.922,0.117,1.657,0.473,2.498c-0.018-0.223-0.036-0.445-0.055-0.668c-2.603,0.346-5.23-0.113-7.818-0.384
			c-0.337-0.034,0.051,1.104,0.406,1.143c2.642,0.275,5.301,0.721,7.955,0.368c0.211-0.028-0.024-0.597-0.055-0.668
			c-0.589-1.393,0.528-3.65-0.783-4.767c-0.693-0.591-2.157-0.268-2.978-0.273c-1.75-0.011-3.487-0.072-5.233,0.066
			c-0.287,0.023-0.087,0.539-0.014,0.676c0.587,1.089,0.675,2.191,0.685,3.389C100.081,236.745,100.773,237.736,100.769,237.084
			L100.769,237.084z"/>
	</g>
	<g>
		<path fill="#FFFFFF" d="M103.489,232.594c0.074-0.71,0.052-1.417,0.125-2.127c-0.416,0.023-0.832,0.047-1.248,0.07
			c2.561,0.398,5.138,0.271,7.719,0.242c1.837-0.021,1.101,1.452,0.836,2.63c-0.13,0.579-0.062,1.069,0.082,1.634
			c0.059,0.229-1.963,0.243-2.091,0.242c-0.376-0.002-0.909,0.071-1.203,0.07c0.95,0.005,1.897-0.01,2.846-0.078
			c0.751-0.054,1.797,0.094,1.559-0.847c-0.298-1.173,0.537-2.503,0.452-3.714c-0.008-0.001-0.015-0.001-0.022-0.001
			c-2.98-0.038-5.97,0.212-8.929-0.249c-0.119-0.018-1.245,0.04-1.248,0.07c-0.074,0.709-0.052,1.416-0.125,2.125
			C102.247,232.605,103.481,232.668,103.489,232.594L103.489,232.594z"/>
	</g>
</g>
<g>
	<path fill="#FFFFFF" d="M55.212,199.581c1.987-21.199,3.004-42.466,4.016-63.729c0.031-0.652-4.66,0.13-4.73,1.619
		c-1.005,21.11-2.011,42.226-3.984,63.271C50.402,201.943,55.101,200.771,55.212,199.581L55.212,199.581z"/>
</g>
<g>
	<path fill="#010202" d="M137.484,201.486c1.923-25.637,0.537-51.33,0.5-77c-0.002-1.098-3.244-2.664-3.242-1.648
		c0.037,25.67,1.423,51.364-0.5,77C134.162,200.905,137.403,202.562,137.484,201.486L137.484,201.486z"/>
</g>
<g>
	<path fill="#010202" d="M54.835,202.993c-0.295-15.639,2.8-31.03,4.409-46.527c1.207-11.621,4.125-25.258,0.365-36.606
		c-0.473-1.427-2.302-2.839-1.492-0.396c2.103,6.348,1.141,13.355,0.447,19.866c-0.646,6.069-0.992,12.158-1.668,18.224
		c-1.588,14.252-4.277,28.381-4.005,42.776C52.908,201.216,54.855,204.04,54.835,202.993L54.835,202.993z"/>
</g>
<g>
	<path fill="#010202" d="M56.345,126.836c28.337-0.023,56.664-0.977,85-1c0.596,0-2.198-1.348-2.965-1.348
		c-28.336,0.023-56.663,0.977-85,1C52.785,125.489,55.579,126.836,56.345,126.836L56.345,126.836z"/>
</g>
<g>
	<path fill="#010202" d="M54.147,203.528c28.333,0,56.667,0,85,0c-0.513,0-1.508-2.732-2.568-2.732c-28.333,0-56.666,0-85,0
		C52.092,200.796,53.087,203.528,54.147,203.528L54.147,203.528z"/>
</g>
<g>
	<path fill="#F4BA40" d="M88.089,173.961c4.707,0.495,9.429,0.525,14.017,1.795c4.079,1.128,6.653,4.164,11.053,3.951
		c0.253-0.012,1.136-0.602,0.91-0.59c-4.477,0.217-8.158-3.196-12.4-4.369c-4.015-1.111-8.412-0.951-12.53-1.385
		C88.796,173.328,88.127,173.965,88.089,173.961L88.089,173.961z"/>
</g>
<g>
	<path fill="#F4BA40" d="M115.957,178.205c2.222-3.764,2.472-7.816,3.066-12.064c0.769-5.499,4.139-10.091,6.665-14.884
		c2.179-4.133,5.63-8.037,7.075-12.5c1.024-3.162-0.871-8.79,1.599-11.301c2.266-2.304-1.974-1.127-2.998-0.086
		c-2.346,2.385-2.476,5.136-2.528,8.377c-0.039,2.446-0.189,4.513-1.186,6.789c-1.152,2.633-3.506,4.775-4.881,7.333
		c-2.37,4.413-5.001,8.953-6.898,13.594c-2.157,5.278-1.134,11.13-4.102,16.156C110.937,181.03,115.312,179.296,115.957,178.205
		L115.957,178.205z"/>
</g>
<g>
	<path fill="#F4BA40" d="M112.81,172.055c-5.974-2.431-11.824-5.328-15.163-11.066c-2.844-4.887-5.391-9.41-9.046-13.801
		c-3.622-4.35-7.622-8.82-12.058-12.356c-3.904-3.111-8.976-5.599-11.09-10.378c-0.21-0.475-1.38-0.04-1.179,0.417
		c1.952,4.413,6.404,7.027,10.161,9.769c4.949,3.61,9.112,8.523,13.096,13.137c4.325,5.011,6.932,10.809,10.566,16.235
		c2.93,4.375,9.157,6.86,13.82,8.758C112.342,172.942,113.384,172.289,112.81,172.055L112.81,172.055z"/>
</g>
<g>
	<path fill="#F4BA40" d="M70.389,173.038c0.552,3.389,0.952,6.826,0.5,10.25c-0.039,0.296,0.928,0.908,0.949,0.748
		c0.451-3.424,0.051-6.861-0.5-10.25C71.283,173.449,70.378,172.975,70.389,173.038L70.389,173.038z"/>
</g>
<g>
	<path fill="#F4BA40" d="M62.575,175.329c6.061,11.993,22.004,12.939,28.25,25c0.35,0.675,0.92,0.329,0.577-0.334
		c-2.425-4.684-5.46-7.634-9.807-10.584C75.006,184.94,67,182.61,63.152,174.995C62.809,174.315,62.239,174.665,62.575,175.329
		L62.575,175.329z"/>
</g>
<g>
	<path fill="#F4BA40" d="M109.156,201.721c4.104-7.774,9.421-14.994,16.75-20c0.049-0.032-0.802-0.812-1.086-0.617
		c-7.33,5.005-12.646,12.225-16.75,20C107.961,201.311,109.057,201.91,109.156,201.721L109.156,201.721z"/>
</g>
<g>
	<path fill="#F8F2A8" d="M111.426,128.846c0.72,5.448-5.038,8.93-8.982,11.419c-4.424,2.792-9.109,5.155-13.565,7.897
		c-9.487,5.836-16.149,16.264-18.138,27.156c-0.097,0.529,4.01-1.017,4.246-2.311c1.465-8.026,5.437-14.554,10.614-20.744
		c3.309-3.956,9.626-6.247,14.014-8.783c5.795-3.35,17.104-9.136,16.021-17.334C115.592,125.819,111.242,127.452,111.426,128.846
		L111.426,128.846z"/>
</g>
<g>
	<path fill="#F8F2A8" d="M67.481,199.878c8.455,0.28,15.074-5.131,21.623-9.731c12.228-8.591,29.329-9.96,43.777-10.941
		c0.745-0.051,5.382-1.56,3.297-1.418c-11.598,0.787-23.107,2.265-34.293,5.519c-5.132,1.493-10.075,3.531-14.793,6.031
		c-4.635,2.456-10.057,9.292-15.514,9.111C70.559,198.414,66.759,199.854,67.481,199.878L67.481,199.878z"/>
</g>
<g>
	<path fill="#F8F2A8" d="M67.763,148.573c15.618,4.795,25.094,17.867,34.353,30.449c8.165,11.097,21.021,13.717,32.979,18.884
		c0.026,0.011-1.187-3.602-2.465-4.154c-6.248-2.699-12.818-4.57-18.985-7.459c-8.341-3.906-12.927-11.317-18.354-18.334
		c-7.934-10.258-17.312-19.646-29.995-23.54C65.126,144.366,66.47,148.176,67.763,148.573L67.763,148.573z"/>
</g>
<g>
	<path fill="#E9E8E8" d="M104.004,153.02c1.104,1.449,2.229,2.885,3.333,4.334c0.154,0.202,1.151,0.447,1.096,0.345
		c-0.704-1.305-3.532-3.616-1.237-1.653c1.207,1.031,2.375,1.802,3.789,2.523c0.049,0.024,0.879,0.32,0.782,0.13
		c-1.269-2.499-2.92-4.575-4.71-6.726c-0.185-0.222-1.131-0.396-1.096-0.346c2.118,2.997,4.607,5.655,7.043,8.393
		c0.172,0.193,1.245,0.517,1.053,0.287c-1.415-1.695-3.82-5.917-5.307-6.689c0.934,0.485,2.126,0.614,3.142,0.823
		c0.077,0.017,0.22,0.038,0.208-0.075c-0.232-2.179-1.042-4.888-2.628-6.007c1.29,0.91,2.553,1.629,3.996,2.281
		c0.064,0.028,0.819,0.269,0.589-0.001c-0.61-0.711-3.373-2.729-0.434-0.301c0.929,0.768,1.985,1.311,3.027,1.897
		c0.079,0.044,0.99,0.321,0.739,0.071c-1.39-1.385-2.723-3.023-4.437-3.998c1.114,0.634,2.471,0.963,3.669,1.392
		c0.019,0.007,0.579,0.153,0.478-0.002c-0.684-1.044-1.301-2-2.043-3.003c-0.547-0.739-4.951-5.128-2.309-3.274
		c0.068,0.048,1.022,0.52,1.022,0.324c0-2.379,2.859-0.101,4.662,0.334c0.012,0.003,0.427,0.09,0.334-0.048
		c-0.752-1.105-1.631-1.778-2.347-2.339c1.196,0.938,2.346,1.635,3.715,2.281c0.043,0.02,0.708,0.254,0.632,0.059
		c-0.483-1.239-1.691-4.284-2.527-4.724c1.504,0.791,2.886,1.357,4.526,1.771c0.09,0.023,0.462,0.097,0.291-0.106
		c-2.785-3.318-2.318-2.854,1.411-1.333c0.048,0.02,0.695,0.264,0.632,0.059c-0.899-2.893-2.341-5.183-4.376-7.393
		c-0.183-0.198-1.243-0.494-1.053-0.286c1.663,1.806,2.916,3.7,3.876,5.943c0.901,2.103-2.977-0.127-3.137-0.206
		c-0.072-0.036-0.973-0.365-0.739-0.071c1.306,1.639,3.517,4.141-2.131,0.812c-0.092-0.054-1.097-0.451-0.869-0.145
		c0.064,0.086,5.361,7.882-0.281,2.619c-0.174-0.162-1.257-0.513-1.053-0.286c1.652,1.312,1.053,1.693-1.797,1.145
		c-0.056-0.035-0.916-0.427-0.916-0.251c0,0.556,0,1.111,0,1.667c0.341,0.107,0.682,0.216,1.022,0.324
		c-0.618-0.435-1.229-0.798-1.903-1.147c-0.079-0.041-0.96-0.374-0.739-0.071c1.311,1.792,7.348,8.641,1.202,5.145
		c-0.132-0.075-1.246-0.461-0.792-0.077c2.068,1.749,5.982,5.936,0.643,0.886c-0.169-0.16-1.257-0.525-1.053-0.287
		c1.767,1.808,1.229,1.681-1.614-0.381c-0.152-0.135-1.168-0.459-1.096-0.345c0.421,0.659,4.741,8.684-0.088,5.537
		c-0.099-0.063-1.09-0.45-0.869-0.146c1.076,1.489,2.171,2.959,3.288,4.417c0.498,1.075,1.303,1.762,2.414,2.06
		c-0.697-0.769-1.394-1.539-2.087-2.312c-1.196-1.326-2.816-2.602-3.919-3.927c1.059,1.252,2.021,2.576,2.886,3.973
		c-1.491-0.491-2.667-1.354-3.529-2.59c-0.175-0.207-1.142-0.415-1.096-0.346c0.688,1.045,1.635,1.763,2.294,2.626
		c-0.838-1.099-1.693-2.183-2.531-3.28C104.895,153.094,103.82,152.778,104.004,153.02L104.004,153.02z"/>
</g>
<g>
	<path fill="#E9E8E8" d="M80.675,178.735c1.743,2.031,3.59,3.969,5.333,6c0.27-0.2,0.54-0.399,0.809-0.6
		c-3.86-1.328-6.602-4.117-9.099-7.212c-0.348,0.159-0.696,0.319-1.044,0.479c1.985,2.271,5.927,5.652,4.913,9.039
		c-0.11,0.367,0.399,0.442,0.64,0.442c2,0,4,0,6,0c0.295,0,0.808-0.308,0.491-0.627c-0.369-0.371-4.183-3.585-1.991-3.374
		c0.312,0.03,1.023-0.222,0.657-0.626c-1.205-1.332-2.51-2.534-3.827-3.753c-2.741-2.538,3.601-0.111,4.554,0.302
		c0.3,0.13,1.472-0.122,0.94-0.549c-1.603-1.287-3.172-2.587-4.667-4c-0.27,0.2-0.54,0.399-0.809,0.6
		c3.96,1.438,7.532,3.584,11.203,5.616c0.279-0.206,0.558-0.413,0.836-0.619c-0.777-0.334-1.556-0.667-2.333-1
		c-0.185,0.232-0.369,0.465-0.554,0.697c0.621,0.071,1.234,0.186,1.848,0.306c0.352,0.068,1.388-0.329,0.705-0.67
		c-0.889-0.444-1.777-0.889-2.666-1.333c-0.185,0.232-0.369,0.465-0.554,0.697c0.684,0.195,1.367,0.392,2.05,0.588
		c0.235-0.223,0.471-0.446,0.706-0.67c-3.259-0.665-5.613-2.814-7.765-5.212c-0.27,0.2-0.54,0.399-0.809,0.6
		c1,0.222,2,0.444,3,0.667c0.311,0.069,1.232-0.128,0.809-0.6c-2.048-2.283-4.284-4.384-6.333-6.667
		c-0.313,0.183-0.627,0.366-0.94,0.549c2.106,1.123,4.03,2.437,5.896,3.93c0.348-0.159,0.696-0.319,1.044-0.479
		c-2.378-1.721-4.62-3.431-6.263-5.912c-0.293,0.17-0.586,0.341-0.879,0.512c2.215,0.446,4.19,1.288,6.202,2.282
		c0.235-0.223,0.471-0.446,0.706-0.67c-1.226-0.438-2.404-0.977-3.536-1.615c-0.437-0.229-1.5,0.271-0.837,0.619
		c1.271,0.667,2.448,1.249,3.797,1.717c0.396,0.137,1.346-0.354,0.706-0.67c-2.129-1.053-4.133-1.914-6.465-2.384
		c-0.217-0.044-1.177,0.062-0.879,0.512c1.674,2.53,3.965,4.323,6.404,6.088c0.368,0.267,1.558-0.067,1.044-0.479
		c-1.94-1.552-3.908-2.899-6.104-4.07c-0.332-0.177-1.386,0.052-0.94,0.549c2.049,2.283,4.285,4.383,6.333,6.667
		c0.27-0.2,0.54-0.399,0.809-0.6c-1-0.223-2-0.445-3-0.667c-0.31-0.068-1.232,0.128-0.809,0.6c2.297,2.558,4.794,4.752,8.235,5.454
		c0.357,0.072,1.396-0.402,0.705-0.67c-0.867-0.337-1.697-0.594-2.616-0.744c-0.364-0.059-1.141,0.404-0.554,0.697
		c0.889,0.444,1.778,0.889,2.667,1.333c0.235-0.224,0.47-0.446,0.706-0.67c-0.714-0.14-1.428-0.276-2.152-0.36
		c-0.339-0.038-1.171,0.433-0.554,0.697c0.778,0.333,1.556,0.666,2.334,1c0.417,0.179,1.52-0.241,0.836-0.619
		c-3.754-2.08-7.417-4.248-11.465-5.718c-0.303-0.109-1.254,0.179-0.809,0.6c1.494,1.413,3.064,2.712,4.667,4
		c0.313-0.183,0.627-0.366,0.94-0.549c-2.573-1.116-4.941-2.168-7.783-1.745c-0.291,0.043-0.809,0.275-0.491,0.627
		c1.797,1.985,3.869,3.681,5.667,5.667c0.219-0.209,0.438-0.418,0.657-0.626c-1.406-0.137-1.197-0.157-2.5-0.001
		c-0.317,0.038-0.779,0.27-0.491,0.627c1.102,1.364,4.407,3.373,1.157,3.373c-2.494,0-1.854-0.167-2.357-2.142
		c-0.676-2.652-3.351-5.055-5.09-7.043c-0.317-0.363-1.464-0.043-1.044,0.479c2.64,3.271,5.543,6.068,9.568,7.454
		c0.333,0.114,1.201-0.144,0.809-0.6c-1.743-2.031-3.59-3.969-5.333-6C81.403,177.889,80.241,178.229,80.675,178.735L80.675,178.735
		z"/>
</g>
<g>
	<path fill="#E9E8E8" d="M122.417,175.786c2.347-7.036,4.714-14.062,7.334-21c-0.369-0.193-0.738-0.387-1.107-0.58
		c-1.453,6.021-3.963,11.635-6.334,17.333c-0.031,0.074,1.02,0.673,1.107,0.58c2.285-2.416,4.217-5.108,6.334-7.666
		c-0.369-0.193-0.738-0.387-1.107-0.58c-0.16,3.052-0.958,5.809-2,8.666c0.369,0.193,0.738,0.387,1.107,0.58
		c0.456-3.261,1.389-6.304,2.666-9.333c-0.369-0.193-0.738-0.387-1.107-0.58c0.214,2.383-0.005,4.639-0.333,7
		c-0.021,0.149,1.085,0.626,1.107,0.58c0.914-1.842,1.419-3.826,2.333-5.667c-0.369-0.193-0.738-0.387-1.107-0.58
		c0.492,1.91,0.651,3.7,0.667,5.667c0.002,0.268,1.106,0.473,1.107,0.58c-0.016-1.968-0.174-3.758-0.667-5.667
		c-0.039-0.151-1.077-0.642-1.107-0.58c-0.914,1.842-1.419,3.826-2.333,5.667c0.369,0.193,0.738,0.387,1.107,0.58
		c0.328-2.362,0.547-4.618,0.333-7c-0.015-0.168-1.092-0.616-1.107-0.58c-1.277,3.03-2.21,6.073-2.666,9.333
		c-0.024,0.17,1.101,0.599,1.107,0.58c1.042-2.858,1.84-5.614,2-8.666c0.007-0.132-1.043-0.657-1.107-0.58
		c-2.117,2.559-4.049,5.251-6.334,7.666c0.369,0.193,0.738,0.387,1.107,0.58c2.371-5.699,4.882-11.312,6.334-17.333
		c0.037-0.154-1.098-0.606-1.107-0.58c-2.621,6.939-4.988,13.965-7.334,21C121.261,175.352,122.409,175.811,122.417,175.786
		L122.417,175.786z"/>
</g>
<g>
	<path fill="#E9E8E8" d="M68.003,160.832c0.69,0.535,1.468,0.868,2.333,1c0.143,0.042,1.067-0.653,1.054-0.672
		c-1.452-2.065-2.979-3.81-5-5.333c-0.077-0.059-1.077,0.59-1.054,0.672c0.539,1.925,1.348,3.599,2.333,5.333
		c0.351-0.224,0.703-0.448,1.054-0.672c-1.651-1.053-3.237-2.141-5-3c-0.132-0.064-1.062,0.659-1.054,0.672
		c2.006,2.893,4.188,5.645,6,8.667c0.351-0.224,0.703-0.448,1.054-0.672c-2.065-0.768-4.027-1.688-6-2.667
		c-0.121-0.061-1.072,0.641-1.054,0.672c1.059,1.824,2.326,3.379,3.667,5c0.351-0.224,0.703-0.448,1.054-0.672
		c-0.969-0.646-1.893-0.978-3-1.333c-0.143-0.046-1.065,0.657-1.054,0.672c0.556,0.778,1.112,1.556,1.667,2.333
		c0.351-0.224,0.703-0.448,1.054-0.672c-1.701-0.198-3.354-0.164-5-0.667c-0.146-0.045-1.062,0.661-1.054,0.672
		c0.333,0.445,0.667,0.89,1,1.334c0.343-0.223,0.686-0.446,1.029-0.67c-3.767,0.719-4.853,2.957-3.029,6.67
		c0.351-0.224,0.703-0.448,1.054-0.672c-0.556,0-1.111,0-1.667,0c-0.138,0-1.084,0.626-1.054,0.672
		c3.83,5.814,9.541,9.729,14.333,14.666c0.351-0.224,0.703-0.448,1.054-0.672c-3.266-0.4-5.646-2.238-8.333-4
		c-0.183-0.12-0.974,0.729-1.054,0.672c2.305,1.62,4.542,3.135,6.333,5.334c0.343-0.223,0.686-0.446,1.029-0.67
		c-3.654,0.434-6.641-0.31-9.975-1.669c-0.351,0.224-0.703,0.448-1.054,0.672c3.733-0.229,7.315,0.056,11,0.667
		c0.343-0.223,0.686-0.446,1.029-0.67c-1.917,0.255-3.725,0.324-5.642,0.331c-0.324,0.001-0.821,0.715-1.054,0.672
		c1.332,0.247,2.668,0.42,4,0.667c0.335,0.062,0.805-0.719,1.054-0.672c-1.332-0.247-2.668-0.421-4-0.667
		c-0.351,0.224-0.703,0.448-1.054,0.672c1.921-0.007,3.789-0.082,5.691-0.335c0.292-0.039,0.814-0.706,1.029-0.67
		c-3.685-0.611-7.267-0.896-11-0.667c-0.241,0.015-0.931,0.723-1.054,0.672c3.324,1.356,6.45,2.089,10.025,1.665
		c0.13-0.016,1.051-0.643,1.029-0.67c-1.791-2.2-4.028-3.714-6.333-5.334c-0.351,0.224-0.703,0.448-1.054,0.672
		c2.688,1.762,5.067,3.601,8.333,4c0.164,0.021,1.049-0.677,1.054-0.672c-4.793-4.937-10.503-8.853-14.333-14.666
		c-0.351,0.224-0.703,0.448-1.054,0.672c0.556,0,1.111,0,1.667,0c0.134,0,1.089-0.6,1.054-0.672
		c-0.888-1.808-2.299-4.706,0.971-5.33c0.124-0.023,1.059-0.63,1.029-0.67c-0.333-0.445-0.667-0.89-1-1.334
		c-0.351,0.224-0.703,0.448-1.054,0.672c1.646,0.503,3.299,0.47,5,0.667c0.144,0.018,1.074-0.644,1.054-0.672
		c-0.556-0.778-1.111-1.556-1.667-2.333c-0.351,0.224-0.703,0.448-1.054,0.672c1.107,0.356,2.031,0.687,3,1.333
		c0.13,0.087,1.047-0.681,1.054-0.672c-1.34-1.622-2.608-3.177-3.667-5c-0.351,0.224-0.703,0.448-1.054,0.672
		c1.973,0.979,3.935,1.899,6,2.667c0.13,0.049,1.073-0.641,1.054-0.672c-1.812-3.023-3.994-5.774-6-8.667
		c-0.351,0.224-0.703,0.448-1.054,0.672c1.763,0.859,3.349,1.948,5,3c0.107,0.068,1.072-0.64,1.054-0.672
		c-0.985-1.735-1.794-3.409-2.333-5.333c-0.351,0.224-0.703,0.448-1.054,0.672c2.021,1.523,3.548,3.269,5,5.333
		c0.351-0.224,0.703-0.448,1.054-0.672c-0.865-0.133-1.643-0.466-2.333-1C68.852,160.037,68.109,160.896,68.003,160.832
		L68.003,160.832z"/>
</g>
<g>
	<path fill="#40AF65" d="M95.261,193.646c0.667,0.222,1.334,0.443,2,0.666c-0.265-0.321-0.53-0.644-0.795-0.965
		c-1.257-0.006-2.441-0.04-3.667-0.333c0.277,0.066,0.495,0.816,0.796,0.965c2.123,1.044,4.205,2.061,5.98,3.654
		c-0.259-0.317-0.518-0.635-0.775-0.952c-1.033-0.009-1.994-0.09-3-0.334c0.265,0.321,0.53,0.644,0.795,0.965
		c1.7,0.063,3.334,0.338,5,0.667c-0.286-0.057-0.463-0.87-0.795-0.965c-2.655-0.752-5.107-1.99-7.667-3
		c0.265,0.321,0.531,0.644,0.796,0.965c2.56,0.65,5.107,1.349,7.667,2c-0.271-0.069-0.509-0.803-0.795-0.965
		c-0.72-0.356-1.379-0.797-1.98-1.32c0.259,0.317,0.518,0.635,0.775,0.952c2.226-0.196,4.212,0.388,6.333,1
		c-0.298-0.086-0.467-0.823-0.795-0.965c-2.976-1.284-6.025-2.383-9-3.667c0.265,0.321,0.53,0.644,0.795,0.965
		c2.741,0.093,5.348,0.675,8,1.333c-0.271-0.067-0.508-0.806-0.795-0.965c-2.307-1.274-4.694-2.391-7-3.666
		c0.265,0.321,0.53,0.644,0.795,0.965c3.186-0.188,6.199,0.582,9.333,1c-0.264-0.035-0.486-0.864-0.795-0.965
		c-2.406-0.781-4.528-1.944-6.646-3.321c0.259,0.317,0.518,0.635,0.775,0.952c2.779,0.425,5.406,1.262,8,2.334
		c-0.265-0.321-0.53-0.644-0.795-0.965c-1.818-0.118-3.248-0.51-4.603-1.942c0.244,0.302,0.487,0.604,0.73,0.907
		c1.78,0.035,3.56,0.187,5.333,0.333c-0.257-0.021-0.479-0.938-0.795-0.965c-1.774-0.146-3.554-0.298-5.333-0.333
		c0.112,0.003,0.618,0.788,0.73,0.907c1.312,1.391,2.812,1.933,4.731,2.058c-0.225-0.015-0.526-0.854-0.795-0.965
		c-2.595-1.071-5.221-1.908-8-2.334c0.218,0.034,0.547,0.803,0.775,0.952c2.118,1.377,4.273,2.562,6.686,3.347
		c-0.265-0.321-0.53-0.644-0.795-0.965c-3.135-0.417-6.147-1.188-9.333-1c0.148-0.009,0.597,0.854,0.795,0.965
		c2.307,1.274,4.694,2.391,7,3.666c-0.265-0.321-0.53-0.644-0.795-0.965c-2.653-0.658-5.26-1.239-8-1.333
		c0.209,0.008,0.541,0.854,0.795,0.965c2.976,1.284,6.025,2.382,9,3.667c-0.265-0.321-0.53-0.644-0.795-0.965
		c-2.122-0.611-4.107-1.195-6.333-1c0.104-0.009,0.636,0.839,0.775,0.952c0.645,0.521,1.302,0.938,2.02,1.346
		c-0.265-0.321-0.53-0.644-0.795-0.965c-2.561-0.65-5.107-1.349-7.667-2c0.293,0.075,0.468,0.835,0.796,0.965
		c2.56,1.009,5.011,2.247,7.667,3c-0.265-0.321-0.53-0.644-0.795-0.965c-1.667-0.328-3.301-0.604-5-0.667
		c0.237,0.009,0.5,0.893,0.795,0.965c1.007,0.243,1.968,0.325,3,0.334c-0.129-0.001-0.632-0.823-0.775-0.952
		c-1.802-1.617-3.862-2.617-6.021-3.68c0.265,0.321,0.531,0.644,0.796,0.965c1.226,0.292,2.409,0.326,3.666,0.333
		c-0.212-0.001-0.527-0.875-0.795-0.965c-0.667-0.222-1.334-0.443-2-0.666C94.776,192.784,94.908,193.527,95.261,193.646
		L95.261,193.646z"/>
</g>
<g>
	<path fill="#40AF65" d="M88.618,143.395c-2.062-2.387-4.449-5.646-6.825-6.981c3.563,2.001,6.924,4.223,10.717,5.787
		c0.524,0.216,0.779-0.234,0.33-0.576c-2.468-1.878-5.016-3.646-7.426-5.601c0.317-0.658,0.821-0.614,1.51,0.131
		c1.156,0.534,2.29,1.113,3.399,1.737c1.57,0.855,3.116,1.747,4.704,2.571c0.667,0.346,0.996-0.211,0.342-0.598
		c-3.321-1.961-6.825-3.553-10.272-5.273c-1.717-0.857-4.909-1.93,0.167-0.329c2.802,0.883,5.474,2.236,8.097,3.533
		c0.669,0.331,1.024-0.255,0.342-0.598c-1.881-0.943-3.749-1.901-5.59-2.919c-0.773-0.477-1.561-0.926-2.365-1.347
		c1.405,0.368,2.8,0.775,4.183,1.219c3.904,1.212,7.73,2.68,11.581,4.049c0.789,0.28,0.623-0.532,0.041-0.741
		c-3.614-1.3-7.197-2.665-10.73-4.17c-3.393-1.445,1.536-0.012,2.634,0.247c2.18,0.514,4.254,1.407,6.397,2.04
		c-0.14-0.797-0.66-1.105-1.562-0.925c-0.854-0.17-1.704-0.362-2.549-0.576c-2.44-0.584-4.767-1.463-7.001-2.598
		c3.4,1.727,8.77,1.857,12.583,2.435c0.742,0.112,0.333-0.641-0.105-0.785c-2.67-0.877-5.354-1.711-8.03-2.571
		c2.598,0.835,5.957,1.002,8.801,1.356c0.735,0.091,0.349-0.648-0.105-0.785c-1.431-0.43-2.859-0.866-4.285-1.312
		c-0.957-0.303-1.909-0.621-2.857-0.952c-1.104-0.902-1.578-0.923-1.42-0.063c1.646,0.272,3.028,1.112,4.646,1.379
		c-2.098-0.346-4.168-0.917-6.23-1.429c-0.794-0.197-0.221,0.711,0.253,0.829c2.543,0.632,5.08,1.239,7.667,1.666
		c0.638,0.105,0.437-0.504,0.045-0.713c-2.55-1.362-5.109-2.309-7.964-2.782c-0.755-0.125-0.308,0.625,0.106,0.785
		c1.42,0.548,2.845,1.064,4.286,1.557c0.949,0.314,1.901,0.618,2.857,0.912c1.222,0.831,1.663,0.798,1.322-0.098
		c-2.957-0.368-5.707-0.979-8.708-0.838c-0.648,0.03-0.072,0.698,0.242,0.801c1.327,0.436,2.657,0.863,3.988,1.286
		c0.903,0.285,1.806,0.57,2.708,0.857c1.342,0.758,1.671,0.704,0.987-0.162c-4.055-0.614-8.066-1.486-12.123-2.099
		c-0.647-0.098-0.422,0.491-0.044,0.713c4.19,2.466,8.866,3.663,13.63,4.449c0.845,0.139,0.181-0.701-0.252-0.829
		c-4.237-1.251-8.308-3.104-12.803-3.016c-0.681,0.013-0.021,0.682,0.242,0.801c2.161,0.981,4.34,1.907,6.542,2.792
		c1.334,0.536,2.683,1.037,4.029,1.539c2.504,0.935,1.308-0.271-0.055-0.76c-4.825-1.733-9.642-3.452-14.622-4.688
		c-0.51-0.126-0.524,0.377-0.183,0.62c1.265,0.897,2.544,1.717,3.882,2.507c0.906,0.513,1.822,1.007,2.748,1.483
		c1.556,0.819,2.73,0.601,0.475-0.48c-3.187-1.528-6.455-2.768-9.922-3.464c-0.654-0.131-0.405,0.5-0.044,0.713
		c2.064,1.219,4.187,2.299,6.341,3.349c1.312,0.639,2.625,1.273,3.931,1.925c0.426,0.221,0.852,0.443,1.277,0.664
		c0.737,0.942,1.271,1.003,1.602,0.181c-3.688-1.912-7.061-4.067-11.106-5.165c-0.378-0.103-0.585,0.241-0.295,0.516
		c2.608,2.477,5.535,4.527,8.423,6.659c-2.792-2.06-6.812-4.175-10.165-6.059c-0.526-0.295-0.999,0.028-0.48,0.504
		c2.641,2.423,4.884,5.19,7.221,7.896C88.101,143.975,89.154,144.016,88.618,143.395L88.618,143.395z"/>
</g>
<g>
	<path fill="#40AF65" d="M70.587,140.634c0.885,0.562,1.782,1.104,2.667,1.667c0.407-0.092,0.813-0.184,1.22-0.275
		c-3.787-2.146-7.347-4.639-11-7c-0.398,0.097-0.796,0.193-1.193,0.289c3.1,1.469,5.997,3.292,8.974,4.986
		c0.303,0.172,1.054-0.379,1.22-0.275c-2.651-1.662-5.24-3.353-7.667-5.334c-0.398,0.097-0.796,0.193-1.193,0.289
		c7.188,2.216,13.521,6.224,19.974,9.986c0.407-0.092,0.813-0.184,1.22-0.275c-4.979-2.773-9.397-6.332-14-9.666
		c-0.407,0.092-0.813,0.184-1.22,0.275c3.982,2.656,7.928,5.339,11.667,8.333c0.257,0.206,1.097-0.373,1.22-0.275
		c-3.739-2.993-7.685-5.677-11.667-8.333c-0.28-0.187-1.08,0.376-1.22,0.275c4.603,3.333,9.021,6.892,14,9.666
		c0.312,0.174,1.04-0.38,1.22-0.275c-6.472-3.773-12.814-7.791-20.026-10.014c-0.23-0.071-1.123,0.346-1.193,0.289
		c2.427,1.98,5.016,3.672,7.667,5.334c0.407-0.092,0.813-0.184,1.22-0.275c-2.996-1.706-5.908-3.536-9.026-5.014
		c-0.283-0.134-1.048,0.382-1.193,0.289c3.653,2.36,7.213,4.854,11,7c0.301,0.171,1.058-0.378,1.22-0.275
		c-0.885-0.562-1.782-1.104-2.667-1.667C71.509,140.169,70.753,140.739,70.587,140.634L70.587,140.634z"/>
</g>
<g>
	<path fill="#40AF65" d="M130.66,187.398c0.562,0.523,1.206,0.947,1.619,1.609c0.265,0.02,0.528,0.039,0.793,0.059
		c-1.547-0.652-2.814-1.639-4.005-2.806c-0.331-0.044-0.662-0.088-0.993-0.132c0.959,0.702,1.708,1.63,2.667,2.333
		c0.304,0.022,0.608,0.046,0.912,0.068c-1.692-1.016-3.364-2.05-4.919-3.27c-0.215-0.169-1.288-0.363-1.074-0.195
		c1.609,1.264,3.328,2.345,5.081,3.396c0.171,0.103,1.395,0.422,0.912,0.068c-0.958-0.702-1.708-1.631-2.667-2.333
		c-0.152-0.111-1.24-0.373-0.993-0.132c1.378,1.351,2.879,2.441,4.661,3.194c0.049,0.021,0.912,0.25,0.793,0.059
		c-0.441-0.707-1.109-1.163-1.713-1.725C131.534,187.407,130.444,187.197,130.66,187.398L130.66,187.398z"/>
</g>
<g>
	<path fill="#D42218" d="M98.074,166.091c-1.565-3.471-6.332-6.716-6.281-10.564c0.042-3.259,4.859-5.995,7.596-6.219
		c4.363-0.355,0.336,7.523-0.289,8.892c-0.984,2.156-2.333,4.46-2.493,6.867c0.282,0.287,0.563,0.576,0.846,0.863
		c-0.103-3.258,0.266-6.353,1.74-9.311c0.941-1.889,2.263-3.15,2.26-5.356c-0.001-0.304-0.828-1.034-0.846-0.863
		c-0.234,2.263-0.104,4.196-1.812,5.953c0.274,0.304,0.549,0.607,0.824,0.91c0.536-1.606,0.748-2.981,0.271-4.607
		c-0.104-0.357-2.18-3.956,0.322,0.197c0.042,0.068,0.735,0.823,0.74,0.577c0.021-1.091,0.097-1.34-0.378-2.38
		c-0.349-0.766-1.259-2.583-0.459-0.242c0.065,0.191,0.847,0.973,0.837,0.789c-0.093-1.737-0.484-3.709-0.346,0.303
		c0.013,0.349,0.849,0.963,0.846,0.863c-0.058-1.646-0.312-3.021-1.045-4.505c-0.074-0.15-0.888-0.975-0.792-0.617
		c0.325,1.001,0.489,2.032,0.491,3.093c0.279,0.263,0.558,0.525,0.837,0.789c-0.457-1.338-1.059-2.151-2.168-3.029
		c-0.523-0.413-0.229,0.214-0.045,0.449c0.459,1.208,0.918,2.416,1.376,3.624c0.247,0.192,0.493,0.385,0.74,0.577
		c-0.763-1.267-1.462-2.072-2.764-2.782c-0.334-0.183,0.202,0.646,0.259,0.704c1.578,1.636,1.023,3.562,0.432,5.334
		c-0.07,0.212,0.661,1.078,0.824,0.91c1.731-1.781,1.609-3.682,1.854-6.047c-0.282-0.288-0.563-0.575-0.846-0.863
		c0.004,2.541-1.839,3.952-2.666,6.167c-1.05,2.812-1.428,5.505-1.334,8.5c0.01,0.307,0.835,1.021,0.846,0.863
		c0.251-3.778,8.518-14.226,3.131-17.068c-3.253-1.717-8.075,1.467-9.275,4.595c-1.713,4.464,4.431,8.615,6.01,12.115
		C97.416,165.787,98.313,166.621,98.074,166.091L98.074,166.091z"/>
</g>
<g>
	<path fill="#D42218" d="M99.084,159.235c0.186-0.927,0.503-1.756,0.968-2.577c0.201-0.355-0.502-1.352-0.711-0.986
		c-1.424,2.493-4.062,4.62-4.038,7.704c0.002,0.2,0.489,1.182,0.749,0.782c0.5-0.77,1.103-1.447,1.667-2.167
		c0.244-0.312-0.43-1.345-0.711-0.986c-0.565,0.72-1.168,1.398-1.667,2.167c0.249,0.261,0.499,0.521,0.749,0.782
		c-0.021-2.848,2.646-4.99,3.962-7.296c-0.237-0.329-0.474-0.657-0.711-0.986c-0.501,0.886-0.833,1.757-1.032,2.755
		C98.235,158.795,98.979,159.758,99.084,159.235L99.084,159.235z"/>
</g>
<g>
	<path fill="#D42218" d="M94.438,159.866c0.32,0.235,0.598,0.514,0.834,0.833c0.395-0.134,0.789-0.269,1.184-0.402
		c-1.105-0.584-1.946-1.293-2.834-2.167c-0.149-0.146-1.104,0.494-1.184,0.402c0.78,0.894,1.554,1.616,2.5,2.334
		c0.164,0.124,1.116-0.487,1.184-0.402c-1.233-1.558-2.411-3.066-3.333-4.834c-0.395,0.134-0.789,0.269-1.184,0.402
		c0.92,1.717,1.979,3.343,3,5c0.395-0.134,0.789-0.269,1.184-0.402c-1.764-2.079-2.256-4.487-2.167-7.166
		c-0.395,0.134-0.789,0.269-1.184,0.402c0.448,2.221,1.291,4.252,2.167,6.333c0.395-0.134,0.789-0.269,1.184-0.402
		c-3.278-3.132-2.013-7.104,1.314-9.652c0.006-0.005,0.013-0.01,0.019-0.015c-9.91-0.312-2.084,13.348-1.017,18.069
		c-0.005-0.022,1.187-0.277,1.184-0.402c-0.071-2.702-0.479-5.258,1-7.667c-0.15,0.246-1.003,0.107-1.184,0.402
		c-1.479,2.408-1.071,4.964-1,7.667c0.395-0.134,0.789-0.269,1.184-0.402c-1.022-4.519-3.529-8.53-4.02-13.219
		c-0.092-0.874-0.007-1.729,0.236-2.569c0.124-0.429,0.396-0.766,0.682-1.095c1.647-1.891-0.295,1.428,1.046,0.157
		c-2.842,2.691-3.646,6.243-0.628,9.128c0.1,0.095,1.176-0.422,1.184-0.402c-0.876-2.08-1.719-4.111-2.167-6.333
		c0.007,0.033-1.179,0.265-1.184,0.402c-0.089,2.678,0.403,5.086,2.167,7.166c0.104,0.122,1.149-0.457,1.184-0.402
		c-1.021-1.657-2.08-3.282-3-5c-0.052-0.097-1.174,0.42-1.184,0.402c0.922,1.767,2.1,3.275,3.333,4.834
		c0.395-0.134,0.789-0.269,1.184-0.402c-0.946-0.717-1.72-1.439-2.5-2.334c-0.395,0.134-0.789,0.269-1.184,0.402
		c0.888,0.873,1.729,1.583,2.834,2.167c0.188,0.099,1.111-0.487,1.184-0.402c-0.235-0.319-0.514-0.597-0.834-0.833
		C95.435,159.303,94.565,159.977,94.438,159.866L94.438,159.866z"/>
</g>
<g>
	<path fill="#6A6A69" d="M55.651,76.88c0.036-5.421,0.464-10.829,0.5-16.25c0.003-0.387-1.073,0.163-1.075,0.564
		c-0.036,5.421-0.464,10.829-0.5,16.25C54.573,77.832,55.648,77.281,55.651,76.88L55.651,76.88z"/>
</g>
<g>
	<path fill="#6A6A69" d="M55.472,60.36c30.646-0.015,61.345-0.639,91.858,2.746c0.507,0.056,1.313-0.805,0.566-0.888
		c-30.608-3.395-61.401-2.77-92.142-2.754C55.179,59.464,54.651,60.361,55.472,60.36L55.472,60.36z"/>
</g>
<g>
	<path fill="#6A6A69" d="M141.497,62.059c-0.489,3.658-0.963,7.304-1,11c-0.005,0.417,1.229,0.556,1.232,0.206
		c0.037-3.696,0.511-7.342,1-11C142.782,61.874,141.547,61.682,141.497,62.059L141.497,62.059z"/>
</g>
<g>
	<path fill="#6A6A69" d="M55.713,75.389c28.564,1.914,57.164,0.044,85.75,0c0.509,0,1.158-0.455,0.301-0.453
		c-28.587,0.044-57.187,1.914-85.75,0C55.496,74.901,54.861,75.332,55.713,75.389L55.713,75.389z"/>
</g>
<g>
	<path fill="#6A6A69" d="M58.115,90.607c27.069,1.437,54.165,0.28,81.25,0.25c0.455,0,1.23-0.892,0.496-0.891
		c-27.085,0.03-54.181,1.187-81.25-0.25C58.152,89.692,57.378,90.568,58.115,90.607L58.115,90.607z"/>
</g>
<g>
	<path fill="#6A6A69" d="M138.496,91.315c0,5.583,0,11.167,0,16.75c0,0.51,1.234,0.66,1.234,0.194c0-5.583,0-11.167,0-16.75
		C139.73,91,138.496,90.85,138.496,91.315L138.496,91.315z"/>
</g>
<g>
	<path fill="#6A6A69" d="M58.806,91.444c0.251,4.348,0.516,8.838-1,13c0.1-0.275,1.008-0.27,1.115-0.564
		c1.516-4.162,1.251-8.652,1-13C59.93,91.031,58.795,91.264,58.806,91.444L58.806,91.444z"/>
</g>
<g>
	<path fill="#6A6A69" d="M51.942,109.424c14.767-1.763,29.564-3.165,44.432-3.671c8.361-0.285,16.786-0.366,25.118,0.458
		c7.636,0.755,15.159,2.102,22.852,2.215c0.587,0.009-0.062-1.021-0.461-1.027c-7.679-0.112-15.235-1.36-22.852-2.215
		c-7.096-0.796-14.306-0.717-21.434-0.554c-16.17,0.369-32.261,1.854-48.313,3.771C50.843,108.453,51.513,109.475,51.942,109.424
		L51.942,109.424z"/>
</g>
</svg>
