<?xml version="1.0" encoding="utf-8"?>
<!-- Generator: Adobe Illustrator 16.0.0, SVG Export Plug-In . SVG Version: 6.00 Build 0)  -->
<!DOCTYPE svg PUBLIC "-//W3C//DTD SVG 1.1//EN" "http://www.w3.org/Graphics/SVG/1.1/DTD/svg11.dtd">
<svg version="1.1" id="Capa_1" xmlns="http://www.w3.org/2000/svg" xmlns:xlink="http://www.w3.org/1999/xlink" x="0px" y="0px"
	 width="450.167px" height="417.778px" viewBox="0 0 450.167 417.778" enable-background="new 0 0 450.167 417.778"
	 xml:space="preserve">
<path fill="#BE0000" d="M383.133,194.625c0.014-1.414-2.16-2.175-5.056-2.411c1.049-13.109-0.008-26.444-3.771-39.817
	c-0.663-2.358-5.735-3.038-10.571-2.502c-0.223-6.603-0.318-13.193-0.329-19.74c-0.003-1.565-2.814-2.398-6.335-2.565
	c-0.178-3.586-0.311-7.175-0.333-10.769c-0.012-1.843-3.87-2.67-8.207-2.597c-3.238-10.993-6.192-22.072-8.832-33.24
	c-1.516-6.557-27.217-2.572-26.064,2.477c0.318,1.333,0.629,2.669,0.946,4.003c-1.591,0.37-3.058,0.818-4.298,1.322
	c-0.371-1.137-0.74-2.275-1.116-3.411c-1.586-4.786-14.649-4.024-22.106-1.505c-0.874-0.237-1.719-0.385-2.202-0.453
	c-1.958-0.273-3.913-0.559-5.866-0.854c2.258-0.068,4.614-0.552,6.559-1.375c1.084-0.459,1.698-1.053,1.827-1.623
	c2.066-0.252,4.089-0.675,5.933-1.2c2.218-0.631,9.035-3.566,3.979-5.832c-6.438-2.884-13.15-5.392-20.034-7.473
	c0.166-0.235,0.338-0.463,0.498-0.705c0.482-0.689,0.422-1.327-0.182-1.913c-11.626-10.972-31.662-9.745-46.3-8.314
	c-8.871,0.867-17.669,2.496-26.37,4.392c-4.441,0.968-8.865,2.02-13.284,3.081c-1.762,0.423-3.523,0.851-5.285,1.276
	c-0.651,0.156-1.303,0.312-1.955,0.467c-0.215,0.051-0.382,0.091-0.524,0.125c-0.124,0.027-0.273,0.062-0.456,0.103
	c-1.903,0.43-11.482,2.943-6.139,5.77c1.699,0.899,3.421,1.737,5.161,2.526c-2.118-0.107-4.221-0.177-6.296-0.192
	c-3.776-0.027-7.868,0.564-11.364,2.044c-1.91,0.808-5.136,3.466-1.414,4.676c1.423,0.462,2.859,0.888,4.299,1.298
	c-7.489,2.21-14.83,4.734-21.955,7.558c-3.47,1.375-3.448,3.991,0.31,4.655c-5.675,2.518-11.021,5.749-15.82,9.795
	c-3.969,3.346-7.499,7.084-10.648,11.111c-6.662,2.184-12.736,5.923-17.712,11.398c-7.819,8.603-11.704,20.456-14.091,31.609
	c-2.757,12.881-2.655,25.746-0.789,38.738c-0.606,2.651-1.103,5.369-1.452,8.142c-4.268,11.829-1.315,26.308,2.372,38.197
	c3.466,11.177,8.4,22.64,14.721,33.06c0.276,0.73,0.543,1.461,0.84,2.188c6.822,16.73,19.055,28.727,35.083,35.391
	c6.445,4.548,13.205,8.53,20.217,11.957c6.642,6.228,13.659,12.04,21.265,17.196c-0.52,0.24-1.019,0.507-1.481,0.815
	c-3.458,2.309,2.1,3.537,3.713,3.692c4.693,0.389,9.361,0.972,14.019,1.636c-1.358,0.474-2.529,1.149-3.231,2.129
	c-1.984,2.767,6.058,3.05,6.971,3.05c4.647,0.003,9.295,0.006,13.943,0.009c-1.171,0.562-1.894,1.261-1.813,2.062
	c0.347,3.484,5.902,4.173,8.968,4.573c6.727,0.877,13.598,0.299,20.301-0.511c13.62-1.646,28.515-4.002,40.983-10.023
	c3.728-1.8,2.37-3.085,0.043-3.816c2.032-1.061,4.004-2.248,5.902-3.576c0.82-0.574,1.189-1.31,0.984-1.943
	c3.594-1.943,7.017-4.232,10.205-6.939c0.353-0.3,0.592-0.58,0.751-0.844c6.76-2.628,13.266-5.663,19.35-8.869
	c13.831-7.29,29.346-17.873,38.717-31.673c2.844-2.656,5.756-5.236,8.852-7.61c2.75-2.108-1.436-3.054-3.146-3.229
	c1.137-2.992,1.978-6.102,2.445-9.336c0.285-1.979-3.32-2.303-7.313-1.879c1.09-0.806,2.091-1.725,2.951-2.788
	c1.218-1.504,2.294-3.145,3.263-4.872c3.449-0.77,6.335-2.155,6.729-3.907c1.841-8.177,2.999-16.426,3.733-24.715
	c1.511-5.327,2.854-10.702,4.056-16.101C381.429,209.063,383.062,201.791,383.133,194.625z M248.382,283.171
	c-0.604,0.854-1.2,1.716-1.79,2.581c-0.096-0.23-0.192-0.462-0.289-0.692C246.996,284.43,247.7,283.811,248.382,283.171z
	 M218.751,163.326c0.061,0.228,0.124,0.455,0.185,0.683c-1.773,1.203-3.544,2.407-5.314,3.615
	C215.337,166.196,217.047,164.764,218.751,163.326z M236.722,151.873c-0.082-0.112-0.16-0.227-0.243-0.339
	c-0.441-0.599-1.438-1.025-2.761-1.296c1.095-1.004,2.182-2.017,3.262-3.036C236.947,148.768,236.86,150.326,236.722,151.873z
	 M239.079,316.082c0.65,0.423,1.302,0.84,1.958,1.245c-0.794-0.371-1.581-0.759-2.363-1.155
	C238.809,316.14,238.945,316.115,239.079,316.082z M215.823,119.646c0.554-0.961,1.121-1.916,1.662-2.883
	c0.39,0.282,0.78,0.564,1.17,0.846C217.711,118.288,216.765,118.963,215.823,119.646z M224.695,107.517
	c-0.823,0.034-1.642,0.106-2.431,0.2c0.252-0.5,0.504-1,0.753-1.502c0.798-0.695,1.602-1.384,2.409-2.07
	c1.068,0.746,2.138,1.489,3.21,2.229C227.112,106.652,225.729,107.025,224.695,107.517z M197.661,106.447
	c-1.508,1.966-2.996,3.951-4.46,5.958c-0.956,0.488-1.905,0.985-2.844,1.495C192.666,111.272,195.094,108.774,197.661,106.447z
	 M232.732,92.089c-1.055-0.152-2.129-0.219-3.207-0.217c0.115-0.281,0.242-0.557,0.356-0.838c0.031-0.077,0.042-0.147,0.064-0.222
	c0.523-0.087,1.053-0.151,1.579-0.229C231.923,91.087,232.329,91.587,232.732,92.089z M228.267,68.093
	c-1.766-0.386-3.523-0.811-5.272-1.273c2.754-0.196,5.532-0.224,8.322-0.106C230.294,67.13,229.278,67.59,228.267,68.093z
	 M263.045,340.08c-3.07,0.211-6.136,0.344-9.2,0.404c0.585-0.178,1.173-0.345,1.757-0.531c2.855,0.062,5.727-0.027,8.603-0.245
	c0.062,0.017,0.125,0.033,0.187,0.05C263.945,339.872,263.496,339.979,263.045,340.08z M347.204,280.086
	c-1.469,0.628-2.916,1.293-4.347,1.986c-0.603-0.102-1.206-0.173-1.726-0.218c0.294-0.411,0.586-0.822,0.879-1.235
	c1.419-1.352,2.828-2.74,4.191-4.177c-0.315,0.754-0.546,1.515,0.125,0.916c-1.289,1.149-0.194,1.704,1.134,1.972
	C347.379,279.584,347.29,279.834,347.204,280.086z M155.572,100.058c-2.768,2.385-5.518,4.791-8.23,7.235
	C149.79,104.661,152.615,102.183,155.572,100.058z M228.189,353.061c0.066,0.015,0.137,0.029,0.233,0.047
	C228.329,353.09,228.253,353.075,228.189,353.061z M236.48,352.772c-1.021,0.1-2.045,0.173-3.069,0.243
	c-0.216,0.015-1.916,0.1-2.501,0.133c-0.629,0.02-1.258,0.021-1.888,0.016c0.845-0.027-0.94-0.23-1.074-0.184
	c-0.1-0.067-0.031-0.161-0.054-0.396c-0.02-0.201-0.095-0.384-0.204-0.554c3.164,0.002,6.328,0.004,9.491,0.006
	c1.461,0.069,2.93,0.124,4.409,0.151C240.048,352.398,238.234,352.602,236.48,352.772z"/>
<g>
	<path fill="#1D1D1B" d="M234.139,44.142c-39.709,18.026-82.826,31.619-116.555,60.346c-17.513,14.915-29.409,34.878-37.983,56.019
		c-8.088,19.941-11.785,41.562-10.264,63.042c2.895,40.879,26.55,77.561,60.164,100.22c37.819,25.493,86.341,32.516,130.778,25.2
		c40.88-6.729,78.083-28.595,102.071-62.583c12.37-17.528,20.543-37.733,25.353-58.567c4.597-19.918,6.868-41.428,2.452-61.569
		c-7.808-35.605-35.517-62.052-65.891-79.847c-33.104-19.395-71.987-30.167-110.132-32.967c-18.199-1.335-35.853-0.312-53.813,2.542
		c-0.627,0.1-5.941,1.349-4.271,2.934c1.812,1.719,5.937,1.008,8.076,0.668c15.465-2.458,31.766-1.259,47.559,0.496
		c18.309,2.034,36.491,6.318,53.925,12.233c34.549,11.723,68.577,31.209,89.715,61.737c23.328,33.69,20.097,76.998,7.264,114.178
		c-13.352,38.687-41.606,71.167-79.563,87.111c-38.219,16.054-82.701,11.777-119.875-5.94
		c-37.854-18.042-67.125-51.823-77.25-92.711c-5.072-20.483-4.649-41.998,0.166-62.476c5.172-22,16.077-44.478,31.24-61.343
		c15.272-16.987,35.81-28.924,55.987-39.125c18.968-9.589,38.733-17.399,58.014-26.307c1.897-0.876,3.784-1.774,5.666-2.684
		C238.702,43.912,234.861,43.814,234.139,44.142L234.139,44.142z"/>
</g>
<g>
	<path fill="#1D1D1B" d="M234.171,23.885c-90.687-6.928-181.8,48.617-211.662,135.526C8.424,200.403,6.525,246.62,21.31,287.647
		c13.508,37.483,40.793,67.879,74.665,88.277c37.449,22.553,82.722,32.187,126.147,31.146c42.098-1.009,84.651-9.715,122.896-27.588
		c35.788-16.725,67.838-42.584,86.773-77.733c21.275-39.492,22.559-86.801,11.59-129.579c-10.84-42.278-37.024-79.108-71.88-105.021
		c-34.479-25.632-75.038-39.169-116.829-47.095c-20.114-3.815-40.417-6.95-60.832-8.592c-19.728-1.586-39.545-1.697-58.766,3.445
		c-1.275,0.341-5.401,2.176-2.36,3.459c3.063,1.292,7.15,0.703,10.242-0.125c8.673-2.32,18.538-1.923,27.418-1.737
		c11.662,0.244,23.33,1.569,34.884,3.098c20.917,2.768,41.943,6.62,62.415,11.758c41.487,10.413,80.857,30.841,110.701,61.792
		c31.89,33.073,49.11,77.11,52.387,122.619c3.046,42.312-9.445,83.734-37.389,115.862c-26.08,29.986-62.88,49.123-100.688,59.82
		c-40.016,11.321-82.682,13.597-123.344,4.483c-40.292-9.03-77.915-30.091-104.804-61.648
		c-26.771-31.419-39.677-71.934-39.074-112.948c0.677-46.077,16.831-91.467,46.433-126.842
		c29.168-34.855,70.553-58.755,115.219-66.821c14.944-2.698,30.228-3.436,45.381-2.673C233.354,25.049,236.43,24.057,234.171,23.885
		L234.171,23.885z"/>
</g>
</svg>
