<?xml version="1.0" encoding="utf-8"?>
<!-- Generator: Adobe Illustrator 16.0.0, SVG Export Plug-In . SVG Version: 6.00 Build 0)  -->
<!DOCTYPE svg PUBLIC "-//W3C//DTD SVG 1.1//EN" "http://www.w3.org/Graphics/SVG/1.1/DTD/svg11.dtd">
<svg version="1.1" id="Capa_1" xmlns="http://www.w3.org/2000/svg" xmlns:xlink="http://www.w3.org/1999/xlink" x="0px" y="0px"
	 width="690.74px" height="375.556px" viewBox="0 0 690.74 375.556" enable-background="new 0 0 690.74 375.556"
	 xml:space="preserve">
<path fill="#BE0000" d="M683.486,70.552c-0.855-1.881-2.016-2.923-3.518-4.32c0.771,0.716,0.192-0.003,0.087-0.907
	c-0.463-3.989-7.059-6.869-13.261-7.458c-0.575-0.523-1.155-1.041-1.746-1.546c-1.383-1.673-2.731-3.375-4.06-5.088
	c-1.105-1.849-2.434-3.635-4.093-5.363c-2.99-3.113-7.231-4.902-11.563-5.476c-1.955-1.144-3.936-2.228-5.926-3.26
	c-6.874-8.397-13.815-16.748-21.95-23.978c-3.905-3.471-12.33-5.37-17.306-3.61c-10.229,3.618-20.713,6.671-31.329,9.081
	c-2.532-0.523-4.813-0.727-6-0.605c-10.181,1.042-20.056,3.226-29.723,6.129c-12.099,0.948-24.375,0.845-35.044-1.208
	c-3.728-0.718-9.829-1.375-12.71,1.904c-3.012,3.429,1.929,6.763,5.274,8.359c-1.464,1.298-3.067,2.366-4.768,3.264
	c-6.971,0.971-13.95,1.872-20.933,2.753c-4.346-2.342-10.792-3.758-13.209-3.423c-13.46,1.864-26.776,5.244-40.106,8.571
	c-3.431-1.481-7.279-1.912-11.005-1.905c-8.26,0.015-16.533,0.244-24.805,0.641c-2.06-1.185-4.447-1.922-6.627-2.387
	c-43.419-9.264-86.473,6.043-129.964,1.756c-2.935-0.29-9.366-0.039-10.18,3.86c-0.231,1.108,0.022,2.113,0.589,3.014
	c-0.799-0.161-1.598-0.305-2.396-0.446c0.003-0.011,0.006-0.022,0.009-0.033c-0.051,0.002-0.102,0.004-0.152,0.007
	c-16.352-2.865-32.653-1.65-48.549,2.252c-28.198,1.375-56.386,2.949-84.527,5.175c-16.046-4.495-32.427-7.758-48.994-9.656
	c-1.376-0.158-2.781-0.054-4.146,0.263c-1.752-0.113-3.68-0.078-5.364,0.31c-4.118-6.277-12.02-11.445-16.627-4.393
	C2.645,67.657,1.844,100.633,3.748,129.233c0.869,13.056,2.478,26.179,4.811,39.182c0.035,0.522,0.072,1.044,0.107,1.566
	c-0.338,28.454,1.927,56.901,7.209,85.023c0.449,2.392,1.734,4.75,3.471,6.729c0.057,1.145,0.124,2.289,0.185,3.434
	c-0.219,0.571-0.381,1.169-0.462,1.791c-0.285,2.178,0.104,4.179,0.92,5.999c0.623,5.353,4.158,10.561,9.102,12.834
	c1.31,3.481,4.015,6.788,7.542,8.528c2.663,6.775,9.087,12.674,16.532,9.044c1.655-0.807,3.811-1.754,6.174-2.771
	c6.266,1.014,12.618,1.522,18.967,1.57c2.767,0.021,4.845-0.582,6.329-1.6c0.362,0.106,0.722,0.218,1.084,0.323
	c14.407,6.928,29.223,12.882,44.74,16.567c4.299,1.021,6.979-0.097,8.374-2.259c0.422,0.195,0.846,0.383,1.271,0.569
	c2.55,1.688,5.129,3.334,7.748,4.921c3.311,2.006,7.733,2.326,10.352-0.091c2.023,1.056,4.065,2.088,6.138,3.076
	c2.77,1.322,6.271,1.104,8.854-0.494c2.675,0.963,5.383,1.842,8.122,2.639c0.375,0.141,0.747,0.283,1.122,0.421
	c-2.678,0.035-5.356,0.061-8.035,0.064c-4.685,0.006-12.706,2.325-14.208,7.544c-1.601,5.562,6.67,6.52,10.145,6.524
	c19.571,0.032,39.091,1.034,58.591,2.421c2.973,1.309,5.959,2.592,8.973,3.816c21.64,8.797,45.712,16.219,69.334,14.991
	c0.967-0.051,4.812,0.184,3.717-1.868c-0.65-1.218-1.32-2.421-1.999-3.617c6.175,0.199,12.361,0.202,18.536-0.014
	c-0.302,0.062-0.602,0.13-0.903,0.19c-5.09,1.03,2.009,4.047,3.557,4.609c5.248,1.907,11.281,3.317,16.897,2.816
	c11.627-1.038,23.358-1.659,35.128-2.166c0.376,0.219,0.774,0.423,1.156,0.601c5.183,2.414,11.517,3.906,17.244,3.893
	c25.19-0.062,50.293-2.271,75.36-4.55c2.255-0.205,2.368-1.524,0.604-2.673c-0.503-0.327-1.033-0.616-1.573-0.889
	c7.629-1.517,15.136-3.593,22.676-5.517c20.749-0.665,41.409-2.666,61.579-7.96c7.26-1.906,14.295-4.348,21.123-7.227
	c21.651-6.146,43.544-13.561,61.408-27.201c0.387-0.296,0.479-0.616,0.345-0.953c3.17-1.305,6.307-2.692,9.399-4.186
	c10.535-5.085,24.791-13.498,24.809-26.774c0.008-6.107-5.245-11.052-9.53-14.614c-2.433-2.022-5.797-3.034-9.201-3.531
	c0.138-1.256,0.271-2.513,0.398-3.77c6.72-0.118,14.848-3.321,15.47-7.817c4.588-33.16,1.892-66.508,1.174-99.821
	c2.829-0.328,5.315-1.337,5.553-3.783c1.78-18.345,2.097-36.953,0-55.29c0-2.311,0-4.622,0-6.933c0-1.181-0.45-2.294-1.21-3.32
	c1.021-0.436,1.937-1.029,2.665-1.857C683.302,75.462,684.647,73.104,683.486,70.552z M517.981,315.438
	c-0.002-0.007-0.001-0.014-0.002-0.021c-0.102-0.531-0.299-0.991-0.541-1.415c1.155-0.344,2.308-0.692,3.457-1.047
	c0.639,0.814,1.436,1.413,2.325,1.857C521.474,315.026,519.727,315.234,517.981,315.438z M563.087,212.925
	c0.292,2.081,0.581,4.162,0.862,6.243c-1.114-2.972-2.245-5.938-3.406-8.891C561.39,211.161,562.238,212.043,563.087,212.925z
	 M519.257,234.343c-0.286-0.451-0.587-0.893-0.875-1.342c4.97,5.211,10.02,10.343,15.145,15.396
	c0.539,3.137,1.004,6.292,1.377,9.457c-2.479-3.432-4.974-6.853-7.494-10.255C524.725,243.016,521.948,238.582,519.257,234.343z
	 M482.936,75.304c-0.025-0.035-0.052-0.069-0.078-0.104c0.248-0.091,0.498-0.178,0.745-0.271
	C483.38,75.054,483.158,75.179,482.936,75.304z M236.913,119.419c-0.824-0.499-1.66-0.984-2.5-1.463
	c0.674-0.082,1.349-0.177,2.024-0.27c0.417,0.597,0.836,1.192,1.254,1.789C237.433,119.455,237.173,119.439,236.913,119.419z
	 M300.265,137.404c-1.512-0.722-3.041-1.416-4.588-2.079c-6.72-9.476-13.068-19.275-19.281-29.062
	c1.066-0.104,2.133-0.211,3.199-0.324C286.128,116.651,293.012,127.16,300.265,137.404z M244.689,304.93
	c1.14,0.728,2.28,1.453,3.422,2.176c-1.617-0.117-3.235-0.23-4.853-0.337c0.069-0.064,0.144-0.121,0.212-0.189
	C243.964,306.08,244.362,305.522,244.689,304.93z M481.995,306.408c-0.028-0.09-0.061-0.179-0.09-0.269
	c0.142,0.087,0.282,0.176,0.424,0.263C482.218,306.403,482.106,306.406,481.995,306.408z M70.001,144.901
	c1.397,2.534,2.81,5.06,4.23,7.581c-2.182-1.959-4.432-3.842-6.736-5.66c-1.888-4.687-3.84-9.35-5.824-14.002
	C64.335,136.945,67.104,140.979,70.001,144.901z M450.938,338.718c6.612-1.061,13.247-2.014,19.896-2.896
	c0.566-0.013,1.134-0.032,1.7-0.048c-7.433,1.266-14.877,2.359-22.326,3.131C450.452,338.843,450.695,338.78,450.938,338.718z
	 M240.019,54.835c4.394,0.806,8.771,1.684,13.141,2.597c-1.262,0.133-2.523,0.268-3.785,0.405c-3.8,0.104-7.591,0.317-11.375,0.604
	c-0.203-1.64-0.774-3.238-1.654-4.633C237.762,54.32,239.09,54.665,240.019,54.835z"/>
<g>
	<g opacity="0.9">
		<path fill="#B20606" d="M624.256,63.907c-1.456,0.309-2.378,1.618-3.288,2.701c-2.487,2.956-4.646,6.211-6.825,9.395
			c-4.812,7.032-9.426,14.196-13.835,21.485c2.116,0.194,4.233,0.387,6.35,0.581c6.909-16.219,11.099-33.419,11.32-51.092
			c-2.257-0.207-4.513-0.413-6.77-0.619c-0.223,18.708-4.686,37.023-6.889,55.535c2.404,0.22,4.811,0.44,7.215,0.66
			c2.369-22.172,6.59-44.405,2.489-66.642c-0.315-1.712-7.744-2.074-7.75-0.709c-0.08,20.023-0.237,40.056-2.461,59.978
			c-0.176,1.575,8.012,2.436,8.229,0.753c2.284-17.708,4.505-35.435,4.657-53.314c0.016-1.779-8.427-2.495-8.654-0.792
			c-2.613,19.494-9.2,40.648-2.461,59.979c0.766,2.196,7.326,2.258,8.938,1.148c14.5-9.987,22.545-26.673,33.529-39.967
			c-3.045-0.509-6.09-1.018-9.135-1.527c-8.4,12.245-19.695,21.872-29.056,33.306c-1.295,1.583,7.58,2.552,8.938,1.856
			c14.03-7.188,25.474-18.16,38.479-26.912c-3.271-0.546-6.542-1.093-9.812-1.64c-11.486,15.585-28.08,26.069-44.658,35.52
			c-1.285,0.732,2.132,1.813,2.308,1.857c2.183,0.554,5.187,0.988,7.362,0.15c18.085-6.961,33.227-19.66,51.304-26.618
			c-3.359-0.698-6.719-1.395-10.078-2.093c-14.476,9.537-29.571,18.084-44.642,26.634c-1.39,0.789,2.306,1.959,2.493,2.007
			c2.358,0.598,5.604,1.067,7.955,0.163c17.107-6.584,31.868-17.846,48.973-24.423c-3.542-0.735-7.083-1.471-10.625-2.206
			c-8.109,5.688-17.691,9.92-25.844,2.39c-7.636-7.052-7.436-18.348-4.751-27.568c-3.943-0.215-7.886-0.431-11.829-0.646
			c4.798,4.629,10.563,7.904,16.095,11.556c2.821-0.493,5.643-0.985,8.464-1.478c-10.834-2.442-19.633-10.942-23.919-20.992
			c-3.949-0.066-7.898-0.133-11.848-0.199c13.117,13.218,25.352,27.228,40.491,38.234c1.752,1.273,4.882,1.376,6.934,1.411
			c0.307,0.005,5.934-0.25,4.52-1.667c-13.347-13.381-26.588-26.861-37.68-42.221c-3.145,0.359-6.289,0.719-9.434,1.078
			c15.753,4.156,27.04,15.48,37.197,27.605c3.145-0.359,6.289-0.719,9.434-1.078c-14.114-4.28-24.829-15.241-34.976-25.383
			c-3.88,0.087-7.759,0.173-11.639,0.26c16.985,10.525,36.072,18.743,50.514,32.868c1.531-0.565,3.062-1.129,4.593-1.694
			c-12.893-0.271-24.879-9.482-35.176-16.343c-1.731-1.154-10.872-3.042-11.822-0.214c-4.142,12.331-8.92,24.333-15.556,35.555
			c4.201,0.384,8.402,0.768,12.604,1.152c6.159-18.802,8.925-38.18,11.111-57.778c-4.201-0.384-8.402-0.768-12.604-1.152
			c-0.069,19.364-2.303,38.559-4.445,57.778c4.201,0.384,8.402,0.768,12.604,1.152c0.103-13.37,2.12-26.63,2.223-40
			c0.02-2.584-12.247-3.643-12.604-1.152c-2.139,14.958-4.209,30.027-8.889,44.445c4.201,0.384,8.402,0.768,12.604,1.152
			c2.244-7.229,2.7-14.869,4.444-22.223c-4.201-0.384-8.402-0.768-12.604-1.152c-2.082,11.033-2.363,22.3-4.444,33.333
			c-0.541,2.869,10.795,2.453,12.337,1.585c19.493-10.969,36.66-25.921,57.105-35.207c0.553-0.251,1.231-0.557,0.755-1.255
			c-13.265-19.418-33.785-29.391-54.631-38.722c-2.358-1.056-5.503-1.186-8.036-1.019c-0.828,0.055-5.267,0.892-2.611,2.243
			c23.219,11.811,45.533,27.828,61.761,48.401c1.464,1.856,5.791,1.917,7.855,1.952c0.476,0.008,6.02-0.094,4.721-1.741
			c-16.593-21.036-38.843-37.415-62.683-49.377c-3.549,0.408-7.098,0.816-10.647,1.225c19.916,8.794,39.397,18.333,52.035,36.833
			c0.252-0.418,0.504-0.837,0.755-1.255c-20.933,9.507-38.5,24.679-58.449,35.905c4.112,0.528,8.225,1.057,12.337,1.585
			c2.082-11.034,2.362-22.3,4.444-33.333c0.403-2.136-11.949-3.913-12.604-1.152c-1.744,7.354-2.2,14.994-4.444,22.223
			c-0.533,1.719,11.644,4.111,12.604,1.152c4.681-14.417,6.75-29.487,8.889-44.445c-4.201-0.384-8.402-0.768-12.604-1.152
			c-0.103,13.37-2.12,26.63-2.223,40c-0.021,2.614,12.331,3.601,12.604,1.152c2.143-19.219,4.376-38.413,4.445-57.778
			c0.01-2.619-12.331-3.599-12.604-1.152c-2.187,19.598-4.953,38.975-11.111,57.778c-0.609,1.86,11.12,3.662,12.604,1.152
			c6.636-11.221,11.415-23.224,15.556-35.555c-3.94-0.071-7.881-0.143-11.822-0.214c15.277,10.18,30.438,18.816,49.268,19.211
			c0.3,0.006,6.044-0.274,4.593-1.694c-14.834-14.508-34.269-22.991-51.709-33.798c-1.954-1.211-4.822-1.396-7.046-1.434
			c-0.31-0.005-6.031,0.256-4.593,1.694c11.985,11.98,24.038,22.933,40.581,27.95c0.86,0.261,11.027,0.825,9.434-1.078
			c-11.783-14.067-24.705-25.397-42.803-30.172c-0.82-0.216-10.981-1.065-9.434,1.078c11.112,15.388,24.473,28.853,37.875,42.224
			c3.817-0.085,7.635-0.17,11.453-0.256c-14.771-10.692-26.699-24.478-39.509-37.321c-1.611-1.616-12.912-2.674-11.848-0.199
			c5.25,12.204,16.605,20.58,29.415,23.453c1.008,0.226,11.683,0.638,8.464-1.478c-5.146-3.382-10.55-6.377-15.017-10.667
			c-1.527-1.466-11.01-3.5-11.829-0.646c-3.742,13.024-0.881,27.54,12.589,33.348c13.642,5.882,29.369,3.194,41.262-5.192
			c1.317-0.929-2.233-1.964-2.535-2.041c-2.396-0.607-5.703-1.088-8.09-0.165c-17.058,6.595-31.752,17.878-48.807,24.465
			c3.482,0.723,6.966,1.446,10.448,2.169c14.931-8.594,29.906-17.142,44.249-26.699c1.276-0.851-2.148-1.871-2.404-1.936
			c-2.268-0.575-5.414-1.037-7.674-0.157c-17.966,6.998-32.962,19.721-50.919,26.715c3.224,0.669,6.446,1.338,9.67,2.008
			c16.452-9.483,32.904-20.004,44.23-35.592c1.278-1.76-8.203-2.735-9.812-1.64c-12.529,8.526-23.549,19.413-37.077,26.422
			c2.979,0.619,5.959,1.237,8.938,1.856c9.247-11.451,20.44-21.107,28.724-33.361c0.981-1.451-7.756-3.22-9.135-1.527
			c-10.854,13.312-18.748,30.008-33.139,40.033c2.979,0.383,5.958,0.766,8.938,1.148c-6.882-19.297-0.475-40.49,1.984-60.021
			c-2.885-0.264-5.77-0.528-8.654-0.792c-0.011,17.881-2.089,35.627-4.231,53.353c2.743,0.251,5.485,0.502,8.229,0.753
			c2.064-19.948,2.062-39.991,1.982-60.022c-2.583-0.236-5.167-0.473-7.75-0.709c4.273,22.217,0.237,44.488-1.954,66.691
			c-0.14,1.409,7.055,2.113,7.215,0.66c2.055-18.525,6.369-36.872,6.443-55.576c0.006-1.49-6.764-1.815-6.77-0.619
			c-0.081,17.657-4.122,34.875-10.9,51.13c-0.314,0.755,5.544,1.936,6.35,0.581c3.799-6.384,7.425-12.866,11.213-19.257
			c1.893-3.193,3.834-6.358,5.896-9.445c0.653-0.979,2.616-4.202,3.386-4.385C629.087,64.521,625.01,63.747,624.256,63.907
			L624.256,63.907z"/>
	</g>
	<g opacity="0.9">
		<path fill="#B20606" d="M602.607,97.698c-0.429,3.84-2.255,7.248-2.928,11.046c-0.114,0.647,2.358,0.588,2.67,0.549
			c27.685-3.512,47.956-25.371,66.915-43.882c-3.854-0.644-7.71-1.289-11.564-1.933c-12.426,18.711-32.939,29.234-52.035,39.845
			c-1.693,0.941,2.806,2.378,3.022,2.433c2.949,0.748,6.692,1.201,9.643,0.197c13.485-4.592,26.294-10.891,38.524-18.166
			c-4.471-0.747-8.941-1.494-13.412-2.241c-13.938,9.163-29.241,16.055-42.222,26.666c-1.474,1.205,2.558,2.315,3.022,2.433
			c2.629,0.666,7.06,1.488,9.643,0.197c17.763-8.883,35.601-17.786,51.858-29.276c1.847-1.306-4.322-2.717-4.678-2.777
			c-2.681-0.447-6.255-0.871-8.734,0.535c-16.424,9.312-34.172,16.863-48.89,28.889c-1.756,1.436,4.225,2.701,4.678,2.777
			c2.67,0.446,6.267,0.879,8.734-0.535c16.601-9.517,32.976-19.837,46.667-33.333c1.984-1.956-7.625-3.133-8.4-3.117
			c-17.471,0.371-31.271,8.367-46.446,16.053c4.192,0.871,8.386,1.741,12.578,2.612c11.189-15.97,17.378-34.177,6.703-52.112
			c-1.121,0.605-2.242,1.211-3.362,1.816c5.328-0.583,11.552,5.384,15.339,9.057c4.772,4.629,8.751,10.076,12.459,15.569
			c4.215-0.094,8.429-0.188,12.644-0.282c-6.44-4.131-13.577-6.97-20.012-11.11c-3.646,0.419-7.291,0.838-10.937,1.258
			c7.893,2.583,15.878,4.785,23.378,8.419c2.368,1.148,5.068,1.519,7.68,1.563c0.33,0.005,6.585-0.291,5.007-1.847
			c-13.265-13.077-29.074-22.499-46.082-29.879c-1.117,0.953-2.234,1.906-3.351,2.858c8.997,0.17,17.265,5.714,24.332,10.787
			c7.268,5.216,13.895,11.269,21.134,16.528c1.995,1.449,5.559,1.567,7.896,1.607c0.346,0.006,6.762-0.29,5.147-1.898
			c-11.052-11.015-23.167-20.709-36.104-29.418c-3.366,0.587-6.731,1.175-10.098,1.763c15.064,3.921,27.864,12.253,36.651,25.198
			c4.155-0.271,8.31-0.541,12.465-0.811c-21.118-6.514-41.61-16.51-57.391-32.27c-1.986,0.732-3.972,1.465-5.958,2.197
			c6.191,0.174,12.945,5.038,17.915,8.3c6.918,4.542,13.135,10.116,19.02,15.906c2.229,2.192,6.8,2.358,9.687,2.407
			c0.552,0.009,7.462-0.147,5.821-2.146c-8.612-10.492-18.985-19.141-29.812-27.246c-4.554,0.299-9.108,0.598-13.662,0.897
			c15.23,11.089,25.223,27.519,37.302,41.651c1.826,2.136,6.629,2.226,9.129,2.269c0.499,0.008,7.058-0.159,5.486-2.023
			c-12.394-14.707-22.559-31.236-38.255-42.794c-2.607-1.92-7.556-1.933-10.601-1.732c-1.494,0.099-5.646,0.673-3.062,2.629
			c10.212,7.73,19.888,16.102,27.967,26.088c5.169,0.087,10.339,0.174,15.508,0.261c-15.475-15.42-33.77-28.641-56.399-29.128
			c-0.382-0.008-7.85,0.368-5.958,2.197c17.783,17.204,40.618,27.777,64.068,34.844c1.019,0.307,12.749,1.277,11.006-1.258
			c-10.331-15.028-25.969-23.647-43.349-28.135c-2.776-0.717-5.917-0.989-8.756-0.494c-1.421,0.248-3.174,1.032-1.342,2.257
			c12.555,8.393,24.264,17.739,35.008,28.359c4.348-0.097,8.695-0.194,13.043-0.291c-9.247-6.67-17.612-14.479-27.276-20.58
			c-10.224-6.455-21.872-9.663-33.924-9.882c-2.078-0.038-7.958,0.865-3.351,2.858c15.803,6.836,30.479,15.791,42.807,27.898
			c4.229-0.095,8.457-0.189,12.687-0.283c-8.235-3.978-16.847-6.532-25.511-9.358c-2.646-0.864-5.471-1.23-8.254-1.046
			c-1.099,0.073-5.163,0.713-2.683,2.304c6.435,4.127,13.559,6.977,19.988,11.112c1.689,1.086,14.167,1.983,12.644-0.282
			c-11.207-16.665-26.134-31.059-47.759-28.707c-0.729,0.079-4.3,0.234-3.362,1.816c10.148,17.116,4.044,34.933-6.631,50.11
			c-1.774,2.522,10.728,3.546,12.578,2.612c11.723-5.92,24.409-14.778,37.999-15.058c-2.8-1.039-5.6-2.078-8.4-3.117
			c-13.693,13.494-30.065,23.815-46.667,33.333c4.471,0.748,8.941,1.495,13.412,2.242c14.718-12.026,32.465-19.578,48.89-28.889
			c-4.471-0.748-8.941-1.495-13.412-2.242c-15.804,11.17-33.095,19.866-50.364,28.501c4.222,0.876,8.443,1.753,12.665,2.63
			c12.98-10.611,28.284-17.503,42.222-26.667c1.884-1.239-4.363-2.724-4.678-2.776c-2.633-0.439-6.309-0.908-8.734,0.535
			c-11.76,6.995-24.066,12.976-37.03,17.39c4.222,0.876,8.443,1.753,12.665,2.63c18.677-10.378,38.595-21.515,50.188-40.155
			c1.278-2.054-9.76-3.792-11.564-1.933c-16.758,17.25-33.795,38.075-57.785,45.07c0.975,0.162,1.95,0.323,2.925,0.485
			c-0.204-3.85,1.478-7.331,1.518-11.175C604.361,97.495,602.646,97.357,602.607,97.698L602.607,97.698z"/>
	</g>
	<g opacity="0.9">
		<path fill="#B20606" d="M608.573,59.856c-2.051,3.754-1.152,10.288-1.571,14.511c-0.702,7.073-1.833,14.282-4.533,20.893
			c-0.291,0.711,5.791,2.144,6.471,0.592c7-15.973,5.691-34.099,3.523-50.992c-3.024-0.277-6.048-0.553-9.072-0.83
			c1.09,7.75,1.72,15.54,2.307,23.341c0.579,7.699,0.275,16.429,3.104,23.68c0.476,1.217,7.064,1.808,7.245,0.396
			c0.951-7.413-0.939-15.791-1.447-23.262c-0.53-7.795-1.104-15.579-2.137-23.326c-0.297-2.223-9.228-2.11-9.072-0.83
			c2.08,17.164,5.364,34.52-0.922,51.23c2.157,0.197,4.313,0.395,6.471,0.592c2.339-6.734,2.979-13.924,3.349-21.001
			c0.227-4.34,1.395-10.817-0.61-14.824C611.384,59.437,608.894,59.268,608.573,59.856L608.573,59.856z"/>
	</g>
</g>
<g>
	<g>
		<path fill="#1D1D1B" d="M12.581,302.241c6.137-22.064,4.345-44.734,1.255-67.145c-3.034-22.01-6.993-43.753-8.417-65.963
			c-1.396-21.772-1.009-43.654,1.692-65.312c1.371-10.993,3.483-21.887,6.239-32.615c1.291-5.027,2.805-9.995,4.438-14.92
			c1.75-5.273,4.695-10.599,5.432-16.107c0.099-0.74-3.43-1.051-3.838-0.493c-5.559,7.606-7.812,18.718-10.267,27.701
			C6.202,78.049,4.171,88.94,2.677,99.886c-3.028,22.189-3.314,44.774-1.725,67.09c1.583,22.225,5.614,44.075,9.404,65.999
			c3.945,22.822,6.457,46.307,1.804,69.228C12.147,302.272,12.556,302.333,12.581,302.241L12.581,302.241z"/>
	</g>
	<g>
		<path fill="#1D1D1B" d="M20.367,31.029c-5.305,10.565,40.21,15.708,44.688,16.315c32.406,4.395,65.16,6.259,97.81,7.713
			c28.234,1.257,56.15,1.678,84.41,0.607c65.006-2.462,129.793-9.15,194.277-17.542c26.592-3.461,53.14-7.258,79.662-11.215
			c26.815-4,53.828-7.548,80.468-12.594c3.583-0.679-3.997-2.129-5.287-1.962c-32.234,4.18-64.305,9.955-96.465,14.7
			c-32.34,4.771-64.728,9.218-97.183,13.131c-32.837,3.959-65.751,7.287-98.731,9.802c-30.918,2.358-62.143,4.617-93.167,4.53
			c-23.263-0.065-46.567-1.158-69.792-2.373c-31.568-1.651-63.517-3.411-94.657-9.125c-4.135-0.759-26.818-3.82-24.247-11.826
			C22.233,30.94,20.559,30.647,20.367,31.029L20.367,31.029z"/>
	</g>
	<g>
		<path fill="#1D1D1B" d="M680.931,69.278c-5.176,22.779-6.521,46.336-6.012,69.635c0.442,20.21,2.641,40.323,3.312,60.521
			c0.65,19.566-0.682,39.083-5.587,58.087c-2.864,11.097-7.025,21.819-11.937,32.162c-6.189,13.036-14.344,24.65-21.929,36.854
			c-0.525,0.846,4.242,1.737,4.963,0.83c15.272-19.244,26.683-43.174,33.134-66.811c5.293-19.395,6.436-39.505,5.699-59.513
			c-0.743-20.196-3.127-40.295-4.15-60.476c-1.215-23.937,0.352-47.49,4.116-71.142C682.586,69.142,681.009,68.932,680.931,69.278
			L680.931,69.278z"/>
	</g>
	<g>
		<path fill="#1D1D1B" d="M19.266,293.465c14.076-0.53,29.012,4.203,42.482,7.653c20.035,5.131,39.854,11.1,59.655,17.058
			c35.039,10.542,69.612,21.726,105.548,28.878c87.481,17.412,179.498,22.74,268.037,10.782
			c59.568-8.045,124.22-25.106,170.165-66.035c0.773-0.688-6.528-2.839-8.248-1.379c-31.185,26.483-68.815,42.868-108.046,53.488
			c-44.456,12.034-90.878,16.685-136.82,17.613c-83.079,1.679-167.408-8.291-247.058-32.196
			c-28.669-8.604-57.28-17.409-86.208-25.118c-12.423-3.311-24.913-6.445-37.539-8.887c-7.271-1.406-15.085-3.072-22.522-2.11
			C18.271,293.269,19.135,293.47,19.266,293.465L19.266,293.465z"/>
	</g>
	<g>
		<path fill="#1D1D1B" d="M591.636,11.239c17.188,6.757,34.163,14.101,49.902,23.837c16.294,10.079,29.607,23.098,43.602,35.988
			c1.062,0.979,6.002,0.557,5.574,0.094c-26.662-28.935-60.883-47.37-97.607-60.175C592.769,10.864,590.743,10.888,591.636,11.239
			L591.636,11.239z"/>
	</g>
	<g>
		<path fill="#1D1D1B" d="M593.438,15.45c8.407,35.831,3.843,72.792-0.767,108.818c-0.111,0.869,3.105,0.731,3.558,0.59
			c34.589-10.81,67.527-25.362,93.609-51.206c0.372-0.369-3.083-1.371-3.822-0.639c-25.936,25.659-58.713,40.178-93.059,51.017
			c1.187,0.197,2.372,0.393,3.558,0.59c4.404-36.17,8.266-73.153-0.767-108.959C595.598,15.064,593.379,15.201,593.438,15.45
			L593.438,15.45z"/>
	</g>
</g>
</svg>
