<?xml version="1.0" encoding="utf-8"?>
<!-- Generator: Adobe Illustrator 16.0.0, SVG Export Plug-In . SVG Version: 6.00 Build 0)  -->
<!DOCTYPE svg PUBLIC "-//W3C//DTD SVG 1.1//EN" "http://www.w3.org/Graphics/SVG/1.1/DTD/svg11.dtd">
<svg version="1.1" id="Capa_1" xmlns="http://www.w3.org/2000/svg" xmlns:xlink="http://www.w3.org/1999/xlink" x="0px" y="0px"
	 width="176px" height="116px" viewBox="0 0 176 116" enable-background="new 0 0 176 116" xml:space="preserve">
<g>
	<path fill="#F9AF14" d="M161.83,25.223c-9.825-14.958-28.433-17.87-45.383-17.28c-9.894,0.344-19.604,1.9-29.255,3.843
		c-1.909-0.278-3.822-0.536-5.743-0.75c-1.141-0.127-1.521,0.589-1.457,1.481c-1.516-0.489-3.031-0.981-4.543-1.481
		c-1.843-0.609-1.563,1.9-0.661,3.4c-1.874,0.413-3.748,0.828-5.623,1.238c-3.325-1.13-6.571-2.438-9.697-4.002
		c-2.531-1.457-5.037-2.958-7.542-4.46c-2.409-1.444-2.132,2.872-0.661,3.885c0.155,0.107,0.316,0.203,0.472,0.308
		c0,0.001,0,0.002,0,0.004c0.025,0.015,0.051,0.03,0.076,0.045c2.093,1.411,4.246,2.679,6.45,3.83
		c0.468,0.272,0.94,0.539,1.411,0.808c-1.539,0.401-3.082,0.786-4.683,0.918c-2.077,0.171-0.587,3.423,0.274,4.086
		c0.036,0.028,0.075,0.052,0.111,0.08c-0.161,0.144-0.254,0.355-0.296,0.609c-0.363,0.077-0.726,0.142-1.089,0.226
		c-0.035,0.008-0.062,0.022-0.094,0.031c-6.152-1.996-12.312-3.969-18.448-6.006c-2.402-0.797-1.199,3.709,0.288,4.373
		c7.958,3.55,15.869,7.26,23.862,10.761c-2.045-0.397-4.094-0.782-6.149-1.133c-0.873-0.149-1.284,0.165-1.403,0.685
		c-7.66-2.688-15.466-4.922-23.534-6.337c-4.179-1.766-8.359-3.527-12.586-5.172c-2.708-1.054-2.048,2.813-0.661,3.885
		c0.43,0.332,0.865,0.659,1.297,0.99c-0.564,0.292-0.609,1.168-0.33,2.083c-0.261-0.044-0.521-0.094-0.783-0.134
		c-1.102-0.167-1.484,0.479-1.434,1.332c-0.521-0.115-1.042-0.229-1.566-0.332c-2.753-0.541-0.956,3.986,0.765,4.548
		c4.334,1.414,8.72,2.654,13.107,3.889c-3.788,0.046-7.568,0.194-11.33,0.538c-2.47,0.226-0.184,4.183,1.223,4.573
		c16.354,4.542,33.524,2.618,50.153,5.298c0.494,0.719,1.231,1.226,2.055,1.149c0.763-0.071,1.491-0.3,2.25-0.422
		c0.489-0.079,0.783-0.308,0.94-0.619c1.513-0.163,3.458-0.255,5.08-0.324c8.523,3.558,17.229,6.716,25.867,9.93
		c0.53,0.2,1.062,0.396,1.594,0.593c0.194,0.073,0.39,0.146,0.584,0.218v-0.001c0.159,0.059,0.317,0.119,0.477,0.177
		c2.265,0.825,1.365-3.754-0.287-4.373c-1.168-0.437-2.337-0.872-3.507-1.306c-5.219-1.981-10.383-4.131-15.532-6.333
		c2.163-0.367,4.319-0.768,6.472-1.182c1.729-0.333,3.451-0.691,5.172-1.058c0.068,0.025,0.137,0.051,0.205,0.076l0,0l0,0
		c0.159,0.058,0.317,0.118,0.477,0.175c0.811,0.292,1.2-0.068,1.309-0.683c2.271-0.499,4.537-1.018,6.801-1.551
		c-1.232,1.149,0.595,4.405,2.35,4.26c12.312-1.021,24.638-1.949,37-2c1.754-0.007,1.031-2.722-0.334-3.975
		c4.234-3.165,9.277-5.286,14.131-7.476c1.069-0.179,2.138-0.361,3.203-0.549c0.062-0.011,0.102-0.041,0.157-0.058
		c0.089-0.02,0.17-0.048,0.241-0.088c0.047-0.025,0.089-0.052,0.13-0.082c0.025-0.021,0.049-0.044,0.071-0.068
		c0.363-0.325,0.455-0.852,0.392-1.4C164.236,27.808,163.067,25.861,161.83,25.223z M137.689,38.117
		c-0.008-0.05-0.022-0.102-0.032-0.152c0.378-0.029,0.757-0.059,1.135-0.09c-0.069,0.072-0.139,0.144-0.207,0.217
		C138.286,38.098,137.987,38.108,137.689,38.117z M74.503,24.647c1.353,0.901,2.735,1.741,4.136,2.542
		c-2.842-0.809-5.686-1.614-8.532-2.413C71.569,24.709,73.035,24.672,74.503,24.647z M144.511,26.982
		c-0.182-0.818-0.663-1.747-1.242-2.356c-0.242-0.454-0.555-0.854-0.872-1.103c-0.645-0.507-1.302-0.995-1.953-1.492
		c3.115,0.851,6.195,1.833,9.214,2.958c0.647,0.321,1.296,0.638,1.945,0.953C149.231,26.244,146.868,26.596,144.511,26.982z
		 M132.418,20.473c-0.623-0.22-1.247-0.437-1.871-0.655c0.431,0.076,0.861,0.147,1.292,0.229
		C132.032,20.188,132.225,20.331,132.418,20.473z M126.045,25.356c-2.359,0.196-4.719,0.383-7.055,0.654
		c-0.365,0.042-0.615,0.183-0.786,0.38c-6.232-2.944-12.648-5.401-19.146-7.646c-0.588-0.27-1.177-0.54-1.765-0.81
		C107.004,19.845,116.573,22.444,126.045,25.356z M93.491,29.84c-3.357-1.268-6.66-2.652-9.867-4.229
		c7.097,1.437,14.174,3.01,21.17,4.87C101.098,30.386,97.306,30.191,93.491,29.84z M136.449,14.036
		c-0.74-0.247-1.129-0.007-1.279,0.46c-1.574-0.593-3.148-1.186-4.729-1.759c7.181,0.652,14.196,2.376,20.007,5.965
		C145.781,17.147,141.115,15.591,136.449,14.036z M81.406,17.996c3.493,1.633,6.963,3.317,10.433,4.998
		c-5.448-1.227-10.925-2.331-16.409-3.383c-0.028-0.1-0.055-0.199-0.09-0.3C77.362,18.869,79.384,18.429,81.406,17.996z
		 M96.457,37.572c-2.396-1.049-4.807-2.062-7.23-3.041c3.088,0.876,6.177,1.744,9.27,2.601
		C97.817,37.283,97.137,37.426,96.457,37.572z M124.09,12.417c0.082,0.714,0.379,1.529,0.716,2.096
		c-1.453-0.187-2.906-0.351-4.356-0.477c-1.325-0.115-1.598,0.817-1.396,1.839c-2.856-0.955-5.718-1.893-8.59-2.801
		c0.159-0.016,0.318-0.035,0.478-0.051C115.09,12.624,119.562,12.357,124.09,12.417z M63.92,39.889
		c1.259,0.622,2.524,1.229,3.796,1.822c-3.741-0.698-7.511-1.149-11.298-1.457C58.925,40.195,61.426,40.081,63.92,39.889z
		 M72.575,38.845c0.441-0.074,0.883-0.146,1.323-0.227c2.516,0.583,5.029,1.181,7.538,1.792c-1.304,0.197-2.61,0.385-3.918,0.557
		C75.872,40.257,74.225,39.549,72.575,38.845z M142.284,34.758c-0.214-0.424-0.484-0.809-0.763-1.099
		c0.919-0.101,1.837-0.208,2.754-0.317C143.596,33.792,142.933,34.265,142.284,34.758z"/>
	<path fill="#FBBB10" d="M169.182,70.326c-0.279-0.748-0.59-1.478-0.914-2.2c0.079-9.011-0.164-18.021-0.185-27.033
		c-0.002-0.901-1.495-1.835-2.532-2.577c-0.323-0.33-0.647-0.66-0.972-0.99c-0.11,3.191-0.721,6.277-1.618,9.289
		c-0.746-0.695-1.538-1.271-1.882-1.289c-4.36-0.227-8.393,0.628-12.479,1.865c-0.766-0.568-1.556-1.05-1.84-1.096
		c-4.308-0.683-36.453-1.383-35.984,4.242c0.032,0.391,0.441,0.833,0.988,1.243c-2.466-0.872-5.051-1.491-7.812-1.74
		c-1.612-0.146-0.161,2.98,0.168,3.417c0.479,0.636,0.994,1.238,1.503,1.844c-0.881,0.283-1.757,0.584-2.628,0.904
		c-0.135,0.002-0.27,0.002-0.403,0.004c-0.088-0.028-0.175-0.061-0.263-0.089c-0.445-0.144-0.72-0.081-0.879,0.101
		c-1.963,0.023-3.926,0.036-5.889,0.035c-0.542-0.287-0.871-0.247-1.041-0.005c-1.308-0.005-2.615-0.001-3.923-0.019
		c-0.302-0.004-0.603-0.014-0.903-0.019c-4.119-1.75-8.324-3.261-12.742-4.174c-1.562-0.323-0.134,3.058,0.168,3.417
		c0.082,0.098,0.169,0.19,0.251,0.288c-2.977-0.162-5.953-0.345-8.928-0.532c-9.03-4.836-18.302-9.086-28.491-11.173
		c-1.618-0.332-0.053,3.082,0.168,3.417c0.859,1.303,1.762,2.568,2.682,3.819c-4.375-1.047-8.743-2.13-13.104-3.245
		c0.165,0.042,1.176,1.467,2.059,2.486c-2.344-0.698-4.699-1.356-7.059-1.986c0.013,0.003,0.196,0.229,0.459,0.555
		c-2.119-1.281-4.256-2.535-6.424-3.742c-2.272-1.265-1.267,2.194-0.614,3.113c0.485,0.683,0.989,1.35,1.479,2.029
		c-0.12-0.093-0.232-0.181-0.338-0.265c-0.228-0.232-0.456-0.464-0.684-0.696c-0.977,4.953-1.476,9.947-1.731,14.96
		c-1.378-1.036-2.758-2.069-4.112-3.142c-2.027-1.604-1.266,2.299-0.614,3.114c1.381,1.727,2.758,3.457,4.139,5.185
		c-0.338,4.091-0.319,8.232-0.259,12.362c-1.056-0.238-0.589,1.519,0.043,2.868c0.003,0.223,0.006,0.445,0.009,0.667
		c-2.236-0.813-4.47-1.648-6.724-2.42c-2.184-0.747-0.289,3.81,1.002,4.377c7.104,3.118,13.897,6.881,21,10
		c1.772,0.777,0.747-2.073-0.088-3.477c0.798,0.135,1.602,0.246,2.411,0.336c7.958,3.755,16.053,7.171,24.677,9.141
		c1.078,0.246,1.216-0.464,1.005-1.342c5.23,1.021,10.536,1.744,15.859,2.311c0.578,0.833,1.224,1.621,1.887,1.626
		c3.041,0.023,6.075,0.13,9.091,0c2.803,0,5.606,0,8.409,0c-0.055,0-0.114-0.027-0.178-0.067c-0.166-0.175-0.333-0.351-0.499-0.525
		c-0.59-0.786-1.348-2.135-2.108-2.702c-0.235-0.516-0.489-0.944-0.652-1.102c-1.212-1.167-2.479-2.267-3.772-3.333
		c1.672,0.142,3.345,0.256,5.017,0.354c2.917,1.107,5.875,2.098,8.941,2.78c1.516,0.337,1.152-1.306,0.667-2.452
		c2.153,0.021,4.307,0.016,6.46-0.034c0.686,0.485,1.367,0.854,1.734,0.838c0.357-0.016,0.714-0.035,1.07-0.052
		c1.349,0.882,2.711,1.746,4.098,2.576c1.852,1.108,1.511-1.261,0.684-2.823c0.132-0.007,0.264-0.016,0.396-0.023
		c2.558,1.289,5.191,2.448,7.891,3.471c1.781,0.674,0.799-2.713-0.436-3.972c7.464-0.587,14.902-1.43,22.297-2.677
		c0.665-0.112-2.555-2.972-3.433-3.054c-0.096-0.009-0.19-0.013-0.286-0.021c-0.001,0-0.002-0.001-0.002-0.002
		c-0.051-2.567,1.461-2.992,3.441-2.825c1.004,0.61,2.011,1.215,3.014,1.827c1.285,0.785,1.508-0.09,1.298-1.186
		c2.576,0.266,4.582-1.319,6.21-3.111c0.163,0.101,0.329,0.196,0.492,0.297c1.618,1.003,1.492-0.549,0.931-2.014
		c2.089-2.738,3.542-5.883,5.068-8.981c0.159,0.961,0.362,1.919,0.656,2.868c0.212,0.685,3.495,3.46,3.5,3.445
		c1.025-3.19,1.296-6.414,1.077-9.657c0.013-0.497,0.031-0.994,0.043-1.491C169.476,73.107,169.528,71.257,169.182,70.326z
		 M154.516,82.455c-1.386-1.17-2.766-2.347-4.143-3.528c0.109-0.512-0.018-1.204-0.191-1.601c-0.59-1.341-1.209-2.665-1.842-3.98
		c0.529,0.311,1.061,0.616,1.588,0.93c1.889,1.123,1.479-1.275,0.646-2.842c2.525,1.48,5.124,2.853,7.791,4.129
		c-0.974,1.944-1.951,3.884-3.074,5.718C155.043,81.684,154.782,82.073,154.516,82.455z M139.555,93.059
		c-0.075-0.097-0.155-0.2-0.242-0.312c-0.047-0.069-0.096-0.143-0.145-0.216c0.282,0.192,0.569,0.379,0.858,0.562
		C139.869,93.082,139.712,93.069,139.555,93.059z M83.849,58.914c0.496,0.025,0.992,0.053,1.488,0.077
		c0,0.182,0.019,0.377,0.052,0.579c-0.345-0.048-0.689-0.097-1.034-0.146C84.185,59.256,84.018,59.084,83.849,58.914z M35.642,90.02
		c-0.922-1.182-1.856-2.353-2.782-3.531c2.205,1.346,4.475,2.607,6.749,3.865C38.291,90.195,36.968,90.088,35.642,90.02z
		 M21.654,66.914c0.076,0.414,0.149,0.828,0.221,1.243c-0.1-0.071-0.2-0.144-0.3-0.215C21.603,67.6,21.628,67.257,21.654,66.914z
		 M22.558,72.437c0.062,0.416,0.124,0.832,0.184,1.249c-0.5-0.627-1-1.253-1.501-1.88c0.009-0.098,0.018-0.195,0.027-0.292
		C21.697,71.821,22.126,72.132,22.558,72.437z M89.523,74.238c-0.745-0.584-1.481-1.178-2.216-1.773
		c0.922,0.025,1.845,0.035,2.768,0.03c0.895,0.563,1.79,1.125,2.683,1.691C91.682,74.22,90.603,74.238,89.523,74.238z
		 M93.089,82.672c-0.647-0.505-1.296-1.009-1.944-1.514c0.868,0.166,1.733,0.339,2.598,0.521c0.497,0.327,0.996,0.65,1.492,0.98
		C94.52,82.669,93.805,82.672,93.089,82.672z M80.405,86.548c-0.822-0.09-1.645-0.178-2.467-0.265
		c-0.339-0.367-0.692-0.72-1.041-1.077c-0.013-0.036-0.026-0.069-0.04-0.104c0.737,0.026,1.474,0.054,2.211,0.084
		C79.519,85.634,79.963,86.09,80.405,86.548z M71.688,78.057c1.405,1.364,2.818,2.721,4.237,4.071c-0.4-0.017-0.8-0.032-1.199-0.048
		c-1.239-1.4-2.504-2.78-3.788-4.143C71.188,77.977,71.438,78.018,71.688,78.057z M62.325,74.362
		c-2.211-1.537-4.415-3.088-6.615-4.643c1.441,0.296,2.882,0.604,4.323,0.912c1.336,1.35,2.675,2.696,4.01,4.047
		C63.469,74.577,62.896,74.471,62.325,74.362z M48.119,70.646c-1.197-0.884-2.393-1.768-3.59-2.651
		c1.089,0.086,2.174,0.201,3.255,0.343c0.12,0.772,0.24,1.545,0.359,2.317C48.135,70.652,48.127,70.649,48.119,70.646z
		 M51.303,70.394c1.034,0.731,2.068,1.465,3.102,2.196c-1.008-0.267-2.01-0.551-3.006-0.854
		C51.37,71.322,51.337,70.863,51.303,70.394z M72.372,84.976c0.451,0.296,0.906,0.585,1.358,0.878
		c-0.172-0.017-0.344-0.031-0.516-0.048c-0.323-0.277-0.647-0.554-0.97-0.833C72.286,84.974,72.329,84.975,72.372,84.976z
		 M71.387,85.174c-0.14-0.071-0.279-0.146-0.418-0.22c0.056,0.001,0.112,0.001,0.168,0.002
		C71.22,85.029,71.304,85.102,71.387,85.174z M76.848,82.166c-1.3-1.254-2.61-2.501-3.913-3.755
		c3.746,1.242,7.422,2.673,11.116,4.058C81.65,82.377,79.249,82.268,76.848,82.166z M86.551,77.613
		c0.217,0.011,0.434,0.02,0.65,0.028c0.43,0.265,0.861,0.527,1.292,0.791c-0.381-0.068-0.762-0.139-1.144-0.205
		C87.083,78.023,86.817,77.817,86.551,77.613z M75.81,73.478c0.015,0.016,0.029,0.03,0.043,0.045
		c-2.914-0.28-5.806-0.617-8.654-0.988c0.147,0.161,0.295,0.321,0.442,0.481c0.3,0.4,0.71,0.989,1.152,1.55
		c-0.032-0.01-0.062-0.021-0.094-0.031c-0.125-0.04,0.239,0.485,0.631,1.01c-0.265-0.04-0.53-0.081-0.795-0.122
		c-1.235-1.276-2.479-2.545-3.73-3.809c0.365,0.071,0.73,0.143,1.096,0.211c0.762,0.143-0.366-1.053-1.52-1.987
		c2.716,0.438,5.433,0.868,8.151,1.256C73.625,71.889,74.718,72.682,75.81,73.478z M58.601,75.553
		c2.88,2.027,5.772,4.038,8.684,6.018c0.116,0.103,0.232,0.205,0.349,0.309c-0.554-0.009-1.107-0.015-1.66-0.018
		c-3.073-1.815-6.22-3.505-9.407-5.131c-1.341-0.928-2.669-1.876-3.993-2.831C54.563,74.519,56.573,75.066,58.601,75.553z
		 M67.558,85.318c-1.375-0.104-2.752-0.197-4.128-0.275c1.176-0.047,2.354-0.076,3.533-0.091
		C67.162,85.073,67.358,85.198,67.558,85.318z M95.156,93.967c-3.104-0.938-6.237-1.712-9.392-2.375
		c-0.163-0.198-0.319-0.402-0.483-0.598c1.818-0.18,3.625-0.394,5.413-0.644c0.634-0.089-2.542-2.958-3.433-3.054
		c-1.968-0.213-3.937-0.431-5.906-0.646c-0.464-0.481-0.937-0.955-1.408-1.43c2.574,0.106,5.15,0.227,7.726,0.325
		c2.607,2.723,5.149,5.503,7.544,8.413C95.195,93.962,95.176,93.964,95.156,93.967z M91.434,85.672
		c0.238,0.006,0.477,0.011,0.714,0.017c3.151,2.454,6.299,4.909,9.49,7.305c-1.158,0.196-2.319,0.378-3.481,0.551
		C96.029,90.819,93.77,88.212,91.434,85.672z M84.334,68.904c-0.433-0.01-0.865-0.017-1.297-0.033
		c-0.877-0.771-1.732-1.567-2.584-2.364C81.748,67.304,83.042,68.103,84.334,68.904z M78.261,68.2
		c-3.504-2.104-7.022-4.187-10.538-6.272c1.55,0.013,3.1,0.018,4.65,0.014C74.248,64.125,76.215,66.206,78.261,68.2z M56.962,62.587
		c-0.233-0.254-0.465-0.507-0.698-0.761c1.146,0.003,2.292,0.008,3.438,0.019c2.515,1.791,5.027,3.588,7.527,5.4
		c-2.67-0.4-5.338-0.835-8.006-1.267c-1.249-1.268-2.489-2.541-3.716-3.826C55.993,62.296,56.472,62.455,56.962,62.587z
		 M41.866,67.855c0.239,0.172,0.476,0.345,0.714,0.516c-0.361-0.17-0.72-0.347-1.078-0.524
		C41.624,67.85,41.745,67.853,41.866,67.855z M54.733,76.959c0.131,0.082,0.037-0.087-0.178-0.381
		c0.861,0.625,1.725,1.246,2.592,1.862c0.363,0.437,0.734,0.821,1.085,1.019c0.671,0.377,1.341,0.757,2.01,1.138
		c0.633,0.434,1.267,0.865,1.905,1.291c-1.711,0.034-3.419,0.105-5.124,0.216c-1.573-1.121-3.143-2.249-4.713-3.376
		c-0.134-1.238-0.302-2.475-0.494-3.716C52.779,75.676,53.741,76.336,54.733,76.959z M38.483,77.013
		c0.235,0.874,0.469,1.749,0.699,2.625c-1.5-0.942-2.998-1.891-4.489-2.848c-1.309-2.552-2.62-5.101-4.101-7.524
		C33.092,71.993,35.742,74.553,38.483,77.013z M41.856,79.959c1.407,1.2,2.828,2.384,4.26,3.556
		c-0.176,0.035-0.352,0.073-0.528,0.11c-1.097-0.677-2.195-1.353-3.29-2.032C42.151,81.048,42.003,80.504,41.856,79.959z
		 M66.076,88.072c0.121,0.14,0.248,0.285,0.376,0.435c-0.062-0.002-0.123-0.005-0.185-0.006c-0.225-0.149-0.449-0.301-0.673-0.45
		C65.755,88.059,65.916,88.064,66.076,88.072z M72.947,91.947c0.087,0.058,0.174,0.115,0.261,0.172
		c-0.103-0.059-0.206-0.118-0.309-0.178C72.916,91.943,72.932,91.945,72.947,91.947z M97.064,85.753
		c0.887-0.001,1.772-0.009,2.658-0.025c0.01,0.007,0.021,0.015,0.031,0.022c0.114,0.881,0.541,1.964,1.052,2.498
		c0.519,0.543,1.065,1.047,1.604,1.562C100.614,88.478,98.836,87.119,97.064,85.753z M54.806,65.28
		c-1.702-0.263-3.404-0.517-5.106-0.746c-0.252-0.034,0.192,0.577,0.557,1.034c-0.707-0.615-1.411-1.232-2.121-1.844
		c-0.064-0.056-1.095-0.983-1.053-0.576c0.012,0.114,0.029,0.229,0.042,0.343c-0.666-0.49-1.338-0.972-2.02-1.439
		c2.163-0.106,4.327-0.171,6.492-0.201C52.655,63.004,53.723,64.148,54.806,65.28z M41.697,63.666
		c-1.091-0.349-2.173-0.721-3.243-1.129c0.47-0.048,0.941-0.085,1.412-0.127C40.478,62.827,41.088,63.246,41.697,63.666z
		 M48.285,72.428c0.047,0.036,0.096,0.07,0.143,0.106c0.18,1.243,0.33,2.489,0.451,3.738c-1.659-1.181-3.323-2.353-4.999-3.507
		c-0.566-1.006-1.134-2.01-1.713-3.005C44.174,70.764,46.215,71.646,48.285,72.428z M49.096,80.094
		c0.004,0.353-0.003,0.707-0.009,1.062c-0.51-0.687-1-1.39-1.471-2.106C48.109,79.396,48.603,79.744,49.096,80.094z M46.524,79.059
		c-0.697-0.74-1.401-1.475-2.091-2.222c0.358,0.245,0.716,0.492,1.073,0.739C45.838,78.076,46.178,78.569,46.524,79.059z
		 M29.908,70.81c0.812,1.472,1.603,2.952,2.395,4.429c-0.85-0.553-1.705-1.1-2.551-1.659C29.79,72.655,29.842,71.732,29.908,70.81z
		 M35.641,81.21c0.518,0.864,1.056,1.718,1.611,2.561c-2.26-1.023-4.554-1.946-6.922-2.648c-0.295-0.087-0.516-0.089-0.679-0.03
		c-0.009-1.26-0.006-2.52,0.006-3.779C31.64,78.629,33.635,79.928,35.641,81.21z M26.142,76.355
		c-0.078-0.529-0.157-1.059-0.237-1.587c0.077,0.054,0.155,0.105,0.232,0.158C26.135,75.402,26.14,75.879,26.142,76.355z
		 M20.896,75.45c0.856,1.074,1.717,2.146,2.572,3.222c0.103,0.688,0.207,1.374,0.315,2.061c-1.102-0.279-2.21-0.52-3.328-0.714
		C20.6,78.495,20.748,76.973,20.896,75.45z M38.964,84.562c-0.413-0.662-0.816-1.332-1.204-2.013
		c0.836,0.529,1.673,1.057,2.512,1.581c0.085,0.395,0.171,0.788,0.25,1.184C40.004,85.06,39.484,84.811,38.964,84.562z
		 M103.509,82.203c-1.246-0.434-2.503-0.835-3.771-1.203c-1.408-0.687-2.797-1.41-4.168-2.168c-0.485-0.359-0.973-0.715-1.456-1.076
		c1.338-0.019,2.674-0.061,4.007-0.133c1.19,0.771,2.373,1.553,3.558,2.331C102.306,80.69,102.917,81.438,103.509,82.203z
		 M147.121,54.459c0.046,0.069,0.091,0.138,0.137,0.206c-0.658-0.125-1.317-0.253-1.975-0.39c0.57-0.02,1.14-0.042,1.71-0.064
		C147.037,54.31,147.081,54.398,147.121,54.459z M112.184,70.116c0.377,0.227,0.754,0.453,1.131,0.68
		c-0.241,0.081-0.482,0.161-0.725,0.238c-0.55-0.471-1.1-0.942-1.649-1.413C111.354,69.788,111.768,69.954,112.184,70.116z
		 M128.346,55.551c1.273-0.218,2.55-0.389,3.828-0.53c0.141,0.06,0.278,0.093,0.409,0.072c0.666-0.115,1.334-0.208,2.001-0.311
		c0.423-0.034,0.847-0.057,1.27-0.086c0.235,0.21,0.445,0.355,0.609,0.391c0.046,0.01,0.092,0.021,0.137,0.03
		c-0.052,0.066-0.093,0.149-0.119,0.251c-2.709,0.049-5.417,0.113-8.125,0.187C128.352,55.554,128.349,55.552,128.346,55.551z
		 M125.441,62.792c-1.98,0.01-3.962,0.021-5.943,0.033c-1.502-0.902-2.99-1.826-4.477-2.755c1.967-0.019,3.933-0.067,5.897-0.143
		C122.45,60.826,123.953,61.793,125.441,62.792z M154.943,67.624c-2.107-2.039-4.206-4.087-6.263-6.173
		c1.608,1.162,3.233,2.299,4.884,3.397C154.051,65.759,154.507,66.687,154.943,67.624z M159.289,61.671
		c-0.305-0.469-0.612-0.936-0.922-1.401c0.189,0.031,0.38,0.069,0.57,0.105C159.056,60.807,159.173,61.238,159.289,61.671z
		 M157.898,61.716c-0.477-0.565-0.956-1.127-1.44-1.683c0.129,0.011,0.258,0.021,0.388,0.033
		C157.198,60.615,157.549,61.165,157.898,61.716z M115.752,65.942c0.834,0.674,1.672,1.342,2.514,2.006
		c-0.055,0.034-0.11,0.066-0.164,0.101c-0.717-0.181-1.431-0.372-2.138-0.581c-0.606-0.508-1.213-1.016-1.821-1.521
		C114.679,65.945,115.215,65.945,115.752,65.942z M108.785,71.538c-3.329-1.785-6.602-3.688-9.842-5.646
		c1.114,0.014,2.229,0.028,3.343,0.037C104.444,67.808,106.611,69.676,108.785,71.538z M132.062,67.36
		c0.935,0.642,1.873,1.275,2.82,1.894c0.518,0.452,1.038,0.902,1.556,1.354c-1.923-0.819-3.834-1.667-5.739-2.529
		C131.153,67.84,131.607,67.6,132.062,67.36z M159.114,71.154c-0.476-1.295-1.016-2.557-1.588-3.801
		c0.001,0,0.002,0.001,0.003,0.001c0.749,1.356,1.446,2.741,2.121,4.14C159.471,71.382,159.293,71.268,159.114,71.154z
		 M164.082,66.026c-0.401-0.237-0.801-0.476-1.203-0.712c-0.3-1.16-0.627-2.313-0.953-3.471c0.031-0.067,0.062-0.135,0.092-0.202
		c0.949,1.539,1.857,3.099,2.682,4.699C164.381,66.09,164.146,65.955,164.082,66.026z M96.096,62.823
		c-0.734-0.008-1.469-0.021-2.203-0.03c-1.629-1.011-3.255-2.025-4.879-3.034C91.403,60.702,93.76,61.737,96.096,62.823z
		 M46.023,58.563c0.169,0.077,0.338,0.156,0.508,0.232c-2.024,0.04-4.047,0.109-6.069,0.221c-0.821-0.562-1.646-1.12-2.471-1.678
		C40.661,57.813,43.34,58.207,46.023,58.563z M35.391,59.397c-0.021,0.002-0.042,0.004-0.062,0.006
		c-0.04-0.042-0.076-0.081-0.119-0.126C35.27,59.317,35.33,59.357,35.391,59.397z M39.326,68.252
		c0.275,0.156,0.552,0.305,0.829,0.456c0.499,0.842,0.992,1.687,1.484,2.532c-0.696-0.47-1.396-0.934-2.097-1.395
		C39.46,69.316,39.388,68.785,39.326,68.252z M28.33,63.122c-1.862-0.993-0.521,2.555,0.041,3.569
		c-0.883-0.801-1.797-1.607-1.792-1.664c-0.208,2.046-0.318,4.095-0.378,6.144c-0.333-0.228-0.669-0.45-1.002-0.679
		c-0.642-3.555-1.443-7.075-2.619-10.52c-0.046-0.134-0.241-0.383-0.512-0.683c0.052-1.791,0.064-3.584,0.029-5.38
		c2.538,3.417,5.152,6.772,7.824,10.081C29.392,63.698,28.863,63.406,28.33,63.122z M20.174,83.109c1.38,0.113,2.75,0.3,4.106,0.555
		c0.15,0.839,0.312,1.676,0.482,2.51c-1.552-0.758-3.104-1.513-4.659-2.26C20.127,83.646,20.151,83.377,20.174,83.109z
		 M29.699,86.577c0.84,1.066,1.683,2.131,2.521,3.2c-0.838-0.397-1.674-0.797-2.509-1.199C29.71,87.911,29.704,87.244,29.699,86.577
		z M40.998,93.718c1.965,0.172,3.919,0.444,5.868,0.796c1.543,0.946,3.054,1.938,4.51,3.001
		C47.849,96.43,44.398,95.14,40.998,93.718z M47.629,88.696c0.447,0.274,0.893,0.55,1.34,0.824c-0.701-0.332-1.4-0.671-2.097-1.017
		C47.125,88.57,47.377,88.633,47.629,88.696z M118.938,92.979c0.368-0.107,0.735-0.217,1.102-0.329
		c0.122,0.09,0.243,0.182,0.365,0.271C119.916,92.94,119.427,92.956,118.938,92.979z M109.175,91.492
		c-1.8-1.215-3.526-2.541-5.163-3.998c-0.275-0.287-0.545-0.578-0.828-0.857c-0.002-0.042-0.011-0.09-0.016-0.133
		c1.682,0.74,3.397,1.416,5.164,1.995c1.685,0.552,0.983-2.093,0.567-2.776c-0.347-0.569-0.714-1.118-1.08-1.669
		c2.732,1.852,5.443,3.734,8.133,5.648C113.717,90.376,111.456,90.969,109.175,91.492z M101.028,71.503
		c-0.128-0.175-0.473-0.59-0.866-1.053c1.438,0.865,2.883,1.718,4.336,2.555c-0.208,0.037-0.415,0.081-0.624,0.116
		C102.926,72.581,101.977,72.042,101.028,71.503z M110.092,76.108c2.966,1.574,5.978,3.05,9.053,4.378
		c1.162,1.021,2.322,2.043,3.472,3.077c-4.438-2.385-8.84-4.835-13.226-7.315C109.625,76.202,109.858,76.157,110.092,76.108z
		 M118.755,76.359c-0.585-0.512-1.176-1.018-1.763-1.527c0.363-0.312,0.731-0.618,1.104-0.92c0.087-0.029,0.174-0.055,0.26-0.085
		c0.691,0.415,1.381,0.831,2.071,1.245c1.248,1.105,2.476,2.234,3.687,3.382C122.303,77.812,120.518,77.109,118.755,76.359z
		 M161.365,69.513c0.071,0.035,0.135,0.059,0.196,0.079c-0.029,0.049-0.057,0.098-0.086,0.146
		C161.438,69.663,161.402,69.588,161.365,69.513z M123.96,54.915c0.196,0.247,0.396,0.476,0.592,0.666
		c0.008,0.026,0.017,0.052,0.024,0.078c-0.069,0.002-0.139,0.004-0.208,0.006c-0.337-0.21-0.67-0.428-1.006-0.64
		C123.562,54.988,123.761,54.951,123.96,54.915z M119.947,55.683c0.004,0.007,0.007,0.014,0.01,0.021
		c-0.01-0.006-0.02-0.012-0.029-0.018C119.935,55.686,119.941,55.684,119.947,55.683z M102.517,59.924
		c0.691,0.608,1.395,1.204,2.094,1.803c-1.286-0.778-2.572-1.559-3.857-2.339c0.456,0.001,0.912-0.004,1.368-0.005
		C102.266,59.63,102.405,59.826,102.517,59.924z M44.466,49.301c-0.028-0.038-0.056-0.076-0.084-0.113
		c0.024,0.006,0.048,0.012,0.072,0.019C44.458,49.238,44.461,49.269,44.466,49.301z M42.507,54.113
		c-0.387-0.146-0.776-0.284-1.165-0.427c0.59,0.146,1.182,0.286,1.772,0.43C42.911,54.115,42.709,54.113,42.507,54.113z
		 M35.563,54.233c-0.365,0.014-0.729,0.02-1.094,0.036c-0.274,0.012,0.416,0.789,1.269,1.558c-1.401-0.934-2.811-1.857-4.226-2.769
		C32.866,53.438,34.216,53.829,35.563,54.233z M33.289,58.008c0.42,0.489,0.831,0.986,1.258,1.468
		c-0.591,0.062-1.182,0.133-1.773,0.203c-0.777-0.512-1.557-1.021-2.344-1.517c-0.593-0.374,1.876,2.588,2.486,3.062
		c0.081,0.062,0.164,0.122,0.244,0.184c0.627,0.536,1.264,1.012,1.384,1.075c0.041,0.021,0.082,0.04,0.123,0.062
		c0.337,0.257,0.676,0.511,1.014,0.765c0.04,0.488,0.091,0.974,0.147,1.458c-0.12,0.003-0.238,0-0.358,0.004
		c-0.372,0.011-0.019,0.487,0.492,1.014c0.084,0.6,0.178,1.197,0.284,1.794c-4.266-5.01-8.388-10.144-12.332-15.422
		C27.083,54.039,30.205,55.994,33.289,58.008z M53.523,95.401c3.575,1.501,7.255,2.693,11.186,3.178
		c1.777,0.219-0.111-3.476-0.563-3.882c-1.443-1.295-2.912-2.562-4.395-3.812c1.748,0.203,3.502,0.365,5.263,0.482
		c1.663,1.13,3.338,2.237,5.03,3.315c-0.858,0.026-1.717,0.05-2.575,0.088c-0.389,0.017,2.53,2.994,3.724,3.08
		c1.487,0.107,2.973,0.185,4.459,0.242c2.339,1.349,4.72,2.627,7.159,3.807c-8.523-0.672-17.107-1.508-25.51-3.072
		C56.1,97.603,54.841,96.461,53.523,95.401z M103.648,77.153c0.17-0.021,0.34-0.044,0.51-0.064
		c6.131,3.487,12.268,6.966,18.472,10.318c-0.931,0.365-1.868,0.715-2.812,1.046C114.576,84.485,109.096,80.841,103.648,77.153z
		 M126.475,83.297c1.02,0.343,2.047,0.666,3.084,0.969c-0.438,0.227-0.875,0.457-1.317,0.674
		C127.656,84.388,127.064,83.844,126.475,83.297z M124.105,73.471c0.202,0.032,0.399,0.079,0.604,0.108
		c0.314,0.046,0.508-0.033,0.622-0.187c1.749,1.325,3.501,2.646,5.249,3.971C128.422,76.065,126.264,74.767,124.105,73.471z
		 M164.77,57.852c-0.232-0.292-0.468-0.58-0.701-0.871c0.234-0.562,0.463-1.126,0.687-1.692
		C164.762,56.143,164.765,56.997,164.77,57.852z M160.074,49.239c-0.269,0.948-0.536,1.894-0.785,2.844
		c-0.248-0.309-0.505-0.607-0.748-0.922c-1.769-2.289-2.829-0.261-1.778,1.736c0.296,0.562,0.61,1.115,0.926,1.668
		c0.046,0.415,0.098,0.829,0.168,1.24c-0.696,0.012-1.445-0.008-2.132-0.041c-0.858-0.77-1.769-1.484-2.796-2.103
		c-0.32-0.193-0.479-0.149-0.222,0.218c0.411,0.585,0.81,1.178,1.212,1.768c-0.173-0.015-0.318-0.027-0.399-0.036
		c-0.443-0.045-0.885-0.109-1.327-0.164c-1.117-1.12-2.274-2.204-3.478-3.25c1.615-0.245,3.236-0.457,4.868-0.604
		c-0.271-0.276-0.543-0.553-0.814-0.829C155.188,50.057,157.599,49.504,160.074,49.239z M135.788,49.039
		c-6.928,1.427-13.964,2.367-20.875,3.834C115.253,50.23,126.163,49.262,135.788,49.039z M80.125,58.807
		c-0.305-0.047-0.608-0.1-0.912-0.148c0.272,0.017,0.544,0.031,0.817,0.047C80.062,58.739,80.093,58.773,80.125,58.807z
		 M57.237,54.552c-0.9-0.192-1.799-0.389-2.699-0.586c-1.844-1.143-3.682-2.297-5.507-3.471c3.701,1.167,7.297,2.596,10.823,4.198
		C58.982,54.644,58.109,54.598,57.237,54.552z M138.583,86.648c0.696,4.336-0.499,4.121-3.446,1.576
		c-0.508-0.438-1.539-1.149-0.7-0.022c0.37,0.497,0.761,0.96,1.163,1.406c-0.324-0.107-0.653-0.164-1.021-0.081
		c-0.041,0.009,2.336,2.702,3.179,3.407c-4.223-0.228-8.443-0.254-12.662-0.161c-0.121-0.178-0.242-0.329-0.361-0.428
		c-0.356-0.297-0.721-0.583-1.08-0.875c1.296-0.455,2.578-0.947,3.852-1.467c1.604,0.841,3.209,1.68,4.826,2.495
		c2.008,1.012,0.35-3.271-0.187-3.802c-0.176-0.174-0.358-0.341-0.534-0.515c1.263-0.604,2.517-1.231,3.75-1.914
		c0.308-0.17-0.635-1.106-0.692-1.158c-1.154-1.03-2.362-1.973-3.643-2.808c-0.19-0.467-0.42-0.91-0.613-1.226
		c3.031,1.822,6.058,3.651,9.085,5.481c-0.316-0.025-0.626-0.04-0.919-0.031C138.58,86.567,138.582,86.608,138.583,86.648z
		 M149.278,87.169c-0.427,0.21-0.897,0.334-1.394,0.405c-6.519-5.802-13.496-11.033-20.449-16.293
		c8.186,4.688,16.473,9.207,24.583,14.03C151.203,86.035,150.3,86.665,149.278,87.169z"/>
	<g>
		<g>
			<path fill="#282828" d="M169.033,25.831c-0.269,6.063-7.855,9.338-12.576,11.332c-10.77,4.55-22.753,6.458-34.268,7.932
				c-28.716,3.675-58.897,3.186-87.327-2.461c-8.168-1.623-22.067-3.599-26.675-11.565c-3.118-5.39,3.521-9.958,7.473-12.129
				c9.266-5.093,20.419-7.144,30.722-8.846c14.5-2.396,29.262-3.2,43.942-3.243c17.162-0.05,34.45,1.231,51.299,4.578
				c6.746,1.34,13.566,3.082,19.871,5.88C164.954,18.843,168.85,21.688,169.033,25.831c0.051,1.16,4.366,1.929,4.387,2.398
				c-0.221-5-5.608-8.162-9.501-10.302c-7.407-4.071-15.473-6.489-23.684-8.35c-28.104-6.368-58.264-6.503-86.793-3.439
				c-11.385,1.223-22.843,3.188-33.722,6.83c-5.64,1.889-13.882,4.818-16.306,10.887c-1.863,4.666,3.223,8.67,6.625,10.777
				c6.802,4.212,14.271,6.856,21.992,8.847c29.221,7.536,61.186,7.646,91.013,4.442c12.098-1.299,24.365-3.383,35.823-7.583
				c5.174-1.896,14.259-5.459,14.553-12.109C173.467,27.174,169.019,26.162,169.033,25.831z"/>
		</g>
	</g>
	<g>
		<g>
			<path fill="#282828" d="M170.425,31.616c0,17,0,34,0,51c0,1.213,2.812,4.926,2.812,3.389c0-17,0-34,0-51
				C173.237,33.791,170.425,30.079,170.425,31.616L170.425,31.616z"/>
		</g>
	</g>
	<g>
		<g>
			<path fill="#282828" d="M5.572,37.528c4.896,18.376,3.935,37.646,2.897,56.445c-0.141,2.546,4.559,3.667,4.724,0.674
				c1.061-19.216,1.9-38.779-3.103-57.556C9.418,34.57,4.758,34.473,5.572,37.528L5.572,37.528z"/>
		</g>
	</g>
	<g>
		<g>
			<path fill="#282828" d="M10.494,100.062c28.236,4.139,55.466,12.65,84.279,11.92c27.129-0.688,51.872-10.011,75.888-21.968
				c0.271-0.135-2.54-3.965-3.658-3.408c-24.043,11.971-48.463,20.904-75.556,21.873c-28.748,1.028-56.122-7.794-84.278-11.921
				C7.109,96.55,9.131,99.862,10.494,100.062L10.494,100.062z"/>
		</g>
	</g>
</g>
</svg>
