<?xml version="1.0" encoding="utf-8"?>
<!-- Generator: Adobe Illustrator 16.0.0, SVG Export Plug-In . SVG Version: 6.00 Build 0)  -->
<!DOCTYPE svg PUBLIC "-//W3C//DTD SVG 1.1//EN" "http://www.w3.org/Graphics/SVG/1.1/DTD/svg11.dtd">
<svg version="1.1" id="Capa_1" xmlns="http://www.w3.org/2000/svg" xmlns:xlink="http://www.w3.org/1999/xlink" x="0px" y="0px"
	 width="1088.181px" height="620.123px" viewBox="0 0 1088.181 620.123" enable-background="new 0 0 1088.181 620.123"
	 xml:space="preserve">
<path fill="#FFCC00" d="M1075.479,561.704c-6.195,0.853-12.404,1.77-18.621,2.699c-0.182-0.488-0.361-0.978-0.541-1.467
	c2.118-5.802,3.853-11.756,5.253-17.757c2.007,1.122,6.084,2.861,5.063-0.952c-1.405-5.253-2.583-10.595-3.711-15.948
	c0.521-0.674,1.046-1.346,1.561-2.025c1.072-1.418-0.736-4.354-3.474-7.118c-2.233-10.576-4.673-21.024-8.672-30.759
	c-3.663-18.233-6.346-36.657-7.831-55.189c-1.235-15.419-1.66-31.312-0.549-47.065c5.124-22.059,11.163-43.868,16.318-65.146
	c0.527-2.179-3.627-6.417-7.781-9.376c3.896-23.549,8.28-47.014,12.86-70.441c5.032-8.036,7.983-17.255,7.91-26.636
	c0.829-0.658,1.645-1.328,2.48-1.979c5.849-4.56,2.102-14.054-3.512-17.111c-0.332-5.381-4.892-11.874-10.169-11.726
	c-1.85,0.052-3.698,0.131-5.547,0.192c-2.75-3.818-7.305-6.368-11.061-4.113c-1.056-0.438-2.195-0.644-3.393-0.523
	c-16.294,1.64-32.626,3.536-48.981,5.083c-3.739-0.222-7.48-0.342-11.224-0.371c-1.683-1.693-3.896-2.731-6.461-2.489
	c-9.072,0.855-18.184,1.081-27.294,1.287c-28.768-10.223-60.094-12.066-90.485-11.333c-32.642,0.788-65.035,5.028-97.442,8.747
	c-4.755-0.281-9.513-0.524-14.278-0.672c-10.581-0.327-21.335-0.299-32.037,0.418c-0.67-0.242-1.23-0.361-1.627-0.32
	c-2.212,0.231-4.426,0.579-6.637,1.019c-2.53,0.262-5.055,0.565-7.569,0.92c1.031-2.312-10.806-14.92-15.467-12.679
	c-8.856,4.259-17.669,8.609-26.46,13.003c1.162-2.472,1.893-5.01,1.952-7.567c0.065-2.795-4.752-8.14-9.276-10.838
	c-0.312-4.877-0.529-9.917-0.756-15.048c1.979-0.991,3.302-2.761,3.081-5.568c-0.859-10.928-2.028-21.822-3.498-32.672
	c0.517-0.636,1.022-1.279,1.545-1.911c2.483-3.048,0.717-5.872-2.691-6.013c-0.896-6.01-1.888-12.005-2.966-17.986
	c2.76-3.013,5.416-6.103,7.879-9.334c1.673-2.195,1.73-5.296-1.466-5.906c-2.816-0.538-6.265,0.508-8.937,2.077
	c-0.059-0.289-0.115-0.577-0.174-0.866c0.562-0.658,1.131-1.309,1.688-1.972c1.588-1.893,1.642-4.579-0.494-5.593
	c4.5-2.574,9.035-5.088,13.604-7.536c1.162-0.623-2.18-5.425-6.235-9.07c0.943-0.943,1.887-1.885,2.829-2.828
	c1.552-1.552,4.255-5.249,1.383-7.017c-3.741-2.305-9.37,0.922-12.411,2.962c-3.722,2.497-7.387,5.073-11.032,7.678
	c-0.077-0.018-0.14-0.043-0.221-0.059c-4.47-0.854-9.774,2.032-12.826,5.072c-3.18,3.168-6.431,6.37-9.76,9.532
	c-2.388,1.508-4.762,3.039-7.123,4.588c-0.013,0-0.025,0-0.038-0.001c14.036-15.009,29.367-28.833,45.727-41.174
	c1.889-1.424,5.738-4.8,4.176-7.64c-1.503-2.731-6.563-1.554-8.688-0.56c-10.642,4.977-20.732,10.919-30.67,17.124
	c-0.505-0.447-1.026-0.881-1.558-1.299c0.396-0.319,0.789-0.641,1.186-0.958c1.85-1.485,5.761-4.758,4.175-7.64
	c-1.923-3.493-8.787-0.896-11.101,0.57c-0.75,0.476-1.487,0.966-2.229,1.452c-0.006-0.006-0.012-0.012-0.018-0.018
	c-0.062,0.05-0.125,0.102-0.188,0.153c-3.657,2.404-7.212,4.929-10.679,7.555c-3.634-4.102-9.297-8.484-12.174-6.914
	c-9.254,5.052-17.986,10.913-26.312,17.33c-2.948,2.07-5.882,4.161-8.808,6.264c2.312-2.341,4.64-4.671,6.967-6.999
	c1.552-1.552,4.255-5.249,1.383-7.017c-3.65-2.249-9.49,0.82-12.411,2.962c-3.151,2.312-6.24,4.704-9.293,7.142
	c7.564-6.621,15.145-13.152,22.908-19.284c1.86-1.469,5.756-4.769,4.176-7.64c-1.524-2.769-6.531-1.498-8.688-0.56
	c-4.329,1.883-8.574,3.939-12.747,6.133c-0.684-0.343-1.603-0.527-2.785-0.501c-3.034,0.067-5.974,0.414-8.844,0.97
	c0.094-0.988-0.203-1.94-1.204-2.556c-3.007-1.852-7.439,0.149-10.165,1.528c-4.706,2.382-9.304,4.951-13.824,7.649
	c0.734-1.195,1.155-2.548,0.48-3.775c-1.509-2.742-6.554-1.538-8.688-0.56c-0.327,0.15-0.651,0.307-0.978,0.458
	c0.988-1.388,1.543-2.953,0.778-4.343c-1.969-3.577-8.711-0.775-11.101,0.57c-3.734,2.103-7.417,4.441-11.089,6.871
	c-2.196-0.107-4.394-0.192-6.592-0.242c0.144-0.372,0.233-0.75,0.257-1.128c1.45-0.958,2.902-1.913,4.349-2.876
	c1.957-1.302,5.692-4.883,4.175-7.64c-1.958-3.557-8.729-0.805-11.101,0.57c-2.711,1.572-5.371,3.228-7.988,4.946
	c-3.736-1.89-9.09,1.182-12.036,3.154c-1.764,1.181-3.518,2.378-5.267,3.581c-4.47,0.262-8.937,0.584-13.397,0.948
	c0.299-0.499,0.603-0.992,0.885-1.507c3.521-6.421-9.082-3.503-11.086-2.233c-2.733,1.731-5.412,3.537-8.067,5.375
	c-0.926,0.086-1.853,0.166-2.78,0.248c0.175-1.035-0.091-2.018-1.209-2.706c-3.004-1.85-7.444,0.145-10.166,1.528
	c-1.566,0.796-3.105,1.628-4.632,2.479c-0.495,0.037-0.99,0.074-1.484,0.11c1.377-1.482,2.484-3.312,1.817-5.019
	c0.291-0.861,0.308-1.742-0.156-2.585c-1.576-2.863-6.458-1.359-8.688-0.56c-8.312,2.979-16.298,6.524-24.063,10.457
	c-2.316,0.185-4.632,0.377-6.948,0.579c0.067-0.545-0.006-1.069-0.261-1.542c1.561-1.178,3.121-2.35,4.674-3.517
	c1.904-1.43,4.452-3.704,4.484-6.337c0.042-3.362-4.529-3.08-6.669-2.585c-10.645,2.462-20.625,6.315-30.177,11.061
	c2.59-2.632,5.112-5.347,7.552-8.163c1.859-2.146,4.632-6.651-0.059-7.547c-4.649-0.888-9.535,2.156-12.826,5.072
	c-8.542,7.57-17.296,14.882-26.16,22.063c-0.217,0.046-0.434,0.096-0.652,0.143c4.996-5.922,10.224-11.666,15.252-17.509
	c1.414-1.644,4.351-5.189,1.383-7.017c-3.009-1.853-7.438,0.151-10.166,1.528c-7.684,3.879-15.115,8.152-22.383,12.682
	c1.232-1.458,2.46-2.921,3.684-4.39c1.222-1.467,1.946-4.163-0.024-5.376c-2.283-1.406-5.479-0.393-7.753,0.398
	c-3.039,1.057-5.979,2.292-8.827,3.683c-0.544-3.385-8.359-2.158-11.363-0.331c-1.721,1.047-3.455,2.07-5.187,3.096
	c-0.93-0.71-2.32-0.938-3.489-0.816c-10.481,1.101-20.26,4.273-29.724,8.512c0.344-0.669,0.69-1.336,1.026-2.013
	c0.692-0.57,1.378-1.147,2.076-1.709c1.848-1.489,5.763-4.754,4.175-7.64c-1.061-1.928-3.418-1.999-5.767-1.46
	c0.404-0.46,0.825-0.906,1.226-1.37c1.418-1.64,4.348-5.191,1.383-7.017c-3.676-2.264-9.457,0.848-12.411,2.962
	c-0.028,0.02-0.056,0.04-0.083,0.06c-0.254,0.027-0.508,0.065-0.762,0.126c-9.183,2.185-17.797,5.459-25.956,9.554
	c0.649-1.691,0.374-2.756-0.452-3.367c1.938-3.193,0.135-5.523-3.621-5.527c-7.041-0.008-14.08-0.113-21.118-0.253
	c5.219-6.117,10.444-12.162,15.539-18.179c1.813-2.141,1.624-5.316-1.466-5.906c-3.598-0.687-8.257,1.209-10.969,3.492
	c-7.476,6.293-14.417,13.097-21.087,20.16c-1.425-0.041-2.85-0.083-4.274-0.125c1.495-2.164,2.999-4.322,4.463-6.509
	c2.221-3.318,0.812-6.225-3.31-6.013c-4.752,0.244-9.522,3.115-12.39,6.819c-1.343,1.735-2.667,3.486-3.982,5.245
	c-11.41-0.347-22.821-0.673-34.234-0.838c-13.959-5.25-28.066-9.904-43.106-11.12c-3.989-0.322-7.771,1.131-10.969,3.492
	c-1.578,1.165-6.094,5.128-4.175,7.64c3.299,4.319,6.904,8.344,10.747,12.112c-0.274-0.166-0.554-0.324-0.827-0.491
	c-4.478-2.751-20.275,4.755-16.586,10.602c3.567,5.654,7.394,11.114,11.369,16.462c0.885,2.654,1.784,5.305,2.706,7.946
	c-0.19,0.952-0.199,1.954,0.026,2.944c6.595,29.024,8.838,58.824,15.333,87.865c0.023,0.917,0.045,1.834,0.063,2.751
	c-1.424,1.292-2.468,2.61-2.815,3.672c-8.576,26.243-11.049,55.321-8.428,83.024c-6.367,5.972-12.757,11.858-19.342,17.379
	c-2.664,2.233,11.278,16.09,15.253,12.936c2.458-1.95,4.894-3.926,7.332-5.899c0.111,3.953,0.25,7.9,0.417,11.84
	c0.172,4.046,4.819,3.567,9.332,1.528c1.002,1.014,2.128,2.001,3.285,2.888c-0.111,0.658-0.213,1.32-0.301,1.985
	c-0.14,1.064,0.309,2.263,1.12,3.485C30.3,307.101,17.447,319.078,4.785,331.095c-2.984,2.832,11.171,14.996,15.253,12.936
	c13.01-6.565,25.347-14.302,37.18-22.784c0.461,0.784,0.992,1.519,1.578,2.175c0.571,0.639,1.397,1.351,2.349,1.979
	c-19.616,19.618-39.947,38.53-60.804,56.806c-2.697,2.363,11.396,16.112,15.253,12.936c4.358-3.589,8.719-7.177,13.081-10.762
	c-2.764,3.695-5.533,7.375-8.313,11.027c-2.823,3.605-5.626,7.228-8.401,10.87c-5.173,6.792,3.525,18.057,10.542,16.232
	c-1.169,2.324-2.297,4.675-3.39,7.047c-1.807,1.263-3.616,2.521-5.439,3.761c-0.876,0.596,0.025,2.479,1.751,4.652
	c-0.78,1.903-1.536,3.822-2.263,5.758c-3.072,8.18,8.366,19.641,15.256,11.787c4.357-4.967,8.558-10.104,12.661-15.35
	c1.469-0.809,2.927-1.636,4.374-2.48c-4.665,9.11-8.838,18.489-12.291,28.266c-0.553,1.566-0.51,3.334-0.048,5.087
	c-6.537,5.879-13.022,11.818-19.439,17.836c-1.965,1.843,3.679,7.815,8.656,11.131c-0.803,1.099-1.269,2.228-1.21,3.301
	c1.308,24.271,0.841,48.467-2.46,72.34c-5.685,13.038-9.073,26.83-8.651,40.993c0.231,7.746,16.512-1.054,17.815-5.537
	c3.032-10.432,5.403-20.943,7.232-31.516c1.04,6.092,7.63,11.723,14.023,8.515c2.814-1.412,5.618-2.85,8.413-4.305
	c0.542,2.372,1.881,4.777,3.734,6.632c0.158,1.182,1.134,1.775,2.517,1.961c1.072,0.625,2.234,1.067,3.459,1.254
	c3.47,0.528,6.969,0.79,10.481,0.837c1.325,4.341,5.017,8.253,9.519,8.052c4.145-0.186,8.289-0.409,12.432-0.647
	c0.768,4.759,4.541,9.552,9.79,9.536c35.121-0.108,69.613-5.896,104.111-11.697c3.069-0.264,6.139-0.507,9.21-0.723
	c1.313,0.816,2.812,1.31,4.457,1.31c14.108-0.002,28.176-0.228,42.142-2.441c2.159-0.342,3.552-1.328,4.348-2.671
	c10.439-1.555,20.869-3.225,31.308-4.698c1.711,1.88,3.993,3.152,6.647,3.144c14.322-0.049,28.675-1.061,42.878-3.063
	c11.789-1.101,23.56-2.388,35.317-3.803c-0.906,2.372-0.712,5.162,0.89,7.194c3.333,4.229,9.322,3.535,13.508,1.244
	c7.719-4.225,15.329-8.662,22.838-13.274c2.388-0.328,4.775-0.66,7.162-0.993c-2.077,7.133,7.05,11.809,14.445,7.601
	c7.61-4.33,15.023-8.967,22.312-13.794c0.591,0.032,1.196,0.021,1.812-0.052c1.144,4.783,5.427,9.784,9.95,10.052
	c18.017,1.064,35.74-1.254,53.312-4.744c21.298,1.583,42.613,0.717,63.929-0.712c0.037,0.106,0.069,0.219,0.109,0.321
	c1.884,4.807,6.333,7.827,11.458,7.138c0.404-0.055,0.808-0.112,1.211-0.167c1.414,5.536,6.923,11.047,12.123,9.057
	c6.089-2.331,11.945-5.044,17.637-8.032c1.582-0.611,3.175-1.198,4.779-1.757c-0.675,0.88-1.362,1.749-2.021,2.644
	c-5.223,7.086,2.789,17.3,10.716,16.034c17.791-2.843,34.341-11.38,49.659-21.441c1.43,4.154,6.294,6.896,11.722,4.402
	c3.773-1.733,7.488-3.574,11.161-5.487c1.58,0.664,3.353,0.841,5.236,0.304c3.035-0.866,6.031-1.833,8.995-2.878
	c-0.65,0.687-1.302,1.373-1.949,2.061c-5.393,5.721-0.944,15.167,7.288,13.288c17.438-3.98,33.689-10.521,49.171-18.672
	c-0.46,2.358,0.07,4.877,1.249,7.069c-9.314,6.147-18.442,12.552-27.242,19.402c-8.481,6.603,1.771,21.334,11.113,16.629
	c23.021-11.597,44.845-25.668,65.335-41.507c5.554,0.244,11.108,0.43,16.665,0.538c-0.449,0.454-0.891,0.916-1.342,1.369
	c-3.713,3.729-1.171,10.421,3.008,14.073c-1.525,7.197,7.59,17.461,14.111,12.192c7.696-6.22,14.911-12.982,21.744-20.118
	c3.391-2.168,6.771-4.352,10.137-6.556c2.607,0.204,5.395-0.599,7.724-1.767c0.417-0.209,0.832-0.425,1.249-0.635
	c0.309-0.011,0.617-0.019,0.925-0.029c0.655,4.381,3.417,8.938,7.47,9.797c36.915,7.816,73.549,4.677,110.204-0.316
	c5.318,0.716,10.612,1.122,15.875,0.99c0.544,0.493,1.079,0.995,1.638,1.476c1.042,0.896,11.523,7.943,9.479,2.175
	c-0.534-1.507-1.079-3.019-1.629-4.531c6.611-1.112,13.161-3.331,19.63-7.151C1093.652,573.885,1083.577,560.59,1075.479,561.704z
	 M243.1,65.402c0.03,0.073,0.065,0.14,0.097,0.211c-0.148,0.012-0.296,0.025-0.444,0.037
	C242.869,65.567,242.984,65.484,243.1,65.402z M393.186,52.051c0.094,0.062,0.179,0.126,0.289,0.181
	c0.156,0.078,0.312,0.156,0.467,0.233c-1.12,0.585-2.236,1.179-3.347,1.78c-0.271,0.027-0.541,0.054-0.811,0.081
	C390.921,53.578,392.055,52.818,393.186,52.051z M482.32,54.788c-2.401,2.182-4.822,4.344-7.248,6.501
	c-0.562-0.344-1.115-0.642-1.65-0.89c1.954-1.371,3.91-2.74,5.868-4.104C480.305,55.803,481.316,55.301,482.32,54.788z
	 M707.626,551.311c-0.039,0.004-0.077,0.008-0.116,0.012c0.795-0.796,1.592-1.589,2.381-2.39
	c7.88-5.632,15.634-11.425,23.297-17.335c0.925,1.157,2.085,2.374,3.352,3.512c-3.363,2.71-6.731,5.409-10.12,8.077
	C720.258,546.18,713.995,548.917,707.626,551.311z M600.062,173.733c-2.753,0.815-5.477,1.71-8.174,2.67
	c0.493-0.422,0.995-0.832,1.483-1.26c1.313-1.154-0.812-4.28-3.858-7.224c5.347-2.662,10.793-5.065,16.333-7.115
	c0.856,1.09,1.725,2.169,2.609,3.232C605.706,167.31,602.917,170.55,600.062,173.733z M360.395,442.864
	c-0.45,0.309-0.9,0.617-1.351,0.926c1.374-1.183,2.748-2.364,4.122-3.545c-0.68,0.703-1.359,1.407-2.036,2.113
	C360.885,442.526,360.64,442.696,360.395,442.864z M362.611,251.167c3.241-2.679,6.454-5.393,9.643-8.133
	c-0.835,1.245-1.688,2.479-2.552,3.707C367.327,248.193,364.964,249.669,362.611,251.167z M259,153.074
	c0.001-0.001,0.002-0.002,0.004-0.003c0.001,0.007,0.004,0.013,0.006,0.02C259.006,153.084,259.003,153.079,259,153.074z
	 M259.671,154.213c0.156,0.144,0.331,0.267,0.523,0.37c-0.08,0.067-0.159,0.135-0.238,0.203
	C259.866,154.59,259.77,154.401,259.671,154.213z M281.036,150.952c0.45-0.023,0.901-0.048,1.352-0.073
	c-1.028,1.075-2.067,2.139-3.085,3.225c-0.665,0.709-1.542,1.686-2.103,2.754c-5.259,3.378-10.489,6.804-15.689,10.273
	C267.979,161.694,274.487,156.298,281.036,150.952z M359.586,167.646c0.561-0.046,1.12-0.076,1.68-0.105
	c-0.001,0.002-0.002,0.003-0.003,0.005c-2.241,1.248-4.508,2.46-6.799,3.627C356.169,169.995,357.879,168.822,359.586,167.646z
	 M200.349,205.552c8.737-7.605,17.396-15.305,26.016-23.046c0.112,3.048,0.019,6.088-0.261,9.117
	c-1.172,0.837-2.341,1.677-3.511,2.518c-7.899,4.616-15.6,9.466-23.189,14.55C199.95,207.758,200.249,206.687,200.349,205.552z
	 M323.928,193.618c0.19-0.05,0.38-0.103,0.571-0.154c-2.186,3.191-4.498,6.31-6.922,9.363c-2.713,2.41-5.398,4.856-8.056,7.336
	c-1.513-1.23-3.095-2.303-4.514-3.033C311.358,202.688,317.659,198.177,323.928,193.618z M422.87,284.52
	c-0.725-0.404-1.483-0.681-2.262-0.814c4.226-3.248,8.481-6.456,12.771-9.617c0.529,0.649,1.127,1.312,1.774,1.97
	C431.067,278.889,426.971,281.708,422.87,284.52z M220.587,482.958c-6.476,5.2-12.992,10.351-19.547,15.452
	c3.041-2.821,6.119-5.604,9.232-8.348C213.705,487.687,217.143,485.318,220.587,482.958z M112.541,147.826
	c0.613-1.115,1.226-2.23,1.839-3.345c5.505-4.8,10.991-9.621,16.573-14.292C124.969,136.197,118.79,142.041,112.541,147.826z
	 M87.237,166.657c-0.335,0.647-0.667,1.296-0.997,1.945c0.235-0.578,0.469-1.156,0.704-1.734
	C87.042,166.797,87.14,166.728,87.237,166.657z M243.082,264.588c-7.285,6.145-14.729,12.117-22.275,17.962
	c0.381-0.654,0.75-1.315,1.125-1.973C228.964,275.229,235.996,269.867,243.082,264.588z M896.313,445.601
	c-0.303-0.384-0.631-0.713-0.971-1.017c2.97-3.444,5.925-6.902,8.862-10.376c1.513,1.488,3.271,2.889,4.978,3.944
	c-3.835,4.025-7.651,8.068-11.451,12.126C897.84,448.651,897.421,447.007,896.313,445.601z M573.077,424.983
	c5.031-4.592,10.099-9.143,15.188-13.67c19.169-13.923,38.815-27.142,59.709-38.528c-0.278,0.247-0.561,0.49-0.84,0.736
	c-26.979,18.396-54.171,36.567-79.692,56.694C569.321,428.472,571.2,426.728,573.077,424.983z M846.705,228.476
	c0.585-0.581,0.624-1.365,0.286-2.26c0.704-0.364,1.409-0.725,2.116-1.083c2.492,0.192,4.987,0.359,7.483,0.5
	c-1.381,1.31-1.932,3.132-1.844,5.098c-10.731,6.002-21.314,12.271-31.808,18.704C831.2,242.89,839.167,235.962,846.705,228.476z
	 M860.765,369.853c-3.234,1.409-6.448,2.858-9.648,4.331c24.463-17.101,49.446-33.345,75.503-47.786
	c-4.461,4.837-9.045,9.548-13.653,14.167c-13.056,11.614-26.456,22.855-40.056,33.877
	C871.073,370.519,865.529,367.778,860.765,369.853z M980.819,333.681c-0.541-0.287-1.105-0.515-1.688-0.687
	c3.022-2.123,6.059-4.224,9.106-6.307C985.78,329.035,983.31,331.369,980.819,333.681z M907.373,387.214
	c3.592-3.142,7.116-6.352,10.592-9.609c6.251-4.524,12.472-9.097,18.683-13.681c3.243-1.37,6.514-2.656,9.809-3.853
	c-0.533,0.517-1.065,1.033-1.599,1.55c-3.822,2.979-7.596,6.031-11.325,9.147c-0.845-0.138-1.566-0.057-2.081,0.326
	c-8.64,6.42-17.205,12.935-25.72,19.517C906.296,389.492,906.842,388.358,907.373,387.214z M744.567,270.68
	c2.97-1.905,5.951-3.792,8.954-5.646c10.438-6.447,21.164-12.667,32.238-18.137c-3.28,3.688-6.303,7.621-9.034,11.817
	c-4.312,2.848-8.662,5.647-13.037,8.414c-3.702,1.102-7.381,2.275-11.034,3.527C750.003,270.255,747.281,270.31,744.567,270.68z
	 M588.066,522.125c7.565-5.924,15.175-11.98,23.06-17.6c-8.031,7.476-15.732,15.293-22.938,23.626c-2.626,0-5.251,0-7.877,0
	c0.004-0.006,0.008-0.011,0.012-0.017C582.921,526.142,585.5,524.133,588.066,522.125z M992.081,395.107
	c-4.633,2.228-9.191,4.574-13.684,7.025c0.021-1.749-0.461-3.488-1.306-5.079c5.798-5.888,11.594-11.778,17.377-17.681
	C993.563,384.615,992.757,389.86,992.081,395.107z M78.981,95.985c-0.743,0.294-1.475,0.625-2.19,1.01
	c-5.196,2.806-7.941,8.023-9.645,13.476c-0.022-1.658-0.035-3.318-0.036-4.981c0-3.073-0.878-6.177-2.675-8.604
	c1.213-0.783,2.334-1.66,3.306-2.531c0.691-0.619,1.369-1.253,2.053-1.88c0.774,0.303,1.672,0.436,2.521,0.393
	c3.988-0.205,7.766-2.308,10.691-4.927c0.045,0.019,0.09,0.036,0.136,0.055C81.698,90.63,80.305,93.291,78.981,95.985z
	 M150.26,300.7c0.342,0.187,0.677,0.355,1.007,0.51c-0.396,0.377-0.793,0.753-1.189,1.131
	C150.139,301.793,150.199,301.248,150.26,300.7z M553.685,437.21c1.459,0.623,2.997,0.842,4.491,0.472
	c-1.822,1.499-3.636,3.01-5.438,4.534c-3.653,1.273-7.283,2.592-10.879,3.977C545.805,443.205,549.746,440.208,553.685,437.21z
	 M65.365,155.237c0.014,0.029,0.028,0.057,0.042,0.085c-0.018,0.017-0.035,0.033-0.052,0.05
	C65.357,155.327,65.361,155.282,65.365,155.237z M122.393,319.125c3.403-4.399,6.739-8.837,9.977-13.331
	c-0.454,4.077-0.934,8.133-1.323,12.148c-0.077,0.8-0.152,1.607-0.226,2.416c-0.854,0.553-1.709,1.106-2.563,1.66
	C126.547,320.414,124.477,319.308,122.393,319.125z M588.298,380.693c3.542-2.102,7.068-4.228,10.585-6.371
	c-8.592,7.812-17.11,15.701-25.612,23.608c-6.94,5.056-13.808,10.199-20.625,15.364c0.072-0.119,0.145-0.237,0.217-0.356
	C564.919,402.463,576.761,391.749,588.298,380.693z M861.371,481.432c4.03-2.519,8.015-5.104,11.911-7.804
	c0.402,0.312,0.793,0.635,1.167,0.969c-0.488,0.496-0.98,0.989-1.468,1.488c-0.369,0.12-0.738,0.259-1.104,0.435
	c-3.871,1.861-7.684,3.823-11.453,5.856C860.741,482.063,861.054,481.747,861.371,481.432z M474.881,262.729
	c-0.79-0.566-1.579-1.084-2.338-1.529c17.007-12.358,33.603-25.251,49.323-39.283c1.066,0.733,2.11,1.351,3.059,1.8
	C507.613,235.892,490.865,248.887,474.881,262.729z M63.072,176.417c0.159,0.113,0.319,0.226,0.481,0.329
	c-0.27,0.683-0.538,1.367-0.806,2.051C62.859,178.003,62.965,177.209,63.072,176.417z M507.776,479.505
	c0.033,0.31,0.076,0.618,0.115,0.927c-3.039,2.54-6.08,5.079-9.125,7.607c-16.788,13.939-33.477,27.997-50.02,42.227
	c-7.153,5.185-14.469,10.251-22.028,14.893c10.309-11.876,20.898-23.536,30.052-36.253
	C473.425,498.424,490.34,488.446,507.776,479.505z M706.705,390.698c0.376-0.438,0.427-1.043,0.24-1.752
	c2.886-1.856,5.767-3.72,8.646-5.589c1.801,0.873,3.412,1.223,4.447,0.674c0.224-0.119,0.443-0.245,0.667-0.364
	c-5.146,3.679-10.294,7.355-15.438,11.037c-0.737,0.039-1.474,0.088-2.205,0.148C704.281,393.472,705.502,392.094,706.705,390.698z
	 M524.098,322.788c-1.883,1.451-3.775,2.89-5.671,4.322c0.257-0.925,0.499-1.854,0.735-2.785c11.913-9.112,23.84-18.2,35.898-27.077
	C545.072,306.263,534.579,314.71,524.098,322.788z M594.979,144.905c0.193,0.329,0.395,0.653,0.59,0.98
	c-1.506,0.511-3.003,1.057-4.496,1.62C592.375,146.639,593.677,145.772,594.979,144.905z M182.367,91.712
	c-0.064-0.496-0.158-0.988-0.281-1.474c0.608,0.03,1.215,0.056,1.823,0.083C183.396,90.786,182.879,91.248,182.367,91.712z
	 M126.727,554.387c4.102-3.3,8.119-6.684,12.082-10.044c2.353-1.994,4.672-4.029,6.994-6.061c-1.43,1.566-2.86,3.133-4.278,4.71
	c-1.454,1.618-4.323,5.207-1.383,7.018c0.674,0.415,1.42,0.646,2.205,0.739c-0.327,0.188-0.654,0.374-0.982,0.561
	C136.423,552.086,131.551,553.142,126.727,554.387z M398.335,552.272c-1.698,0.099-3.397,0.181-5.1,0.234
	c3.73-2.49,7.447-4.998,11.148-7.531C402.339,547.386,400.319,549.816,398.335,552.272z M670.642,233.342
	c-3.082,2.646-6.094,5.359-9.024,8.146c-2,0.762-4.006,1.507-6.014,2.244c0.243-0.326,0.479-0.658,0.721-0.986
	c4.488-3.21,9.064-6.309,13.685-9.354C670.22,233.375,670.432,233.362,670.642,233.342z M589.083,250.536
	c-26.084,16.535-50.938,34.994-75.61,53.754c4.896-4.376,9.818-8.72,14.953-12.751c16.56-13,33.57-25.392,50.32-38.136
	c2.345-0.741,4.702-1.438,7.076-2.08C586.823,251.052,587.924,250.79,589.083,250.536z M119.129,63.026
	c-0.501,0.06-1.002,0.119-1.499,0.179c-0.345,0.042-0.691,0.081-1.037,0.122c0.668-2.133,1.362-4.259,2.097-6.371
	c1.759,0.506,3.515,1.02,5.266,1.547C122.364,60.029,120.756,61.538,119.129,63.026z M1007.811,227.194
	c0.13-0.231,0.25-0.468,0.356-0.711c0.881-0.4,1.761-0.803,2.637-1.214C1009.803,225.906,1008.808,226.551,1007.811,227.194z
	 M297.816,60.92c-0.07-0.002-0.14-0.004-0.209-0.007c0.184-0.036,0.368-0.068,0.552-0.104
	C298.044,60.846,297.93,60.884,297.816,60.92z M207.468,68.989c-2.801,0.312-5.601,0.635-8.399,0.973
	c2.051-1.931,4.084-3.878,6.104-5.84c0.766-0.621,1.539-1.234,2.319-1.84c4.571-2.4,9.126-4.828,13.662-7.292
	C216.824,59.858,212.213,64.484,207.468,68.989z M79.361,46.095c2.054,0.611,4.115,1.202,6.178,1.785
	c-0.812,1.056-1.611,2.121-2.411,3.186c-2.436-1.121-4.852-2.294-7.245-3.522c-0.304-2.285-0.641-4.565-1.069-6.833
	c-0.01-0.053-0.027-0.097-0.038-0.149c0.814,0.311,1.629,0.62,2.444,0.927C76.406,43.372,76.625,45.282,79.361,46.095z
	 M209.745,563.871c3.734,3.752,9.662,7.593,11.731,7.199c6.805-1.296,13.395-3.361,19.794-5.955
	c-4.519,3.917-9.038,7.833-13.557,11.749c-11.878-0.362-23.745-0.263-35.604,0.137C198.142,572.838,204.013,568.432,209.745,563.871
	z M1045.437,516.853c-1.134-1.14-2.426-2.241-3.741-3.193c0.186-0.249,0.38-0.489,0.564-0.739c0.867-1.178,0.01-3.158-1.68-5.233
	c-0.188-1.229-0.36-2.46-0.517-3.691c0.577-0.617,0.367-1.703-0.36-3.001c-0.182-1.709-0.32-3.421-0.438-5.134
	c0.382-0.375,0.764-0.749,1.145-1.125c1.715,7.243,3.572,14.449,5.554,21.613C1045.789,516.517,1045.612,516.684,1045.437,516.853z
	 M1054.401,204.042c-0.802,0.646-1.604,1.294-2.402,1.944c0.334-0.647,0.666-1.293,1-1.939c0.477-0.043,0.953-0.092,1.43-0.138
	C1054.418,203.954,1054.411,203.998,1054.401,204.042z M63.274,40.375c-2.155-1.36-4.27-2.78-6.346-4.252
	c3.696,0.545,7.376,1.176,11.033,1.907C66.423,38.542,64.799,39.374,63.274,40.375z M58.626,249.322
	c-1.41,1.813-2.819,3.628-4.225,5.443c0.195-0.764,0.387-1.531,0.579-2.298C56.197,251.42,57.413,250.373,58.626,249.322z
	 M269.243,575.733c0.117,0.256,0.264,0.526,0.428,0.803c-0.987,0.146-1.975,0.29-2.962,0.435
	C267.556,576.56,268.4,576.148,269.243,575.733z M373.938,520.77c0.37,0.476,0.763,0.929,1.177,1.347
	c-3.54,2.088-7.125,4.152-10.759,6.138C367.555,525.766,370.749,523.271,373.938,520.77z M581.989,66.861
	c2.228-1.565,4.445-3.144,6.653-4.735c-1.407,1.48-2.802,2.971-4.186,4.474C583.633,66.681,582.811,66.766,581.989,66.861z
	 M321.068,560.899c7-0.825,13.738-2.355,20.28-4.42c-2.008,2.173-3.994,4.367-5.938,6.604c-5.921,0.844-11.826,1.851-17.709,3.064
	c-2.688,0.555-4.192,2.105-4.808,4.084c-1.998,0.248-3.995,0.504-5.991,0.773C311.652,567.675,316.373,564.303,321.068,560.899z
	 M794.324,555.208c-1.095-0.102-2.188-0.207-3.282-0.309c0.525-0.501,1.05-1.002,1.576-1.501c4.116-2.761,8.184-5.609,12.215-8.517
	c6.419-2.536,12.625-5.728,18.545-9.23c1.213-0.193,2.423-0.403,3.634-0.612c-5.188,3.734-10.312,7.557-15.316,11.539
	c-1.372,1.092-2.675,2.376-3.556,3.838c-2.771,1.802-5.572,3.566-8.4,5.286C797.933,555.54,796.128,555.375,794.324,555.208z
	 M1033.641,461.389c-0.261-0.206-0.576-0.447-0.929-0.707c0.048-1.282,0.106-2.564,0.173-3.847
	C1033.125,458.355,1033.385,459.872,1033.641,461.389z M442.091,47.852c0.526-0.439,1.055-0.875,1.585-1.309
	c0.266-0.012,0.532-0.018,0.798-0.029C443.684,46.969,442.889,47.416,442.091,47.852z M36.007,573.78
	c0.128-0.839,0.25-1.679,0.372-2.519c0.937-2.111,1.938-4.2,2.998-6.264c0.032,1.46,0.413,2.945,1.107,4.372
	c-0.84,0.7-1.68,1.401-2.52,2.102C37.127,572.169,36.488,572.951,36.007,573.78z"/>
<g>
	<g>
		<path d="M6.566,15.213c18.229,49.194,17.701,103.448,14.551,155.084C17.89,223.224,9.987,275.899,9.087,328.96
			c-1.54,90.75-1.815,181.53-2.751,272.288c-0.038,3.68,16.625,4.406,16.595,1.518c-0.617-59.915-1.19-119.83-1.724-179.745
			c-0.272-30.54-0.625-61.077-1.007-91.615c-0.319-25.522,1.265-51.038,2.969-76.491c2.792-41.689,6.221-83.403,5.547-125.223
			c-0.623-38.714-4.867-78.14-19.389-114.328C9.074,14.736,6.487,14.999,6.566,15.213L6.566,15.213z"/>
	</g>
	<g>
		<path d="M5.075,20.332c57.047,10.924,115.886,8.237,173.619,6.607c63.157-1.782,126.355-1.045,189.533-1.381
			c95.411-0.506,190.83-1.646,286.242-1.125c0.553,0.003,7.985-0.18,6.201-2.287c-2.018-2.382-7.539-2.58-10.318-2.564
			c-131.107,0.741-262.209,2.484-393.317,2.997c-41.472,0.162-82.838,1.777-124.288,2.904c-42.102,1.145-84.739,1.17-126.333-6.245
			C4.701,18.934,1.919,19.728,5.075,20.332L5.075,20.332z"/>
	</g>
	<g>
		<path d="M648.753,26.321c-0.785,24.779-2.435,49.516-2.984,74.308c-0.294,13.263-0.459,26.571,0.308,39.822
			c0.249,4.314,0.654,8.65,1.268,12.928c0.464,3.241,2.056,4.978,4.805,6.569c0.678,0.392,5.896,0.828,5.237-0.117
			c-0.656-0.941,0.423-1.162,0.338-2.081c-0.131-1.428-0.907-3.211-1.319-4.598c-1.299-4.371-1.627-9.103-2.073-13.621
			c-1.296-13.098-1.667-26.296-1.97-39.447c-0.565-24.496-0.021-49.011-0.737-73.502C651.606,25.955,648.77,25.803,648.753,26.321
			L648.753,26.321z"/>
	</g>
	<g>
		<path d="M18.601,175.73c60.223,12.227,122.314,1.083,182.94-1.187c69.714-2.609,139.424-5.427,209.144-7.895
			c69.643-2.465,139.307-3.712,208.985-2.124c69.042,1.575,138.023,5.109,206.94,9.462c42.452,2.682,84.882,5.705,127.309,8.757
			c19.962,1.436,39.762,2.795,59.789,2.277c19.34-0.5,38.661-2.435,57.783-5.326c3.04-0.46,3.073-2.155,0.291-3.187
			c-3.641-1.351-7.961-1.66-11.783-1.078c-31.046,4.731-62.059,6.004-93.368,3.782c-34.205-2.427-68.412-4.825-102.629-7.083
			c-68.734-4.538-137.517-8.467-206.367-10.738c-138.656-4.572-276.882,2.681-415.376,8.513c-37.516,1.58-74.834,3.648-112.271,6.55
			c-36.708,2.846-74.004,5.348-110.433-1.503C18.333,174.722,16.36,175.275,18.601,175.73L18.601,175.73z"/>
	</g>
	<g>
		<path d="M1075.106,181.848c-9.38,48.873-16.391,98.508-21.909,147.959c-5.815,52.118-8.563,104.925-4.873,157.294
			c1.258,17.857,3.476,35.615,6.817,53.204c1.612,8.484,3.551,16.905,5.786,25.246c1.022,3.812,2.142,7.597,3.317,11.363
			c0.641,2.055,1.319,4.097,2.01,6.135c0.812,2.398,2.93,3.846,4.722,5.526c1.687,1.582,10.8,3.508,11.937,0.652
			c1.162-2.92,1.308-3.982,0.286-6.992c-0.838-2.468-1.622-4.953-2.389-7.443c-1.704-5.532-3.205-11.125-4.598-16.743
			c-2.804-11.315-4.966-22.785-6.751-34.303c-3.846-24.8-5.875-49.862-6.772-74.932c-1.901-53.047,0.416-106.131,4.646-159.018
			c2.879-35.992,7.521-71.735,11.271-107.629C1078.675,181.507,1075.246,181.12,1075.106,181.848L1075.106,181.848z"/>
	</g>
	<g>
		<path d="M14.492,601.418c66.084,17.403,133.845,8.738,200.908,3.79c34.418-2.539,68.916-4.231,103.357-6.461
			c34.581-2.238,69.165-4.451,103.772-6.244c59.755-3.095,119.439-4.24,179.264-3.201c33.936,0.59,67.876,0.93,101.815,1.173
			c84.397,0.604,168.829,0.692,253.214-1.047c26.745-0.551,53.498-1.249,80.212-2.677c15.965-0.853,32.515-1.319,48.2-4.682
			c3.089-0.662,3.46-2.246,0.312-3.414c-3.745-1.39-8.689-1.998-12.625-1.154c-3.392,0.727-6.832,1.207-10.272,1.633
			c-1.741,0.215,0.59-0.055-1.814,0.207c-1.129,0.123-2.26,0.236-3.391,0.347c-2.708,0.266-5.419,0.496-8.132,0.713
			c-13.399,1.069-26.833,1.712-40.263,2.264c-36.947,1.517-73.933,2.104-110.906,2.52c-83.185,0.934-166.391,0.668-249.575-0.261
			c-38.518-0.43-77.042-1.533-115.562-1.239c-69.544,0.53-138.992,4.672-208.375,9.134c-50.796,3.267-101.643,5.951-152.369,10.179
			c-49.55,4.13-99.933,7.879-148.598-4.844c-3.614-0.945-8.391-1.529-12.004-0.245C8.039,599.193,13.291,601.103,14.492,601.418
			L14.492,601.418z"/>
	</g>
</g>
</svg>
