<?xml version="1.0" encoding="utf-8"?>
<!-- Generator: Adobe Illustrator 16.0.0, SVG Export Plug-In . SVG Version: 6.00 Build 0)  -->
<!DOCTYPE svg PUBLIC "-//W3C//DTD SVG 1.1//EN" "http://www.w3.org/Graphics/SVG/1.1/DTD/svg11.dtd">
<svg version="1.1" id="Capa_1" xmlns="http://www.w3.org/2000/svg" xmlns:xlink="http://www.w3.org/1999/xlink" x="0px" y="0px"
	 width="707.433px" height="288.028px" viewBox="0 0 707.433 288.028" enable-background="new 0 0 707.433 288.028"
	 xml:space="preserve">
<path fill="#79AA3A" d="M693.626,39.562c-1.392-2.012-5.949-8.85-9.056-8.509c-39.929,4.377-79.994,5.2-120.092,5.245
	c-1.554-1.049-3.025-1.722-3.028-0.505c0,0.169-0.003,0.339-0.004,0.509c-11.783,0.002-23.568-0.057-35.354-0.107
	c-43.487-6.146-87.285-9.313-130.921-3.282c-4.6-0.233-9.2-0.465-13.8-0.691c-1.428-1.584-3.022-2.953-4.731-3.756
	c-38.103-17.91-82.942-11.405-123.124-5.852c-20.133,2.782-40.271,6.017-60.592,7.049c-2.104,0.107-4.241,0.192-6.396,0.247
	c-0.617-0.122-1.24-0.219-1.873-0.265c-0.706-0.052-1.207,0.034-1.577,0.203c-23.586-5.705-46.771-14.29-71.341-13.232
	c-6.192,0.267-12.337,1.398-18.302,3.041c-2.073,0.571-5.678,0.91-5.678,3.74c0,0.496-0.015,1.003-0.032,1.515
	c-2.013,0.202-4.013,0.556-5.919,0.993c-0.572,0.131-5.997,1.256-4.321,2.692c3.78,3.239,7.773,6.052,11.932,8.507
	c0.928,4.741,1.477,9.549,2.481,14.249c-1.462,0.236-2.926,0.461-4.388,0.704c-12.001,0-24.002,0-36.003,0
	c-3.054,0,1.441,6.666,1.942,7.39c1.727,2.496,5.554,8.243,9.056,8.509c7.233,0.55,14.468,0.997,21.704,1.396
	c-2.982,0.978-5.94,2.03-8.867,3.169c-0.436-0.331-0.978-0.578-1.641-0.69c-3.863-0.651-7.907,1.579-10.882,3.768
	c-0.311,0.229-0.609,0.463-0.908,0.697c-0.143-1.571-0.286-3.143-0.429-4.714c-0.694-7.634-17.955,1.189-17.955,7.507
	c0,3.528,0,7.057,0,10.585c-2.186-0.158-5.053,0.788-6.125,1.236c-3.1,1.297-7.865,4.242-8.727,8.002
	c-1.356,0.279-2.607,0.718-3.275,0.998c-3.406,1.425-8.892,4.864-8.876,9.181c0.116,32.396,5.679,64.335,12.001,96.01
	c0.924,4.628,6.94,3.349,11.758,0.266c-0.968,1.107-1.779,2.474-1.787,3.901c-0.008,1.391-0.016,2.782-0.024,4.173
	c-0.028,4.653,6.01,4.788,9.231,4.025c0.25-0.059,0.494-0.15,0.742-0.222c0.307,0.253,0.645,0.52,1.007,0.779
	c1.082,0.788,2.383,1.511,3.659,1.461c1.501-0.059,1.769-1.415,1.756-2.622c-0.002-0.247-0.006-0.494-0.008-0.742
	c1.488,1.313,3.464,2.252,5.22,2.839c0.847,2.112,2.614,3.253,4.732,3.611c1.564,1.143,3.551,1.881,5.615,2.176
	c0.816,0.485,1.762,0.776,2.775,0.903c1.16,0.368,2.355,0.526,3.545,0.49c1.903,1.037,4.512,1.316,7.112,0.938
	c1.054,0.129,2.163,0.127,3.275,0.002c2.753,4.137,9.283,6.582,14.147,4.024c2.989,1.519,5.85,1.434,6.918-1.734
	c0.047-0.14,0.092-0.28,0.139-0.419c0.328-0.137,0.616-0.315,0.854-0.542c0.96-0.92,1.921-1.84,2.882-2.76
	c3.316,5.155,9.807,10.424,11.327,8.445c0.344-0.449,0.692-0.894,1.037-1.343c0.812,0.332,1.629,0.616,2.435,0.841
	c1.987,1.412,3.672,2.031,4.226,1.175c0.156-0.241,0.312-0.482,0.469-0.723c0.163-0.026,0.322-0.057,0.476-0.095
	c0.13,0.14,0.258,0.281,0.393,0.416c2.083,2.086,7.843,5.421,11,3.136c3.817,2.498,9.179,3.385,12.322,0.606
	c0.066-0.059,0.133-0.117,0.199-0.175c0.518-0.001,1.048-0.029,1.586-0.089c-0.277,1.842,1.238,3.265,3.943,3.301
	c1.387,0.019,2.806-0.197,4.204-0.565c0.267,0.133,0.523,0.253,0.751,0.341c0.738,0.286,1.507,0.516,2.289,0.692
	c3.962,2.241,9.362,2.215,12.859-0.866c0.746-0.657,1.498-1.306,2.245-1.96c1.62,0.942,3.225,1.893,4.813,2.835
	c15.239,9.04,30.217,19.16,47.19,24.651c1.061,0.351,2.129,0.686,3.215,0.98c11.521,3.125,12.389-13.122,3.848-17.68
	c0.485,0,0.969,0,1.454,0c3.758,0,6.698-2.646,7.463-6.18c1.159,0.177,2.288,0.123,3.338-0.131c0.367,0.163,0.731,0.332,1.099,0.494
	c17.25,7.63,35.276,15.304,54.106,17.818c4.624,0.618,7.518-4.089,7.631-8.159c0.676-0.076,1.332-0.274,1.947-0.648
	c0.447,0.071,0.896,0.104,1.344,0.118c1.517,1.061,3.187,1.542,4.825,1.124c0.585,0.543,1.395,0.987,2.429,1.273
	c1.629,0.452,3.461,0.569,5.298,0.389c0.41,0.45,0.871,0.865,1.373,1.241c2.015,1.995,4.687,3.65,6.975,2.782
	c0.894,0.001,1.764-0.193,2.583-0.596c2.458,0.329,5.107-0.263,7.2-1.582c1.734-1.093,3.482-2.164,5.228-3.24
	c0.047,2.229,0.895,4.417,2.616,5.882c4.124,3.512,9.424,1.869,13.22-1.071c3.396,1.13,6.789,2.276,10.18,3.427
	c1.804,2.206,5.507,3.56,9.124,3.52c0.538,0.875,1.194,1.657,1.936,2.262c3.418,2.789,7.682,3.138,11.438,1.562
	c4.299,1.302,8.624,2.515,12.981,3.613c2.947,0.827,5.942,1.539,9.006,2.085c3.708,0.661,6.535-1.681,7.014-4.934
	c3.513-2.433,7.029-4.86,10.545-7.288c2.307,2.08,5.331,3.251,8.572,3.251c9.001,0,18.002,0,27.003,0c2.76,0,4.778-2.708,4.96-5.224
	c0.033-0.45,0.021-0.896-0.02-1.338c2.257-1.04,4.123-2.726,4.977-5.037c2.54-0.809,5.081-1.611,7.624-2.406
	c1.466,0.393,4.083,0.361,5.519,0.301c0.521,0.464,1.041,0.912,1.553,1.333c0.625,1.034,1.353,1.992,2.153,2.837
	c0.514,0.542,1.21,1.095,1.982,1.555c0.001,0.001,0.003,0.003,0.004,0.004c2.155,2.276,7.127,4.574,8.326-0.012
	c0.107-0.41,0.213-0.82,0.319-1.229c0.797,0.975,1.871,1.782,3.043,2.385c2.784,2.727,7.894,4.744,10.755,1.01
	c0.067-0.087,0.137-0.172,0.204-0.259c15.772-3.16,31.496-6.575,46.515-12.463c1.269-0.497,2.126-1.224,2.664-2.091
	c0.297,0.007,0.595,0.004,0.894-0.007c0.246,0.039,0.496,0.067,0.748,0.091c0.653,0.129,1.32,0.208,1.99,0.241
	c1.601,0.757,3.299,0.904,4.279-0.502c0.659-0.201,1.294-0.459,1.89-0.783c5.485,2.843,13.494,1.802,14.521-5.021
	c0.555-3.681,1.099-7.363,1.638-11.046c5.271,2.839,14.53,5.008,14.552,4.755c2.921-33.512,2.691-67.321-3.801-100.423
	c-0.226-1.15-2.689-2.905-5.731-4.55c-0.189-0.364-0.415-0.708-0.671-1.035c2.969-1.093,5.911-2.242,8.816-3.466
	c0.985,0.728,1.963,1.463,2.982,2.161c1.228,0.841,4.068,2.3,2.784-0.533c-0.524-1.157-1.07-2.3-1.625-3.437
	c1.963-0.892,3.904-1.825,5.823-2.805c0.717,6.688,1.282,13.386,1.719,20.091c-1.297,1.508-2.219,3.344-2.591,5.383
	c-3.557,19.492-4.276,39.233-3.353,58.954c-0.205,3.839-0.42,7.677-0.654,11.514c-0.127,2.074,0.774,3.475,2.242,4.32
	c1.896,3.14,7.151,3.548,10.246,2.496c0.877-0.298,1.702-0.685,2.467-1.144c2.908,0.041,5.444-1.449,6.985-3.696
	c2.27,0.214,4.516-0.714,5.703-2.52c0.722-0.531,1.251-1.304,1.513-2.356c1.771,1.014,3.635,1.271,3.838-1.607
	c0.037-0.521,0.07-1.044,0.105-1.565c0.158-0.092,0.314-0.185,0.463-0.285c1.294-0.365,2.535-0.897,3.638-1.578
	c0.195,0.091,0.39,0.184,0.59,0.262c3.621,1.415,7.063-0.249,8.085-3.615c2.872-0.796,5.002-2.425,5.019-4.888
	c0.573-0.453,1.044-0.998,1.368-1.646c0.287-0.075,0.449-0.197,0.451-0.371c0.008-0.555,0.021-1.109,0.028-1.664
	c0.562-1.095,0.874-2.34,0.822-3.729c-0.072-1.932-0.214-3.857-0.454-5.776c-0.035-0.279-0.091-0.548-0.158-0.81
	c0.404-16.049,1.188-32.083,2.354-48.09c5.084,1.885,10.857,2.671,10.835,1.744c-0.376-15.271-1.435-30.501-2.793-45.709
	c0.089-0.159,0.138-0.339,0.123-0.553c-0.398-5.902-1.188-11.759-1.863-17.635c-0.17-1.677-2.637-3.322-5.707-4.646
	c-5.107-2.427-11.885-4.107-12.585-2.568c-0.04,0.053-0.063,0.112-0.062,0.18c-0.489,3.651-0.952,7.305-1.402,10.96
	c-1.739-0.977-4.357-1.871-7.022-2.591c0.91-1.54-2.275-6.092-2.823-6.884c-1.352-1.954-3.963-5.845-6.71-7.607
	c-1.28-1.333-2.687-2.535-4.247-3.49c-0.315-0.193-0.636-0.375-0.954-0.565c-0.611-1.603-2.246-2.797-4.064-3.643
	c18.005-2.129,35.966-4.741,53.921-7.309C698.556,46.525,694.325,40.572,693.626,39.562z M193.823,224.109
	c0.812-0.869,1.625-1.737,2.437-2.606c0.994,2.48,4.213,4.538,7.775,5.465c0.038,1.229,0.292,2.408,0.731,3.507
	c-0.229,0-0.458,0-0.688,0C200.663,228.346,197.251,226.201,193.823,224.109z M83.422,79.844c-0.295,0.175-0.585,0.355-0.87,0.543
	c-2.645,0.359-5.277,0.805-7.894,1.374c-0.214-0.073-0.434-0.136-0.659-0.186c0.471-1.07,0.92-2.15,1.35-3.239
	C78.03,78.915,80.722,79.413,83.422,79.844z M148.856,32.719c0.396,0.473,0.806,0.932,1.231,1.375
	c-5.041-0.956-10.078-1.938-15.119-2.9C139.638,31.425,144.263,31.96,148.856,32.719z M57.369,201.263
	c-0.374,0.078-0.835,0.211-1.309,0.393c-0.113-0.087-0.237-0.163-0.36-0.24c1.359-0.207,2.722-0.591,3.843-1.071
	c0,0.23,0,0.461,0,0.691C58.811,201.048,58.082,201.115,57.369,201.263z M95.998,181.645c-1.626-2.208-5.668-2.928-7.937-2.831
	c0-0.037,0-0.074,0.001-0.11c2.171-1.853,4.326-3.725,6.471-5.611c1.235,1.955,2.477,3.905,3.723,5.852
	C97.499,179.841,96.752,180.746,95.998,181.645z M179.739,181.514c-0.008-0.038-0.011-0.074-0.02-0.112
	c0.035,0.006,0.07,0.011,0.106,0.017C179.796,181.451,179.768,181.483,179.739,181.514z M417.856,116.537
	c0.021,0.022,0.042,0.045,0.063,0.067c-0.026,0.02-0.053,0.04-0.079,0.06C417.846,116.621,417.852,116.579,417.856,116.537z
	 M298.453,86.736c0.473,0.003,0.946,0.007,1.42,0.009c-0.984,0.17-1.968,0.34-2.953,0.504
	C297.432,87.08,297.943,86.91,298.453,86.736z M173.153,124.582c-3.717-0.1-7.428-0.294-11.125-0.597
	c0.521-0.559,1.042-1.115,1.563-1.673C166.764,123.154,169.951,123.909,173.153,124.582z M452.095,173.21
	c-1.021,1.725-2.079,3.429-3.183,5.104c-2.073,0.84-4.146,1.682-6.219,2.525C445.808,178.277,448.943,175.736,452.095,173.21z
	 M109.368,122.327c-0.045,0.055-0.09,0.109-0.136,0.164c-0.072-0.101-0.143-0.203-0.215-0.303
	C109.134,122.235,109.251,122.281,109.368,122.327z M87.924,120.764c2.768,5.763,5.41,11.65,7.654,17.668
	c-0.104,0.009-0.208,0.009-0.312,0.022c-0.484-0.416-0.978-0.819-1.458-1.242c-1.033-1.793-2.073-3.581-3.132-5.358
	c-1.797-3.014-5.058-4.689-8.122-4.991c-0.046-0.554-0.099-1.107-0.146-1.661C84.231,123.704,86.071,122.226,87.924,120.764z
	 M88.246,164.513c0.179-0.221,0.356-0.443,0.535-0.664c0.092,0.15,0.185,0.3,0.277,0.451c-0.276,0.25-0.552,0.5-0.828,0.749
	C88.235,164.871,88.243,164.692,88.246,164.513z M229.329,188.453c-2.137,1.52-4.266,3.051-6.386,4.597
	c1.605-1.702,3.203-3.41,4.811-5.109C228.28,188.106,228.805,188.276,229.329,188.453z M311.894,204.439
	c0.692,0.449,1.567,0.626,2.515,0.629c-3.979,2.5-7.913,5.073-11.797,7.721C305.721,210.022,308.811,207.235,311.894,204.439z
	 M650.077,81.142c-1.86-1.476-4.34-2.207-6.724-2.182c-0.354-0.009-0.71,0.004-1.066,0.031c-1.643-0.026-3.162,0.289-4.35,1.01
	c-1.133-0.33-2.306-0.533-3.364-0.668c5.274-0.444,10.531-0.928,15.764-1.443C650.247,78.975,650.152,80.059,650.077,81.142z
	 M109.746,33.379c11.21,2,22.374,4.289,33.578,6.33c-0.127,0.021-0.253,0.043-0.38,0.064c-5.035,0-10.069,0-15.104,0
	c-2.028,0-4.218,0.088-6.388,0.36c-4.536-1.759-8.944-3.857-13.184-6.356C108.759,33.639,109.253,33.51,109.746,33.379z
	 M46.482,197.594c0-3.522,0-7.044,0-10.566c3.711,0.464,9.929-2.732,13.066-6.344c0,0.655,0,1.31,0,1.964
	c-3.095,4.328-6.076,8.744-8.896,13.283c-1.378,2.217-1.376,3.66-0.599,4.534c-0.637,0.061-1.242,0.158-1.771,0.283
	c-0.24,0.057-0.475,0.146-0.714,0.213c-0.483-0.399-1.051-0.84-1.664-1.226C46.269,199.001,46.482,198.278,46.482,197.594z
	 M102.134,43.33c3.34,1.34,6.75,2.511,10.218,3.52c-2.943,0.859-5.863,1.756-8.753,2.686c-0.114,0.017-0.228,0.034-0.342,0.051
	C102.794,47.502,102.358,45.413,102.134,43.33z"/>
<g>
	<g>
		<g>
			<path fill="#282828" d="M23.861,207.192c1.535-6.108,1.597-12.806,2.498-19.056c0.926-6.428,2.117-12.818,3.341-19.195
				c2.495-12.994,5.345-25.909,6.823-39.072c1.297-11.553,1.597-23.366-1.001-34.763c-1.136-4.983-3.077-9.733-5.61-14.162
				c-1.256-2.197-2.654-4.327-4.122-6.387c-1.889-2.651-6.409-0.781-9.148-0.056c-2.554,0.677-5.126,1.321-7.651,2.097
				c-3.759,1.155,1.777,5.708,2.652,6.717c3.584,4.136,5.875,9.692,7.603,14.813c3.661,10.851,3.883,22.681,3.403,34.004
				c-0.539,12.712-2.07,25.405-3.299,38.063c-0.604,6.219-1.128,12.444-1.482,18.683c-0.354,6.252-1.293,13.721,0.401,19.81
				C18.214,208.492,23.748,207.644,23.861,207.192L23.861,207.192z"/>
		</g>
	</g>
	<g>
		<g>
			<path fill="#282828" d="M21.633,86.035c4.473-5.724,10.628-9.454,17.298-12.128c1.139-0.457,2.303-0.854,3.466-1.244
				c3.628-1.214-4.921,1.133-1.199,0.288c2.259-0.513,4.546-0.897,6.835-1.25c4.72-0.728,9.49-1.116,14.256-1.375
				c20.234-1.096,40.608,0.903,60.688,3.239c49.464,5.754,98.896,11.422,148.459,16.356c55.857,5.56,111.8,10.323,167.865,13.215
				c28.017,1.445,56.06,2.362,84.112,2.699c27.91,0.335,55.767-0.774,83.662-0.881c3.462-0.013,7.715-1.949,11.017-2.834
				c3.373-0.904,7.467-2.817,10.958-3.054c-33.38,2.261-67.08,1.983-100.518,1.519c-33.072-0.459-66.128-1.79-99.148-3.666
				C362.994,93.147,296.757,87,230.579,80.588c-22.342-2.165-44.73-4.041-67.014-6.753c-19.225-2.341-38.443-4.758-57.784-5.928
				c-18.453-1.116-37.419-1.367-55.572,2.603c-12.774,2.793-27.766,6.213-35.835,17.471C15.49,86.422,20.402,87.61,21.633,86.035
				L21.633,86.035z"/>
		</g>
	</g>
	<g>
		<g>
			<path fill="#282828" d="M611.784,106.692c3.678,20.435,11.566,40.242,11.036,61.267c-0.269,10.634-2.304,21.386-3.778,31.903
				c-1.595,11.368-3.112,22.74-3.954,34.192c0.098-1.328,12.445-1.851,12.557-3.364c1.583-21.538,5.977-42.75,7.64-64.269
				c1.659-21.458-7.199-42.297-10.943-63.094C624.388,103.587,611.702,106.239,611.784,106.692L611.784,106.692z"/>
		</g>
	</g>
	<g>
		<g>
			<path fill="#282828" d="M18.907,208.52c40.076,24.95,90.5,29.58,136.486,33.143c23.761,1.841,47.575,2.905,71.331,4.803
				c16.486,1.317,32.896,3.461,49.346,5.153c38.51,3.962,77.153,6.804,115.856,7.888c41.828,1.171,84.041,0.472,125.509-5.59
				c21.48-3.141,42.842-8.199,63.482-14.925c8.574-2.794,16.964-6.182,24.958-10.362c6.648-3.476,13.677-7.432,18.401-13.369
				c-0.712,0.894-5.219,1.331-6.295,1.619c-1.659,0.445-4.855,0.682-6.262,1.745c-12.142,9.183-24.666,16.659-38.97,22.002
				c-3.969,1.483-8.002,2.786-12.058,4.005c-2.19,0.658-7.004,1.825,3.24-0.825c-1.121,0.29-2.248,0.556-3.374,0.823
				c-2.518,0.599-5.046,1.151-7.578,1.686c-9.799,2.071-19.701,3.643-29.629,4.952c-42.312,5.58-85.294,5.922-127.89,4.617
				c-38.382-1.176-76.705-4.061-114.904-7.929c-17.559-1.778-35.064-3.803-52.679-4.999c-24.476-1.662-48.987-2.726-73.44-4.721
				c-44.209-3.607-91.802-8.935-131.216-30.874C22.293,206.845,19.763,209.053,18.907,208.52L18.907,208.52z"/>
		</g>
	</g>
	<g>
		<g>
			<path fill="#282828" d="M635.983,230.723c20.277-13.186,30.897-35.697,47.515-52.578c-0.949,0.964-5.018,1.277-6.295,1.619
				c-1.37,0.367-5.221,0.688-6.262,1.745c-16.617,16.882-27.237,39.393-47.515,52.578
				C626.854,231.859,632.506,232.984,635.983,230.723L635.983,230.723z"/>
		</g>
	</g>
	<g>
		<g>
			<path fill="#282828" d="M623.761,98.286c9.405-8.712,18.465-17.808,27.478-26.924c4.264-4.312,8.411-8.732,12.628-13.088
				c0.135-0.14,4.147-5.048,2.537-5.164c-1.795-0.128-5.109,2.43-6.672,1.787c0.285,0.117-4.16,4.809-4.515,5.273
				c-3.372,4.421-7.313,8.429-11.104,12.489c-8.499,9.103-17.339,17.887-25.747,27.072
				C619.418,98.583,622.577,99.382,623.761,98.286L623.761,98.286z"/>
		</g>
	</g>
	<g>
		<g>
			<path fill="#282828" d="M660.32,54.74c7.341,17.985,18.17,35.171,18.756,55.119c0.326,11.108-3.093,21.553-5.188,32.318
				c-2.522,12.956-3.239,26.308-3.486,39.477c0.021-1.154,13.645-2.313,13.637-3.654c-0.081-13.13,0.555-26.215,2.496-39.211
				c1.604-10.733,4.32-20.97,3.728-31.927c-1.066-19.741-13.911-37.691-24.447-53.593C665.556,52.877,660.442,55.039,660.32,54.74
				L660.32,54.74z"/>
		</g>
	</g>
	<g>
		<g>
			<path fill="#282828" d="M13.424,80.626C38.49,63.058,61.696,43.153,87.198,26.147c-1.721,1.148-4.572,0.627-6.377,1.709
				C68.272,35.381,56.65,44.575,45.19,53.634C33.592,62.803,22.022,72.026,10.58,81.389C11.266,80.827,12.681,81.147,13.424,80.626
				L13.424,80.626z"/>
		</g>
	</g>
	<g>
		<g>
			<path fill="#282828" d="M78.703,24.619c39.567,2.301,79.444,1.356,119.055,1.586c66.867,0.389,133.734,0.8,200.587,2.294
				c61.651,1.378,123.493,2.93,184.954,8.235c17.575,1.517,35.317,3.209,52.584,6.945c5.022,1.087,10.137,2.342,14.819,4.508
				c1.659,0.768,10.062,2.381,10.263,4.183c-0.05-0.448,10.271-2.128,10.203-2.733c-0.089-0.797,0.945-2.551,0.981-3.799
				c0.062-2.163-1.219-2.452-3.088-3.26c-5.645-2.439-11.828-3.714-17.835-4.886c-20.742-4.045-41.997-5.708-63.041-7.265
				c-64.781-4.793-129.876-5.64-194.806-6.323c-67.459-0.71-134.922-0.731-202.384-0.564c-35.84,0.089-71.857,1.15-107.682-0.156
				C81.792,23.328,80.201,24.706,78.703,24.619L78.703,24.619z"/>
		</g>
	</g>
</g>
</svg>
