<?xml version="1.0" encoding="utf-8"?>
<!-- Generator: Adobe Illustrator 16.0.0, SVG Export Plug-In . SVG Version: 6.00 Build 0)  -->
<!DOCTYPE svg PUBLIC "-//W3C//DTD SVG 1.1//EN" "http://www.w3.org/Graphics/SVG/1.1/DTD/svg11.dtd">
<svg version="1.1" id="Capa_1" xmlns="http://www.w3.org/2000/svg" xmlns:xlink="http://www.w3.org/1999/xlink" x="0px" y="0px"
	 width="187.438px" height="66.271px" viewBox="0 0 187.438 66.271" enable-background="new 0 0 187.438 66.271"
	 xml:space="preserve">
<g>
	<path fill="#FD8A0B" d="M185.348,40.778c-2.234,1.3-4.43,2.659-6.594,4.064c0.279-0.29,0.559-0.58,0.835-0.872
		c1.152-1.216-0.294-2.98-1.74-2.254c-0.256,0.127-0.511,0.258-0.766,0.389c0.002-0.003,0.004-0.006,0.006-0.009
		c0.403-0.517,0.582-1.131,0.225-1.74c-0.24-0.409-0.713-0.7-1.195-0.719c0.011-0.013,0.022-0.027,0.033-0.041
		c0.407-0.513,0.578-1.135,0.224-1.74c-0.311-0.53-1.017-0.865-1.622-0.66c-0.805,0.273-1.593,0.581-2.367,0.919
		c-0.116-0.366-0.342-0.696-0.668-0.864c0.53-0.654,1.043-1.321,1.532-2.007c0.371-0.52,0.2-1.315-0.224-1.74
		c-0.485-0.485-1.151-0.506-1.74-0.224c-0.228,0.108-0.456,0.219-0.682,0.33c1.422-1.307,2.748-2.713,3.896-4.303
		c0.374-0.516,0.198-1.317-0.225-1.739c-0.488-0.488-1.147-0.5-1.74-0.226c-2.991,1.39-5.657,3.346-8.279,5.337
		c-0.021-0.046-0.042-0.092-0.068-0.135c-0.047-0.081-0.101-0.153-0.157-0.219c3.736-2.739,7.23-5.84,10.557-8.977
		c0.944-0.89,0.19-2.281-0.854-2.436c1.157-1.02,2.281-2.075,3.354-3.188c0.449-0.466,0.556-1.176,0.225-1.74
		c-0.431-0.736-1.246-0.826-1.964-0.516c-0.662,0.286-1.315,0.584-1.962,0.894c-0.049-0.977-1.031-1.886-2.1-1.206
		c-2.168,1.379-4.35,2.762-6.523,4.165c2.773-2.128,5.522-4.278,8.285-6.372c0.623-0.472,0.947-1.229,0.515-1.965
		c-0.375-0.641-1.316-0.955-1.965-0.515c-0.274,0.186-0.549,0.372-0.825,0.556c-0.16-0.322-0.45-0.584-0.881-0.701
		c-1.311-0.354-2.652-0.622-4.008-0.82c-0.116-0.447-0.464-0.837-0.992-1.054c-0.027-0.012-0.055-0.022-0.083-0.033
		c0.353-0.152,0.703-0.307,1.051-0.466c0.977-0.449,0.897-2.008,0-2.48c-0.199-0.104-0.4-0.2-0.604-0.291
		c-0.337-0.365-0.84-0.588-1.362-0.494c-0.813-0.237-1.655-0.39-2.507-0.481c-0.261-0.605-0.87-1.031-1.632-0.753
		c-0.561,0.204-1.11,0.423-1.652,0.656c-0.382,0.012-0.761,0.031-1.136,0.054c-2.78-0.485-5.674-0.485-8.446-0.341
		c-0.159,0.008-0.317,0.019-0.477,0.028c-0.237-0.829-1.15-1.455-2.068-0.876c-0.634,0.399-1.261,0.807-1.883,1.223
		c-2.748,0.312-5.482,0.751-8.21,1.205c-0.245-0.773-1.166-1.32-2.092-0.866c-2.373,1.162-4.64,2.492-6.847,3.919
		c1.553-1.23,3.068-2.505,4.524-3.851c1.236-1.143-0.338-3.004-1.74-2.255c-1.291,0.689-2.558,1.413-3.807,2.164
		c-0.263-0.803-1.249-1.435-2.129-0.914c-3.76,2.227-7.302,4.781-10.796,7.401c-0.351-0.305-0.856-0.454-1.359-0.36
		c-0.012,0.002-0.024,0.006-0.038,0.008c0.937-0.755,1.875-1.506,2.82-2.248c2.285-1.642,4.545-3.308,6.739-5.046
		c1.276-1.012-0.411-3.188-1.74-2.255c-0.488,0.342-0.973,0.688-1.456,1.039c0.77-1.139-0.69-2.626-1.981-1.977
		c-4.262,2.144-8.257,4.764-12.156,7.503c-0.689,0.484-1.376,0.972-2.064,1.46c-0.35,0.162-0.696,0.332-1.039,0.506
		c-0.077,0.004-0.155,0.016-0.231,0.038c-0.358-0.013-0.716-0.019-1.074-0.016c-0.991,0.011-2.053,0.089-3.031,0.366
		c0.323-0.434,0.636-0.877,0.937-1.332c0.818-1.238-0.762-2.654-1.964-1.965c-1.338,0.767-2.656,1.564-3.96,2.385
		c-0.303-0.271-0.735-0.42-1.239-0.354c1.16-0.818,2.326-1.63,3.498-2.432c0.425-0.289,0.851-0.578,1.276-0.868
		c1.519-1.036,0.09-3.521-1.45-2.479c-0.431,0.291-0.861,0.584-1.291,0.877c-2.038,1.385-4.08,2.764-6.123,4.142
		c-0.392-0.19-0.87-0.23-1.335-0.02c-0.095,0.042-0.189,0.087-0.283,0.13c-0.35-0.499-0.97-0.82-1.561-0.588
		c-0.65,0.255-1.275,0.551-1.885,0.874c1.213-0.925,2.423-1.859,3.595-2.848c0.487-0.412,0.529-1.219,0.224-1.74
		c-0.414-0.707-1.266-0.868-1.964-0.516c-1.891,0.951-3.677,2.082-5.446,3.241c-0.279-0.664-0.98-1.181-1.71-0.886
		c-0.187,0.075-0.372,0.153-0.557,0.232c0.239-0.439,0.243-1.017-0.009-1.447c-0.427-0.729-1.25-0.835-1.965-0.515
		c-1.419,0.635-2.797,1.366-4.156,2.139c-0.454-0.499-1.158-0.541-1.781-0.264c-0.901,0.401-1.799,0.81-2.697,1.219
		c-0.216-0.475-0.658-0.832-1.266-0.791c-1.271,0.086-2.548,0.19-3.822,0.33c-0.279-0.375-0.722-0.643-1.177-0.643
		c-0.921,0-1.842,0-2.763,0c-0.52,0-0.969,0.154-1.394,0.376c-0.158-0.058-0.334-0.083-0.531-0.063
		c-2.852,0.276-5.736,0.319-8.562,0.819c-0.318,0.013-0.636,0.025-0.953,0.037c-0.21-0.143-0.475-0.23-0.796-0.23
		c-0.335,0-0.67,0-1.005-0.001c-0.405-0.577-1.292-0.853-1.907-0.428c-0.078,0.054-0.154,0.11-0.229,0.167
		c-0.103,0.076-0.206,0.151-0.307,0.228c-0.261-0.007-0.521-0.015-0.782-0.025c-0.186-0.862-1.162-1.548-2.119-0.995
		c-0.33,0.19-0.654,0.391-0.974,0.596c-0.286-0.038-0.572-0.076-0.858-0.114c-0.313-0.532-0.914-0.88-1.575-0.627
		c-0.272,0.104-0.539,0.217-0.802,0.335c-0.004,0-0.008-0.001-0.012-0.001c-0.113-0.036-0.235-0.062-0.367-0.073
		c-0.455-0.038-0.911-0.075-1.366-0.114c-3.147-0.679-6.347-1.122-9.57-1.136c-1.583-0.007-2.008,2.53-0.382,2.821
		c0.812,0.145,1.626,0.273,2.442,0.388c-0.038,0.127-0.059,0.265-0.059,0.414c0,0.485,0.251,0.921,0.629,1.182
		c-0.72,0.277-1.053,1.097-0.819,1.788c-4.147-0.047-8.293-0.197-12.435-0.344c-0.346-0.012-0.667,0.119-0.917,0.334
		c-0.734-0.017-1.47-0.022-2.207-0.022c-0.691,0-1.162,0.484-1.337,1.052c-0.491-0.028-0.983-0.067-1.475-0.115
		c-0.603-0.058-1.031,0.287-1.247,0.755c-0.313-0.046-0.626-0.089-0.94-0.13c-1.455-0.188-1.908,2.034-0.725,2.676
		c1.029,0.558,2.13,0.856,3.263,1.012c0.276,0.147,0.556,0.283,0.839,0.407c0.029,0.078,0.065,0.155,0.108,0.229
		c-0.144,0.033-0.287,0.068-0.43,0.103c-0.758,0.187-1.1,0.919-1.018,1.589c-0.814,0.149-1.622,0.341-2.42,0.598
		c-1.314,0.424-1.425,2.398,0,2.77c1.431,0.372,2.911,0.527,4.396,0.51c-0.088,0.185-0.139,0.39-0.139,0.605
		c0,0.393,0.142,0.708,0.369,0.945c-1.949,0.42-3.9,0.836-5.876,1.108c-1.297,0.178-1.295,1.991-0.398,2.614
		c0.021,0.704,0.532,1.411,1.406,1.456c4.202,0.218,8.451-0.21,12.524-1.287c2.009-0.132,4.007-0.42,5.992-0.796
		c0.116-0.008,0.231-0.016,0.347-0.022c0.213,0.144,0.486,0.231,0.821,0.231c1.546-0.004,3.09-0.054,4.633-0.134
		c0.374,0.275,0.749,0.548,1.126,0.819c0.069,1.234,0.511,2.384,1.231,3.292c-0.014,0.04-0.029,0.079-0.042,0.119
		c-0.132-0.21-0.264-0.421-0.396-0.633c-0.414-0.662-1.274-0.92-1.965-0.516c-0.709,0.416-0.862,1.264-0.515,1.965
		c0.435,0.879,0.816,1.78,1.196,2.684c-0.276-0.045-0.552-0.09-0.829-0.13c-3.134-0.465-6.458-0.715-9.507,0.336
		c-0.141,0.048-0.27,0.116-0.386,0.195c-0.444-0.292-1.037-0.333-1.52-0.05c-0.707,0.414-0.865,1.265-0.515,1.965
		c0.016,0.032,0.033,0.064,0.049,0.097c-0.117,0.101-0.228,0.207-0.333,0.319c-0.009,0-0.019-0.001-0.028-0.001
		c-0.458-0.4-1.086-0.535-1.671-0.191c-0.11,0.064-0.206,0.137-0.288,0.217c-0.116,0.008-0.23,0.018-0.346,0.03
		c-0.072-0.119-0.144-0.239-0.214-0.357c-0.854-1.422-2.919-0.418-2.665,0.961c-0.774-0.037-1.55-0.073-2.324-0.11
		c-0.432-0.021-0.843,0.201-1.112,0.532c-0.381,0.036-0.763,0.083-1.146,0.145c-0.478,0.076-0.881,0.561-1.002,1.003
		c-0.177,0.644,0.117,1.268,0.66,1.622c0.104,0.068,0.211,0.134,0.319,0.197c0.028,0.077,0.062,0.152,0.103,0.226
		c0.123,0.211,0.249,0.422,0.375,0.631c-0.538,0.419-0.794,1.278-0.375,1.868c0.126,0.176,0.248,0.354,0.369,0.534
		C4.581,45.127,4.56,45.104,4.54,45.08c-0.04-0.047-0.079-0.096-0.117-0.144c-0.012-0.016-0.028-0.038-0.049-0.066
		c-0.178-0.242-0.336-0.498-0.474-0.765C3.542,43.41,2.584,43.21,1.936,43.59C1.235,44,1.062,44.859,1.42,45.555
		c0.047,0.091,0.097,0.181,0.148,0.271c-0.444,0.552-0.562,1.369,0.076,1.895c1.45,1.198,3.013,2.227,4.648,3.139
		c0.106,0.449,0.423,0.841,0.984,0.979c1.351,0.333,2.725,0.56,4.11,0.695c0.359,0.057,0.719,0.107,1.08,0.15
		c0.459,0.53,0.915,1.061,1.363,1.598c0.408,0.489,1.221,0.528,1.74,0.224c0.576-0.338,0.789-0.968,0.656-1.568
		c0.084,0.002,0.169,0.004,0.254,0.006c0.555,0.009,1.111,0.006,1.667-0.006c0.379,0.401,0.864,0.625,1.454,0.463
		c0.314-0.087,0.598-0.298,0.794-0.57c0.522-0.037,1.044-0.083,1.565-0.136c0.463,0.444,1.121,0.608,1.733,0.249
		c0.232-0.136,0.404-0.32,0.52-0.53c0.24-0.035,0.481-0.072,0.721-0.11c0.632,0.562,1.296,1.092,1.996,1.578
		c0.015,0.011,0.032,0.02,0.047,0.029c-0.27,0.569-0.091,1.138,0.287,1.621c0.641,0.82,1.332,1.603,2.064,2.343
		c-0.595,0.209-1.187,0.446-1.773,0.714c-1.381,0.628-0.592,2.629,0.724,2.676c1.48,0.053,2.942-0.163,4.364-0.559
		c0.278,0.199,0.562,0.393,0.853,0.576c-0.311,1.075,0.776,2.327,2.07,1.662c0.233-0.12,0.468-0.234,0.704-0.346
		c0.228,0.068,0.457,0.13,0.689,0.178c0.51,0.108,1.019,0.01,1.398-0.369c0.212-0.213,0.362-0.521,0.412-0.841
		c0.158-0.057,0.316-0.112,0.475-0.166c0.87,0.751,1.755,1.487,2.684,2.168c0.977,0.715,2.577-0.481,2.11-1.622
		c-0.114-0.279-0.229-0.558-0.343-0.836c1.166-0.389,2.333-0.787,3.503-1.179c2.372,0.249,4.745,0.516,7.124,0.646
		c0.239,0.086,0.505,0.093,0.763,0.037c0.855,0.035,1.712,0.051,2.57,0.039c-0.047,0.118-0.093,0.237-0.138,0.357
		c-0.418,1.119,0.796,1.943,1.767,1.766c1.08-0.197,2.132-0.509,3.155-0.904c0.374,0.563,1.11,0.872,1.875,0.447
		c1.246-0.692,2.432-1.471,3.586-2.295c0.282-0.012,0.563-0.024,0.845-0.037c0.126,0.896,1.117,1.617,2.13,1.082
		c0.495-0.261,0.982-0.534,1.466-0.814c0.155,0.3,0.415,0.536,0.775,0.625c0.228,0.304,0.461,0.606,0.706,0.901
		c0.679,0.821,2.036,0.374,2.366-0.53c2.455,0.166,4.938,0.042,7.385-0.323c0.117,0.185,0.293,0.343,0.538,0.453
		c4.98,2.234,9.699,0.95,14.25-1.222c0.546,0.014,1.092,0.023,1.639,0.028c0.289,0.791,1.267,1.417,2.121,0.882
		c0.475-0.298,0.947-0.602,1.419-0.907c0.744-0.017,1.487-0.04,2.23-0.069c2.882-0.115,5.761-0.325,8.631-0.618
		c-0.559,0.509-0.461,1.493,0.04,1.993c0.601,0.602,1.417,0.484,2.031,0c0.965-0.763,1.935-1.519,2.907-2.273
		c1.427-0.1,2.854-0.262,4.274-0.47c0.239,0.395,0.65,0.678,1.165,0.671c-0.48,0.461-0.655,1.158-0.29,1.781
		c0.387,0.661,1.3,0.931,1.964,0.516c1.276-0.796,2.559-1.581,3.838-2.37c0.186,0.065,0.392,0.087,0.612,0.056
		c-0.203,0.703,0.214,1.601,0.909,1.834c-0.081,0.061-0.161,0.123-0.242,0.185c-0.001,0.001-0.003,0.002-0.004,0.002
		c0,0,0,0,0,0.001c-0.097,0.075-0.195,0.148-0.291,0.224c-0.501,0.389-0.521,1.236-0.225,1.74c0.433,0.739,1.244,0.821,1.965,0.515
		c0.054-0.022,0.108-0.046,0.162-0.07c-0.45,0.461-0.606,1.137-0.251,1.742c0.378,0.646,1.312,0.949,1.964,0.516
		c2.308-1.533,4.698-2.937,7.103-4.316c0.276,0.557,0.875,0.934,1.616,0.712c0.673-0.202,1.334-0.43,1.986-0.68
		c0.262,0.668,1.01,1.206,1.763,0.992c0.684-0.194,1.35-0.422,2.005-0.674c0.239,0.71,0.963,1.289,1.745,0.986
		c2.507-0.97,4.938-2.162,7.239-3.556c-0.172,0.175-0.344,0.352-0.512,0.531c-0.537,0.569-0.566,1.465,0,2.031
		c0.602,0.603,1.416,0.483,2.03,0c0.656-0.514,1.312-1.028,1.97-1.54c0.082-0.029,0.163-0.064,0.24-0.11
		c0.087-0.051,0.173-0.105,0.26-0.158c-0.444,0.639-0.886,1.278-1.288,1.943c-0.334,0.551-0.227,1.289,0.225,1.74
		c0.417,0.417,1.231,0.606,1.74,0.225c0.669-0.502,1.337-1.008,2.005-1.512c0.442,0.468,1.146,0.685,1.745,0.263
		c3.19-2.247,5.975-4.972,8.727-7.724c1.089-1.09-0.18-2.896-1.514-2.367c-0.032-0.104-0.076-0.207-0.136-0.311
		c-0.03-0.051-0.064-0.099-0.102-0.146c0.002-0.147-0.021-0.295-0.066-0.438c0.177-0.098,0.354-0.195,0.528-0.292
		c4.409-2.453,8.505-5.42,12.561-8.408C188.254,42.185,186.986,39.825,185.348,40.778z M38.096,28.893
		c-0.009-0.019-0.019-0.039-0.028-0.058c0.094-0.061,0.19-0.121,0.285-0.183C38.267,28.732,38.182,28.813,38.096,28.893z
		 M30.427,53.583c-0.471-0.168-0.952-0.301-1.444-0.396c0.008-0.021,0.016-0.042,0.023-0.063c0.344,0.05,0.691,0.088,1.039,0.116
		c0.146,0.086,0.304,0.149,0.468,0.184C30.479,53.477,30.45,53.529,30.427,53.583z M34.667,54.104
		c-0.507-0.307-1.027-0.592-1.565-0.848c0.671-0.04,1.338-0.104,1.997-0.183c0.265,0.059,0.545,0.041,0.807-0.04
		C35.495,53.393,35.083,53.75,34.667,54.104z M50.833,12.354c-0.05-0.088-0.107-0.173-0.173-0.252
		c0.219-0.015,0.438-0.031,0.658-0.05C51.156,12.152,50.994,12.253,50.833,12.354z M56.517,15.092
		c-0.332,0.229-0.659,0.461-0.983,0.698c0.266-0.3,0.53-0.6,0.793-0.904c0.062,0.068,0.13,0.13,0.203,0.186
		C56.525,15.08,56.521,15.086,56.517,15.092z M68.511,53.813c-0.237,0.247-0.354,0.556-0.375,0.872
		c-0.238,0.21-0.475,0.422-0.711,0.634c-0.053-0.232-0.107-0.463-0.167-0.694c0.475-0.471,0.953-0.94,1.432-1.406
		c0.045,0.089,0.09,0.179,0.136,0.269C68.721,53.597,68.616,53.705,68.511,53.813z M70.939,51.315
		c-0.004-0.008-0.008-0.016-0.012-0.024c0.042-0.031,0.084-0.062,0.126-0.093C71.015,51.238,70.978,51.276,70.939,51.315z
		 M78.63,17.856c0.095-0.14,0.195-0.279,0.297-0.417c0.266-0.117,0.529-0.238,0.792-0.36C79.356,17.338,78.993,17.597,78.63,17.856z
		 M101.948,29.264c-0.508,0.372-1.014,0.749-1.52,1.124c-0.001-0.003-0.002-0.006-0.004-0.009c0.588-0.454,1.174-0.911,1.755-1.373
		C102.101,29.092,102.024,29.178,101.948,29.264z M138.136,8.49c-0.713,0.173-1.422,0.366-2.125,0.584
		c-0.502,0.157-0.818,0.508-0.952,0.912c-0.037-0.006-0.072-0.011-0.108-0.014c-0.092-0.684-0.624-1.225-1.318-1.247
		c0.155-0.152,0.309-0.304,0.462-0.457c0.203,0.13,0.449,0.204,0.734,0.19c1.182-0.054,2.365-0.106,3.548-0.153
		C138.297,8.367,138.217,8.429,138.136,8.49z M147.886,10.037c-0.08,0.002-0.161,0.004-0.241,0.007
		c-0.054-0.05-0.112-0.098-0.171-0.141c0.321-0.036,0.643-0.072,0.963-0.107c0.007,0.04,0.015,0.081,0.024,0.12
		C148.27,9.954,148.077,9.995,147.886,10.037z M153.086,23.34c0.036-0.14,0.047-0.283,0.038-0.423
		c0.159,0.002,0.318,0.005,0.479,0.005C153.429,23.062,153.257,23.201,153.086,23.34z"/>
	<g>
		<g>
			<path fill="#282828" d="M20.238,5.967c5.876,0.06,11.752,0.14,17.627,0.178C47.68,6.208,57.493,6.28,67.308,6.249
				c11.428-0.039,22.856-0.078,34.283-0.117c10.248-0.035,20.495-0.07,30.742-0.104c6.52-0.021,13.038-0.044,19.557-0.056
				c1.907-0.003,3.795-0.032,5.698-0.203c2.491-0.223,4.974-0.528,7.474-0.644c1.188-0.056,2.38-0.057,3.567,0.047
				c0.488,0.042,0.971,0.116,1.451,0.215c0.22,0.045,0.437,0.104,0.652,0.166c0.012,0.004,0,0.356,0,0.417
				c0-0.055,1.8-0.461,1.91-0.491c0.121-0.032,1.901-0.427,1.901-0.53c0-0.221,0.09-0.391-0.158-0.462
				c-0.334-0.096-0.676-0.161-1.018-0.219c-0.838-0.143-1.693-0.183-2.542-0.198c-1.873-0.033-3.749,0.132-5.612,0.306
				c-2.629,0.247-5.25,0.572-7.895,0.574c-2.152,0.002-4.304,0.007-6.457,0.014c-8.054,0.022-16.108,0.05-24.162,0.077
				c-10.93,0.038-21.859,0.077-32.789,0.114C82.635,5.195,71.357,5.214,60.08,5.288c-9.402,0.061-18.804,0.264-28.207,0.376
				c-3.654,0.043-7.309,0.088-10.963,0.123C20.686,5.789,20.46,5.969,20.238,5.967L20.238,5.967z"/>
		</g>
		<g>
			<path fill="#282828" d="M167.95,5.072c2.566,7.958,3.327,16.447,3.252,24.779c-0.079,8.848-0.854,17.817-2.92,26.437
				c-0.208,0.867-0.434,1.728-0.678,2.584c-0.11,0.385-0.227,0.768-0.351,1.148c-0.06,0.185-0.121,0.368-0.184,0.551
				c-0.053,0.159,0.041,0.382,0.074,0.543c-0.016-0.079,1.709-0.33,1.823-0.489c0.278-0.383,0.459-0.677,0.575-1.133
				c0.103-0.405,0.202-0.812,0.298-1.219c0.201-0.845,0.377-1.695,0.539-2.547c0.363-1.91,0.643-3.835,0.873-5.765
				c0.528-4.419,0.812-8.87,0.899-13.32c0.092-4.659-0.032-9.337-0.387-13.983c-0.323-4.227-0.879-8.449-1.914-12.564
				c-0.435-1.73-0.938-3.456-1.69-5.077C168.155,5.007,167.952,5.077,167.95,5.072L167.95,5.072z"/>
		</g>
		<g>
			<path fill="#282828" d="M22.032,5.1c2.217,3.309,2.869,7.562,3.167,11.454c0.359,4.662,0.085,9.351-0.249,14.005
				c-0.323,4.5-0.553,8.983-0.628,13.494c-0.103,6.098-0.299,12.266-2.087,18.145c-0.287,0.943-0.649,1.858-0.96,2.793
				c0.004-0.014,0.428-0.104,0.408-0.099c0.326-0.084,0.652-0.171,0.979-0.258c0.326-0.087,0.652-0.176,0.977-0.265
				c0.004-0.001,0.384-0.082,0.402-0.119c1.362-2.732,2.031-5.887,2.425-8.895c0.393-3.001,0.481-6.037,0.445-9.061
				c-0.032-2.686-0.162-5.372-0.162-8.058c0-2.024,0.063-4.049,0.117-6.073c0.119-4.585,0.145-9.19-0.246-13.764
				c-0.35-4.102-1.033-8.396-3.178-11.98c-0.298-0.498-0.63-0.975-0.991-1.429C22.416,4.945,22.059,5.139,22.032,5.1L22.032,5.1z"/>
		</g>
		<g>
			<path fill="#282828" d="M26.547,63.027c7.878,0.591,15.832,0.464,23.726,0.42c11.353-0.064,22.703-0.273,34.053-0.518
				c10.627-0.229,21.253-0.504,31.879-0.788c3.745-0.101,7.491-0.2,11.236-0.292c3.961-0.097,7.89,0.038,11.847,0.264
				c5.917,0.337,11.837,0.746,17.766,0.792c5.251,0.041,10.423-0.295,15.405-2.129c-1.226,0.452-2.581,0.568-3.811,1.021
				c-0.097,0.036-0.194,0.069-0.292,0.102c-0.031,0.01-0.062,0.02-0.094,0.029c-1.073,0.328-0.118,0.073,2.867-0.765
				c-0.238,0.057-0.478,0.106-0.719,0.152c-0.546,0.103-1.097,0.179-1.649,0.245c-1.243,0.149-2.497,0.221-3.749,0.27
				c-3.01,0.115-6.027,0.048-9.037-0.055c-6.096-0.208-12.179-0.681-18.273-0.909c-3.313-0.124-6.621,0.034-9.932,0.142
				c-4.308,0.14-8.614,0.283-12.92,0.423c-11.317,0.368-22.633,0.73-33.952,1.026c-11.385,0.298-22.774,0.574-34.163,0.659
				c-6.537,0.049-13.107,0.157-19.636-0.239C26.919,62.868,26.726,63.041,26.547,63.027L26.547,63.027z"/>
		</g>
	</g>
	<g>
		<g>
			<path fill="#282828" d="M2.733,11.385c5.752,0.299,11.507,0.241,17.264,0.169c4.793-0.059,9.605-0.135,14.383,0.332
				c1.527,0.149,3.046,0.359,4.55,0.663c0.736,0.148,1.461,0.321,2.178,0.542c0.357,0.11,0.711,0.224,1.069,0.325
				c0.519,0.146,0.955,0.226,1.499,0.244c0.212,0.007,2.121-0.573,2.122-0.569c-0.061-0.263-0.181-0.248-0.44-0.316
				c-0.269-0.07-0.538-0.137-0.807-0.202c-0.628-0.153-1.279-0.235-1.917-0.342c-1.163-0.197-2.325-0.384-3.495-0.535
				c-2.353-0.303-4.723-0.44-7.093-0.513c-5.217-0.16-10.439,0.064-15.655,0.145c-4.324,0.067-8.649,0.055-12.972-0.126
				C3.193,11.191,2.957,11.396,2.733,11.385L2.733,11.385z"/>
		</g>
		<g>
			<path fill="#282828" d="M44.319,13.488c0.109,3.16-0.197,6.35-0.543,9.487c-0.183,1.662-0.393,3.322-0.626,4.978
				c-0.104,0.744-0.218,1.487-0.34,2.229c-0.125,0.751-0.193,1.566-0.735,2.131c0.038-0.04,0.403-0.097,0.427-0.104
				c0.342-0.088,0.685-0.179,1.026-0.27c0.341-0.092,0.684-0.184,1.024-0.279c-0.019,0.005,0.409-0.135,0.421-0.124
				c-0.395,0.233-0.395,0.233,0,0c-0.061-0.042-0.114-0.093-0.161-0.152c-0.11-0.121-0.08-0.238-0.067-0.388
				c0.028-0.336,0.044-0.673,0.086-1.008c0.093-0.761,0.172-1.524,0.245-2.287c0.158-1.669,0.267-3.339,0.328-5.015
				c0.116-3.133,0.154-6.306-0.247-9.421C45.162,13.306,44.317,13.429,44.319,13.488L44.319,13.488z"/>
		</g>
		<g>
			<path fill="#282828" d="M3.112,28.477c6.327,0.035,12.654-0.075,18.98-0.079c3.199-0.003,6.399,0.034,9.597,0.124
				c1.985,0.055,3.966,0.124,5.939,0.344c1.59,0.177,3.191,0.406,4.794,0.427c1.147,0.014,2.241-0.401,3.338-0.707
				c0.153-0.043,0.512-0.076,0.609-0.252c0.051-0.093-0.53-0.237-0.563-0.245c-0.187-0.046-2.135,0.511-2.138,0.572
				c-0.004,0.134-0.014,0.271-0.091,0.386c-0.029,0.044-0.06,0.081-0.104,0.112c-0.936,0.676,3.732-0.85,2.427-0.646
				c-0.65,0.103-1.326,0.053-1.98,0.017c-1.629-0.089-3.25-0.284-4.876-0.416c-0.906-0.073-1.817-0.067-2.725-0.082
				c-1.694-0.026-3.386-0.054-5.08-0.063c-3.347-0.02-6.696,0.012-10.044,0.055C15.423,28.1,9.649,28.238,3.875,28.272
				C3.619,28.273,3.365,28.477,3.112,28.477L3.112,28.477z"/>
		</g>
		<g>
			<path fill="#282828" d="M1.513,10.127c0.934,1.26,1.377,2.845,1.7,4.357c0.424,1.986,0.577,4.017,0.653,6.043
				c0.078,2.079,0.018,4.165-0.178,6.236c-0.086,0.915-0.205,1.827-0.364,2.733c-0.129,0.739-0.243,1.555-0.561,2.239
				c-0.105,0.227-0.215,0.451-0.332,0.673c0.009-0.017,0.321-0.077,0.313-0.076c0.25-0.065,0.5-0.131,0.751-0.198
				c0.085-0.023,1.043-0.207,1.058-0.295c0.26-1.482,0.511-2.973,0.63-4.477c0.158-2.008,0.153-4.031,0.039-6.042
				c-0.117-2.047-0.384-4.093-0.845-6.092c-0.375-1.623-0.886-3.283-1.803-4.688c-0.133-0.203-0.279-0.396-0.434-0.582
				C2.083,9.89,1.561,10.191,1.513,10.127L1.513,10.127z"/>
		</g>
		<g>
			<path fill="#282828" d="M0.984,35.57c11.26,1.355,22.663,0.378,33.942-0.201c2.653-0.137,5.308-0.259,7.965-0.298
				c1.337-0.019,2.75,0.155,4.063-0.146c0.479-0.11,0.953-0.245,1.427-0.374c0.231-0.062,0.461-0.125,0.69-0.19
				c0.04-0.012,0.077-0.023,0.116-0.034c0.081-0.014,0.077-0.066-0.012-0.16c-0.706-0.008-1.417,0.034-2.122,0.058
				c-5.755,0.194-11.501,0.604-17.247,0.959c-9.295,0.575-18.682,1.089-27.972,0.159C1.562,35.315,1.253,35.604,0.984,35.57
				L0.984,35.57z"/>
		</g>
		<g>
			<path fill="#282828" d="M44.142,35.088c0.412,2.585,0.377,5.256,0.334,7.868c-0.021,1.346-0.086,2.692-0.143,4.039
				c-0.053,1.234-0.03,2.513-0.201,3.738c-0.076,0.542-0.133,1.088-0.182,1.633c-0.019,0.202-0.17,0.218-0.006,0.374
				c0.1,0.095,0.326,0.037,0.457,0.004c0.46-0.115,0.917-0.239,1.374-0.366c0.235-0.066,0.849-0.262,0.539-0.521
				c-0.108-0.09-0.139-0.583-0.17-0.723c-0.126-0.57-0.233-1.128-0.277-1.71c-0.194-2.575-0.167-5.163-0.3-7.741
				c-0.119-2.264-0.419-4.515-1.065-6.692C44.501,34.992,44.141,35.08,44.142,35.088L44.142,35.088z"/>
		</g>
		<g>
			<path fill="#282828" d="M3.374,36.739c-0.216,0.137-0.404,0.302-0.576,0.49c-0.147,0.162-0.374,0.175-0.506,0.36
				c-0.088,0.124-0.166,0.256-0.24,0.389c-0.31,0.557-0.498,1.178-0.643,1.795c-0.365,1.553-0.412,3.182-0.379,4.771
				c0.032,1.565,0.176,3.13,0.405,4.678c0.09,0.609,0.198,1.217,0.329,1.818c0.101,0.461,0.151,0.862,0.508,1.186
				c0.031,0.027,0.774-0.186,0.778-0.209c0.056-0.416-0.062-0.725-0.164-1.131c-0.145-0.582-0.26-1.171-0.364-1.761
				c-0.268-1.525-0.437-3.069-0.513-4.616c-0.077-1.562-0.053-3.149,0.227-4.691c0.115-0.636,0.29-1.265,0.559-1.855
				c0.115-0.252,0.257-0.491,0.421-0.714c-0.124-0.07-0.143-0.134-0.06-0.192c0.046-0.05,0.095-0.096,0.145-0.142
				c0.096-0.09,0.203-0.167,0.312-0.24C3.548,36.717,3.44,36.696,3.374,36.739L3.374,36.739z"/>
		</g>
		<g>
			<path fill="#282828" d="M2.444,50.829c-0.076,0.155-0.272,0.323-0.094,0.425c0.13,0.074,0.268,0.134,0.407,0.19
				c0.35,0.14,0.721,0.227,1.088,0.305c1.042,0.222,2.107,0.328,3.168,0.413c3.02,0.242,6.06,0.247,9.088,0.225
				c6.704-0.051,13.398-0.402,20.097-0.595c1.958-0.056,3.937-0.176,5.89-0.018c0.138,0.011,0.419-0.099,0.535-0.129
				c0.429-0.111,0.857-0.224,1.286-0.339c0.428-0.115,0.856-0.231,1.283-0.35c0.085-0.024,0.417-0.165,0.528-0.156
				c-0.775-0.062-1.582-0.019-2.359-0.003c-1.211,0.023-2.422,0.068-3.632,0.125c-3.327,0.153-6.653,0.333-9.98,0.49
				c-6.959,0.331-13.982,0.747-20.949,0.375c-1.247-0.066-2.501-0.162-3.73-0.39c-0.418-0.077-0.834-0.176-1.238-0.311
				c-0.158-0.053-0.321-0.113-0.467-0.195c-0.08-0.045-0.354-0.02-0.458-0.033c-0.12-0.016-0.239-0.036-0.357-0.059
				C2.537,50.798,2.449,50.82,2.444,50.829L2.444,50.829z"/>
		</g>
	</g>
</g>
</svg>
