<?xml version="1.0" encoding="utf-8"?>
<!-- Generator: Adobe Illustrator 16.0.0, SVG Export Plug-In . SVG Version: 6.00 Build 0)  -->
<!DOCTYPE svg PUBLIC "-//W3C//DTD SVG 1.1//EN" "http://www.w3.org/Graphics/SVG/1.1/DTD/svg11.dtd">
<svg version="1.1" id="Capa_1" xmlns="http://www.w3.org/2000/svg" xmlns:xlink="http://www.w3.org/1999/xlink" x="0px" y="0px"
	 width="964.193px" height="406.681px" viewBox="0 0 964.193 406.681" enable-background="new 0 0 964.193 406.681"
	 xml:space="preserve">
<path fill="#FFCC00" d="M964.193,346.566c-3.711-1.44-7.889-2.282-11.855-2.526c-7.5-0.461-15.002-0.943-22.504-1.436
	c1.221-1.648,1.847-3.703,1.481-5.882c-0.904-5.392-6.375-7.922-11.333-7.735c-24.984,0.944-49.937,2.576-74.889,4.186
	c-10.218-2.929-20.505-5.482-30.847-7.725c17.851-4.079,35.72-8.1,53.369-12.969c2.124-0.586,3.616-1.724,4.558-3.141
	c4.395-0.761,8.776-1.578,13.139-2.483c1.576-0.327,1.987-0.967,0.348-1.851c-3.236-1.744-7.336-2.492-10.94-2.93
	c-0.327-0.04-0.654-0.073-0.981-0.112c29.005-1.389,58.079-5.4,85.979-13.137c1.322-0.367-0.526-1.492-0.725-1.599
	c-1.688-0.91-3.593-1.475-5.5-1.915c3.088-1.489,5.044-5.283,4.489-8.589c-0.905-5.399-6.375-7.913-11.333-7.735
	c-28.746,1.029-57.509,3.78-86.28,5.927c3.216-1.717,6.373-3.598,9.441-5.723c1.439-0.997,2.416-2.219,3.005-3.533
	c6.444-1.307,12.864-2.713,19.245-4.291c1.504-0.372,2.825-1.245,3.848-2.396c3.52-1.042,7.016-2.185,10.477-3.479
	c1.78-0.666-2.074-2.214-2.191-2.259c-2.057-0.798-4.213-1.363-6.398-1.776c-0.471-1.709-1.466-3.149-2.767-4.271
	c4.951-1.13,9.889-2.323,14.81-3.595c3.866-1,6.576-5.191,5.922-9.09c-0.516-3.077-2.549-5.246-5.122-6.493
	c0.163-0.318,0.309-0.646,0.424-0.99c0.306-0.055,0.611-0.107,0.917-0.163c2.64-0.477,0.881-1.626-0.561-2.276
	c-0.007-0.387-0.034-0.782-0.103-1.19c-0.589-3.508-3.3-6.004-6.514-7.121c0.911-0.177,1.823-0.343,2.733-0.523
	c2.952-0.585,0.375-1.931-1.119-2.511c-4.213-1.635-9.359-2.783-13.898-2.613c-3.182,0.119-6.369,0.244-9.558,0.373
	c7.138-1.603,14.191-3.502,21.089-5.834c8.611-0.821,17.192-1.696,25.707-2.749c4.149-0.513-2.169-2.903-3.054-3.171
	c-1.603-0.486-3.288-0.933-5.007-1.278c2.745-1.34,5.453-2.776,8.115-4.325c2.973-1.729,4.321-5.313,3.596-8.548
	c2.354-1.166,4.188-3.053,4.607-6.026c0.682-4.836-3.816-9.847-8.688-10.012c-10.878-0.369-21.755-0.418-32.63-0.275
	c3.481-2.635,4.089-7.08,2.038-10.549c8.151-0.787,16.278-1.591,24.356-2.482c4.17-0.46-2.204-2.913-3.055-3.171
	c-4.331-1.315-9.033-2.169-13.57-1.871c-7.013,0.461-14.036,1.039-21.067,1.688c-10.73-1.768-21.511-2.72-32.321-3.146
	c-7.832-3.675-15.881-6.012-24.078-7.421c21.021-1.172,42.018-2.313,62.797-4.366c8.96-0.885,10.36-10.656,4.994-15.144
	c2.291-0.661-0.002-1.839-1.484-2.415c-3.518-1.366-7.318-2.053-11.066-2.444c-1.018-2.66-3.434-4.727-6.191-5.683
	c1.562-0.792,2.881-2.018,3.734-3.802c0.273-0.572,0.461-1.165,0.576-1.767c12.863-0.304,25.661-0.88,38.327-2.078
	c4.525-0.428,7.079-2.967,7.866-5.979c1.822-0.223,3.646-0.447,5.467-0.688c3.994-0.526,7.838-3.007,8.44-7.285
	c0.769-5.457-3.933-9.005-8.688-10.012c-22.253-4.711-44.69-5.208-67.129-3.667c3.106-1.638,5.266-5.138,4.675-8.661
	c-0.927-5.528-6.364-7.732-11.333-7.735c-15.461-0.01-30.99-0.272-46.52-0.293c-7.32-2.689-14.715-5.078-22.399-6.902
	c-27.19-6.453-55.439-6.012-82.819-11.359c-3.311-0.646-6.93-0.315-10.046,0.992c-0.992,0.416-2.739,1.469-3.786,2.756
	c-19.159,0.998-38.17,3.732-57.122,6.736c-12.924-1.072-25.864-1.838-38.841-1.875c-2.786-0.008-13.586,3.736-13.378,7.488
	c-2.709,0.137-5.417,0.289-8.123,0.461c-8.212-0.318-16.341,0.545-24.395,2.088c-2.551,0.28-5.1,0.587-7.646,0.911
	c2.922-2.236,5.822-4.5,8.698-6.791c2.107-1.679,2.836-4.659-0.13-5.827c-3.523-1.388-8.165-0.389-11.699,1.332
	c-0.608-0.081-1.216-0.164-1.825-0.24c2.553-2.262,3.612-4.877-1.577-5.981c-6.272-1.335-12.56-2.091-18.851-2.406
	c6.118-6.148,11.985-12.569,17.529-19.339c3.068-3.746-2.882-4.941-5.27-5.028c-16.104-0.588-32.046,4.351-46.842,10.23
	c-17.004,6.755-33.086,15.976-48.528,25.721c-1.854,1.17-3.698,2.353-5.536,3.546c-7.088,1.579-14.127,3.342-21.104,5.26
	c-6.309,0.386-12.601,1.056-18.824,1.922c-13.451,1.872-26.827,4.88-39.892,8.87c-59.2-9.157-120.846,0.763-179.473,9.14
	c-2.319,0.332-5.035,1.195-7.242,2.603c-0.212-1.527-1.854-2.622-3.745-2.741c-2.113-0.133-4.226-0.24-6.337-0.325
	c-0.652-0.366-1.302-0.735-1.961-1.092c-1.896-1.026-4.693-0.522-7.28,0.369c-2.192-0.371-4.54-0.164-6.661,0.472
	c-25.906,0.125-51.74,2.621-77.686,2.692c-3.312,0.009-6.87,1.178-9.662,2.924c-1.345,0.841-5.727,4.502-2.883,6.34
	c6.481,4.187,12.838,8.546,19.104,13.029c-1.983,1.98-3.974,3.953-5.974,5.915c-0.365-1.097-0.731-2.194-1.097-3.291
	c-1.176-3.529-19.663-5.536-19.655-3.696c0.087,20.94,3.469,41.817,6.104,62.637c-7.145,12.03-10.286,27.202-12.019,40.496
	c-2.031,15.573-2.479,35.82,8.396,48.532c1.011,1.182,5.812,2.863,10.398,3.745c0.08,15.604,0.439,31.208,0.453,46.813
	c0,0.385,0.269,0.762,0.729,1.123c-4.824,9.442-8.28,19.528-9.617,29.988c-0.218,1.704,7.413,3.928,13.243,4.551
	c1.953,0.488,4.3,0.919,6.511,1.259c-1.113,1.568-1.928,3.377-1.425,4.778c-0.035,0.017-0.07,0.033-0.104,0.05
	c-3.083,0.002-6.855,0.554-7.204,3.271c-0.016,0.123-0.001,0.237-0.001,0.355c-1.712,0.892-3.419,1.794-5.112,2.726
	c-4.724,2.598-4.636,8.559-1.673,12.244c-1.573,1.56-3.133,3.132-4.675,4.726c-1.123,0.42-2.243,0.851-3.357,1.304
	c-3.707,1.509-4.151,5.617-2.872,9.547c0.312,1.996,1.36,3.906,2.943,5.319c1.587,1.882,3.535,3.194,5.5,3.297
	c7.061,0.37,14.241,0.766,21.492,1.099c0.292,0.166,0.592,0.32,0.906,0.45c6.021,2.49,13.912,1.47,20.981,0.267
	c26.354,0.422,53.007-1.128,77.762-8.737c40.92-1.349,81.768-5.011,122.544-9.218c15.305,1.069,30.488-0.01,45.584-2.238
	c29.673,5.682,59.908,8.848,89.856,10.468c22.581,1.222,45.338,1.535,68.045,0.645c68.798,7.982,137.769,13.221,206.747,5.288
	c7.447-0.856,14.87-1.925,22.268-3.143c5.213-0.858,7.832-4.155,8.093-7.667c46.995,5.22,94.63,4.893,141.731,1.424
	c13.607,0.675,27.218,1.288,40.833,1.735c4.857,0.16,10.328-1.63,11.116-7.222c0.762-5.409-3.92-9.07-8.688-10.013
	c-5.49-1.085-10.994-2.062-16.509-2.949c0.264-0.588,0.441-1.207,0.535-1.843c0.223-0.046,0.445-0.087,0.667-0.133
	c3.542-0.73,6.951-2.375,8.11-5.887c18.832-1.733,37.667-3.443,56.518-4.717C968.558,348.857,965.312,347,964.193,346.566z
	 M498.612,34.464c0.144,0.024,0.304,0.05,0.5,0.081c0.838,0.131,1.674,0.379,2.501,0.685c-3.566,2.315-7.05,4.77-10.498,7.283
	c-0.361,0.048-0.723,0.104-1.084,0.154c0.785-0.75,1.572-1.498,2.335-2.273c1.373-1.396,2.75-2.784,4.173-4.129
	C497.205,35.635,497.905,35.046,498.612,34.464z M110.967,180.733c0.35,2.147,0.632,4.311,0.843,6.491
	c-0.503-0.968-1.008-1.935-1.51-2.903c0.063-0.713,0.117-1.427,0.174-2.141C110.635,181.696,110.799,181.214,110.967,180.733z
	 M617.678,115.797c-7.627,0.489-15.236,1.072-22.812,1.843c-3.434-0.186-6.866-0.39-10.299-0.604
	c8.642-0.59,17.28-1.232,25.915-1.923C612.88,115.349,615.279,115.574,617.678,115.797z M319.839,132.691
	c3.465-0.418,6.928-0.852,10.39-1.293c-0.236,1.108-0.472,2.217-0.708,3.328c-2.375,0.131-4.753,0.257-7.133,0.38
	C321.642,134.184,320.773,133.364,319.839,132.691z M392.081,152.445c-0.271,0.008-0.54,0.013-0.81,0.021
	c0.014-0.22,0.023-0.442,0.036-0.663c0.445-0.237,0.892-0.472,1.338-0.708c0.01,0,0.021,0.001,0.03,0.002
	c-0.143,0.416-0.281,0.833-0.422,1.249C392.196,152.378,392.139,152.412,392.081,152.445z M283.464,211.261
	c-0.176,0.063-0.353,0.128-0.529,0.192c-0.103-0.049-0.206-0.099-0.315-0.147c-0.005-1.694-0.011-3.389-0.014-5.083
	c0.457-0.149,0.914-0.297,1.371-0.445C283.809,207.606,283.638,209.434,283.464,211.261z M399.818,270.922
	c1.032-1.559,2.047-3.13,3.043-4.715c1.107-0.222,2.213-0.453,3.318-0.684c-0.337,1.669-0.634,3.343-0.895,5.02
	C403.463,270.669,401.641,270.795,399.818,270.922z M362.219,153.539c0.029-1.501,0.031-3.005,0.017-4.51
	c2.513,0.18,5.026,0.357,7.539,0.535c-0.407,1.081-0.812,2.163-1.204,3.25c-0.312,0.166-0.623,0.331-0.935,0.497
	C365.83,153.385,364.024,153.46,362.219,153.539z M321.024,275.49c-0.116,0.008-0.232,0.018-0.348,0.026
	c0.143-0.199,0.28-0.401,0.422-0.602C321.073,275.106,321.049,275.298,321.024,275.49z M460.26,226.936
	c1.851-1.061,3.699-2.124,5.548-3.188c-0.321,0.841-0.64,1.683-0.963,2.523C463.316,226.493,461.788,226.717,460.26,226.936z
	 M365.159,127.818c4.893,0.125,9.785,0.23,14.679,0.32c-1.037,0.589-2.073,1.176-3.111,1.76c-4.777,0.39-9.553,0.804-14.324,1.261
	c-0.487,0.046-0.976,0.095-1.463,0.142c-0.14-1.013-0.277-2.026-0.442-3.042C362.053,128.119,363.606,127.97,365.159,127.818z
	 M428.262,99.213c-0.841,0.622-1.678,1.249-2.512,1.881c-0.151,0.038-0.303,0.078-0.455,0.116c-2.019-0.183-4.037-0.342-6.057-0.489
	c1.014-0.344,2.027-0.693,3.038-1.048C424.271,99.519,426.267,99.365,428.262,99.213z M260.086,152.253
	c-1.821,0.545-3.645,1.083-5.471,1.608c-0.175-0.711-0.348-1.423-0.522-2.134c2.005,0.033,4.01,0.058,6.015,0.075
	C260.1,151.952,260.095,152.103,260.086,152.253z M413.442,157.674c0.02-0.104,0.038-0.208,0.058-0.312
	c0.275-0.007,0.551-0.014,0.827-0.02C414.032,157.453,413.737,157.563,413.442,157.674z M422.474,151.984
	c6.132-2.94,12.31-5.794,18.5-8.626c5.791-0.225,11.585-0.407,17.38-0.541c-5.553,1.376-10.981,2.967-16.178,4.584
	c-4.5,1.4-9.01,2.963-13.526,4.602C426.591,151.989,424.532,151.983,422.474,151.984z M309.212,135.736
	c-8.151,0.354-16.314,0.633-24.482,0.807c8.388-0.823,16.769-1.715,25.142-2.672C309.608,134.412,309.388,135.034,309.212,135.736z
	 M313.31,115.15c2.152-0.469,4.306-0.933,6.463-1.382c2.673,0.017,5.345,0.013,8.015-0.018c-3.548,0.579-7.098,1.145-10.649,1.706
	C315.862,115.357,314.586,115.252,313.31,115.15z M298.307,118.06c0.489,0.047,0.979,0.087,1.467,0.133
	c-1.337,0.213-2.674,0.426-4.011,0.642c-0.763,0.046-1.526,0.087-2.29,0.135C295.089,118.684,296.7,118.377,298.307,118.06z
	 M515.312,296.303c-0.217-0.194-0.444-0.377-0.68-0.551c0.223-0.115,0.445-0.23,0.668-0.345c0.485-0.022,0.97-0.044,1.455-0.066
	C516.268,295.652,515.792,295.982,515.312,296.303z M542.131,302.923c5.033-2.037,10.258-3.65,15.584-4.961
	c0.701,0.129,1.401,0.262,2.104,0.386c-2.772,1.495-5.561,2.96-8.367,4.376C548.344,302.773,545.236,302.841,542.131,302.923z
	 M576.337,300.725c8.232,0.948,16.517,1.581,24.824,2.012c-9.382-0.067-18.764-0.143-28.146-0.156
	C574.127,301.97,575.232,301.349,576.337,300.725z M190.083,304.712c-0.054,0.083-0.105,0.167-0.152,0.252
	c-0.098,0.012-0.195,0.024-0.293,0.037C189.785,304.904,189.934,304.809,190.083,304.712z M111.013,216.129
	c-0.534,0.412-1.061,0.833-1.597,1.243c-0.48-2.039-0.944-4.074-1.383-6.101c0.105,0.021,0.209,0.041,0.315,0.061
	C109.228,212.938,110.114,214.538,111.013,216.129z M566.197,171.25c-3.96-0.878-7.925-1.699-11.896-2.452
	c2.931-1.385,5.877-2.734,8.838-4.043c3.807,0,7.613,0.018,11.418,0.048c-0.831,1.212-1.661,2.426-2.485,3.644
	C570.094,169.356,568.136,170.293,566.197,171.25z M541.608,113.651c-2.157-0.205-4.312-0.418-6.468-0.633
	c10.188-0.38,20.38-0.671,30.572-0.87C557.681,112.688,549.646,113.188,541.608,113.651z M166.132,158.774
	c0.162,0.425,0.316,0.853,0.476,1.278c-0.209,0.128-0.42,0.252-0.63,0.38c-0.042-0.465-0.077-0.93-0.117-1.396
	C165.951,158.949,166.042,158.862,166.132,158.774z M246.678,337.713c3.173,0.065,6.348,0.104,9.523,0.125
	c-0.722,0.45-1.448,0.895-2.177,1.335c-3.725-0.052-7.451-0.082-11.177-0.096C244.124,338.625,245.401,338.172,246.678,337.713z
	 M633.935,252.207c3.144-1.563,6.285-3.13,9.423-4.705c-2.449,1.474-4.897,2.951-7.343,4.431
	C635.321,252.023,634.627,252.114,633.935,252.207z M232.761,122.768c1.357,0.061,2.715,0.11,4.074,0.152
	c-0.129,0.185-0.26,0.369-0.39,0.554c-0.072,0.005-0.145,0.008-0.217,0.013c-3.989,0.261-9.048,1.517-11.902,4.675
	c-0.01,0.001-0.02,0.002-0.03,0.003c-0.314,0.036-2.506,0.355-3.34,0.539c-2.498-1.512-4.998-3.021-7.5-4.527
	C219.896,123.859,226.331,123.372,232.761,122.768z M221.152,128.822c0.078-0.003,0.145-0.005,0.244-0.011
	c-0.071,0.004-0.16,0.01-0.239,0.014C221.155,128.824,221.154,128.823,221.152,128.822z M621.14,168.581
	c0.954-0.803,1.907-1.608,2.854-2.42c2.56,0.125,5.12,0.259,7.68,0.403C628.169,167.272,624.658,167.946,621.14,168.581z
	 M687.576,238.254c4.77-2.433,9.588-4.755,14.46-6.947c-1.649,1.448-3.31,2.884-4.986,4.299
	C693.89,236.481,690.731,237.364,687.576,238.254z M185.717,102.573c-0.092,0.145-0.184,0.289-0.253,0.426
	c-0.183-0.15-0.365-0.301-0.548-0.451C185.183,102.557,185.45,102.564,185.717,102.573z M111.95,300.163
	c1.674-0.481,2.764-1.782,3.386-3.406c0.892-0.371,1.786-0.737,2.673-1.119c-2.307,2.704-4.684,5.341-7.136,7.902
	C111.234,302.414,111.592,301.288,111.95,300.163z M175.512,126.275c0.067-0.177,0.034-0.354-0.076-0.53
	c0.238,0.136,0.479,0.268,0.717,0.404C175.934,126.181,175.717,126.219,175.512,126.275z M737.685,205.674
	c0.502-0.328,1.001-0.659,1.501-0.988c2.701-0.174,5.402-0.34,8.104-0.501C744.089,204.692,740.888,205.189,737.685,205.674z
	 M172.54,124.129c-1.504-0.533-3.088-0.923-3.589-1.044c0.686,0.076,1.372,0.147,2.058,0.217
	C171.52,123.576,172.031,123.851,172.54,124.129z M682.719,171.836c1.066-0.336,2.132-0.683,3.197-1.03
	c-0.378,0.298-0.752,0.602-1.131,0.899C684.096,171.75,683.407,171.792,682.719,171.836z M693.245,164.405
	c0.143,0.048,0.286,0.096,0.433,0.144c-0.199,0.164-0.396,0.328-0.596,0.492C693.146,164.831,693.2,164.619,693.245,164.405z
	 M711.355,169.898c0.807-0.659,1.607-1.328,2.41-1.992c4.235,0.384,8.469,0.691,12.702,0.933
	C721.43,169.19,716.393,169.545,711.355,169.898z M120.819,102.17c0.683,0.462,1.392,0.836,2.118,1.08
	c9.233,3.099,18.763,6.572,28.188,10.579c-1.169,0.834-1.961,2.338-2.055,4.726c-0.011,0.271-0.013,0.541-0.023,0.811
	c-1.271-0.423-2.341-0.73-2.435-0.753c-3.273-0.791-9.013-2.482-12.33-0.993c-0.168,0.076-0.333,0.159-0.501,0.234
	c-0.252-0.089-0.505-0.175-0.756-0.265c2.395-2.305,4.781-4.619,7.138-6.963c0.801-0.797-6.658-3.07-6.883-3.125
	c-3.56-0.86-8.696-2.252-12.33-0.993c-0.04,0.014-0.08,0.03-0.12,0.043c-0.28-1.009-0.52-2.044-0.715-3.109
	C120.351,103.02,120.584,102.595,120.819,102.17z M98.471,153.729c-0.059-0.32-0.11-0.641-0.17-0.961
	c1.127-0.704,2.256-1.405,3.384-2.107C100.613,151.683,99.542,152.706,98.471,153.729z M407.466,72.396
	c-0.405,0.001-0.81,0.004-1.216,0.006c0.596-0.143,1.194-0.275,1.79-0.42C407.849,72.12,407.657,72.258,407.466,72.396z
	 M66.385,128.825c0.625-0.527,1.226-1.081,1.844-1.617c1.963,0.216,3.784,0.146,4.823-0.605c3.577-2.584,7.165-5.501,10.812-8.487
	c1.275,0.978,2.549,1.957,3.817,2.943c-1.662,2.691-3.32,5.385-4.954,8.093c-0.357,0.592,5.438,2.668,10.813,3.831
	c-0.693,0.687-1.373,1.387-2.061,2.078c-1.281-1.126-2.812-1.938-4.609-2.225c-3.763-0.599-5.845,1.936-6.471,5.012
	c-4.792-2.104-17.373-4.282-17.672-2.029c-0.166,1.248-0.317,2.498-0.468,3.748c-0.386-3.387-0.737-6.776-1.038-10.167
	C63.383,129.682,65.401,129.655,66.385,128.825z M467.261,46.922c-0.663,0.151-1.325,0.3-1.987,0.455
	c1.405-0.789,2.82-1.559,4.237-2.324C468.767,45.682,468.017,46.305,467.261,46.922z M829.625,333.132
	c-7.22-1.101-14.412-2.156-21.488-3.344c-2.4-0.403-4.844-0.813-7.314-1.242c1.633-0.382,3.268-0.764,4.902-1.141
	C813.736,329.098,821.704,331,829.625,333.132z M446.095,379.412c-32.942-0.246-66.373-2.496-99.075-8.136
	c5.07-0.918,10.132-1.939,15.186-3.022c30.792,3.251,61.64,7.29,92.528,11.178C451.85,379.439,448.971,379.434,446.095,379.412z
	 M578.032,374.647c0.19-0.037,0.382-0.069,0.572-0.107c1.082-0.215,2.159-0.456,3.239-0.681c18.761,0.397,37.505,0.996,56.199,2.179
	C618.059,376.37,598.048,375.816,578.032,374.647z"/>
<path d="M44.103,86.393c-0.076-0.467,3.383-0.557,3.571,0.326c0.822,3.852,1.644,7.707,2.36,11.58
	c9.229,49.85,12.785,101.138,12.602,151.791c-0.093,25.707-1.238,51.514-4.425,77.035c-1.452,11.631-3.303,23.223-5.708,34.697
	c-1.154,5.504-2.262,11.12-3.925,16.498c-1.454,4.704-2.306,10.176-5.485,14.07c-1.818,2.228-8.564,1.042-10.831,0.663
	c-0.739-0.123-7.804-1.479-5.8-3.442c2.106-2.063,4.703-4.947,5.862-7.652c9.231-21.552,13.256-46.018,16.509-69.096
	c3.637-25.801,5.423-51.83,5.95-77.874C55.789,185.277,52.07,135.461,44.103,86.393L44.103,86.393z M30.46,75.595
	c65.597,3.35,131.77-1.183,197.259-4.924c32.87-1.877,65.742-3.76,98.641-5.049c33.051-1.296,66.127-1.497,99.175-2.946
	c66.051-2.896,131.963-8.363,198.03-10.911c65.809-2.538,131.75-0.457,197.569,0.894c23.043,0.473,46.088,0.875,69.136,0.886
	c0.576,0,8.382-0.186,6.507-2.399c-2.125-2.51-7.901-2.689-10.827-2.69c-65.861-0.034-131.706-2.59-197.561-2.973
	c-66.036-0.384-131.975,4.198-197.839,8.385c-32.886,2.09-65.778,3.984-98.709,5.218c-32.717,1.225-65.425,1.875-98.125,3.623
	c-64.785,3.462-129.455,8.926-194.299,11.275c-23.068,0.836-46.136,0.958-69.212,1.312C29.469,75.307,30.075,75.575,30.46,75.595
	L30.46,75.595z M47.604,389.192c29.695,3.975,59.702,2.708,89.481,0.399c31.425-2.437,62.693-5.443,94.213-6.443
	c66.526-2.11,133.08-2.912,199.632-3.727c65.738-0.804,131.448-2.168,197.191-1.367c65.609,0.8,131.21,2.778,196.716,6.602
	c18.77,1.095,37.497,2.78,56.3,3.133c8.149,0.152,16.301,0.225,24.447,0.524c3.186,0.117,6.363,0.309,9.538,0.599
	c2.069,0.189,4.789,0.498,5.54,0.779c3.1,1.16,6.94,1.502,10.199,0.933c2.589-0.452,2.702-1.841,0.252-2.759
	c-8.559-3.204-17.903-3.636-26.943-4.075c-11.222-0.545-22.469-0.486-33.699-0.768c-28.949-0.726-57.927-3.543-86.866-4.919
	c-65.535-3.116-131.145-4.49-196.75-4.776c-65.652-0.287-131.374,1.437-197.021,2.502c-32.911,0.534-65.821,1.158-98.726,1.998
	c-32.481,0.83-65.065,1.418-97.484,3.686c-48.428,3.389-96.835,12.071-145.471,6.792C46.75,388.152,45.587,388.922,47.604,389.192
	L47.604,389.192z M193.686,65.896c0.144-2.951,0.292-5.896,0.667-8.828c-0.655-0.06-1.309-0.12-1.964-0.18
	c-1.564,14.354-1.02,29.091-1.954,43.523c-0.985,15.234-2.267,30.447-3.696,45.646c-2.859,30.406-6.225,60.76-8.246,91.239
	c-1.99,30.019-2.407,60.192,0.6,90.157c1.431,14.261,3.645,28.467,6.733,42.459c1.311,5.936,2.05,12.385,2.239,18.457
	c0.061,1.969-1.242,6.986,0.334,8.488c3.495,3.328,2.576,5.188-0.136,8.527c-0.679,0.836,4.754,1.824,5.768,0.963
	c1.631-1.385,3.5-2.871,4.448-4.852c0.949-1.98,3.544-2.018,4.521-3.84c0.921-1.719,0.932-2.789,1.005-4.711
	c0.242-6.311-1.027-12.57-2.852-18.566c-4.157-13.66-6.524-27.927-8.662-42.021c-4.533-29.882-5.254-60.22-4.556-90.39
	c0.707-30.542,3.117-61.021,5.005-91.502c0.945-15.254,1.814-30.523,2.188-45.804c0.381-15.592,1.51-32.126-0.777-47.594
	c-0.071-0.481-1.998-0.455-1.964-0.18c0.371,2.974,0.522,5.959,0.667,8.95C193.062,65.976,193.68,66.011,193.686,65.896
	L193.686,65.896z"/>
</svg>
