<?xml version="1.0" encoding="utf-8"?>
<!-- Generator: Adobe Illustrator 16.0.0, SVG Export Plug-In . SVG Version: 6.00 Build 0)  -->
<!DOCTYPE svg PUBLIC "-//W3C//DTD SVG 1.1//EN" "http://www.w3.org/Graphics/SVG/1.1/DTD/svg11.dtd">
<svg version="1.1" id="Capa_1" xmlns="http://www.w3.org/2000/svg" xmlns:xlink="http://www.w3.org/1999/xlink" x="0px" y="0px"
	 width="924.573px" height="423.985px" viewBox="0 0 924.573 423.985" enable-background="new 0 0 924.573 423.985"
	 xml:space="preserve">
<path fill="#FFCC00" d="M913.897,190.219c-0.606-1.263-2.915-1.43-5.576-1.151c-0.357-1.018-0.727-2.031-1.104-3.043
	c0.023-2.687-0.08-5.361-0.309-8.02c0.761-1.518,1.101-3.173,0.743-4.902c-1.35-6.52-3.119-12.852-5.24-19.021
	c-0.953-6.384-2.249-12.731-3.958-19.022c-0.59-2.171-1.267-4.295-1.982-6.396c-0.06-2.087-0.76-4.195-2.273-6.12
	c-0.022-0.029-0.046-0.056-0.068-0.084c-1.364-3.292-2.884-6.488-4.566-9.575c1.53-0.822,2.962-1.788,4.2-2.916
	c5.388-4.907,5.794-11.747,4.213-18.374c-2.153-9.022-7.897-15.94-15.026-21.59c-14.897-11.807-34.534-18.131-52.444-23.651
	c-19.438-5.992-39.251-10.389-58.866-15.703c-1.685-0.456-3.509-0.521-5.331-0.278c-3.184-5.038-8.641-9.012-14.287-11.374
	c-11.568-4.839-23.863-6.383-36.279-7.379c-12.612-1.012-25.267-1.43-37.863-2.645c-2.694-0.26-5.382-0.578-8.063-0.952
	c-1.378-0.192-2.751-0.418-4.122-0.657c-0.445-0.078-1.486-0.297-2.238-0.454c-0.573-0.151-1.149-0.293-1.717-0.466
	c-0.185-0.131-0.403-0.239-0.402-0.137c-0.277-0.087-0.552-0.188-0.828-0.282c-4.838-3.718-11.33-6.41-17.254-4.426
	c-2.955,0.99-4.228,3.063-4.375,5.389c-2.102,1.572-3.789,3.558-4.766,5.73c-2.58-0.313-5.161-0.615-7.744-0.905
	c-3.643-1.183-7.353-2.069-11.188-2.231c-2.27-0.096-3.96,0.539-5.159,1.623c-24.896-1.769-49.843-2.575-74.841-1.623
	c-1.176,0.045-2.193,0.256-3.081,0.588c-30.288-0.993-60.647,0.181-90.782,3.346c-3.825,0.401-7.644,0.855-11.461,1.326
	c-3.418,0.422-6.934,1.476-9.651,3.495c-5.273-0.438-10.546-0.758-15.817-0.97c-58.138-6.757-117.36-1.587-175.874-3.341
	c-4.522-0.135-7.173,2.598-7.495,6.623c-21.198,0.604-42.397,1.164-63.577,2.271c-0.013-0.002-0.026-0.004-0.04-0.006
	c0.001,0.002,0.002,0.005,0.003,0.008c-0.892,0.046-1.784,0.081-2.675,0.13c-5.52,0.301-5.191,8.377-4.107,11.809
	c0.421,1.332,0.994,2.652,1.688,3.926c-2.163,0.658-4.32,1.334-6.47,2.043c-2.979,0.981-4.5,2.904-4.98,5.273
	c-15.216,0.722-30.44,1.234-45.682,1.256c-10.036,0.014-8.652,10.518-3.365,18.232c-3.872,1.951-7.692,4.03-11.449,6.237
	c-6.889-1.529-14.824-1.712-17.39,0.872c-16.793,16.917-31.272,36.013-42.938,56.8c-0.431,0.768-0.093,1.525,0.674,2.234
	c-5.438,10.49-9.558,21.625-11.785,33.321c-0.327,1.718,1.342,3.076,3.449,4.099c-11.91,21.901-12.415,48.575-7.828,73.806
	c1.33,11.146,4.297,22.222,8.832,33.015c0.29,0.69,0.815,1.253,1.52,1.706c3.494,12.123,8.343,23.846,14.277,34.744
	c-5.611,1.345-9.98,3.463-9.13,5.771c3.282,8.916,9.79,15.922,17.198,21.65c4.912,6.173,9.979,12.21,15.574,17.648
	c1.524,3.225,3.186,6.423,5.005,9.59c1.342,2.337,5.914,3.117,11.083,2.904c0.249,0.146,0.484,0.308,0.735,0.451
	c5.351,3.061,13.03,1.847,18.722,0.523c1.596-0.371,5.931-1.365,8.349-3.086c12.586,4.076,25.348,7.541,38.101,11.048
	c-3.182,1.979-10.09,6.77-6.171,8.175c9.667,3.468,19.52,6.145,29.495,8.189c-1.879,2.329-2.513,4.946,1.523,6.271
	c31.846,10.443,65.952,11.716,99.199,11.037c29.506-0.603,58.938-3.202,88.435-3.98c-0.927,0.912-0.925,2.119,1.084,3.673
	c5.422,4.192,13.541,4.65,20.071,4.644c31.375-0.032,62.864-1.578,94.109-5.095c6.08,0.644,12.181,1.122,18.288,1.459
	c-0.273,0.711-0.472,1.446-0.554,2.208c-0.808,7.51,8.185,8.638,13.496,8.474c41.405-1.273,81.683-10.336,121.665-20.448
	c8.528,0.116,17.055,0.084,25.576-0.227c10.841,3.631,22.296,5.069,33.862,5.076c0.575,0.359,1.059,0.489,1.406,0.298
	c0.188-0.104,0.373-0.209,0.561-0.312c15.625-0.207,31.401-2.937,46.092-6.33c14.348-3.314,28.339-8.125,41.784-14.116
	c8.909-3.971,17.86-8.897,25.482-15.18c16.27-4.896,31.951-11.629,46.077-19.771c3.513-2.024,6.276-5.376,6.816-9.212
	c3.679-2.072,7.338-4.179,10.961-6.345c2.51-1.5,4.658-3.63,5.872-6.132c2.49,2.664,5.04,4.852,5.824,3.674
	c14.086-21.157,28.419-43.128,35.969-67.615c0.056-0.181,0.077-0.383,0.081-0.597c0.621-1.877,1.204-3.764,1.732-5.663
	c2.957-5.873,5.666-11.902,8.166-18.019c0.705-1.724,0.715-3.471,0.262-5.125C917.795,222.608,921.041,205.093,913.897,190.219z
	 M244.772,318.044c-1.687-1.879-3.339-3.788-4.99-5.698c3.691,0.911,7.399,1.728,11.125,2.445c-1.262,0.719-2.436,1.436-3.463,2.062
	c-0.274,0.168-1.177,0.736-2.286,1.514c-0.028,0.004-0.057,0.007-0.086,0.01C244.973,318.266,244.872,318.156,244.772,318.044z
	 M686.997,213.288c-0.28-0.022-0.532-0.037-0.739-0.04c-2.67-0.041-5.339-0.065-8.009-0.095c-0.13-0.164-0.256-0.331-0.386-0.495
	c2.833-0.308,5.664-0.626,8.494-0.955c0.298,0.28,0.6,0.558,0.898,0.837C687.16,212.788,687.073,213.038,686.997,213.288z
	 M646.893,125.491c2.058,0.003,4.115,0.006,6.172,0.008c0.089,0.188,0.173,0.378,0.262,0.566
	C651.187,125.904,649.046,125.712,646.893,125.491z M437.421,306.775c2.831-0.36,5.664-0.712,8.496-1.06
	c0.219,0.377,0.436,0.756,0.656,1.132c-3.084-0.034-6.167-0.053-9.25-0.06C437.355,306.784,437.389,306.779,437.421,306.775z
	 M597.128,282.416c0.549-0.016,1.099-0.03,1.647-0.047c1.393,1.334,2.794,2.657,4.205,3.972c-0.729,0.028-1.459,0.054-2.188,0.082
	C599.571,285.087,598.349,283.751,597.128,282.416z M576.783,310.445c0.078,0.083,0.154,0.166,0.231,0.249
	c-0.392,0.014-0.784,0.027-1.176,0.041C576.154,310.64,576.468,310.541,576.783,310.445z M317.89,94.421
	c-8.988,0.489-17.963,1.226-26.91,2.173c-0.017-0.012-0.033-0.024-0.049-0.037c14.126-1.487,28.252-2.949,42.384-4.278
	C328.17,92.976,323.029,93.691,317.89,94.421z M583.845,310.451c-0.146-0.158-0.293-0.315-0.438-0.474
	c2.154,0.114,4.34-0.01,6.489-0.294c0.188,0.17,0.375,0.339,0.562,0.51C588.254,310.28,586.049,310.369,583.845,310.451z
	 M292.146,302.365c0.332,0.199,0.658,0.407,0.992,0.602c-0.237-0.02-0.475-0.044-0.712-0.063
	C292.341,302.72,292.238,302.545,292.146,302.365z M599.541,309.813c-0.622-0.586-1.232-1.186-1.847-1.779
	c1.301-0.389,2.856-0.914,4.232-1.544c3.36-0.354,6.721-0.713,10.081-1.073c1.113,1.22,2.229,2.438,3.348,3.652
	C610.085,309.338,604.814,309.583,599.541,309.813z M617.805,304.741c1.221-0.189,2.563-0.45,3.906-0.804
	c1.043,1.539,2.085,3.079,3.127,4.618c-1.067,0.061-2.136,0.119-3.204,0.178C620.353,307.407,619.076,306.077,617.805,304.741z
	 M219.311,286.993c0.155,0.112,0.308,0.227,0.462,0.339c-0.065,0.005-0.13,0.008-0.195,0.013
	C219.489,287.227,219.4,287.11,219.311,286.993z M631.873,327.906c0.097,0.169,0.19,0.339,0.289,0.508
	c-0.918,0.081-1.834,0.168-2.752,0.251C630.249,328.447,631.069,328.19,631.873,327.906z M123.681,234.044
	c-0.174-0.218-0.348-0.435-0.521-0.652c-0.125-0.235-0.25-0.471-0.373-0.707C123.085,233.138,123.384,233.59,123.681,234.044z
	 M290.781,368.735c0.385-0.221,0.698-0.474,0.918-0.763c2.238,0.287,4.477,0.567,6.717,0.834c-2.481-0.003-4.961,0.004-7.442,0.012
	C290.91,368.792,290.846,368.761,290.781,368.735z M83.443,169.285c-0.981,0.495-1.962,0.988-2.946,1.477
	c1.188-0.974,2.368-1.956,3.568-2.915C83.857,168.326,83.65,168.806,83.443,169.285z M200.737,371.434
	c-0.145,0.019-0.291,0.044-0.436,0.063c0.092-0.048,0.184-0.096,0.275-0.144C200.63,371.38,200.683,371.408,200.737,371.434z
	 M86.96,346.092c-0.143-0.241-0.282-0.485-0.425-0.728c0.541,0.441,1.093,0.869,1.643,1.299
	C87.772,346.473,87.364,346.287,86.96,346.092z M662.977,8.134c-0.671-0.64-1.399-1.269-2.168-1.875
	c0.285,0.144,0.504,0.246,0.675,0.319C661.69,6.85,662.135,7.331,662.977,8.134z"/>
<g>
	<path fill="#1D1D1B" d="M361.514,0.022c-77.569,7.75-156.701,10.572-230.468,38.463c-36.11,13.653-70.479,34.346-93.908,65.637
		c-23.146,30.912-34.309,71.963-36.71,110.065c-2.324,36.863,4.727,74.886,23.708,106.858c19.204,32.349,50.908,53.886,87.333,62.27
		c13.417,3.087,27.207,3.896,40.872,5.252c11.111,1.104,22.215,2.264,33.321,3.421c27.371,2.853,54.744,5.687,82.144,8.262
		c67.712,6.363,135.604,11.16,203.61,12.653c70.84,1.556,142.129-0.382,212.321-10.663c58.007-8.497,118.65-22.755,168.362-55.191
		c20.202-13.182,38.272-30.05,51.008-50.655c14.082-22.782,20.066-48.228,21.199-74.762c1.629-38.151-3.949-77.25-22.911-110.87
		c-15.364-27.24-39.229-48.005-66.591-62.652C779.377,18.441,713.33,13.063,651.652,10.302
		c-52.087-2.333-105.402-2.213-158.84-1.723c-73.895,0.677-147.805,2.003-221.649,4.89c-29.379,1.149-58.796,2.389-88.1,4.838
		c-9.88,0.826-19.746,1.822-29.557,3.261c-5.892,0.865-12.428,1.685-17.838,4.325c-2.605,1.272-2.735,2.95,0.343,3.609
		c3.484,0.746,8.195,0.497,11.439-1.086c0.326-0.16,0.659-0.302,0.997-0.435c1.232-0.486-1.884,0.55-0.126,0.06
		c0.504-0.141,1.005-0.288,1.512-0.418c2.103-0.543-1.811,0.378,0.451-0.104c1.42-0.303,2.851-0.557,4.283-0.798
		c0.819-0.137,1.64-0.264,2.461-0.389c0.436-0.066,0.872-0.129,1.309-0.192c1.438-0.208-2.183,0.292,0.12-0.016
		c9.972-1.333,20.015-2.154,30.044-2.902c30.294-2.261,58.351-3.483,89.061-4.605c73.804-2.699,147.674-4.012,221.523-4.57
		c28.463-0.215,56.931-0.326,85.395-0.052c4.951,0.047,9.903,0.112,14.854,0.202c1.993,0.036,3.985,0.079,5.978,0.126
		c0.896,0.022,1.794,0.046,2.69,0.071c-2.222-0.062,0.386,0.011,0.696,0.023c1.471,0.056,2.941,0.11,4.412,0.165
		c14.186,0.524,26.479,0.93,40.982,1.672c60.775,3.113,126.464,9.794,179.036,43.217c26.779,17.025,47.887,41.29,60.358,70.514
		c15.054,35.275,17.794,76.058,13.479,113.827c-2.731,23.908-11.744,46.279-26.395,65.358
		c-15.01,19.545-35.032,34.572-56.475,46.413c-52.601,29.048-114.55,40.205-173.601,46.748
		c-70.32,7.793-141.442,7.953-212.068,5.237c-65.606-2.522-131.064-7.9-196.391-14.336c-25.074-2.47-50.129-5.125-75.199-7.643
		c-10.703-1.075-21.446-1.888-32.131-3.117c-19.941-2.294-39.546-8.696-56.691-19.189C10.854,322.176-0.315,232.041,19.881,162.13
		c5.519-19.104,13.421-37.933,24.724-54.353c10.948-15.905,25.137-29.27,40.886-40.34c33.302-23.409,73.043-36.194,112.43-44.908
		C251.814,10.605,306.919,7.355,361.603,0.955C363.316,0.754,363.242-0.15,361.514,0.022L361.514,0.022z"/>
</g>
</svg>
