<?xml version="1.0" encoding="utf-8"?>
<!-- Generator: Adobe Illustrator 16.0.0, SVG Export Plug-In . SVG Version: 6.00 Build 0)  -->
<!DOCTYPE svg PUBLIC "-//W3C//DTD SVG 1.1//EN" "http://www.w3.org/Graphics/SVG/1.1/DTD/svg11.dtd">
<svg version="1.1" id="Capa_1" xmlns="http://www.w3.org/2000/svg" xmlns:xlink="http://www.w3.org/1999/xlink" x="0px" y="0px"
	 width="187.438px" height="66.271px" viewBox="0 0 187.438 66.271" enable-background="new 0 0 187.438 66.271"
	 xml:space="preserve">
<g>
	<path fill="#FF0033" d="M185.348,40.778c-2.233,1.3-4.43,2.659-6.594,4.063c0.279-0.29,0.559-0.579,0.835-0.872
		c1.152-1.216-0.294-2.979-1.74-2.254c-0.256,0.127-0.511,0.259-0.766,0.39c0.002-0.003,0.004-0.006,0.006-0.009
		c0.403-0.518,0.582-1.132,0.225-1.74c-0.239-0.409-0.713-0.7-1.194-0.72c0.011-0.013,0.021-0.026,0.032-0.04
		c0.407-0.514,0.578-1.136,0.225-1.74c-0.312-0.53-1.018-0.865-1.622-0.66c-0.805,0.272-1.593,0.581-2.367,0.919
		c-0.116-0.366-0.342-0.696-0.668-0.864c0.53-0.653,1.043-1.32,1.532-2.007c0.371-0.52,0.2-1.314-0.225-1.74
		c-0.484-0.484-1.15-0.506-1.739-0.224c-0.229,0.108-0.456,0.219-0.683,0.33c1.422-1.308,2.748-2.713,3.896-4.303
		c0.374-0.517,0.198-1.317-0.226-1.739c-0.487-0.488-1.146-0.5-1.739-0.227c-2.991,1.391-5.657,3.347-8.279,5.338
		c-0.021-0.047-0.042-0.093-0.068-0.136c-0.047-0.081-0.101-0.152-0.156-0.219c3.735-2.739,7.229-5.84,10.557-8.977
		c0.944-0.891,0.189-2.281-0.854-2.437c1.157-1.02,2.281-2.075,3.354-3.188c0.449-0.467,0.556-1.177,0.225-1.74
		c-0.431-0.736-1.246-0.826-1.964-0.517c-0.662,0.286-1.314,0.584-1.962,0.895c-0.049-0.978-1.031-1.886-2.1-1.206
		c-2.168,1.379-4.351,2.762-6.523,4.165c2.773-2.128,5.522-4.278,8.285-6.372c0.623-0.472,0.947-1.229,0.515-1.965
		c-0.375-0.642-1.315-0.955-1.965-0.516c-0.273,0.187-0.549,0.372-0.825,0.557c-0.159-0.322-0.449-0.584-0.881-0.701
		c-1.311-0.354-2.651-0.622-4.008-0.82c-0.116-0.446-0.464-0.837-0.992-1.054c-0.026-0.012-0.055-0.022-0.083-0.033
		c0.354-0.151,0.703-0.307,1.051-0.466c0.978-0.449,0.897-2.008,0-2.479c-0.198-0.104-0.399-0.2-0.604-0.291
		c-0.337-0.365-0.84-0.589-1.362-0.494c-0.812-0.237-1.654-0.391-2.507-0.481c-0.261-0.604-0.87-1.031-1.632-0.753
		c-0.562,0.204-1.11,0.423-1.652,0.656c-0.382,0.012-0.761,0.031-1.136,0.054c-2.78-0.485-5.674-0.485-8.446-0.341
		c-0.158,0.008-0.316,0.019-0.477,0.028c-0.237-0.829-1.15-1.455-2.068-0.876c-0.634,0.398-1.261,0.807-1.883,1.223
		c-2.748,0.312-5.481,0.751-8.21,1.205c-0.245-0.773-1.166-1.32-2.092-0.866c-2.373,1.162-4.641,2.492-6.848,3.919
		c1.554-1.229,3.068-2.505,4.524-3.851c1.236-1.144-0.338-3.004-1.74-2.255c-1.291,0.688-2.558,1.412-3.807,2.163
		c-0.263-0.803-1.249-1.435-2.129-0.913c-3.76,2.227-7.302,4.78-10.796,7.4c-0.352-0.305-0.856-0.454-1.359-0.359
		c-0.012,0.002-0.023,0.006-0.038,0.008c0.938-0.755,1.875-1.506,2.82-2.248c2.285-1.643,4.545-3.309,6.739-5.046
		c1.275-1.013-0.411-3.188-1.74-2.255c-0.488,0.342-0.973,0.688-1.456,1.038c0.77-1.139-0.69-2.626-1.981-1.977
		c-4.262,2.145-8.257,4.764-12.155,7.503c-0.689,0.484-1.376,0.972-2.064,1.46c-0.35,0.162-0.696,0.332-1.039,0.506
		c-0.077,0.004-0.155,0.017-0.23,0.038c-0.358-0.013-0.717-0.019-1.074-0.016c-0.991,0.011-2.053,0.089-3.031,0.366
		c0.323-0.435,0.636-0.877,0.938-1.332c0.817-1.238-0.763-2.654-1.965-1.966c-1.338,0.768-2.655,1.564-3.96,2.386
		c-0.303-0.271-0.734-0.42-1.238-0.354c1.16-0.817,2.325-1.63,3.498-2.432c0.425-0.289,0.851-0.578,1.275-0.868
		c1.52-1.036,0.09-3.521-1.45-2.479c-0.431,0.291-0.86,0.584-1.291,0.877c-2.037,1.385-4.079,2.764-6.122,4.142
		c-0.393-0.19-0.87-0.23-1.336-0.02c-0.095,0.042-0.188,0.087-0.282,0.13c-0.351-0.499-0.971-0.82-1.562-0.588
		c-0.649,0.255-1.274,0.551-1.885,0.873c1.213-0.925,2.423-1.858,3.595-2.848c0.487-0.412,0.529-1.219,0.225-1.74
		c-0.414-0.707-1.267-0.867-1.964-0.516c-1.892,0.951-3.678,2.082-5.446,3.241c-0.279-0.664-0.98-1.182-1.71-0.886
		C75.52,5.713,75.335,5.791,75.15,5.87c0.239-0.438,0.243-1.017-0.009-1.447c-0.427-0.729-1.25-0.835-1.965-0.515
		c-1.419,0.635-2.797,1.366-4.156,2.139c-0.454-0.499-1.158-0.541-1.78-0.264c-0.901,0.401-1.8,0.81-2.697,1.219
		c-0.216-0.475-0.658-0.832-1.267-0.791c-1.271,0.086-2.548,0.19-3.821,0.33c-0.279-0.375-0.723-0.643-1.178-0.643
		c-0.921,0-1.842,0-2.763,0c-0.52,0-0.969,0.153-1.394,0.376c-0.158-0.059-0.334-0.083-0.531-0.063
		c-2.853,0.276-5.736,0.319-8.562,0.819c-0.317,0.013-0.636,0.025-0.952,0.037c-0.21-0.144-0.476-0.23-0.797-0.23
		c-0.335,0-0.67,0-1.005-0.001c-0.404-0.577-1.292-0.853-1.906-0.428c-0.078,0.054-0.154,0.11-0.229,0.167
		c-0.103,0.076-0.206,0.151-0.307,0.228c-0.262-0.007-0.521-0.015-0.782-0.024c-0.187-0.862-1.162-1.548-2.119-0.995
		c-0.33,0.19-0.654,0.391-0.974,0.596c-0.286-0.038-0.572-0.076-0.858-0.113c-0.312-0.532-0.914-0.881-1.575-0.627
		c-0.271,0.104-0.539,0.217-0.802,0.335c-0.004,0-0.008-0.001-0.012-0.001c-0.113-0.036-0.235-0.062-0.367-0.073
		c-0.455-0.038-0.911-0.075-1.366-0.114c-3.146-0.679-6.347-1.122-9.569-1.136c-1.583-0.007-2.009,2.53-0.383,2.82
		c0.812,0.146,1.626,0.273,2.442,0.389c-0.038,0.127-0.059,0.265-0.059,0.414c0,0.484,0.251,0.921,0.629,1.182
		c-0.721,0.277-1.054,1.097-0.819,1.788c-4.147-0.047-8.293-0.197-12.435-0.344c-0.347-0.013-0.667,0.119-0.917,0.334
		C9.13,11.215,8.394,11.21,7.657,11.21c-0.691,0-1.162,0.484-1.338,1.052c-0.49-0.027-0.982-0.066-1.475-0.114
		c-0.603-0.059-1.031,0.287-1.247,0.755c-0.312-0.046-0.626-0.089-0.939-0.13c-1.455-0.188-1.908,2.034-0.726,2.676
		c1.029,0.558,2.13,0.856,3.263,1.012c0.276,0.147,0.557,0.283,0.84,0.407c0.028,0.078,0.064,0.155,0.107,0.229
		c-0.144,0.032-0.287,0.067-0.43,0.103c-0.758,0.187-1.1,0.919-1.019,1.589c-0.813,0.149-1.621,0.341-2.42,0.598
		c-1.313,0.425-1.425,2.398,0,2.771c1.432,0.372,2.911,0.527,4.396,0.51c-0.088,0.186-0.139,0.391-0.139,0.605
		c0,0.393,0.142,0.708,0.368,0.944c-1.948,0.42-3.899,0.836-5.876,1.108c-1.297,0.178-1.295,1.991-0.397,2.614
		c0.021,0.704,0.532,1.411,1.406,1.456c4.201,0.218,8.45-0.21,12.523-1.287c2.009-0.132,4.007-0.42,5.992-0.796
		c0.116-0.009,0.231-0.017,0.347-0.022c0.213,0.145,0.486,0.231,0.821,0.231c1.546-0.004,3.09-0.055,4.633-0.135
		c0.374,0.275,0.749,0.549,1.126,0.819c0.069,1.234,0.511,2.384,1.231,3.292c-0.015,0.04-0.029,0.079-0.042,0.119
		c-0.132-0.21-0.265-0.421-0.396-0.633c-0.414-0.662-1.273-0.92-1.965-0.517c-0.709,0.416-0.862,1.265-0.515,1.966
		c0.435,0.879,0.815,1.779,1.195,2.684c-0.275-0.045-0.552-0.09-0.828-0.13c-3.135-0.465-6.458-0.715-9.508,0.336
		c-0.141,0.048-0.27,0.116-0.386,0.195c-0.444-0.292-1.037-0.333-1.52-0.051c-0.707,0.414-0.865,1.266-0.516,1.966
		c0.017,0.031,0.033,0.063,0.049,0.097c-0.116,0.101-0.228,0.207-0.333,0.319c-0.009,0-0.019-0.001-0.027-0.001
		c-0.458-0.4-1.086-0.535-1.671-0.191c-0.11,0.063-0.206,0.137-0.288,0.217c-0.116,0.008-0.23,0.019-0.347,0.03
		c-0.071-0.119-0.144-0.239-0.214-0.357c-0.854-1.422-2.919-0.418-2.665,0.961c-0.773-0.037-1.55-0.072-2.323-0.109
		c-0.433-0.021-0.844,0.201-1.112,0.531c-0.381,0.036-0.763,0.083-1.146,0.146c-0.478,0.076-0.881,0.561-1.002,1.003
		c-0.177,0.645,0.117,1.268,0.66,1.622c0.104,0.068,0.211,0.134,0.319,0.197c0.028,0.077,0.062,0.151,0.103,0.226
		c0.123,0.211,0.249,0.422,0.375,0.631c-0.538,0.419-0.794,1.278-0.375,1.868c0.126,0.176,0.248,0.354,0.369,0.534
		C4.581,45.127,4.56,45.104,4.54,45.08c-0.04-0.047-0.079-0.096-0.117-0.144c-0.012-0.017-0.028-0.038-0.049-0.066
		c-0.179-0.242-0.336-0.498-0.475-0.765C3.542,43.41,2.584,43.21,1.936,43.59C1.235,44,1.062,44.859,1.42,45.555
		c0.047,0.091,0.097,0.181,0.147,0.271c-0.443,0.552-0.562,1.369,0.076,1.896c1.45,1.197,3.014,2.227,4.648,3.139
		c0.105,0.449,0.423,0.841,0.983,0.979c1.352,0.333,2.726,0.561,4.11,0.695c0.359,0.057,0.719,0.107,1.08,0.15
		c0.459,0.529,0.915,1.061,1.363,1.598c0.407,0.489,1.221,0.528,1.739,0.224c0.576-0.338,0.789-0.968,0.656-1.567
		c0.084,0.002,0.169,0.004,0.254,0.006c0.556,0.009,1.111,0.006,1.667-0.006c0.379,0.4,0.864,0.625,1.454,0.463
		c0.314-0.087,0.599-0.298,0.794-0.57c0.522-0.037,1.044-0.083,1.565-0.136c0.463,0.444,1.121,0.607,1.732,0.249
		c0.232-0.136,0.404-0.32,0.521-0.53c0.24-0.035,0.48-0.072,0.721-0.109c0.632,0.562,1.296,1.092,1.996,1.577
		c0.015,0.012,0.032,0.021,0.047,0.029c-0.27,0.569-0.091,1.138,0.287,1.621c0.641,0.82,1.332,1.603,2.064,2.343
		c-0.596,0.209-1.188,0.446-1.773,0.714c-1.381,0.628-0.592,2.629,0.724,2.677c1.48,0.053,2.942-0.163,4.364-0.56
		c0.278,0.199,0.562,0.394,0.854,0.576c-0.312,1.075,0.775,2.327,2.069,1.662c0.233-0.12,0.469-0.234,0.704-0.346
		c0.229,0.067,0.457,0.13,0.689,0.178c0.51,0.107,1.019,0.01,1.397-0.369c0.212-0.213,0.362-0.521,0.412-0.841
		c0.158-0.058,0.316-0.112,0.476-0.166c0.869,0.751,1.755,1.486,2.684,2.168c0.977,0.715,2.577-0.481,2.11-1.622
		c-0.114-0.279-0.229-0.558-0.344-0.836c1.166-0.389,2.333-0.787,3.504-1.179c2.371,0.249,4.744,0.516,7.123,0.646
		c0.239,0.086,0.506,0.093,0.764,0.037c0.854,0.035,1.712,0.051,2.569,0.039c-0.047,0.118-0.093,0.237-0.138,0.356
		c-0.418,1.119,0.796,1.943,1.768,1.767c1.079-0.197,2.132-0.509,3.154-0.904c0.374,0.563,1.11,0.872,1.875,0.447
		c1.246-0.692,2.433-1.471,3.586-2.295c0.282-0.013,0.563-0.024,0.846-0.037c0.126,0.896,1.116,1.617,2.13,1.082
		c0.495-0.261,0.981-0.534,1.466-0.814c0.155,0.301,0.415,0.536,0.775,0.625c0.228,0.305,0.461,0.606,0.705,0.901
		c0.68,0.821,2.036,0.374,2.366-0.53c2.455,0.166,4.938,0.042,7.386-0.323c0.116,0.186,0.293,0.344,0.537,0.453
		c4.98,2.234,9.699,0.95,14.25-1.222c0.547,0.014,1.093,0.023,1.64,0.028c0.289,0.791,1.267,1.417,2.121,0.882
		c0.475-0.298,0.946-0.603,1.419-0.907c0.744-0.017,1.486-0.04,2.229-0.069c2.882-0.114,5.762-0.324,8.631-0.617
		c-0.559,0.509-0.461,1.492,0.04,1.992c0.602,0.603,1.417,0.484,2.031,0c0.965-0.763,1.936-1.519,2.907-2.272
		c1.427-0.101,2.854-0.262,4.273-0.47c0.239,0.395,0.65,0.678,1.165,0.671c-0.479,0.461-0.654,1.158-0.29,1.78
		c0.388,0.661,1.301,0.932,1.965,0.517c1.275-0.796,2.559-1.581,3.838-2.37c0.186,0.065,0.392,0.087,0.611,0.056
		c-0.203,0.703,0.215,1.602,0.909,1.834c-0.081,0.062-0.161,0.123-0.242,0.186c-0.001,0.001-0.003,0.002-0.004,0.002
		c0,0,0,0,0,0.001c-0.097,0.075-0.194,0.147-0.291,0.224c-0.501,0.39-0.521,1.236-0.225,1.74c0.433,0.739,1.244,0.821,1.965,0.515
		c0.054-0.021,0.108-0.046,0.162-0.069c-0.45,0.461-0.606,1.137-0.251,1.741c0.378,0.646,1.312,0.949,1.964,0.517
		c2.308-1.533,4.698-2.938,7.104-4.316c0.275,0.558,0.875,0.935,1.615,0.712c0.673-0.202,1.334-0.43,1.986-0.68
		c0.262,0.668,1.01,1.206,1.763,0.992c0.685-0.194,1.351-0.422,2.005-0.674c0.239,0.71,0.963,1.289,1.745,0.985
		c2.507-0.97,4.938-2.162,7.239-3.556c-0.172,0.175-0.344,0.352-0.512,0.531c-0.537,0.568-0.566,1.465,0,2.03
		c0.602,0.604,1.416,0.483,2.029,0c0.656-0.514,1.312-1.027,1.971-1.54c0.082-0.028,0.163-0.063,0.239-0.109
		c0.088-0.051,0.174-0.105,0.261-0.158c-0.444,0.639-0.887,1.278-1.288,1.943c-0.334,0.551-0.228,1.289,0.225,1.739
		c0.417,0.417,1.231,0.606,1.74,0.226c0.669-0.502,1.337-1.008,2.005-1.512c0.442,0.468,1.146,0.685,1.745,0.263
		c3.19-2.247,5.975-4.972,8.727-7.724c1.09-1.091-0.18-2.896-1.514-2.367c-0.032-0.104-0.076-0.207-0.136-0.312
		c-0.03-0.051-0.064-0.099-0.103-0.146c0.002-0.147-0.021-0.295-0.065-0.438c0.177-0.098,0.354-0.194,0.527-0.292
		c4.409-2.453,8.506-5.42,12.562-8.408C188.254,42.185,186.986,39.825,185.348,40.778z M38.096,28.893
		c-0.009-0.02-0.019-0.039-0.028-0.059c0.095-0.061,0.19-0.121,0.285-0.183C38.267,28.732,38.182,28.813,38.096,28.893z
		 M30.427,53.583c-0.471-0.168-0.952-0.301-1.444-0.396c0.009-0.021,0.017-0.042,0.023-0.063c0.344,0.05,0.691,0.088,1.039,0.116
		c0.146,0.086,0.304,0.149,0.468,0.184C30.479,53.477,30.45,53.529,30.427,53.583z M34.667,54.104
		c-0.507-0.308-1.027-0.592-1.565-0.849c0.671-0.04,1.338-0.104,1.997-0.183c0.266,0.059,0.545,0.041,0.808-0.04
		C35.495,53.393,35.083,53.75,34.667,54.104z M50.833,12.354c-0.05-0.088-0.107-0.173-0.173-0.252
		c0.219-0.016,0.438-0.031,0.657-0.051C51.156,12.152,50.994,12.253,50.833,12.354z M56.517,15.092
		c-0.332,0.229-0.659,0.461-0.982,0.698c0.266-0.3,0.529-0.6,0.793-0.904c0.062,0.068,0.13,0.131,0.202,0.187
		C56.525,15.08,56.521,15.086,56.517,15.092z M68.511,53.813c-0.237,0.247-0.354,0.556-0.375,0.872
		c-0.238,0.21-0.475,0.422-0.711,0.634c-0.053-0.232-0.107-0.463-0.167-0.694c0.475-0.471,0.953-0.939,1.432-1.406
		c0.045,0.09,0.091,0.18,0.137,0.27C68.721,53.597,68.616,53.705,68.511,53.813z M70.939,51.315
		c-0.004-0.008-0.008-0.017-0.012-0.024c0.042-0.031,0.084-0.062,0.126-0.093C71.015,51.238,70.978,51.276,70.939,51.315z
		 M78.63,17.856c0.095-0.141,0.195-0.279,0.297-0.417c0.266-0.117,0.529-0.238,0.792-0.36C79.356,17.338,78.993,17.597,78.63,17.856
		z M101.948,29.264c-0.509,0.371-1.015,0.749-1.521,1.124c-0.001-0.004-0.002-0.007-0.004-0.01c0.588-0.454,1.174-0.911,1.755-1.373
		C102.101,29.092,102.024,29.177,101.948,29.264z M138.136,8.49c-0.713,0.173-1.422,0.366-2.125,0.584
		c-0.502,0.157-0.818,0.508-0.952,0.912c-0.037-0.006-0.072-0.011-0.107-0.014c-0.093-0.685-0.624-1.226-1.318-1.247
		c0.155-0.152,0.309-0.305,0.462-0.457c0.203,0.13,0.449,0.204,0.734,0.189c1.182-0.054,2.364-0.105,3.548-0.152
		C138.297,8.367,138.217,8.429,138.136,8.49z M147.886,10.037c-0.08,0.002-0.161,0.004-0.241,0.007
		c-0.054-0.05-0.111-0.098-0.171-0.141c0.321-0.036,0.644-0.072,0.963-0.107c0.007,0.04,0.016,0.081,0.024,0.12
		C148.27,9.954,148.077,9.995,147.886,10.037z M153.086,23.34c0.036-0.14,0.047-0.282,0.038-0.423
		c0.159,0.002,0.317,0.005,0.479,0.005C153.429,23.062,153.257,23.201,153.086,23.34z"/>
	<g>
		<g>
			<path fill="#282828" d="M20.238,5.967c5.877,0.061,11.753,0.141,17.628,0.179C47.68,6.208,57.493,6.28,67.308,6.249
				c11.428-0.039,22.856-0.078,34.283-0.117c10.248-0.034,20.495-0.069,30.742-0.104c6.52-0.021,13.038-0.044,19.557-0.056
				c1.907-0.004,3.795-0.032,5.698-0.203c2.491-0.224,4.974-0.528,7.474-0.645c1.188-0.056,2.38-0.057,3.567,0.047
				c0.488,0.042,0.971,0.116,1.451,0.216c0.22,0.045,0.437,0.104,0.651,0.165c0.013,0.005,0,0.356,0,0.417
				c0-0.055,1.801-0.461,1.91-0.49c0.121-0.032,1.901-0.428,1.901-0.53c0-0.221,0.09-0.391-0.158-0.462
				c-0.334-0.096-0.676-0.161-1.018-0.219c-0.839-0.144-1.693-0.184-2.542-0.198c-1.873-0.033-3.749,0.132-5.612,0.306
				c-2.629,0.247-5.25,0.572-7.896,0.574c-2.151,0.002-4.304,0.007-6.457,0.014c-8.054,0.022-16.107,0.051-24.161,0.077
				C115.769,5.079,104.84,5.118,93.91,5.155c-11.275,0.04-22.554,0.059-33.83,0.133c-9.402,0.062-18.805,0.264-28.207,0.376
				c-3.654,0.043-7.31,0.088-10.963,0.123C20.686,5.789,20.46,5.969,20.238,5.967L20.238,5.967z"/>
		</g>
		<g>
			<path fill="#282828" d="M167.95,5.072c2.565,7.958,3.326,16.447,3.252,24.779c-0.079,8.848-0.854,17.816-2.92,26.437
				c-0.208,0.867-0.435,1.729-0.679,2.584c-0.109,0.385-0.227,0.769-0.351,1.148c-0.061,0.185-0.121,0.368-0.185,0.551
				c-0.053,0.159,0.041,0.382,0.074,0.543c-0.016-0.079,1.709-0.33,1.823-0.489c0.278-0.383,0.459-0.677,0.575-1.133
				c0.103-0.405,0.202-0.812,0.298-1.219c0.201-0.846,0.377-1.695,0.539-2.547c0.363-1.91,0.643-3.835,0.873-5.766
				c0.527-4.419,0.812-8.87,0.898-13.319c0.093-4.659-0.031-9.337-0.387-13.983c-0.323-4.227-0.879-8.449-1.914-12.564
				c-0.435-1.729-0.938-3.455-1.689-5.076C168.156,5.007,167.952,5.077,167.95,5.072L167.95,5.072z"/>
		</g>
		<g>
			<path fill="#282828" d="M22.032,5.1c2.217,3.309,2.868,7.562,3.167,11.454c0.358,4.661,0.085,9.351-0.249,14.005
				c-0.323,4.5-0.554,8.982-0.628,13.493c-0.104,6.099-0.3,12.267-2.088,18.146c-0.286,0.943-0.648,1.858-0.96,2.793
				c0.004-0.014,0.429-0.104,0.408-0.099c0.326-0.084,0.652-0.171,0.979-0.259c0.325-0.087,0.651-0.176,0.977-0.265
				c0.004-0.001,0.384-0.082,0.402-0.119c1.361-2.731,2.031-5.887,2.425-8.895c0.393-3.001,0.481-6.037,0.445-9.062
				c-0.032-2.686-0.162-5.372-0.162-8.058c0-2.024,0.062-4.049,0.117-6.073c0.118-4.585,0.145-9.189-0.246-13.764
				c-0.351-4.103-1.033-8.396-3.179-11.98c-0.298-0.498-0.63-0.975-0.99-1.429C22.416,4.945,22.059,5.139,22.032,5.1L22.032,5.1z"/>
		</g>
		<g>
			<path fill="#282828" d="M26.547,63.027c7.878,0.591,15.832,0.464,23.726,0.42c11.354-0.064,22.703-0.273,34.054-0.518
				c10.627-0.229,21.253-0.505,31.879-0.788c3.745-0.102,7.49-0.2,11.235-0.292c3.961-0.098,7.891,0.038,11.848,0.264
				c5.917,0.337,11.837,0.746,17.766,0.792c5.251,0.041,10.423-0.295,15.405-2.129c-1.227,0.452-2.581,0.567-3.812,1.021
				c-0.097,0.036-0.193,0.069-0.292,0.103c-0.03,0.01-0.062,0.02-0.094,0.028c-1.073,0.328-0.118,0.073,2.867-0.765
				c-0.238,0.057-0.479,0.106-0.719,0.152c-0.546,0.103-1.098,0.179-1.649,0.245c-1.243,0.148-2.497,0.221-3.749,0.27
				c-3.01,0.115-6.027,0.048-9.037-0.055c-6.096-0.208-12.179-0.682-18.272-0.909c-3.313-0.124-6.621,0.034-9.933,0.142
				c-4.308,0.141-8.613,0.283-12.92,0.424c-11.316,0.367-22.633,0.729-33.952,1.025c-11.385,0.298-22.773,0.574-34.163,0.659
				c-6.536,0.049-13.106,0.157-19.636-0.239C26.919,62.868,26.726,63.041,26.547,63.027L26.547,63.027z"/>
		</g>
	</g>
	<g>
		<g>
			<path fill="#282828" d="M2.733,11.385c5.752,0.3,11.508,0.241,17.265,0.17c4.793-0.06,9.604-0.136,14.383,0.331
				c1.527,0.149,3.046,0.359,4.55,0.663c0.736,0.148,1.461,0.321,2.178,0.542c0.357,0.11,0.711,0.225,1.069,0.325
				c0.519,0.146,0.955,0.227,1.499,0.244c0.212,0.007,2.121-0.573,2.122-0.569c-0.062-0.263-0.181-0.248-0.44-0.315
				c-0.269-0.07-0.538-0.137-0.807-0.202c-0.628-0.153-1.279-0.235-1.917-0.342c-1.163-0.197-2.325-0.384-3.495-0.535
				c-2.353-0.303-4.723-0.44-7.093-0.513c-5.217-0.16-10.439,0.063-15.655,0.145c-4.324,0.067-8.648,0.055-12.972-0.126
				C3.193,11.191,2.957,11.396,2.733,11.385L2.733,11.385z"/>
		</g>
		<g>
			<path fill="#282828" d="M44.319,13.488c0.109,3.16-0.196,6.35-0.543,9.487c-0.183,1.662-0.393,3.321-0.626,4.978
				c-0.104,0.744-0.218,1.487-0.34,2.229c-0.125,0.751-0.192,1.565-0.734,2.131c0.037-0.04,0.402-0.098,0.427-0.104
				c0.342-0.088,0.685-0.179,1.025-0.27c0.342-0.092,0.685-0.185,1.024-0.279c-0.019,0.005,0.409-0.135,0.421-0.124
				c-0.395,0.233-0.395,0.233,0,0c-0.061-0.042-0.114-0.093-0.161-0.152c-0.109-0.12-0.08-0.237-0.066-0.388
				c0.027-0.336,0.044-0.673,0.086-1.008c0.093-0.761,0.172-1.524,0.245-2.287c0.157-1.669,0.267-3.339,0.327-5.015
				c0.116-3.134,0.154-6.307-0.246-9.421C45.162,13.306,44.317,13.429,44.319,13.488L44.319,13.488z"/>
		</g>
		<g>
			<path fill="#282828" d="M3.112,28.477c6.327,0.035,12.654-0.075,18.98-0.079c3.199-0.003,6.399,0.034,9.597,0.124
				c1.985,0.055,3.967,0.124,5.939,0.344c1.59,0.177,3.19,0.406,4.794,0.427c1.146,0.015,2.241-0.4,3.338-0.707
				c0.153-0.043,0.512-0.076,0.609-0.252c0.051-0.093-0.53-0.236-0.563-0.245c-0.187-0.046-2.135,0.512-2.138,0.572
				c-0.004,0.134-0.015,0.271-0.091,0.386c-0.029,0.044-0.061,0.081-0.104,0.112c-0.936,0.676,3.732-0.85,2.427-0.646
				c-0.649,0.103-1.325,0.053-1.979,0.017c-1.629-0.089-3.25-0.284-4.876-0.416c-0.906-0.073-1.817-0.067-2.726-0.082
				c-1.693-0.026-3.386-0.054-5.079-0.063c-3.348-0.02-6.696,0.013-10.045,0.056C15.423,28.1,9.649,28.238,3.875,28.272
				C3.619,28.273,3.365,28.477,3.112,28.477L3.112,28.477z"/>
		</g>
		<g>
			<path fill="#282828" d="M1.513,10.127c0.935,1.261,1.377,2.846,1.7,4.357c0.424,1.985,0.577,4.017,0.653,6.043
				c0.077,2.079,0.018,4.165-0.179,6.236c-0.086,0.914-0.205,1.826-0.363,2.732c-0.13,0.739-0.243,1.555-0.562,2.239
				c-0.104,0.227-0.215,0.451-0.332,0.673c0.009-0.017,0.321-0.077,0.313-0.076c0.25-0.064,0.5-0.131,0.751-0.198
				c0.085-0.022,1.043-0.207,1.058-0.295c0.26-1.481,0.511-2.973,0.63-4.477c0.158-2.008,0.153-4.031,0.039-6.042
				c-0.117-2.047-0.384-4.093-0.845-6.092c-0.375-1.623-0.886-3.283-1.803-4.688c-0.134-0.203-0.279-0.396-0.435-0.582
				C2.083,9.89,1.561,10.191,1.513,10.127L1.513,10.127z"/>
		</g>
		<g>
			<path fill="#282828" d="M0.984,35.57c11.261,1.354,22.663,0.378,33.942-0.201c2.653-0.137,5.308-0.259,7.965-0.298
				c1.337-0.02,2.75,0.155,4.063-0.146c0.479-0.109,0.953-0.244,1.427-0.374c0.23-0.062,0.461-0.125,0.689-0.189
				c0.04-0.012,0.077-0.023,0.116-0.034c0.081-0.014,0.077-0.066-0.012-0.16c-0.706-0.008-1.417,0.034-2.122,0.059
				c-5.755,0.193-11.501,0.604-17.247,0.959c-9.295,0.574-18.682,1.089-27.972,0.158C1.562,35.315,1.253,35.604,0.984,35.57
				L0.984,35.57z"/>
		</g>
		<g>
			<path fill="#282828" d="M44.142,35.088c0.412,2.585,0.377,5.256,0.334,7.868c-0.021,1.346-0.086,2.692-0.143,4.039
				c-0.054,1.234-0.03,2.513-0.201,3.738c-0.076,0.542-0.133,1.088-0.182,1.633c-0.02,0.202-0.17,0.218-0.007,0.374
				c0.101,0.095,0.326,0.037,0.457,0.004c0.46-0.115,0.917-0.239,1.374-0.366c0.235-0.065,0.85-0.262,0.539-0.521
				c-0.107-0.09-0.139-0.583-0.17-0.724c-0.126-0.569-0.232-1.128-0.276-1.71c-0.194-2.574-0.167-5.163-0.301-7.74
				c-0.118-2.265-0.419-4.516-1.064-6.692C44.501,34.992,44.141,35.08,44.142,35.088L44.142,35.088z"/>
		</g>
		<g>
			<path fill="#282828" d="M3.374,36.739c-0.216,0.137-0.404,0.302-0.576,0.49c-0.147,0.162-0.374,0.175-0.506,0.359
				c-0.088,0.124-0.166,0.256-0.24,0.39c-0.31,0.557-0.498,1.178-0.643,1.795c-0.365,1.553-0.412,3.182-0.379,4.771
				c0.031,1.565,0.176,3.13,0.404,4.679c0.09,0.608,0.198,1.217,0.329,1.817c0.102,0.461,0.151,0.862,0.508,1.187
				c0.031,0.026,0.774-0.187,0.778-0.209c0.056-0.416-0.062-0.726-0.164-1.132c-0.145-0.581-0.26-1.171-0.364-1.761
				c-0.268-1.524-0.437-3.068-0.513-4.616c-0.077-1.562-0.053-3.148,0.227-4.69c0.115-0.636,0.29-1.266,0.56-1.855
				c0.115-0.252,0.257-0.49,0.421-0.714c-0.124-0.069-0.143-0.134-0.06-0.191c0.046-0.051,0.095-0.097,0.145-0.143
				c0.096-0.09,0.203-0.167,0.312-0.24C3.548,36.717,3.44,36.696,3.374,36.739L3.374,36.739z"/>
		</g>
		<g>
			<path fill="#282828" d="M2.444,50.829c-0.075,0.155-0.271,0.323-0.094,0.425c0.13,0.074,0.269,0.135,0.407,0.19
				c0.35,0.14,0.721,0.227,1.088,0.305c1.042,0.223,2.107,0.328,3.168,0.413c3.021,0.242,6.061,0.247,9.088,0.225
				c6.704-0.051,13.398-0.401,20.098-0.595c1.958-0.056,3.937-0.176,5.89-0.018c0.138,0.011,0.419-0.1,0.535-0.129
				c0.429-0.111,0.856-0.225,1.286-0.339c0.428-0.115,0.855-0.231,1.282-0.351c0.085-0.023,0.417-0.165,0.528-0.156
				c-0.775-0.062-1.582-0.019-2.359-0.003c-1.211,0.023-2.422,0.068-3.632,0.125c-3.327,0.153-6.652,0.333-9.979,0.49
				C22.79,51.743,15.767,52.159,8.8,51.787c-1.247-0.065-2.501-0.162-3.73-0.39c-0.418-0.077-0.834-0.176-1.237-0.312
				c-0.158-0.053-0.321-0.112-0.467-0.194c-0.08-0.045-0.354-0.021-0.458-0.033c-0.12-0.017-0.239-0.036-0.357-0.06
				C2.537,50.798,2.449,50.82,2.444,50.829L2.444,50.829z"/>
		</g>
	</g>
</g>
</svg>
