<?xml version="1.0" encoding="utf-8"?>
<!-- Generator: Adobe Illustrator 16.0.0, SVG Export Plug-In . SVG Version: 6.00 Build 0)  -->
<!DOCTYPE svg PUBLIC "-//W3C//DTD SVG 1.1//EN" "http://www.w3.org/Graphics/SVG/1.1/DTD/svg11.dtd">
<svg version="1.1" id="Capa_1" xmlns="http://www.w3.org/2000/svg" xmlns:xlink="http://www.w3.org/1999/xlink" x="0px" y="0px"
	 width="323.53px" height="314.179px" viewBox="0 0 323.53 314.179" enable-background="new 0 0 323.53 314.179"
	 xml:space="preserve">
<path fill="#7AB73E" d="M314.131,150.657c0.014-1.414-2.16-2.175-5.056-2.411c1.049-13.109-0.008-26.444-3.771-39.817
	c-0.663-2.358-5.735-3.038-10.571-2.502c-0.223-6.603-0.318-13.193-0.329-19.74c-0.003-1.565-2.814-2.398-6.335-2.565
	c-0.178-3.586-0.311-7.175-0.333-10.769c-0.012-1.843-3.87-2.67-8.207-2.597c-3.238-10.993-6.192-22.072-8.832-33.24
	c-1.516-6.557-27.217-2.572-26.064,2.477c0.318,1.333,0.629,2.669,0.946,4.003c-1.591,0.37-3.058,0.818-4.298,1.322
	c-0.371-1.137-0.74-2.275-1.116-3.411c-1.586-4.786-14.649-4.024-22.106-1.505c-0.874-0.237-1.719-0.385-2.202-0.453
	c-1.958-0.273-3.913-0.559-5.866-0.854c2.258-0.068,4.614-0.552,6.559-1.375c1.084-0.459,1.698-1.053,1.827-1.623
	c2.066-0.252,4.089-0.675,5.933-1.2c2.218-0.631,9.035-3.566,3.979-5.832c-6.438-2.884-13.15-5.392-20.034-7.473
	c0.166-0.235,0.338-0.463,0.498-0.705c0.482-0.689,0.422-1.327-0.182-1.913c-11.626-10.972-31.662-9.745-46.3-8.314
	c-8.871,0.867-17.669,2.496-26.37,4.392c-4.441,0.968-8.865,2.02-13.284,3.081c-1.762,0.423-3.523,0.851-5.285,1.276
	c-0.651,0.156-1.303,0.312-1.955,0.467c-0.215,0.051-0.382,0.091-0.524,0.125c-0.124,0.027-0.273,0.062-0.456,0.103
	c-1.903,0.43-11.482,2.943-6.139,5.77c1.699,0.899,3.421,1.737,5.161,2.526c-2.118-0.107-4.221-0.177-6.296-0.192
	c-3.776-0.027-7.868,0.564-11.364,2.044c-1.91,0.808-5.136,3.466-1.414,4.676c1.423,0.462,2.859,0.888,4.299,1.298
	c-7.489,2.21-14.83,4.734-21.955,7.558c-3.47,1.375-3.448,3.991,0.31,4.655c-5.675,2.518-11.021,5.749-15.82,9.795
	c-3.969,3.346-7.499,7.084-10.648,11.111c-6.662,2.184-12.736,5.923-17.712,11.398c-7.819,8.603-11.704,20.456-14.091,31.609
	c-2.757,12.881-2.655,25.746-0.789,38.738c-0.606,2.651-1.103,5.369-1.452,8.142c-4.268,11.829-1.315,26.308,2.372,38.197
	c3.466,11.177,8.4,22.64,14.721,33.06c0.276,0.73,0.543,1.461,0.84,2.188c6.822,16.73,19.055,28.727,35.083,35.391
	c6.445,4.548,13.205,8.53,20.217,11.957c6.642,6.228,13.659,12.04,21.265,17.196c-0.52,0.24-1.019,0.507-1.481,0.815
	c-3.458,2.309,2.1,3.537,3.713,3.692c4.693,0.389,9.361,0.972,14.019,1.636c-1.358,0.474-2.529,1.149-3.231,2.129
	c-1.984,2.767,6.058,3.05,6.971,3.05c4.647,0.003,9.295,0.006,13.943,0.009c-1.171,0.562-1.894,1.261-1.813,2.062
	c0.347,3.484,5.902,4.173,8.968,4.573c6.727,0.877,13.598,0.299,20.301-0.511c13.62-1.646,28.515-4.002,40.983-10.023
	c3.728-1.8,2.37-3.085,0.043-3.816c2.032-1.061,4.004-2.248,5.902-3.576c0.82-0.574,1.189-1.31,0.984-1.943
	c3.594-1.943,7.017-4.232,10.205-6.939c0.353-0.3,0.592-0.58,0.751-0.844c6.76-2.628,13.266-5.663,19.35-8.869
	c13.831-7.29,29.346-17.873,38.717-31.673c2.844-2.656,5.756-5.236,8.852-7.61c2.75-2.108-1.436-3.054-3.146-3.229
	c1.137-2.992,1.978-6.102,2.445-9.336c0.285-1.979-3.32-2.303-7.313-1.879c1.09-0.806,2.091-1.725,2.951-2.788
	c1.218-1.504,2.294-3.145,3.263-4.872c3.449-0.77,6.335-2.155,6.729-3.907c1.841-8.177,2.999-16.426,3.733-24.715
	c1.511-5.327,2.854-10.702,4.056-16.101C312.427,165.095,314.06,157.823,314.131,150.657z M179.381,239.203
	c-0.604,0.854-1.2,1.716-1.79,2.581c-0.096-0.23-0.192-0.462-0.289-0.692C177.995,240.462,178.698,239.843,179.381,239.203z
	 M149.75,119.358c0.061,0.228,0.124,0.455,0.185,0.683c-1.773,1.203-3.544,2.407-5.314,3.615
	C146.335,122.228,148.045,120.796,149.75,119.358z M167.721,107.905c-0.082-0.112-0.16-0.227-0.243-0.339
	c-0.441-0.599-1.438-1.025-2.761-1.296c1.095-1.004,2.182-2.017,3.262-3.036C167.945,104.8,167.858,106.358,167.721,107.905z
	 M170.078,272.114c0.65,0.423,1.302,0.84,1.958,1.245c-0.794-0.371-1.581-0.759-2.363-1.155
	C169.807,272.172,169.944,272.147,170.078,272.114z M146.822,75.678c0.554-0.961,1.121-1.916,1.662-2.883
	c0.39,0.282,0.78,0.564,1.17,0.846C148.71,74.32,147.763,74.996,146.822,75.678z M155.693,63.549
	c-0.823,0.034-1.642,0.106-2.431,0.2c0.252-0.5,0.504-1,0.753-1.502c0.798-0.695,1.602-1.384,2.409-2.07
	c1.068,0.746,2.138,1.489,3.21,2.229C158.11,62.685,156.728,63.057,155.693,63.549z M128.66,62.479
	c-1.508,1.966-2.996,3.951-4.46,5.958c-0.956,0.488-1.905,0.985-2.844,1.495C123.664,67.305,126.092,64.806,128.66,62.479z
	 M163.73,48.121c-1.055-0.152-2.129-0.219-3.207-0.217c0.115-0.281,0.242-0.557,0.356-0.838c0.031-0.077,0.042-0.147,0.064-0.222
	c0.523-0.087,1.053-0.151,1.579-0.229C162.921,47.12,163.328,47.619,163.73,48.121z M159.266,24.125
	c-1.766-0.386-3.523-0.811-5.272-1.273c2.754-0.196,5.532-0.224,8.322-0.106C161.293,23.163,160.276,23.623,159.266,24.125z
	 M194.043,296.112c-3.07,0.211-6.136,0.344-9.2,0.404c0.585-0.178,1.173-0.345,1.757-0.531c2.855,0.062,5.727-0.027,8.603-0.245
	c0.062,0.017,0.125,0.033,0.187,0.05C194.943,295.904,194.494,296.011,194.043,296.112z M278.203,236.118
	c-1.469,0.628-2.916,1.293-4.347,1.986c-0.603-0.102-1.206-0.173-1.726-0.218c0.294-0.411,0.586-0.822,0.879-1.235
	c1.419-1.352,2.828-2.74,4.191-4.177c-0.315,0.754-0.546,1.515,0.125,0.916c-1.289,1.149-0.194,1.704,1.134,1.972
	C278.377,235.616,278.289,235.866,278.203,236.118z M86.571,56.09c-2.768,2.385-5.518,4.791-8.23,7.235
	C80.789,60.693,83.614,58.215,86.571,56.09z M159.188,309.093c0.066,0.015,0.137,0.029,0.233,0.047
	C159.328,309.122,159.252,309.107,159.188,309.093z M167.479,308.805c-1.021,0.1-2.045,0.173-3.069,0.243
	c-0.216,0.015-1.916,0.1-2.501,0.133c-0.629,0.02-1.258,0.021-1.888,0.016c0.845-0.027-0.94-0.23-1.074-0.184
	c-0.1-0.067-0.031-0.161-0.054-0.396c-0.02-0.201-0.095-0.384-0.204-0.554c3.164,0.002,6.328,0.004,9.491,0.006
	c1.461,0.069,2.93,0.124,4.409,0.151C171.046,308.431,169.232,308.634,167.479,308.805z"/>
<g>
	<path fill="#1D1D1B" d="M165.138,0.174C125.428,18.2,82.312,31.793,48.583,60.521C31.07,75.436,19.174,95.398,10.599,116.539
		C2.511,136.48-1.186,158.101,0.335,179.581c2.895,40.879,26.55,77.561,60.164,100.22c37.819,25.493,86.341,32.516,130.778,25.2
		c40.88-6.729,78.083-28.595,102.071-62.583c12.37-17.528,20.543-37.733,25.353-58.567c4.597-19.918,6.868-41.428,2.452-61.569
		c-7.808-35.605-35.517-62.052-65.891-79.847C222.158,23.04,183.275,12.268,145.13,9.467c-18.199-1.335-35.853-0.312-53.813,2.542
		c-0.627,0.1-5.941,1.349-4.271,2.934c1.812,1.719,5.937,1.008,8.076,0.668c15.465-2.458,31.766-1.259,47.559,0.496
		c18.309,2.034,36.491,6.318,53.925,12.233c34.549,11.723,68.577,31.209,89.715,61.737c23.328,33.69,20.097,76.998,7.264,114.178
		c-13.352,38.687-41.606,71.167-79.563,87.111c-38.219,16.054-82.701,11.777-119.875-5.94
		c-37.854-18.042-67.125-51.823-77.25-92.711c-5.072-20.483-4.649-41.998,0.166-62.476c5.172-22,16.077-44.478,31.24-61.343
		c15.272-16.987,35.81-28.924,55.987-39.125c18.968-9.589,38.733-17.399,58.014-26.307c1.897-0.876,3.784-1.774,5.666-2.684
		C169.701-0.056,165.859-0.153,165.138,0.174L165.138,0.174z"/>
</g>
</svg>
