<?xml version="1.0" encoding="utf-8"?>
<!-- Generator: Adobe Illustrator 16.0.0, SVG Export Plug-In . SVG Version: 6.00 Build 0)  -->
<!DOCTYPE svg PUBLIC "-//W3C//DTD SVG 1.1//EN" "http://www.w3.org/Graphics/SVG/1.1/DTD/svg11.dtd">
<svg version="1.1" id="Capa_1" xmlns="http://www.w3.org/2000/svg" xmlns:xlink="http://www.w3.org/1999/xlink" x="0px" y="0px"
	 width="1088.097px" height="268.89px" viewBox="0 0 1088.097 268.89" enable-background="new 0 0 1088.097 268.89"
	 xml:space="preserve">
<path fill="#FFCC00" d="M1064.905,60.892c-3.098,3.176-5.966,6.514-8.584,10.012c-0.696-0.341-1.728-0.621-2.854-0.845
	c0.026-0.056,0.051-0.111,0.076-0.167c0.479-0.738,0.957-1.477,1.425-2.223c0.93-0.109,1.654-0.349,2.02-0.762
	c7.103-8.04,11.202-18.099,15.84-27.639c0.632-1.301-7.938-3.085-11.68-2.356c-2.297-0.307-4.497-0.276-5.413,0.491
	c-0.096-0.932-2.498-1.73-3.45-1.972c-3.269-0.829-7.081-1.174-10.358-0.212c-6.128,1.8-12.281,3.584-18.444,5.375
	c-2.253-0.246-4.524-0.377-6.81-0.41c-14.19-2.657-28.572-3.489-43.002-3.696c-1.402-0.274-2.584-0.439-3.109-0.438
	c-8.954,0.015-17.896,0.199-26.828,0.511c-2.018,0.014-4.033,0.023-6.048,0.026c-0.634,0.001-3.011-0.105-4.423,0.393
	c-1.766,0.083-3.529,0.188-5.293,0.28c-8.992-0.652-17.972-1.469-26.945-2.334c-9.491-1.332-19.066-2.24-28.67-2.774
	c-22.479-2.074-44.983-3.646-67.645-2.84c-2.026,0.072-3.135,0.562-3.373,1.178c-6.946,0.062-13.938,0.271-20.928,0.695
	c-3.51-0.131-7.021-0.252-10.53-0.398c-1.809-0.247-3.616-0.496-5.424-0.749c18.926-0.927,37.85-1.893,56.804-1.924
	c0.484-0.001,7.061-0.156,5.481-2.021c-1.793-2.118-6.652-2.26-9.12-2.267c-38.239-0.114-76.18-6.272-114.428-5.611
	c-32.195-4.97-65.026-5.767-97.516-4.286c-14.309,0.652-28.61,1.826-42.851,3.534c-17.839,0.817-35.647,2.308-53.391,4.354
	c-13.857-1.939-27.788-3.315-41.773-4.056c-22.149-1.172-44.889-0.54-66.56,4.541c-1.13,0.265-1.702,0.587-1.903,0.927
	c-12.468,0.819-24.91,2.001-37.343,3.308c-57.543-3.915-115.052-9.866-172.612-2.7c-4.395,0.548-1.884,2.271,0.689,3.311
	c-35.111,1.091-70.17,3.358-105.126,7.563c-2.982,0.358-2.81,1.214-1.603,2.055c-17.162,0.012-34.334,0.162-51.429,1.837
	c-0.007,0.001-0.014,0.002-0.021,0.003c-1.307,0.047-2.899,0.252-3.239,1.021c-3.347,0.264-6.694,0.533-10.041,0.807
	c-0.447,0.037-4.375,0.365-3.213,1.736c1.571,1.854,5.833,1.982,7.995,1.986c0.219,0,0.438,0.003,0.657,0.003
	c-1.283,0.215-3.052,0.688-2.16,1.633c0.037,0.039,0.075,0.075,0.112,0.114c-4.16-0.741-9.563-0.394-9.558,1.155
	c0.001,0.234,0.008,0.469,0.009,0.703c-0.958,0.167-1.76,0.497-1.82,1.146c-0.067,0.73,0.763,1.24,1.857,1.6
	c0.038,2.08,0.096,4.158,0.181,6.235c-1.402,0.127-2.37,0.473-2.214,1.208c0.841,3.984,1.865,7.919,2.986,11.826
	c0.384,5.193,0.837,10.383,1.286,15.572c-4.479,1.318-8.952,2.66-13.416,4.036c-2.608,0.804-0.252,2.387,1.062,2.874
	c3.689,1.369,8.013,1.648,11.885,1.087c0.378-0.055,0.755-0.109,1.133-0.164c0.484,5.914,0.906,11.832,1.165,17.758
	c0.141,6.495,0.387,12.995,0.406,19.471c0.005,1.752,4.445,2.724,8.343,2.803c-0.049,5.119-0.049,10.221-0.053,15.289
	c-0.026,0.085-0.022,0.17,0,0.256c0,0.509,0,1.021-0.001,1.528c-0.001,0.925,1.304,1.694,3.147,2.24
	c-4.498,8.057-8.642,16.297-12.017,24.939c-0.75,1.921,6.041,2.656,10.521,2.657c-0.025,0.673-0.042,1.346-0.063,2.02
	c-3.694,3.595-7.321,7.247-10.842,10.987c-1.85,1.966,4.8,3.188,5.595,3.321c1.189,0.198,3.154,0.533,5.111,0.603
	c0.042,3.325,0.132,6.65,0.266,9.976c-2.064,9.853-4.101,19.715-5.032,29.624c-0.078,0.059-0.157,0.114-0.234,0.173
	c-0.54,0.404-0.375,0.807,0.123,1.177c-0.232,2.786-0.383,5.574-0.409,8.368c-0.027,2.893,12.262,3.75,13.796,1.772
	c3.1-3.997,6.47-7.891,10.102-11.538c2.241,0.188,4.697,0.094,5.988-1.056c4.919-4.382,9.808-8.805,14.656-13.273
	c1.885-1.062,3.772-2.118,5.653-3.187c-3.237,14.383-14.469,26.28-23.25,37.666c-1.493,1.936,11.264,4.641,13.535,2.262
	c6.256-6.55,12.597-13.12,19.215-19.38c0.554-0.112,1.001-0.265,1.287-0.467c1.235-0.871,2.459-1.758,3.678-2.65
	c-0.083,0.264-0.171,0.524-0.253,0.788c-0.18,0.575,0.483,1.09,1.606,1.511c-4.669,3.599-9.335,7.202-14.007,10.792
	c-1.648,1.267,3.914,2.484,4.29,2.547c1.624,0.271,4.068,0.646,6.054,0.273c1.692,1.509,12.009,2.401,13.719,1.156
	c3.473-2.526,6.747-5.335,9.928-8.273c3.52,0.709,8.128,0.411,9.724-0.289c3.723-1.635,7.393-3.365,11.024-5.162
	c1.614,1.663,11.796,1.89,13.026,1.438c2.38-0.875,4.769-1.717,7.168-2.52c1.188,0.419,2.477,0.702,2.646,0.73
	c1.814,0.303,4.268,0.65,6.319,0.221c-1.5,3.835-2.581,7.829-3.092,12.026c-0.393,3.223,12.222,3.19,14.006,2.322
	c9.646-4.691,18.343-10.896,26.916-17.278c0.49,0.014,0.979,0.029,1.469,0.042c2.149,1.106,4.232,2.431,6.25,3.947
	c-6.613,2.883-12.828,6.142-19.921,7.697c-0.542,0.108-1.086,0.214-1.628,0.324c-2.494,0.506-2.741,1.805-0.25,2.729
	c3.068,1.138,6.868,1.496,10.091,0.923c0.642-0.114,1.275-0.243,1.904-0.38c20.705-4.157,41.529-7.71,62.267-11.683
	c13.176,6.142,27.59,5.073,41.393,0.917c-2.1,2.095-4.183,4.208-6.228,6.361c-2.201,2.317,11.307,3.14,12.946,2.688
	c16.115-4.446,31.448-10.515,46.292-17.604c-1.583,2.591-3.003,5.293-4.213,8.139c-0.531,1.25,2.294,1.946,5.523,2.273
	c-0.41,1.041-0.8,2.09-1.146,3.156c-0.917,2.826,12.246,2.936,13.794,2.287c11.837-4.955,22.271-12.452,32.677-19.951
	c0.479,0.103,0.859,0.169,1.02,0.196c2.611,0.436,5.753,0.771,8.354-0.131c3.171,0.183,6.341,0.32,9.507,0.377
	c0.813,0.118,1.625,0.193,2.417,0.233c1.513,0.735,3.944,1.286,4.175,1.325c0.007,0.001,0.017,0.003,0.024,0.004
	c-7.566,6.032-14.959,12.294-22.104,18.883c-1.608,1.483,3.989,2.593,4.517,2.681c2.654,0.443,5.966,0.786,8.435-0.517
	c8.072-4.261,16.095-8.617,24.064-13.069c5.245-2.207,10.325-4.675,15.268-7.358c3.072,0.053,6.151,0.045,9.235-0.021
	c-4.354,1.132-8.688,2.352-12.993,3.702c-3.12,0.979,5.159,2.721,5.929,2.715c19.998-0.132,39.831-3.065,59.281-7.582
	c0.227,1.375,5.441,2.484,5.895,2.561c2.859,0.478,7.767,1.242,10.34-0.633c1.227-0.895,2.458-1.784,3.688-2.677
	c0.688,0.043,1.215,0.058,1.462,0.056c2.624-0.026,5.213-0.173,7.777-0.404c-3.029,2.449-6,4.971-8.88,7.606
	c-1.998,1.829,4.945,3.211,5.591,3.318c3.293,0.55,7.374,0.966,10.438-0.639c8.096-4.24,16.08-8.695,24-13.272
	c5.52,0.037,11.043,0.006,16.565-0.1c-1.794,1.475-3.558,2.987-5.298,4.53c-0.473,0.097-0.947,0.186-1.42,0.284
	c-2.589,0.54-2.313,1.281-1.057,1.957c-0.752,0.694-1.508,1.384-2.248,2.093c-1.977,1.894,4.957,3.241,5.655,3.357
	c3.333,0.557,7.461,0.977,10.562-0.646c1.421-0.744,2.827-1.515,4.242-2.269c19.078,0.5,38.087-2.272,56.977-5.006
	c0.916-0.133,1.833-0.266,2.752-0.397c9.245,0.467,18.492,0.881,27.74,1.168c2.515,0.415,5.618,0.794,8.311,0.221
	c7.76,0.17,15.521,0.229,23.283,0.134c3.161,0.578,6.937,0.878,9.527-0.197c1.902-0.056,3.805-0.126,5.708-0.204
	c-1.395,1.807-2.71,3.672-3.921,5.606c-0.938,1.499,1.48,2.519,4.707,3.105c-0.857,0.774-1.731,1.53-2.579,2.314
	c-2.104,1.945,5.22,3.395,5.914,3.511c3.318,0.554,7.988,1.155,11.043-0.677c3.866-2.318,7.77-4.569,11.7-6.773
	c20.924-1.918,41.894-3.569,62.887-4.806c-0.316,0.414-0.252,0.918,0.559,1.452c-3.258,2.376-6.48,4.799-9.618,7.337
	c-2.161,1.747,5.185,3.311,5.73,3.401c3.082,0.515,7.896,1.212,10.701-0.655c4.185-2.784,8.339-5.653,12.48-8.568
	c15.111-0.946,30.214-2.165,45.325-3.155c2.448-0.006,4.896-0.017,7.346-0.033c-2.337,3.042-4.523,6.024-6.354,8.956
	c-2.258,3.618,14.455,4.406,17.084,2.855c6.361-3.753,12.427-7.91,18.328-12.292c21.487-0.581,42.958-1.722,64.349-3.731
	c2.323,2.346,15.309,2.995,17.692,1.59c1.146-0.675,2.268-1.382,3.397-2.079c-2.58,2.135-5.176,4.252-7.775,6.366
	c-2.309,1.878,5.548,3.545,6.138,3.644c3.017,0.503,8.789,1.455,11.462-0.702c4.544-3.668,9.192-7.203,13.818-10.764
	c4.649,1.663,13.545,1.771,14.985-0.122c0.841-1.104,1.543-2.225,2.132-3.355c5.305,0.728,11.912,0.6,11.381-0.91
	c-1.358-3.857-2.716-7.717-4.071-11.577c1.012-22.869-3.344-45.673-4.652-68.493c10.033-26.026,20.065-52.041,25.822-79.438
	C1081.642,59.841,1066.835,58.912,1064.905,60.892z M709.29,25.005c3.922,0.811,7.852,1.57,11.786,2.299
	c-2.522,0.053-5.044,0.089-7.567,0.113c-0.332-0.248-0.775-0.485-1.339-0.694c-3.695-1.372-7.958-1.606-11.834-1.083
	c-3.541,0.479-7.085,0.938-10.63,1.387c-0.478-0.213-1.116-0.422-1.955-0.622c-0.402-0.096-0.807-0.18-1.209-0.274
	C694.133,25.823,701.719,25.472,709.29,25.005z M221.947,142.675c-1.27,0.777-2.531,1.566-3.797,2.35
	c0.622-0.595,1.238-1.194,1.854-1.794c15.478-10.427,31.413-20.229,47.646-29.54c-13.556,9.667-27.355,19.011-41.347,28.061
	C224.726,141.728,223.156,141.935,221.947,142.675z M180.316,158.736c-0.423-0.108-0.864-0.208-1.316-0.298
	c3.902-2.41,7.795-4.835,11.677-7.277C187.197,153.653,183.739,156.173,180.316,158.736z M145.093,119.872
	c-0.021-0.022-0.052-0.041-0.074-0.063c0.285-0.19,0.571-0.382,0.856-0.572C145.617,119.451,145.353,119.658,145.093,119.872z
	 M817.582,173.667c-1.267,0.87-2.54,1.731-3.821,2.583c-3.553,1.753-7.085,3.544-10.597,5.367c2.808-2.974,5.741-5.839,8.727-8.653
	C813.639,173.336,815.641,173.64,817.582,173.667z M936.653,152.747c0.492,0.038,0.972,0.061,1.434,0.066
	c-1.191,0.744-2.383,1.488-3.577,2.229c-9.509,4.671-18.913,9.551-28.134,14.733c-0.474-0.193-1.022-0.359-1.628-0.499
	C915.297,163.598,925.926,158.069,936.653,152.747z M851.839,145.321c-4.278,2.16-8.548,4.334-12.805,6.528
	c-1.017,0.343-2.034,0.685-3.049,1.033c4.771-2.535,9.541-5.076,14.312-7.613C850.85,145.302,851.371,145.319,851.839,145.321z
	 M869.18,161.949c1.246-0.486,2.492-0.975,3.741-1.45c-2.536,2.331-5.182,4.55-7.926,6.656c-1.385-0.305-2.938-0.563-4.503-0.681
	C863.383,164.957,866.28,163.451,869.18,161.949z M923.454,108.196c-0.578,0.328-1.158,0.652-1.737,0.979
	c0.442-0.273,0.886-0.548,1.328-0.822c0.123-0.058,0.246-0.115,0.37-0.173C923.427,108.186,923.44,108.19,923.454,108.196z
	 M445.631,80.248c0.124-0.03,0.248-0.062,0.372-0.093c-0.148,0.075-0.297,0.148-0.445,0.224c0.016-0.039,0.032-0.077,0.048-0.115
	C445.614,80.259,445.623,80.253,445.631,80.248z M814.42,138.265c-0.485-0.428-1.293-0.797-2.045-1.073
	c2.948-1.6,5.894-3.204,8.831-4.821c1.47,0.175,2.892,0.256,3.761,0.248C821.451,134.497,817.935,136.38,814.42,138.265z
	 M290.745,78.604c-4.085,0.962-8.119,2.106-12.078,3.474c-2.368,0.34-4.737,0.679-7.103,1.033c3.375-2.504,6.734-5.031,10.076-7.578
	c3.924,0.771,7.901,1.315,11.895,1.695C292.603,77.684,291.673,78.144,290.745,78.604z M838.125,122.87
	c3.439-1.972,6.868-3.961,10.278-5.979c4.345-2.105,8.702-4.181,13.073-6.229c-0.266,0.332-0.526,0.669-0.794,1
	c-0.078,0.097-0.107,0.198-0.113,0.302C853.282,116.036,845.829,119.737,838.125,122.87z M671.982,74.264
	C671.982,74.264,671.982,74.264,671.982,74.264c-0.486,0.359-0.976,0.716-1.457,1.083c-10.496,3.64-20.793,7.695-30.934,12.083
	c3.908-2.148,7.833-4.268,11.771-6.366C658.256,78.874,665.125,76.591,671.982,74.264z M656.27,104.406
	c1.148-0.585,2.296-1.169,3.446-1.749c0.085,0.006,0.171,0.013,0.257,0.019c-3.104,1.771-6.212,3.536-9.326,5.29
	C652.527,106.788,654.402,105.602,656.27,104.406z M772.941,87.253c-4.489,2.412-8.964,4.87-13.39,7.406
	c-2.354,0.916-4.709,1.835-7.063,2.754c2.247-2.153,4.466-4.339,6.614-6.598c0.391-0.411,0.416-0.79,0.228-1.133
	c0.87-0.749,1.738-1.501,2.61-2.248c8.808-3.117,17.648-6.151,26.493-9.162C783.175,81.11,778.019,84.117,772.941,87.253z
	 M699.734,73.684c-0.14,0.057-0.278,0.114-0.418,0.171c0.004-0.053,0.008-0.106-0.002-0.159
	C699.454,73.691,699.593,73.688,699.734,73.684z M783.549,69.505c2.572-0.191,5.144-0.386,7.714-0.59
	c0.59-0.006,1.181-0.006,1.771-0.012c-3.97,0.812-7.932,1.664-11.89,2.541C781.946,70.797,782.746,70.148,783.549,69.505z
	 M489.992,58.944c4.903-0.044,9.812-0.098,14.726-0.143c-1.222,1.099-2.459,2.183-3.718,3.246
	c-7.139,0.184-14.277,0.397-21.416,0.639C483.054,61.442,486.523,60.194,489.992,58.944z M257.521,64.558
	c-0.191,0.025-0.381,0.052-0.572,0.077c0.276-0.097,0.552-0.196,0.829-0.293C257.691,64.414,257.606,64.486,257.521,64.558z
	 M279.768,57.457c0.243,0.018,0.485,0.033,0.728,0.051c-0.429,0.152-0.856,0.309-1.283,0.465
	C279.397,57.8,279.584,57.63,279.768,57.457z M236.09,65.246c-0.528,0.271-1.056,0.543-1.583,0.818
	c-1.922,0.765-3.833,1.551-5.733,2.361c-0.593,0.08-1.186,0.159-1.778,0.238c-1.168-0.044-2.337-0.098-3.506-0.145
	c0.273-0.324,0.536-0.656,0.804-0.983C228.226,66.773,232.158,66.01,236.09,65.246z M170.546,73.378
	c0.406-1.136,0.794-2.278,1.16-3.429c1.075-0.167,2.15-0.334,3.226-0.501C173.417,70.692,171.957,72.007,170.546,73.378z
	 M624.608,155.12c0.953-0.514,1.906-1.028,2.859-1.542c0.675-0.326,1.348-0.653,2.022-0.979c-2.886,2.093-5.765,4.198-8.634,6.316
	C622.122,157.667,623.366,156.396,624.608,155.12z M826.448,89.474c-0.791,0.698-1.59,1.387-2.388,2.075
	c-0.772-0.03-1.468-0.027-2.013,0.01C823.51,90.856,824.979,90.164,826.448,89.474z M770.365,58.124
	c0.335,0.02,0.669,0.04,1.003,0.059c0.049,0.018,0.097,0.034,0.145,0.051c-0.73,0.183-1.371,0.467-1.839,0.901
	c-0.456,0.424-0.906,0.854-1.36,1.278c-0.679,0.114-1.357,0.23-2.036,0.346c-1.216-0.065-2.433-0.133-3.648-0.198
	c0.71-0.806,1.41-1.619,2.101-2.44c0.15-0.012,0.302-0.021,0.452-0.034C766.909,58.101,768.637,58.115,770.365,58.124z
	 M641.936,64.763c-0.855,0.018-1.712,0.043-2.567,0.058c-4.768,0.082-9.538,0.107-14.31,0.079c0.708-0.376,1.41-0.765,2.117-1.144
	C632.095,64.11,637.014,64.443,641.936,64.763z M310.014,53.939c-0.188,0.04-0.377,0.08-0.565,0.12
	c0.166-0.043,0.333-0.084,0.499-0.128C309.97,53.935,309.992,53.937,310.014,53.939z M643.878,74.507
	c0.661-0.002,1.322-0.007,1.983-0.009c-0.955,0.312-1.91,0.625-2.866,0.933c-0.494-0.092-0.988-0.18-1.482-0.266
	C642.299,74.939,643.09,74.728,643.878,74.507z M633.602,78.389c-5.56,1.712-11.14,3.349-16.746,4.888
	c4.906-1.842,9.863-3.551,14.864-5.141C632.348,78.213,632.976,78.298,633.602,78.389z M532.95,178.999
	c1.049-0.115,2.035-0.348,2.893-0.741c2.948-1.354,5.885-2.73,8.825-4.103c-8.039,5.083-15.958,10.345-23.686,15.87
	C524.916,186.298,528.925,182.642,532.95,178.999z M834.952,74.855c-0.124-0.105-0.267-0.207-0.431-0.303
	c2.821-1.062,5.659-2.071,8.517-3.011C840.332,72.625,837.637,73.731,834.952,74.855z M200.114,65.575
	c-0.728,0.141-1.454,0.283-2.182,0.424c0.046-0.062,0.094-0.122,0.14-0.184c0.709-0.113,1.419-0.224,2.129-0.337
	C200.172,65.511,200.143,65.543,200.114,65.575z M127.104,69.178c-0.684,0.223-1.37,0.444-2.054,0.666
	c0.991-2.03,1.962-4.071,2.91-6.126c0.395-0.09,0.79-0.177,1.185-0.267C128.515,65.376,127.834,67.285,127.104,69.178z
	 M772.185,52.394c-0.313,0.035-0.627,0.067-0.939,0.103c-0.438-0.001-0.875-0.004-1.312-0.005c0.471-0.059,0.941-0.118,1.413-0.177
	C771.626,52.34,771.906,52.368,772.185,52.394z M168.025,54.973c-0.133-0.006-0.265-0.01-0.397-0.014
	c0.341-0.074,0.681-0.147,1.022-0.221C168.442,54.816,168.234,54.895,168.025,54.973z M160.967,57.213
	c-1.085-0.029-2.171-0.062-3.256-0.096c1.414-0.309,2.828-0.617,4.243-0.925C161.621,56.53,161.293,56.871,160.967,57.213z
	 M597.298,79.046c2.974-0.412,5.954-0.767,8.935-1.04c-2.484,0.895-4.958,1.816-7.417,2.775c-0.981-0.176-2.04-0.321-3.107-0.433
	C596.242,79.918,596.768,79.479,597.298,79.046z M699.856,49.342c0.089,0.021,0.178,0.044,0.268,0.062
	c-0.208,0.025-0.417,0.047-0.625,0.071c-0.309-0.01-0.617-0.017-0.926-0.026c0.182-0.028,0.363-0.058,0.545-0.086
	C699.364,49.356,699.61,49.349,699.856,49.342z M191.071,55.316c0.774-0.303,1.546-0.613,2.319-0.919
	c-0.168,0.194-0.333,0.393-0.501,0.587C192.283,55.096,191.676,55.204,191.071,55.316z M198.489,104.774
	c0.702-0.102,1.404-0.203,2.106-0.305c-2.231,1.405-4.445,2.84-6.659,4.271C195.446,107.408,196.962,106.084,198.489,104.774z
	 M298.215,74.97c-2.555-0.196-5.104-0.467-7.635-0.836c3.213-0.025,6.426-0.058,9.64-0.101
	C299.552,74.347,298.881,74.653,298.215,74.97z M571.803,67.143c1.892,0.186,3.785,0.366,5.679,0.533
	c-0.426,0.188-0.85,0.379-1.275,0.565c-1.559-0.029-3.117-0.062-4.676-0.093C571.625,67.813,571.717,67.479,571.803,67.143z
	 M583.138,108.371c-6.592,3.865-13.172,7.751-19.75,11.641c3.081-2.286,6.119-4.626,9.104-7.022
	C576.036,111.438,579.584,109.896,583.138,108.371z M512.721,211.602c0.195-0.039,0.391-0.078,0.585-0.118
	c-0.35,0.281-0.697,0.566-1.047,0.849c-0.226,0.024-0.451,0.049-0.677,0.073C511.962,212.138,512.34,211.869,512.721,211.602z
	 M254.807,96.422c-2.152,1.143-4.288,2.312-6.404,3.513c1.505-1.073,3.005-2.152,4.507-3.229
	C253.542,96.61,254.174,96.517,254.807,96.422z M314.894,76.255c1.295-0.6,2.595-1.188,3.896-1.775
	c-0.386,0.319-0.77,0.64-1.155,0.957C316.721,75.71,315.809,75.988,314.894,76.255z M554.487,73.361
	c0.562,0.015,1.124,0.029,1.686,0.044c-0.847,1.794-1.826,3.528-2.889,5.221c-2.112,0.983-4.219,1.978-6.325,2.974
	C549.632,79.001,552.165,76.27,554.487,73.361z M526.297,144.378c0.356,0.169,0.722,0.321,1.059,0.45
	c-4.604,2.573-9.229,5.113-13.869,7.628c-0.217-0.093-0.433-0.189-0.649-0.283C517.328,149.63,521.821,147.035,526.297,144.378z
	 M573.751,201.349c0.38,0.021,0.761,0.041,1.141,0.061c-0.609,0.095-1.218,0.195-1.826,0.293
	C573.293,201.583,573.523,201.467,573.751,201.349z M586.579,194.8c3.766-1.895,7.535-3.78,11.312-5.648
	c-0.141,0.086-0.283,0.168-0.424,0.254c-0.931,0.567-0.367,1.222,0.59,1.786c-0.884,0.587-1.768,1.174-2.649,1.757
	c-0.691,0.457-1.388,0.91-2.081,1.365C591.079,194.49,588.829,194.652,586.579,194.8z M637.322,188.849
	c-0.823,0.142-1.647,0.272-2.471,0.41c0.725-0.43,1.449-0.859,2.175-1.288C636.869,188.262,637,188.559,637.322,188.849z
	 M874.488,185.996c4.655-2.628,9.317-5.243,13.994-7.834c-0.444,1.074-0.936,2.128-1.467,3.163
	c-8.521,5.387-16.843,11.076-24.88,17.178c-0.255,0.193-0.379,0.387-0.407,0.576c-0.31,0.157-0.618,0.313-0.927,0.472
	c-1.477,0.758-2.953,1.532-4.429,2.316c-1.179,0.073-2.358,0.142-3.537,0.209C860.932,197.872,869.23,193.082,874.488,185.996z
	 M891.657,66.457c-0.169-0.043-0.363-0.087-0.548-0.13c0.258-0.21,0.508-0.427,0.766-0.635c0.287-0.118,0.575-0.23,0.862-0.347
	c-0.102,0.447-0.213,0.892-0.329,1.334C892.047,66.562,891.757,66.482,891.657,66.457z M392.4,47.373
	c-0.276-0.014-0.552-0.033-0.828-0.044c5.533-0.96,11.077-1.831,16.631-2.607c-0.803,0.404-1.607,0.807-2.409,1.213
	C401.328,46.4,396.864,46.882,392.4,47.373z M240.025,51.923c-1.878,0.361-3.759,0.708-5.635,1.077
	c0.105-0.179,0.206-0.359,0.31-0.538c1.341-0.266,2.682-0.535,4.019-0.815C239.154,51.741,239.589,51.83,240.025,51.923z
	 M504.571,156.808c0.473-0.263,0.947-0.528,1.421-0.792c0.171,0.069,0.341,0.138,0.512,0.207c-2.181,1.169-4.363,2.334-6.548,3.496
	c-0.228-0.002-0.455-0.007-0.683-0.001C501.042,158.752,502.809,157.786,504.571,156.808z M564.832,208.355
	c-0.688,0.003-1.376,0.015-2.064,0.023c0.95-0.658,1.903-1.31,2.854-1.965c1.738-0.316,3.476-0.624,5.213-0.926
	C568.847,206.471,566.848,207.431,564.832,208.355z M826.502,205.449c0.342,0.261,0.749,0.496,1.105,0.68
	c-0.775-0.014-1.55-0.026-2.325-0.04C825.69,205.876,826.096,205.663,826.502,205.449z M969.274,74.897
	c-0.176-0.03-0.352-0.06-0.532-0.086c0.78-0.294,1.562-0.586,2.341-0.882C970.475,74.245,969.878,74.576,969.274,74.897z
	 M922.902,72.339c-3.893,0.532-7.783,1.042-11.665,1.519c-0.016,0.002-0.031,0.004-0.046,0.006c0.812-0.345,1.62-0.699,2.428-1.054
	c5.425-1.597,10.87-3.125,16.333-4.595C927.587,69.558,925.237,70.931,922.902,72.339z M99.036,72.03
	c-0.576-0.387-1.152-0.772-1.73-1.156c1.282-0.308,2.562-0.621,3.844-0.927C100.43,70.63,99.725,71.323,99.036,72.03z
	 M157.597,112.99c0.821,0.2,1.449,0.325,1.641,0.336c0.261,0.015,0.521,0.022,0.781,0.037c-0.067,0.21-0.139,0.42-0.205,0.63
	c-2.735,1.495-5.447,3.027-8.138,4.59C153.692,116.769,155.663,114.901,157.597,112.99z M512.341,122.517
	c-4.728,2.74-9.468,5.438-14.212,8.098c-4.079,2.287-8.177,4.538-12.287,6.768c-0.247-0.166-0.492-0.335-0.738-0.503
	C494.105,131.939,503.183,127.145,512.341,122.517z M477.569,141.827c-5.155,2.739-10.33,5.44-15.524,8.104
	c4.932-2.877,9.889-5.711,14.867-8.505C477.131,141.561,477.35,141.694,477.569,141.827z M479.076,158.395
	c0.292,0.037,0.586,0.069,0.887,0.098c-6.513,3.537-13.068,6.99-19.661,10.373C466.52,165.308,472.778,161.817,479.076,158.395z
	 M909.385,62.828c0.137-1.158,0.231-2.327,0.259-3.515c0.003-0.129-0.017-0.252-0.047-0.371c3.602-0.374,7.203-0.761,10.803-1.162
	C916.728,59.461,913.058,61.149,909.385,62.828z M103.772,60.452c1.294,0.103,2.588,0.208,3.883,0.304
	c-0.049,0.224-0.105,0.445-0.156,0.669c-2.257,0.519-4.515,1.037-6.771,1.562c0.556-0.665,1.126-1.317,1.698-1.969
	C102.871,60.818,103.322,60.636,103.772,60.452z M467.08,134.951c-0.533,0.295-1.067,0.586-1.6,0.881
	c0.522-0.301,1.043-0.604,1.565-0.905C467.057,134.935,467.068,134.943,467.08,134.951z M720.049,192.689
	c0.327-0.121,0.656-0.234,0.984-0.353c-0.459,0.196-0.919,0.391-1.378,0.586C719.787,192.845,719.918,192.767,720.049,192.689z
	 M977.828,73.399c-1.929-0.216-3.895-0.252-5.082-0.097c0.603-0.23,1.207-0.459,1.81-0.69c3.582-1.113,7.174-2.186,10.778-3.194
	C982.81,70.703,980.302,72.025,977.828,73.399z M63.216,72.087c-0.022,0.006-0.045,0.012-0.068,0.018
	c0.003-0.016,0.007-0.03,0.01-0.046C63.178,72.068,63.197,72.077,63.216,72.087z M69.921,77.698
	c-0.323,0.555-0.638,1.113-0.945,1.678c-2.449,0.359-4.899,0.72-7.349,1.078c0.028-0.203,0.051-0.407,0.08-0.61
	C64.443,79.12,67.181,78.406,69.921,77.698z M60.976,86.535c1.638-0.239,3.275-0.478,4.913-0.718
	c-0.484,1.13-0.947,2.266-1.383,3.41c-1.133,0.373-2.267,0.746-3.399,1.122c-0.098-0.425-0.208-0.846-0.309-1.269
	C60.847,88.23,60.908,87.382,60.976,86.535z M132.748,129.456c0.168,0.137,0.413,0.242,0.71,0.32
	c-1.359,0.876-2.715,1.758-4.067,2.646C130.485,131.404,131.603,130.413,132.748,129.456z M272.678,98.018
	c3.525-1.965,7.061-3.91,10.61-5.827c2.14-0.314,4.281-0.626,6.421-0.938c-6.938,3.628-13.845,7.323-20.709,11.099
	c-1.286,0.192-2.571,0.388-3.859,0.574C267.652,101.287,270.165,99.651,272.678,98.018z M383.736,116.397
	c-0.734,0.879-1.466,1.761-2.196,2.643c-10.147,5.512-20.255,11.102-30.337,16.739C362.026,129.284,372.87,122.822,383.736,116.397z
	 M307.807,173.73c-0.474,0.357-0.943,0.72-1.415,1.081c-0.491,0.163-0.983,0.322-1.473,0.489
	C305.882,174.777,306.845,174.255,307.807,173.73z M327.256,175.166c-0.006-0.302-0.183-0.572-0.5-0.812
	c0.245-0.18,0.493-0.355,0.739-0.534c0.192,0.088,0.386,0.172,0.578,0.26C327.8,174.44,327.525,174.802,327.256,175.166z
	 M414.776,125.777c0.771-0.888,1.538-1.777,2.304-2.669c7.731-3.853,15.473-7.691,23.183-11.588
	c0.272,0.293,0.544,0.584,0.817,0.874c-9.172,5.013-18.279,10.16-27.349,15.385c0.368-0.357,0.741-0.709,1.107-1.068
	C415.18,126.375,415.115,126.063,414.776,125.777z M459.423,181.202c-0.364,0.195-0.726,0.392-1.089,0.588
	c0.046-0.049,0.095-0.096,0.141-0.145C458.792,181.498,459.106,181.349,459.423,181.202z M473.71,187.128
	c0.356-0.171,0.713-0.339,1.068-0.51c-0.906,0.668-1.81,1.341-2.713,2.012c-0.303,0.014-0.606,0.026-0.903,0.058
	C472.012,188.168,472.864,187.651,473.71,187.128z M89.167,59.1c-0.347,0.169-0.695,0.333-1.039,0.511
	c-2.638-1.149-8.37-1.44-9.611-0.101c-1.522-0.809-3.059-1.593-4.611-2.351C78.976,57.911,84.064,58.551,89.167,59.1z
	 M132.18,142.948c-0.639,1.674-1.335,3.304-2.05,4.879c-2.95,2.523-5.933,5.012-8.935,7.479c1.543-2.692,3.12-5.365,4.727-8.022
	C128.003,145.832,130.089,144.386,132.18,142.948z M254.429,109.924c0.437-0.05,0.874-0.1,1.31-0.151
	c-3.117,1.778-6.221,3.577-9.315,5.392C249.092,113.417,251.761,111.671,254.429,109.924z M382.498,98.301
	c-0.927,0.438-1.854,0.879-2.78,1.319c-0.438,0.036-0.877,0.064-1.315,0.1C379.764,99.235,381.131,98.771,382.498,98.301z
	 M310.908,147.949c0.74-1.014,1.497-2.015,2.232-3.032c0.225-0.312,0.167-0.618-0.096-0.913
	c11.326-6.054,22.699-12.015,34.121-17.877C335.049,133.351,322.969,140.634,310.908,147.949z M996.914,166.483
	c0.212-0.148,0.422-0.299,0.634-0.447c-0.066,0.139-0.14,0.275-0.208,0.413C997.198,166.462,997.053,166.467,996.914,166.483z
	 M350.304,86.813c-0.449,0.302-0.898,0.603-1.348,0.903c-0.103,0.021-0.207,0.042-0.31,0.063
	C349.199,87.459,349.751,87.135,350.304,86.813z M361.181,106.235c1.779-0.08,3.559-0.171,5.338-0.263
	c-7.468,3.639-14.914,7.323-22.328,11.069C349.888,113.492,355.555,109.896,361.181,106.235z M140.363,181.339
	c6.817-3.427,13.429-7.184,19.901-11.164c-4.038,4.725-7.982,9.533-11.891,14.373c-3.946,3.449-7.841,6.958-11.678,10.536
	c-0.22,0.205-0.316,0.403-0.317,0.594c-2.429,1.63-4.862,3.253-7.295,4.871c3.092-6.542,6.646-12.88,10.551-19.013
	C139.937,181.491,140.187,181.428,140.363,181.339z M332.136,97.518c0.982-0.191,1.963-0.387,2.945-0.58
	c-3.586,2.36-7.18,4.71-10.779,7.051c-3.516,1.658-7.011,3.362-10.487,5.106c0.534-0.507,1.074-1.008,1.623-1.503
	C320.989,104.208,326.554,100.849,332.136,97.518z M314.34,123.374c-7.186,4.361-14.402,8.676-21.629,12.975
	c6.458-4.094,12.914-8.192,19.36-12.304C312.83,123.827,313.584,123.599,314.34,123.374z M619.645,201.317
	c0.692-0.054,1.386-0.11,2.078-0.17c-0.949,0.694-1.895,1.392-2.836,2.09c-1.279,0.907-2.539,1.846-3.771,2.826
	c-0.68,0.54-0.184,1.061,0.688,1.5c-0.882,0.57-1.763,1.139-2.64,1.715c-4.089,0.246-8.178,0.521-12.264,0.815
	C606.904,207.241,613.185,204.12,619.645,201.317z M80.34,186.819c-0.451,0.554-0.901,1.107-1.352,1.662
	c-1.448,0.915-2.894,1.833-4.336,2.757c0.069-0.376,0.141-0.752,0.212-1.128C76.687,189.008,78.512,187.91,80.34,186.819z
	 M464.041,34.404c-3.209,0.146-6.417,0.303-9.623,0.481c2.022-0.34,4.045-0.678,6.066-1.021
	C461.668,34.058,462.854,34.234,464.041,34.404z M201.536,180.222c0.027-0.055,0.054-0.109,0.082-0.164
	c1.305-0.847,2.609-1.693,3.914-2.541c-1.101,0.804-2.201,1.607-3.299,2.413C202,180.026,201.768,180.124,201.536,180.222z
	 M254.429,225.044c-0.515,0.868-1.018,1.744-1.511,2.627c-1.375,0.134-2.751,0.269-4.126,0.404
	C250.664,227.052,252.543,226.042,254.429,225.044z M844.065,220.314c0.615,0.024,1.179,0.031,1.667,0.032
	c-0.136,0.095-0.271,0.19-0.405,0.285c-0.627-0.007-1.254-0.007-1.881-0.012C843.653,220.52,843.858,220.415,844.065,220.314z
	 M917.805,44.751c-0.03-0.259-0.16-0.495-0.36-0.709c1.146,0.104,2.29,0.21,3.436,0.318
	C919.856,44.494,918.831,44.623,917.805,44.751z M67.24,162.294c-0.325,1.239-0.655,2.478-0.987,3.716
	c-1.273,1.39-2.539,2.785-3.799,4.185c-1.339,1.13-2.667,2.271-3.989,3.42c0.052-1.18,0.093-2.36,0.151-3.539
	C61.481,167.475,64.36,164.885,67.24,162.294z M282.696,225.357c0.249-0.137,0.498-0.271,0.747-0.407
	c-0.028,0.126-0.054,0.252-0.081,0.379C283.14,225.339,282.918,225.347,282.696,225.357z M385.001,169.111
	c1.767-0.83,3.534-1.66,5.306-2.48c-0.502,1.091-1.038,2.173-1.608,3.244c-5.177,3.302-10.338,6.629-15.481,9.981
	c-2.326,0.22-4.615,0.579-6.868,1.062C372.54,176.942,378.761,173.013,385.001,169.111z M452.16,219.826
	c0.028,0.007,0.059,0.015,0.084,0.021c-0.041,0.002-0.082,0.004-0.123,0.006C452.135,219.845,452.147,219.835,452.16,219.826z
	 M1021.628,185.461c0.046,0.092,0.093,0.184,0.139,0.275c-0.011,0.005-0.021,0.011-0.032,0.017c-0.002,0-0.004-0.001-0.006-0.001
	c-0.003,0.003-0.007,0.006-0.01,0.009c-0.389,0.201-0.775,0.406-1.163,0.608C1020.915,186.067,1021.271,185.764,1021.628,185.461z
	 M1033.302,54.868c-0.88,0.503-1.749,1.021-2.626,1.529c-2.12-0.275-4.239-0.56-6.357-0.851c1.8-0.667,3.595-1.345,5.379-2.048
	c1.132-0.033,2.264-0.067,3.396-0.096C1033.183,53.882,1033.254,54.37,1033.302,54.868z M362.587,204.406
	c3.179-2.423,6.358-4.902,9.467-7.474c-0.076,0.156-0.156,0.312-0.23,0.468c-0.343,0.722,0.657,1.287,2.261,1.705
	c-6.075,3.828-12.14,7.694-18.265,11.428c-0.11-0.289-0.22-0.577-0.33-0.865C357.877,207.94,360.247,206.19,362.587,204.406z
	 M440.979,210.213c-0.003,0.002-0.007,0.005-0.01,0.008c0-0.001,0-0.002,0-0.003C440.972,210.216,440.976,210.215,440.979,210.213z
	 M1019.75,143.485c-0.9-0.15-1.903-0.299-2.942-0.404c0.035-0.335,0.067-0.671,0.1-1.007c1.371-0.198,2.354-0.628,2.489-1.351
	c0.043-0.228,0.092-0.453,0.137-0.681c0.352,1.215,0.702,2.431,1.06,3.644C1020.138,143.569,1019.821,143.497,1019.75,143.485z
	 M692.5,36.359c-1.121,0.154-2.24,0.312-3.358,0.473c-1.068,0.021-2.138,0.048-3.207,0.064c-2.712-0.508-5.437-0.964-8.169-1.378
	c3.688-0.036,7.378-0.053,11.067-0.044C690.053,35.786,691.276,36.081,692.5,36.359z M633.454,31.76
	c-5.28,0.159-10.582,0.284-15.87,0.257c0.945-0.198,1.885-0.413,2.824-0.629c3.747,0.066,7.497,0.108,11.247,0.135
	C632.254,31.602,632.854,31.68,633.454,31.76z M158.563,201.54c-0.834,0.744-1.669,1.488-2.505,2.231
	c0.367-0.871,0.746-1.737,1.143-2.596C157.701,201.324,158.177,201.447,158.563,201.54z M954.298,218.037
	c3.101-2.069,6.179-4.174,9.245-6.299c1.739,0.692,3.985,1.131,4.369,1.195c0.014,0.002,0.029,0.005,0.044,0.007
	c-0.586,0.599-1.174,1.195-1.748,1.808c-1.666,1.778,3.077,2.964,3.96,3.188c1.265,0.32,2.785,0.646,4.375,0.864
	c-0.604,0.017-1.208,0.035-1.812,0.054C966.588,218.557,960.444,218.291,954.298,218.037z M1022.539,168.703
	c-0.577-0.002-1.146,0.009-1.698,0.029c-1.448-5.239-2.957-10.456-4.417-15.675c1.932-1.298,3.869-2.587,5.812-3.871
	c0.156,0.519,0.313,1.037,0.471,1.555C1022.576,156.748,1022.541,162.745,1022.539,168.703z M246.213,38.544
	c-4.658-0.878-9.308-1.804-13.945-2.792c9.727,0.709,19.393,1.912,29.012,3.463C256.259,38.922,251.237,38.7,246.213,38.544z
	 M48.921,144.61c0.486,0.251,1.076,0.47,1.736,0.654c-0.299,1.168-0.587,2.34-0.873,3.511c-2.188,0.098-3.912,0.579-4.083,1.567
	c-0.082,0.471-0.159,0.943-0.239,1.414c-0.056-0.311-0.118-0.621-0.177-0.932C46.478,148.744,47.693,146.674,48.921,144.61z
	 M671.777,220.781c0.505-0.284,1.011-0.568,1.517-0.854c4.388-0.768,8.779-1.52,13.179-2.224c2.323-0.339,4.644-0.686,6.962-1.042
	c-1.427,1.139-2.836,2.301-4.229,3.482c-4.699,0.34-9.401,0.65-14.104,0.946C673.992,220.996,672.884,220.89,671.777,220.781z
	 M869.906,225.848c0.325,0.17,0.693,0.325,1.083,0.468c-2.756,0.06-5.512,0.119-8.267,0.195
	C865.118,226.295,867.512,226.075,869.906,225.848z M652.729,30.69c-0.662-0.092-1.324-0.185-1.988-0.276
	c0.021-0.062,0.045-0.121,0.051-0.188c0.011-0.113-0.004-0.222-0.034-0.325c3.692-0.008,7.386-0.013,11.078-0.017
	C658.826,30.109,655.788,30.386,652.729,30.69z M267.578,36.609c-8.539-1.434-17.109-2.641-25.717-3.526
	c9.511,0.712,19.026,1.283,28.546,1.72C268.893,35.065,267.346,35.804,267.578,36.609z M27.776,52.413
	c-0.005,0.025-0.016,0.048-0.019,0.073c-0.079,0.755-0.172,1.509-0.259,2.263c-0.107-0.797-0.219-1.594-0.333-2.39
	C27.369,52.376,27.572,52.397,27.776,52.413z M205.931,228.683c1.513-1.105,3.049-2.216,4.61-3.315
	c3.84-1.041,7.635-2.218,11.39-3.515c0.746,0.01,1.452-0.018,2.084-0.086c-2.902,3.441-5.817,6.873-8.664,10.358
	c-4.752,0.073-9.504,0.113-14.252,0.134C202.706,231.059,204.314,229.864,205.931,228.683z M427.383,217.312
	c0.022,0.229,0.033,0.462,0.051,0.692c-0.554,0.054-1.107,0.107-1.661,0.162C426.31,217.881,426.846,217.597,427.383,217.312z
	 M942.698,225.377c0.09-0.038,0.181-0.073,0.268-0.114c9.508-0.711,19.02-1.276,28.534-1.652
	c-9.753,0.711-19.504,1.456-29.258,2.145C942.393,225.628,942.546,225.503,942.698,225.377z M1044.245,49.196
	c-0.364-0.493-0.761-0.957-1.187-1.394c1.895-0.283,3.79-0.61,5.688-0.98c-0.592,0.817-1.183,1.635-1.771,2.455
	C1046.065,49.254,1045.155,49.226,1044.245,49.196z M559.444,24.663c-0.23,0.176-0.384,0.39-0.408,0.66
	c-0.057,0.613,0.583,1.084,1.426,1.438c-6.961,0.182-13.921,0.396-20.881,0.646c-0.52-0.369-1.295-0.648-2.074-0.858
	c2.163-0.399,4.328-0.785,6.496-1.157C549.149,25.129,554.295,24.891,559.444,24.663z M178.051,36.993
	c8.054-0.301,16.113-0.468,24.176-0.477C194.233,37.272,186.124,37.175,178.051,36.993z M419.983,221.25
	c2.247-0.25,4.496-0.489,6.747-0.723c-0.267,0.191-0.534,0.382-0.8,0.573c-1.212,0.053-2.424,0.106-3.636,0.158
	c-0.549,0.023-5.224,0.448-3.844,2.076c0.243,0.287,0.542,0.538,0.882,0.761c-2.028,0.247-4.055,0.491-6.081,0.73
	C415.497,223.638,417.741,222.445,419.983,221.25z M638.368,23.802c-2.317-0.951-6.709-1.688-7.329-1.686
	c-4.243,0.011-8.484,0.094-12.725,0.203c0.224-0.072,0.448-0.139,0.671-0.212c0.691-0.228,0.978-0.511,1.01-0.808
	c8.972,0.386,17.931,1.069,26.839,2.104C644.01,23.527,641.189,23.659,638.368,23.802z M313.86,31.661
	c-8.048-0.082-16.093-0.232-24.135-0.465c8.242,0.111,16.483,0.248,24.724,0.407C314.252,31.623,314.056,31.642,313.86,31.661z
	 M218.354,31.52c-2.372-0.067-4.746-0.114-7.125-0.121c-2-0.006-4.108,0.576-4.426,1.329c-25.688-0.333-51.344,0.942-76.93,3.169
	c-1.486-0.006-2.97,0.004-4.453,0.026c31.054-2.792,62.193-4.173,93.369-4.711C218.643,31.314,218.498,31.417,218.354,31.52z
	 M133.597,221.119c0.597-0.44,1.201-0.871,1.81-1.294c-0.231,0.945-0.491,1.885-0.77,2.819c-1.96,1.733-3.918,3.47-5.868,5.214
	c-0.557,0.498-0.225,0.956,0.448,1.345c-2.416,1.331-4.842,2.644-7.285,3.925C125.974,229.265,129.838,225.24,133.597,221.119z
	 M146.458,230.774c3.35,0.217,6.634,0.048,7.667-0.535c2.177-1.229,4.341-2.48,6.494-3.748c-1.946,1.416-3.888,2.836-5.825,4.256
	c-3.098,0.624-6.178,1.351-9.223,2.167C145.873,232.204,146.169,231.491,146.458,230.774z M234.121,236.624
	c0.851-0.03,1.7-0.07,2.55-0.104c1.413,0.112,2.74,0.079,3.76-0.162c3.38-0.158,6.758-0.345,10.135-0.558
	c-7.121,1.394-14.256,2.724-21.396,4.029C230.802,238.733,232.456,237.67,234.121,236.624z M316.331,237.729
	c3.752-1.009,7.431-2.172,11.046-3.472c-4.283,1.878-8.613,3.656-12.993,5.332C315.03,238.966,315.681,238.349,316.331,237.729z
	 M1047.448,85.371c0.306-0.952,0.635-1.896,0.962-2.841c0.522-0.656,1.049-1.31,1.578-1.959
	C1049.093,82.143,1048.247,83.743,1047.448,85.371z M1055.009,38.311c-1.163,1.559-2.322,3.121-3.476,4.69
	c-1.855-0.507-3.902-0.866-4.741-0.91c2.648-1.205,5.296-2.412,7.937-3.629C1054.838,38.411,1054.919,38.361,1055.009,38.311z
	 M741.777,26.635c-6.68-1.085-13.343-2.261-19.985-3.56c-0.023-0.199-0.15-0.407-0.364-0.616c16.108,0.271,32.187,1.565,48.269,2.86
	C760.389,25.771,751.084,26.246,741.777,26.635z M692.85,20.803c0.255,0.222,0.608,0.436,1.061,0.633
	c-8.342,0.439-16.697,0.773-25.055,1.093c-14.742-2.563-29.656-4.125-44.616-4.971C647.135,16.924,670.147,17.782,692.85,20.803z
	 M492.912,23.544c-19.673,0.838-39.356,1.965-59.03,3.384c1.309-0.303,2.62-0.593,3.927-0.9c5.243-1.231-0.978-3-4.677-3.675
	C452.853,20.287,473.029,21.176,492.912,23.544z M405.771,27.272c-2.105,0.46-4.209,0.92-6.316,1.37
	c-2.497-0.101-4.994-0.209-7.491-0.328C396.564,27.922,401.166,27.569,405.771,27.272z M307.263,26.872
	c-29.748-0.526-59.5-0.798-89.225-0.365c-0.235-0.025-0.471-0.055-0.706-0.08C247.257,24.025,277.258,24.961,307.263,26.872z
	 M211.438,237.034c-0.088,0.113-0.18,0.225-0.268,0.338c-0.189-0.113-0.377-0.23-0.567-0.342
	C210.882,237.031,211.16,237.034,211.438,237.034z M274.542,239.788c-0.944,0.141-1.903,0.186-2.856,0.24
	c0.509-0.029-0.687-0.08-1.247-0.083c-0.198-0.029-0.398-0.06-0.491-0.083c0.096,0.024-0.071-0.041-0.319-0.133
	c0.113-0.759,0.243-1.511,0.39-2.256c9.309-1.906,18.589-3.954,27.823-6.229c-0.386,0.565-0.762,1.136-1.134,1.709
	c-2.57,1.105-5.167,2.15-7.8,3.104C284.234,237.752,279.461,239.057,274.542,239.788z M515.508,225.283
	c0.155-0.02,0.311-0.038,0.466-0.058c0.081,0.018,0.16,0.042,0.242,0.059c-14.849,3.892-30.139,6.906-45.506,8.357
	c7.702-1.93,15.471-3.556,23.284-4.967C501.223,227.729,508.41,226.579,515.508,225.283z M611.207,231.073
	c7.21-1.09,14.444-1.966,21.696-2.697c0.816,0.043,1.634,0.085,2.45,0.128C627.321,229.645,619.269,230.621,611.207,231.073z
	 M704.229,227.322c0.016-0.009,0.03-0.018,0.046-0.026c2.809,0.018,5.618,0.013,8.429-0.027c-0.016,0.014-0.032,0.025-0.048,0.039
	C709.846,227.333,707.038,227.336,704.229,227.322z M736.59,227.568c0.389-0.005,0.778-0.009,1.168-0.015
	c-0.095,0.109-0.188,0.219-0.281,0.328C737.206,227.773,736.915,227.667,736.59,227.568z"/>
<g>
	<g>
		<path d="M13.594,42.148c-2.919,67.199-4.875,134.419-6.897,201.648c-0.111,3.697,16.68,4.359,16.595,1.518
			c-2.024-67.649-3.982-135.29-6.897-202.91C16.369,41.794,13.616,41.638,13.594,42.148L13.594,42.148z"/>
	</g>
	<g>
		<path d="M2.296,41.774c61.899,12.228,125.618,1.083,187.908-1.187c71.631-2.609,143.258-5.427,214.894-7.895
			c71.579-2.466,143.181-3.713,214.794-2.123c70.962,1.575,141.865,5.107,212.706,9.462c43.623,2.682,87.225,5.705,130.823,8.757
			c20.473,1.433,40.787,2.794,61.323,2.276c19.854-0.5,39.687-2.436,59.329-5.325c3.05-0.448,3.063-2.158,0.291-3.187
			c-3.649-1.354-7.951-1.646-11.783-1.077c-31.959,4.738-63.895,6.005-96.109,3.781c-35.149-2.427-70.301-4.825-105.461-7.084
			c-70.615-4.536-141.277-8.468-212.007-10.737c-142.465-4.571-284.511,2.683-426.818,8.513
			c-38.551,1.579-76.911,3.647-115.385,6.551c-37.746,2.847-76.078,5.356-113.552-1.503C2.028,40.773,0.052,41.331,2.296,41.774
			L2.296,41.774z"/>
	</g>
	<g>
		<path d="M1075.467,41.567c-9.071,21.899-16.196,45.19-21.767,68.221c-5.716,23.629-8.542,48.506-5.121,72.686
			c1.586,11.21,4.898,22.031,9.793,32.234c2.385,4.972,5.297,9.673,8.517,14.144c1.966,2.729,17.705,7.604,17.516,0.958
			c-0.051-1.743-3.254-4.913-4.219-6.404c-1.502-2.322-2.848-4.741-4.141-7.184c-2.908-5.495-5.152-11.305-6.999-17.233
			c-3.536-11.351-5.427-23.065-6.192-34.915c-1.377-21.3,0.335-42.48,3.49-63.561c2.977-19.881,8.274-39.057,12.623-58.625
			C1079.095,41.312,1075.774,40.826,1075.467,41.567L1075.467,41.567z"/>
	</g>
	<g>
		<path d="M14.853,243.967c66.084,17.403,133.845,8.738,200.908,3.79c34.418-2.539,68.916-4.231,103.357-6.461
			c34.581-2.238,69.165-4.451,103.772-6.244c59.755-3.095,119.439-4.24,179.264-3.201c33.936,0.59,67.876,0.93,101.815,1.173
			c84.397,0.604,168.829,0.692,253.214-1.047c26.745-0.551,53.498-1.249,80.212-2.677c15.965-0.853,32.515-1.319,48.2-4.682
			c3.089-0.662,3.46-2.246,0.312-3.414c-3.745-1.39-8.689-1.998-12.625-1.154c-3.392,0.727-6.832,1.207-10.272,1.633
			c-1.741,0.215,0.59-0.055-1.814,0.207c-1.129,0.123-2.26,0.236-3.391,0.347c-2.708,0.266-5.419,0.496-8.132,0.713
			c-13.399,1.069-26.833,1.712-40.263,2.264c-36.947,1.517-73.933,2.104-110.906,2.52c-83.185,0.934-166.391,0.668-249.575-0.261
			c-38.518-0.43-77.042-1.533-115.562-1.239c-69.544,0.53-138.992,4.672-208.375,9.134c-50.796,3.267-101.643,5.951-152.369,10.179
			c-49.55,4.13-99.933,7.879-148.598-4.844c-3.614-0.945-8.391-1.529-12.004-0.245C8.4,241.741,13.652,243.651,14.853,243.967
			L14.853,243.967z"/>
	</g>
</g>
</svg>
